<?xml version="1.0" encoding="UTF-8" standalone="no"?>
<!DOCTYPE svg PUBLIC "-//W3C//DTD SVG 1.1//EN"
 "http://www.w3.org/Graphics/SVG/1.1/DTD/svg11.dtd">
<!-- Generated by graphviz version 3.0.0 (20220226.1711)
 -->
<!-- Title: 1_s2_leagueM_game4_1052 Pages: 1 -->
<svg width="113pt" height="170pt"
 viewBox="0.00 0.00 113.00 170.00" xmlns="http://www.w3.org/2000/svg" xmlns:xlink="http://www.w3.org/1999/xlink">
<g id="graph0" class="graph" transform="scale(1 1) rotate(0) translate(4 166)">
<title>1_s2_leagueM_game4_1052</title>
<polygon fill="white" stroke="transparent" points="-4,4 -4,-166 109,-166 109,4 -4,4"/>
<g id="clust1" class="cluster">
<title>cluster_1_s2_leagueM_game4_1052</title>
<polygon fill="none" stroke="black" points="8,-8 8,-154 97,-154 97,-8 8,-8"/>
<text text-anchor="middle" x="30" y="-138.8" font-family="Times,serif" font-size="14.00">1052</text>
</g>
<!-- s2_leagueM_game4_01_stac_1413791955 -->
<g id="node1" class="node">
<title>s2_leagueM_game4_01_stac_1413791955</title>
<g id="a_node1"><a xlink:title="1 &#160;dmm &#160;now i need a wheat OR a sheep">
<ellipse fill="black" stroke="black" cx="60" cy="-119.5" rx="3.5" ry="3.5"/>
</a>
</g>
</g>
<!-- 1_0 -->
<!-- s2_leagueM_game4_01_stac_1413791955&#45;&gt;1_0 -->
<!-- s2_leagueM_game4_01_stac_1413791958 -->
<g id="node3" class="node">
<title>s2_leagueM_game4_01_stac_1413791958</title>
<g id="a_node3"><a xlink:title="2 &#160;dmm &#160;i can offer ore or wood">
<ellipse fill="black" stroke="black" cx="20" cy="-94.5" rx="3.5" ry="3.5"/>
</a>
</g>
</g>
<!-- s2_leagueM_game4_01_stac_1413791955&#45;&gt;s2_leagueM_game4_01_stac_1413791958 -->
<g id="edge7" class="edge">
<title>s2_leagueM_game4_01_stac_1413791955&#45;&gt;s2_leagueM_game4_01_stac_1413791958</title>
<g id="a_edge7"><a xlink:title="Elaboration">
<path fill="none" stroke="#a621c7" d="M57.38,-116.99C51.33,-113.52 36.26,-104.85 27.21,-99.64"/>
<polygon fill="#a621c7" stroke="#a621c7" points="27.89,-98.02 22.69,-97.04 26.15,-101.05 27.89,-98.02"/>
</a>
</g>
</g>
<!-- s2_leagueM_game4_01_stac_1413791961 -->
<g id="node5" class="node">
<title>s2_leagueM_game4_01_stac_1413791961</title>
<g id="a_node5"><a xlink:title="3 &#160;inca &#160;ore for wheat?">
<ellipse fill="black" stroke="black" cx="40" cy="-69.5" rx="3.5" ry="3.5"/>
</a>
</g>
</g>
<!-- s2_leagueM_game4_01_stac_1413791955&#45;&gt;s2_leagueM_game4_01_stac_1413791961 -->
<g id="edge8" class="edge">
<title>s2_leagueM_game4_01_stac_1413791955&#45;&gt;s2_leagueM_game4_01_stac_1413791961</title>
<g id="a_edge8"><a xlink:title="Q_Elab">
<path fill="none" stroke="#0d20ff" d="M60.35,-115.79C60.9,-110.71 61.55,-99.48 58,-91 55.47,-84.97 50.44,-79.48 46.33,-75.7"/>
<polygon fill="#0d20ff" stroke="#0d20ff" points="47.34,-74.26 42.41,-72.33 45.06,-76.92 47.34,-74.26"/>
</a>
</g>
</g>
<!-- s2_leagueM_game4_01_stac_1413791967 -->
<g id="node9" class="node">
<title>s2_leagueM_game4_01_stac_1413791967</title>
<g id="a_node9"><a xlink:title="5 &#160;CheshireCatGrin &#160;I&#39;m in same situation as last time,">
<ellipse fill="black" stroke="black" cx="50" cy="-19.5" rx="3.5" ry="3.5"/>
</a>
</g>
</g>
<!-- s2_leagueM_game4_01_stac_1413791955&#45;&gt;s2_leagueM_game4_01_stac_1413791967 -->
<g id="edge10" class="edge">
<title>s2_leagueM_game4_01_stac_1413791955&#45;&gt;s2_leagueM_game4_01_stac_1413791967</title>
<g id="a_edge10"><a xlink:title="Question_answer_pair">
<path fill="none" stroke="#12ffff" d="M61.6,-116.21C68.15,-106.55 91.87,-68.35 78,-41 73.83,-32.77 64.63,-27.05 57.91,-23.78"/>
<polygon fill="#12ffff" stroke="#12ffff" points="58.29,-22.04 53.01,-21.61 56.88,-25.24 58.29,-22.04"/>
</a>
</g>
</g>
<!-- 2_0 -->
<!-- s2_leagueM_game4_01_stac_1413791958&#45;&gt;2_0 -->
<!-- s2_leagueM_game4_01_stac_1413791958&#45;&gt;s2_leagueM_game4_01_stac_1413791961 -->
<!-- 3_0 -->
<!-- s2_leagueM_game4_01_stac_1413791961&#45;&gt;3_0 -->
<!-- s2_leagueM_game4_01_stac_1413791964 -->
<g id="node7" class="node">
<title>s2_leagueM_game4_01_stac_1413791964</title>
<g id="a_node7"><a xlink:title="4 &#160;dmm &#160;sure">
<ellipse fill="black" stroke="black" cx="40" cy="-44.5" rx="3.5" ry="3.5"/>
</a>
</g>
</g>
<!-- s2_leagueM_game4_01_stac_1413791961&#45;&gt;s2_leagueM_game4_01_stac_1413791964 -->
<g id="edge9" class="edge">
<title>s2_leagueM_game4_01_stac_1413791961&#45;&gt;s2_leagueM_game4_01_stac_1413791964</title>
<g id="a_edge9"><a xlink:title="Question_answer_pair">
<path fill="none" stroke="#12ffff" d="M40,-65.68C40,-62.58 40,-57.47 40,-53.16"/>
<polygon fill="#12ffff" stroke="#12ffff" points="41.75,-53.06 40,-48.06 38.25,-53.06 41.75,-53.06"/>
</a>
</g>
</g>
<!-- 4_0 -->
<!-- s2_leagueM_game4_01_stac_1413791964&#45;&gt;4_0 -->
<!-- s2_leagueM_game4_01_stac_1413791964&#45;&gt;s2_leagueM_game4_01_stac_1413791967 -->
<!-- s2_leagueM_game4_01_stac_1413791968 -->
<g id="node10" class="node">
<title>s2_leagueM_game4_01_stac_1413791968</title>
<g id="a_node10"><a xlink:title="5 &#160;CheshireCatGrin &#160;need what I have ...">
<ellipse fill="black" stroke="black" cx="75" cy="-19.5" rx="3.5" ry="3.5"/>
</a>
</g>
</g>
<!-- s2_leagueM_game4_01_stac_1413791967&#45;&gt;s2_leagueM_game4_01_stac_1413791968 -->
<g id="edge11" class="edge">
<title>s2_leagueM_game4_01_stac_1413791967&#45;&gt;s2_leagueM_game4_01_stac_1413791968</title>
<g id="a_edge11"><a xlink:title="ExplanationResult">
<path fill="none" stroke="#a62139" d="M53.52,-19.5C57.78,-19.5 62.04,-19.5 66.3,-19.5"/>
<polygon fill="#a62139" stroke="#a62139" points="66.31,-21.25 71.31,-19.5 66.31,-17.75 66.31,-21.25"/>
</a>
</g>
</g>
</g>
</svg>
