<?xml version="1.0" encoding="UTF-8" standalone="no"?>
<!DOCTYPE svg PUBLIC "-//W3C//DTD SVG 1.1//EN"
 "http://www.w3.org/Graphics/SVG/1.1/DTD/svg11.dtd">
<!-- Generated by graphviz version 3.0.0 (20220226.1711)
 -->
<!-- Title: 2_s2_leagueM_game4_1053 Pages: 1 -->
<svg width="93pt" height="145pt"
 viewBox="0.00 0.00 93.00 145.00" xmlns="http://www.w3.org/2000/svg" xmlns:xlink="http://www.w3.org/1999/xlink">
<g id="graph0" class="graph" transform="scale(1 1) rotate(0) translate(4 141)">
<title>2_s2_leagueM_game4_1053</title>
<polygon fill="white" stroke="transparent" points="-4,4 -4,-141 89,-141 89,4 -4,4"/>
<g id="clust1" class="cluster">
<title>cluster_2_s2_leagueM_game4_1053</title>
<polygon fill="none" stroke="black" points="8,-8 8,-129 77,-129 77,-8 8,-8"/>
<text text-anchor="middle" x="30" y="-113.8" font-family="Times,serif" font-size="14.00">1053</text>
</g>
<!-- s2_leagueM_game4_02_stac_1413791857 -->
<g id="node1" class="node">
<title>s2_leagueM_game4_02_stac_1413791857</title>
<g id="a_node1"><a xlink:title="2 &#160;inca &#160;sheep would be good">
<ellipse fill="black" stroke="black" cx="20" cy="-69.5" rx="3.5" ry="3.5"/>
</a>
</g>
</g>
<!-- 2_0 -->
<!-- s2_leagueM_game4_02_stac_1413791857&#45;&gt;2_0 -->
<!-- s2_leagueM_game4_02_stac_1413791860 -->
<g id="node3" class="node">
<title>s2_leagueM_game4_02_stac_1413791860</title>
<g id="a_node3"><a xlink:title="3 &#160;CheshireCatGrin &#160;Not here">
<ellipse fill="black" stroke="black" cx="30" cy="-44.5" rx="3.5" ry="3.5"/>
</a>
</g>
</g>
<!-- s2_leagueM_game4_02_stac_1413791857&#45;&gt;s2_leagueM_game4_02_stac_1413791860 -->
<!-- 3_0 -->
<!-- s2_leagueM_game4_02_stac_1413791860&#45;&gt;3_0 -->
<!-- s2_leagueM_game4_02_stac_1413791863 -->
<g id="node5" class="node">
<title>s2_leagueM_game4_02_stac_1413791863</title>
<g id="a_node5"><a xlink:title="4 &#160;dmm &#160;okay">
<ellipse fill="black" stroke="black" cx="30" cy="-19.5" rx="3.5" ry="3.5"/>
</a>
</g>
</g>
<!-- s2_leagueM_game4_02_stac_1413791860&#45;&gt;s2_leagueM_game4_02_stac_1413791863 -->
<g id="edge8" class="edge">
<title>s2_leagueM_game4_02_stac_1413791860&#45;&gt;s2_leagueM_game4_02_stac_1413791863</title>
<g id="a_edge8"><a xlink:title="Acknowledgement">
<path fill="none" stroke="#12ffff" d="M30,-40.68C30,-37.58 30,-32.47 30,-28.16"/>
<polygon fill="#12ffff" stroke="#12ffff" points="31.75,-28.06 30,-23.06 28.25,-28.06 31.75,-28.06"/>
</a>
</g>
</g>
<!-- 4_0 -->
<!-- s2_leagueM_game4_02_stac_1413791863&#45;&gt;4_0 -->
<!-- s2_leagueM_game4_02_stac_1413791853 -->
<g id="node7" class="node">
<title>s2_leagueM_game4_02_stac_1413791853</title>
<g id="a_node7"><a xlink:title="1 &#160;dmm &#160;i can give a sheep or wood for a wheat.">
<ellipse fill="black" stroke="black" cx="30" cy="-94.5" rx="3.5" ry="3.5"/>
</a>
</g>
</g>
<!-- s2_leagueM_game4_02_stac_1413791853&#45;&gt;s2_leagueM_game4_02_stac_1413791857 -->
<g id="edge6" class="edge">
<title>s2_leagueM_game4_02_stac_1413791853&#45;&gt;s2_leagueM_game4_02_stac_1413791857</title>
<g id="a_edge6"><a xlink:title="Question_answer_pair">
<path fill="none" stroke="#12ffff" d="M28.93,-91.04C27.54,-87.84 25.05,-82.12 23.06,-77.53"/>
<polygon fill="#12ffff" stroke="#12ffff" points="24.63,-76.76 21.03,-72.87 21.42,-78.16 24.63,-76.76"/>
</a>
</g>
</g>
<!-- s2_leagueM_game4_02_stac_1413791854 -->
<g id="node8" class="node">
<title>s2_leagueM_game4_02_stac_1413791854</title>
<g id="a_node8"><a xlink:title="1 &#160;dmm &#160;any takers?">
<ellipse fill="black" stroke="black" cx="60" cy="-94.5" rx="3.5" ry="3.5"/>
</a>
</g>
</g>
<!-- s2_leagueM_game4_02_stac_1413791853&#45;&gt;s2_leagueM_game4_02_stac_1413791854 -->
<g id="edge5" class="edge">
<title>s2_leagueM_game4_02_stac_1413791853&#45;&gt;s2_leagueM_game4_02_stac_1413791854</title>
<g id="a_edge5"><a xlink:title="ParallNarrContinuationbackground">
<path fill="none" stroke="#0ab046" d="M33.75,-94.5C39.51,-94.5 45.26,-94.5 51.02,-94.5"/>
<polygon fill="#0ab046" stroke="#0ab046" points="51.31,-96.25 56.31,-94.5 51.31,-92.75 51.31,-96.25"/>
</a>
</g>
</g>
<!-- s2_leagueM_game4_02_stac_1413791854&#45;&gt;s2_leagueM_game4_02_stac_1413791860 -->
<g id="edge7" class="edge">
<title>s2_leagueM_game4_02_stac_1413791854&#45;&gt;s2_leagueM_game4_02_stac_1413791860</title>
<g id="a_edge7"><a xlink:title="Question_answer_pair">
<path fill="none" stroke="#12ffff" d="M60.47,-91.03C61.3,-85.97 62.55,-74.21 58,-66 53.53,-57.93 44.39,-52.18 37.77,-48.86"/>
<polygon fill="#12ffff" stroke="#12ffff" points="38.22,-47.15 32.95,-46.65 36.76,-50.33 38.22,-47.15"/>
</a>
</g>
</g>
</g>
</svg>
