<?xml version="1.0" encoding="UTF-8" standalone="no"?>
<!DOCTYPE svg PUBLIC "-//W3C//DTD SVG 1.1//EN"
 "http://www.w3.org/Graphics/SVG/1.1/DTD/svg11.dtd">
<!-- Generated by graphviz version 3.0.0 (20220226.1711)
 -->
<!-- Title: 2_s2_leagueM_game4_1054 Pages: 1 -->
<svg width="134pt" height="220pt"
 viewBox="0.00 0.00 134.00 220.00" xmlns="http://www.w3.org/2000/svg" xmlns:xlink="http://www.w3.org/1999/xlink">
<g id="graph0" class="graph" transform="scale(1 1) rotate(0) translate(4 216)">
<title>2_s2_leagueM_game4_1054</title>
<polygon fill="white" stroke="transparent" points="-4,4 -4,-216 130,-216 130,4 -4,4"/>
<g id="clust1" class="cluster">
<title>cluster_2_s2_leagueM_game4_1054</title>
<polygon fill="none" stroke="black" points="8,-8 8,-204 118,-204 118,-8 8,-8"/>
<text text-anchor="middle" x="30" y="-188.8" font-family="Times,serif" font-size="14.00">1054</text>
</g>
<!-- s2_leagueM_game4_02_stac_1413791867 -->
<g id="node1" class="node">
<title>s2_leagueM_game4_02_stac_1413791867</title>
<g id="a_node1"><a xlink:title="1 &#160;dmm &#160;does anyone have clay they can trade?">
<ellipse fill="black" stroke="black" cx="62" cy="-169.5" rx="3.5" ry="3.5"/>
</a>
</g>
</g>
<!-- 1_0 -->
<!-- s2_leagueM_game4_02_stac_1413791867&#45;&gt;1_0 -->
<!-- s2_leagueM_game4_02_stac_1413791874 -->
<g id="node3" class="node">
<title>s2_leagueM_game4_02_stac_1413791874</title>
<g id="a_node3"><a xlink:title="3 &#160;CheshireCatGrin &#160;likewise">
<ellipse fill="black" stroke="black" cx="40" cy="-119.5" rx="3.5" ry="3.5"/>
</a>
</g>
</g>
<!-- s2_leagueM_game4_02_stac_1413791867&#45;&gt;s2_leagueM_game4_02_stac_1413791874 -->
<g id="edge8" class="edge">
<title>s2_leagueM_game4_02_stac_1413791867&#45;&gt;s2_leagueM_game4_02_stac_1413791874</title>
<g id="a_edge8"><a xlink:title="Question_answer_pair">
<path fill="none" stroke="#12ffff" d="M60.82,-165.92C57.53,-158.76 48.22,-138.44 43.24,-127.57"/>
<polygon fill="#12ffff" stroke="#12ffff" points="44.76,-126.68 41.08,-122.86 41.58,-128.14 44.76,-126.68"/>
</a>
</g>
</g>
<!-- s2_leagueM_game4_02_stac_1413791886 -->
<g id="node5" class="node">
<title>s2_leagueM_game4_02_stac_1413791886</title>
<g id="a_node5"><a xlink:title="6 &#160;CheshireCatGrin &#160;Still have no clay ...">
<ellipse fill="black" stroke="black" cx="81" cy="-44.5" rx="3.5" ry="3.5"/>
</a>
</g>
</g>
<!-- s2_leagueM_game4_02_stac_1413791867&#45;&gt;s2_leagueM_game4_02_stac_1413791886 -->
<g id="edge13" class="edge">
<title>s2_leagueM_game4_02_stac_1413791867&#45;&gt;s2_leagueM_game4_02_stac_1413791886</title>
<g id="a_edge13"><a xlink:title="Question_answer_pair">
<path fill="none" stroke="#12ffff" d="M64.8,-167.32C74.92,-162.86 109,-145.93 109,-120.5 109,-120.5 109,-120.5 109,-93.5 109,-76.24 95.33,-59.67 87.09,-51.25"/>
<polygon fill="#12ffff" stroke="#12ffff" points="88,-49.69 83.2,-47.45 85.56,-52.2 88,-49.69"/>
</a>
</g>
</g>
<!-- s2_leagueM_game4_02_stac_1413791870 -->
<g id="node7" class="node">
<title>s2_leagueM_game4_02_stac_1413791870</title>
<g id="a_node7"><a xlink:title="2 &#160;inca &#160;none at all,">
<ellipse fill="black" stroke="black" cx="20" cy="-144.5" rx="3.5" ry="3.5"/>
</a>
</g>
</g>
<!-- s2_leagueM_game4_02_stac_1413791867&#45;&gt;s2_leagueM_game4_02_stac_1413791870 -->
<g id="edge6" class="edge">
<title>s2_leagueM_game4_02_stac_1413791867&#45;&gt;s2_leagueM_game4_02_stac_1413791870</title>
<g id="a_edge6"><a xlink:title="Question_answer_pair">
<path fill="none" stroke="#12ffff" d="M59.24,-166.99C52.84,-163.48 36.77,-154.68 27.3,-149.5"/>
<polygon fill="#12ffff" stroke="#12ffff" points="28.05,-147.91 22.82,-147.04 26.37,-150.98 28.05,-147.91"/>
</a>
</g>
</g>
<!-- s2_leagueM_game4_02_stac_1413791882 -->
<g id="node11" class="node">
<title>s2_leagueM_game4_02_stac_1413791882</title>
<g id="a_node11"><a xlink:title="5 &#160;inca &#160;still not got any clay,">
<ellipse fill="black" stroke="black" cx="60" cy="-69.5" rx="3.5" ry="3.5"/>
</a>
</g>
</g>
<!-- s2_leagueM_game4_02_stac_1413791867&#45;&gt;s2_leagueM_game4_02_stac_1413791882 -->
<g id="edge11" class="edge">
<title>s2_leagueM_game4_02_stac_1413791867&#45;&gt;s2_leagueM_game4_02_stac_1413791882</title>
<g id="a_edge11"><a xlink:title="Question_answer_pair">
<path fill="none" stroke="#12ffff" d="M64.34,-166.66C68.26,-163.4 76.05,-156.18 79,-148 80.62,-143.5 82.35,-136.57 78,-116 75.03,-101.95 68.14,-86.62 63.79,-77.83"/>
<polygon fill="#12ffff" stroke="#12ffff" points="65.1,-76.54 61.28,-72.88 61.98,-78.13 65.1,-76.54"/>
</a>
</g>
</g>
<!-- 3_0 -->
<!-- s2_leagueM_game4_02_stac_1413791874&#45;&gt;3_0 -->
<!-- s2_leagueM_game4_02_stac_1413791878 -->
<g id="node9" class="node">
<title>s2_leagueM_game4_02_stac_1413791878</title>
<g id="a_node9"><a xlink:title="4 &#160;dmm &#160;same request again...">
<ellipse fill="black" stroke="black" cx="40" cy="-94.5" rx="3.5" ry="3.5"/>
</a>
</g>
</g>
<!-- s2_leagueM_game4_02_stac_1413791874&#45;&gt;s2_leagueM_game4_02_stac_1413791878 -->
<g id="edge9" class="edge">
<title>s2_leagueM_game4_02_stac_1413791874&#45;&gt;s2_leagueM_game4_02_stac_1413791878</title>
<g id="a_edge9"><a xlink:title="ParallNarrContinuationbackground">
<path fill="none" stroke="#0ab046" d="M40,-115.68C40,-112.58 40,-107.47 40,-103.16"/>
<polygon fill="#0ab046" stroke="#0ab046" points="41.75,-103.06 40,-98.06 38.25,-103.06 41.75,-103.06"/>
</a>
</g>
</g>
<!-- 6_0 -->
<!-- s2_leagueM_game4_02_stac_1413791886&#45;&gt;6_0 -->
<!-- s2_leagueM_game4_02_stac_1413791889 -->
<g id="node13" class="node">
<title>s2_leagueM_game4_02_stac_1413791889</title>
<g id="a_node13"><a xlink:title="7 &#160;dmm &#160;okay,">
<ellipse fill="black" stroke="black" cx="58" cy="-19.5" rx="3.5" ry="3.5"/>
</a>
</g>
</g>
<!-- s2_leagueM_game4_02_stac_1413791886&#45;&gt;s2_leagueM_game4_02_stac_1413791889 -->
<g id="edge16" class="edge">
<title>s2_leagueM_game4_02_stac_1413791886&#45;&gt;s2_leagueM_game4_02_stac_1413791889</title>
<g id="a_edge16"><a xlink:title="Acknowledgement">
<path fill="none" stroke="#12ffff" d="M78.88,-41.38C75.54,-38.04 68.95,-31.45 64.06,-26.56"/>
<polygon fill="#12ffff" stroke="#12ffff" points="65.23,-25.26 60.46,-22.96 62.76,-27.73 65.23,-25.26"/>
</a>
</g>
</g>
<!-- s2_leagueM_game4_02_stac_1413791890 -->
<g id="node14" class="node">
<title>s2_leagueM_game4_02_stac_1413791890</title>
<g id="a_node14"><a xlink:title="7 &#160;dmm &#160;thanks anyway">
<ellipse fill="black" stroke="black" cx="83" cy="-19.5" rx="3.5" ry="3.5"/>
</a>
</g>
</g>
<!-- s2_leagueM_game4_02_stac_1413791886&#45;&gt;s2_leagueM_game4_02_stac_1413791890 -->
<g id="edge17" class="edge">
<title>s2_leagueM_game4_02_stac_1413791886&#45;&gt;s2_leagueM_game4_02_stac_1413791890</title>
<g id="a_edge17"><a xlink:title="Acknowledgement">
<path fill="none" stroke="#12ffff" d="M81.25,-40.68C81.51,-37.58 81.96,-32.47 82.33,-28.16"/>
<polygon fill="#12ffff" stroke="#12ffff" points="84.09,-28.19 82.78,-23.06 80.6,-27.89 84.09,-28.19"/>
</a>
</g>
</g>
<!-- s2_leagueM_game4_02_stac_1413791870&#45;&gt;s2_leagueM_game4_02_stac_1413791874 -->
<!-- s2_leagueM_game4_02_stac_1413791871 -->
<g id="node8" class="node">
<title>s2_leagueM_game4_02_stac_1413791871</title>
<g id="a_node8"><a xlink:title="2 &#160;inca &#160;sorry">
<ellipse fill="black" stroke="black" cx="66" cy="-144.5" rx="3.5" ry="3.5"/>
</a>
</g>
</g>
<!-- s2_leagueM_game4_02_stac_1413791870&#45;&gt;s2_leagueM_game4_02_stac_1413791871 -->
<g id="edge7" class="edge">
<title>s2_leagueM_game4_02_stac_1413791870&#45;&gt;s2_leagueM_game4_02_stac_1413791871</title>
<g id="a_edge7"><a xlink:title="Comment">
<path fill="none" stroke="#ff8200" d="M23.59,-144.5C34.8,-144.5 46,-144.5 57.21,-144.5"/>
<polygon fill="#ff8200" stroke="#ff8200" points="57.36,-146.25 62.36,-144.5 57.36,-142.75 57.36,-146.25"/>
</a>
</g>
</g>
<!-- s2_leagueM_game4_02_stac_1413791879 -->
<g id="node10" class="node">
<title>s2_leagueM_game4_02_stac_1413791879</title>
<g id="a_node10"><a xlink:title="4 &#160;dmm &#160;i might be interested in an ore also though">
<ellipse fill="black" stroke="black" cx="86" cy="-94.5" rx="3.5" ry="3.5"/>
</a>
</g>
</g>
<!-- s2_leagueM_game4_02_stac_1413791878&#45;&gt;s2_leagueM_game4_02_stac_1413791879 -->
<g id="edge10" class="edge">
<title>s2_leagueM_game4_02_stac_1413791878&#45;&gt;s2_leagueM_game4_02_stac_1413791879</title>
<g id="a_edge10"><a xlink:title="ContrastCorrection">
<path fill="none" stroke="#ff7ecf" d="M43.59,-94.5C54.8,-94.5 66,-94.5 77.21,-94.5"/>
<polygon fill="#ff7ecf" stroke="#ff7ecf" points="77.36,-96.25 82.36,-94.5 77.36,-92.75 77.36,-96.25"/>
</a>
</g>
</g>
<!-- s2_leagueM_game4_02_stac_1413791878&#45;&gt;s2_leagueM_game4_02_stac_1413791882 -->
<!-- s2_leagueM_game4_02_stac_1413791882&#45;&gt;s2_leagueM_game4_02_stac_1413791886 -->
<g id="edge14" class="edge">
<title>s2_leagueM_game4_02_stac_1413791882&#45;&gt;s2_leagueM_game4_02_stac_1413791886</title>
<g id="a_edge14"><a xlink:title="Question_answer_pair">
<path fill="none" stroke="#12ffff" d="M61.94,-66.38C64.92,-63.11 70.77,-56.71 75.2,-51.85"/>
<polygon fill="#12ffff" stroke="#12ffff" points="76.67,-52.83 78.75,-47.96 74.09,-50.47 76.67,-52.83"/>
</a>
</g>
</g>
<!-- s2_leagueM_game4_02_stac_1413791883 -->
<g id="node12" class="node">
<title>s2_leagueM_game4_02_stac_1413791883</title>
<g id="a_node12"><a xlink:title="5 &#160;inca &#160;sorry">
<ellipse fill="black" stroke="black" cx="85" cy="-69.5" rx="3.5" ry="3.5"/>
</a>
</g>
</g>
<!-- s2_leagueM_game4_02_stac_1413791882&#45;&gt;s2_leagueM_game4_02_stac_1413791883 -->
<g id="edge12" class="edge">
<title>s2_leagueM_game4_02_stac_1413791882&#45;&gt;s2_leagueM_game4_02_stac_1413791883</title>
<g id="a_edge12"><a xlink:title="Comment">
<path fill="none" stroke="#ff8200" d="M63.52,-69.5C67.78,-69.5 72.04,-69.5 76.3,-69.5"/>
<polygon fill="#ff8200" stroke="#ff8200" points="76.31,-71.25 81.31,-69.5 76.31,-67.75 76.31,-71.25"/>
</a>
</g>
</g>
<!-- s2_leagueM_game4_02_stac_1413791882&#45;&gt;s2_leagueM_game4_02_stac_1413791889 -->
<g id="edge15" class="edge">
<title>s2_leagueM_game4_02_stac_1413791882&#45;&gt;s2_leagueM_game4_02_stac_1413791889</title>
<g id="a_edge15"><a xlink:title="Acknowledgement">
<path fill="none" stroke="#12ffff" d="M59.89,-65.92C59.6,-58.95 58.79,-39.55 58.33,-28.49"/>
<polygon fill="#12ffff" stroke="#12ffff" points="60.07,-28.26 58.12,-23.33 56.58,-28.4 60.07,-28.26"/>
</a>
</g>
</g>
<!-- s2_leagueM_game4_02_stac_1413791889&#45;&gt;s2_leagueM_game4_02_stac_1413791890 -->
<g id="edge18" class="edge">
<title>s2_leagueM_game4_02_stac_1413791889&#45;&gt;s2_leagueM_game4_02_stac_1413791890</title>
<g id="a_edge18"><a xlink:title="ParallNarrContinuationbackground">
<path fill="none" stroke="#0ab046" d="M61.52,-19.5C65.78,-19.5 70.04,-19.5 74.3,-19.5"/>
<polygon fill="#0ab046" stroke="#0ab046" points="74.31,-21.25 79.31,-19.5 74.31,-17.75 74.31,-21.25"/>
</a>
</g>
</g>
</g>
</svg>
