<?xml version="1.0" encoding="UTF-8" standalone="no"?>
<!DOCTYPE svg PUBLIC "-//W3C//DTD SVG 1.1//EN"
 "http://www.w3.org/Graphics/SVG/1.1/DTD/svg11.dtd">
<!-- Generated by graphviz version 3.0.0 (20220226.1711)
 -->
<!-- Title: 1_s2_leagueM_game4_1043 Pages: 1 -->
<svg width="113pt" height="220pt"
 viewBox="0.00 0.00 113.00 220.00" xmlns="http://www.w3.org/2000/svg" xmlns:xlink="http://www.w3.org/1999/xlink">
<g id="graph0" class="graph" transform="scale(1 1) rotate(0) translate(4 216)">
<title>1_s2_leagueM_game4_1043</title>
<polygon fill="white" stroke="transparent" points="-4,4 -4,-216 109,-216 109,4 -4,4"/>
<g id="clust1" class="cluster">
<title>cluster_1_s2_leagueM_game4_1043</title>
<polygon fill="none" stroke="black" points="8,-8 8,-204 97,-204 97,-8 8,-8"/>
<text text-anchor="middle" x="30" y="-188.8" font-family="Times,serif" font-size="14.00">1043</text>
</g>
<!-- s2_leagueM_game4_01_stac_1463481997 -->
<g id="node1" class="node">
<title>s2_leagueM_game4_01_stac_1463481997</title>
<g id="a_node1"><a xlink:title="1 &#160;inca &#160;hey">
<ellipse fill="black" stroke="black" cx="60" cy="-169.5" rx="3.5" ry="3.5"/>
</a>
</g>
</g>
<!-- 1_0 -->
<!-- s2_leagueM_game4_01_stac_1463481997&#45;&gt;1_0 -->
<!-- s2_leagueM_game4_01_stac_1413791853 -->
<g id="node3" class="node">
<title>s2_leagueM_game4_01_stac_1413791853</title>
<g id="a_node3"><a xlink:title="2 &#160;dmm &#160;hi!">
<ellipse fill="black" stroke="black" cx="60" cy="-144.5" rx="3.5" ry="3.5"/>
</a>
</g>
</g>
<!-- s2_leagueM_game4_01_stac_1463481997&#45;&gt;s2_leagueM_game4_01_stac_1413791853 -->
<g id="edge8" class="edge">
<title>s2_leagueM_game4_01_stac_1463481997&#45;&gt;s2_leagueM_game4_01_stac_1413791853</title>
<g id="a_edge8"><a xlink:title="Acknowledgement">
<path fill="none" stroke="#12ffff" d="M60,-165.68C60,-162.58 60,-157.47 60,-153.16"/>
<polygon fill="#12ffff" stroke="#12ffff" points="61.75,-153.06 60,-148.06 58.25,-153.06 61.75,-153.06"/>
</a>
</g>
</g>
<!-- 2_0 -->
<!-- s2_leagueM_game4_01_stac_1413791853&#45;&gt;2_0 -->
<!-- s2_leagueM_game4_01_stac_1413791856 -->
<g id="node5" class="node">
<title>s2_leagueM_game4_01_stac_1413791856</title>
<g id="a_node5"><a xlink:title="3 &#160;inca &#160;hello, shall we just start?">
<ellipse fill="black" stroke="black" cx="20" cy="-119.5" rx="3.5" ry="3.5"/>
</a>
</g>
</g>
<!-- s2_leagueM_game4_01_stac_1413791853&#45;&gt;s2_leagueM_game4_01_stac_1413791856 -->
<g id="edge9" class="edge">
<title>s2_leagueM_game4_01_stac_1413791853&#45;&gt;s2_leagueM_game4_01_stac_1413791856</title>
<g id="a_edge9"><a xlink:title="Clarification_question">
<path fill="none" stroke="#ff40d1" d="M57.38,-141.99C51.33,-138.52 36.26,-129.85 27.21,-124.64"/>
<polygon fill="#ff40d1" stroke="#ff40d1" points="27.89,-123.02 22.69,-122.04 26.15,-126.05 27.89,-123.02"/>
</a>
</g>
</g>
<!-- s2_leagueM_game4_01_stac_1413791859 -->
<g id="node7" class="node">
<title>s2_leagueM_game4_01_stac_1413791859</title>
<g id="a_node7"><a xlink:title="4 &#160;CheshireCatGrin &#160;Hello">
<ellipse fill="black" stroke="black" cx="40" cy="-94.5" rx="3.5" ry="3.5"/>
</a>
</g>
</g>
<!-- s2_leagueM_game4_01_stac_1413791853&#45;&gt;s2_leagueM_game4_01_stac_1413791859 -->
<g id="edge10" class="edge">
<title>s2_leagueM_game4_01_stac_1413791853&#45;&gt;s2_leagueM_game4_01_stac_1413791859</title>
<g id="a_edge10"><a xlink:title="Acknowledgement">
<path fill="none" stroke="#12ffff" d="M60.35,-140.79C60.9,-135.71 61.55,-124.48 58,-116 55.47,-109.97 50.44,-104.48 46.33,-100.7"/>
<polygon fill="#12ffff" stroke="#12ffff" points="47.34,-99.26 42.41,-97.33 45.06,-101.92 47.34,-99.26"/>
</a>
</g>
</g>
<!-- s2_leagueM_game4_01_stac_1413791866 -->
<g id="node14" class="node">
<title>s2_leagueM_game4_01_stac_1413791866</title>
<g id="a_node14"><a xlink:title="6 &#160;inca &#160;good luck guys!">
<ellipse fill="black" stroke="black" cx="75" cy="-44.5" rx="3.5" ry="3.5"/>
</a>
</g>
</g>
<!-- s2_leagueM_game4_01_stac_1413791853&#45;&gt;s2_leagueM_game4_01_stac_1413791866 -->
<g id="edge14" class="edge">
<title>s2_leagueM_game4_01_stac_1413791853&#45;&gt;s2_leagueM_game4_01_stac_1413791866</title>
<g id="a_edge14"><a xlink:title="Comment">
<path fill="none" stroke="#ff8200" d="M61.31,-141.13C64.88,-134.55 74.69,-115.36 78,-98 80.66,-84.03 79.03,-80.18 78,-66 77.69,-61.76 77.03,-57.07 76.4,-53.25"/>
<polygon fill="#ff8200" stroke="#ff8200" points="78.1,-52.76 75.51,-48.14 74.65,-53.37 78.1,-52.76"/>
</a>
</g>
</g>
<!-- 3_0 -->
<!-- s2_leagueM_game4_01_stac_1413791856&#45;&gt;3_0 -->
<!-- s2_leagueM_game4_01_stac_1413791856&#45;&gt;s2_leagueM_game4_01_stac_1413791859 -->
<g id="edge11" class="edge">
<title>s2_leagueM_game4_01_stac_1413791856&#45;&gt;s2_leagueM_game4_01_stac_1413791859</title>
<g id="a_edge11"><a xlink:title="Question_answer_pair">
<path fill="none" stroke="#12ffff" d="M21.85,-116.38C24.69,-113.11 30.25,-106.71 34.48,-101.85"/>
<polygon fill="#12ffff" stroke="#12ffff" points="35.9,-102.88 37.86,-97.96 33.26,-100.59 35.9,-102.88"/>
</a>
</g>
</g>
<!-- 4_0 -->
<!-- s2_leagueM_game4_01_stac_1413791859&#45;&gt;4_0 -->
<!-- s2_leagueM_game4_01_stac_1413791862 -->
<g id="node9" class="node">
<title>s2_leagueM_game4_01_stac_1413791862</title>
<g id="a_node9"><a xlink:title="5 &#160;CheshireCatGrin &#160;Indeed, sounded like LJ wasn&#39;t playing">
<ellipse fill="black" stroke="black" cx="40" cy="-69.5" rx="3.5" ry="3.5"/>
</a>
</g>
</g>
<!-- s2_leagueM_game4_01_stac_1413791859&#45;&gt;s2_leagueM_game4_01_stac_1413791862 -->
<g id="edge12" class="edge">
<title>s2_leagueM_game4_01_stac_1413791859&#45;&gt;s2_leagueM_game4_01_stac_1413791862</title>
<g id="a_edge12"><a xlink:title="Comment">
<path fill="none" stroke="#ff8200" d="M40,-90.68C40,-87.58 40,-82.47 40,-78.16"/>
<polygon fill="#ff8200" stroke="#ff8200" points="41.75,-78.06 40,-73.06 38.25,-78.06 41.75,-78.06"/>
</a>
</g>
</g>
<!-- 5_0 -->
<!-- s2_leagueM_game4_01_stac_1413791862&#45;&gt;5_0 -->
<!-- s2_leagueM_game4_01_stac_1413791865 -->
<g id="node13" class="node">
<title>s2_leagueM_game4_01_stac_1413791865</title>
<g id="a_node13"><a xlink:title="6 &#160;inca &#160;ok,">
<ellipse fill="black" stroke="black" cx="50" cy="-44.5" rx="3.5" ry="3.5"/>
</a>
</g>
</g>
<!-- s2_leagueM_game4_01_stac_1413791862&#45;&gt;s2_leagueM_game4_01_stac_1413791865 -->
<g id="edge13" class="edge">
<title>s2_leagueM_game4_01_stac_1413791862&#45;&gt;s2_leagueM_game4_01_stac_1413791865</title>
<g id="a_edge13"><a xlink:title="Acknowledgement">
<path fill="none" stroke="#12ffff" d="M41.07,-66.04C42.46,-62.84 44.95,-57.12 46.94,-52.53"/>
<polygon fill="#12ffff" stroke="#12ffff" points="48.58,-53.16 48.97,-47.87 45.37,-51.76 48.58,-53.16"/>
</a>
</g>
</g>
<!-- s2_leagueM_game4_01_stac_1413791869 -->
<g id="node11" class="node">
<title>s2_leagueM_game4_01_stac_1413791869</title>
<g id="a_node11"><a xlink:title="7 &#160;CheshireCatGrin &#160;And to you!">
<ellipse fill="black" stroke="black" cx="55" cy="-19.5" rx="3.5" ry="3.5"/>
</a>
</g>
</g>
<!-- 7_0 -->
<!-- s2_leagueM_game4_01_stac_1413791869&#45;&gt;7_0 -->
<!-- s2_leagueM_game4_01_stac_1413791865&#45;&gt;s2_leagueM_game4_01_stac_1413791869 -->
<!-- s2_leagueM_game4_01_stac_1413791865&#45;&gt;s2_leagueM_game4_01_stac_1413791866 -->
<g id="edge15" class="edge">
<title>s2_leagueM_game4_01_stac_1413791865&#45;&gt;s2_leagueM_game4_01_stac_1413791866</title>
<g id="a_edge15"><a xlink:title="ParallNarrContinuationbackground">
<path fill="none" stroke="#0ab046" d="M53.52,-44.5C57.78,-44.5 62.04,-44.5 66.3,-44.5"/>
<polygon fill="#0ab046" stroke="#0ab046" points="66.31,-46.25 71.31,-44.5 66.31,-42.75 66.31,-46.25"/>
</a>
</g>
</g>
<!-- s2_leagueM_game4_01_stac_1413791866&#45;&gt;s2_leagueM_game4_01_stac_1413791869 -->
<g id="edge16" class="edge">
<title>s2_leagueM_game4_01_stac_1413791866&#45;&gt;s2_leagueM_game4_01_stac_1413791869</title>
<g id="a_edge16"><a xlink:title="ParallNarrContinuationbackground">
<path fill="none" stroke="#0ab046" d="M73.15,-41.38C70.31,-38.11 64.75,-31.71 60.52,-26.85"/>
<polygon fill="#0ab046" stroke="#0ab046" points="61.74,-25.59 57.14,-22.96 59.1,-27.88 61.74,-25.59"/>
</a>
</g>
</g>
</g>
</svg>
