<?xml version="1.0" encoding="UTF-8" standalone="no"?>
<!DOCTYPE svg PUBLIC "-//W3C//DTD SVG 1.1//EN"
 "http://www.w3.org/Graphics/SVG/1.1/DTD/svg11.dtd">
<!-- Generated by graphviz version 3.0.0 (20220226.1711)
 -->
<!-- Title: 1_s2_leagueM_game4_1044 Pages: 1 -->
<svg width="93pt" height="195pt"
 viewBox="0.00 0.00 93.00 195.00" xmlns="http://www.w3.org/2000/svg" xmlns:xlink="http://www.w3.org/1999/xlink">
<g id="graph0" class="graph" transform="scale(1 1) rotate(0) translate(4 191)">
<title>1_s2_leagueM_game4_1044</title>
<polygon fill="white" stroke="transparent" points="-4,4 -4,-191 89,-191 89,4 -4,4"/>
<g id="clust1" class="cluster">
<title>cluster_1_s2_leagueM_game4_1044</title>
<polygon fill="none" stroke="black" points="8,-8 8,-179 77,-179 77,-8 8,-8"/>
<text text-anchor="middle" x="30" y="-163.8" font-family="Times,serif" font-size="14.00">1044</text>
</g>
<!-- s2_leagueM_game4_01_stac_1413791877 -->
<g id="node1" class="node">
<title>s2_leagueM_game4_01_stac_1413791877</title>
<g id="a_node1"><a xlink:title="2 &#160;CheshireCatGrin &#160;wood for wheat?">
<ellipse fill="black" stroke="black" cx="30" cy="-119.5" rx="3.5" ry="3.5"/>
</a>
</g>
</g>
<!-- 2_0 -->
<!-- s2_leagueM_game4_01_stac_1413791877&#45;&gt;2_0 -->
<!-- s2_leagueM_game4_01_stac_1413791880 -->
<g id="node3" class="node">
<title>s2_leagueM_game4_01_stac_1413791880</title>
<g id="a_node3"><a xlink:title="3 &#160;CheshireCatGrin &#160;1 for 1">
<ellipse fill="black" stroke="black" cx="20" cy="-94.5" rx="3.5" ry="3.5"/>
</a>
</g>
</g>
<!-- s2_leagueM_game4_01_stac_1413791877&#45;&gt;s2_leagueM_game4_01_stac_1413791880 -->
<g id="edge9" class="edge">
<title>s2_leagueM_game4_01_stac_1413791877&#45;&gt;s2_leagueM_game4_01_stac_1413791880</title>
<g id="a_edge9"><a xlink:title="Elaboration">
<path fill="none" stroke="#a621c7" d="M28.93,-116.04C27.54,-112.84 25.05,-107.12 23.06,-102.53"/>
<polygon fill="#a621c7" stroke="#a621c7" points="24.63,-101.76 21.03,-97.87 21.42,-103.16 24.63,-101.76"/>
</a>
</g>
</g>
<!-- s2_leagueM_game4_01_stac_1413791883 -->
<g id="node5" class="node">
<title>s2_leagueM_game4_01_stac_1413791883</title>
<g id="a_node5"><a xlink:title="4 &#160;inca &#160;sounds good">
<ellipse fill="black" stroke="black" cx="30" cy="-69.5" rx="3.5" ry="3.5"/>
</a>
</g>
</g>
<!-- s2_leagueM_game4_01_stac_1413791877&#45;&gt;s2_leagueM_game4_01_stac_1413791883 -->
<g id="edge10" class="edge">
<title>s2_leagueM_game4_01_stac_1413791877&#45;&gt;s2_leagueM_game4_01_stac_1413791883</title>
<g id="a_edge10"><a xlink:title="Question_answer_pair">
<path fill="none" stroke="#12ffff" d="M33.01,-117.39C39.08,-114.95 52.66,-108.53 58,-98 63.46,-87.24 47.96,-78.2 37.89,-73.66"/>
<polygon fill="#12ffff" stroke="#12ffff" points="38.55,-72.04 33.26,-71.7 37.19,-75.26 38.55,-72.04"/>
</a>
</g>
</g>
<!-- 3_0 -->
<!-- s2_leagueM_game4_01_stac_1413791880&#45;&gt;3_0 -->
<!-- s2_leagueM_game4_01_stac_1413791880&#45;&gt;s2_leagueM_game4_01_stac_1413791883 -->
<!-- 4_0 -->
<!-- s2_leagueM_game4_01_stac_1413791883&#45;&gt;4_0 -->
<!-- s2_leagueM_game4_01_stac_1413791886 -->
<g id="node7" class="node">
<title>s2_leagueM_game4_01_stac_1413791886</title>
<g id="a_node7"><a xlink:title="5 &#160;inca &#160;cheers">
<ellipse fill="black" stroke="black" cx="30" cy="-44.5" rx="3.5" ry="3.5"/>
</a>
</g>
</g>
<!-- s2_leagueM_game4_01_stac_1413791883&#45;&gt;s2_leagueM_game4_01_stac_1413791886 -->
<g id="edge11" class="edge">
<title>s2_leagueM_game4_01_stac_1413791883&#45;&gt;s2_leagueM_game4_01_stac_1413791886</title>
<g id="a_edge11"><a xlink:title="Comment">
<path fill="none" stroke="#ff8200" d="M30,-65.68C30,-62.58 30,-57.47 30,-53.16"/>
<polygon fill="#ff8200" stroke="#ff8200" points="31.75,-53.06 30,-48.06 28.25,-53.06 31.75,-53.06"/>
</a>
</g>
</g>
<!-- 5_0 -->
<!-- s2_leagueM_game4_01_stac_1413791886&#45;&gt;5_0 -->
<!-- s2_leagueM_game4_01_stac_1413791889 -->
<g id="node9" class="node">
<title>s2_leagueM_game4_01_stac_1413791889</title>
<g id="a_node9"><a xlink:title="6 &#160;CheshireCatGrin &#160;:)">
<ellipse fill="black" stroke="black" cx="30" cy="-19.5" rx="3.5" ry="3.5"/>
</a>
</g>
</g>
<!-- s2_leagueM_game4_01_stac_1413791886&#45;&gt;s2_leagueM_game4_01_stac_1413791889 -->
<g id="edge12" class="edge">
<title>s2_leagueM_game4_01_stac_1413791886&#45;&gt;s2_leagueM_game4_01_stac_1413791889</title>
<g id="a_edge12"><a xlink:title="Acknowledgement">
<path fill="none" stroke="#12ffff" d="M30,-40.68C30,-37.58 30,-32.47 30,-28.16"/>
<polygon fill="#12ffff" stroke="#12ffff" points="31.75,-28.06 30,-23.06 28.25,-28.06 31.75,-28.06"/>
</a>
</g>
</g>
<!-- 6_0 -->
<!-- s2_leagueM_game4_01_stac_1413791889&#45;&gt;6_0 -->
<!-- s2_leagueM_game4_01_stac_1413791873 -->
<g id="node11" class="node">
<title>s2_leagueM_game4_01_stac_1413791873</title>
<g id="a_node11"><a xlink:title="1 &#160;inca &#160;does anyone have spare wood?">
<ellipse fill="black" stroke="black" cx="30" cy="-144.5" rx="3.5" ry="3.5"/>
</a>
</g>
</g>
<!-- s2_leagueM_game4_01_stac_1413791873&#45;&gt;s2_leagueM_game4_01_stac_1413791877 -->
<g id="edge8" class="edge">
<title>s2_leagueM_game4_01_stac_1413791873&#45;&gt;s2_leagueM_game4_01_stac_1413791877</title>
<g id="a_edge8"><a xlink:title="Q_Elab">
<path fill="none" stroke="#0d20ff" d="M30,-140.68C30,-137.58 30,-132.47 30,-128.16"/>
<polygon fill="#0d20ff" stroke="#0d20ff" points="31.75,-128.06 30,-123.06 28.25,-128.06 31.75,-128.06"/>
</a>
</g>
</g>
<!-- s2_leagueM_game4_01_stac_1413791874 -->
<g id="node12" class="node">
<title>s2_leagueM_game4_01_stac_1413791874</title>
<g id="a_node12"><a xlink:title="1 &#160;inca &#160;i could give ore or wheat">
<ellipse fill="black" stroke="black" cx="55" cy="-144.5" rx="3.5" ry="3.5"/>
</a>
</g>
</g>
<!-- s2_leagueM_game4_01_stac_1413791873&#45;&gt;s2_leagueM_game4_01_stac_1413791874 -->
<g id="edge7" class="edge">
<title>s2_leagueM_game4_01_stac_1413791873&#45;&gt;s2_leagueM_game4_01_stac_1413791874</title>
<g id="a_edge7"><a xlink:title="Elaboration">
<path fill="none" stroke="#a621c7" d="M33.52,-144.5C37.78,-144.5 42.04,-144.5 46.3,-144.5"/>
<polygon fill="#a621c7" stroke="#a621c7" points="46.31,-146.25 51.31,-144.5 46.31,-142.75 46.31,-146.25"/>
</a>
</g>
</g>
</g>
</svg>
