<?xml version="1.0" encoding="UTF-8" standalone="no"?>
<!DOCTYPE svg PUBLIC "-//W3C//DTD SVG 1.1//EN"
 "http://www.w3.org/Graphics/SVG/1.1/DTD/svg11.dtd">
<!-- Generated by graphviz version 3.0.0 (20220226.1711)
 -->
<!-- Title: 1_s2_leagueM_game4_1047 Pages: 1 -->
<svg width="73pt" height="95pt"
 viewBox="0.00 0.00 73.00 95.00" xmlns="http://www.w3.org/2000/svg" xmlns:xlink="http://www.w3.org/1999/xlink">
<g id="graph0" class="graph" transform="scale(1 1) rotate(0) translate(4 91)">
<title>1_s2_leagueM_game4_1047</title>
<polygon fill="white" stroke="transparent" points="-4,4 -4,-91 69,-91 69,4 -4,4"/>
<g id="clust1" class="cluster">
<title>cluster_1_s2_leagueM_game4_1047</title>
<polygon fill="none" stroke="black" points="8,-8 8,-79 57,-79 57,-8 8,-8"/>
<text text-anchor="middle" x="30" y="-63.8" font-family="Times,serif" font-size="14.00">1047</text>
</g>
<!-- s2_leagueM_game4_01_stac_1413791915 -->
<g id="node1" class="node">
<title>s2_leagueM_game4_01_stac_1413791915</title>
<g id="a_node1"><a xlink:title="2 &#160;CheshireCatGrin &#160;nope">
<ellipse fill="black" stroke="black" cx="20" cy="-19.5" rx="3.5" ry="3.5"/>
</a>
</g>
</g>
<!-- 2_0 -->
<!-- s2_leagueM_game4_01_stac_1413791915&#45;&gt;2_0 -->
<!-- s2_leagueM_game4_01_stac_1413791911 -->
<g id="node3" class="node">
<title>s2_leagueM_game4_01_stac_1413791911</title>
<g id="a_node3"><a xlink:title="1 &#160;inca &#160;anyone got sheep?">
<ellipse fill="black" stroke="black" cx="20" cy="-44.5" rx="3.5" ry="3.5"/>
</a>
</g>
</g>
<!-- s2_leagueM_game4_01_stac_1413791911&#45;&gt;s2_leagueM_game4_01_stac_1413791915 -->
<g id="edge3" class="edge">
<title>s2_leagueM_game4_01_stac_1413791911&#45;&gt;s2_leagueM_game4_01_stac_1413791915</title>
<g id="a_edge3"><a xlink:title="Question_answer_pair">
<path fill="none" stroke="#12ffff" d="M20,-40.68C20,-37.58 20,-32.47 20,-28.16"/>
<polygon fill="#12ffff" stroke="#12ffff" points="21.75,-28.06 20,-23.06 18.25,-28.06 21.75,-28.06"/>
</a>
</g>
</g>
<!-- s2_leagueM_game4_01_stac_1413791912 -->
<g id="node4" class="node">
<title>s2_leagueM_game4_01_stac_1413791912</title>
<g id="a_node4"><a xlink:title="1 &#160;inca &#160;can give wheat or wood">
<ellipse fill="black" stroke="black" cx="45" cy="-44.5" rx="3.5" ry="3.5"/>
</a>
</g>
</g>
<!-- s2_leagueM_game4_01_stac_1413791911&#45;&gt;s2_leagueM_game4_01_stac_1413791912 -->
<g id="edge2" class="edge">
<title>s2_leagueM_game4_01_stac_1413791911&#45;&gt;s2_leagueM_game4_01_stac_1413791912</title>
<g id="a_edge2"><a xlink:title="Elaboration">
<path fill="none" stroke="#a621c7" d="M23.52,-44.5C27.78,-44.5 32.04,-44.5 36.3,-44.5"/>
<polygon fill="#a621c7" stroke="#a621c7" points="36.31,-46.25 41.31,-44.5 36.31,-42.75 36.31,-46.25"/>
</a>
</g>
</g>
</g>
</svg>
