<?xml version="1.0" encoding="UTF-8" standalone="no"?>
<!DOCTYPE svg PUBLIC "-//W3C//DTD SVG 1.1//EN"
 "http://www.w3.org/Graphics/SVG/1.1/DTD/svg11.dtd">
<!-- Generated by graphviz version 3.0.0 (20220226.1711)
 -->
<!-- Title: 1_pilot02_46 Pages: 1 -->
<svg width="94pt" height="470pt"
 viewBox="0.00 0.00 94.00 470.00" xmlns="http://www.w3.org/2000/svg" xmlns:xlink="http://www.w3.org/1999/xlink">
<g id="graph0" class="graph" transform="scale(1 1) rotate(0) translate(4 466)">
<title>1_pilot02_46</title>
<polygon fill="white" stroke="transparent" points="-4,4 -4,-466 90,-466 90,4 -4,4"/>
<g id="clust1" class="cluster">
<title>cluster_1_pilot02_46</title>
<polygon fill="none" stroke="black" points="8,-8 8,-454 78,-454 78,-8 8,-8"/>
<text text-anchor="middle" x="23" y="-438.8" font-family="Times,serif" font-size="14.00">46</text>
</g>
<!-- pilot02_01_stac_1338397672 -->
<g id="node1" class="node">
<title>pilot02_01_stac_1338397672</title>
<g id="a_node1"><a xlink:title="2 &#160;Thomas &#160;think it&#39;s 1 more">
<ellipse fill="black" stroke="black" cx="30" cy="-394.5" rx="3.5" ry="3.5"/>
</a>
</g>
</g>
<!-- 2_0 -->
<!-- pilot02_01_stac_1338397672&#45;&gt;2_0 -->
<!-- pilot02_01_stac_1338407672 -->
<g id="node3" class="node">
<title>pilot02_01_stac_1338407672</title>
<g id="a_node3"><a xlink:title="3 &#160;william &#160;ok">
<ellipse fill="black" stroke="black" cx="20" cy="-369.5" rx="3.5" ry="3.5"/>
</a>
</g>
</g>
<!-- pilot02_01_stac_1338397672&#45;&gt;pilot02_01_stac_1338407672 -->
<g id="edge24" class="edge">
<title>pilot02_01_stac_1338397672&#45;&gt;pilot02_01_stac_1338407672</title>
<g id="a_edge24"><a xlink:title="Acknowledgement">
<path fill="none" stroke="#12ffff" d="M28.93,-391.04C27.54,-387.84 25.05,-382.12 23.06,-377.53"/>
<polygon fill="#12ffff" stroke="#12ffff" points="24.63,-376.76 21.03,-372.87 21.42,-378.16 24.63,-376.76"/>
</a>
</g>
</g>
<!-- pilot02_01_stac_1463480833 -->
<g id="node5" class="node">
<title>pilot02_01_stac_1463480833</title>
<g id="a_node5"><a xlink:title="4 &#160;Markus &#160;yes, one more">
<ellipse fill="black" stroke="black" cx="30" cy="-344.5" rx="3.5" ry="3.5"/>
</a>
</g>
</g>
<!-- pilot02_01_stac_1338397672&#45;&gt;pilot02_01_stac_1463480833 -->
<g id="edge25" class="edge">
<title>pilot02_01_stac_1338397672&#45;&gt;pilot02_01_stac_1463480833</title>
<g id="a_edge25"><a xlink:title="Question_answer_pair">
<path fill="none" stroke="#12ffff" d="M30.59,-390.93C31.65,-386.07 33.67,-375.2 33,-366 32.69,-361.76 32.03,-357.07 31.4,-353.25"/>
<polygon fill="#12ffff" stroke="#12ffff" points="33.1,-352.76 30.51,-348.14 29.65,-353.37 33.1,-352.76"/>
</a>
</g>
</g>
<!-- 3_0 -->
<!-- pilot02_01_stac_1338407672&#45;&gt;3_0 -->
<!-- pilot02_01_stac_1338407672&#45;&gt;pilot02_01_stac_1463480833 -->
<!-- 4_0 -->
<!-- pilot02_01_stac_1463480833&#45;&gt;4_0 -->
<!-- pilot02_01_stac_1463480836 -->
<g id="node7" class="node">
<title>pilot02_01_stac_1463480836</title>
<g id="a_node7"><a xlink:title="5 &#160;Markus &#160;seems there&#39;s a hickup logging into the game ...">
<ellipse fill="black" stroke="black" cx="30" cy="-319.5" rx="3.5" ry="3.5"/>
</a>
</g>
</g>
<!-- pilot02_01_stac_1463480833&#45;&gt;pilot02_01_stac_1463480836 -->
<g id="edge26" class="edge">
<title>pilot02_01_stac_1463480833&#45;&gt;pilot02_01_stac_1463480836</title>
<g id="a_edge26"><a xlink:title="Elaboration">
<path fill="none" stroke="#a621c7" d="M30,-340.68C30,-337.58 30,-332.47 30,-328.16"/>
<polygon fill="#a621c7" stroke="#a621c7" points="31.75,-328.06 30,-323.06 28.25,-328.06 31.75,-328.06"/>
</a>
</g>
</g>
<!-- 5_0 -->
<!-- pilot02_01_stac_1463480836&#45;&gt;5_0 -->
<!-- pilot02_01_stac_1338417672 -->
<g id="node9" class="node">
<title>pilot02_01_stac_1338417672</title>
<g id="a_node9"><a xlink:title="6 &#160;Thomas &#160;that&#39;s ok, I not on a schedule">
<ellipse fill="black" stroke="black" cx="20" cy="-294.5" rx="3.5" ry="3.5"/>
</a>
</g>
</g>
<!-- pilot02_01_stac_1463480836&#45;&gt;pilot02_01_stac_1338417672 -->
<g id="edge27" class="edge">
<title>pilot02_01_stac_1463480836&#45;&gt;pilot02_01_stac_1338417672</title>
<g id="a_edge27"><a xlink:title="Acknowledgement">
<path fill="none" stroke="#12ffff" d="M28.93,-316.04C27.54,-312.84 25.05,-307.12 23.06,-302.53"/>
<polygon fill="#12ffff" stroke="#12ffff" points="24.63,-301.76 21.03,-297.87 21.42,-303.16 24.63,-301.76"/>
</a>
</g>
</g>
<!-- pilot02_01_stac_1463480845 -->
<g id="node13" class="node">
<title>pilot02_01_stac_1463480845</title>
<g id="a_node13"><a xlink:title="8 &#160;Markus &#160;I guess you two had no problems joining the game?">
<ellipse fill="black" stroke="black" cx="30" cy="-244.5" rx="3.5" ry="3.5"/>
</a>
</g>
</g>
<!-- pilot02_01_stac_1463480836&#45;&gt;pilot02_01_stac_1463480845 -->
<g id="edge29" class="edge">
<title>pilot02_01_stac_1463480836&#45;&gt;pilot02_01_stac_1463480845</title>
<g id="a_edge29"><a xlink:title="Clarification_question">
<path fill="none" stroke="#ff40d1" d="M32.03,-316.26C37.55,-310 52.75,-291.56 58,-273 58.85,-270.01 59.41,-268.77 58,-266 53.83,-257.77 44.63,-252.05 37.91,-248.78"/>
<polygon fill="#ff40d1" stroke="#ff40d1" points="38.29,-247.04 33.01,-246.61 36.88,-250.24 38.29,-247.04"/>
</a>
</g>
</g>
<!-- 6_0 -->
<!-- pilot02_01_stac_1338417672&#45;&gt;6_0 -->
<!-- pilot02_01_stac_1338427672 -->
<g id="node11" class="node">
<title>pilot02_01_stac_1338427672</title>
<g id="a_node11"><a xlink:title="7 &#160;Thomas &#160;*I&#39;m">
<ellipse fill="black" stroke="black" cx="20" cy="-269.5" rx="3.5" ry="3.5"/>
</a>
</g>
</g>
<!-- pilot02_01_stac_1338417672&#45;&gt;pilot02_01_stac_1338427672 -->
<g id="edge28" class="edge">
<title>pilot02_01_stac_1338417672&#45;&gt;pilot02_01_stac_1338427672</title>
<g id="a_edge28"><a xlink:title="ContrastCorrection">
<path fill="none" stroke="#ff7ecf" d="M20,-290.68C20,-287.58 20,-282.47 20,-278.16"/>
<polygon fill="#ff7ecf" stroke="#ff7ecf" points="21.75,-278.06 20,-273.06 18.25,-278.06 21.75,-278.06"/>
</a>
</g>
</g>
<!-- 7_0 -->
<!-- pilot02_01_stac_1338427672&#45;&gt;7_0 -->
<!-- pilot02_01_stac_1338427672&#45;&gt;pilot02_01_stac_1463480845 -->
<!-- 8_0 -->
<!-- pilot02_01_stac_1463480845&#45;&gt;8_0 -->
<!-- pilot02_01_stac_1338437672 -->
<g id="node15" class="node">
<title>pilot02_01_stac_1338437672</title>
<g id="a_node15"><a xlink:title="9 &#160;william &#160;nope">
<ellipse fill="black" stroke="black" cx="20" cy="-219.5" rx="3.5" ry="3.5"/>
</a>
</g>
</g>
<!-- pilot02_01_stac_1463480845&#45;&gt;pilot02_01_stac_1338437672 -->
<g id="edge30" class="edge">
<title>pilot02_01_stac_1463480845&#45;&gt;pilot02_01_stac_1338437672</title>
<g id="a_edge30"><a xlink:title="Question_answer_pair">
<path fill="none" stroke="#12ffff" d="M28.93,-241.04C27.54,-237.84 25.05,-232.12 23.06,-227.53"/>
<polygon fill="#12ffff" stroke="#12ffff" points="24.63,-226.76 21.03,-222.87 21.42,-228.16 24.63,-226.76"/>
</a>
</g>
</g>
<!-- pilot02_01_stac_1463480854 -->
<g id="node19" class="node">
<title>pilot02_01_stac_1463480854</title>
<g id="a_node19"><a xlink:title="11 &#160;Markus &#160;So, one of you can now start the game.">
<ellipse fill="black" stroke="black" cx="30" cy="-169.5" rx="3.5" ry="3.5"/>
</a>
</g>
</g>
<!-- pilot02_01_stac_1463480845&#45;&gt;pilot02_01_stac_1463480854 -->
<g id="edge32" class="edge">
<title>pilot02_01_stac_1463480845&#45;&gt;pilot02_01_stac_1463480854</title>
<g id="a_edge32"><a xlink:title="ExplanationResult">
<path fill="none" stroke="#a62139" d="M32.03,-241.26C37.55,-235 52.75,-216.56 58,-198 58.85,-195.01 59.41,-193.77 58,-191 53.83,-182.77 44.63,-177.05 37.91,-173.78"/>
<polygon fill="#a62139" stroke="#a62139" points="38.29,-172.04 33.01,-171.61 36.88,-175.24 38.29,-172.04"/>
</a>
</g>
</g>
<!-- 9_0 -->
<!-- pilot02_01_stac_1338437672&#45;&gt;9_0 -->
<!-- pilot02_01_stac_1463480851 -->
<g id="node17" class="node">
<title>pilot02_01_stac_1463480851</title>
<g id="a_node17"><a xlink:title="10 &#160;Markus &#160;Ah great!">
<ellipse fill="black" stroke="black" cx="20" cy="-194.5" rx="3.5" ry="3.5"/>
</a>
</g>
</g>
<!-- pilot02_01_stac_1338437672&#45;&gt;pilot02_01_stac_1463480851 -->
<g id="edge31" class="edge">
<title>pilot02_01_stac_1338437672&#45;&gt;pilot02_01_stac_1463480851</title>
<g id="a_edge31"><a xlink:title="Acknowledgement">
<path fill="none" stroke="#12ffff" d="M20,-215.68C20,-212.58 20,-207.47 20,-203.16"/>
<polygon fill="#12ffff" stroke="#12ffff" points="21.75,-203.06 20,-198.06 18.25,-203.06 21.75,-203.06"/>
</a>
</g>
</g>
<!-- 10_0 -->
<!-- pilot02_01_stac_1463480851&#45;&gt;10_0 -->
<!-- pilot02_01_stac_1463480851&#45;&gt;pilot02_01_stac_1463480854 -->
<g id="edge33" class="edge">
<title>pilot02_01_stac_1463480851&#45;&gt;pilot02_01_stac_1463480854</title>
<g id="a_edge33"><a xlink:title="ParallNarrContinuationbackground">
<path fill="none" stroke="#0ab046" d="M21.07,-191.04C22.46,-187.84 24.95,-182.12 26.94,-177.53"/>
<polygon fill="#0ab046" stroke="#0ab046" points="28.58,-178.16 28.97,-172.87 25.37,-176.76 28.58,-178.16"/>
</a>
</g>
</g>
<!-- 11_0 -->
<!-- pilot02_01_stac_1463480854&#45;&gt;11_0 -->
<!-- pilot02_01_stac_1463480857 -->
<g id="node21" class="node">
<title>pilot02_01_stac_1463480857</title>
<g id="a_node21"><a xlink:title="12 &#160;Markus &#160;Have fun!">
<ellipse fill="black" stroke="black" cx="20" cy="-144.5" rx="3.5" ry="3.5"/>
</a>
</g>
</g>
<!-- pilot02_01_stac_1463480854&#45;&gt;pilot02_01_stac_1463480857 -->
<g id="edge34" class="edge">
<title>pilot02_01_stac_1463480854&#45;&gt;pilot02_01_stac_1463480857</title>
<g id="a_edge34"><a xlink:title="Comment">
<path fill="none" stroke="#ff8200" d="M28.93,-166.04C27.54,-162.84 25.05,-157.12 23.06,-152.53"/>
<polygon fill="#ff8200" stroke="#ff8200" points="24.63,-151.76 21.03,-147.87 21.42,-153.16 24.63,-151.76"/>
</a>
</g>
</g>
<!-- pilot02_01_stac_1338447672 -->
<g id="node33" class="node">
<title>pilot02_01_stac_1338447672</title>
<g id="a_node33"><a xlink:title="13 &#160;william &#160;the arrow is pointing at me ">
<ellipse fill="black" stroke="black" cx="20" cy="-119.5" rx="3.5" ry="3.5"/>
</a>
</g>
</g>
<!-- pilot02_01_stac_1463480854&#45;&gt;pilot02_01_stac_1338447672 -->
<g id="edge35" class="edge">
<title>pilot02_01_stac_1463480854&#45;&gt;pilot02_01_stac_1338447672</title>
<g id="a_edge35"><a xlink:title="Comment">
<path fill="none" stroke="#ff8200" d="M30.95,-165.86C32.6,-160.9 35.57,-149.86 33,-141 31.48,-135.76 28.18,-130.58 25.28,-126.74"/>
<polygon fill="#ff8200" stroke="#ff8200" points="26.5,-125.47 21.99,-122.69 23.78,-127.67 26.5,-125.47"/>
</a>
</g>
</g>
<!-- 12_0 -->
<!-- pilot02_01_stac_1463480857&#45;&gt;12_0 -->
<!-- pilot02_01_stac_1463480857&#45;&gt;pilot02_01_stac_1338447672 -->
<!-- pilot02_01_stac_1338457672 -->
<g id="node23" class="node">
<title>pilot02_01_stac_1338457672</title>
<g id="a_node23"><a xlink:title="14 &#160;william &#160;oh sorry">
<ellipse fill="black" stroke="black" cx="41" cy="-94.5" rx="3.5" ry="3.5"/>
</a>
</g>
</g>
<!-- 14_0 -->
<!-- pilot02_01_stac_1338457672&#45;&gt;14_0 -->
<!-- pilot02_01_stac_1338467672 -->
<g id="node25" class="node">
<title>pilot02_01_stac_1338467672</title>
<g id="a_node25"><a xlink:title="15 &#160;Thomas &#160;u can place a settlement">
<ellipse fill="black" stroke="black" cx="30" cy="-69.5" rx="3.5" ry="3.5"/>
</a>
</g>
</g>
<!-- pilot02_01_stac_1338457672&#45;&gt;pilot02_01_stac_1338467672 -->
<!-- 15_0 -->
<!-- pilot02_01_stac_1338467672&#45;&gt;15_0 -->
<!-- pilot02_01_stac_1338487672 -->
<g id="node27" class="node">
<title>pilot02_01_stac_1338487672</title>
<g id="a_node27"><a xlink:title="16 &#160;Thomas &#160;first">
<ellipse fill="black" stroke="black" cx="30" cy="-44.5" rx="3.5" ry="3.5"/>
</a>
</g>
</g>
<!-- pilot02_01_stac_1338467672&#45;&gt;pilot02_01_stac_1338487672 -->
<g id="edge39" class="edge">
<title>pilot02_01_stac_1338467672&#45;&gt;pilot02_01_stac_1338487672</title>
<g id="a_edge39"><a xlink:title="ParallNarrContinuationbackground">
<path fill="none" stroke="#0ab046" d="M30,-65.68C30,-62.58 30,-57.47 30,-53.16"/>
<polygon fill="#0ab046" stroke="#0ab046" points="31.75,-53.06 30,-48.06 28.25,-53.06 31.75,-53.06"/>
</a>
</g>
</g>
<!-- 16_0 -->
<!-- pilot02_01_stac_1338487672&#45;&gt;16_0 -->
<!-- pilot02_01_stac_1338497672 -->
<g id="node29" class="node">
<title>pilot02_01_stac_1338497672</title>
<g id="a_node29"><a xlink:title="17 &#160;Thomas &#160;u roll later">
<ellipse fill="black" stroke="black" cx="30" cy="-19.5" rx="3.5" ry="3.5"/>
</a>
</g>
</g>
<!-- pilot02_01_stac_1338487672&#45;&gt;pilot02_01_stac_1338497672 -->
<g id="edge40" class="edge">
<title>pilot02_01_stac_1338487672&#45;&gt;pilot02_01_stac_1338497672</title>
<g id="a_edge40"><a xlink:title="Comment">
<path fill="none" stroke="#ff8200" d="M30,-40.68C30,-37.58 30,-32.47 30,-28.16"/>
<polygon fill="#ff8200" stroke="#ff8200" points="31.75,-28.06 30,-23.06 28.25,-28.06 31.75,-28.06"/>
</a>
</g>
</g>
<!-- 17_0 -->
<!-- pilot02_01_stac_1338497672&#45;&gt;17_0 -->
<!-- pilot02_01_stac_1338387672 -->
<g id="node31" class="node">
<title>pilot02_01_stac_1338387672</title>
<g id="a_node31"><a xlink:title="1 &#160;william &#160;hi markus. ">
<ellipse fill="black" stroke="black" cx="20" cy="-419.5" rx="3.5" ry="3.5"/>
</a>
</g>
</g>
<!-- pilot02_01_stac_1338387672&#45;&gt;pilot02_01_stac_1338397672 -->
<!-- pilot02_01_stac_1338387673 -->
<g id="node32" class="node">
<title>pilot02_01_stac_1338387673</title>
<g id="a_node32"><a xlink:title="1 &#160;william &#160;how many people are we waiting for?">
<ellipse fill="black" stroke="black" cx="45" cy="-419.5" rx="3.5" ry="3.5"/>
</a>
</g>
</g>
<!-- pilot02_01_stac_1338387672&#45;&gt;pilot02_01_stac_1338387673 -->
<g id="edge22" class="edge">
<title>pilot02_01_stac_1338387672&#45;&gt;pilot02_01_stac_1338387673</title>
<g id="a_edge22"><a xlink:title="ParallNarrContinuationbackground">
<path fill="none" stroke="#0ab046" d="M23.52,-419.5C27.78,-419.5 32.04,-419.5 36.3,-419.5"/>
<polygon fill="#0ab046" stroke="#0ab046" points="36.31,-421.25 41.31,-419.5 36.31,-417.75 36.31,-421.25"/>
</a>
</g>
</g>
<!-- pilot02_01_stac_1338387673&#45;&gt;pilot02_01_stac_1338397672 -->
<g id="edge23" class="edge">
<title>pilot02_01_stac_1338387673&#45;&gt;pilot02_01_stac_1338397672</title>
<g id="a_edge23"><a xlink:title="Question_answer_pair">
<path fill="none" stroke="#12ffff" d="M43.39,-416.04C41.26,-412.77 37.42,-406.87 34.39,-402.23"/>
<polygon fill="#12ffff" stroke="#12ffff" points="35.75,-401.11 31.55,-397.87 32.81,-403.02 35.75,-401.11"/>
</a>
</g>
</g>
<!-- pilot02_01_stac_1338447672&#45;&gt;pilot02_01_stac_1338457672 -->
<!-- pilot02_01_stac_1338447672&#45;&gt;pilot02_01_stac_1338467672 -->
<g id="edge38" class="edge">
<title>pilot02_01_stac_1338447672&#45;&gt;pilot02_01_stac_1338467672</title>
<g id="a_edge38"><a xlink:title="ContrastCorrection">
<path fill="none" stroke="#ff7ecf" d="M20.54,-115.92C21.99,-108.95 26.03,-89.55 28.34,-78.49"/>
<polygon fill="#ff7ecf" stroke="#ff7ecf" points="30.1,-78.58 29.41,-73.33 26.68,-77.87 30.1,-78.58"/>
</a>
</g>
</g>
<!-- pilot02_01_stac_1338447673 -->
<g id="node34" class="node">
<title>pilot02_01_stac_1338447673</title>
<g id="a_node34"><a xlink:title="13 &#160;william &#160;but i cant press roll">
<ellipse fill="black" stroke="black" cx="45" cy="-119.5" rx="3.5" ry="3.5"/>
</a>
</g>
</g>
<!-- pilot02_01_stac_1338447672&#45;&gt;pilot02_01_stac_1338447673 -->
<g id="edge36" class="edge">
<title>pilot02_01_stac_1338447672&#45;&gt;pilot02_01_stac_1338447673</title>
<g id="a_edge36"><a xlink:title="ContrastCorrection">
<path fill="none" stroke="#ff7ecf" d="M23.52,-119.5C27.78,-119.5 32.04,-119.5 36.3,-119.5"/>
<polygon fill="#ff7ecf" stroke="#ff7ecf" points="36.31,-121.25 41.31,-119.5 36.31,-117.75 36.31,-121.25"/>
</a>
</g>
</g>
<!-- pilot02_01_stac_1338447673&#45;&gt;pilot02_01_stac_1338457672 -->
<g id="edge37" class="edge">
<title>pilot02_01_stac_1338447673&#45;&gt;pilot02_01_stac_1338457672</title>
<g id="a_edge37"><a xlink:title="Comment">
<path fill="none" stroke="#ff8200" d="M44.51,-115.68C43.97,-112.58 43.08,-107.47 42.33,-103.16"/>
<polygon fill="#ff8200" stroke="#ff8200" points="44.03,-102.69 41.45,-98.06 40.58,-103.29 44.03,-102.69"/>
</a>
</g>
</g>
</g>
</svg>
