<?xml version="1.0" encoding="UTF-8" standalone="no"?>
<!DOCTYPE svg PUBLIC "-//W3C//DTD SVG 1.1//EN"
 "http://www.w3.org/Graphics/SVG/1.1/DTD/svg11.dtd">
<!-- Generated by graphviz version 3.0.0 (20220226.1711)
 -->
<!-- Title: 5_pilot02_56 Pages: 1 -->
<svg width="113pt" height="570pt"
 viewBox="0.00 0.00 113.00 570.00" xmlns="http://www.w3.org/2000/svg" xmlns:xlink="http://www.w3.org/1999/xlink">
<g id="graph0" class="graph" transform="scale(1 1) rotate(0) translate(4 566)">
<title>5_pilot02_56</title>
<polygon fill="white" stroke="transparent" points="-4,4 -4,-566 109,-566 109,4 -4,4"/>
<g id="clust1" class="cluster">
<title>cluster_5_pilot02_56</title>
<polygon fill="none" stroke="black" points="8,-8 8,-554 97,-554 97,-8 8,-8"/>
<text text-anchor="middle" x="23" y="-538.8" font-family="Times,serif" font-size="14.00">56</text>
</g>
<!-- pilot02_05_stac_1338397685 -->
<g id="node1" class="node">
<title>pilot02_05_stac_1338397685</title>
<g id="a_node1"><a xlink:title="2 &#160;Cat &#160;i can offer ore for sheep or clay">
<ellipse fill="black" stroke="black" cx="20" cy="-494.5" rx="3.5" ry="3.5"/>
</a>
</g>
</g>
<!-- 2_0 -->
<!-- pilot02_05_stac_1338397685&#45;&gt;2_0 -->
<!-- pilot02_05_stac_1338407685 -->
<g id="node3" class="node">
<title>pilot02_05_stac_1338407685</title>
<g id="a_node3"><a xlink:title="3 &#160;Cat &#160;or wheet for the same">
<ellipse fill="black" stroke="black" cx="20" cy="-469.5" rx="3.5" ry="3.5"/>
</a>
</g>
</g>
<!-- pilot02_05_stac_1338397685&#45;&gt;pilot02_05_stac_1338407685 -->
<g id="edge29" class="edge">
<title>pilot02_05_stac_1338397685&#45;&gt;pilot02_05_stac_1338407685</title>
<g id="a_edge29"><a xlink:title="Alternation">
<path fill="none" stroke="#10495e" d="M20,-490.68C20,-487.58 20,-482.47 20,-478.16"/>
<polygon fill="#10495e" stroke="#10495e" points="21.75,-478.06 20,-473.06 18.25,-478.06 21.75,-478.06"/>
</a>
</g>
</g>
<!-- 3_0 -->
<!-- pilot02_05_stac_1338407685&#45;&gt;3_0 -->
<!-- pilot02_05_stac_1338417685 -->
<g id="node5" class="node">
<title>pilot02_05_stac_1338417685</title>
<g id="a_node5"><a xlink:title="4 &#160;william &#160;thomas, can you continue from where you left the game?">
<ellipse fill="black" stroke="black" cx="45" cy="-444.5" rx="3.5" ry="3.5"/>
</a>
</g>
</g>
<!-- pilot02_05_stac_1338407685&#45;&gt;pilot02_05_stac_1338417685 -->
<!-- 4_0 -->
<!-- pilot02_05_stac_1338417685&#45;&gt;4_0 -->
<!-- pilot02_05_stac_1338427685 -->
<g id="node7" class="node">
<title>pilot02_05_stac_1338427685</title>
<g id="a_node7"><a xlink:title="5 &#160;Thomas &#160;yes">
<ellipse fill="black" stroke="black" cx="45" cy="-419.5" rx="3.5" ry="3.5"/>
</a>
</g>
</g>
<!-- pilot02_05_stac_1338417685&#45;&gt;pilot02_05_stac_1338427685 -->
<g id="edge31" class="edge">
<title>pilot02_05_stac_1338417685&#45;&gt;pilot02_05_stac_1338427685</title>
<g id="a_edge31"><a xlink:title="Question_answer_pair">
<path fill="none" stroke="#12ffff" d="M45,-440.68C45,-437.58 45,-432.47 45,-428.16"/>
<polygon fill="#12ffff" stroke="#12ffff" points="46.75,-428.06 45,-423.06 43.25,-428.06 46.75,-428.06"/>
</a>
</g>
</g>
<!-- 5_0 -->
<!-- pilot02_05_stac_1338427685&#45;&gt;5_0 -->
<!-- pilot02_05_stac_1338437685 -->
<g id="node9" class="node">
<title>pilot02_05_stac_1338437685</title>
<g id="a_node9"><a xlink:title="6 &#160;Thomas &#160;sorry about that">
<ellipse fill="black" stroke="black" cx="45" cy="-394.5" rx="3.5" ry="3.5"/>
</a>
</g>
</g>
<!-- pilot02_05_stac_1338427685&#45;&gt;pilot02_05_stac_1338437685 -->
<g id="edge32" class="edge">
<title>pilot02_05_stac_1338427685&#45;&gt;pilot02_05_stac_1338437685</title>
<g id="a_edge32"><a xlink:title="Comment">
<path fill="none" stroke="#ff8200" d="M45,-415.68C45,-412.58 45,-407.47 45,-403.16"/>
<polygon fill="#ff8200" stroke="#ff8200" points="46.75,-403.06 45,-398.06 43.25,-403.06 46.75,-403.06"/>
</a>
</g>
</g>
<!-- 6_0 -->
<!-- pilot02_05_stac_1338437685&#45;&gt;6_0 -->
<!-- pilot02_05_stac_1338447685 -->
<g id="node11" class="node">
<title>pilot02_05_stac_1338447685</title>
<g id="a_node11"><a xlink:title="7 &#160;Thomas &#160;but it&#39;s working now">
<ellipse fill="black" stroke="black" cx="30" cy="-369.5" rx="3.5" ry="3.5"/>
</a>
</g>
</g>
<!-- pilot02_05_stac_1338437685&#45;&gt;pilot02_05_stac_1338447685 -->
<g id="edge33" class="edge">
<title>pilot02_05_stac_1338437685&#45;&gt;pilot02_05_stac_1338447685</title>
<g id="a_edge33"><a xlink:title="ContrastCorrection">
<path fill="none" stroke="#ff7ecf" d="M43.39,-391.04C41.26,-387.77 37.42,-381.87 34.39,-377.23"/>
<polygon fill="#ff7ecf" stroke="#ff7ecf" points="35.75,-376.11 31.55,-372.87 32.81,-378.02 35.75,-376.11"/>
</a>
</g>
</g>
<!-- pilot02_05_stac_1338457685 -->
<g id="node13" class="node">
<title>pilot02_05_stac_1338457685</title>
<g id="a_node13"><a xlink:title="8 &#160;Cat &#160;np">
<ellipse fill="black" stroke="black" cx="60" cy="-344.5" rx="3.5" ry="3.5"/>
</a>
</g>
</g>
<!-- pilot02_05_stac_1338437685&#45;&gt;pilot02_05_stac_1338457685 -->
<g id="edge34" class="edge">
<title>pilot02_05_stac_1338437685&#45;&gt;pilot02_05_stac_1338457685</title>
<g id="a_edge34"><a xlink:title="Acknowledgement">
<path fill="none" stroke="#12ffff" d="M47.81,-392.05C52.96,-389.22 63.8,-382.37 68,-373 71.05,-366.19 67.78,-357.92 64.54,-352.23"/>
<polygon fill="#12ffff" stroke="#12ffff" points="65.93,-351.14 61.77,-347.86 62.97,-353.02 65.93,-351.14"/>
</a>
</g>
</g>
<!-- 7_0 -->
<!-- pilot02_05_stac_1338447685&#45;&gt;7_0 -->
<!-- pilot02_05_stac_1338447685&#45;&gt;pilot02_05_stac_1338457685 -->
<!-- 8_0 -->
<!-- pilot02_05_stac_1338457685&#45;&gt;8_0 -->
<!-- pilot02_05_stac_1338467685 -->
<g id="node15" class="node">
<title>pilot02_05_stac_1338467685</title>
<g id="a_node15"><a xlink:title="9 &#160;Cat &#160;anyone for ore or what?">
<ellipse fill="black" stroke="black" cx="60" cy="-319.5" rx="3.5" ry="3.5"/>
</a>
</g>
</g>
<!-- pilot02_05_stac_1338457685&#45;&gt;pilot02_05_stac_1338467685 -->
<g id="edge35" class="edge">
<title>pilot02_05_stac_1338457685&#45;&gt;pilot02_05_stac_1338467685</title>
<g id="a_edge35"><a xlink:title="ParallNarrContinuationbackground">
<path fill="none" stroke="#0ab046" d="M60,-340.68C60,-337.58 60,-332.47 60,-328.16"/>
<polygon fill="#0ab046" stroke="#0ab046" points="61.75,-328.06 60,-323.06 58.25,-328.06 61.75,-328.06"/>
</a>
</g>
</g>
<!-- 9_0 -->
<!-- pilot02_05_stac_1338467685&#45;&gt;9_0 -->
<!-- pilot02_05_stac_1338477685 -->
<g id="node17" class="node">
<title>pilot02_05_stac_1338477685</title>
<g id="a_node17"><a xlink:title="10 &#160;william &#160;no">
<ellipse fill="black" stroke="black" cx="20" cy="-294.5" rx="3.5" ry="3.5"/>
</a>
</g>
</g>
<!-- pilot02_05_stac_1338467685&#45;&gt;pilot02_05_stac_1338477685 -->
<g id="edge36" class="edge">
<title>pilot02_05_stac_1338467685&#45;&gt;pilot02_05_stac_1338477685</title>
<g id="a_edge36"><a xlink:title="Question_answer_pair">
<path fill="none" stroke="#12ffff" d="M57.38,-316.99C51.33,-313.52 36.26,-304.85 27.21,-299.64"/>
<polygon fill="#12ffff" stroke="#12ffff" points="27.89,-298.02 22.69,-297.04 26.15,-301.05 27.89,-298.02"/>
</a>
</g>
</g>
<!-- pilot02_05_stac_1338487685 -->
<g id="node19" class="node">
<title>pilot02_05_stac_1338487685</title>
<g id="a_node19"><a xlink:title="11 &#160;Thomas &#160;i have ore">
<ellipse fill="black" stroke="black" cx="40" cy="-269.5" rx="3.5" ry="3.5"/>
</a>
</g>
</g>
<!-- pilot02_05_stac_1338467685&#45;&gt;pilot02_05_stac_1338487685 -->
<g id="edge37" class="edge">
<title>pilot02_05_stac_1338467685&#45;&gt;pilot02_05_stac_1338487685</title>
<g id="a_edge37"><a xlink:title="Question_answer_pair">
<path fill="none" stroke="#12ffff" d="M60.35,-315.79C60.9,-310.71 61.55,-299.48 58,-291 55.47,-284.97 50.44,-279.48 46.33,-275.7"/>
<polygon fill="#12ffff" stroke="#12ffff" points="47.34,-274.26 42.41,-272.33 45.06,-276.92 47.34,-274.26"/>
</a>
</g>
</g>
<!-- pilot02_05_stac_1338517685 -->
<g id="node25" class="node">
<title>pilot02_05_stac_1338517685</title>
<g id="a_node25"><a xlink:title="14 &#160;Cat &#160;I mean I have those to offer">
<ellipse fill="black" stroke="black" cx="50" cy="-194.5" rx="3.5" ry="3.5"/>
</a>
</g>
</g>
<!-- pilot02_05_stac_1338467685&#45;&gt;pilot02_05_stac_1338517685 -->
<g id="edge40" class="edge">
<title>pilot02_05_stac_1338467685&#45;&gt;pilot02_05_stac_1338517685</title>
<g id="a_edge40"><a xlink:title="Question_answer_pair">
<path fill="none" stroke="#12ffff" d="M62.2,-316.55C68.8,-310.45 88,-290.95 88,-270.5 88,-270.5 88,-270.5 88,-243.5 88,-230.49 85.81,-226.4 78,-216 72.46,-208.62 63.53,-202.74 57.25,-199.2"/>
<polygon fill="#12ffff" stroke="#12ffff" points="57.96,-197.59 52.73,-196.79 56.32,-200.68 57.96,-197.59"/>
</a>
</g>
</g>
<!-- 10_0 -->
<!-- pilot02_05_stac_1338477685&#45;&gt;10_0 -->
<!-- pilot02_05_stac_1338477685&#45;&gt;pilot02_05_stac_1338487685 -->
<!-- 11_0 -->
<!-- pilot02_05_stac_1338487685&#45;&gt;11_0 -->
<!-- pilot02_05_stac_1338497685 -->
<g id="node21" class="node">
<title>pilot02_05_stac_1338497685</title>
<g id="a_node21"><a xlink:title="12 &#160;Thomas &#160;I need sheep">
<ellipse fill="black" stroke="black" cx="40" cy="-244.5" rx="3.5" ry="3.5"/>
</a>
</g>
</g>
<!-- pilot02_05_stac_1338487685&#45;&gt;pilot02_05_stac_1338497685 -->
<g id="edge38" class="edge">
<title>pilot02_05_stac_1338487685&#45;&gt;pilot02_05_stac_1338497685</title>
<g id="a_edge38"><a xlink:title="Elaboration">
<path fill="none" stroke="#a621c7" d="M40,-265.68C40,-262.58 40,-257.47 40,-253.16"/>
<polygon fill="#a621c7" stroke="#a621c7" points="41.75,-253.06 40,-248.06 38.25,-253.06 41.75,-253.06"/>
</a>
</g>
</g>
<!-- 12_0 -->
<!-- pilot02_05_stac_1338497685&#45;&gt;12_0 -->
<!-- pilot02_05_stac_1338507685 -->
<g id="node23" class="node">
<title>pilot02_05_stac_1338507685</title>
<g id="a_node23"><a xlink:title="13 &#160;Thomas &#160;or clay">
<ellipse fill="black" stroke="black" cx="40" cy="-219.5" rx="3.5" ry="3.5"/>
</a>
</g>
</g>
<!-- pilot02_05_stac_1338497685&#45;&gt;pilot02_05_stac_1338507685 -->
<g id="edge39" class="edge">
<title>pilot02_05_stac_1338497685&#45;&gt;pilot02_05_stac_1338507685</title>
<g id="a_edge39"><a xlink:title="Alternation">
<path fill="none" stroke="#10495e" d="M40,-240.68C40,-237.58 40,-232.47 40,-228.16"/>
<polygon fill="#10495e" stroke="#10495e" points="41.75,-228.06 40,-223.06 38.25,-228.06 41.75,-228.06"/>
</a>
</g>
</g>
<!-- 13_0 -->
<!-- pilot02_05_stac_1338507685&#45;&gt;13_0 -->
<!-- pilot02_05_stac_1338507685&#45;&gt;pilot02_05_stac_1338517685 -->
<!-- 14_0 -->
<!-- pilot02_05_stac_1338517685&#45;&gt;14_0 -->
<!-- pilot02_05_stac_1338527685 -->
<g id="node27" class="node">
<title>pilot02_05_stac_1338527685</title>
<g id="a_node27"><a xlink:title="15 &#160;Cat &#160;I need sheep">
<ellipse fill="black" stroke="black" cx="50" cy="-169.5" rx="3.5" ry="3.5"/>
</a>
</g>
</g>
<!-- pilot02_05_stac_1338517685&#45;&gt;pilot02_05_stac_1338527685 -->
<g id="edge41" class="edge">
<title>pilot02_05_stac_1338517685&#45;&gt;pilot02_05_stac_1338527685</title>
<g id="a_edge41"><a xlink:title="Elaboration">
<path fill="none" stroke="#a621c7" d="M50,-190.68C50,-187.58 50,-182.47 50,-178.16"/>
<polygon fill="#a621c7" stroke="#a621c7" points="51.75,-178.06 50,-173.06 48.25,-178.06 51.75,-178.06"/>
</a>
</g>
</g>
<!-- 15_0 -->
<!-- pilot02_05_stac_1338527685&#45;&gt;15_0 -->
<!-- pilot02_05_stac_1338537685 -->
<g id="node29" class="node">
<title>pilot02_05_stac_1338537685</title>
<g id="a_node29"><a xlink:title="16 &#160;Cat &#160;or clary">
<ellipse fill="black" stroke="black" cx="28" cy="-144.5" rx="3.5" ry="3.5"/>
</a>
</g>
</g>
<!-- pilot02_05_stac_1338527685&#45;&gt;pilot02_05_stac_1338537685 -->
<g id="edge42" class="edge">
<title>pilot02_05_stac_1338527685&#45;&gt;pilot02_05_stac_1338537685</title>
<g id="a_edge42"><a xlink:title="Alternation">
<path fill="none" stroke="#10495e" d="M47.97,-166.38C44.84,-163.11 38.72,-156.71 34.08,-151.85"/>
<polygon fill="#10495e" stroke="#10495e" points="35.08,-150.36 30.35,-147.96 32.55,-152.78 35.08,-150.36"/>
</a>
</g>
</g>
<!-- pilot02_05_stac_1338547685 -->
<g id="node41" class="node">
<title>pilot02_05_stac_1338547685</title>
<g id="a_node41"><a xlink:title="17 &#160;Thomas &#160;no ">
<ellipse fill="black" stroke="black" cx="51" cy="-119.5" rx="3.5" ry="3.5"/>
</a>
</g>
</g>
<!-- pilot02_05_stac_1338527685&#45;&gt;pilot02_05_stac_1338547685 -->
<g id="edge43" class="edge">
<title>pilot02_05_stac_1338527685&#45;&gt;pilot02_05_stac_1338547685</title>
<g id="a_edge43"><a xlink:title="Question_answer_pair">
<path fill="none" stroke="#12ffff" d="M52.2,-166.63C55.9,-163.32 63.24,-156.03 66,-148 68.76,-139.96 62.57,-131.49 57.32,-126.11"/>
<polygon fill="#12ffff" stroke="#12ffff" points="58.19,-124.54 53.35,-122.4 55.8,-127.09 58.19,-124.54"/>
</a>
</g>
</g>
<!-- 16_0 -->
<!-- pilot02_05_stac_1338537685&#45;&gt;16_0 -->
<!-- pilot02_05_stac_1338557685 -->
<g id="node31" class="node">
<title>pilot02_05_stac_1338557685</title>
<g id="a_node31"><a xlink:title="18 &#160;Cat &#160;clay">
<ellipse fill="black" stroke="black" cx="39" cy="-94.5" rx="3.5" ry="3.5"/>
</a>
</g>
</g>
<!-- pilot02_05_stac_1338537685&#45;&gt;pilot02_05_stac_1338557685 -->
<g id="edge45" class="edge">
<title>pilot02_05_stac_1338537685&#45;&gt;pilot02_05_stac_1338557685</title>
<g id="a_edge45"><a xlink:title="Elaboration">
<path fill="none" stroke="#a621c7" d="M28.59,-140.92C30.19,-133.95 34.64,-114.55 37.17,-103.49"/>
<polygon fill="#a621c7" stroke="#a621c7" points="38.94,-103.6 38.35,-98.33 35.53,-102.81 38.94,-103.6"/>
</a>
</g>
</g>
<!-- pilot02_05_stac_1338537685&#45;&gt;pilot02_05_stac_1338547685 -->
<!-- 18_0 -->
<!-- pilot02_05_stac_1338557685&#45;&gt;18_0 -->
<!-- pilot02_05_stac_1338567685 -->
<g id="node33" class="node">
<title>pilot02_05_stac_1338567685</title>
<g id="a_node33"><a xlink:title="19 &#160;Cat &#160;then anyone wants a wood for an ore?">
<ellipse fill="black" stroke="black" cx="39" cy="-69.5" rx="3.5" ry="3.5"/>
</a>
</g>
</g>
<!-- pilot02_05_stac_1338557685&#45;&gt;pilot02_05_stac_1338567685 -->
<g id="edge46" class="edge">
<title>pilot02_05_stac_1338557685&#45;&gt;pilot02_05_stac_1338567685</title>
<g id="a_edge46"><a xlink:title="ParallNarrContinuationbackground">
<path fill="none" stroke="#0ab046" d="M39,-90.68C39,-87.58 39,-82.47 39,-78.16"/>
<polygon fill="#0ab046" stroke="#0ab046" points="40.75,-78.06 39,-73.06 37.25,-78.06 40.75,-78.06"/>
</a>
</g>
</g>
<!-- 19_0 -->
<!-- pilot02_05_stac_1338567685&#45;&gt;19_0 -->
<!-- pilot02_05_stac_1338577685 -->
<g id="node35" class="node">
<title>pilot02_05_stac_1338577685</title>
<g id="a_node35"><a xlink:title="20 &#160;william &#160;no">
<ellipse fill="black" stroke="black" cx="39" cy="-44.5" rx="3.5" ry="3.5"/>
</a>
</g>
</g>
<!-- pilot02_05_stac_1338567685&#45;&gt;pilot02_05_stac_1338577685 -->
<g id="edge47" class="edge">
<title>pilot02_05_stac_1338567685&#45;&gt;pilot02_05_stac_1338577685</title>
<g id="a_edge47"><a xlink:title="Question_answer_pair">
<path fill="none" stroke="#12ffff" d="M39,-65.68C39,-62.58 39,-57.47 39,-53.16"/>
<polygon fill="#12ffff" stroke="#12ffff" points="40.75,-53.06 39,-48.06 37.25,-53.06 40.75,-53.06"/>
</a>
</g>
</g>
<!-- 20_0 -->
<!-- pilot02_05_stac_1338577685&#45;&gt;20_0 -->
<!-- pilot02_05_stac_1338587685 -->
<g id="node37" class="node">
<title>pilot02_05_stac_1338587685</title>
<g id="a_node37"><a xlink:title="21 &#160;Cat &#160;okay">
<ellipse fill="black" stroke="black" cx="39" cy="-19.5" rx="3.5" ry="3.5"/>
</a>
</g>
</g>
<!-- pilot02_05_stac_1338577685&#45;&gt;pilot02_05_stac_1338587685 -->
<g id="edge48" class="edge">
<title>pilot02_05_stac_1338577685&#45;&gt;pilot02_05_stac_1338587685</title>
<g id="a_edge48"><a xlink:title="Acknowledgement">
<path fill="none" stroke="#12ffff" d="M39,-40.68C39,-37.58 39,-32.47 39,-28.16"/>
<polygon fill="#12ffff" stroke="#12ffff" points="40.75,-28.06 39,-23.06 37.25,-28.06 40.75,-28.06"/>
</a>
</g>
</g>
<!-- 21_0 -->
<!-- pilot02_05_stac_1338587685&#45;&gt;21_0 -->
<!-- pilot02_05_stac_1338387685 -->
<g id="node39" class="node">
<title>pilot02_05_stac_1338387685</title>
<g id="a_node39"><a xlink:title="1 &#160;Cat &#160;so to move the robber ">
<ellipse fill="black" stroke="black" cx="20" cy="-519.5" rx="3.5" ry="3.5"/>
</a>
</g>
</g>
<!-- pilot02_05_stac_1338387685&#45;&gt;pilot02_05_stac_1338397685 -->
<!-- pilot02_05_stac_1338387686 -->
<g id="node40" class="node">
<title>pilot02_05_stac_1338387686</title>
<g id="a_node40"><a xlink:title="1 &#160;Cat &#160;i need to roll the dice?">
<ellipse fill="black" stroke="black" cx="45" cy="-519.5" rx="3.5" ry="3.5"/>
</a>
</g>
</g>
<!-- pilot02_05_stac_1338387685&#45;&gt;pilot02_05_stac_1338387686 -->
<g id="edge27" class="edge">
<title>pilot02_05_stac_1338387685&#45;&gt;pilot02_05_stac_1338387686</title>
<g id="a_edge27"><a xlink:title="ParallNarrContinuationbackground">
<path fill="none" stroke="#0ab046" d="M23.52,-519.5C27.78,-519.5 32.04,-519.5 36.3,-519.5"/>
<polygon fill="#0ab046" stroke="#0ab046" points="36.31,-521.25 41.31,-519.5 36.31,-517.75 36.31,-521.25"/>
</a>
</g>
</g>
<!-- pilot02_05_stac_1338387686&#45;&gt;pilot02_05_stac_1338397685 -->
<g id="edge28" class="edge">
<title>pilot02_05_stac_1338387686&#45;&gt;pilot02_05_stac_1338397685</title>
<g id="a_edge28"><a xlink:title="Elaboration">
<path fill="none" stroke="#a621c7" d="M42.69,-516.38C38.92,-512.9 31.3,-505.89 25.93,-500.96"/>
<polygon fill="#a621c7" stroke="#a621c7" points="26.95,-499.52 22.09,-497.42 24.58,-502.09 26.95,-499.52"/>
</a>
</g>
</g>
<!-- pilot02_05_stac_1338387686&#45;&gt;pilot02_05_stac_1338417685 -->
<g id="edge30" class="edge">
<title>pilot02_05_stac_1338387686&#45;&gt;pilot02_05_stac_1338417685</title>
<g id="a_edge30"><a xlink:title="Clarification_question">
<path fill="none" stroke="#ff40d1" d="M46.99,-516.31C50.07,-512.78 55.84,-505.45 58,-498 61.97,-484.34 61.97,-479.66 58,-466 56.48,-460.76 53.18,-455.58 50.28,-451.74"/>
<polygon fill="#ff40d1" stroke="#ff40d1" points="51.5,-450.47 46.99,-447.69 48.78,-452.67 51.5,-450.47"/>
</a>
</g>
</g>
<!-- pilot02_05_stac_1338547685&#45;&gt;pilot02_05_stac_1338557685 -->
<!-- pilot02_05_stac_1338547686 -->
<g id="node42" class="node">
<title>pilot02_05_stac_1338547686</title>
<g id="a_node42"><a xlink:title="17 &#160;Thomas &#160;thanks">
<ellipse fill="black" stroke="black" cx="76" cy="-119.5" rx="3.5" ry="3.5"/>
</a>
</g>
</g>
<!-- pilot02_05_stac_1338547685&#45;&gt;pilot02_05_stac_1338547686 -->
<g id="edge44" class="edge">
<title>pilot02_05_stac_1338547685&#45;&gt;pilot02_05_stac_1338547686</title>
<g id="a_edge44"><a xlink:title="Comment">
<path fill="none" stroke="#ff8200" d="M54.52,-119.5C58.78,-119.5 63.04,-119.5 67.3,-119.5"/>
<polygon fill="#ff8200" stroke="#ff8200" points="67.31,-121.25 72.31,-119.5 67.31,-117.75 67.31,-121.25"/>
</a>
</g>
</g>
</g>
</svg>
