<?xml version="1.0" encoding="UTF-8" standalone="no"?>
<!DOCTYPE svg PUBLIC "-//W3C//DTD SVG 1.1//EN"
 "http://www.w3.org/Graphics/SVG/1.1/DTD/svg11.dtd">
<!-- Generated by graphviz version 3.0.0 (20220226.1711)
 -->
<!-- Title: 6_pilot02_58 Pages: 1 -->
<svg width="133pt" height="245pt"
 viewBox="0.00 0.00 133.00 245.00" xmlns="http://www.w3.org/2000/svg" xmlns:xlink="http://www.w3.org/1999/xlink">
<g id="graph0" class="graph" transform="scale(1 1) rotate(0) translate(4 241)">
<title>6_pilot02_58</title>
<polygon fill="white" stroke="transparent" points="-4,4 -4,-241 129,-241 129,4 -4,4"/>
<g id="clust1" class="cluster">
<title>cluster_6_pilot02_58</title>
<polygon fill="none" stroke="black" points="8,-8 8,-229 117,-229 117,-8 8,-8"/>
<text text-anchor="middle" x="23" y="-213.8" font-family="Times,serif" font-size="14.00">58</text>
</g>
<!-- pilot02_06_stac_1338387688 -->
<g id="node1" class="node">
<title>pilot02_06_stac_1338387688</title>
<g id="a_node1"><a xlink:title="1 &#160;Cat &#160;anyone would like to give me an ore?">
<ellipse fill="black" stroke="black" cx="74" cy="-194.5" rx="3.5" ry="3.5"/>
</a>
</g>
</g>
<!-- 1_0 -->
<!-- pilot02_06_stac_1338387688&#45;&gt;1_0 -->
<!-- pilot02_06_stac_1338397688 -->
<g id="node3" class="node">
<title>pilot02_06_stac_1338397688</title>
<g id="a_node3"><a xlink:title="2 &#160;william &#160;cant">
<ellipse fill="black" stroke="black" cx="20" cy="-169.5" rx="3.5" ry="3.5"/>
</a>
</g>
</g>
<!-- pilot02_06_stac_1338387688&#45;&gt;pilot02_06_stac_1338397688 -->
<g id="edge8" class="edge">
<title>pilot02_06_stac_1338387688&#45;&gt;pilot02_06_stac_1338397688</title>
<g id="a_edge8"><a xlink:title="Question_answer_pair">
<path fill="none" stroke="#12ffff" d="M71.1,-192.26C62.97,-188.8 39.77,-178.92 27.63,-173.75"/>
<polygon fill="#12ffff" stroke="#12ffff" points="28.2,-172.09 22.92,-171.74 26.83,-175.31 28.2,-172.09"/>
</a>
</g>
</g>
<!-- pilot02_06_stac_1338407688 -->
<g id="node5" class="node">
<title>pilot02_06_stac_1338407688</title>
<g id="a_node5"><a xlink:title="3 &#160;Thomas &#160;what for?">
<ellipse fill="black" stroke="black" cx="40" cy="-144.5" rx="3.5" ry="3.5"/>
</a>
</g>
</g>
<!-- pilot02_06_stac_1338387688&#45;&gt;pilot02_06_stac_1338407688 -->
<g id="edge9" class="edge">
<title>pilot02_06_stac_1338387688&#45;&gt;pilot02_06_stac_1338407688</title>
<g id="a_edge9"><a xlink:title="Q_Elab">
<path fill="none" stroke="#0d20ff" d="M72.82,-191.12C70.34,-186.24 64.32,-174.79 58,-166 54.26,-160.81 49.46,-155.38 45.75,-151.42"/>
<polygon fill="#0d20ff" stroke="#0d20ff" points="46.98,-150.18 42.26,-147.77 44.45,-152.6 46.98,-150.18"/>
</a>
</g>
</g>
<!-- pilot02_06_stac_1338417688 -->
<g id="node7" class="node">
<title>pilot02_06_stac_1338417688</title>
<g id="a_node7"><a xlink:title="4 &#160;Cat &#160;wood?">
<ellipse fill="black" stroke="black" cx="60" cy="-119.5" rx="3.5" ry="3.5"/>
</a>
</g>
</g>
<!-- pilot02_06_stac_1338387688&#45;&gt;pilot02_06_stac_1338417688 -->
<g id="edge10" class="edge">
<title>pilot02_06_stac_1338387688&#45;&gt;pilot02_06_stac_1338417688</title>
<g id="a_edge10"><a xlink:title="Elaboration">
<path fill="none" stroke="#a621c7" d="M74.92,-190.99C77.61,-183.24 84.83,-159.13 78,-141 75.69,-134.88 70.64,-129.4 66.47,-125.65"/>
<polygon fill="#a621c7" stroke="#a621c7" points="67.43,-124.17 62.47,-122.31 65.19,-126.85 67.43,-124.17"/>
</a>
</g>
</g>
<!-- pilot02_06_stac_1338427688 -->
<g id="node13" class="node">
<title>pilot02_06_stac_1338427688</title>
<g id="a_node13"><a xlink:title="5 &#160;Thomas &#160;no ">
<ellipse fill="black" stroke="black" cx="70" cy="-94.5" rx="3.5" ry="3.5"/>
</a>
</g>
</g>
<!-- pilot02_06_stac_1338387688&#45;&gt;pilot02_06_stac_1338427688 -->
<g id="edge12" class="edge">
<title>pilot02_06_stac_1338387688&#45;&gt;pilot02_06_stac_1338427688</title>
<g id="a_edge12"><a xlink:title="Question_answer_pair">
<path fill="none" stroke="#12ffff" d="M75.91,-191.24C83.71,-181.69 112.14,-143.89 98,-116 93.83,-107.77 84.63,-102.05 77.91,-98.78"/>
<polygon fill="#12ffff" stroke="#12ffff" points="78.29,-97.04 73.01,-96.61 76.88,-100.24 78.29,-97.04"/>
</a>
</g>
</g>
<!-- 2_0 -->
<!-- pilot02_06_stac_1338397688&#45;&gt;2_0 -->
<!-- pilot02_06_stac_1338397688&#45;&gt;pilot02_06_stac_1338407688 -->
<!-- 3_0 -->
<!-- pilot02_06_stac_1338407688&#45;&gt;3_0 -->
<!-- pilot02_06_stac_1338407688&#45;&gt;pilot02_06_stac_1338417688 -->
<g id="edge11" class="edge">
<title>pilot02_06_stac_1338407688&#45;&gt;pilot02_06_stac_1338417688</title>
<g id="a_edge11"><a xlink:title="Question_answer_pair">
<path fill="none" stroke="#12ffff" d="M41.85,-141.38C44.69,-138.11 50.25,-131.71 54.48,-126.85"/>
<polygon fill="#12ffff" stroke="#12ffff" points="55.9,-127.88 57.86,-122.96 53.26,-125.59 55.9,-127.88"/>
</a>
</g>
</g>
<!-- 4_0 -->
<!-- pilot02_06_stac_1338417688&#45;&gt;4_0 -->
<!-- pilot02_06_stac_1338417688&#45;&gt;pilot02_06_stac_1338427688 -->
<g id="edge13" class="edge">
<title>pilot02_06_stac_1338417688&#45;&gt;pilot02_06_stac_1338427688</title>
<g id="a_edge13"><a xlink:title="Question_answer_pair">
<path fill="none" stroke="#12ffff" d="M61.07,-116.04C62.46,-112.84 64.95,-107.12 66.94,-102.53"/>
<polygon fill="#12ffff" stroke="#12ffff" points="68.58,-103.16 68.97,-97.87 65.37,-101.76 68.58,-103.16"/>
</a>
</g>
</g>
<!-- pilot02_06_stac_1338457688 -->
<g id="node9" class="node">
<title>pilot02_06_stac_1338457688</title>
<g id="a_node9"><a xlink:title="6 &#160;william &#160;well?">
<ellipse fill="black" stroke="black" cx="70" cy="-69.5" rx="3.5" ry="3.5"/>
</a>
</g>
</g>
<!-- 6_0 -->
<!-- pilot02_06_stac_1338457688&#45;&gt;6_0 -->
<!-- pilot02_06_stac_1338517688 -->
<g id="node15" class="node">
<title>pilot02_06_stac_1338517688</title>
<g id="a_node15"><a xlink:title="7 &#160;Cat &#160;anyone can give me ore? ">
<ellipse fill="black" stroke="black" cx="70" cy="-44.5" rx="3.5" ry="3.5"/>
</a>
</g>
</g>
<!-- pilot02_06_stac_1338457688&#45;&gt;pilot02_06_stac_1338517688 -->
<g id="edge16" class="edge">
<title>pilot02_06_stac_1338457688&#45;&gt;pilot02_06_stac_1338517688</title>
<g id="a_edge16"><a xlink:title="ParallNarrContinuationbackground">
<path fill="none" stroke="#0ab046" d="M70,-65.68C70,-62.58 70,-57.47 70,-53.16"/>
<polygon fill="#0ab046" stroke="#0ab046" points="71.75,-53.06 70,-48.06 68.25,-53.06 71.75,-53.06"/>
</a>
</g>
</g>
<!-- pilot02_06_stac_1338527688 -->
<g id="node11" class="node">
<title>pilot02_06_stac_1338527688</title>
<g id="a_node11"><a xlink:title="8 &#160;Thomas &#160;no">
<ellipse fill="black" stroke="black" cx="70" cy="-19.5" rx="3.5" ry="3.5"/>
</a>
</g>
</g>
<!-- 8_0 -->
<!-- pilot02_06_stac_1338527688&#45;&gt;8_0 -->
<!-- pilot02_06_stac_1338427688&#45;&gt;pilot02_06_stac_1338457688 -->
<g id="edge15" class="edge">
<title>pilot02_06_stac_1338427688&#45;&gt;pilot02_06_stac_1338457688</title>
<g id="a_edge15"><a xlink:title="Clarification_question">
<path fill="none" stroke="#ff40d1" d="M70,-90.68C70,-87.58 70,-82.47 70,-78.16"/>
<polygon fill="#ff40d1" stroke="#ff40d1" points="71.75,-78.06 70,-73.06 68.25,-78.06 71.75,-78.06"/>
</a>
</g>
</g>
<!-- pilot02_06_stac_1338427689 -->
<g id="node14" class="node">
<title>pilot02_06_stac_1338427689</title>
<g id="a_node14"><a xlink:title="5 &#160;Thomas &#160;thanks">
<ellipse fill="black" stroke="black" cx="95" cy="-94.5" rx="3.5" ry="3.5"/>
</a>
</g>
</g>
<!-- pilot02_06_stac_1338427688&#45;&gt;pilot02_06_stac_1338427689 -->
<g id="edge14" class="edge">
<title>pilot02_06_stac_1338427688&#45;&gt;pilot02_06_stac_1338427689</title>
<g id="a_edge14"><a xlink:title="Comment">
<path fill="none" stroke="#ff8200" d="M73.52,-94.5C77.78,-94.5 82.04,-94.5 86.3,-94.5"/>
<polygon fill="#ff8200" stroke="#ff8200" points="86.31,-96.25 91.31,-94.5 86.31,-92.75 86.31,-96.25"/>
</a>
</g>
</g>
<!-- pilot02_06_stac_1338517688&#45;&gt;pilot02_06_stac_1338527688 -->
<g id="edge18" class="edge">
<title>pilot02_06_stac_1338517688&#45;&gt;pilot02_06_stac_1338527688</title>
<g id="a_edge18"><a xlink:title="Question_answer_pair">
<path fill="none" stroke="#12ffff" d="M70,-40.68C70,-37.58 70,-32.47 70,-28.16"/>
<polygon fill="#12ffff" stroke="#12ffff" points="71.75,-28.06 70,-23.06 68.25,-28.06 71.75,-28.06"/>
</a>
</g>
</g>
<!-- pilot02_06_stac_1338517689 -->
<g id="node16" class="node">
<title>pilot02_06_stac_1338517689</title>
<g id="a_node16"><a xlink:title="7 &#160;Cat &#160;(for wood)">
<ellipse fill="black" stroke="black" cx="95" cy="-44.5" rx="3.5" ry="3.5"/>
</a>
</g>
</g>
<!-- pilot02_06_stac_1338517688&#45;&gt;pilot02_06_stac_1338517689 -->
<g id="edge17" class="edge">
<title>pilot02_06_stac_1338517688&#45;&gt;pilot02_06_stac_1338517689</title>
<g id="a_edge17"><a xlink:title="Elaboration">
<path fill="none" stroke="#a621c7" d="M73.52,-44.5C77.78,-44.5 82.04,-44.5 86.3,-44.5"/>
<polygon fill="#a621c7" stroke="#a621c7" points="86.31,-46.25 91.31,-44.5 86.31,-42.75 86.31,-46.25"/>
</a>
</g>
</g>
</g>
</svg>
