<?xml version="1.0" encoding="UTF-8" standalone="no"?>
<!DOCTYPE svg PUBLIC "-//W3C//DTD SVG 1.1//EN"
 "http://www.w3.org/Graphics/SVG/1.1/DTD/svg11.dtd">
<!-- Generated by graphviz version 3.0.0 (20220226.1711)
 -->
<!-- Title: 6_pilot02_59 Pages: 1 -->
<svg width="178pt" height="672pt"
 viewBox="0.00 0.00 178.00 672.19" xmlns="http://www.w3.org/2000/svg" xmlns:xlink="http://www.w3.org/1999/xlink">
<g id="graph0" class="graph" transform="scale(1 1) rotate(0) translate(4 668.19)">
<title>6_pilot02_59</title>
<polygon fill="white" stroke="transparent" points="-4,4 -4,-668.19 174,-668.19 174,4 -4,4"/>
<g id="clust1" class="cluster">
<title>cluster_6_pilot02_59</title>
<polygon fill="none" stroke="black" points="8,-8 8,-654 162,-654 162,-8 8,-8"/>
<text text-anchor="middle" x="23" y="-638.8" font-family="Times,serif" font-size="14.00">59</text>
</g>
<!-- pilot02_06_stac_1338597688 -->
<g id="node1" class="node">
<title>pilot02_06_stac_1338597688</title>
<g id="a_node1"><a xlink:title="1 &#160;Cat &#160;where do i see what i rolled?">
<ellipse fill="black" stroke="black" cx="32" cy="-619.5" rx="3.5" ry="3.5"/>
</a>
</g>
</g>
<!-- 1_0 -->
<!-- pilot02_06_stac_1338597688&#45;&gt;1_0 -->
<!-- 1_1 -->
<!-- pilot02_06_stac_1338597688&#45;&gt;1_1 -->
<!-- pilot02_06_stac_1338607688 -->
<g id="node4" class="node">
<title>pilot02_06_stac_1338607688</title>
<g id="a_node4"><a xlink:title="2 &#160;william &#160;on the arrow">
<ellipse fill="black" stroke="black" cx="32" cy="-594.5" rx="3.5" ry="3.5"/>
</a>
</g>
</g>
<!-- pilot02_06_stac_1338597688&#45;&gt;pilot02_06_stac_1338607688 -->
<g id="edge57" class="edge">
<title>pilot02_06_stac_1338597688&#45;&gt;pilot02_06_stac_1338607688</title>
<g id="a_edge57"><a xlink:title="Question_answer_pair">
<path fill="none" stroke="#12ffff" d="M32,-615.68C32,-612.58 32,-607.47 32,-603.16"/>
<polygon fill="#12ffff" stroke="#12ffff" points="33.75,-603.06 32,-598.06 30.25,-603.06 33.75,-603.06"/>
</a>
</g>
</g>
<!-- 2_0 -->
<!-- pilot02_06_stac_1338607688&#45;&gt;2_0 -->
<!-- 2_1 -->
<!-- pilot02_06_stac_1338607688&#45;&gt;2_1 -->
<!-- pilot02_06_stac_1338617688 -->
<g id="node67" class="node">
<title>pilot02_06_stac_1338617688</title>
<g id="a_node67"><a xlink:title="3 &#160;Cat &#160;ok, ">
<ellipse fill="black" stroke="black" cx="32" cy="-569.5" rx="3.5" ry="3.5"/>
</a>
</g>
</g>
<!-- pilot02_06_stac_1338607688&#45;&gt;pilot02_06_stac_1338617688 -->
<g id="edge58" class="edge">
<title>pilot02_06_stac_1338607688&#45;&gt;pilot02_06_stac_1338617688</title>
<g id="a_edge58"><a xlink:title="Acknowledgement">
<path fill="none" stroke="#12ffff" d="M32,-590.68C32,-587.58 32,-582.47 32,-578.16"/>
<polygon fill="#12ffff" stroke="#12ffff" points="33.75,-578.06 32,-573.06 30.25,-578.06 33.75,-578.06"/>
</a>
</g>
</g>
<!-- pilot02_06_stac_1338627688 -->
<g id="node7" class="node">
<title>pilot02_06_stac_1338627688</title>
<g id="a_node7"><a xlink:title="4 &#160;Cat &#160;and can i do other things depending on the numbers?">
<ellipse fill="black" stroke="black" cx="59" cy="-544.5" rx="3.5" ry="3.5"/>
</a>
</g>
</g>
<!-- 4_0 -->
<!-- pilot02_06_stac_1338627688&#45;&gt;4_0 -->
<!-- 4_1 -->
<!-- pilot02_06_stac_1338627688&#45;&gt;4_1 -->
<!-- pilot02_06_stac_1338637688 -->
<g id="node10" class="node">
<title>pilot02_06_stac_1338637688</title>
<g id="a_node10"><a xlink:title="5 &#160;william &#160;yup">
<ellipse fill="black" stroke="black" cx="64" cy="-519.5" rx="3.5" ry="3.5"/>
</a>
</g>
</g>
<!-- pilot02_06_stac_1338627688&#45;&gt;pilot02_06_stac_1338637688 -->
<!-- 5_0 -->
<!-- pilot02_06_stac_1338637688&#45;&gt;5_0 -->
<!-- 5_1 -->
<!-- pilot02_06_stac_1338637688&#45;&gt;5_1 -->
<!-- pilot02_06_stac_1338647688 -->
<g id="node70" class="node">
<title>pilot02_06_stac_1338647688</title>
<g id="a_node70"><a xlink:title="6 &#160;Cat &#160;ooops, ">
<ellipse fill="black" stroke="black" cx="64" cy="-494.5" rx="3.5" ry="3.5"/>
</a>
</g>
</g>
<!-- pilot02_06_stac_1338637688&#45;&gt;pilot02_06_stac_1338647688 -->
<g id="edge63" class="edge">
<title>pilot02_06_stac_1338637688&#45;&gt;pilot02_06_stac_1338647688</title>
<g id="a_edge63"><a xlink:title="Comment">
<path fill="none" stroke="#ff8200" d="M64,-515.68C64,-512.58 64,-507.47 64,-503.16"/>
<polygon fill="#ff8200" stroke="#ff8200" points="65.75,-503.06 64,-498.06 62.25,-503.06 65.75,-503.06"/>
</a>
</g>
</g>
<!-- pilot02_06_stac_1338647689 -->
<g id="node13" class="node">
<title>pilot02_06_stac_1338647689</title>
<g id="a_node13"><a xlink:title="6 &#160;Cat &#160;I didn&#39;t know">
<ellipse fill="black" stroke="black" cx="89" cy="-494.5" rx="3.5" ry="3.5"/>
</a>
</g>
</g>
<!-- 6_0 -->
<!-- pilot02_06_stac_1338647689&#45;&gt;6_0 -->
<!-- pilot02_06_stac_1338657688 -->
<g id="node71" class="node">
<title>pilot02_06_stac_1338657688</title>
<g id="a_node71"><a xlink:title="7 &#160;Cat &#160;sorry, ">
<ellipse fill="black" stroke="black" cx="66" cy="-469.5" rx="3.5" ry="3.5"/>
</a>
</g>
</g>
<!-- pilot02_06_stac_1338647689&#45;&gt;pilot02_06_stac_1338657688 -->
<g id="edge65" class="edge">
<title>pilot02_06_stac_1338647689&#45;&gt;pilot02_06_stac_1338657688</title>
<g id="a_edge65"><a xlink:title="Comment">
<path fill="none" stroke="#ff8200" d="M86.88,-491.38C83.54,-488.04 76.95,-481.45 72.06,-476.56"/>
<polygon fill="#ff8200" stroke="#ff8200" points="73.23,-475.26 68.46,-472.96 70.76,-477.73 73.23,-475.26"/>
</a>
</g>
</g>
<!-- pilot02_06_stac_1338657689 -->
<g id="node15" class="node">
<title>pilot02_06_stac_1338657689</title>
<g id="a_node15"><a xlink:title="7 &#160;Cat &#160;which things?">
<ellipse fill="black" stroke="black" cx="91" cy="-469.5" rx="3.5" ry="3.5"/>
</a>
</g>
</g>
<!-- 7_0 -->
<!-- pilot02_06_stac_1338657689&#45;&gt;7_0 -->
<!-- pilot02_06_stac_1338667688 -->
<g id="node17" class="node">
<title>pilot02_06_stac_1338667688</title>
<g id="a_node17"><a xlink:title="8 &#160;william &#160;no every other number just produces ressources">
<ellipse fill="black" stroke="black" cx="67" cy="-444.5" rx="3.5" ry="3.5"/>
</a>
</g>
</g>
<!-- pilot02_06_stac_1338657689&#45;&gt;pilot02_06_stac_1338667688 -->
<g id="edge67" class="edge">
<title>pilot02_06_stac_1338657689&#45;&gt;pilot02_06_stac_1338667688</title>
<g id="a_edge67"><a xlink:title="Question_answer_pair">
<path fill="none" stroke="#12ffff" d="M88.79,-466.38C85.16,-462.9 77.84,-455.89 72.69,-450.96"/>
<polygon fill="#12ffff" stroke="#12ffff" points="73.83,-449.62 69,-447.42 71.4,-452.14 73.83,-449.62"/>
</a>
</g>
</g>
<!-- 8_0 -->
<!-- pilot02_06_stac_1338667688&#45;&gt;8_0 -->
<!-- 8_1 -->
<!-- pilot02_06_stac_1338667688&#45;&gt;8_1 -->
<!-- pilot02_06_stac_1338677688 -->
<g id="node20" class="node">
<title>pilot02_06_stac_1338677688</title>
<g id="a_node20"><a xlink:title="9 &#160;Thomas &#160;robber is the only exception">
<ellipse fill="black" stroke="black" cx="56" cy="-419.5" rx="3.5" ry="3.5"/>
</a>
</g>
</g>
<!-- pilot02_06_stac_1338667688&#45;&gt;pilot02_06_stac_1338677688 -->
<g id="edge68" class="edge">
<title>pilot02_06_stac_1338667688&#45;&gt;pilot02_06_stac_1338677688</title>
<g id="a_edge68"><a xlink:title="ParallNarrContinuationbackground">
<path fill="none" stroke="#0ab046" d="M65.82,-441.04C64.29,-437.84 61.56,-432.12 59.36,-427.53"/>
<polygon fill="#0ab046" stroke="#0ab046" points="60.87,-426.63 57.14,-422.87 57.71,-428.14 60.87,-426.63"/>
</a>
</g>
</g>
<!-- pilot02_06_stac_1338687688 -->
<g id="node72" class="node">
<title>pilot02_06_stac_1338687688</title>
<g id="a_node72"><a xlink:title="10 &#160;Cat &#160;ok, ">
<ellipse fill="black" stroke="black" cx="57" cy="-394.5" rx="3.5" ry="3.5"/>
</a>
</g>
</g>
<!-- pilot02_06_stac_1338667688&#45;&gt;pilot02_06_stac_1338687688 -->
<g id="edge69" class="edge">
<title>pilot02_06_stac_1338667688&#45;&gt;pilot02_06_stac_1338687688</title>
<g id="a_edge69"><a xlink:title="Acknowledgement">
<path fill="none" stroke="#12ffff" d="M67.76,-440.87C69.08,-435.9 71.41,-424.87 69,-416 67.6,-410.85 64.55,-405.67 61.88,-401.81"/>
<polygon fill="#12ffff" stroke="#12ffff" points="63.23,-400.69 58.84,-397.71 60.42,-402.77 63.23,-400.69"/>
</a>
</g>
</g>
<!-- 9_0 -->
<!-- pilot02_06_stac_1338677688&#45;&gt;9_0 -->
<!-- 9_1 -->
<!-- pilot02_06_stac_1338677688&#45;&gt;9_1 -->
<!-- pilot02_06_stac_1338677688&#45;&gt;pilot02_06_stac_1338687688 -->
<!-- pilot02_06_stac_1338687689 -->
<g id="node23" class="node">
<title>pilot02_06_stac_1338687689</title>
<g id="a_node23"><a xlink:title="10 &#160;Cat &#160;so i don&#39;t need to play special actions">
<ellipse fill="black" stroke="black" cx="82" cy="-394.5" rx="3.5" ry="3.5"/>
</a>
</g>
</g>
<!-- 10_0 -->
<!-- pilot02_06_stac_1338687689&#45;&gt;10_0 -->
<!-- pilot02_06_stac_1338697688 -->
<g id="node25" class="node">
<title>pilot02_06_stac_1338697688</title>
<g id="a_node25"><a xlink:title="11 &#160;Cat &#160;anyone would like to receive a wood for an ore?">
<ellipse fill="black" stroke="black" cx="57" cy="-369.5" rx="3.5" ry="3.5"/>
</a>
</g>
</g>
<!-- pilot02_06_stac_1338687689&#45;&gt;pilot02_06_stac_1338697688 -->
<g id="edge71" class="edge">
<title>pilot02_06_stac_1338687689&#45;&gt;pilot02_06_stac_1338697688</title>
<g id="a_edge71"><a xlink:title="ExplanationResult">
<path fill="none" stroke="#a62139" d="M79.69,-391.38C75.92,-387.9 68.3,-380.89 62.93,-375.96"/>
<polygon fill="#a62139" stroke="#a62139" points="63.95,-374.52 59.09,-372.42 61.58,-377.09 63.95,-374.52"/>
</a>
</g>
</g>
<!-- 11_0 -->
<!-- pilot02_06_stac_1338697688&#45;&gt;11_0 -->
<!-- 11_1 -->
<!-- pilot02_06_stac_1338697688&#45;&gt;11_1 -->
<!-- pilot02_06_stac_1338717688 -->
<g id="node30" class="node">
<title>pilot02_06_stac_1338717688</title>
<g id="a_node30"><a xlink:title="13 &#160;william &#160;no">
<ellipse fill="black" stroke="black" cx="79" cy="-319.5" rx="3.5" ry="3.5"/>
</a>
</g>
</g>
<!-- pilot02_06_stac_1338697688&#45;&gt;pilot02_06_stac_1338717688 -->
<g id="edge74" class="edge">
<title>pilot02_06_stac_1338697688&#45;&gt;pilot02_06_stac_1338717688</title>
<g id="a_edge74"><a xlink:title="Question_answer_pair">
<path fill="none" stroke="#12ffff" d="M57.94,-365.88C59.73,-360.94 63.83,-349.95 68,-341 70.16,-336.37 72.87,-331.31 75.06,-327.38"/>
<polygon fill="#12ffff" stroke="#12ffff" points="76.68,-328.07 77.62,-322.85 73.64,-326.34 76.68,-328.07"/>
</a>
</g>
</g>
<!-- pilot02_06_stac_1338727688 -->
<g id="node33" class="node">
<title>pilot02_06_stac_1338727688</title>
<g id="a_node33"><a xlink:title="14 &#160;Thomas &#160;yes please">
<ellipse fill="black" stroke="black" cx="100" cy="-294.5" rx="3.5" ry="3.5"/>
</a>
</g>
</g>
<!-- pilot02_06_stac_1338697688&#45;&gt;pilot02_06_stac_1338727688 -->
<g id="edge75" class="edge">
<title>pilot02_06_stac_1338697688&#45;&gt;pilot02_06_stac_1338727688</title>
<g id="a_edge75"><a xlink:title="Question_answer_pair">
<path fill="none" stroke="#12ffff" d="M60.16,-367.86C75.35,-364.77 140.31,-351.4 143,-348 146.89,-343.07 154.44,-335.06 142,-316 134.44,-304.41 118.31,-299.17 108.39,-296.95"/>
<polygon fill="#12ffff" stroke="#12ffff" points="108.62,-295.22 103.37,-295.98 107.95,-298.65 108.62,-295.22"/>
</a>
</g>
</g>
<!-- pilot02_06_stac_1338787688 -->
<g id="node42" class="node">
<title>pilot02_06_stac_1338787688</title>
<g id="a_node42"><a xlink:title="17 &#160;Thomas &#160;none here either">
<ellipse fill="black" stroke="black" cx="50" cy="-219.5" rx="3.5" ry="3.5"/>
</a>
</g>
</g>
<!-- pilot02_06_stac_1338697688&#45;&gt;pilot02_06_stac_1338787688 -->
<g id="edge78" class="edge">
<title>pilot02_06_stac_1338697688&#45;&gt;pilot02_06_stac_1338787688</title>
<g id="a_edge78"><a xlink:title="Question_answer_pair">
<path fill="none" stroke="#12ffff" d="M55.15,-366.05C50.2,-359.23 37,-339.28 37,-320.5 37,-320.5 37,-320.5 37,-268.5 37,-253.63 42.89,-237.04 46.74,-227.78"/>
<polygon fill="#12ffff" stroke="#12ffff" points="48.41,-228.32 48.8,-223.04 45.2,-226.92 48.41,-228.32"/>
</a>
</g>
</g>
<!-- pilot02_06_stac_1338797688 -->
<g id="node45" class="node">
<title>pilot02_06_stac_1338797688</title>
<g id="a_node45"><a xlink:title="18 &#160;Cat &#160;anyone wants wood?">
<ellipse fill="black" stroke="black" cx="45" cy="-194.5" rx="3.5" ry="3.5"/>
</a>
</g>
</g>
<!-- pilot02_06_stac_1338697688&#45;&gt;pilot02_06_stac_1338797688 -->
<g id="edge81" class="edge">
<title>pilot02_06_stac_1338697688&#45;&gt;pilot02_06_stac_1338797688</title>
<g id="a_edge81"><a xlink:title="ParallNarrContinuationbackground">
<path fill="none" stroke="#0ab046" d="M54.38,-367.07C45.48,-361.99 17,-343.93 17,-320.5 17,-320.5 17,-320.5 17,-243.5 17,-226.24 30.67,-209.67 38.91,-201.25"/>
<polygon fill="#0ab046" stroke="#0ab046" points="40.44,-202.2 42.8,-197.45 38,-199.69 40.44,-202.2"/>
</a>
</g>
</g>
<!-- pilot02_06_nasher_1398873420898 -->
<g id="node73" class="node">
<title>pilot02_06_nasher_1398873420898</title>
<g id="a_node73"><a xlink:title="12 &#160;william &#160;no,">
<ellipse fill="black" stroke="black" cx="80" cy="-344.5" rx="3.5" ry="3.5"/>
</a>
</g>
</g>
<!-- pilot02_06_stac_1338697688&#45;&gt;pilot02_06_nasher_1398873420898 -->
<g id="edge72" class="edge">
<title>pilot02_06_stac_1338697688&#45;&gt;pilot02_06_nasher_1398873420898</title>
<g id="a_edge72"><a xlink:title="Question_answer_pair">
<path fill="none" stroke="#12ffff" d="M59.12,-366.38C62.46,-363.04 69.05,-356.45 73.94,-351.56"/>
<polygon fill="#12ffff" stroke="#12ffff" points="75.24,-352.73 77.54,-347.96 72.77,-350.26 75.24,-352.73"/>
</a>
</g>
</g>
<!-- pilot02_06_nasher_1398873428780 -->
<g id="node28" class="node">
<title>pilot02_06_nasher_1398873428780</title>
<g id="a_node28"><a xlink:title="12 &#160;william &#160;dev. &#160;cards are the only other special action">
<ellipse fill="black" stroke="black" cx="105" cy="-344.5" rx="3.5" ry="3.5"/>
</a>
</g>
</g>
<!-- 12_0 -->
<!-- pilot02_06_nasher_1398873428780&#45;&gt;12_0 -->
<!-- 13_0 -->
<!-- pilot02_06_stac_1338717688&#45;&gt;13_0 -->
<!-- 13_1 -->
<!-- pilot02_06_stac_1338717688&#45;&gt;13_1 -->
<!-- pilot02_06_stac_1338717688&#45;&gt;pilot02_06_stac_1338727688 -->
<!-- pilot02_06_stac_1338737688 -->
<g id="node36" class="node">
<title>pilot02_06_stac_1338737688</title>
<g id="a_node36"><a xlink:title="15 &#160;william &#160;i will take anyone&#39;s sheep though">
<ellipse fill="black" stroke="black" cx="80" cy="-269.5" rx="3.5" ry="3.5"/>
</a>
</g>
</g>
<!-- pilot02_06_stac_1338717688&#45;&gt;pilot02_06_stac_1338737688 -->
<g id="edge76" class="edge">
<title>pilot02_06_stac_1338717688&#45;&gt;pilot02_06_stac_1338737688</title>
<g id="a_edge76"><a xlink:title="ContrastCorrection">
<path fill="none" stroke="#ff7ecf" d="M79.05,-315.92C79.2,-308.95 79.6,-289.55 79.83,-278.49"/>
<polygon fill="#ff7ecf" stroke="#ff7ecf" points="81.59,-278.37 79.94,-273.33 78.09,-278.29 81.59,-278.37"/>
</a>
</g>
</g>
<!-- 14_0 -->
<!-- pilot02_06_stac_1338727688&#45;&gt;14_0 -->
<!-- 14_1 -->
<!-- pilot02_06_stac_1338727688&#45;&gt;14_1 -->
<!-- pilot02_06_stac_1338727688&#45;&gt;pilot02_06_stac_1338737688 -->
<!-- 15_0 -->
<!-- pilot02_06_stac_1338737688&#45;&gt;15_0 -->
<!-- 15_1 -->
<!-- pilot02_06_stac_1338737688&#45;&gt;15_1 -->
<!-- pilot02_06_stac_1338777688 -->
<g id="node39" class="node">
<title>pilot02_06_stac_1338777688</title>
<g id="a_node39"><a xlink:title="16 &#160;Cat &#160;don&#39;t have a sheep">
<ellipse fill="black" stroke="black" cx="60" cy="-244.5" rx="3.5" ry="3.5"/>
</a>
</g>
</g>
<!-- pilot02_06_stac_1338737688&#45;&gt;pilot02_06_stac_1338777688 -->
<g id="edge77" class="edge">
<title>pilot02_06_stac_1338737688&#45;&gt;pilot02_06_stac_1338777688</title>
<g id="a_edge77"><a xlink:title="ContrastCorrection">
<path fill="none" stroke="#ff7ecf" d="M78.15,-266.38C75.31,-263.11 69.75,-256.71 65.52,-251.85"/>
<polygon fill="#ff7ecf" stroke="#ff7ecf" points="66.74,-250.59 62.14,-247.96 64.1,-252.88 66.74,-250.59"/>
</a>
</g>
</g>
<!-- pilot02_06_stac_1338737688&#45;&gt;pilot02_06_stac_1338787688 -->
<g id="edge79" class="edge">
<title>pilot02_06_stac_1338737688&#45;&gt;pilot02_06_stac_1338787688</title>
<g id="a_edge79"><a xlink:title="ParallNarrContinuationbackground">
<path fill="none" stroke="#0ab046" d="M79.83,-265.72C79.39,-260.51 77.91,-249.08 73,-241 69,-234.42 62.22,-228.75 57.06,-225.06"/>
<polygon fill="#0ab046" stroke="#0ab046" points="57.72,-223.39 52.59,-222.06 55.77,-226.3 57.72,-223.39"/>
</a>
</g>
</g>
<!-- 16_0 -->
<!-- pilot02_06_stac_1338777688&#45;&gt;16_0 -->
<!-- 16_1 -->
<!-- pilot02_06_stac_1338777688&#45;&gt;16_1 -->
<!-- pilot02_06_stac_1338777688&#45;&gt;pilot02_06_stac_1338787688 -->
<g id="edge80" class="edge">
<title>pilot02_06_stac_1338777688&#45;&gt;pilot02_06_stac_1338787688</title>
<g id="a_edge80"><a xlink:title="ParallNarrContinuationbackground">
<path fill="none" stroke="#0ab046" d="M58.93,-241.04C57.54,-237.84 55.05,-232.12 53.06,-227.53"/>
<polygon fill="#0ab046" stroke="#0ab046" points="54.63,-226.76 51.03,-222.87 51.42,-228.16 54.63,-226.76"/>
</a>
</g>
</g>
<!-- 17_0 -->
<!-- pilot02_06_stac_1338787688&#45;&gt;17_0 -->
<!-- 17_1 -->
<!-- pilot02_06_stac_1338787688&#45;&gt;17_1 -->
<!-- pilot02_06_stac_1338787688&#45;&gt;pilot02_06_stac_1338797688 -->
<!-- 18_0 -->
<!-- pilot02_06_stac_1338797688&#45;&gt;18_0 -->
<!-- 18_1 -->
<!-- pilot02_06_stac_1338797688&#45;&gt;18_1 -->
<!-- pilot02_06_stac_1338807688 -->
<g id="node48" class="node">
<title>pilot02_06_stac_1338807688</title>
<g id="a_node48"><a xlink:title="19 &#160;Thomas &#160;n">
<ellipse fill="black" stroke="black" cx="45" cy="-169.5" rx="3.5" ry="3.5"/>
</a>
</g>
</g>
<!-- pilot02_06_stac_1338797688&#45;&gt;pilot02_06_stac_1338807688 -->
<g id="edge82" class="edge">
<title>pilot02_06_stac_1338797688&#45;&gt;pilot02_06_stac_1338807688</title>
<g id="a_edge82"><a xlink:title="Question_answer_pair">
<path fill="none" stroke="#12ffff" d="M45,-190.68C45,-187.58 45,-182.47 45,-178.16"/>
<polygon fill="#12ffff" stroke="#12ffff" points="46.75,-178.06 45,-173.06 43.25,-178.06 46.75,-178.06"/>
</a>
</g>
</g>
<!-- pilot02_06_stac_1338817688 -->
<g id="node51" class="node">
<title>pilot02_06_stac_1338817688</title>
<g id="a_node51"><a xlink:title="20 &#160;william &#160;2 wood?">
<ellipse fill="black" stroke="black" cx="45" cy="-144.5" rx="3.5" ry="3.5"/>
</a>
</g>
</g>
<!-- pilot02_06_stac_1338797688&#45;&gt;pilot02_06_stac_1338817688 -->
<g id="edge83" class="edge">
<title>pilot02_06_stac_1338797688&#45;&gt;pilot02_06_stac_1338817688</title>
<g id="a_edge83"><a xlink:title="Q_Elab">
<path fill="none" stroke="#0d20ff" d="M42.63,-191.01C38.44,-186.3 30.38,-175.65 33,-166 34.4,-160.85 37.45,-155.67 40.12,-151.81"/>
<polygon fill="#0d20ff" stroke="#0d20ff" points="41.58,-152.77 43.16,-147.71 38.77,-150.69 41.58,-152.77"/>
</a>
</g>
</g>
<!-- pilot02_06_stac_1338837688 -->
<g id="node57" class="node">
<title>pilot02_06_stac_1338837688</title>
<g id="a_node57"><a xlink:title="22 &#160;william &#160;hmm, no sorry">
<ellipse fill="black" stroke="black" cx="68" cy="-94.5" rx="3.5" ry="3.5"/>
</a>
</g>
</g>
<!-- pilot02_06_stac_1338797688&#45;&gt;pilot02_06_stac_1338837688 -->
<g id="edge85" class="edge">
<title>pilot02_06_stac_1338797688&#45;&gt;pilot02_06_stac_1338837688</title>
<g id="a_edge85"><a xlink:title="Question_answer_pair">
<path fill="none" stroke="#12ffff" d="M48.17,-192.7C60.43,-189.58 104.28,-178.12 108,-173 122.89,-152.5 121.21,-137.62 108,-116 101.13,-104.75 85.9,-99.42 76.35,-97.1"/>
<polygon fill="#12ffff" stroke="#12ffff" points="76.51,-95.34 71.25,-96.01 75.78,-98.77 76.51,-95.34"/>
</a>
</g>
</g>
<!-- 19_0 -->
<!-- pilot02_06_stac_1338807688&#45;&gt;19_0 -->
<!-- 19_1 -->
<!-- pilot02_06_stac_1338807688&#45;&gt;19_1 -->
<!-- pilot02_06_stac_1338807688&#45;&gt;pilot02_06_stac_1338817688 -->
<!-- 20_0 -->
<!-- pilot02_06_stac_1338817688&#45;&gt;20_0 -->
<!-- 20_1 -->
<!-- pilot02_06_stac_1338817688&#45;&gt;20_1 -->
<!-- pilot02_06_stac_1338827688 -->
<g id="node54" class="node">
<title>pilot02_06_stac_1338827688</title>
<g id="a_node54"><a xlink:title="21 &#160;Cat &#160;one wood for clay">
<ellipse fill="black" stroke="black" cx="45" cy="-119.5" rx="3.5" ry="3.5"/>
</a>
</g>
</g>
<!-- pilot02_06_stac_1338817688&#45;&gt;pilot02_06_stac_1338827688 -->
<g id="edge84" class="edge">
<title>pilot02_06_stac_1338817688&#45;&gt;pilot02_06_stac_1338827688</title>
<g id="a_edge84"><a xlink:title="Question_answer_pair">
<path fill="none" stroke="#12ffff" d="M45,-140.68C45,-137.58 45,-132.47 45,-128.16"/>
<polygon fill="#12ffff" stroke="#12ffff" points="46.75,-128.06 45,-123.06 43.25,-128.06 46.75,-128.06"/>
</a>
</g>
</g>
<!-- 21_0 -->
<!-- pilot02_06_stac_1338827688&#45;&gt;21_0 -->
<!-- 21_1 -->
<!-- pilot02_06_stac_1338827688&#45;&gt;21_1 -->
<!-- pilot02_06_stac_1338827688&#45;&gt;pilot02_06_stac_1338837688 -->
<!-- pilot02_06_stac_1338847688 -->
<g id="node60" class="node">
<title>pilot02_06_stac_1338847688</title>
<g id="a_node60"><a xlink:title="23 &#160;Cat &#160;or ore">
<ellipse fill="black" stroke="black" cx="45" cy="-69.5" rx="3.5" ry="3.5"/>
</a>
</g>
</g>
<!-- pilot02_06_stac_1338827688&#45;&gt;pilot02_06_stac_1338847688 -->
<g id="edge86" class="edge">
<title>pilot02_06_stac_1338827688&#45;&gt;pilot02_06_stac_1338847688</title>
<g id="a_edge86"><a xlink:title="Alternation">
<path fill="none" stroke="#10495e" d="M45,-115.92C45,-108.95 45,-89.55 45,-78.49"/>
<polygon fill="#10495e" stroke="#10495e" points="46.75,-78.33 45,-73.33 43.25,-78.33 46.75,-78.33"/>
</a>
</g>
</g>
<!-- 22_0 -->
<!-- pilot02_06_stac_1338837688&#45;&gt;22_0 -->
<!-- 22_1 -->
<!-- pilot02_06_stac_1338837688&#45;&gt;22_1 -->
<!-- pilot02_06_stac_1338837688&#45;&gt;pilot02_06_stac_1338847688 -->
<!-- pilot02_06_stac_1338857688 -->
<g id="node74" class="node">
<title>pilot02_06_stac_1338857688</title>
<g id="a_node74"><a xlink:title="24 &#160;william &#160;i will only take two wood, ">
<ellipse fill="black" stroke="black" cx="56" cy="-44.5" rx="3.5" ry="3.5"/>
</a>
</g>
</g>
<!-- pilot02_06_stac_1338837688&#45;&gt;pilot02_06_stac_1338857688 -->
<g id="edge87" class="edge">
<title>pilot02_06_stac_1338837688&#45;&gt;pilot02_06_stac_1338857688</title>
<g id="a_edge87"><a xlink:title="Elaboration">
<path fill="none" stroke="#a621c7" d="M67.35,-90.92C65.61,-83.95 60.76,-64.55 58,-53.49"/>
<polygon fill="#a621c7" stroke="#a621c7" points="59.62,-52.76 56.71,-48.33 56.22,-53.61 59.62,-52.76"/>
</a>
</g>
</g>
<!-- 23_0 -->
<!-- pilot02_06_stac_1338847688&#45;&gt;23_0 -->
<!-- 23_1 -->
<!-- pilot02_06_stac_1338847688&#45;&gt;23_1 -->
<!-- pilot02_06_stac_1338847688&#45;&gt;pilot02_06_stac_1338857688 -->
<!-- pilot02_06_stac_1338857689 -->
<g id="node63" class="node">
<title>pilot02_06_stac_1338857689</title>
<g id="a_node63"><a xlink:title="24 &#160;william &#160;and give 1 ore">
<ellipse fill="black" stroke="black" cx="81" cy="-44.5" rx="3.5" ry="3.5"/>
</a>
</g>
</g>
<!-- 24_0 -->
<!-- pilot02_06_stac_1338857689&#45;&gt;24_0 -->
<!-- pilot02_06_stac_1338867689 -->
<g id="node65" class="node">
<title>pilot02_06_stac_1338867689</title>
<g id="a_node65"><a xlink:title="25 &#160;Cat &#160;sorry">
<ellipse fill="black" stroke="black" cx="81" cy="-19.5" rx="3.5" ry="3.5"/>
</a>
</g>
</g>
<!-- 25_0 -->
<!-- pilot02_06_stac_1338867689&#45;&gt;25_0 -->
<!-- pilot02_06_stac_1338617688&#45;&gt;pilot02_06_stac_1338627688 -->
<!-- pilot02_06_stac_1338617689 -->
<g id="node68" class="node">
<title>pilot02_06_stac_1338617689</title>
<g id="a_node68"><a xlink:title="3 &#160;Cat &#160;so if it had been 7 ">
<ellipse fill="black" stroke="black" cx="57" cy="-569.5" rx="3.5" ry="3.5"/>
</a>
</g>
</g>
<!-- pilot02_06_stac_1338617688&#45;&gt;pilot02_06_stac_1338617689 -->
<g id="edge59" class="edge">
<title>pilot02_06_stac_1338617688&#45;&gt;pilot02_06_stac_1338617689</title>
<g id="a_edge59"><a xlink:title="ExplanationResult">
<path fill="none" stroke="#a62139" d="M35.52,-569.5C39.78,-569.5 44.04,-569.5 48.3,-569.5"/>
<polygon fill="#a62139" stroke="#a62139" points="48.31,-571.25 53.31,-569.5 48.31,-567.75 48.31,-571.25"/>
</a>
</g>
</g>
<!-- pilot02_06_stac_1338617690 -->
<g id="node69" class="node">
<title>pilot02_06_stac_1338617690</title>
<g id="a_node69"><a xlink:title="3 &#160;Cat &#160;i could move the robber">
<ellipse fill="black" stroke="black" cx="82" cy="-569.5" rx="3.5" ry="3.5"/>
</a>
</g>
</g>
<!-- pilot02_06_stac_1338617689&#45;&gt;pilot02_06_stac_1338617690 -->
<g id="edge60" class="edge">
<title>pilot02_06_stac_1338617689&#45;&gt;pilot02_06_stac_1338617690</title>
<g id="a_edge60"><a xlink:title="Elaboration">
<path fill="none" stroke="#a621c7" d="M60.52,-569.5C64.78,-569.5 69.04,-569.5 73.3,-569.5"/>
<polygon fill="#a621c7" stroke="#a621c7" points="73.31,-571.25 78.31,-569.5 73.31,-567.75 73.31,-571.25"/>
</a>
</g>
</g>
<!-- pilot02_06_stac_1338617690&#45;&gt;pilot02_06_stac_1338627688 -->
<g id="edge61" class="edge">
<title>pilot02_06_stac_1338617690&#45;&gt;pilot02_06_stac_1338627688</title>
<g id="a_edge61"><a xlink:title="ParallNarrContinuationbackground">
<path fill="none" stroke="#0ab046" d="M79.88,-566.38C76.54,-563.04 69.95,-556.45 65.06,-551.56"/>
<polygon fill="#0ab046" stroke="#0ab046" points="66.23,-550.26 61.46,-547.96 63.76,-552.73 66.23,-550.26"/>
</a>
</g>
</g>
<!-- pilot02_06_stac_1338617690&#45;&gt;pilot02_06_stac_1338637688 -->
<g id="edge62" class="edge">
<title>pilot02_06_stac_1338617690&#45;&gt;pilot02_06_stac_1338637688</title>
<g id="a_edge62"><a xlink:title="Acknowledgement">
<path fill="none" stroke="#12ffff" d="M81.08,-565.91C79.34,-561.03 75.44,-550.13 72,-541 70.33,-536.58 68.41,-531.65 66.87,-527.73"/>
<polygon fill="#12ffff" stroke="#12ffff" points="68.42,-526.9 64.95,-522.89 65.17,-528.18 68.42,-526.9"/>
</a>
</g>
</g>
<!-- pilot02_06_stac_1338647688&#45;&gt;pilot02_06_stac_1338647689 -->
<g id="edge64" class="edge">
<title>pilot02_06_stac_1338647688&#45;&gt;pilot02_06_stac_1338647689</title>
<g id="a_edge64"><a xlink:title="ExplanationResult">
<path fill="none" stroke="#a62139" d="M67.52,-494.5C71.78,-494.5 76.04,-494.5 80.3,-494.5"/>
<polygon fill="#a62139" stroke="#a62139" points="80.31,-496.25 85.31,-494.5 80.31,-492.75 80.31,-496.25"/>
</a>
</g>
</g>
<!-- pilot02_06_stac_1338647688&#45;&gt;pilot02_06_stac_1338657688 -->
<!-- pilot02_06_stac_1338657688&#45;&gt;pilot02_06_stac_1338657689 -->
<g id="edge66" class="edge">
<title>pilot02_06_stac_1338657688&#45;&gt;pilot02_06_stac_1338657689</title>
<g id="a_edge66"><a xlink:title="Clarification_question">
<path fill="none" stroke="#ff40d1" d="M69.52,-469.5C73.78,-469.5 78.04,-469.5 82.3,-469.5"/>
<polygon fill="#ff40d1" stroke="#ff40d1" points="82.31,-471.25 87.31,-469.5 82.31,-467.75 82.31,-471.25"/>
</a>
</g>
</g>
<!-- pilot02_06_stac_1338657688&#45;&gt;pilot02_06_stac_1338667688 -->
<!-- pilot02_06_stac_1338687688&#45;&gt;pilot02_06_stac_1338687689 -->
<g id="edge70" class="edge">
<title>pilot02_06_stac_1338687688&#45;&gt;pilot02_06_stac_1338687689</title>
<g id="a_edge70"><a xlink:title="ExplanationResult">
<path fill="none" stroke="#a62139" d="M60.52,-394.5C64.78,-394.5 69.04,-394.5 73.3,-394.5"/>
<polygon fill="#a62139" stroke="#a62139" points="73.31,-396.25 78.31,-394.5 73.31,-392.75 73.31,-396.25"/>
</a>
</g>
</g>
<!-- pilot02_06_stac_1338687688&#45;&gt;pilot02_06_stac_1338697688 -->
<!-- pilot02_06_nasher_1398873420898&#45;&gt;pilot02_06_nasher_1398873428780 -->
<g id="edge73" class="edge">
<title>pilot02_06_nasher_1398873420898&#45;&gt;pilot02_06_nasher_1398873428780</title>
<g id="a_edge73"><a xlink:title="Elaboration">
<path fill="none" stroke="#a621c7" d="M83.52,-344.5C87.78,-344.5 92.04,-344.5 96.3,-344.5"/>
<polygon fill="#a621c7" stroke="#a621c7" points="96.31,-346.25 101.31,-344.5 96.31,-342.75 96.31,-346.25"/>
</a>
</g>
</g>
<!-- pilot02_06_nasher_1398873420898&#45;&gt;pilot02_06_stac_1338717688 -->
<!-- pilot02_06_stac_1338857688&#45;&gt;pilot02_06_stac_1338857689 -->
<g id="edge88" class="edge">
<title>pilot02_06_stac_1338857688&#45;&gt;pilot02_06_stac_1338857689</title>
<g id="a_edge88"><a xlink:title="ParallNarrContinuationbackground">
<path fill="none" stroke="#0ab046" d="M59.52,-44.5C63.78,-44.5 68.04,-44.5 72.3,-44.5"/>
<polygon fill="#0ab046" stroke="#0ab046" points="72.31,-46.25 77.31,-44.5 72.31,-42.75 72.31,-46.25"/>
</a>
</g>
</g>
<!-- pilot02_06_stac_1338867688 -->
<g id="node75" class="node">
<title>pilot02_06_stac_1338867688</title>
<g id="a_node75"><a xlink:title="25 &#160;Cat &#160;no ">
<ellipse fill="black" stroke="black" cx="56" cy="-19.5" rx="3.5" ry="3.5"/>
</a>
</g>
</g>
<!-- pilot02_06_stac_1338857688&#45;&gt;pilot02_06_stac_1338867688 -->
<g id="edge89" class="edge">
<title>pilot02_06_stac_1338857688&#45;&gt;pilot02_06_stac_1338867688</title>
<g id="a_edge89"><a xlink:title="Question_answer_pair">
<path fill="none" stroke="#12ffff" d="M56,-40.68C56,-37.58 56,-32.47 56,-28.16"/>
<polygon fill="#12ffff" stroke="#12ffff" points="57.75,-28.06 56,-23.06 54.25,-28.06 57.75,-28.06"/>
</a>
</g>
</g>
<!-- pilot02_06_stac_1338867688&#45;&gt;pilot02_06_stac_1338867689 -->
<g id="edge90" class="edge">
<title>pilot02_06_stac_1338867688&#45;&gt;pilot02_06_stac_1338867689</title>
<g id="a_edge90"><a xlink:title="Comment">
<path fill="none" stroke="#ff8200" d="M59.52,-19.5C63.78,-19.5 68.04,-19.5 72.3,-19.5"/>
<polygon fill="#ff8200" stroke="#ff8200" points="72.31,-21.25 77.31,-19.5 72.31,-17.75 72.31,-21.25"/>
</a>
</g>
</g>
</g>
</svg>
