<?xml version="1.0" encoding="UTF-8" standalone="no"?>
<!DOCTYPE svg PUBLIC "-//W3C//DTD SVG 1.1//EN"
 "http://www.w3.org/Graphics/SVG/1.1/DTD/svg11.dtd">
<!-- Generated by graphviz version 3.0.0 (20220226.1711)
 -->
<!-- Title: 7_pilot02_60 Pages: 1 -->
<svg width="54pt" height="145pt"
 viewBox="0.00 0.00 54.00 145.00" xmlns="http://www.w3.org/2000/svg" xmlns:xlink="http://www.w3.org/1999/xlink">
<g id="graph0" class="graph" transform="scale(1 1) rotate(0) translate(4 141)">
<title>7_pilot02_60</title>
<polygon fill="white" stroke="transparent" points="-4,4 -4,-141 50,-141 50,4 -4,4"/>
<g id="clust1" class="cluster">
<title>cluster_7_pilot02_60</title>
<polygon fill="none" stroke="black" points="8,-8 8,-129 38,-129 38,-8 8,-8"/>
<text text-anchor="middle" x="23" y="-113.8" font-family="Times,serif" font-size="14.00">60</text>
</g>
<!-- pilot02_07_stac_1338457690 -->
<g id="node1" class="node">
<title>pilot02_07_stac_1338457690</title>
<g id="a_node1"><a xlink:title="1 &#160;Cat &#160;i can exchange wood">
<ellipse fill="black" stroke="black" cx="23" cy="-94.5" rx="3.5" ry="3.5"/>
</a>
</g>
</g>
<!-- pilot02_07_stac_1338467690 -->
<g id="node2" class="node">
<title>pilot02_07_stac_1338467690</title>
<g id="a_node2"><a xlink:title="2 &#160;Cat &#160;one wood though">
<ellipse fill="black" stroke="black" cx="23" cy="-69.5" rx="3.5" ry="3.5"/>
</a>
</g>
</g>
<!-- pilot02_07_stac_1338457690&#45;&gt;pilot02_07_stac_1338467690 -->
<g id="edge1" class="edge">
<title>pilot02_07_stac_1338457690&#45;&gt;pilot02_07_stac_1338467690</title>
<g id="a_edge1"><a xlink:title="ContrastCorrection">
<path fill="none" stroke="#ff7ecf" d="M23,-90.68C23,-87.58 23,-82.47 23,-78.16"/>
<polygon fill="#ff7ecf" stroke="#ff7ecf" points="24.75,-78.06 23,-73.06 21.25,-78.06 24.75,-78.06"/>
</a>
</g>
</g>
<!-- pilot02_07_stac_1338477690 -->
<g id="node3" class="node">
<title>pilot02_07_stac_1338477690</title>
<g id="a_node3"><a xlink:title="3 &#160;william &#160;no thx">
<ellipse fill="black" stroke="black" cx="23" cy="-44.5" rx="3.5" ry="3.5"/>
</a>
</g>
</g>
<!-- pilot02_07_stac_1338467690&#45;&gt;pilot02_07_stac_1338477690 -->
<g id="edge2" class="edge">
<title>pilot02_07_stac_1338467690&#45;&gt;pilot02_07_stac_1338477690</title>
<g id="a_edge2"><a xlink:title="Question_answer_pair">
<path fill="none" stroke="#12ffff" d="M23,-65.68C23,-62.58 23,-57.47 23,-53.16"/>
<polygon fill="#12ffff" stroke="#12ffff" points="24.75,-53.06 23,-48.06 21.25,-53.06 24.75,-53.06"/>
</a>
</g>
</g>
<!-- pilot02_07_stac_1338487690 -->
<g id="node4" class="node">
<title>pilot02_07_stac_1338487690</title>
<g id="a_node4"><a xlink:title="4 &#160;Cat &#160;ok">
<ellipse fill="black" stroke="black" cx="23" cy="-19.5" rx="3.5" ry="3.5"/>
</a>
</g>
</g>
<!-- pilot02_07_stac_1338477690&#45;&gt;pilot02_07_stac_1338487690 -->
<g id="edge3" class="edge">
<title>pilot02_07_stac_1338477690&#45;&gt;pilot02_07_stac_1338487690</title>
<g id="a_edge3"><a xlink:title="Acknowledgement">
<path fill="none" stroke="#12ffff" d="M23,-40.68C23,-37.58 23,-32.47 23,-28.16"/>
<polygon fill="#12ffff" stroke="#12ffff" points="24.75,-28.06 23,-23.06 21.25,-28.06 24.75,-28.06"/>
</a>
</g>
</g>
</g>
</svg>
