<?xml version="1.0" encoding="UTF-8" standalone="no"?>
<!DOCTYPE svg PUBLIC "-//W3C//DTD SVG 1.1//EN"
 "http://www.w3.org/Graphics/SVG/1.1/DTD/svg11.dtd">
<!-- Generated by graphviz version 3.0.0 (20220226.1711)
 -->
<!-- Title: 7_pilot02_61 Pages: 1 -->
<svg width="88pt" height="320pt"
 viewBox="0.00 0.00 88.00 320.00" xmlns="http://www.w3.org/2000/svg" xmlns:xlink="http://www.w3.org/1999/xlink">
<g id="graph0" class="graph" transform="scale(1 1) rotate(0) translate(4 316)">
<title>7_pilot02_61</title>
<polygon fill="white" stroke="transparent" points="-4,4 -4,-316 84,-316 84,4 -4,4"/>
<g id="clust1" class="cluster">
<title>cluster_7_pilot02_61</title>
<polygon fill="none" stroke="black" points="8,-8 8,-304 72,-304 72,-8 8,-8"/>
<text text-anchor="middle" x="23" y="-288.8" font-family="Times,serif" font-size="14.00">61</text>
</g>
<!-- pilot02_07_stac_1338557690 -->
<g id="node1" class="node">
<title>pilot02_07_stac_1338557690</title>
<g id="a_node1"><a xlink:title="1 &#160;Cat &#160;anyone would give me clay?">
<ellipse fill="black" stroke="black" cx="43" cy="-269.5" rx="3.5" ry="3.5"/>
</a>
</g>
</g>
<!-- pilot02_07_stac_1338567690 -->
<g id="node2" class="node">
<title>pilot02_07_stac_1338567690</title>
<g id="a_node2"><a xlink:title="2 &#160;Thomas &#160;none here">
<ellipse fill="black" stroke="black" cx="20" cy="-244.5" rx="3.5" ry="3.5"/>
</a>
</g>
</g>
<!-- pilot02_07_stac_1338557690&#45;&gt;pilot02_07_stac_1338567690 -->
<g id="edge5" class="edge">
<title>pilot02_07_stac_1338557690&#45;&gt;pilot02_07_stac_1338567690</title>
<g id="a_edge5"><a xlink:title="Question_answer_pair">
<path fill="none" stroke="#12ffff" d="M40.88,-266.38C37.54,-263.04 30.95,-256.45 26.06,-251.56"/>
<polygon fill="#12ffff" stroke="#12ffff" points="27.23,-250.26 22.46,-247.96 24.76,-252.73 27.23,-250.26"/>
</a>
</g>
</g>
<!-- pilot02_07_stac_1338577690 -->
<g id="node3" class="node">
<title>pilot02_07_stac_1338577690</title>
<g id="a_node3"><a xlink:title="3 &#160;william &#160;no">
<ellipse fill="black" stroke="black" cx="40" cy="-219.5" rx="3.5" ry="3.5"/>
</a>
</g>
</g>
<!-- pilot02_07_stac_1338557690&#45;&gt;pilot02_07_stac_1338577690 -->
<g id="edge6" class="edge">
<title>pilot02_07_stac_1338557690&#45;&gt;pilot02_07_stac_1338577690</title>
<g id="a_edge6"><a xlink:title="Question_answer_pair">
<path fill="none" stroke="#12ffff" d="M42.84,-265.92C42.4,-258.95 41.19,-239.55 40.5,-228.49"/>
<polygon fill="#12ffff" stroke="#12ffff" points="42.24,-228.21 40.18,-223.33 38.74,-228.43 42.24,-228.21"/>
</a>
</g>
</g>
<!-- pilot02_07_stac_1338587690 -->
<g id="node4" class="node">
<title>pilot02_07_stac_1338587690</title>
<g id="a_node4"><a xlink:title="4 &#160;Cat &#160;I have one wood to exchange">
<ellipse fill="black" stroke="black" cx="50" cy="-194.5" rx="3.5" ry="3.5"/>
</a>
</g>
</g>
<!-- pilot02_07_stac_1338557690&#45;&gt;pilot02_07_stac_1338587690 -->
<g id="edge7" class="edge">
<title>pilot02_07_stac_1338557690&#45;&gt;pilot02_07_stac_1338587690</title>
<g id="a_edge7"><a xlink:title="Elaboration">
<path fill="none" stroke="#a621c7" d="M43.91,-266.12C46.63,-258.75 54.43,-235.62 53,-216 52.69,-211.76 52.03,-207.07 51.4,-203.25"/>
<polygon fill="#a621c7" stroke="#a621c7" points="53.1,-202.76 50.51,-198.14 49.65,-203.37 53.1,-202.76"/>
</a>
</g>
</g>
<!-- pilot02_07_stac_1338567690&#45;&gt;pilot02_07_stac_1338577690 -->
<!-- pilot02_07_stac_1338577690&#45;&gt;pilot02_07_stac_1338587690 -->
<!-- pilot02_07_stac_1338597690 -->
<g id="node5" class="node">
<title>pilot02_07_stac_1338597690</title>
<g id="a_node5"><a xlink:title="5 &#160;Cat &#160;any takers?">
<ellipse fill="black" stroke="black" cx="50" cy="-169.5" rx="3.5" ry="3.5"/>
</a>
</g>
</g>
<!-- pilot02_07_stac_1338587690&#45;&gt;pilot02_07_stac_1338597690 -->
<g id="edge8" class="edge">
<title>pilot02_07_stac_1338587690&#45;&gt;pilot02_07_stac_1338597690</title>
<g id="a_edge8"><a xlink:title="ParallNarrContinuationbackground">
<path fill="none" stroke="#0ab046" d="M50,-190.68C50,-187.58 50,-182.47 50,-178.16"/>
<polygon fill="#0ab046" stroke="#0ab046" points="51.75,-178.06 50,-173.06 48.25,-178.06 51.75,-178.06"/>
</a>
</g>
</g>
<!-- pilot02_07_stac_1338607690 -->
<g id="node6" class="node">
<title>pilot02_07_stac_1338607690</title>
<g id="a_node6"><a xlink:title="6 &#160;william &#160;no">
<ellipse fill="black" stroke="black" cx="34" cy="-144.5" rx="3.5" ry="3.5"/>
</a>
</g>
</g>
<!-- pilot02_07_stac_1338597690&#45;&gt;pilot02_07_stac_1338607690 -->
<g id="edge9" class="edge">
<title>pilot02_07_stac_1338597690&#45;&gt;pilot02_07_stac_1338607690</title>
<g id="a_edge9"><a xlink:title="Question_answer_pair">
<path fill="none" stroke="#12ffff" d="M48.29,-166.04C46.01,-162.77 41.91,-156.87 38.68,-152.23"/>
<polygon fill="#12ffff" stroke="#12ffff" points="39.94,-150.98 35.65,-147.87 37.07,-152.98 39.94,-150.98"/>
</a>
</g>
</g>
<!-- pilot02_07_stac_1338617690 -->
<g id="node7" class="node">
<title>pilot02_07_stac_1338617690</title>
<g id="a_node7"><a xlink:title="7 &#160;Cat &#160;for sheep, wheat or clary">
<ellipse fill="black" stroke="black" cx="44" cy="-119.5" rx="3.5" ry="3.5"/>
</a>
</g>
</g>
<!-- pilot02_07_stac_1338597690&#45;&gt;pilot02_07_stac_1338617690 -->
<g id="edge10" class="edge">
<title>pilot02_07_stac_1338597690&#45;&gt;pilot02_07_stac_1338617690</title>
<g id="a_edge10"><a xlink:title="Elaboration">
<path fill="none" stroke="#a621c7" d="M49.75,-165.92C49.27,-161.04 48.17,-150.15 47,-141 46.46,-136.79 45.78,-132.1 45.2,-128.27"/>
<polygon fill="#a621c7" stroke="#a621c7" points="46.91,-127.83 44.42,-123.15 43.45,-128.36 46.91,-127.83"/>
</a>
</g>
</g>
<!-- pilot02_07_stac_1338607690&#45;&gt;pilot02_07_stac_1338617690 -->
<!-- pilot02_07_stac_1463480859 -->
<g id="node8" class="node">
<title>pilot02_07_stac_1463480859</title>
<g id="a_node8"><a xlink:title="8 &#160;Thomas &#160;can I buy a sheep for two ore?">
<ellipse fill="black" stroke="black" cx="44" cy="-94.5" rx="3.5" ry="3.5"/>
</a>
</g>
</g>
<!-- pilot02_07_stac_1338617690&#45;&gt;pilot02_07_stac_1463480859 -->
<g id="edge11" class="edge">
<title>pilot02_07_stac_1338617690&#45;&gt;pilot02_07_stac_1463480859</title>
<g id="a_edge11"><a xlink:title="Q_Elab">
<path fill="none" stroke="#0d20ff" d="M44,-115.68C44,-112.58 44,-107.47 44,-103.16"/>
<polygon fill="#0d20ff" stroke="#0d20ff" points="45.75,-103.06 44,-98.06 42.25,-103.06 45.75,-103.06"/>
</a>
</g>
</g>
<!-- pilot02_07_stac_1338387693 -->
<g id="node9" class="node">
<title>pilot02_07_stac_1338387693</title>
<g id="a_node9"><a xlink:title="9 &#160;william &#160;have none">
<ellipse fill="black" stroke="black" cx="34" cy="-69.5" rx="3.5" ry="3.5"/>
</a>
</g>
</g>
<!-- pilot02_07_stac_1463480859&#45;&gt;pilot02_07_stac_1338387693 -->
<g id="edge12" class="edge">
<title>pilot02_07_stac_1463480859&#45;&gt;pilot02_07_stac_1338387693</title>
<g id="a_edge12"><a xlink:title="Question_answer_pair">
<path fill="none" stroke="#12ffff" d="M42.93,-91.04C41.54,-87.84 39.05,-82.12 37.06,-77.53"/>
<polygon fill="#12ffff" stroke="#12ffff" points="38.63,-76.76 35.03,-72.87 35.42,-78.16 38.63,-76.76"/>
</a>
</g>
</g>
<!-- pilot02_07_stac_1338407693 -->
<g id="node11" class="node">
<title>pilot02_07_stac_1338407693</title>
<g id="a_node11"><a xlink:title="11 &#160;Cat &#160;no sheep">
<ellipse fill="black" stroke="black" cx="44" cy="-19.5" rx="3.5" ry="3.5"/>
</a>
</g>
</g>
<!-- pilot02_07_stac_1463480859&#45;&gt;pilot02_07_stac_1338407693 -->
<g id="edge14" class="edge">
<title>pilot02_07_stac_1463480859&#45;&gt;pilot02_07_stac_1338407693</title>
<g id="a_edge14"><a xlink:title="Question_answer_pair">
<path fill="none" stroke="#12ffff" d="M44.51,-90.86C45.24,-86.97 46.53,-79.46 47,-73 48.03,-58.82 48.03,-55.18 47,-41 46.69,-36.76 46.03,-32.07 45.4,-28.25"/>
<polygon fill="#12ffff" stroke="#12ffff" points="47.1,-27.76 44.51,-23.14 43.65,-28.37 47.1,-27.76"/>
</a>
</g>
</g>
<!-- pilot02_07_stac_1338397693 -->
<g id="node10" class="node">
<title>pilot02_07_stac_1338397693</title>
<g id="a_node10"><a xlink:title="10 &#160;Thomas &#160;kk">
<ellipse fill="black" stroke="black" cx="34" cy="-44.5" rx="3.5" ry="3.5"/>
</a>
</g>
</g>
<!-- pilot02_07_stac_1338387693&#45;&gt;pilot02_07_stac_1338397693 -->
<g id="edge13" class="edge">
<title>pilot02_07_stac_1338387693&#45;&gt;pilot02_07_stac_1338397693</title>
<g id="a_edge13"><a xlink:title="Acknowledgement">
<path fill="none" stroke="#12ffff" d="M34,-65.68C34,-62.58 34,-57.47 34,-53.16"/>
<polygon fill="#12ffff" stroke="#12ffff" points="35.75,-53.06 34,-48.06 32.25,-53.06 35.75,-53.06"/>
</a>
</g>
</g>
<!-- pilot02_07_stac_1338397693&#45;&gt;pilot02_07_stac_1338407693 -->
</g>
</svg>
