<?xml version="1.0" encoding="UTF-8" standalone="no"?>
<!DOCTYPE svg PUBLIC "-//W3C//DTD SVG 1.1//EN"
 "http://www.w3.org/Graphics/SVG/1.1/DTD/svg11.dtd">
<!-- Generated by graphviz version 3.0.0 (20220226.1711)
 -->
<!-- Title: 8_pilot02_62 Pages: 1 -->
<svg width="88pt" height="195pt"
 viewBox="0.00 0.00 88.00 195.00" xmlns="http://www.w3.org/2000/svg" xmlns:xlink="http://www.w3.org/1999/xlink">
<g id="graph0" class="graph" transform="scale(1 1) rotate(0) translate(4 191)">
<title>8_pilot02_62</title>
<polygon fill="white" stroke="transparent" points="-4,4 -4,-191 84,-191 84,4 -4,4"/>
<g id="clust1" class="cluster">
<title>cluster_8_pilot02_62</title>
<polygon fill="none" stroke="black" points="8,-8 8,-179 72,-179 72,-8 8,-8"/>
<text text-anchor="middle" x="23" y="-163.8" font-family="Times,serif" font-size="14.00">62</text>
</g>
<!-- pilot02_08_stac_1338437693 -->
<g id="node1" class="node">
<title>pilot02_08_stac_1338437693</title>
<g id="a_node1"><a xlink:title="1 &#160;william &#160;does anyone need ore or wheat?">
<ellipse fill="black" stroke="black" cx="43" cy="-144.5" rx="3.5" ry="3.5"/>
</a>
</g>
</g>
<!-- pilot02_08_stac_1338447693 -->
<g id="node2" class="node">
<title>pilot02_08_stac_1338447693</title>
<g id="a_node2"><a xlink:title="2 &#160;Thomas &#160;no ">
<ellipse fill="black" stroke="black" cx="20" cy="-119.5" rx="3.5" ry="3.5"/>
</a>
</g>
</g>
<!-- pilot02_08_stac_1338437693&#45;&gt;pilot02_08_stac_1338447693 -->
<g id="edge2" class="edge">
<title>pilot02_08_stac_1338437693&#45;&gt;pilot02_08_stac_1338447693</title>
<g id="a_edge2"><a xlink:title="Question_answer_pair">
<path fill="none" stroke="#12ffff" d="M40.88,-141.38C37.54,-138.04 30.95,-131.45 26.06,-126.56"/>
<polygon fill="#12ffff" stroke="#12ffff" points="27.23,-125.26 22.46,-122.96 24.76,-127.73 27.23,-125.26"/>
</a>
</g>
</g>
<!-- pilot02_08_stac_1338457693 -->
<g id="node3" class="node">
<title>pilot02_08_stac_1338457693</title>
<g id="a_node3"><a xlink:title="3 &#160;Cat &#160;wheat">
<ellipse fill="black" stroke="black" cx="40" cy="-94.5" rx="3.5" ry="3.5"/>
</a>
</g>
</g>
<!-- pilot02_08_stac_1338437693&#45;&gt;pilot02_08_stac_1338457693 -->
<g id="edge3" class="edge">
<title>pilot02_08_stac_1338437693&#45;&gt;pilot02_08_stac_1338457693</title>
<g id="a_edge3"><a xlink:title="Question_answer_pair">
<path fill="none" stroke="#12ffff" d="M42.84,-140.92C42.4,-133.95 41.19,-114.55 40.5,-103.49"/>
<polygon fill="#12ffff" stroke="#12ffff" points="42.24,-103.21 40.18,-98.33 38.74,-103.43 42.24,-103.21"/>
</a>
</g>
</g>
<!-- pilot02_08_stac_1338477693 -->
<g id="node5" class="node">
<title>pilot02_08_stac_1338477693</title>
<g id="a_node5"><a xlink:title="5 &#160;Cat &#160;I can give you one wood">
<ellipse fill="black" stroke="black" cx="50" cy="-44.5" rx="3.5" ry="3.5"/>
</a>
</g>
</g>
<!-- pilot02_08_stac_1338437693&#45;&gt;pilot02_08_stac_1338477693 -->
<g id="edge5" class="edge">
<title>pilot02_08_stac_1338437693&#45;&gt;pilot02_08_stac_1338477693</title>
<g id="a_edge5"><a xlink:title="Question_answer_pair">
<path fill="none" stroke="#12ffff" d="M43.73,-141.06C45.72,-134.31 51.18,-114.72 53,-98 54.54,-83.86 54.03,-80.18 53,-66 52.69,-61.76 52.03,-57.07 51.4,-53.25"/>
<polygon fill="#12ffff" stroke="#12ffff" points="53.1,-52.76 50.51,-48.14 49.65,-53.37 53.1,-52.76"/>
</a>
</g>
</g>
<!-- pilot02_08_stac_1338447693&#45;&gt;pilot02_08_stac_1338457693 -->
<!-- pilot02_08_stac_1338467693 -->
<g id="node4" class="node">
<title>pilot02_08_stac_1338467693</title>
<g id="a_node4"><a xlink:title="4 &#160;william &#160;can you give me sheep or wood?">
<ellipse fill="black" stroke="black" cx="40" cy="-69.5" rx="3.5" ry="3.5"/>
</a>
</g>
</g>
<!-- pilot02_08_stac_1338457693&#45;&gt;pilot02_08_stac_1338467693 -->
<g id="edge4" class="edge">
<title>pilot02_08_stac_1338457693&#45;&gt;pilot02_08_stac_1338467693</title>
<g id="a_edge4"><a xlink:title="Q_Elab">
<path fill="none" stroke="#0d20ff" d="M40,-90.68C40,-87.58 40,-82.47 40,-78.16"/>
<polygon fill="#0d20ff" stroke="#0d20ff" points="41.75,-78.06 40,-73.06 38.25,-78.06 41.75,-78.06"/>
</a>
</g>
</g>
<!-- pilot02_08_stac_1338467693&#45;&gt;pilot02_08_stac_1338477693 -->
<g id="edge6" class="edge">
<title>pilot02_08_stac_1338467693&#45;&gt;pilot02_08_stac_1338477693</title>
<g id="a_edge6"><a xlink:title="Question_answer_pair">
<path fill="none" stroke="#12ffff" d="M41.07,-66.04C42.46,-62.84 44.95,-57.12 46.94,-52.53"/>
<polygon fill="#12ffff" stroke="#12ffff" points="48.58,-53.16 48.97,-47.87 45.37,-51.76 48.58,-53.16"/>
</a>
</g>
</g>
<!-- pilot02_08_stac_1338487693 -->
<g id="node6" class="node">
<title>pilot02_08_stac_1338487693</title>
<g id="a_node6"><a xlink:title="6 &#160;william &#160;k">
<ellipse fill="black" stroke="black" cx="50" cy="-19.5" rx="3.5" ry="3.5"/>
</a>
</g>
</g>
<!-- pilot02_08_stac_1338477693&#45;&gt;pilot02_08_stac_1338487693 -->
<g id="edge7" class="edge">
<title>pilot02_08_stac_1338477693&#45;&gt;pilot02_08_stac_1338487693</title>
<g id="a_edge7"><a xlink:title="Acknowledgement">
<path fill="none" stroke="#12ffff" d="M50,-40.68C50,-37.58 50,-32.47 50,-28.16"/>
<polygon fill="#12ffff" stroke="#12ffff" points="51.75,-28.06 50,-23.06 48.25,-28.06 51.75,-28.06"/>
</a>
</g>
</g>
</g>
</svg>
