<?xml version="1.0" encoding="UTF-8" standalone="no"?>
<!DOCTYPE svg PUBLIC "-//W3C//DTD SVG 1.1//EN"
 "http://www.w3.org/Graphics/SVG/1.1/DTD/svg11.dtd">
<!-- Generated by graphviz version 3.0.0 (20220226.1711)
 -->
<!-- Title: 8_pilot02_63 Pages: 1 -->
<svg width="154pt" height="495pt"
 viewBox="0.00 0.00 154.00 495.00" xmlns="http://www.w3.org/2000/svg" xmlns:xlink="http://www.w3.org/1999/xlink">
<g id="graph0" class="graph" transform="scale(1 1) rotate(0) translate(4 491)">
<title>8_pilot02_63</title>
<polygon fill="white" stroke="transparent" points="-4,4 -4,-491 150,-491 150,4 -4,4"/>
<g id="clust1" class="cluster">
<title>cluster_8_pilot02_63</title>
<polygon fill="none" stroke="black" points="8,-8 8,-479 138,-479 138,-8 8,-8"/>
<text text-anchor="middle" x="23" y="-463.8" font-family="Times,serif" font-size="14.00">63</text>
</g>
<!-- pilot02_08_stac_1338557693 -->
<g id="node1" class="node">
<title>pilot02_08_stac_1338557693</title>
<g id="a_node1"><a xlink:title="1 &#160;Cat &#160;anyone for ore?">
<ellipse fill="black" stroke="black" cx="63" cy="-444.5" rx="3.5" ry="3.5"/>
</a>
</g>
</g>
<!-- 1_0 -->
<!-- pilot02_08_stac_1338557693&#45;&gt;1_0 -->
<!-- pilot02_08_stac_1338567693 -->
<g id="node3" class="node">
<title>pilot02_08_stac_1338567693</title>
<g id="a_node3"><a xlink:title="2 &#160;Cat &#160;I&#39;d like clay">
<ellipse fill="black" stroke="black" cx="20" cy="-419.5" rx="3.5" ry="3.5"/>
</a>
</g>
</g>
<!-- pilot02_08_stac_1338557693&#45;&gt;pilot02_08_stac_1338567693 -->
<g id="edge27" class="edge">
<title>pilot02_08_stac_1338557693&#45;&gt;pilot02_08_stac_1338567693</title>
<g id="a_edge27"><a xlink:title="Elaboration">
<path fill="none" stroke="#a621c7" d="M60.18,-441.99C53.62,-438.48 37.17,-429.68 27.47,-424.5"/>
<polygon fill="#a621c7" stroke="#a621c7" points="28.12,-422.86 22.89,-422.04 26.47,-425.95 28.12,-422.86"/>
</a>
</g>
</g>
<!-- pilot02_08_stac_1338577693 -->
<g id="node5" class="node">
<title>pilot02_08_stac_1338577693</title>
<g id="a_node5"><a xlink:title="3 &#160;Thomas &#160;sorry">
<ellipse fill="black" stroke="black" cx="40" cy="-394.5" rx="3.5" ry="3.5"/>
</a>
</g>
</g>
<!-- pilot02_08_stac_1338557693&#45;&gt;pilot02_08_stac_1338577693 -->
<g id="edge28" class="edge">
<title>pilot02_08_stac_1338557693&#45;&gt;pilot02_08_stac_1338577693</title>
<g id="a_edge28"><a xlink:title="Question_answer_pair">
<path fill="none" stroke="#12ffff" d="M61.76,-440.92C58.33,-433.76 48.6,-413.44 43.39,-402.57"/>
<polygon fill="#12ffff" stroke="#12ffff" points="44.87,-401.62 41.13,-397.86 41.72,-403.13 44.87,-401.62"/>
</a>
</g>
</g>
<!-- pilot02_08_stac_1338587693 -->
<g id="node7" class="node">
<title>pilot02_08_stac_1338587693</title>
<g id="a_node7"><a xlink:title="4 &#160;william &#160;sry">
<ellipse fill="black" stroke="black" cx="50" cy="-369.5" rx="3.5" ry="3.5"/>
</a>
</g>
</g>
<!-- pilot02_08_stac_1338557693&#45;&gt;pilot02_08_stac_1338587693 -->
<g id="edge29" class="edge">
<title>pilot02_08_stac_1338557693&#45;&gt;pilot02_08_stac_1338587693</title>
<g id="a_edge29"><a xlink:title="Question_answer_pair">
<path fill="none" stroke="#12ffff" d="M64.2,-440.98C68.51,-431.81 82.67,-400.21 78,-391 73.83,-382.77 64.63,-377.05 57.91,-373.78"/>
<polygon fill="#12ffff" stroke="#12ffff" points="58.29,-372.04 53.01,-371.61 56.88,-375.24 58.29,-372.04"/>
</a>
</g>
</g>
<!-- pilot02_08_stac_1338607693 -->
<g id="node11" class="node">
<title>pilot02_08_stac_1338607693</title>
<g id="a_node11"><a xlink:title="6 &#160;william &#160;nope">
<ellipse fill="black" stroke="black" cx="80" cy="-319.5" rx="3.5" ry="3.5"/>
</a>
</g>
</g>
<!-- pilot02_08_stac_1338557693&#45;&gt;pilot02_08_stac_1338607693 -->
<g id="edge31" class="edge">
<title>pilot02_08_stac_1338557693&#45;&gt;pilot02_08_stac_1338607693</title>
<g id="a_edge31"><a xlink:title="Question_answer_pair">
<path fill="none" stroke="#12ffff" d="M65.12,-441.31C68.41,-437.77 74.73,-430.43 78,-423 87.13,-402.26 85.77,-395.55 88,-373 89.4,-358.85 90.63,-354.98 88,-341 87.13,-336.36 85.23,-331.42 83.5,-327.55"/>
<polygon fill="#12ffff" stroke="#12ffff" points="84.97,-326.57 81.23,-322.81 81.82,-328.08 84.97,-326.57"/>
</a>
</g>
</g>
<!-- pilot02_08_stac_1338617693 -->
<g id="node13" class="node">
<title>pilot02_08_stac_1338617693</title>
<g id="a_node13"><a xlink:title="7 &#160;Thomas &#160;can&#39;t">
<ellipse fill="black" stroke="black" cx="81" cy="-294.5" rx="3.5" ry="3.5"/>
</a>
</g>
</g>
<!-- pilot02_08_stac_1338557693&#45;&gt;pilot02_08_stac_1338617693 -->
<g id="edge32" class="edge">
<title>pilot02_08_stac_1338557693&#45;&gt;pilot02_08_stac_1338617693</title>
<g id="a_edge32"><a xlink:title="Question_answer_pair">
<path fill="none" stroke="#12ffff" d="M65.79,-442.15C78.23,-435.89 128,-408.51 128,-370.5 128,-370.5 128,-370.5 128,-343.5 128,-330.49 126.45,-325.89 118,-316 110.25,-306.93 97.43,-301.11 89.1,-298.07"/>
<polygon fill="#12ffff" stroke="#12ffff" points="89.46,-296.35 84.17,-296.41 88.35,-299.67 89.46,-296.35"/>
</a>
</g>
</g>
<!-- 2_0 -->
<!-- pilot02_08_stac_1338567693&#45;&gt;2_0 -->
<!-- pilot02_08_stac_1338567693&#45;&gt;pilot02_08_stac_1338577693 -->
<!-- pilot02_08_stac_1338597693 -->
<g id="node9" class="node">
<title>pilot02_08_stac_1338597693</title>
<g id="a_node9"><a xlink:title="5 &#160;Cat &#160;or sheep">
<ellipse fill="black" stroke="black" cx="50" cy="-344.5" rx="3.5" ry="3.5"/>
</a>
</g>
</g>
<!-- pilot02_08_stac_1338567693&#45;&gt;pilot02_08_stac_1338597693 -->
<g id="edge30" class="edge">
<title>pilot02_08_stac_1338567693&#45;&gt;pilot02_08_stac_1338597693</title>
<g id="a_edge30"><a xlink:title="Alternation">
<path fill="none" stroke="#10495e" d="M20.62,-416.01C22.57,-408.31 29.02,-384.35 38,-366 40.29,-361.31 43.25,-356.25 45.65,-352.33"/>
<polygon fill="#10495e" stroke="#10495e" points="47.3,-353 48.48,-347.84 44.34,-351.14 47.3,-353"/>
</a>
</g>
</g>
<!-- 3_0 -->
<!-- pilot02_08_stac_1338577693&#45;&gt;3_0 -->
<!-- pilot02_08_stac_1338577693&#45;&gt;pilot02_08_stac_1338587693 -->
<!-- 4_0 -->
<!-- pilot02_08_stac_1338587693&#45;&gt;4_0 -->
<!-- pilot02_08_stac_1338587693&#45;&gt;pilot02_08_stac_1338597693 -->
<!-- 5_0 -->
<!-- pilot02_08_stac_1338597693&#45;&gt;5_0 -->
<!-- pilot02_08_stac_1338597693&#45;&gt;pilot02_08_stac_1338607693 -->
<!-- 6_0 -->
<!-- pilot02_08_stac_1338607693&#45;&gt;6_0 -->
<!-- pilot02_08_stac_1338607693&#45;&gt;pilot02_08_stac_1338617693 -->
<!-- 7_0 -->
<!-- pilot02_08_stac_1338617693&#45;&gt;7_0 -->
<!-- pilot02_08_stac_1463480866 -->
<g id="node15" class="node">
<title>pilot02_08_stac_1463480866</title>
<g id="a_node15"><a xlink:title="8 &#160;Thomas &#160;have plenty of ore">
<ellipse fill="black" stroke="black" cx="81" cy="-269.5" rx="3.5" ry="3.5"/>
</a>
</g>
</g>
<!-- pilot02_08_stac_1338617693&#45;&gt;pilot02_08_stac_1463480866 -->
<g id="edge33" class="edge">
<title>pilot02_08_stac_1338617693&#45;&gt;pilot02_08_stac_1463480866</title>
<g id="a_edge33"><a xlink:title="Elaboration">
<path fill="none" stroke="#a621c7" d="M81,-290.68C81,-287.58 81,-282.47 81,-278.16"/>
<polygon fill="#a621c7" stroke="#a621c7" points="82.75,-278.06 81,-273.06 79.25,-278.06 82.75,-278.06"/>
</a>
</g>
</g>
<!-- 8_0 -->
<!-- pilot02_08_stac_1463480866&#45;&gt;8_0 -->
<!-- pilot02_08_stac_1338387696 -->
<g id="node17" class="node">
<title>pilot02_08_stac_1338387696</title>
<g id="a_node17"><a xlink:title="9 &#160;Thomas &#160;for anything">
<ellipse fill="black" stroke="black" cx="81" cy="-244.5" rx="3.5" ry="3.5"/>
</a>
</g>
</g>
<!-- pilot02_08_stac_1463480866&#45;&gt;pilot02_08_stac_1338387696 -->
<g id="edge34" class="edge">
<title>pilot02_08_stac_1463480866&#45;&gt;pilot02_08_stac_1338387696</title>
<g id="a_edge34"><a xlink:title="ParallNarrContinuationbackground">
<path fill="none" stroke="#0ab046" d="M81,-265.68C81,-262.58 81,-257.47 81,-253.16"/>
<polygon fill="#0ab046" stroke="#0ab046" points="82.75,-253.06 81,-248.06 79.25,-253.06 82.75,-253.06"/>
</a>
</g>
</g>
<!-- 9_0 -->
<!-- pilot02_08_stac_1338387696&#45;&gt;9_0 -->
<!-- pilot02_08_stac_1338397696 -->
<g id="node19" class="node">
<title>pilot02_08_stac_1338397696</title>
<g id="a_node19"><a xlink:title="10 &#160;william &#160;wheat?">
<ellipse fill="black" stroke="black" cx="81" cy="-219.5" rx="3.5" ry="3.5"/>
</a>
</g>
</g>
<!-- pilot02_08_stac_1338387696&#45;&gt;pilot02_08_stac_1338397696 -->
<g id="edge35" class="edge">
<title>pilot02_08_stac_1338387696&#45;&gt;pilot02_08_stac_1338397696</title>
<g id="a_edge35"><a xlink:title="Q_Elab">
<path fill="none" stroke="#0d20ff" d="M81,-240.68C81,-237.58 81,-232.47 81,-228.16"/>
<polygon fill="#0d20ff" stroke="#0d20ff" points="82.75,-228.06 81,-223.06 79.25,-228.06 82.75,-228.06"/>
</a>
</g>
</g>
<!-- 10_0 -->
<!-- pilot02_08_stac_1338397696&#45;&gt;10_0 -->
<!-- pilot02_08_stac_1338407696 -->
<g id="node21" class="node">
<title>pilot02_08_stac_1338407696</title>
<g id="a_node21"><a xlink:title="11 &#160;Thomas &#160;3 ore for a wheat?">
<ellipse fill="black" stroke="black" cx="81" cy="-194.5" rx="3.5" ry="3.5"/>
</a>
</g>
</g>
<!-- pilot02_08_stac_1338397696&#45;&gt;pilot02_08_stac_1338407696 -->
<g id="edge36" class="edge">
<title>pilot02_08_stac_1338397696&#45;&gt;pilot02_08_stac_1338407696</title>
<g id="a_edge36"><a xlink:title="Q_Elab">
<path fill="none" stroke="#0d20ff" d="M81,-215.68C81,-212.58 81,-207.47 81,-203.16"/>
<polygon fill="#0d20ff" stroke="#0d20ff" points="82.75,-203.06 81,-198.06 79.25,-203.06 82.75,-203.06"/>
</a>
</g>
</g>
<!-- 11_0 -->
<!-- pilot02_08_stac_1338407696&#45;&gt;11_0 -->
<!-- pilot02_08_stac_1338417696 -->
<g id="node23" class="node">
<title>pilot02_08_stac_1338417696</title>
<g id="a_node23"><a xlink:title="12 &#160;Cat &#160;ok">
<ellipse fill="black" stroke="black" cx="58" cy="-169.5" rx="3.5" ry="3.5"/>
</a>
</g>
</g>
<!-- pilot02_08_stac_1338407696&#45;&gt;pilot02_08_stac_1338417696 -->
<g id="edge37" class="edge">
<title>pilot02_08_stac_1338407696&#45;&gt;pilot02_08_stac_1338417696</title>
<g id="a_edge37"><a xlink:title="Question_answer_pair">
<path fill="none" stroke="#12ffff" d="M78.88,-191.38C75.54,-188.04 68.95,-181.45 64.06,-176.56"/>
<polygon fill="#12ffff" stroke="#12ffff" points="65.23,-175.26 60.46,-172.96 62.76,-177.73 65.23,-175.26"/>
</a>
</g>
</g>
<!-- pilot02_08_stac_1338427696 -->
<g id="node25" class="node">
<title>pilot02_08_stac_1338427696</title>
<g id="a_node25"><a xlink:title="13 &#160;william &#160;^^">
<ellipse fill="black" stroke="black" cx="54" cy="-144.5" rx="3.5" ry="3.5"/>
</a>
</g>
</g>
<!-- pilot02_08_stac_1338407696&#45;&gt;pilot02_08_stac_1338427696 -->
<g id="edge38" class="edge">
<title>pilot02_08_stac_1338407696&#45;&gt;pilot02_08_stac_1338427696</title>
<g id="a_edge38"><a xlink:title="Question_answer_pair">
<path fill="none" stroke="#12ffff" d="M80.35,-190.79C79.05,-185.7 75.85,-174.46 71,-166 67.96,-160.7 63.52,-155.4 59.94,-151.52"/>
<polygon fill="#12ffff" stroke="#12ffff" points="61,-150.09 56.27,-147.7 58.48,-152.52 61,-150.09"/>
</a>
</g>
</g>
<!-- pilot02_08_stac_1338447696 -->
<g id="node35" class="node">
<title>pilot02_08_stac_1338447696</title>
<g id="a_node35"><a xlink:title="14 &#160;Cat &#160;sorry, ">
<ellipse fill="black" stroke="black" cx="67" cy="-119.5" rx="3.5" ry="3.5"/>
</a>
</g>
</g>
<!-- pilot02_08_stac_1338407696&#45;&gt;pilot02_08_stac_1338447696 -->
<g id="edge39" class="edge">
<title>pilot02_08_stac_1338407696&#45;&gt;pilot02_08_stac_1338447696</title>
<g id="a_edge39"><a xlink:title="Question_answer_pair">
<path fill="none" stroke="#12ffff" d="M82.61,-190.96C87.36,-183.14 100.44,-158.85 92,-141 88.47,-133.54 80.75,-127.89 74.82,-124.43"/>
<polygon fill="#12ffff" stroke="#12ffff" points="75.28,-122.69 70.04,-121.88 73.63,-125.78 75.28,-122.69"/>
</a>
</g>
</g>
<!-- 12_0 -->
<!-- pilot02_08_stac_1338417696&#45;&gt;12_0 -->
<!-- pilot02_08_stac_1338417696&#45;&gt;pilot02_08_stac_1338427696 -->
<!-- 13_0 -->
<!-- pilot02_08_stac_1338427696&#45;&gt;13_0 -->
<!-- pilot02_08_stac_1338427696&#45;&gt;pilot02_08_stac_1338447696 -->
<!-- pilot02_08_stac_1338457696 -->
<g id="node27" class="node">
<title>pilot02_08_stac_1338457696</title>
<g id="a_node27"><a xlink:title="15 &#160;Thomas &#160;ok">
<ellipse fill="black" stroke="black" cx="73" cy="-94.5" rx="3.5" ry="3.5"/>
</a>
</g>
</g>
<!-- 15_0 -->
<!-- pilot02_08_stac_1338457696&#45;&gt;15_0 -->
<!-- pilot02_08_stac_1338467696 -->
<g id="node29" class="node">
<title>pilot02_08_stac_1338467696</title>
<g id="a_node29"><a xlink:title="16 &#160;william &#160;i will do it">
<ellipse fill="black" stroke="black" cx="73" cy="-69.5" rx="3.5" ry="3.5"/>
</a>
</g>
</g>
<!-- pilot02_08_stac_1338457696&#45;&gt;pilot02_08_stac_1338467696 -->
<g id="edge42" class="edge">
<title>pilot02_08_stac_1338457696&#45;&gt;pilot02_08_stac_1338467696</title>
<g id="a_edge42"><a xlink:title="Question_answer_pair">
<path fill="none" stroke="#12ffff" d="M73,-90.68C73,-87.58 73,-82.47 73,-78.16"/>
<polygon fill="#12ffff" stroke="#12ffff" points="74.75,-78.06 73,-73.06 71.25,-78.06 74.75,-78.06"/>
</a>
</g>
</g>
<!-- 16_0 -->
<!-- pilot02_08_stac_1338467696&#45;&gt;16_0 -->
<!-- pilot02_08_stac_1338497696 -->
<g id="node31" class="node">
<title>pilot02_08_stac_1338497696</title>
<g id="a_node31"><a xlink:title="17 &#160;Thomas &#160;thaks">
<ellipse fill="black" stroke="black" cx="62" cy="-44.5" rx="3.5" ry="3.5"/>
</a>
</g>
</g>
<!-- pilot02_08_stac_1338467696&#45;&gt;pilot02_08_stac_1338497696 -->
<g id="edge43" class="edge">
<title>pilot02_08_stac_1338467696&#45;&gt;pilot02_08_stac_1338497696</title>
<g id="a_edge43"><a xlink:title="Acknowledgement">
<path fill="none" stroke="#12ffff" d="M71.82,-66.04C70.29,-62.84 67.56,-57.12 65.36,-52.53"/>
<polygon fill="#12ffff" stroke="#12ffff" points="66.87,-51.63 63.14,-47.87 63.71,-53.14 66.87,-51.63"/>
</a>
</g>
</g>
<!-- pilot02_08_stac_1338517696 -->
<g id="node33" class="node">
<title>pilot02_08_stac_1338517696</title>
<g id="a_node33"><a xlink:title="18 &#160;william &#160;*ADDTIME*">
<ellipse fill="black" stroke="black" cx="73" cy="-19.5" rx="3.5" ry="3.5"/>
</a>
</g>
</g>
<!-- pilot02_08_stac_1338467696&#45;&gt;pilot02_08_stac_1338517696 -->
<g id="edge44" class="edge">
<title>pilot02_08_stac_1338467696&#45;&gt;pilot02_08_stac_1338517696</title>
<g id="a_edge44"><a xlink:title="ContrastCorrection">
<path fill="none" stroke="#ff7ecf" d="M73.4,-65.92C74.1,-61.06 75.45,-50.18 75,-41 74.79,-36.78 74.35,-32.09 73.94,-28.26"/>
<polygon fill="#ff7ecf" stroke="#ff7ecf" points="75.66,-27.91 73.34,-23.15 72.18,-28.32 75.66,-27.91"/>
</a>
</g>
</g>
<!-- 17_0 -->
<!-- pilot02_08_stac_1338497696&#45;&gt;17_0 -->
<!-- pilot02_08_stac_1338497696&#45;&gt;pilot02_08_stac_1338517696 -->
<!-- 18_0 -->
<!-- pilot02_08_stac_1338517696&#45;&gt;18_0 -->
<!-- pilot02_08_stac_1338447696&#45;&gt;pilot02_08_stac_1338457696 -->
<!-- pilot02_08_stac_1338447697 -->
<g id="node36" class="node">
<title>pilot02_08_stac_1338447697</title>
<g id="a_node36"><a xlink:title="14 &#160;Cat &#160;misunderstood">
<ellipse fill="black" stroke="black" cx="92" cy="-119.5" rx="3.5" ry="3.5"/>
</a>
</g>
</g>
<!-- pilot02_08_stac_1338447696&#45;&gt;pilot02_08_stac_1338447697 -->
<g id="edge40" class="edge">
<title>pilot02_08_stac_1338447696&#45;&gt;pilot02_08_stac_1338447697</title>
<g id="a_edge40"><a xlink:title="ExplanationResult">
<path fill="none" stroke="#a62139" d="M70.52,-119.5C74.78,-119.5 79.04,-119.5 83.3,-119.5"/>
<polygon fill="#a62139" stroke="#a62139" points="83.31,-121.25 88.31,-119.5 83.31,-117.75 83.31,-121.25"/>
</a>
</g>
</g>
<!-- pilot02_08_stac_1338447697&#45;&gt;pilot02_08_stac_1338457696 -->
<g id="edge41" class="edge">
<title>pilot02_08_stac_1338447697&#45;&gt;pilot02_08_stac_1338457696</title>
<g id="a_edge41"><a xlink:title="Acknowledgement">
<path fill="none" stroke="#12ffff" d="M90.25,-116.38C87.55,-113.11 82.26,-106.71 78.25,-101.85"/>
<polygon fill="#12ffff" stroke="#12ffff" points="79.57,-100.7 75.03,-97.96 76.87,-102.93 79.57,-100.7"/>
</a>
</g>
</g>
</g>
</svg>
