<?xml version="1.0" encoding="UTF-8" standalone="no"?>
<!DOCTYPE svg PUBLIC "-//W3C//DTD SVG 1.1//EN"
 "http://www.w3.org/Graphics/SVG/1.1/DTD/svg11.dtd">
<!-- Generated by graphviz version 3.0.0 (20220226.1711)
 -->
<!-- Title: 9_pilot02_65 Pages: 1 -->
<svg width="108pt" height="245pt"
 viewBox="0.00 0.00 108.00 245.00" xmlns="http://www.w3.org/2000/svg" xmlns:xlink="http://www.w3.org/1999/xlink">
<g id="graph0" class="graph" transform="scale(1 1) rotate(0) translate(4 241)">
<title>9_pilot02_65</title>
<polygon fill="white" stroke="transparent" points="-4,4 -4,-241 104,-241 104,4 -4,4"/>
<g id="clust1" class="cluster">
<title>cluster_9_pilot02_65</title>
<polygon fill="none" stroke="black" points="8,-8 8,-229 92,-229 92,-8 8,-8"/>
<text text-anchor="middle" x="23" y="-213.8" font-family="Times,serif" font-size="14.00">65</text>
</g>
<!-- pilot02_09_stac_1338587696 -->
<g id="node1" class="node">
<title>pilot02_09_stac_1338587696</title>
<g id="a_node1"><a xlink:title="1 &#160;Cat &#160;i need clay">
<ellipse fill="black" stroke="black" cx="53" cy="-194.5" rx="3.5" ry="3.5"/>
</a>
</g>
</g>
<!-- pilot02_09_stac_1338597696 -->
<g id="node2" class="node">
<title>pilot02_09_stac_1338597696</title>
<g id="a_node2"><a xlink:title="2 &#160;Cat &#160;I can give wheat">
<ellipse fill="black" stroke="black" cx="20" cy="-169.5" rx="3.5" ry="3.5"/>
</a>
</g>
</g>
<!-- pilot02_09_stac_1338587696&#45;&gt;pilot02_09_stac_1338597696 -->
<g id="edge6" class="edge">
<title>pilot02_09_stac_1338587696&#45;&gt;pilot02_09_stac_1338597696</title>
<g id="a_edge6"><a xlink:title="Elaboration">
<path fill="none" stroke="#a621c7" d="M50.41,-191.7C45.37,-188.18 34.11,-180.33 26.8,-175.24"/>
<polygon fill="#a621c7" stroke="#a621c7" points="27.59,-173.66 22.49,-172.23 25.59,-176.53 27.59,-173.66"/>
</a>
</g>
</g>
<!-- pilot02_09_stac_1338607696 -->
<g id="node3" class="node">
<title>pilot02_09_stac_1338607696</title>
<g id="a_node3"><a xlink:title="3 &#160;william &#160;na">
<ellipse fill="black" stroke="black" cx="40" cy="-144.5" rx="3.5" ry="3.5"/>
</a>
</g>
</g>
<!-- pilot02_09_stac_1338587696&#45;&gt;pilot02_09_stac_1338607696 -->
<g id="edge7" class="edge">
<title>pilot02_09_stac_1338587696&#45;&gt;pilot02_09_stac_1338607696</title>
<g id="a_edge7"><a xlink:title="Question_answer_pair">
<path fill="none" stroke="#12ffff" d="M52.3,-190.92C50.4,-183.89 45.06,-164.19 42.08,-153.18"/>
<polygon fill="#12ffff" stroke="#12ffff" points="43.76,-152.7 40.77,-148.33 40.39,-153.62 43.76,-152.7"/>
</a>
</g>
</g>
<!-- pilot02_09_stac_1338617696 -->
<g id="node4" class="node">
<title>pilot02_09_stac_1338617696</title>
<g id="a_node4"><a xlink:title="4 &#160;Thomas &#160;sorry nope">
<ellipse fill="black" stroke="black" cx="60" cy="-119.5" rx="3.5" ry="3.5"/>
</a>
</g>
</g>
<!-- pilot02_09_stac_1338587696&#45;&gt;pilot02_09_stac_1338617696 -->
<g id="edge8" class="edge">
<title>pilot02_09_stac_1338587696&#45;&gt;pilot02_09_stac_1338617696</title>
<g id="a_edge8"><a xlink:title="Question_answer_pair">
<path fill="none" stroke="#12ffff" d="M53.27,-190.73C54.24,-180.52 57.67,-144.78 59.22,-128.59"/>
<polygon fill="#12ffff" stroke="#12ffff" points="61,-128.42 59.73,-123.28 57.51,-128.09 61,-128.42"/>
</a>
</g>
</g>
<!-- pilot02_09_stac_1338627696 -->
<g id="node5" class="node">
<title>pilot02_09_stac_1338627696</title>
<g id="a_node5"><a xlink:title="5 &#160;Cat &#160;can someone give me a sheep?">
<ellipse fill="black" stroke="black" cx="61" cy="-94.5" rx="3.5" ry="3.5"/>
</a>
</g>
</g>
<!-- pilot02_09_stac_1338587696&#45;&gt;pilot02_09_stac_1338627696 -->
<g id="edge9" class="edge">
<title>pilot02_09_stac_1338587696&#45;&gt;pilot02_09_stac_1338627696</title>
<g id="a_edge9"><a xlink:title="ParallNarrContinuationbackground">
<path fill="none" stroke="#0ab046" d="M54.06,-190.87C57.67,-181.71 69.51,-150.26 73,-123 73.39,-119.91 73.81,-119 73,-116 71.6,-110.85 68.55,-105.67 65.88,-101.81"/>
<polygon fill="#0ab046" stroke="#0ab046" points="67.23,-100.69 62.84,-97.71 64.42,-102.77 67.23,-100.69"/>
</a>
</g>
</g>
<!-- pilot02_09_stac_1338597696&#45;&gt;pilot02_09_stac_1338607696 -->
<!-- pilot02_09_stac_1338607696&#45;&gt;pilot02_09_stac_1338617696 -->
<!-- pilot02_09_stac_1338617696&#45;&gt;pilot02_09_stac_1338627696 -->
<!-- pilot02_09_stac_1338637696 -->
<g id="node6" class="node">
<title>pilot02_09_stac_1338637696</title>
<g id="a_node6"><a xlink:title="6 &#160;william &#160;nope">
<ellipse fill="black" stroke="black" cx="38" cy="-69.5" rx="3.5" ry="3.5"/>
</a>
</g>
</g>
<!-- pilot02_09_stac_1338627696&#45;&gt;pilot02_09_stac_1338637696 -->
<g id="edge10" class="edge">
<title>pilot02_09_stac_1338627696&#45;&gt;pilot02_09_stac_1338637696</title>
<g id="a_edge10"><a xlink:title="Question_answer_pair">
<path fill="none" stroke="#12ffff" d="M58.88,-91.38C55.54,-88.04 48.95,-81.45 44.06,-76.56"/>
<polygon fill="#12ffff" stroke="#12ffff" points="45.23,-75.26 40.46,-72.96 42.76,-77.73 45.23,-75.26"/>
</a>
</g>
</g>
<!-- pilot02_09_stac_1338647696 -->
<g id="node7" class="node">
<title>pilot02_09_stac_1338647696</title>
<g id="a_node7"><a xlink:title="7 &#160;Thomas &#160;n">
<ellipse fill="black" stroke="black" cx="59" cy="-44.5" rx="3.5" ry="3.5"/>
</a>
</g>
</g>
<!-- pilot02_09_stac_1338627696&#45;&gt;pilot02_09_stac_1338647696 -->
<g id="edge11" class="edge">
<title>pilot02_09_stac_1338627696&#45;&gt;pilot02_09_stac_1338647696</title>
<g id="a_edge11"><a xlink:title="Question_answer_pair">
<path fill="none" stroke="#12ffff" d="M60.89,-90.92C60.6,-83.95 59.79,-64.55 59.33,-53.49"/>
<polygon fill="#12ffff" stroke="#12ffff" points="61.07,-53.26 59.12,-48.33 57.58,-53.4 61.07,-53.26"/>
</a>
</g>
</g>
<!-- pilot02_09_stac_1338667696 -->
<g id="node8" class="node">
<title>pilot02_09_stac_1338667696</title>
<g id="a_node8"><a xlink:title="8 &#160;william &#160;there is just no market for sheep...">
<ellipse fill="black" stroke="black" cx="59" cy="-19.5" rx="3.5" ry="3.5"/>
</a>
</g>
</g>
<!-- pilot02_09_stac_1338627696&#45;&gt;pilot02_09_stac_1338667696 -->
<g id="edge12" class="edge">
<title>pilot02_09_stac_1338627696&#45;&gt;pilot02_09_stac_1338667696</title>
<g id="a_edge12"><a xlink:title="Question_answer_pair">
<path fill="none" stroke="#12ffff" d="M62.35,-91.06C66.35,-83.52 77.5,-59.96 72,-41 70.48,-35.76 67.18,-30.58 64.28,-26.74"/>
<polygon fill="#12ffff" stroke="#12ffff" points="65.5,-25.47 60.99,-22.69 62.78,-27.67 65.5,-25.47"/>
</a>
</g>
</g>
<!-- pilot02_09_stac_1338637696&#45;&gt;pilot02_09_stac_1338647696 -->
<!-- pilot02_09_stac_1338637696&#45;&gt;pilot02_09_stac_1338667696 -->
<g id="edge13" class="edge">
<title>pilot02_09_stac_1338637696&#45;&gt;pilot02_09_stac_1338667696</title>
<g id="a_edge13"><a xlink:title="ExplanationResult">
<path fill="none" stroke="#a62139" d="M38.66,-65.85C39.96,-60.87 43.04,-49.8 47,-41 49.19,-36.13 52.23,-30.95 54.7,-27.01"/>
<polygon fill="#a62139" stroke="#a62139" points="56.18,-27.96 57.43,-22.81 53.24,-26.06 56.18,-27.96"/>
</a>
</g>
</g>
<!-- pilot02_09_stac_1338647696&#45;&gt;pilot02_09_stac_1338667696 -->
</g>
</svg>
