<?xml version="1.0" encoding="UTF-8" standalone="no"?>
<!DOCTYPE svg PUBLIC "-//W3C//DTD SVG 1.1//EN"
 "http://www.w3.org/Graphics/SVG/1.1/DTD/svg11.dtd">
<!-- Generated by graphviz version 3.0.0 (20220226.1711)
 -->
<!-- Title: 10_pilot02_66 Pages: 1 -->
<svg width="113pt" height="270pt"
 viewBox="0.00 0.00 113.00 270.00" xmlns="http://www.w3.org/2000/svg" xmlns:xlink="http://www.w3.org/1999/xlink">
<g id="graph0" class="graph" transform="scale(1 1) rotate(0) translate(4 266)">
<title>10_pilot02_66</title>
<polygon fill="white" stroke="transparent" points="-4,4 -4,-266 109,-266 109,4 -4,4"/>
<g id="clust1" class="cluster">
<title>cluster_10_pilot02_66</title>
<polygon fill="none" stroke="black" points="8,-8 8,-254 97,-254 97,-8 8,-8"/>
<text text-anchor="middle" x="23" y="-238.8" font-family="Times,serif" font-size="14.00">66</text>
</g>
<!-- pilot02_10_stac_1338387699 -->
<g id="node1" class="node">
<title>pilot02_10_stac_1338387699</title>
<g id="a_node1"><a xlink:title="1 &#160;Thomas &#160;2 ore for a wheat?">
<ellipse fill="black" stroke="black" cx="60" cy="-219.5" rx="3.5" ry="3.5"/>
</a>
</g>
</g>
<!-- 1_0 -->
<!-- pilot02_10_stac_1338387699&#45;&gt;1_0 -->
<!-- pilot02_10_stac_1338397699 -->
<g id="node3" class="node">
<title>pilot02_10_stac_1338397699</title>
<g id="a_node3"><a xlink:title="2 &#160;william &#160;are you givinig 2 ore?">
<ellipse fill="black" stroke="black" cx="60" cy="-194.5" rx="3.5" ry="3.5"/>
</a>
</g>
</g>
<!-- pilot02_10_stac_1338387699&#45;&gt;pilot02_10_stac_1338397699 -->
<g id="edge12" class="edge">
<title>pilot02_10_stac_1338387699&#45;&gt;pilot02_10_stac_1338397699</title>
<g id="a_edge12"><a xlink:title="Q_Elab">
<path fill="none" stroke="#0d20ff" d="M60,-215.68C60,-212.58 60,-207.47 60,-203.16"/>
<polygon fill="#0d20ff" stroke="#0d20ff" points="61.75,-203.06 60,-198.06 58.25,-203.06 61.75,-203.06"/>
</a>
</g>
</g>
<!-- 2_0 -->
<!-- pilot02_10_stac_1338397699&#45;&gt;2_0 -->
<!-- pilot02_10_stac_1338407699 -->
<g id="node5" class="node">
<title>pilot02_10_stac_1338407699</title>
<g id="a_node5"><a xlink:title="3 &#160;william &#160;then yes">
<ellipse fill="black" stroke="black" cx="20" cy="-169.5" rx="3.5" ry="3.5"/>
</a>
</g>
</g>
<!-- pilot02_10_stac_1338397699&#45;&gt;pilot02_10_stac_1338407699 -->
<g id="edge13" class="edge">
<title>pilot02_10_stac_1338397699&#45;&gt;pilot02_10_stac_1338407699</title>
<g id="a_edge13"><a xlink:title="ExplanationResult">
<path fill="none" stroke="#a62139" d="M57.38,-191.99C51.33,-188.52 36.26,-179.85 27.21,-174.64"/>
<polygon fill="#a62139" stroke="#a62139" points="27.89,-173.02 22.69,-172.04 26.15,-176.05 27.89,-173.02"/>
</a>
</g>
</g>
<!-- pilot02_10_stac_1338417699 -->
<g id="node7" class="node">
<title>pilot02_10_stac_1338417699</title>
<g id="a_node7"><a xlink:title="4 &#160;Thomas &#160;yes">
<ellipse fill="black" stroke="black" cx="40" cy="-144.5" rx="3.5" ry="3.5"/>
</a>
</g>
</g>
<!-- pilot02_10_stac_1338397699&#45;&gt;pilot02_10_stac_1338417699 -->
<g id="edge14" class="edge">
<title>pilot02_10_stac_1338397699&#45;&gt;pilot02_10_stac_1338417699</title>
<g id="a_edge14"><a xlink:title="Question_answer_pair">
<path fill="none" stroke="#12ffff" d="M60.35,-190.79C60.9,-185.71 61.55,-174.48 58,-166 55.47,-159.97 50.44,-154.48 46.33,-150.7"/>
<polygon fill="#12ffff" stroke="#12ffff" points="47.34,-149.26 42.41,-147.33 45.06,-151.92 47.34,-149.26"/>
</a>
</g>
</g>
<!-- pilot02_10_stac_1338457699 -->
<g id="node11" class="node">
<title>pilot02_10_stac_1338457699</title>
<g id="a_node11"><a xlink:title="6 &#160;Thomas &#160;can I buy wood for 1 ore?">
<ellipse fill="black" stroke="black" cx="50" cy="-94.5" rx="3.5" ry="3.5"/>
</a>
</g>
</g>
<!-- pilot02_10_stac_1338397699&#45;&gt;pilot02_10_stac_1338457699 -->
<g id="edge16" class="edge">
<title>pilot02_10_stac_1338397699&#45;&gt;pilot02_10_stac_1338457699</title>
<g id="a_edge16"><a xlink:title="Q_Elab">
<path fill="none" stroke="#0d20ff" d="M61.6,-191.21C68.15,-181.55 91.87,-143.35 78,-116 73.83,-107.77 64.63,-102.05 57.91,-98.78"/>
<polygon fill="#0d20ff" stroke="#0d20ff" points="58.29,-97.04 53.01,-96.61 56.88,-100.24 58.29,-97.04"/>
</a>
</g>
</g>
<!-- 3_0 -->
<!-- pilot02_10_stac_1338407699&#45;&gt;3_0 -->
<!-- pilot02_10_stac_1338407699&#45;&gt;pilot02_10_stac_1338417699 -->
<!-- 4_0 -->
<!-- pilot02_10_stac_1338417699&#45;&gt;4_0 -->
<!-- pilot02_10_stac_1338427699 -->
<g id="node9" class="node">
<title>pilot02_10_stac_1338427699</title>
<g id="a_node9"><a xlink:title="5 &#160;william &#160;k">
<ellipse fill="black" stroke="black" cx="40" cy="-119.5" rx="3.5" ry="3.5"/>
</a>
</g>
</g>
<!-- pilot02_10_stac_1338417699&#45;&gt;pilot02_10_stac_1338427699 -->
<g id="edge15" class="edge">
<title>pilot02_10_stac_1338417699&#45;&gt;pilot02_10_stac_1338427699</title>
<g id="a_edge15"><a xlink:title="Acknowledgement">
<path fill="none" stroke="#12ffff" d="M40,-140.68C40,-137.58 40,-132.47 40,-128.16"/>
<polygon fill="#12ffff" stroke="#12ffff" points="41.75,-128.06 40,-123.06 38.25,-128.06 41.75,-128.06"/>
</a>
</g>
</g>
<!-- 5_0 -->
<!-- pilot02_10_stac_1338427699&#45;&gt;5_0 -->
<!-- pilot02_10_stac_1338427699&#45;&gt;pilot02_10_stac_1338457699 -->
<!-- 6_0 -->
<!-- pilot02_10_stac_1338457699&#45;&gt;6_0 -->
<!-- pilot02_10_stac_1338467699 -->
<g id="node13" class="node">
<title>pilot02_10_stac_1338467699</title>
<g id="a_node13"><a xlink:title="7 &#160;william &#160;hav none">
<ellipse fill="black" stroke="black" cx="30" cy="-69.5" rx="3.5" ry="3.5"/>
</a>
</g>
</g>
<!-- pilot02_10_stac_1338457699&#45;&gt;pilot02_10_stac_1338467699 -->
<g id="edge17" class="edge">
<title>pilot02_10_stac_1338457699&#45;&gt;pilot02_10_stac_1338467699</title>
<g id="a_edge17"><a xlink:title="Question_answer_pair">
<path fill="none" stroke="#12ffff" d="M48.15,-91.38C45.31,-88.11 39.75,-81.71 35.52,-76.85"/>
<polygon fill="#12ffff" stroke="#12ffff" points="36.74,-75.59 32.14,-72.96 34.1,-77.88 36.74,-75.59"/>
</a>
</g>
</g>
<!-- pilot02_10_stac_1338477699 -->
<g id="node17" class="node">
<title>pilot02_10_stac_1338477699</title>
<g id="a_node17"><a xlink:title="8 &#160;Cat &#160;no ">
<ellipse fill="black" stroke="black" cx="40" cy="-44.5" rx="3.5" ry="3.5"/>
</a>
</g>
</g>
<!-- pilot02_10_stac_1338457699&#45;&gt;pilot02_10_stac_1338477699 -->
<g id="edge18" class="edge">
<title>pilot02_10_stac_1338457699&#45;&gt;pilot02_10_stac_1338477699</title>
<g id="a_edge18"><a xlink:title="Question_answer_pair">
<path fill="none" stroke="#12ffff" d="M52.58,-91.84C58.71,-87.68 73.27,-76.38 68,-66 63.83,-57.77 54.63,-52.05 47.91,-48.78"/>
<polygon fill="#12ffff" stroke="#12ffff" points="48.29,-47.04 43.01,-46.61 46.88,-50.24 48.29,-47.04"/>
</a>
</g>
</g>
<!-- 7_0 -->
<!-- pilot02_10_stac_1338467699&#45;&gt;7_0 -->
<!-- pilot02_10_stac_1338467699&#45;&gt;pilot02_10_stac_1338477699 -->
<!-- pilot02_10_stac_1338487699 -->
<g id="node15" class="node">
<title>pilot02_10_stac_1338487699</title>
<g id="a_node15"><a xlink:title="9 &#160;Thomas &#160;kk">
<ellipse fill="black" stroke="black" cx="45" cy="-19.5" rx="3.5" ry="3.5"/>
</a>
</g>
</g>
<!-- 9_0 -->
<!-- pilot02_10_stac_1338487699&#45;&gt;9_0 -->
<!-- pilot02_10_stac_1338477699&#45;&gt;pilot02_10_stac_1338487699 -->
<g id="edge20" class="edge">
<title>pilot02_10_stac_1338477699&#45;&gt;pilot02_10_stac_1338487699</title>
<g id="a_edge20"><a xlink:title="Acknowledgement">
<path fill="none" stroke="#12ffff" d="M40.54,-41.04C41.2,-37.97 42.37,-32.6 43.34,-28.12"/>
<polygon fill="#12ffff" stroke="#12ffff" points="45.07,-28.41 44.42,-23.16 41.65,-27.67 45.07,-28.41"/>
</a>
</g>
</g>
<!-- pilot02_10_stac_1338477700 -->
<g id="node18" class="node">
<title>pilot02_10_stac_1338477700</title>
<g id="a_node18"><a xlink:title="8 &#160;Cat &#160;sorry">
<ellipse fill="black" stroke="black" cx="65" cy="-44.5" rx="3.5" ry="3.5"/>
</a>
</g>
</g>
<!-- pilot02_10_stac_1338477699&#45;&gt;pilot02_10_stac_1338477700 -->
<g id="edge19" class="edge">
<title>pilot02_10_stac_1338477699&#45;&gt;pilot02_10_stac_1338477700</title>
<g id="a_edge19"><a xlink:title="Comment">
<path fill="none" stroke="#ff8200" d="M43.52,-44.5C47.78,-44.5 52.04,-44.5 56.3,-44.5"/>
<polygon fill="#ff8200" stroke="#ff8200" points="56.31,-46.25 61.31,-44.5 56.31,-42.75 56.31,-46.25"/>
</a>
</g>
</g>
<!-- pilot02_10_stac_1338477700&#45;&gt;pilot02_10_stac_1338487699 -->
<g id="edge21" class="edge">
<title>pilot02_10_stac_1338477700&#45;&gt;pilot02_10_stac_1338487699</title>
<g id="a_edge21"><a xlink:title="Acknowledgement">
<path fill="none" stroke="#12ffff" d="M63.15,-41.38C60.31,-38.11 54.75,-31.71 50.52,-26.85"/>
<polygon fill="#12ffff" stroke="#12ffff" points="51.74,-25.59 47.14,-22.96 49.1,-27.88 51.74,-25.59"/>
</a>
</g>
</g>
</g>
</svg>
