<?xml version="1.0" encoding="UTF-8" standalone="no"?>
<!DOCTYPE svg PUBLIC "-//W3C//DTD SVG 1.1//EN"
 "http://www.w3.org/Graphics/SVG/1.1/DTD/svg11.dtd">
<!-- Generated by graphviz version 3.0.0 (20220226.1711)
 -->
<!-- Title: 10_pilot02_67 Pages: 1 -->
<svg width="108pt" height="245pt"
 viewBox="0.00 0.00 108.00 245.00" xmlns="http://www.w3.org/2000/svg" xmlns:xlink="http://www.w3.org/1999/xlink">
<g id="graph0" class="graph" transform="scale(1 1) rotate(0) translate(4 241)">
<title>10_pilot02_67</title>
<polygon fill="white" stroke="transparent" points="-4,4 -4,-241 104,-241 104,4 -4,4"/>
<g id="clust1" class="cluster">
<title>cluster_10_pilot02_67</title>
<polygon fill="none" stroke="black" points="8,-8 8,-229 92,-229 92,-8 8,-8"/>
<text text-anchor="middle" x="23" y="-213.8" font-family="Times,serif" font-size="14.00">67</text>
</g>
<!-- pilot02_10_stac_1338517699 -->
<g id="node1" class="node">
<title>pilot02_10_stac_1338517699</title>
<g id="a_node1"><a xlink:title="1 &#160;william &#160;theres your wood">
<ellipse fill="black" stroke="black" cx="53" cy="-194.5" rx="3.5" ry="3.5"/>
</a>
</g>
</g>
<!-- pilot02_10_stac_1338537699 -->
<g id="node2" class="node">
<title>pilot02_10_stac_1338537699</title>
<g id="a_node2"><a xlink:title="2 &#160;william &#160;does someone need clay?">
<ellipse fill="black" stroke="black" cx="53" cy="-169.5" rx="3.5" ry="3.5"/>
</a>
</g>
</g>
<!-- pilot02_10_stac_1338517699&#45;&gt;pilot02_10_stac_1338537699 -->
<g id="edge6" class="edge">
<title>pilot02_10_stac_1338517699&#45;&gt;pilot02_10_stac_1338537699</title>
<g id="a_edge6"><a xlink:title="ParallNarrContinuationbackground">
<path fill="none" stroke="#0ab046" d="M53,-190.68C53,-187.58 53,-182.47 53,-178.16"/>
<polygon fill="#0ab046" stroke="#0ab046" points="54.75,-178.06 53,-173.06 51.25,-178.06 54.75,-178.06"/>
</a>
</g>
</g>
<!-- pilot02_10_stac_1338547699 -->
<g id="node3" class="node">
<title>pilot02_10_stac_1338547699</title>
<g id="a_node3"><a xlink:title="3 &#160;william &#160;i will take sheep or ore">
<ellipse fill="black" stroke="black" cx="20" cy="-144.5" rx="3.5" ry="3.5"/>
</a>
</g>
</g>
<!-- pilot02_10_stac_1338537699&#45;&gt;pilot02_10_stac_1338547699 -->
<g id="edge7" class="edge">
<title>pilot02_10_stac_1338537699&#45;&gt;pilot02_10_stac_1338547699</title>
<g id="a_edge7"><a xlink:title="Elaboration">
<path fill="none" stroke="#a621c7" d="M50.41,-166.7C45.37,-163.18 34.11,-155.33 26.8,-150.24"/>
<polygon fill="#a621c7" stroke="#a621c7" points="27.59,-148.66 22.49,-147.23 25.59,-151.53 27.59,-148.66"/>
</a>
</g>
</g>
<!-- pilot02_10_stac_1338557699 -->
<g id="node4" class="node">
<title>pilot02_10_stac_1338557699</title>
<g id="a_node4"><a xlink:title="4 &#160;Cat &#160;I can trade wood">
<ellipse fill="black" stroke="black" cx="40" cy="-119.5" rx="3.5" ry="3.5"/>
</a>
</g>
</g>
<!-- pilot02_10_stac_1338537699&#45;&gt;pilot02_10_stac_1338557699 -->
<g id="edge8" class="edge">
<title>pilot02_10_stac_1338537699&#45;&gt;pilot02_10_stac_1338557699</title>
<g id="a_edge8"><a xlink:title="Question_answer_pair">
<path fill="none" stroke="#12ffff" d="M52.3,-165.92C50.4,-158.89 45.06,-139.19 42.08,-128.18"/>
<polygon fill="#12ffff" stroke="#12ffff" points="43.76,-127.7 40.77,-123.33 40.39,-128.62 43.76,-127.7"/>
</a>
</g>
</g>
<!-- pilot02_10_stac_1338567699 -->
<g id="node5" class="node">
<title>pilot02_10_stac_1338567699</title>
<g id="a_node5"><a xlink:title="5 &#160;Thomas &#160;nope">
<ellipse fill="black" stroke="black" cx="59" cy="-94.5" rx="3.5" ry="3.5"/>
</a>
</g>
</g>
<!-- pilot02_10_stac_1338537699&#45;&gt;pilot02_10_stac_1338567699 -->
<g id="edge9" class="edge">
<title>pilot02_10_stac_1338537699&#45;&gt;pilot02_10_stac_1338567699</title>
<g id="a_edge9"><a xlink:title="Question_answer_pair">
<path fill="none" stroke="#12ffff" d="M53.23,-165.73C54.07,-155.52 57,-119.78 58.34,-103.59"/>
<polygon fill="#12ffff" stroke="#12ffff" points="60.11,-103.4 58.77,-98.28 56.62,-103.12 60.11,-103.4"/>
</a>
</g>
</g>
<!-- pilot02_10_stac_1338577699 -->
<g id="node6" class="node">
<title>pilot02_10_stac_1338577699</title>
<g id="a_node6"><a xlink:title="6 &#160;Cat &#160;for clay">
<ellipse fill="black" stroke="black" cx="80" cy="-69.5" rx="3.5" ry="3.5"/>
</a>
</g>
</g>
<!-- pilot02_10_stac_1338537699&#45;&gt;pilot02_10_stac_1338577699 -->
<g id="edge10" class="edge">
<title>pilot02_10_stac_1338537699&#45;&gt;pilot02_10_stac_1338577699</title>
<g id="a_edge10"><a xlink:title="Question_answer_pair">
<path fill="none" stroke="#12ffff" d="M53.79,-165.85C54.96,-161.95 57.19,-154.42 59,-148 66.21,-122.41 74.34,-91.93 78.01,-78.05"/>
<polygon fill="#12ffff" stroke="#12ffff" points="79.71,-78.46 79.29,-73.18 76.32,-77.57 79.71,-78.46"/>
</a>
</g>
</g>
<!-- pilot02_10_stac_1338547699&#45;&gt;pilot02_10_stac_1338557699 -->
<!-- pilot02_10_stac_1338557699&#45;&gt;pilot02_10_stac_1338567699 -->
<!-- pilot02_10_stac_1338567699&#45;&gt;pilot02_10_stac_1338577699 -->
<!-- pilot02_10_stac_1338587699 -->
<g id="node7" class="node">
<title>pilot02_10_stac_1338587699</title>
<g id="a_node7"><a xlink:title="7 &#160;william &#160;k">
<ellipse fill="black" stroke="black" cx="57" cy="-44.5" rx="3.5" ry="3.5"/>
</a>
</g>
</g>
<!-- pilot02_10_stac_1338567699&#45;&gt;pilot02_10_stac_1338587699 -->
<g id="edge11" class="edge">
<title>pilot02_10_stac_1338567699&#45;&gt;pilot02_10_stac_1338587699</title>
<g id="a_edge11"><a xlink:title="Acknowledgement">
<path fill="none" stroke="#12ffff" d="M58.89,-90.92C58.6,-83.95 57.79,-64.55 57.33,-53.49"/>
<polygon fill="#12ffff" stroke="#12ffff" points="59.07,-53.26 57.12,-48.33 55.58,-53.4 59.07,-53.26"/>
</a>
</g>
</g>
<!-- pilot02_10_stac_1338577699&#45;&gt;pilot02_10_stac_1338587699 -->
<!-- pilot02_10_stac_1338597699 -->
<g id="node8" class="node">
<title>pilot02_10_stac_1338597699</title>
<g id="a_node8"><a xlink:title="8 &#160;Cat &#160;or ore">
<ellipse fill="black" stroke="black" cx="68" cy="-19.5" rx="3.5" ry="3.5"/>
</a>
</g>
</g>
<!-- pilot02_10_stac_1338577699&#45;&gt;pilot02_10_stac_1338597699 -->
<g id="edge12" class="edge">
<title>pilot02_10_stac_1338577699&#45;&gt;pilot02_10_stac_1338597699</title>
<g id="a_edge12"><a xlink:title="Alternation">
<path fill="none" stroke="#10495e" d="M79.35,-65.92C77.61,-58.95 72.76,-39.55 70,-28.49"/>
<polygon fill="#10495e" stroke="#10495e" points="71.62,-27.76 68.71,-23.33 68.22,-28.61 71.62,-27.76"/>
</a>
</g>
</g>
<!-- pilot02_10_stac_1338587699&#45;&gt;pilot02_10_stac_1338597699 -->
</g>
</svg>
