<?xml version="1.0" encoding="UTF-8" standalone="no"?>
<!DOCTYPE svg PUBLIC "-//W3C//DTD SVG 1.1//EN"
 "http://www.w3.org/Graphics/SVG/1.1/DTD/svg11.dtd">
<!-- Generated by graphviz version 3.0.0 (20220226.1711)
 -->
<!-- Title: 11_pilot02_68 Pages: 1 -->
<svg width="88pt" height="370pt"
 viewBox="0.00 0.00 88.00 370.00" xmlns="http://www.w3.org/2000/svg" xmlns:xlink="http://www.w3.org/1999/xlink">
<g id="graph0" class="graph" transform="scale(1 1) rotate(0) translate(4 366)">
<title>11_pilot02_68</title>
<polygon fill="white" stroke="transparent" points="-4,4 -4,-366 84,-366 84,4 -4,4"/>
<g id="clust1" class="cluster">
<title>cluster_11_pilot02_68</title>
<polygon fill="none" stroke="black" points="8,-8 8,-354 72,-354 72,-8 8,-8"/>
<text text-anchor="middle" x="23" y="-338.8" font-family="Times,serif" font-size="14.00">68</text>
</g>
<!-- pilot02_11_stac_1338397702 -->
<g id="node1" class="node">
<title>pilot02_11_stac_1338397702</title>
<g id="a_node1"><a xlink:title="1 &#160;Cat &#160;would anyone like wheat?">
<ellipse fill="black" stroke="black" cx="43" cy="-319.5" rx="3.5" ry="3.5"/>
</a>
</g>
</g>
<!-- pilot02_11_stac_1338407702 -->
<g id="node2" class="node">
<title>pilot02_11_stac_1338407702</title>
<g id="a_node2"><a xlink:title="2 &#160;Thomas &#160;yes please">
<ellipse fill="black" stroke="black" cx="20" cy="-294.5" rx="3.5" ry="3.5"/>
</a>
</g>
</g>
<!-- pilot02_11_stac_1338397702&#45;&gt;pilot02_11_stac_1338407702 -->
<g id="edge4" class="edge">
<title>pilot02_11_stac_1338397702&#45;&gt;pilot02_11_stac_1338407702</title>
<g id="a_edge4"><a xlink:title="Question_answer_pair">
<path fill="none" stroke="#12ffff" d="M40.88,-316.38C37.54,-313.04 30.95,-306.45 26.06,-301.56"/>
<polygon fill="#12ffff" stroke="#12ffff" points="27.23,-300.26 22.46,-297.96 24.76,-302.73 27.23,-300.26"/>
</a>
</g>
</g>
<!-- pilot02_11_stac_1338417702 -->
<g id="node3" class="node">
<title>pilot02_11_stac_1338417702</title>
<g id="a_node3"><a xlink:title="3 &#160;Cat &#160;I need clay or ore">
<ellipse fill="black" stroke="black" cx="39" cy="-269.5" rx="3.5" ry="3.5"/>
</a>
</g>
</g>
<!-- pilot02_11_stac_1338397702&#45;&gt;pilot02_11_stac_1338417702 -->
<g id="edge5" class="edge">
<title>pilot02_11_stac_1338397702&#45;&gt;pilot02_11_stac_1338417702</title>
<g id="a_edge5"><a xlink:title="Elaboration">
<path fill="none" stroke="#a621c7" d="M42.78,-315.92C42.2,-308.95 40.59,-289.55 39.67,-278.49"/>
<polygon fill="#a621c7" stroke="#a621c7" points="41.4,-278.17 39.24,-273.33 37.91,-278.46 41.4,-278.17"/>
</a>
</g>
</g>
<!-- pilot02_11_stac_1338427702 -->
<g id="node4" class="node">
<title>pilot02_11_stac_1338427702</title>
<g id="a_node4"><a xlink:title="4 &#160;Thomas &#160;I can give an ore">
<ellipse fill="black" stroke="black" cx="60" cy="-244.5" rx="3.5" ry="3.5"/>
</a>
</g>
</g>
<!-- pilot02_11_stac_1338397702&#45;&gt;pilot02_11_stac_1338427702 -->
<g id="edge6" class="edge">
<title>pilot02_11_stac_1338397702&#45;&gt;pilot02_11_stac_1338427702</title>
<g id="a_edge6"><a xlink:title="Question_answer_pair">
<path fill="none" stroke="#12ffff" d="M43.65,-315.73C46.04,-305.43 54.5,-269.14 58.22,-253.15"/>
<polygon fill="#12ffff" stroke="#12ffff" points="59.99,-253.24 59.42,-247.97 56.59,-252.44 59.99,-253.24"/>
</a>
</g>
</g>
<!-- pilot02_11_stac_1338407702&#45;&gt;pilot02_11_stac_1338417702 -->
<!-- pilot02_11_stac_1338417702&#45;&gt;pilot02_11_stac_1338427702 -->
<g id="edge7" class="edge">
<title>pilot02_11_stac_1338417702&#45;&gt;pilot02_11_stac_1338427702</title>
<g id="a_edge7"><a xlink:title="Question_answer_pair">
<path fill="none" stroke="#12ffff" d="M40.94,-266.38C43.92,-263.11 49.77,-256.71 54.2,-251.85"/>
<polygon fill="#12ffff" stroke="#12ffff" points="55.67,-252.83 57.75,-247.96 53.09,-250.47 55.67,-252.83"/>
</a>
</g>
</g>
<!-- pilot02_11_stac_1338467702 -->
<g id="node8" class="node">
<title>pilot02_11_stac_1338467702</title>
<g id="a_node8"><a xlink:title="8 &#160;Cat &#160;let&#39;s do the clay">
<ellipse fill="black" stroke="black" cx="38" cy="-144.5" rx="3.5" ry="3.5"/>
</a>
</g>
</g>
<!-- pilot02_11_stac_1338417702&#45;&gt;pilot02_11_stac_1338467702 -->
<g id="edge11" class="edge">
<title>pilot02_11_stac_1338417702&#45;&gt;pilot02_11_stac_1338467702</title>
<g id="a_edge11"><a xlink:title="ExplanationResult">
<path fill="none" stroke="#a62139" d="M38.82,-265.9C38.32,-258.69 37,-237.85 37,-220.5 37,-220.5 37,-220.5 37,-193.5 37,-179.28 37.44,-162.69 37.74,-153.21"/>
<polygon fill="#a62139" stroke="#a62139" points="39.49,-153.16 37.91,-148.1 36,-153.04 39.49,-153.16"/>
</a>
</g>
</g>
<!-- pilot02_11_stac_1338437702 -->
<g id="node5" class="node">
<title>pilot02_11_stac_1338437702</title>
<g id="a_node5"><a xlink:title="5 &#160;Thomas &#160;or a clay">
<ellipse fill="black" stroke="black" cx="60" cy="-219.5" rx="3.5" ry="3.5"/>
</a>
</g>
</g>
<!-- pilot02_11_stac_1338427702&#45;&gt;pilot02_11_stac_1338437702 -->
<g id="edge8" class="edge">
<title>pilot02_11_stac_1338427702&#45;&gt;pilot02_11_stac_1338437702</title>
<g id="a_edge8"><a xlink:title="Alternation">
<path fill="none" stroke="#10495e" d="M60,-240.68C60,-237.58 60,-232.47 60,-228.16"/>
<polygon fill="#10495e" stroke="#10495e" points="61.75,-228.06 60,-223.06 58.25,-228.06 61.75,-228.06"/>
</a>
</g>
</g>
<!-- pilot02_11_stac_1338447702 -->
<g id="node6" class="node">
<title>pilot02_11_stac_1338447702</title>
<g id="a_node6"><a xlink:title="6 &#160;Cat &#160;or a sheep!">
<ellipse fill="black" stroke="black" cx="60" cy="-194.5" rx="3.5" ry="3.5"/>
</a>
</g>
</g>
<!-- pilot02_11_stac_1338437702&#45;&gt;pilot02_11_stac_1338447702 -->
<g id="edge9" class="edge">
<title>pilot02_11_stac_1338437702&#45;&gt;pilot02_11_stac_1338447702</title>
<g id="a_edge9"><a xlink:title="Alternation">
<path fill="none" stroke="#10495e" d="M60,-215.68C60,-212.58 60,-207.47 60,-203.16"/>
<polygon fill="#10495e" stroke="#10495e" points="61.75,-203.06 60,-198.06 58.25,-203.06 61.75,-203.06"/>
</a>
</g>
</g>
<!-- pilot02_11_stac_1338457702 -->
<g id="node7" class="node">
<title>pilot02_11_stac_1338457702</title>
<g id="a_node7"><a xlink:title="7 &#160;Thomas &#160;impossible...">
<ellipse fill="black" stroke="black" cx="60" cy="-169.5" rx="3.5" ry="3.5"/>
</a>
</g>
</g>
<!-- pilot02_11_stac_1338447702&#45;&gt;pilot02_11_stac_1338457702 -->
<g id="edge10" class="edge">
<title>pilot02_11_stac_1338447702&#45;&gt;pilot02_11_stac_1338457702</title>
<g id="a_edge10"><a xlink:title="Comment">
<path fill="none" stroke="#ff8200" d="M60,-190.68C60,-187.58 60,-182.47 60,-178.16"/>
<polygon fill="#ff8200" stroke="#ff8200" points="61.75,-178.06 60,-173.06 58.25,-178.06 61.75,-178.06"/>
</a>
</g>
</g>
<!-- pilot02_11_stac_1338457702&#45;&gt;pilot02_11_stac_1338467702 -->
<!-- pilot02_11_stac_1338477702 -->
<g id="node9" class="node">
<title>pilot02_11_stac_1338477702</title>
<g id="a_node9"><a xlink:title="9 &#160;Thomas &#160;k">
<ellipse fill="black" stroke="black" cx="29" cy="-119.5" rx="3.5" ry="3.5"/>
</a>
</g>
</g>
<!-- pilot02_11_stac_1338467702&#45;&gt;pilot02_11_stac_1338477702 -->
<g id="edge12" class="edge">
<title>pilot02_11_stac_1338467702&#45;&gt;pilot02_11_stac_1338477702</title>
<g id="a_edge12"><a xlink:title="Acknowledgement">
<path fill="none" stroke="#12ffff" d="M37.04,-141.04C35.81,-137.91 33.64,-132.37 31.87,-127.83"/>
<polygon fill="#12ffff" stroke="#12ffff" points="33.38,-126.89 29.93,-122.87 30.12,-128.17 33.38,-126.89"/>
</a>
</g>
</g>
<!-- pilot02_11_stac_1338507702 -->
<g id="node10" class="node">
<title>pilot02_11_stac_1338507702</title>
<g id="a_node10"><a xlink:title="10 &#160;Cat &#160;would you like one more what for an ore?">
<ellipse fill="black" stroke="black" cx="40" cy="-94.5" rx="3.5" ry="3.5"/>
</a>
</g>
</g>
<!-- pilot02_11_stac_1338467702&#45;&gt;pilot02_11_stac_1338507702 -->
<g id="edge13" class="edge">
<title>pilot02_11_stac_1338467702&#45;&gt;pilot02_11_stac_1338507702</title>
<g id="a_edge13"><a xlink:title="ParallNarrContinuationbackground">
<path fill="none" stroke="#0ab046" d="M38.68,-140.87C39.65,-136.99 41.37,-129.5 42,-123 42.65,-116.28 41.98,-108.62 41.24,-103.1"/>
<polygon fill="#0ab046" stroke="#0ab046" points="42.96,-102.76 40.48,-98.08 39.5,-103.29 42.96,-102.76"/>
</a>
</g>
</g>
<!-- pilot02_11_stac_1338477702&#45;&gt;pilot02_11_stac_1338507702 -->
<!-- pilot02_11_stac_1338517702 -->
<g id="node11" class="node">
<title>pilot02_11_stac_1338517702</title>
<g id="a_node11"><a xlink:title="11 &#160;Thomas &#160;one more wheat?">
<ellipse fill="black" stroke="black" cx="40" cy="-69.5" rx="3.5" ry="3.5"/>
</a>
</g>
</g>
<!-- pilot02_11_stac_1338507702&#45;&gt;pilot02_11_stac_1338517702 -->
<g id="edge14" class="edge">
<title>pilot02_11_stac_1338507702&#45;&gt;pilot02_11_stac_1338517702</title>
<g id="a_edge14"><a xlink:title="Q_Elab">
<path fill="none" stroke="#0d20ff" d="M40,-90.68C40,-87.58 40,-82.47 40,-78.16"/>
<polygon fill="#0d20ff" stroke="#0d20ff" points="41.75,-78.06 40,-73.06 38.25,-78.06 41.75,-78.06"/>
</a>
</g>
</g>
<!-- pilot02_11_stac_1338527702 -->
<g id="node12" class="node">
<title>pilot02_11_stac_1338527702</title>
<g id="a_node12"><a xlink:title="12 &#160;Cat &#160;one wheat">
<ellipse fill="black" stroke="black" cx="40" cy="-44.5" rx="3.5" ry="3.5"/>
</a>
</g>
</g>
<!-- pilot02_11_stac_1338517702&#45;&gt;pilot02_11_stac_1338527702 -->
<g id="edge15" class="edge">
<title>pilot02_11_stac_1338517702&#45;&gt;pilot02_11_stac_1338527702</title>
<g id="a_edge15"><a xlink:title="Question_answer_pair">
<path fill="none" stroke="#12ffff" d="M40,-65.68C40,-62.58 40,-57.47 40,-53.16"/>
<polygon fill="#12ffff" stroke="#12ffff" points="41.75,-53.06 40,-48.06 38.25,-53.06 41.75,-53.06"/>
</a>
</g>
</g>
<!-- pilot02_11_stac_1338537702 -->
<g id="node13" class="node">
<title>pilot02_11_stac_1338537702</title>
<g id="a_node13"><a xlink:title="13 &#160;Thomas &#160;kk">
<ellipse fill="black" stroke="black" cx="40" cy="-19.5" rx="3.5" ry="3.5"/>
</a>
</g>
</g>
<!-- pilot02_11_stac_1338527702&#45;&gt;pilot02_11_stac_1338537702 -->
<g id="edge16" class="edge">
<title>pilot02_11_stac_1338527702&#45;&gt;pilot02_11_stac_1338537702</title>
<g id="a_edge16"><a xlink:title="Acknowledgement">
<path fill="none" stroke="#12ffff" d="M40,-40.68C40,-37.58 40,-32.47 40,-28.16"/>
<polygon fill="#12ffff" stroke="#12ffff" points="41.75,-28.06 40,-23.06 38.25,-28.06 41.75,-28.06"/>
</a>
</g>
</g>
</g>
</svg>
