<?xml version="1.0" encoding="UTF-8" standalone="no"?>
<!DOCTYPE svg PUBLIC "-//W3C//DTD SVG 1.1//EN"
 "http://www.w3.org/Graphics/SVG/1.1/DTD/svg11.dtd">
<!-- Generated by graphviz version 3.0.0 (20220226.1711)
 -->
<!-- Title: 11_pilot02_69 Pages: 1 -->
<svg width="88pt" height="195pt"
 viewBox="0.00 0.00 88.00 195.00" xmlns="http://www.w3.org/2000/svg" xmlns:xlink="http://www.w3.org/1999/xlink">
<g id="graph0" class="graph" transform="scale(1 1) rotate(0) translate(4 191)">
<title>11_pilot02_69</title>
<polygon fill="white" stroke="transparent" points="-4,4 -4,-191 84,-191 84,4 -4,4"/>
<g id="clust1" class="cluster">
<title>cluster_11_pilot02_69</title>
<polygon fill="none" stroke="black" points="8,-8 8,-179 72,-179 72,-8 8,-8"/>
<text text-anchor="middle" x="23" y="-163.8" font-family="Times,serif" font-size="14.00">69</text>
</g>
<!-- pilot02_11_stac_1338627702 -->
<g id="node1" class="node">
<title>pilot02_11_stac_1338627702</title>
<g id="a_node1"><a xlink:title="1 &#160;Cat &#160;anyone can give me a sheep?">
<ellipse fill="black" stroke="black" cx="43" cy="-144.5" rx="3.5" ry="3.5"/>
</a>
</g>
</g>
<!-- pilot02_11_stac_1338637702 -->
<g id="node2" class="node">
<title>pilot02_11_stac_1338637702</title>
<g id="a_node2"><a xlink:title="2 &#160;Cat &#160;for ore">
<ellipse fill="black" stroke="black" cx="20" cy="-119.5" rx="3.5" ry="3.5"/>
</a>
</g>
</g>
<!-- pilot02_11_stac_1338627702&#45;&gt;pilot02_11_stac_1338637702 -->
<g id="edge3" class="edge">
<title>pilot02_11_stac_1338627702&#45;&gt;pilot02_11_stac_1338637702</title>
<g id="a_edge3"><a xlink:title="Elaboration">
<path fill="none" stroke="#a621c7" d="M40.88,-141.38C37.54,-138.04 30.95,-131.45 26.06,-126.56"/>
<polygon fill="#a621c7" stroke="#a621c7" points="27.23,-125.26 22.46,-122.96 24.76,-127.73 27.23,-125.26"/>
</a>
</g>
</g>
<!-- pilot02_11_stac_1338647702 -->
<g id="node3" class="node">
<title>pilot02_11_stac_1338647702</title>
<g id="a_node3"><a xlink:title="3 &#160;william &#160;if you give me wood">
<ellipse fill="black" stroke="black" cx="39" cy="-94.5" rx="3.5" ry="3.5"/>
</a>
</g>
</g>
<!-- pilot02_11_stac_1338627702&#45;&gt;pilot02_11_stac_1338647702 -->
<g id="edge4" class="edge">
<title>pilot02_11_stac_1338627702&#45;&gt;pilot02_11_stac_1338647702</title>
<g id="a_edge4"><a xlink:title="Question_answer_pair">
<path fill="none" stroke="#12ffff" d="M42.78,-140.92C42.2,-133.95 40.59,-114.55 39.67,-103.49"/>
<polygon fill="#12ffff" stroke="#12ffff" points="41.4,-103.17 39.24,-98.33 37.91,-103.46 41.4,-103.17"/>
</a>
</g>
</g>
<!-- pilot02_11_stac_1338657702 -->
<g id="node4" class="node">
<title>pilot02_11_stac_1338657702</title>
<g id="a_node4"><a xlink:title="4 &#160;Thomas &#160;not me">
<ellipse fill="black" stroke="black" cx="60" cy="-69.5" rx="3.5" ry="3.5"/>
</a>
</g>
</g>
<!-- pilot02_11_stac_1338627702&#45;&gt;pilot02_11_stac_1338657702 -->
<g id="edge5" class="edge">
<title>pilot02_11_stac_1338627702&#45;&gt;pilot02_11_stac_1338657702</title>
<g id="a_edge5"><a xlink:title="Question_answer_pair">
<path fill="none" stroke="#12ffff" d="M43.65,-140.73C46.04,-130.43 54.5,-94.14 58.22,-78.15"/>
<polygon fill="#12ffff" stroke="#12ffff" points="59.99,-78.24 59.42,-72.97 56.59,-77.44 59.99,-78.24"/>
</a>
</g>
</g>
<!-- pilot02_11_stac_1338637702&#45;&gt;pilot02_11_stac_1338647702 -->
<!-- pilot02_11_stac_1338647702&#45;&gt;pilot02_11_stac_1338657702 -->
<g id="edge6" class="edge">
<title>pilot02_11_stac_1338647702&#45;&gt;pilot02_11_stac_1338657702</title>
<g id="a_edge6"><a xlink:title="Question_answer_pair">
<path fill="none" stroke="#12ffff" d="M40.94,-91.38C43.92,-88.11 49.77,-81.71 54.2,-76.85"/>
<polygon fill="#12ffff" stroke="#12ffff" points="55.67,-77.83 57.75,-72.96 53.09,-75.47 55.67,-77.83"/>
</a>
</g>
</g>
<!-- pilot02_11_stac_1338667702 -->
<g id="node5" class="node">
<title>pilot02_11_stac_1338667702</title>
<g id="a_node5"><a xlink:title="5 &#160;Cat &#160;for two ore?">
<ellipse fill="black" stroke="black" cx="48" cy="-44.5" rx="3.5" ry="3.5"/>
</a>
</g>
</g>
<!-- pilot02_11_stac_1338647702&#45;&gt;pilot02_11_stac_1338667702 -->
<g id="edge7" class="edge">
<title>pilot02_11_stac_1338647702&#45;&gt;pilot02_11_stac_1338667702</title>
<g id="a_edge7"><a xlink:title="Q_Elab">
<path fill="none" stroke="#0d20ff" d="M39.48,-90.92C40.79,-83.95 44.43,-64.55 46.5,-53.49"/>
<polygon fill="#0d20ff" stroke="#0d20ff" points="48.27,-53.57 47.47,-48.33 44.83,-52.92 48.27,-53.57"/>
</a>
</g>
</g>
<!-- pilot02_11_stac_1338657702&#45;&gt;pilot02_11_stac_1338667702 -->
<!-- pilot02_11_stac_1338677702 -->
<g id="node6" class="node">
<title>pilot02_11_stac_1338677702</title>
<g id="a_node6"><a xlink:title="6 &#160;william &#160;k">
<ellipse fill="black" stroke="black" cx="48" cy="-19.5" rx="3.5" ry="3.5"/>
</a>
</g>
</g>
<!-- pilot02_11_stac_1338667702&#45;&gt;pilot02_11_stac_1338677702 -->
<g id="edge8" class="edge">
<title>pilot02_11_stac_1338667702&#45;&gt;pilot02_11_stac_1338677702</title>
<g id="a_edge8"><a xlink:title="Question_answer_pair">
<path fill="none" stroke="#12ffff" d="M48,-40.68C48,-37.58 48,-32.47 48,-28.16"/>
<polygon fill="#12ffff" stroke="#12ffff" points="49.75,-28.06 48,-23.06 46.25,-28.06 49.75,-28.06"/>
</a>
</g>
</g>
</g>
</svg>
