<?xml version="1.0" encoding="UTF-8" standalone="no"?>
<!DOCTYPE svg PUBLIC "-//W3C//DTD SVG 1.1//EN"
 "http://www.w3.org/Graphics/SVG/1.1/DTD/svg11.dtd">
<!-- Generated by graphviz version 3.0.0 (20220226.1711)
 -->
<!-- Title: 12_pilot02_70 Pages: 1 -->
<svg width="68pt" height="645pt"
 viewBox="0.00 0.00 68.00 645.00" xmlns="http://www.w3.org/2000/svg" xmlns:xlink="http://www.w3.org/1999/xlink">
<g id="graph0" class="graph" transform="scale(1 1) rotate(0) translate(4 641)">
<title>12_pilot02_70</title>
<polygon fill="white" stroke="transparent" points="-4,4 -4,-641 64,-641 64,4 -4,4"/>
<g id="clust1" class="cluster">
<title>cluster_12_pilot02_70</title>
<polygon fill="none" stroke="black" points="8,-8 8,-629 52,-629 52,-8 8,-8"/>
<text text-anchor="middle" x="23" y="-613.8" font-family="Times,serif" font-size="14.00">70</text>
</g>
<!-- pilot02_12_stac_1338387704 -->
<g id="node1" class="node">
<title>pilot02_12_stac_1338387704</title>
<g id="a_node1"><a xlink:title="1 &#160;Cat &#160;so if i want to put a settlement down">
<ellipse fill="black" stroke="black" cx="30" cy="-594.5" rx="3.5" ry="3.5"/>
</a>
</g>
</g>
<!-- pilot02_12_stac_1338397704 -->
<g id="node2" class="node">
<title>pilot02_12_stac_1338397704</title>
<g id="a_node2"><a xlink:title="2 &#160;Cat &#160;where can i do so?">
<ellipse fill="black" stroke="black" cx="20" cy="-569.5" rx="3.5" ry="3.5"/>
</a>
</g>
</g>
<!-- pilot02_12_stac_1338387704&#45;&gt;pilot02_12_stac_1338397704 -->
<g id="edge5" class="edge">
<title>pilot02_12_stac_1338387704&#45;&gt;pilot02_12_stac_1338397704</title>
<g id="a_edge5"><a xlink:title="Clarification_question">
<path fill="none" stroke="#ff40d1" d="M28.93,-591.04C27.54,-587.84 25.05,-582.12 23.06,-577.53"/>
<polygon fill="#ff40d1" stroke="#ff40d1" points="24.63,-576.76 21.03,-572.87 21.42,-578.16 24.63,-576.76"/>
</a>
</g>
</g>
<!-- pilot02_12_stac_1338417704 -->
<g id="node4" class="node">
<title>pilot02_12_stac_1338417704</title>
<g id="a_node4"><a xlink:title="4 &#160;william &#160;on any corner that has distance at least two to all other settlements">
<ellipse fill="black" stroke="black" cx="30" cy="-519.5" rx="3.5" ry="3.5"/>
</a>
</g>
</g>
<!-- pilot02_12_stac_1338387704&#45;&gt;pilot02_12_stac_1338417704 -->
<g id="edge7" class="edge">
<title>pilot02_12_stac_1338387704&#45;&gt;pilot02_12_stac_1338417704</title>
<g id="a_edge7"><a xlink:title="Elaboration">
<path fill="none" stroke="#a621c7" d="M30.51,-590.86C31.24,-586.97 32.53,-579.46 33,-573 34.03,-558.82 34.03,-555.18 33,-541 32.69,-536.76 32.03,-532.07 31.4,-528.25"/>
<polygon fill="#a621c7" stroke="#a621c7" points="33.1,-527.76 30.51,-523.14 29.65,-528.37 33.1,-527.76"/>
</a>
</g>
</g>
<!-- pilot02_12_stac_1338407704 -->
<g id="node3" class="node">
<title>pilot02_12_stac_1338407704</title>
<g id="a_node3"><a xlink:title="3 &#160;Thomas &#160;on one of your roads">
<ellipse fill="black" stroke="black" cx="20" cy="-544.5" rx="3.5" ry="3.5"/>
</a>
</g>
</g>
<!-- pilot02_12_stac_1338397704&#45;&gt;pilot02_12_stac_1338407704 -->
<g id="edge6" class="edge">
<title>pilot02_12_stac_1338397704&#45;&gt;pilot02_12_stac_1338407704</title>
<g id="a_edge6"><a xlink:title="Question_answer_pair">
<path fill="none" stroke="#12ffff" d="M20,-565.68C20,-562.58 20,-557.47 20,-553.16"/>
<polygon fill="#12ffff" stroke="#12ffff" points="21.75,-553.06 20,-548.06 18.25,-553.06 21.75,-553.06"/>
</a>
</g>
</g>
<!-- pilot02_12_stac_1338407704&#45;&gt;pilot02_12_stac_1338417704 -->
<g id="edge8" class="edge">
<title>pilot02_12_stac_1338407704&#45;&gt;pilot02_12_stac_1338417704</title>
<g id="a_edge8"><a xlink:title="Elaboration">
<path fill="none" stroke="#a621c7" d="M21.07,-541.04C22.46,-537.84 24.95,-532.12 26.94,-527.53"/>
<polygon fill="#a621c7" stroke="#a621c7" points="28.58,-528.16 28.97,-522.87 25.37,-526.76 28.58,-528.16"/>
</a>
</g>
</g>
<!-- pilot02_12_stac_1338427704 -->
<g id="node5" class="node">
<title>pilot02_12_stac_1338427704</title>
<g id="a_node5"><a xlink:title="5 &#160;william &#160;connected yes">
<ellipse fill="black" stroke="black" cx="30" cy="-494.5" rx="3.5" ry="3.5"/>
</a>
</g>
</g>
<!-- pilot02_12_stac_1338417704&#45;&gt;pilot02_12_stac_1338427704 -->
<g id="edge9" class="edge">
<title>pilot02_12_stac_1338417704&#45;&gt;pilot02_12_stac_1338427704</title>
<g id="a_edge9"><a xlink:title="Elaboration">
<path fill="none" stroke="#a621c7" d="M30,-515.68C30,-512.58 30,-507.47 30,-503.16"/>
<polygon fill="#a621c7" stroke="#a621c7" points="31.75,-503.06 30,-498.06 28.25,-503.06 31.75,-503.06"/>
</a>
</g>
</g>
<!-- pilot02_12_stac_1338457704 -->
<g id="node6" class="node">
<title>pilot02_12_stac_1338457704</title>
<g id="a_node6"><a xlink:title="6 &#160;Cat &#160;thx">
<ellipse fill="black" stroke="black" cx="30" cy="-469.5" rx="3.5" ry="3.5"/>
</a>
</g>
</g>
<!-- pilot02_12_stac_1338427704&#45;&gt;pilot02_12_stac_1338457704 -->
<g id="edge10" class="edge">
<title>pilot02_12_stac_1338427704&#45;&gt;pilot02_12_stac_1338457704</title>
<g id="a_edge10"><a xlink:title="Acknowledgement">
<path fill="none" stroke="#12ffff" d="M30,-490.68C30,-487.58 30,-482.47 30,-478.16"/>
<polygon fill="#12ffff" stroke="#12ffff" points="31.75,-478.06 30,-473.06 28.25,-478.06 31.75,-478.06"/>
</a>
</g>
</g>
<!-- pilot02_12_stac_1338467704 -->
<g id="node7" class="node">
<title>pilot02_12_stac_1338467704</title>
<g id="a_node7"><a xlink:title="7 &#160;Cat &#160;well done">
<ellipse fill="black" stroke="black" cx="30" cy="-444.5" rx="3.5" ry="3.5"/>
</a>
</g>
</g>
<!-- pilot02_12_stac_1338457704&#45;&gt;pilot02_12_stac_1338467704 -->
<g id="edge11" class="edge">
<title>pilot02_12_stac_1338457704&#45;&gt;pilot02_12_stac_1338467704</title>
<g id="a_edge11"><a xlink:title="Comment">
<path fill="none" stroke="#ff8200" d="M30,-465.68C30,-462.58 30,-457.47 30,-453.16"/>
<polygon fill="#ff8200" stroke="#ff8200" points="31.75,-453.06 30,-448.06 28.25,-453.06 31.75,-453.06"/>
</a>
</g>
</g>
<!-- pilot02_12_stac_1338477704 -->
<g id="node8" class="node">
<title>pilot02_12_stac_1338477704</title>
<g id="a_node8"><a xlink:title="8 &#160;Thomas &#160;3 knights?">
<ellipse fill="black" stroke="black" cx="30" cy="-419.5" rx="3.5" ry="3.5"/>
</a>
</g>
</g>
<!-- pilot02_12_stac_1338467704&#45;&gt;pilot02_12_stac_1338477704 -->
<g id="edge12" class="edge">
<title>pilot02_12_stac_1338467704&#45;&gt;pilot02_12_stac_1338477704</title>
<g id="a_edge12"><a xlink:title="Clarification_question">
<path fill="none" stroke="#ff40d1" d="M30,-440.68C30,-437.58 30,-432.47 30,-428.16"/>
<polygon fill="#ff40d1" stroke="#ff40d1" points="31.75,-428.06 30,-423.06 28.25,-428.06 31.75,-428.06"/>
</a>
</g>
</g>
<!-- pilot02_12_stac_1338487704 -->
<g id="node9" class="node">
<title>pilot02_12_stac_1338487704</title>
<g id="a_node9"><a xlink:title="9 &#160;william &#160;thanks for playing">
<ellipse fill="black" stroke="black" cx="30" cy="-394.5" rx="3.5" ry="3.5"/>
</a>
</g>
</g>
<!-- pilot02_12_stac_1338477704&#45;&gt;pilot02_12_stac_1338487704 -->
<g id="edge13" class="edge">
<title>pilot02_12_stac_1338477704&#45;&gt;pilot02_12_stac_1338487704</title>
<g id="a_edge13"><a xlink:title="Acknowledgement">
<path fill="none" stroke="#12ffff" d="M30,-415.68C30,-412.58 30,-407.47 30,-403.16"/>
<polygon fill="#12ffff" stroke="#12ffff" points="31.75,-403.06 30,-398.06 28.25,-403.06 31.75,-403.06"/>
</a>
</g>
</g>
<!-- pilot02_12_stac_1338497704 -->
<g id="node10" class="node">
<title>pilot02_12_stac_1338497704</title>
<g id="a_node10"><a xlink:title="10 &#160;Thomas &#160;gg">
<ellipse fill="black" stroke="black" cx="20" cy="-369.5" rx="3.5" ry="3.5"/>
</a>
</g>
</g>
<!-- pilot02_12_stac_1338487704&#45;&gt;pilot02_12_stac_1338497704 -->
<g id="edge14" class="edge">
<title>pilot02_12_stac_1338487704&#45;&gt;pilot02_12_stac_1338497704</title>
<g id="a_edge14"><a xlink:title="Acknowledgement">
<path fill="none" stroke="#12ffff" d="M28.93,-391.04C27.54,-387.84 25.05,-382.12 23.06,-377.53"/>
<polygon fill="#12ffff" stroke="#12ffff" points="24.63,-376.76 21.03,-372.87 21.42,-378.16 24.63,-376.76"/>
</a>
</g>
</g>
<!-- pilot02_12_stac_1338507704 -->
<g id="node11" class="node">
<title>pilot02_12_stac_1338507704</title>
<g id="a_node11"><a xlink:title="11 &#160;william &#160;yiu">
<ellipse fill="black" stroke="black" cx="30" cy="-344.5" rx="3.5" ry="3.5"/>
</a>
</g>
</g>
<!-- pilot02_12_stac_1338487704&#45;&gt;pilot02_12_stac_1338507704 -->
<g id="edge15" class="edge">
<title>pilot02_12_stac_1338487704&#45;&gt;pilot02_12_stac_1338507704</title>
<g id="a_edge15"><a xlink:title="Comment">
<path fill="none" stroke="#ff8200" d="M30.59,-390.93C31.65,-386.07 33.67,-375.2 33,-366 32.69,-361.76 32.03,-357.07 31.4,-353.25"/>
<polygon fill="#ff8200" stroke="#ff8200" points="33.1,-352.76 30.51,-348.14 29.65,-353.37 33.1,-352.76"/>
</a>
</g>
</g>
<!-- pilot02_12_stac_1338497704&#45;&gt;pilot02_12_stac_1338507704 -->
<!-- pilot02_12_stac_1338517704 -->
<g id="node12" class="node">
<title>pilot02_12_stac_1338517704</title>
<g id="a_node12"><a xlink:title="12 &#160;william &#160;yup">
<ellipse fill="black" stroke="black" cx="30" cy="-319.5" rx="3.5" ry="3.5"/>
</a>
</g>
</g>
<!-- pilot02_12_stac_1338507704&#45;&gt;pilot02_12_stac_1338517704 -->
<g id="edge16" class="edge">
<title>pilot02_12_stac_1338507704&#45;&gt;pilot02_12_stac_1338517704</title>
<g id="a_edge16"><a xlink:title="ParallNarrContinuationbackground">
<path fill="none" stroke="#0ab046" d="M30,-340.68C30,-337.58 30,-332.47 30,-328.16"/>
<polygon fill="#0ab046" stroke="#0ab046" points="31.75,-328.06 30,-323.06 28.25,-328.06 31.75,-328.06"/>
</a>
</g>
</g>
<!-- pilot02_12_stac_1463480862 -->
<g id="node13" class="node">
<title>pilot02_12_stac_1463480862</title>
<g id="a_node13"><a xlink:title="13 &#160;Markus &#160;Wow, that was fast.">
<ellipse fill="black" stroke="black" cx="30" cy="-294.5" rx="3.5" ry="3.5"/>
</a>
</g>
</g>
<!-- pilot02_12_stac_1338517704&#45;&gt;pilot02_12_stac_1463480862 -->
<g id="edge17" class="edge">
<title>pilot02_12_stac_1338517704&#45;&gt;pilot02_12_stac_1463480862</title>
<g id="a_edge17"><a xlink:title="Comment">
<path fill="none" stroke="#ff8200" d="M30,-315.68C30,-312.58 30,-307.47 30,-303.16"/>
<polygon fill="#ff8200" stroke="#ff8200" points="31.75,-303.06 30,-298.06 28.25,-303.06 31.75,-303.06"/>
</a>
</g>
</g>
<!-- pilot02_12_stac_1463480865 -->
<g id="node14" class="node">
<title>pilot02_12_stac_1463480865</title>
<g id="a_node14"><a xlink:title="14 &#160;Markus &#160;Well done.">
<ellipse fill="black" stroke="black" cx="30" cy="-269.5" rx="3.5" ry="3.5"/>
</a>
</g>
</g>
<!-- pilot02_12_stac_1463480862&#45;&gt;pilot02_12_stac_1463480865 -->
<g id="edge18" class="edge">
<title>pilot02_12_stac_1463480862&#45;&gt;pilot02_12_stac_1463480865</title>
<g id="a_edge18"><a xlink:title="Comment">
<path fill="none" stroke="#ff8200" d="M30,-290.68C30,-287.58 30,-282.47 30,-278.16"/>
<polygon fill="#ff8200" stroke="#ff8200" points="31.75,-278.06 30,-273.06 28.25,-278.06 31.75,-278.06"/>
</a>
</g>
</g>
<!-- pilot02_12_stac_1463480868 -->
<g id="node15" class="node">
<title>pilot02_12_stac_1463480868</title>
<g id="a_node15"><a xlink:title="15 &#160;Markus &#160;Please remember to send me your questionnaires.">
<ellipse fill="black" stroke="black" cx="30" cy="-244.5" rx="3.5" ry="3.5"/>
</a>
</g>
</g>
<!-- pilot02_12_stac_1463480865&#45;&gt;pilot02_12_stac_1463480868 -->
<g id="edge19" class="edge">
<title>pilot02_12_stac_1463480865&#45;&gt;pilot02_12_stac_1463480868</title>
<g id="a_edge19"><a xlink:title="ParallNarrContinuationbackground">
<path fill="none" stroke="#0ab046" d="M30,-265.68C30,-262.58 30,-257.47 30,-253.16"/>
<polygon fill="#0ab046" stroke="#0ab046" points="31.75,-253.06 30,-248.06 28.25,-253.06 31.75,-253.06"/>
</a>
</g>
</g>
<!-- pilot02_12_stac_1338527704 -->
<g id="node16" class="node">
<title>pilot02_12_stac_1338527704</title>
<g id="a_node16"><a xlink:title="16 &#160;william &#160;k">
<ellipse fill="black" stroke="black" cx="30" cy="-219.5" rx="3.5" ry="3.5"/>
</a>
</g>
</g>
<!-- pilot02_12_stac_1463480868&#45;&gt;pilot02_12_stac_1338527704 -->
<g id="edge20" class="edge">
<title>pilot02_12_stac_1463480868&#45;&gt;pilot02_12_stac_1338527704</title>
<g id="a_edge20"><a xlink:title="Acknowledgement">
<path fill="none" stroke="#12ffff" d="M30,-240.68C30,-237.58 30,-232.47 30,-228.16"/>
<polygon fill="#12ffff" stroke="#12ffff" points="31.75,-228.06 30,-223.06 28.25,-228.06 31.75,-228.06"/>
</a>
</g>
</g>
<!-- pilot02_12_stac_1338537704 -->
<g id="node17" class="node">
<title>pilot02_12_stac_1338537704</title>
<g id="a_node17"><a xlink:title="17 &#160;Thomas &#160;ok">
<ellipse fill="black" stroke="black" cx="20" cy="-194.5" rx="3.5" ry="3.5"/>
</a>
</g>
</g>
<!-- pilot02_12_stac_1338527704&#45;&gt;pilot02_12_stac_1338537704 -->
<g id="edge21" class="edge">
<title>pilot02_12_stac_1338527704&#45;&gt;pilot02_12_stac_1338537704</title>
<g id="a_edge21"><a xlink:title="Acknowledgement">
<path fill="none" stroke="#12ffff" d="M28.93,-216.04C27.54,-212.84 25.05,-207.12 23.06,-202.53"/>
<polygon fill="#12ffff" stroke="#12ffff" points="24.63,-201.76 21.03,-197.87 21.42,-203.16 24.63,-201.76"/>
</a>
</g>
</g>
<!-- pilot02_12_stac_1338547704 -->
<g id="node18" class="node">
<title>pilot02_12_stac_1338547704</title>
<g id="a_node18"><a xlink:title="18 &#160;Cat &#160;ok">
<ellipse fill="black" stroke="black" cx="40" cy="-169.5" rx="3.5" ry="3.5"/>
</a>
</g>
</g>
<!-- pilot02_12_stac_1338527704&#45;&gt;pilot02_12_stac_1338547704 -->
<g id="edge22" class="edge">
<title>pilot02_12_stac_1338527704&#45;&gt;pilot02_12_stac_1338547704</title>
<g id="a_edge22"><a xlink:title="Acknowledgement">
<path fill="none" stroke="#12ffff" d="M30.54,-215.92C31.99,-208.95 36.03,-189.55 38.34,-178.49"/>
<polygon fill="#12ffff" stroke="#12ffff" points="40.1,-178.58 39.41,-173.33 36.68,-177.87 40.1,-178.58"/>
</a>
</g>
</g>
<!-- pilot02_12_stac_1338537704&#45;&gt;pilot02_12_stac_1338547704 -->
<!-- pilot02_12_stac_1338557704 -->
<g id="node19" class="node">
<title>pilot02_12_stac_1338557704</title>
<g id="a_node19"><a xlink:title="19 &#160;Cat &#160;bye then">
<ellipse fill="black" stroke="black" cx="30" cy="-144.5" rx="3.5" ry="3.5"/>
</a>
</g>
</g>
<!-- pilot02_12_stac_1338537704&#45;&gt;pilot02_12_stac_1338557704 -->
<g id="edge23" class="edge">
<title>pilot02_12_stac_1338537704&#45;&gt;pilot02_12_stac_1338557704</title>
<g id="a_edge23"><a xlink:title="Acknowledgement">
<path fill="none" stroke="#12ffff" d="M20.54,-190.92C21.99,-183.95 26.03,-164.55 28.34,-153.49"/>
<polygon fill="#12ffff" stroke="#12ffff" points="30.1,-153.58 29.41,-148.33 26.68,-152.87 30.1,-153.58"/>
</a>
</g>
</g>
<!-- pilot02_12_stac_1338547704&#45;&gt;pilot02_12_stac_1338557704 -->
<g id="edge24" class="edge">
<title>pilot02_12_stac_1338547704&#45;&gt;pilot02_12_stac_1338557704</title>
<g id="a_edge24"><a xlink:title="ParallNarrContinuationbackground">
<path fill="none" stroke="#0ab046" d="M38.93,-166.04C37.54,-162.84 35.05,-157.12 33.06,-152.53"/>
<polygon fill="#0ab046" stroke="#0ab046" points="34.63,-151.76 31.03,-147.87 31.42,-153.16 34.63,-151.76"/>
</a>
</g>
</g>
<!-- pilot02_12_stac_1463480889 -->
<g id="node20" class="node">
<title>pilot02_12_stac_1463480889</title>
<g id="a_node20"><a xlink:title="20 &#160;Markus &#160;I&#39;m in IF 3.24.">
<ellipse fill="black" stroke="black" cx="30" cy="-119.5" rx="3.5" ry="3.5"/>
</a>
</g>
</g>
<!-- pilot02_12_stac_1338557704&#45;&gt;pilot02_12_stac_1463480889 -->
<!-- pilot02_12_stac_1463480892 -->
<g id="node21" class="node">
<title>pilot02_12_stac_1463480892</title>
<g id="a_node21"><a xlink:title="21 &#160;Markus &#160;Should be there most of the time this week.">
<ellipse fill="black" stroke="black" cx="30" cy="-94.5" rx="3.5" ry="3.5"/>
</a>
</g>
</g>
<!-- pilot02_12_stac_1463480889&#45;&gt;pilot02_12_stac_1463480892 -->
<g id="edge25" class="edge">
<title>pilot02_12_stac_1463480889&#45;&gt;pilot02_12_stac_1463480892</title>
<g id="a_edge25"><a xlink:title="ExplanationResult">
<path fill="none" stroke="#a62139" d="M30,-115.68C30,-112.58 30,-107.47 30,-103.16"/>
<polygon fill="#a62139" stroke="#a62139" points="31.75,-103.06 30,-98.06 28.25,-103.06 31.75,-103.06"/>
</a>
</g>
</g>
<!-- pilot02_12_stac_1463480895 -->
<g id="node22" class="node">
<title>pilot02_12_stac_1463480895</title>
<g id="a_node22"><a xlink:title="22 &#160;Markus &#160;Thanks again!">
<ellipse fill="black" stroke="black" cx="20" cy="-69.5" rx="3.5" ry="3.5"/>
</a>
</g>
</g>
<!-- pilot02_12_stac_1463480892&#45;&gt;pilot02_12_stac_1463480895 -->
<g id="edge26" class="edge">
<title>pilot02_12_stac_1463480892&#45;&gt;pilot02_12_stac_1463480895</title>
<g id="a_edge26"><a xlink:title="Comment">
<path fill="none" stroke="#ff8200" d="M28.93,-91.04C27.54,-87.84 25.05,-82.12 23.06,-77.53"/>
<polygon fill="#ff8200" stroke="#ff8200" points="24.63,-76.76 21.03,-72.87 21.42,-78.16 24.63,-76.76"/>
</a>
</g>
</g>
<!-- pilot02_12_stac_1338577704 -->
<g id="node23" class="node">
<title>pilot02_12_stac_1338577704</title>
<g id="a_node23"><a xlink:title="23 &#160;Cat &#160;ok, I&#39;ll come by">
<ellipse fill="black" stroke="black" cx="30" cy="-44.5" rx="3.5" ry="3.5"/>
</a>
</g>
</g>
<!-- pilot02_12_stac_1463480892&#45;&gt;pilot02_12_stac_1338577704 -->
<g id="edge27" class="edge">
<title>pilot02_12_stac_1463480892&#45;&gt;pilot02_12_stac_1338577704</title>
<g id="a_edge27"><a xlink:title="Acknowledgement">
<path fill="none" stroke="#12ffff" d="M30.59,-90.93C31.65,-86.07 33.67,-75.2 33,-66 32.69,-61.76 32.03,-57.07 31.4,-53.25"/>
<polygon fill="#12ffff" stroke="#12ffff" points="33.1,-52.76 30.51,-48.14 29.65,-53.37 33.1,-52.76"/>
</a>
</g>
</g>
<!-- pilot02_12_stac_1463480895&#45;&gt;pilot02_12_stac_1338577704 -->
<!-- pilot02_12_stac_1338587704 -->
<g id="node24" class="node">
<title>pilot02_12_stac_1338587704</title>
<g id="a_node24"><a xlink:title="24 &#160;Thomas &#160;ok, thanks">
<ellipse fill="black" stroke="black" cx="30" cy="-19.5" rx="3.5" ry="3.5"/>
</a>
</g>
</g>
<!-- pilot02_12_stac_1338577704&#45;&gt;pilot02_12_stac_1338587704 -->
<g id="edge28" class="edge">
<title>pilot02_12_stac_1338577704&#45;&gt;pilot02_12_stac_1338587704</title>
<g id="a_edge28"><a xlink:title="Acknowledgement">
<path fill="none" stroke="#12ffff" d="M30,-40.68C30,-37.58 30,-32.47 30,-28.16"/>
<polygon fill="#12ffff" stroke="#12ffff" points="31.75,-28.06 30,-23.06 28.25,-28.06 31.75,-28.06"/>
</a>
</g>
</g>
</g>
</svg>
