<?xml version="1.0" encoding="UTF-8" standalone="no"?>
<!DOCTYPE svg PUBLIC "-//W3C//DTD SVG 1.1//EN"
 "http://www.w3.org/Graphics/SVG/1.1/DTD/svg11.dtd">
<!-- Generated by graphviz version 3.0.0 (20220226.1711)
 -->
<!-- Title: 2_pilot02_48 Pages: 1 -->
<svg width="138pt" height="422pt"
 viewBox="0.00 0.00 138.00 422.19" xmlns="http://www.w3.org/2000/svg" xmlns:xlink="http://www.w3.org/1999/xlink">
<g id="graph0" class="graph" transform="scale(1 1) rotate(0) translate(4 418.19)">
<title>2_pilot02_48</title>
<polygon fill="white" stroke="transparent" points="-4,4 -4,-418.19 134,-418.19 134,4 -4,4"/>
<g id="clust1" class="cluster">
<title>cluster_2_pilot02_48</title>
<polygon fill="none" stroke="black" points="8,-8 8,-404 122,-404 122,-8 8,-8"/>
<text text-anchor="middle" x="23" y="-388.8" font-family="Times,serif" font-size="14.00">48</text>
</g>
<!-- pilot02_02_stac_1338387675 -->
<g id="node1" class="node">
<title>pilot02_02_stac_1338387675</title>
<g id="a_node1"><a xlink:title="1 &#160;Cat &#160;how do we do an exchange?">
<ellipse fill="black" stroke="black" cx="60" cy="-369.5" rx="3.5" ry="3.5"/>
</a>
</g>
</g>
<!-- 1_0 -->
<!-- pilot02_02_stac_1338387675&#45;&gt;1_0 -->
<!-- 1_1 -->
<!-- pilot02_02_stac_1338387675&#45;&gt;1_1 -->
<!-- pilot02_02_stac_1338397675 -->
<g id="node4" class="node">
<title>pilot02_02_stac_1338397675</title>
<g id="a_node4"><a xlink:title="2 &#160;william &#160;first we chat about it">
<ellipse fill="black" stroke="black" cx="20" cy="-344.5" rx="3.5" ry="3.5"/>
</a>
</g>
</g>
<!-- pilot02_02_stac_1338387675&#45;&gt;pilot02_02_stac_1338397675 -->
<g id="edge30" class="edge">
<title>pilot02_02_stac_1338387675&#45;&gt;pilot02_02_stac_1338397675</title>
<g id="a_edge30"><a xlink:title="Question_answer_pair">
<path fill="none" stroke="#12ffff" d="M57.38,-366.99C51.33,-363.52 36.26,-354.85 27.21,-349.64"/>
<polygon fill="#12ffff" stroke="#12ffff" points="27.89,-348.02 22.69,-347.04 26.15,-351.05 27.89,-348.02"/>
</a>
</g>
</g>
<!-- pilot02_02_stac_1338407675 -->
<g id="node7" class="node">
<title>pilot02_02_stac_1338407675</title>
<g id="a_node7"><a xlink:title="3 &#160;william &#160;when we actually want to exchange...">
<ellipse fill="black" stroke="black" cx="40" cy="-319.5" rx="3.5" ry="3.5"/>
</a>
</g>
</g>
<!-- pilot02_02_stac_1338387675&#45;&gt;pilot02_02_stac_1338407675 -->
<g id="edge31" class="edge">
<title>pilot02_02_stac_1338387675&#45;&gt;pilot02_02_stac_1338407675</title>
<g id="a_edge31"><a xlink:title="Question_answer_pair">
<path fill="none" stroke="#12ffff" d="M62.85,-367.12C70.41,-363.26 89.91,-351.95 83,-341 79.02,-334.69 59.27,-327.08 47.97,-323.15"/>
<polygon fill="#12ffff" stroke="#12ffff" points="48.26,-321.4 42.96,-321.45 47.13,-324.71 48.26,-321.4"/>
</a>
</g>
</g>
<!-- pilot02_02_stac_1338417675 -->
<g id="node10" class="node">
<title>pilot02_02_stac_1338417675</title>
<g id="a_node10"><a xlink:title="4 &#160;Thomas &#160;register a trade&#39;">
<ellipse fill="black" stroke="black" cx="50" cy="-294.5" rx="3.5" ry="3.5"/>
</a>
</g>
</g>
<!-- pilot02_02_stac_1338387675&#45;&gt;pilot02_02_stac_1338417675 -->
<g id="edge33" class="edge">
<title>pilot02_02_stac_1338387675&#45;&gt;pilot02_02_stac_1338417675</title>
<g id="a_edge33"><a xlink:title="Question_answer_pair">
<path fill="none" stroke="#12ffff" d="M62.86,-367.11C74.59,-361.21 117.79,-337.57 103,-316 97.78,-308.38 71.84,-300.94 58.28,-297.49"/>
<polygon fill="#12ffff" stroke="#12ffff" points="58.6,-295.77 53.33,-296.27 57.77,-299.17 58.6,-295.77"/>
</a>
</g>
</g>
<!-- 2_0 -->
<!-- pilot02_02_stac_1338397675&#45;&gt;2_0 -->
<!-- 2_1 -->
<!-- pilot02_02_stac_1338397675&#45;&gt;2_1 -->
<!-- pilot02_02_stac_1338397675&#45;&gt;pilot02_02_stac_1338407675 -->
<g id="edge32" class="edge">
<title>pilot02_02_stac_1338397675&#45;&gt;pilot02_02_stac_1338407675</title>
<g id="a_edge32"><a xlink:title="Elaboration">
<path fill="none" stroke="#a621c7" d="M21.85,-341.38C24.69,-338.11 30.25,-331.71 34.48,-326.85"/>
<polygon fill="#a621c7" stroke="#a621c7" points="35.9,-327.88 37.86,-322.96 33.26,-325.59 35.9,-327.88"/>
</a>
</g>
</g>
<!-- 3_0 -->
<!-- pilot02_02_stac_1338407675&#45;&gt;3_0 -->
<!-- 3_1 -->
<!-- pilot02_02_stac_1338407675&#45;&gt;3_1 -->
<!-- pilot02_02_stac_1338407675&#45;&gt;pilot02_02_stac_1338417675 -->
<!-- 4_0 -->
<!-- pilot02_02_stac_1338417675&#45;&gt;4_0 -->
<!-- 4_1 -->
<!-- pilot02_02_stac_1338417675&#45;&gt;4_1 -->
<!-- pilot02_02_stac_1338427675 -->
<g id="node13" class="node">
<title>pilot02_02_stac_1338427675</title>
<g id="a_node13"><a xlink:title="5 &#160;william &#160;we click &quot;register a trade">
<ellipse fill="black" stroke="black" cx="30" cy="-269.5" rx="3.5" ry="3.5"/>
</a>
</g>
</g>
<!-- pilot02_02_stac_1338417675&#45;&gt;pilot02_02_stac_1338427675 -->
<g id="edge34" class="edge">
<title>pilot02_02_stac_1338417675&#45;&gt;pilot02_02_stac_1338427675</title>
<g id="a_edge34"><a xlink:title="ParallNarrContinuationbackground">
<path fill="none" stroke="#0ab046" d="M48.15,-291.38C45.31,-288.11 39.75,-281.71 35.52,-276.85"/>
<polygon fill="#0ab046" stroke="#0ab046" points="36.74,-275.59 32.14,-272.96 34.1,-277.88 36.74,-275.59"/>
</a>
</g>
</g>
<!-- pilot02_02_stac_1338437675 -->
<g id="node41" class="node">
<title>pilot02_02_stac_1338437675</title>
<g id="a_node41"><a xlink:title="6 &#160;Cat &#160;okay, ">
<ellipse fill="black" stroke="black" cx="40" cy="-244.5" rx="3.5" ry="3.5"/>
</a>
</g>
</g>
<!-- pilot02_02_stac_1338417675&#45;&gt;pilot02_02_stac_1338437675 -->
<g id="edge35" class="edge">
<title>pilot02_02_stac_1338417675&#45;&gt;pilot02_02_stac_1338437675</title>
<g id="a_edge35"><a xlink:title="Acknowledgement">
<path fill="none" stroke="#12ffff" d="M53.28,-292.92C65.06,-290.67 103.92,-281.93 93,-266 87.78,-258.38 61.84,-250.94 48.28,-247.49"/>
<polygon fill="#12ffff" stroke="#12ffff" points="48.6,-245.77 43.33,-246.27 47.77,-249.17 48.6,-245.77"/>
</a>
</g>
</g>
<!-- 5_0 -->
<!-- pilot02_02_stac_1338427675&#45;&gt;5_0 -->
<!-- 5_1 -->
<!-- pilot02_02_stac_1338427675&#45;&gt;5_1 -->
<!-- pilot02_02_stac_1338427675&#45;&gt;pilot02_02_stac_1338437675 -->
<!-- pilot02_02_stac_1338437676 -->
<g id="node16" class="node">
<title>pilot02_02_stac_1338437676</title>
<g id="a_node16"><a xlink:title="6 &#160;Cat &#160;let&#39;s do an exchange">
<ellipse fill="black" stroke="black" cx="65" cy="-244.5" rx="3.5" ry="3.5"/>
</a>
</g>
</g>
<!-- 6_0 -->
<!-- pilot02_02_stac_1338437676&#45;&gt;6_0 -->
<!-- pilot02_02_stac_1338447675 -->
<g id="node18" class="node">
<title>pilot02_02_stac_1338447675</title>
<g id="a_node18"><a xlink:title="7 &#160;william &#160;what kind?">
<ellipse fill="black" stroke="black" cx="45" cy="-219.5" rx="3.5" ry="3.5"/>
</a>
</g>
</g>
<!-- pilot02_02_stac_1338437676&#45;&gt;pilot02_02_stac_1338447675 -->
<g id="edge37" class="edge">
<title>pilot02_02_stac_1338437676&#45;&gt;pilot02_02_stac_1338447675</title>
<g id="a_edge37"><a xlink:title="Q_Elab">
<path fill="none" stroke="#0d20ff" d="M63.15,-241.38C60.31,-238.11 54.75,-231.71 50.52,-226.85"/>
<polygon fill="#0d20ff" stroke="#0d20ff" points="51.74,-225.59 47.14,-222.96 49.1,-227.88 51.74,-225.59"/>
</a>
</g>
</g>
<!-- 7_0 -->
<!-- pilot02_02_stac_1338447675&#45;&gt;7_0 -->
<!-- 7_1 -->
<!-- pilot02_02_stac_1338447675&#45;&gt;7_1 -->
<!-- pilot02_02_stac_1338477675 -->
<g id="node21" class="node">
<title>pilot02_02_stac_1338477675</title>
<g id="a_node21"><a xlink:title="8 &#160;Cat &#160;wood for wheat">
<ellipse fill="black" stroke="black" cx="45" cy="-194.5" rx="3.5" ry="3.5"/>
</a>
</g>
</g>
<!-- pilot02_02_stac_1338447675&#45;&gt;pilot02_02_stac_1338477675 -->
<g id="edge38" class="edge">
<title>pilot02_02_stac_1338447675&#45;&gt;pilot02_02_stac_1338477675</title>
<g id="a_edge38"><a xlink:title="Question_answer_pair">
<path fill="none" stroke="#12ffff" d="M45,-215.68C45,-212.58 45,-207.47 45,-203.16"/>
<polygon fill="#12ffff" stroke="#12ffff" points="46.75,-203.06 45,-198.06 43.25,-203.06 46.75,-203.06"/>
</a>
</g>
</g>
<!-- 8_0 -->
<!-- pilot02_02_stac_1338477675&#45;&gt;8_0 -->
<!-- 8_1 -->
<!-- pilot02_02_stac_1338477675&#45;&gt;8_1 -->
<!-- pilot02_02_stac_1338487675 -->
<g id="node24" class="node">
<title>pilot02_02_stac_1338487675</title>
<g id="a_node24"><a xlink:title="9 &#160;Thomas &#160;which do you want?">
<ellipse fill="black" stroke="black" cx="45" cy="-169.5" rx="3.5" ry="3.5"/>
</a>
</g>
</g>
<!-- pilot02_02_stac_1338477675&#45;&gt;pilot02_02_stac_1338487675 -->
<g id="edge39" class="edge">
<title>pilot02_02_stac_1338477675&#45;&gt;pilot02_02_stac_1338487675</title>
<g id="a_edge39"><a xlink:title="Clarification_question">
<path fill="none" stroke="#ff40d1" d="M45,-190.68C45,-187.58 45,-182.47 45,-178.16"/>
<polygon fill="#ff40d1" stroke="#ff40d1" points="46.75,-178.06 45,-173.06 43.25,-178.06 46.75,-178.06"/>
</a>
</g>
</g>
<!-- 9_0 -->
<!-- pilot02_02_stac_1338487675&#45;&gt;9_0 -->
<!-- 9_1 -->
<!-- pilot02_02_stac_1338487675&#45;&gt;9_1 -->
<!-- pilot02_02_stac_1338497675 -->
<g id="node27" class="node">
<title>pilot02_02_stac_1338497675</title>
<g id="a_node27"><a xlink:title="10 &#160;william &#160;yup i saw it">
<ellipse fill="black" stroke="black" cx="45" cy="-144.5" rx="3.5" ry="3.5"/>
</a>
</g>
</g>
<!-- pilot02_02_stac_1338487675&#45;&gt;pilot02_02_stac_1338497675 -->
<g id="edge40" class="edge">
<title>pilot02_02_stac_1338487675&#45;&gt;pilot02_02_stac_1338497675</title>
<g id="a_edge40"><a xlink:title="Question_answer_pair">
<path fill="none" stroke="#12ffff" d="M45,-165.68C45,-162.58 45,-157.47 45,-153.16"/>
<polygon fill="#12ffff" stroke="#12ffff" points="46.75,-153.06 45,-148.06 43.25,-153.06 46.75,-153.06"/>
</a>
</g>
</g>
<!-- 10_0 -->
<!-- pilot02_02_stac_1338497675&#45;&gt;10_0 -->
<!-- 10_1 -->
<!-- pilot02_02_stac_1338497675&#45;&gt;10_1 -->
<!-- pilot02_02_stac_1338507675 -->
<g id="node30" class="node">
<title>pilot02_02_stac_1338507675</title>
<g id="a_node30"><a xlink:title="11 &#160;william &#160;already traded, tom">
<ellipse fill="black" stroke="black" cx="45" cy="-119.5" rx="3.5" ry="3.5"/>
</a>
</g>
</g>
<!-- pilot02_02_stac_1338497675&#45;&gt;pilot02_02_stac_1338507675 -->
<g id="edge41" class="edge">
<title>pilot02_02_stac_1338497675&#45;&gt;pilot02_02_stac_1338507675</title>
<g id="a_edge41"><a xlink:title="Elaboration">
<path fill="none" stroke="#a621c7" d="M45,-140.68C45,-137.58 45,-132.47 45,-128.16"/>
<polygon fill="#a621c7" stroke="#a621c7" points="46.75,-128.06 45,-123.06 43.25,-128.06 46.75,-128.06"/>
</a>
</g>
</g>
<!-- 11_0 -->
<!-- pilot02_02_stac_1338507675&#45;&gt;11_0 -->
<!-- 11_1 -->
<!-- pilot02_02_stac_1338507675&#45;&gt;11_1 -->
<!-- pilot02_02_stac_1338517675 -->
<g id="node33" class="node">
<title>pilot02_02_stac_1338517675</title>
<g id="a_node33"><a xlink:title="12 &#160;Thomas &#160;ok">
<ellipse fill="black" stroke="black" cx="45" cy="-94.5" rx="3.5" ry="3.5"/>
</a>
</g>
</g>
<!-- pilot02_02_stac_1338507675&#45;&gt;pilot02_02_stac_1338517675 -->
<g id="edge42" class="edge">
<title>pilot02_02_stac_1338507675&#45;&gt;pilot02_02_stac_1338517675</title>
<g id="a_edge42"><a xlink:title="Acknowledgement">
<path fill="none" stroke="#12ffff" d="M45,-115.68C45,-112.58 45,-107.47 45,-103.16"/>
<polygon fill="#12ffff" stroke="#12ffff" points="46.75,-103.06 45,-98.06 43.25,-103.06 46.75,-103.06"/>
</a>
</g>
</g>
<!-- 12_0 -->
<!-- pilot02_02_stac_1338517675&#45;&gt;12_0 -->
<!-- 12_1 -->
<!-- pilot02_02_stac_1338517675&#45;&gt;12_1 -->
<!-- pilot02_02_stac_1338527675 -->
<g id="node36" class="node">
<title>pilot02_02_stac_1338527675</title>
<g id="a_node36"><a xlink:title="13 &#160;Cat &#160;thanks">
<ellipse fill="black" stroke="black" cx="45" cy="-69.5" rx="3.5" ry="3.5"/>
</a>
</g>
</g>
<!-- pilot02_02_stac_1338517675&#45;&gt;pilot02_02_stac_1338527675 -->
<g id="edge43" class="edge">
<title>pilot02_02_stac_1338517675&#45;&gt;pilot02_02_stac_1338527675</title>
<g id="a_edge43"><a xlink:title="Acknowledgement">
<path fill="none" stroke="#12ffff" d="M45,-90.68C45,-87.58 45,-82.47 45,-78.16"/>
<polygon fill="#12ffff" stroke="#12ffff" points="46.75,-78.06 45,-73.06 43.25,-78.06 46.75,-78.06"/>
</a>
</g>
</g>
<!-- 13_0 -->
<!-- pilot02_02_stac_1338527675&#45;&gt;13_0 -->
<!-- 13_1 -->
<!-- pilot02_02_stac_1338527675&#45;&gt;13_1 -->
<!-- pilot02_02_stac_1338537675 -->
<g id="node42" class="node">
<title>pilot02_02_stac_1338537675</title>
<g id="a_node42"><a xlink:title="14 &#160;Cat &#160;what else can I do during the turn? ">
<ellipse fill="black" stroke="black" cx="45" cy="-44.5" rx="3.5" ry="3.5"/>
</a>
</g>
</g>
<!-- pilot02_02_stac_1338527675&#45;&gt;pilot02_02_stac_1338537675 -->
<g id="edge44" class="edge">
<title>pilot02_02_stac_1338527675&#45;&gt;pilot02_02_stac_1338537675</title>
<g id="a_edge44"><a xlink:title="ParallNarrContinuationbackground">
<path fill="none" stroke="#0ab046" d="M45,-65.68C45,-62.58 45,-57.47 45,-53.16"/>
<polygon fill="#0ab046" stroke="#0ab046" points="46.75,-53.06 45,-48.06 43.25,-53.06 46.75,-53.06"/>
</a>
</g>
</g>
<!-- pilot02_02_stac_1338537676 -->
<g id="node39" class="node">
<title>pilot02_02_stac_1338537676</title>
<g id="a_node39"><a xlink:title="14 &#160;Cat &#160;(i am new to this)">
<ellipse fill="black" stroke="black" cx="70" cy="-44.5" rx="3.5" ry="3.5"/>
</a>
</g>
</g>
<!-- 14_0 -->
<!-- pilot02_02_stac_1338537676&#45;&gt;14_0 -->
<!-- pilot02_02_stac_1338437675&#45;&gt;pilot02_02_stac_1338437676 -->
<g id="edge36" class="edge">
<title>pilot02_02_stac_1338437675&#45;&gt;pilot02_02_stac_1338437676</title>
<g id="a_edge36"><a xlink:title="ParallNarrContinuationbackground">
<path fill="none" stroke="#0ab046" d="M43.52,-244.5C47.78,-244.5 52.04,-244.5 56.3,-244.5"/>
<polygon fill="#0ab046" stroke="#0ab046" points="56.31,-246.25 61.31,-244.5 56.31,-242.75 56.31,-246.25"/>
</a>
</g>
</g>
<!-- pilot02_02_stac_1338437675&#45;&gt;pilot02_02_stac_1338447675 -->
<!-- pilot02_02_stac_1338537675&#45;&gt;pilot02_02_stac_1338537676 -->
<g id="edge45" class="edge">
<title>pilot02_02_stac_1338537675&#45;&gt;pilot02_02_stac_1338537676</title>
<g id="a_edge45"><a xlink:title="Elaboration">
<path fill="none" stroke="#a621c7" d="M48.52,-44.5C52.78,-44.5 57.04,-44.5 61.3,-44.5"/>
<polygon fill="#a621c7" stroke="#a621c7" points="61.31,-46.25 66.31,-44.5 61.31,-42.75 61.31,-46.25"/>
</a>
</g>
</g>
<!-- pilot02_02_nasher_1384870235904 -->
<g id="node43" class="node">
<title>pilot02_02_nasher_1384870235904</title>
<g id="a_node43"><a xlink:title="15 &#160;william &#160;build,">
<ellipse fill="black" stroke="black" cx="45" cy="-19.5" rx="3.5" ry="3.5"/>
</a>
</g>
</g>
<!-- pilot02_02_stac_1338537675&#45;&gt;pilot02_02_nasher_1384870235904 -->
<g id="edge46" class="edge">
<title>pilot02_02_stac_1338537675&#45;&gt;pilot02_02_nasher_1384870235904</title>
<g id="a_edge46"><a xlink:title="Question_answer_pair">
<path fill="none" stroke="#12ffff" d="M45,-40.68C45,-37.58 45,-32.47 45,-28.16"/>
<polygon fill="#12ffff" stroke="#12ffff" points="46.75,-28.06 45,-23.06 43.25,-28.06 46.75,-28.06"/>
</a>
</g>
</g>
<!-- pilot02_02_mabrusan_1382435279166 -->
<g id="node44" class="node">
<title>pilot02_02_mabrusan_1382435279166</title>
<g id="a_node44"><a xlink:title="15 &#160;william &#160;trade,">
<ellipse fill="black" stroke="black" cx="70" cy="-19.5" rx="3.5" ry="3.5"/>
</a>
</g>
</g>
<!-- pilot02_02_nasher_1384870235904&#45;&gt;pilot02_02_mabrusan_1382435279166 -->
<g id="edge47" class="edge">
<title>pilot02_02_nasher_1384870235904&#45;&gt;pilot02_02_mabrusan_1382435279166</title>
<g id="a_edge47"><a xlink:title="Elaboration">
<path fill="none" stroke="#a621c7" d="M48.52,-19.5C52.78,-19.5 57.04,-19.5 61.3,-19.5"/>
<polygon fill="#a621c7" stroke="#a621c7" points="61.31,-21.25 66.31,-19.5 61.31,-17.75 61.31,-21.25"/>
</a>
</g>
</g>
<!-- pilot02_02_mabrusan_1382435305557 -->
<g id="node45" class="node">
<title>pilot02_02_mabrusan_1382435305557</title>
<g id="a_node45"><a xlink:title="15 &#160;william &#160;&quot;done&quot;">
<ellipse fill="black" stroke="black" cx="95" cy="-19.5" rx="3.5" ry="3.5"/>
</a>
</g>
</g>
<!-- pilot02_02_mabrusan_1382435279166&#45;&gt;pilot02_02_mabrusan_1382435305557 -->
<g id="edge48" class="edge">
<title>pilot02_02_mabrusan_1382435279166&#45;&gt;pilot02_02_mabrusan_1382435305557</title>
<g id="a_edge48"><a xlink:title="Elaboration">
<path fill="none" stroke="#a621c7" d="M73.52,-19.5C77.78,-19.5 82.04,-19.5 86.3,-19.5"/>
<polygon fill="#a621c7" stroke="#a621c7" points="86.31,-21.25 91.31,-19.5 86.31,-17.75 86.31,-21.25"/>
</a>
</g>
</g>
</g>
</svg>
