<?xml version="1.0" encoding="UTF-8" standalone="no"?>
<!DOCTYPE svg PUBLIC "-//W3C//DTD SVG 1.1//EN"
 "http://www.w3.org/Graphics/SVG/1.1/DTD/svg11.dtd">
<!-- Generated by graphviz version 3.0.0 (20220226.1711)
 -->
<!-- Title: 2_pilot02_50 Pages: 1 -->
<svg width="73pt" height="170pt"
 viewBox="0.00 0.00 73.00 170.00" xmlns="http://www.w3.org/2000/svg" xmlns:xlink="http://www.w3.org/1999/xlink">
<g id="graph0" class="graph" transform="scale(1 1) rotate(0) translate(4 166)">
<title>2_pilot02_50</title>
<polygon fill="white" stroke="transparent" points="-4,4 -4,-166 69,-166 69,4 -4,4"/>
<g id="clust1" class="cluster">
<title>cluster_2_pilot02_50</title>
<polygon fill="none" stroke="black" points="8,-8 8,-154 57,-154 57,-8 8,-8"/>
<text text-anchor="middle" x="23" y="-138.8" font-family="Times,serif" font-size="14.00">50</text>
</g>
<!-- pilot02_02_stac_1338627675 -->
<g id="node1" class="node">
<title>pilot02_02_stac_1338627675</title>
<g id="a_node1"><a xlink:title="2 &#160;william &#160;no, you need a settlement">
<ellipse fill="black" stroke="black" cx="20" cy="-94.5" rx="3.5" ry="3.5"/>
</a>
</g>
</g>
<!-- 2_0 -->
<!-- pilot02_02_stac_1338627675&#45;&gt;2_0 -->
<!-- pilot02_02_stac_1338637675 -->
<g id="node3" class="node">
<title>pilot02_02_stac_1338637675</title>
<g id="a_node3"><a xlink:title="3 &#160;william &#160;roads lead to settlements">
<ellipse fill="black" stroke="black" cx="20" cy="-69.5" rx="3.5" ry="3.5"/>
</a>
</g>
</g>
<!-- pilot02_02_stac_1338627675&#45;&gt;pilot02_02_stac_1338637675 -->
<g id="edge8" class="edge">
<title>pilot02_02_stac_1338627675&#45;&gt;pilot02_02_stac_1338637675</title>
<g id="a_edge8"><a xlink:title="Elaboration">
<path fill="none" stroke="#a621c7" d="M20,-90.68C20,-87.58 20,-82.47 20,-78.16"/>
<polygon fill="#a621c7" stroke="#a621c7" points="21.75,-78.06 20,-73.06 18.25,-78.06 21.75,-78.06"/>
</a>
</g>
</g>
<!-- 3_0 -->
<!-- pilot02_02_stac_1338637675&#45;&gt;3_0 -->
<!-- pilot02_02_stac_1338647675 -->
<g id="node5" class="node">
<title>pilot02_02_stac_1338647675</title>
<g id="a_node5"><a xlink:title="4 &#160;william &#160;all settlements must have a min distance of 2">
<ellipse fill="black" stroke="black" cx="20" cy="-44.5" rx="3.5" ry="3.5"/>
</a>
</g>
</g>
<!-- pilot02_02_stac_1338637675&#45;&gt;pilot02_02_stac_1338647675 -->
<g id="edge9" class="edge">
<title>pilot02_02_stac_1338637675&#45;&gt;pilot02_02_stac_1338647675</title>
<g id="a_edge9"><a xlink:title="Elaboration">
<path fill="none" stroke="#a621c7" d="M20,-65.68C20,-62.58 20,-57.47 20,-53.16"/>
<polygon fill="#a621c7" stroke="#a621c7" points="21.75,-53.06 20,-48.06 18.25,-53.06 21.75,-53.06"/>
</a>
</g>
</g>
<!-- 4_0 -->
<!-- pilot02_02_stac_1338647675&#45;&gt;4_0 -->
<!-- pilot02_02_stac_1338657675 -->
<g id="node7" class="node">
<title>pilot02_02_stac_1338657675</title>
<g id="a_node7"><a xlink:title="5 &#160;Cat &#160;okay">
<ellipse fill="black" stroke="black" cx="20" cy="-19.5" rx="3.5" ry="3.5"/>
</a>
</g>
</g>
<!-- pilot02_02_stac_1338647675&#45;&gt;pilot02_02_stac_1338657675 -->
<g id="edge10" class="edge">
<title>pilot02_02_stac_1338647675&#45;&gt;pilot02_02_stac_1338657675</title>
<g id="a_edge10"><a xlink:title="Acknowledgement">
<path fill="none" stroke="#12ffff" d="M20,-40.68C20,-37.58 20,-32.47 20,-28.16"/>
<polygon fill="#12ffff" stroke="#12ffff" points="21.75,-28.06 20,-23.06 18.25,-28.06 21.75,-28.06"/>
</a>
</g>
</g>
<!-- 5_0 -->
<!-- pilot02_02_stac_1338657675&#45;&gt;5_0 -->
<!-- pilot02_02_stac_1338617675 -->
<g id="node9" class="node">
<title>pilot02_02_stac_1338617675</title>
<g id="a_node9"><a xlink:title="1 &#160;Cat &#160;so if I build a road ">
<ellipse fill="black" stroke="black" cx="20" cy="-119.5" rx="3.5" ry="3.5"/>
</a>
</g>
</g>
<!-- pilot02_02_stac_1338617675&#45;&gt;pilot02_02_stac_1338627675 -->
<g id="edge6" class="edge">
<title>pilot02_02_stac_1338617675&#45;&gt;pilot02_02_stac_1338627675</title>
<g id="a_edge6"><a xlink:title="Question_answer_pair">
<path fill="none" stroke="#12ffff" d="M20,-115.68C20,-112.58 20,-107.47 20,-103.16"/>
<polygon fill="#12ffff" stroke="#12ffff" points="21.75,-103.06 20,-98.06 18.25,-103.06 21.75,-103.06"/>
</a>
</g>
</g>
<!-- pilot02_02_stac_1338617676 -->
<g id="node10" class="node">
<title>pilot02_02_stac_1338617676</title>
<g id="a_node10"><a xlink:title="1 &#160;Cat &#160;do i get the resources next to it?">
<ellipse fill="black" stroke="black" cx="45" cy="-119.5" rx="3.5" ry="3.5"/>
</a>
</g>
</g>
<!-- pilot02_02_stac_1338617675&#45;&gt;pilot02_02_stac_1338617676 -->
<g id="edge5" class="edge">
<title>pilot02_02_stac_1338617675&#45;&gt;pilot02_02_stac_1338617676</title>
<g id="a_edge5"><a xlink:title="Clarification_question">
<path fill="none" stroke="#ff40d1" d="M23.52,-119.5C27.78,-119.5 32.04,-119.5 36.3,-119.5"/>
<polygon fill="#ff40d1" stroke="#ff40d1" points="36.31,-121.25 41.31,-119.5 36.31,-117.75 36.31,-121.25"/>
</a>
</g>
</g>
<!-- pilot02_02_stac_1338617676&#45;&gt;pilot02_02_stac_1338627675 -->
<g id="edge7" class="edge">
<title>pilot02_02_stac_1338617676&#45;&gt;pilot02_02_stac_1338627675</title>
<g id="a_edge7"><a xlink:title="Question_answer_pair">
<path fill="none" stroke="#12ffff" d="M42.69,-116.38C38.92,-112.9 31.3,-105.89 25.93,-100.96"/>
<polygon fill="#12ffff" stroke="#12ffff" points="26.95,-99.52 22.09,-97.42 24.58,-102.09 26.95,-99.52"/>
</a>
</g>
</g>
</g>
</svg>
