<?xml version="1.0" encoding="UTF-8" standalone="no"?>
<!DOCTYPE svg PUBLIC "-//W3C//DTD SVG 1.1//EN"
 "http://www.w3.org/Graphics/SVG/1.1/DTD/svg11.dtd">
<!-- Generated by graphviz version 3.0.0 (20220226.1711)
 -->
<!-- Title: 3_pilot02_51 Pages: 1 -->
<svg width="139pt" height="347pt"
 viewBox="0.00 0.00 139.00 347.19" xmlns="http://www.w3.org/2000/svg" xmlns:xlink="http://www.w3.org/1999/xlink">
<g id="graph0" class="graph" transform="scale(1 1) rotate(0) translate(4 343.19)">
<title>3_pilot02_51</title>
<polygon fill="white" stroke="transparent" points="-4,4 -4,-343.19 135,-343.19 135,4 -4,4"/>
<g id="clust1" class="cluster">
<title>cluster_3_pilot02_51</title>
<polygon fill="none" stroke="black" points="8,-8 8,-329 123,-329 123,-8 8,-8"/>
<text text-anchor="middle" x="23" y="-313.8" font-family="Times,serif" font-size="14.00">51</text>
</g>
<!-- pilot02_03_stac_1338387679 -->
<g id="node1" class="node">
<title>pilot02_03_stac_1338387679</title>
<g id="a_node1"><a xlink:title="1 &#160;Cat &#160;so I&#39;d like to build a road...">
<ellipse fill="black" stroke="black" cx="43" cy="-294.5" rx="3.5" ry="3.5"/>
</a>
</g>
</g>
<!-- 1_0 -->
<!-- pilot02_03_stac_1338387679&#45;&gt;1_0 -->
<!-- 1_1 -->
<!-- pilot02_03_stac_1338387679&#45;&gt;1_1 -->
<!-- pilot02_03_stac_1338397679 -->
<g id="node4" class="node">
<title>pilot02_03_stac_1338397679</title>
<g id="a_node4"><a xlink:title="2 &#160;Cat &#160;where do i press?">
<ellipse fill="black" stroke="black" cx="43" cy="-269.5" rx="3.5" ry="3.5"/>
</a>
</g>
</g>
<!-- pilot02_03_stac_1338387679&#45;&gt;pilot02_03_stac_1338397679 -->
<g id="edge28" class="edge">
<title>pilot02_03_stac_1338387679&#45;&gt;pilot02_03_stac_1338397679</title>
<g id="a_edge28"><a xlink:title="Clarification_question">
<path fill="none" stroke="#ff40d1" d="M43,-290.68C43,-287.58 43,-282.47 43,-278.16"/>
<polygon fill="#ff40d1" stroke="#ff40d1" points="44.75,-278.06 43,-273.06 41.25,-278.06 44.75,-278.06"/>
</a>
</g>
</g>
<!-- 2_0 -->
<!-- pilot02_03_stac_1338397679&#45;&gt;2_0 -->
<!-- 2_1 -->
<!-- pilot02_03_stac_1338397679&#45;&gt;2_1 -->
<!-- pilot02_03_stac_1338407679 -->
<g id="node7" class="node">
<title>pilot02_03_stac_1338407679</title>
<g id="a_node7"><a xlink:title="3 &#160;william &#160;to build?">
<ellipse fill="black" stroke="black" cx="20" cy="-244.5" rx="3.5" ry="3.5"/>
</a>
</g>
</g>
<!-- pilot02_03_stac_1338397679&#45;&gt;pilot02_03_stac_1338407679 -->
<g id="edge29" class="edge">
<title>pilot02_03_stac_1338397679&#45;&gt;pilot02_03_stac_1338407679</title>
<g id="a_edge29"><a xlink:title="Q_Elab">
<path fill="none" stroke="#0d20ff" d="M40.88,-266.38C37.54,-263.04 30.95,-256.45 26.06,-251.56"/>
<polygon fill="#0d20ff" stroke="#0d20ff" points="27.23,-250.26 22.46,-247.96 24.76,-252.73 27.23,-250.26"/>
</a>
</g>
</g>
<!-- pilot02_03_stac_1338417679 -->
<g id="node10" class="node">
<title>pilot02_03_stac_1338417679</title>
<g id="a_node10"><a xlink:title="4 &#160;william &#160;at the bottom next to &quot;road&quot; etc.">
<ellipse fill="black" stroke="black" cx="20" cy="-219.5" rx="3.5" ry="3.5"/>
</a>
</g>
</g>
<!-- pilot02_03_stac_1338397679&#45;&gt;pilot02_03_stac_1338417679 -->
<g id="edge30" class="edge">
<title>pilot02_03_stac_1338397679&#45;&gt;pilot02_03_stac_1338417679</title>
<g id="a_edge30"><a xlink:title="Question_answer_pair">
<path fill="none" stroke="#12ffff" d="M42.24,-265.84C40.78,-260.85 37.3,-249.75 33,-241 30.59,-236.11 27.3,-230.92 24.63,-226.99"/>
<polygon fill="#12ffff" stroke="#12ffff" points="26,-225.89 21.69,-222.8 23.13,-227.9 26,-225.89"/>
</a>
</g>
</g>
<!-- pilot02_03_stac_1338427679 -->
<g id="node33" class="node">
<title>pilot02_03_stac_1338427679</title>
<g id="a_node33"><a xlink:title="5 &#160;Thomas &#160;if you have 1 wood, 1 clay, ">
<ellipse fill="black" stroke="black" cx="43" cy="-194.5" rx="3.5" ry="3.5"/>
</a>
</g>
</g>
<!-- pilot02_03_stac_1338397679&#45;&gt;pilot02_03_stac_1338427679 -->
<g id="edge31" class="edge">
<title>pilot02_03_stac_1338397679&#45;&gt;pilot02_03_stac_1338427679</title>
<g id="a_edge31"><a xlink:title="Question_answer_pair">
<path fill="none" stroke="#12ffff" d="M45.28,-266.54C54.68,-258.36 89.63,-226.85 83,-216 76.13,-204.75 60.9,-199.42 51.35,-197.1"/>
<polygon fill="#12ffff" stroke="#12ffff" points="51.51,-195.34 46.25,-196.01 50.78,-198.77 51.51,-195.34"/>
</a>
</g>
</g>
<!-- 3_0 -->
<!-- pilot02_03_stac_1338407679&#45;&gt;3_0 -->
<!-- 3_1 -->
<!-- pilot02_03_stac_1338407679&#45;&gt;3_1 -->
<!-- pilot02_03_stac_1338407679&#45;&gt;pilot02_03_stac_1338417679 -->
<!-- 4_0 -->
<!-- pilot02_03_stac_1338417679&#45;&gt;4_0 -->
<!-- 4_1 -->
<!-- pilot02_03_stac_1338417679&#45;&gt;4_1 -->
<!-- pilot02_03_stac_1338417679&#45;&gt;pilot02_03_stac_1338427679 -->
<!-- pilot02_03_stac_1338427680 -->
<g id="node13" class="node">
<title>pilot02_03_stac_1338427680</title>
<g id="a_node13"><a xlink:title="5 &#160;Thomas &#160;it is at the bottom of the screen">
<ellipse fill="black" stroke="black" cx="68" cy="-194.5" rx="3.5" ry="3.5"/>
</a>
</g>
</g>
<!-- 5_0 -->
<!-- pilot02_03_stac_1338427680&#45;&gt;5_0 -->
<!-- pilot02_03_stac_1338437679 -->
<g id="node15" class="node">
<title>pilot02_03_stac_1338437679</title>
<g id="a_node15"><a xlink:title="6 &#160;Cat &#160;okay, I see...">
<ellipse fill="black" stroke="black" cx="43" cy="-169.5" rx="3.5" ry="3.5"/>
</a>
</g>
</g>
<!-- 6_0 -->
<!-- pilot02_03_stac_1338437679&#45;&gt;6_0 -->
<!-- 6_1 -->
<!-- pilot02_03_stac_1338437679&#45;&gt;6_1 -->
<!-- pilot02_03_stac_1338447679 -->
<g id="node18" class="node">
<title>pilot02_03_stac_1338447679</title>
<g id="a_node18"><a xlink:title="7 &#160;Cat &#160;anyone wants an ore?">
<ellipse fill="black" stroke="black" cx="43" cy="-144.5" rx="3.5" ry="3.5"/>
</a>
</g>
</g>
<!-- pilot02_03_stac_1338437679&#45;&gt;pilot02_03_stac_1338447679 -->
<g id="edge34" class="edge">
<title>pilot02_03_stac_1338437679&#45;&gt;pilot02_03_stac_1338447679</title>
<g id="a_edge34"><a xlink:title="ParallNarrContinuationbackground">
<path fill="none" stroke="#0ab046" d="M43,-165.68C43,-162.58 43,-157.47 43,-153.16"/>
<polygon fill="#0ab046" stroke="#0ab046" points="44.75,-153.06 43,-148.06 41.25,-153.06 44.75,-153.06"/>
</a>
</g>
</g>
<!-- 7_0 -->
<!-- pilot02_03_stac_1338447679&#45;&gt;7_0 -->
<!-- 7_1 -->
<!-- pilot02_03_stac_1338447679&#45;&gt;7_1 -->
<!-- pilot02_03_stac_1338457679 -->
<g id="node21" class="node">
<title>pilot02_03_stac_1338457679</title>
<g id="a_node21"><a xlink:title="8 &#160;Thomas &#160;nope">
<ellipse fill="black" stroke="black" cx="20" cy="-119.5" rx="3.5" ry="3.5"/>
</a>
</g>
</g>
<!-- pilot02_03_stac_1338447679&#45;&gt;pilot02_03_stac_1338457679 -->
<g id="edge35" class="edge">
<title>pilot02_03_stac_1338447679&#45;&gt;pilot02_03_stac_1338457679</title>
<g id="a_edge35"><a xlink:title="Question_answer_pair">
<path fill="none" stroke="#12ffff" d="M40.88,-141.38C37.54,-138.04 30.95,-131.45 26.06,-126.56"/>
<polygon fill="#12ffff" stroke="#12ffff" points="27.23,-125.26 22.46,-122.96 24.76,-127.73 27.23,-125.26"/>
</a>
</g>
</g>
<!-- pilot02_03_stac_1338467679 -->
<g id="node24" class="node">
<title>pilot02_03_stac_1338467679</title>
<g id="a_node24"><a xlink:title="9 &#160;william &#160;no">
<ellipse fill="black" stroke="black" cx="20" cy="-94.5" rx="3.5" ry="3.5"/>
</a>
</g>
</g>
<!-- pilot02_03_stac_1338447679&#45;&gt;pilot02_03_stac_1338467679 -->
<g id="edge36" class="edge">
<title>pilot02_03_stac_1338447679&#45;&gt;pilot02_03_stac_1338467679</title>
<g id="a_edge36"><a xlink:title="Question_answer_pair">
<path fill="none" stroke="#12ffff" d="M42.24,-140.84C40.78,-135.85 37.3,-124.75 33,-116 30.59,-111.11 27.3,-105.92 24.63,-101.99"/>
<polygon fill="#12ffff" stroke="#12ffff" points="26,-100.89 21.69,-97.8 23.13,-102.9 26,-100.89"/>
</a>
</g>
</g>
<!-- pilot02_03_stac_1338477679 -->
<g id="node27" class="node">
<title>pilot02_03_stac_1338477679</title>
<g id="a_node27"><a xlink:title="10 &#160;Cat &#160;for a wood">
<ellipse fill="black" stroke="black" cx="43" cy="-69.5" rx="3.5" ry="3.5"/>
</a>
</g>
</g>
<!-- pilot02_03_stac_1338447679&#45;&gt;pilot02_03_stac_1338477679 -->
<g id="edge37" class="edge">
<title>pilot02_03_stac_1338447679&#45;&gt;pilot02_03_stac_1338477679</title>
<g id="a_edge37"><a xlink:title="Elaboration">
<path fill="none" stroke="#a621c7" d="M45.28,-141.54C54.68,-133.36 89.63,-101.85 83,-91 76.13,-79.75 60.9,-74.42 51.35,-72.1"/>
<polygon fill="#a621c7" stroke="#a621c7" points="51.51,-70.34 46.25,-71.01 50.78,-73.77 51.51,-70.34"/>
</a>
</g>
</g>
<!-- 8_0 -->
<!-- pilot02_03_stac_1338457679&#45;&gt;8_0 -->
<!-- 8_1 -->
<!-- pilot02_03_stac_1338457679&#45;&gt;8_1 -->
<!-- pilot02_03_stac_1338457679&#45;&gt;pilot02_03_stac_1338467679 -->
<!-- 9_0 -->
<!-- pilot02_03_stac_1338467679&#45;&gt;9_0 -->
<!-- 9_1 -->
<!-- pilot02_03_stac_1338467679&#45;&gt;9_1 -->
<!-- pilot02_03_stac_1338467679&#45;&gt;pilot02_03_stac_1338477679 -->
<!-- pilot02_03_stac_1338487679 -->
<g id="node34" class="node">
<title>pilot02_03_stac_1338487679</title>
<g id="a_node34"><a xlink:title="11 &#160;william &#160;you need 10 victory points to win. ">
<ellipse fill="black" stroke="black" cx="31" cy="-44.5" rx="3.5" ry="3.5"/>
</a>
</g>
</g>
<!-- pilot02_03_stac_1338467679&#45;&gt;pilot02_03_stac_1338487679 -->
<g id="edge38" class="edge">
<title>pilot02_03_stac_1338467679&#45;&gt;pilot02_03_stac_1338487679</title>
<g id="a_edge38"><a xlink:title="ExplanationResult">
<path fill="none" stroke="#a62139" d="M20.59,-90.92C22.19,-83.95 26.64,-64.55 29.17,-53.49"/>
<polygon fill="#a62139" stroke="#a62139" points="30.94,-53.6 30.35,-48.33 27.53,-52.81 30.94,-53.6"/>
</a>
</g>
</g>
<!-- 10_0 -->
<!-- pilot02_03_stac_1338477679&#45;&gt;10_0 -->
<!-- 10_1 -->
<!-- pilot02_03_stac_1338477679&#45;&gt;10_1 -->
<!-- pilot02_03_stac_1338477679&#45;&gt;pilot02_03_stac_1338487679 -->
<!-- pilot02_03_stac_1338517679 -->
<g id="node30" class="node">
<title>pilot02_03_stac_1338517679</title>
<g id="a_node30"><a xlink:title="12 &#160;Cat &#160;okay, thanks">
<ellipse fill="black" stroke="black" cx="46" cy="-19.5" rx="3.5" ry="3.5"/>
</a>
</g>
</g>
<!-- 12_0 -->
<!-- pilot02_03_stac_1338517679&#45;&gt;12_0 -->
<!-- 12_1 -->
<!-- pilot02_03_stac_1338517679&#45;&gt;12_1 -->
<!-- pilot02_03_stac_1338427679&#45;&gt;pilot02_03_stac_1338427680 -->
<g id="edge32" class="edge">
<title>pilot02_03_stac_1338427679&#45;&gt;pilot02_03_stac_1338427680</title>
<g id="a_edge32"><a xlink:title="Conditional">
<path fill="none" stroke="#1c931a" d="M46.52,-194.5C50.78,-194.5 55.04,-194.5 59.3,-194.5"/>
<polygon fill="#1c931a" stroke="#1c931a" points="59.31,-196.25 64.31,-194.5 59.31,-192.75 59.31,-196.25"/>
</a>
</g>
</g>
<!-- pilot02_03_stac_1338427679&#45;&gt;pilot02_03_stac_1338437679 -->
<g id="edge33" class="edge">
<title>pilot02_03_stac_1338427679&#45;&gt;pilot02_03_stac_1338437679</title>
<g id="a_edge33"><a xlink:title="Acknowledgement">
<path fill="none" stroke="#12ffff" d="M43,-190.68C43,-187.58 43,-182.47 43,-178.16"/>
<polygon fill="#12ffff" stroke="#12ffff" points="44.75,-178.06 43,-173.06 41.25,-178.06 44.75,-178.06"/>
</a>
</g>
</g>
<!-- pilot02_03_stac_1338487679&#45;&gt;pilot02_03_stac_1338517679 -->
<!-- pilot02_03_stac_1338487680 -->
<g id="node35" class="node">
<title>pilot02_03_stac_1338487680</title>
<g id="a_node35"><a xlink:title="11 &#160;william &#160;a settlement gives you 1 VP, ">
<ellipse fill="black" stroke="black" cx="56" cy="-44.5" rx="3.5" ry="3.5"/>
</a>
</g>
</g>
<!-- pilot02_03_stac_1338487679&#45;&gt;pilot02_03_stac_1338487680 -->
<g id="edge39" class="edge">
<title>pilot02_03_stac_1338487679&#45;&gt;pilot02_03_stac_1338487680</title>
<g id="a_edge39"><a xlink:title="Elaboration">
<path fill="none" stroke="#a621c7" d="M34.52,-44.5C38.78,-44.5 43.04,-44.5 47.3,-44.5"/>
<polygon fill="#a621c7" stroke="#a621c7" points="47.31,-46.25 52.31,-44.5 47.31,-42.75 47.31,-46.25"/>
</a>
</g>
</g>
<!-- pilot02_03_stac_1338487681 -->
<g id="node36" class="node">
<title>pilot02_03_stac_1338487681</title>
<g id="a_node36"><a xlink:title="11 &#160;william &#160;a city gives you 2 VP">
<ellipse fill="black" stroke="black" cx="81" cy="-44.5" rx="3.5" ry="3.5"/>
</a>
</g>
</g>
<!-- pilot02_03_stac_1338487680&#45;&gt;pilot02_03_stac_1338487681 -->
<g id="edge40" class="edge">
<title>pilot02_03_stac_1338487680&#45;&gt;pilot02_03_stac_1338487681</title>
<g id="a_edge40"><a xlink:title="Elaboration">
<path fill="none" stroke="#a621c7" d="M59.52,-44.5C63.78,-44.5 68.04,-44.5 72.3,-44.5"/>
<polygon fill="#a621c7" stroke="#a621c7" points="72.31,-46.25 77.31,-44.5 72.31,-42.75 72.31,-46.25"/>
</a>
</g>
</g>
<!-- pilot02_03_stac_1338487681&#45;&gt;pilot02_03_stac_1338517679 -->
<g id="edge41" class="edge">
<title>pilot02_03_stac_1338487681&#45;&gt;pilot02_03_stac_1338517679</title>
<g id="a_edge41"><a xlink:title="Acknowledgement">
<path fill="none" stroke="#12ffff" d="M78.25,-41.7C72.91,-38.18 60.97,-30.33 53.21,-25.24"/>
<polygon fill="#12ffff" stroke="#12ffff" points="53.78,-23.52 48.64,-22.23 51.86,-26.44 53.78,-23.52"/>
</a>
</g>
</g>
</g>
</svg>
