<?xml version="1.0" encoding="UTF-8" standalone="no"?>
<!DOCTYPE svg PUBLIC "-//W3C//DTD SVG 1.1//EN"
 "http://www.w3.org/Graphics/SVG/1.1/DTD/svg11.dtd">
<!-- Generated by graphviz version 3.0.0 (20220226.1711)
 -->
<!-- Title: 4_pilot02_54 Pages: 1 -->
<svg width="88pt" height="195pt"
 viewBox="0.00 0.00 88.00 195.00" xmlns="http://www.w3.org/2000/svg" xmlns:xlink="http://www.w3.org/1999/xlink">
<g id="graph0" class="graph" transform="scale(1 1) rotate(0) translate(4 191)">
<title>4_pilot02_54</title>
<polygon fill="white" stroke="transparent" points="-4,4 -4,-191 84,-191 84,4 -4,4"/>
<g id="clust1" class="cluster">
<title>cluster_4_pilot02_54</title>
<polygon fill="none" stroke="black" points="8,-8 8,-179 72,-179 72,-8 8,-8"/>
<text text-anchor="middle" x="23" y="-163.8" font-family="Times,serif" font-size="14.00">54</text>
</g>
<!-- pilot02_04_stac_1338497682 -->
<g id="node1" class="node">
<title>pilot02_04_stac_1338497682</title>
<g id="a_node1"><a xlink:title="1 &#160;william &#160;i&#39;ve got too much wheat!">
<ellipse fill="black" stroke="black" cx="43" cy="-144.5" rx="3.5" ry="3.5"/>
</a>
</g>
</g>
<!-- pilot02_04_stac_1338507682 -->
<g id="node2" class="node">
<title>pilot02_04_stac_1338507682</title>
<g id="a_node2"><a xlink:title="2 &#160;Thomas &#160;sheep again anyone?">
<ellipse fill="black" stroke="black" cx="43" cy="-119.5" rx="3.5" ry="3.5"/>
</a>
</g>
</g>
<!-- pilot02_04_stac_1338497682&#45;&gt;pilot02_04_stac_1338507682 -->
<g id="edge3" class="edge">
<title>pilot02_04_stac_1338497682&#45;&gt;pilot02_04_stac_1338507682</title>
<g id="a_edge3"><a xlink:title="ParallNarrContinuationbackground">
<path fill="none" stroke="#0ab046" d="M43,-140.68C43,-137.58 43,-132.47 43,-128.16"/>
<polygon fill="#0ab046" stroke="#0ab046" points="44.75,-128.06 43,-123.06 41.25,-128.06 44.75,-128.06"/>
</a>
</g>
</g>
<!-- pilot02_04_stac_1338517682 -->
<g id="node3" class="node">
<title>pilot02_04_stac_1338517682</title>
<g id="a_node3"><a xlink:title="3 &#160;Thomas &#160;or clay">
<ellipse fill="black" stroke="black" cx="20" cy="-94.5" rx="3.5" ry="3.5"/>
</a>
</g>
</g>
<!-- pilot02_04_stac_1338507682&#45;&gt;pilot02_04_stac_1338517682 -->
<g id="edge4" class="edge">
<title>pilot02_04_stac_1338507682&#45;&gt;pilot02_04_stac_1338517682</title>
<g id="a_edge4"><a xlink:title="Alternation">
<path fill="none" stroke="#10495e" d="M40.88,-116.38C37.54,-113.04 30.95,-106.45 26.06,-101.56"/>
<polygon fill="#10495e" stroke="#10495e" points="27.23,-100.26 22.46,-97.96 24.76,-102.73 27.23,-100.26"/>
</a>
</g>
</g>
<!-- pilot02_04_stac_1338527682 -->
<g id="node4" class="node">
<title>pilot02_04_stac_1338527682</title>
<g id="a_node4"><a xlink:title="4 &#160;william &#160;no">
<ellipse fill="black" stroke="black" cx="40" cy="-69.5" rx="3.5" ry="3.5"/>
</a>
</g>
</g>
<!-- pilot02_04_stac_1338507682&#45;&gt;pilot02_04_stac_1338527682 -->
<g id="edge5" class="edge">
<title>pilot02_04_stac_1338507682&#45;&gt;pilot02_04_stac_1338527682</title>
<g id="a_edge5"><a xlink:title="Question_answer_pair">
<path fill="none" stroke="#12ffff" d="M42.84,-115.92C42.4,-108.95 41.19,-89.55 40.5,-78.49"/>
<polygon fill="#12ffff" stroke="#12ffff" points="42.24,-78.21 40.18,-73.33 38.74,-78.43 42.24,-78.21"/>
</a>
</g>
</g>
<!-- pilot02_04_stac_1338547682 -->
<g id="node6" class="node">
<title>pilot02_04_stac_1338547682</title>
<g id="a_node6"><a xlink:title="6 &#160;Cat &#160;no">
<ellipse fill="black" stroke="black" cx="50" cy="-19.5" rx="3.5" ry="3.5"/>
</a>
</g>
</g>
<!-- pilot02_04_stac_1338507682&#45;&gt;pilot02_04_stac_1338547682 -->
<g id="edge7" class="edge">
<title>pilot02_04_stac_1338507682&#45;&gt;pilot02_04_stac_1338547682</title>
<g id="a_edge7"><a xlink:title="Question_answer_pair">
<path fill="none" stroke="#12ffff" d="M43.73,-116.06C45.72,-109.31 51.18,-89.72 53,-73 54.54,-58.86 54.03,-55.18 53,-41 52.69,-36.76 52.03,-32.07 51.4,-28.25"/>
<polygon fill="#12ffff" stroke="#12ffff" points="53.1,-27.76 50.51,-23.14 49.65,-28.37 53.1,-27.76"/>
</a>
</g>
</g>
<!-- pilot02_04_stac_1338517682&#45;&gt;pilot02_04_stac_1338527682 -->
<!-- pilot02_04_stac_1338537682 -->
<g id="node5" class="node">
<title>pilot02_04_stac_1338537682</title>
<g id="a_node5"><a xlink:title="5 &#160;william &#160;n">
<ellipse fill="black" stroke="black" cx="40" cy="-44.5" rx="3.5" ry="3.5"/>
</a>
</g>
</g>
<!-- pilot02_04_stac_1338527682&#45;&gt;pilot02_04_stac_1338537682 -->
<g id="edge6" class="edge">
<title>pilot02_04_stac_1338527682&#45;&gt;pilot02_04_stac_1338537682</title>
<g id="a_edge6"><a xlink:title="Comment">
<path fill="none" stroke="#ff8200" d="M40,-65.68C40,-62.58 40,-57.47 40,-53.16"/>
<polygon fill="#ff8200" stroke="#ff8200" points="41.75,-53.06 40,-48.06 38.25,-53.06 41.75,-53.06"/>
</a>
</g>
</g>
<!-- pilot02_04_stac_1338537682&#45;&gt;pilot02_04_stac_1338547682 -->
</g>
</svg>
