<?xml version="1.0" encoding="UTF-8" standalone="no"?>
<!DOCTYPE svg PUBLIC "-//W3C//DTD SVG 1.1//EN"
 "http://www.w3.org/Graphics/SVG/1.1/DTD/svg11.dtd">
<!-- Generated by graphviz version 3.0.0 (20220226.1711)
 -->
<!-- Title: 4_pilot02_55 Pages: 1 -->
<svg width="94pt" height="470pt"
 viewBox="0.00 0.00 94.00 470.00" xmlns="http://www.w3.org/2000/svg" xmlns:xlink="http://www.w3.org/1999/xlink">
<g id="graph0" class="graph" transform="scale(1 1) rotate(0) translate(4 466)">
<title>4_pilot02_55</title>
<polygon fill="white" stroke="transparent" points="-4,4 -4,-466 90,-466 90,4 -4,4"/>
<g id="clust1" class="cluster">
<title>cluster_4_pilot02_55</title>
<polygon fill="none" stroke="black" points="8,-8 8,-454 78,-454 78,-8 8,-8"/>
<text text-anchor="middle" x="23" y="-438.8" font-family="Times,serif" font-size="14.00">55</text>
</g>
<!-- pilot02_04_stac_1338587682 -->
<g id="node1" class="node">
<title>pilot02_04_stac_1338587682</title>
<g id="a_node1"><a xlink:title="1 &#160;Cat &#160;is the robber robbing me?">
<ellipse fill="black" stroke="black" cx="30" cy="-419.5" rx="3.5" ry="3.5"/>
</a>
</g>
</g>
<!-- 1_0 -->
<!-- pilot02_04_stac_1338587682&#45;&gt;1_0 -->
<!-- pilot02_04_stac_1338597682 -->
<g id="node3" class="node">
<title>pilot02_04_stac_1338597682</title>
<g id="a_node3"><a xlink:title="2 &#160;Cat &#160;can I move him?">
<ellipse fill="black" stroke="black" cx="30" cy="-394.5" rx="3.5" ry="3.5"/>
</a>
</g>
</g>
<!-- pilot02_04_stac_1338587682&#45;&gt;pilot02_04_stac_1338597682 -->
<g id="edge22" class="edge">
<title>pilot02_04_stac_1338587682&#45;&gt;pilot02_04_stac_1338597682</title>
<g id="a_edge22"><a xlink:title="Clarification_question">
<path fill="none" stroke="#ff40d1" d="M30,-415.68C30,-412.58 30,-407.47 30,-403.16"/>
<polygon fill="#ff40d1" stroke="#ff40d1" points="31.75,-403.06 30,-398.06 28.25,-403.06 31.75,-403.06"/>
</a>
</g>
</g>
<!-- 2_0 -->
<!-- pilot02_04_stac_1338597682&#45;&gt;2_0 -->
<!-- pilot02_04_stac_1338607682 -->
<g id="node5" class="node">
<title>pilot02_04_stac_1338607682</title>
<g id="a_node5"><a xlink:title="3 &#160;Thomas &#160;if you roll a 7">
<ellipse fill="black" stroke="black" cx="30" cy="-369.5" rx="3.5" ry="3.5"/>
</a>
</g>
</g>
<!-- pilot02_04_stac_1338597682&#45;&gt;pilot02_04_stac_1338607682 -->
<g id="edge23" class="edge">
<title>pilot02_04_stac_1338597682&#45;&gt;pilot02_04_stac_1338607682</title>
<g id="a_edge23"><a xlink:title="Question_answer_pair">
<path fill="none" stroke="#12ffff" d="M30,-390.68C30,-387.58 30,-382.47 30,-378.16"/>
<polygon fill="#12ffff" stroke="#12ffff" points="31.75,-378.06 30,-373.06 28.25,-378.06 31.75,-378.06"/>
</a>
</g>
</g>
<!-- 3_0 -->
<!-- pilot02_04_stac_1338607682&#45;&gt;3_0 -->
<!-- pilot02_04_stac_1338617682 -->
<g id="node7" class="node">
<title>pilot02_04_stac_1338617682</title>
<g id="a_node7"><a xlink:title="4 &#160;william &#160;the robber prevents you from getting that stuff while he&#39;s there">
<ellipse fill="black" stroke="black" cx="30" cy="-344.5" rx="3.5" ry="3.5"/>
</a>
</g>
</g>
<!-- pilot02_04_stac_1338607682&#45;&gt;pilot02_04_stac_1338617682 -->
<g id="edge24" class="edge">
<title>pilot02_04_stac_1338607682&#45;&gt;pilot02_04_stac_1338617682</title>
<g id="a_edge24"><a xlink:title="ExplanationResult">
<path fill="none" stroke="#a62139" d="M30,-365.68C30,-362.58 30,-357.47 30,-353.16"/>
<polygon fill="#a62139" stroke="#a62139" points="31.75,-353.06 30,-348.06 28.25,-353.06 31.75,-353.06"/>
</a>
</g>
</g>
<!-- 4_0 -->
<!-- pilot02_04_stac_1338617682&#45;&gt;4_0 -->
<!-- pilot02_04_stac_1338627682 -->
<g id="node9" class="node">
<title>pilot02_04_stac_1338627682</title>
<g id="a_node9"><a xlink:title="5 &#160;william &#160;can someone give me an ore??">
<ellipse fill="black" stroke="black" cx="30" cy="-319.5" rx="3.5" ry="3.5"/>
</a>
</g>
</g>
<!-- pilot02_04_stac_1338617682&#45;&gt;pilot02_04_stac_1338627682 -->
<g id="edge25" class="edge">
<title>pilot02_04_stac_1338617682&#45;&gt;pilot02_04_stac_1338627682</title>
<g id="a_edge25"><a xlink:title="ParallNarrContinuationbackground">
<path fill="none" stroke="#0ab046" d="M30,-340.68C30,-337.58 30,-332.47 30,-328.16"/>
<polygon fill="#0ab046" stroke="#0ab046" points="31.75,-328.06 30,-323.06 28.25,-328.06 31.75,-328.06"/>
</a>
</g>
</g>
<!-- 5_0 -->
<!-- pilot02_04_stac_1338627682&#45;&gt;5_0 -->
<!-- pilot02_04_stac_1338637682 -->
<g id="node11" class="node">
<title>pilot02_04_stac_1338637682</title>
<g id="a_node11"><a xlink:title="6 &#160;Cat &#160;what for?">
<ellipse fill="black" stroke="black" cx="20" cy="-294.5" rx="3.5" ry="3.5"/>
</a>
</g>
</g>
<!-- pilot02_04_stac_1338627682&#45;&gt;pilot02_04_stac_1338637682 -->
<g id="edge26" class="edge">
<title>pilot02_04_stac_1338627682&#45;&gt;pilot02_04_stac_1338637682</title>
<g id="a_edge26"><a xlink:title="Q_Elab">
<path fill="none" stroke="#0d20ff" d="M28.93,-316.04C27.54,-312.84 25.05,-307.12 23.06,-302.53"/>
<polygon fill="#0d20ff" stroke="#0d20ff" points="24.63,-301.76 21.03,-297.87 21.42,-303.16 24.63,-301.76"/>
</a>
</g>
</g>
<!-- pilot02_04_stac_1338657682 -->
<g id="node15" class="node">
<title>pilot02_04_stac_1338657682</title>
<g id="a_node15"><a xlink:title="8 &#160;Thomas &#160;sure">
<ellipse fill="black" stroke="black" cx="30" cy="-244.5" rx="3.5" ry="3.5"/>
</a>
</g>
</g>
<!-- pilot02_04_stac_1338627682&#45;&gt;pilot02_04_stac_1338657682 -->
<g id="edge28" class="edge">
<title>pilot02_04_stac_1338627682&#45;&gt;pilot02_04_stac_1338657682</title>
<g id="a_edge28"><a xlink:title="Question_answer_pair">
<path fill="none" stroke="#12ffff" d="M32.03,-316.26C37.55,-310 52.75,-291.56 58,-273 58.85,-270.01 59.41,-268.77 58,-266 53.83,-257.77 44.63,-252.05 37.91,-248.78"/>
<polygon fill="#12ffff" stroke="#12ffff" points="38.29,-247.04 33.01,-246.61 36.88,-250.24 38.29,-247.04"/>
</a>
</g>
</g>
<!-- 6_0 -->
<!-- pilot02_04_stac_1338637682&#45;&gt;6_0 -->
<!-- pilot02_04_stac_1338647682 -->
<g id="node13" class="node">
<title>pilot02_04_stac_1338647682</title>
<g id="a_node13"><a xlink:title="7 &#160;william &#160;wheat or wood">
<ellipse fill="black" stroke="black" cx="20" cy="-269.5" rx="3.5" ry="3.5"/>
</a>
</g>
</g>
<!-- pilot02_04_stac_1338637682&#45;&gt;pilot02_04_stac_1338647682 -->
<g id="edge27" class="edge">
<title>pilot02_04_stac_1338637682&#45;&gt;pilot02_04_stac_1338647682</title>
<g id="a_edge27"><a xlink:title="Question_answer_pair">
<path fill="none" stroke="#12ffff" d="M20,-290.68C20,-287.58 20,-282.47 20,-278.16"/>
<polygon fill="#12ffff" stroke="#12ffff" points="21.75,-278.06 20,-273.06 18.25,-278.06 21.75,-278.06"/>
</a>
</g>
</g>
<!-- 7_0 -->
<!-- pilot02_04_stac_1338647682&#45;&gt;7_0 -->
<!-- pilot02_04_stac_1338647682&#45;&gt;pilot02_04_stac_1338657682 -->
<!-- 8_0 -->
<!-- pilot02_04_stac_1338657682&#45;&gt;8_0 -->
<!-- pilot02_04_stac_1338667682 -->
<g id="node17" class="node">
<title>pilot02_04_stac_1338667682</title>
<g id="a_node17"><a xlink:title="9 &#160;william &#160;which?">
<ellipse fill="black" stroke="black" cx="30" cy="-219.5" rx="3.5" ry="3.5"/>
</a>
</g>
</g>
<!-- pilot02_04_stac_1338657682&#45;&gt;pilot02_04_stac_1338667682 -->
<g id="edge29" class="edge">
<title>pilot02_04_stac_1338657682&#45;&gt;pilot02_04_stac_1338667682</title>
<g id="a_edge29"><a xlink:title="Clarification_question">
<path fill="none" stroke="#ff40d1" d="M30,-240.68C30,-237.58 30,-232.47 30,-228.16"/>
<polygon fill="#ff40d1" stroke="#ff40d1" points="31.75,-228.06 30,-223.06 28.25,-228.06 31.75,-228.06"/>
</a>
</g>
</g>
<!-- 9_0 -->
<!-- pilot02_04_stac_1338667682&#45;&gt;9_0 -->
<!-- pilot02_04_stac_1338677682 -->
<g id="node19" class="node">
<title>pilot02_04_stac_1338677682</title>
<g id="a_node19"><a xlink:title="10 &#160;Cat &#160;how about sheep or clar?">
<ellipse fill="black" stroke="black" cx="30" cy="-194.5" rx="3.5" ry="3.5"/>
</a>
</g>
</g>
<!-- pilot02_04_stac_1338667682&#45;&gt;pilot02_04_stac_1338677682 -->
<g id="edge30" class="edge">
<title>pilot02_04_stac_1338667682&#45;&gt;pilot02_04_stac_1338677682</title>
<g id="a_edge30"><a xlink:title="Q_Elab">
<path fill="none" stroke="#0d20ff" d="M30,-215.68C30,-212.58 30,-207.47 30,-203.16"/>
<polygon fill="#0d20ff" stroke="#0d20ff" points="31.75,-203.06 30,-198.06 28.25,-203.06 31.75,-203.06"/>
</a>
</g>
</g>
<!-- 10_0 -->
<!-- pilot02_04_stac_1338677682&#45;&gt;10_0 -->
<!-- pilot02_04_stac_1338687682 -->
<g id="node21" class="node">
<title>pilot02_04_stac_1338687682</title>
<g id="a_node21"><a xlink:title="11 &#160;Thomas &#160;wheat please">
<ellipse fill="black" stroke="black" cx="20" cy="-169.5" rx="3.5" ry="3.5"/>
</a>
</g>
</g>
<!-- pilot02_04_stac_1338677682&#45;&gt;pilot02_04_stac_1338687682 -->
<g id="edge31" class="edge">
<title>pilot02_04_stac_1338677682&#45;&gt;pilot02_04_stac_1338687682</title>
<g id="a_edge31"><a xlink:title="Question_answer_pair">
<path fill="none" stroke="#12ffff" d="M28.93,-191.04C27.54,-187.84 25.05,-182.12 23.06,-177.53"/>
<polygon fill="#12ffff" stroke="#12ffff" points="24.63,-176.76 21.03,-172.87 21.42,-178.16 24.63,-176.76"/>
</a>
</g>
</g>
<!-- pilot02_04_stac_1338697682 -->
<g id="node23" class="node">
<title>pilot02_04_stac_1338697682</title>
<g id="a_node23"><a xlink:title="12 &#160;william &#160;k">
<ellipse fill="black" stroke="black" cx="41" cy="-144.5" rx="3.5" ry="3.5"/>
</a>
</g>
</g>
<!-- pilot02_04_stac_1338677682&#45;&gt;pilot02_04_stac_1338697682 -->
<g id="edge32" class="edge">
<title>pilot02_04_stac_1338677682&#45;&gt;pilot02_04_stac_1338697682</title>
<g id="a_edge32"><a xlink:title="Question_answer_pair">
<path fill="none" stroke="#12ffff" d="M30.59,-190.92C32.19,-183.95 36.64,-164.55 39.17,-153.49"/>
<polygon fill="#12ffff" stroke="#12ffff" points="40.94,-153.6 40.35,-148.33 37.53,-152.81 40.94,-153.6"/>
</a>
</g>
</g>
<!-- 11_0 -->
<!-- pilot02_04_stac_1338687682&#45;&gt;11_0 -->
<!-- pilot02_04_stac_1338687682&#45;&gt;pilot02_04_stac_1338697682 -->
<g id="edge33" class="edge">
<title>pilot02_04_stac_1338687682&#45;&gt;pilot02_04_stac_1338697682</title>
<g id="a_edge33"><a xlink:title="Acknowledgement">
<path fill="none" stroke="#12ffff" d="M21.94,-166.38C24.92,-163.11 30.77,-156.71 35.2,-151.85"/>
<polygon fill="#12ffff" stroke="#12ffff" points="36.67,-152.83 38.75,-147.96 34.09,-150.47 36.67,-152.83"/>
</a>
</g>
</g>
<!-- pilot02_04_stac_1338717682 -->
<g id="node31" class="node">
<title>pilot02_04_stac_1338717682</title>
<g id="a_node31"><a xlink:title="13 &#160;Thomas &#160;sorry ">
<ellipse fill="black" stroke="black" cx="20" cy="-119.5" rx="3.5" ry="3.5"/>
</a>
</g>
</g>
<!-- pilot02_04_stac_1338687682&#45;&gt;pilot02_04_stac_1338717682 -->
<g id="edge34" class="edge">
<title>pilot02_04_stac_1338687682&#45;&gt;pilot02_04_stac_1338717682</title>
<g id="a_edge34"><a xlink:title="Comment">
<path fill="none" stroke="#ff8200" d="M20,-165.92C20,-158.95 20,-139.55 20,-128.49"/>
<polygon fill="#ff8200" stroke="#ff8200" points="21.75,-128.33 20,-123.33 18.25,-128.33 21.75,-128.33"/>
</a>
</g>
</g>
<!-- 12_0 -->
<!-- pilot02_04_stac_1338697682&#45;&gt;12_0 -->
<!-- pilot02_04_stac_1338697682&#45;&gt;pilot02_04_stac_1338717682 -->
<!-- pilot02_04_stac_1338737682 -->
<g id="node33" class="node">
<title>pilot02_04_stac_1338737682</title>
<g id="a_node33"><a xlink:title="15 &#160;william &#160;if you move another window on top of the speech bubble ">
<ellipse fill="black" stroke="black" cx="20" cy="-69.5" rx="3.5" ry="3.5"/>
</a>
</g>
</g>
<!-- pilot02_04_stac_1338697682&#45;&gt;pilot02_04_stac_1338737682 -->
<g id="edge37" class="edge">
<title>pilot02_04_stac_1338697682&#45;&gt;pilot02_04_stac_1338737682</title>
<g id="a_edge37"><a xlink:title="Elaboration">
<path fill="none" stroke="#a621c7" d="M43.34,-141.66C47.26,-138.4 55.05,-131.18 58,-123 62.83,-109.62 65.29,-103.21 58,-91 51.64,-80.34 37.6,-74.89 28.49,-72.37"/>
<polygon fill="#a621c7" stroke="#a621c7" points="28.83,-70.66 23.56,-71.17 28,-74.06 28.83,-70.66"/>
</a>
</g>
</g>
<!-- pilot02_04_stac_1338727682 -->
<g id="node25" class="node">
<title>pilot02_04_stac_1338727682</title>
<g id="a_node25"><a xlink:title="14 &#160;Thomas &#160;couldn&#39;t see it">
<ellipse fill="black" stroke="black" cx="20" cy="-94.5" rx="3.5" ry="3.5"/>
</a>
</g>
</g>
<!-- 14_0 -->
<!-- pilot02_04_stac_1338727682&#45;&gt;14_0 -->
<!-- pilot02_04_stac_1338727682&#45;&gt;pilot02_04_stac_1338737682 -->
<!-- pilot02_04_stac_1338747682 -->
<g id="node27" class="node">
<title>pilot02_04_stac_1338747682</title>
<g id="a_node27"><a xlink:title="16 &#160;william &#160;like &quot;whiping&quot; over it">
<ellipse fill="black" stroke="black" cx="20" cy="-44.5" rx="3.5" ry="3.5"/>
</a>
</g>
</g>
<!-- 16_0 -->
<!-- pilot02_04_stac_1338747682&#45;&gt;16_0 -->
<!-- pilot02_04_stac_1338777682 -->
<g id="node29" class="node">
<title>pilot02_04_stac_1338777682</title>
<g id="a_node29"><a xlink:title="17 &#160;Thomas &#160;thanks">
<ellipse fill="black" stroke="black" cx="30" cy="-19.5" rx="3.5" ry="3.5"/>
</a>
</g>
</g>
<!-- pilot02_04_stac_1338747682&#45;&gt;pilot02_04_stac_1338777682 -->
<!-- 17_0 -->
<!-- pilot02_04_stac_1338777682&#45;&gt;17_0 -->
<!-- pilot02_04_stac_1338717682&#45;&gt;pilot02_04_stac_1338727682 -->
<!-- pilot02_04_stac_1338717683 -->
<g id="node32" class="node">
<title>pilot02_04_stac_1338717683</title>
<g id="a_node32"><a xlink:title="13 &#160;Thomas &#160;retry">
<ellipse fill="black" stroke="black" cx="45" cy="-119.5" rx="3.5" ry="3.5"/>
</a>
</g>
</g>
<!-- pilot02_04_stac_1338717682&#45;&gt;pilot02_04_stac_1338717683 -->
<g id="edge35" class="edge">
<title>pilot02_04_stac_1338717682&#45;&gt;pilot02_04_stac_1338717683</title>
<g id="a_edge35"><a xlink:title="ExplanationResult">
<path fill="none" stroke="#a62139" d="M23.52,-119.5C27.78,-119.5 32.04,-119.5 36.3,-119.5"/>
<polygon fill="#a62139" stroke="#a62139" points="36.31,-121.25 41.31,-119.5 36.31,-117.75 36.31,-121.25"/>
</a>
</g>
</g>
<!-- pilot02_04_stac_1338717683&#45;&gt;pilot02_04_stac_1338727682 -->
<g id="edge36" class="edge">
<title>pilot02_04_stac_1338717683&#45;&gt;pilot02_04_stac_1338727682</title>
<g id="a_edge36"><a xlink:title="ExplanationResult">
<path fill="none" stroke="#a62139" d="M42.69,-116.38C38.92,-112.9 31.3,-105.89 25.93,-100.96"/>
<polygon fill="#a62139" stroke="#a62139" points="26.95,-99.52 22.09,-97.42 24.58,-102.09 26.95,-99.52"/>
</a>
</g>
</g>
<!-- pilot02_04_stac_1338737682&#45;&gt;pilot02_04_stac_1338747682 -->
<!-- pilot02_04_stac_1338737683 -->
<g id="node34" class="node">
<title>pilot02_04_stac_1338737683</title>
<g id="a_node34"><a xlink:title="15 &#160;william &#160;you will see it">
<ellipse fill="black" stroke="black" cx="45" cy="-69.5" rx="3.5" ry="3.5"/>
</a>
</g>
</g>
<!-- pilot02_04_stac_1338737682&#45;&gt;pilot02_04_stac_1338737683 -->
<g id="edge38" class="edge">
<title>pilot02_04_stac_1338737682&#45;&gt;pilot02_04_stac_1338737683</title>
<g id="a_edge38"><a xlink:title="Conditional">
<path fill="none" stroke="#1c931a" d="M23.52,-69.5C27.78,-69.5 32.04,-69.5 36.3,-69.5"/>
<polygon fill="#1c931a" stroke="#1c931a" points="36.31,-71.25 41.31,-69.5 36.31,-67.75 36.31,-71.25"/>
</a>
</g>
</g>
<!-- pilot02_04_stac_1338737683&#45;&gt;pilot02_04_stac_1338747682 -->
<g id="edge39" class="edge">
<title>pilot02_04_stac_1338737683&#45;&gt;pilot02_04_stac_1338747682</title>
<g id="a_edge39"><a xlink:title="Elaboration">
<path fill="none" stroke="#a621c7" d="M42.69,-66.38C38.92,-62.9 31.3,-55.89 25.93,-50.96"/>
<polygon fill="#a621c7" stroke="#a621c7" points="26.95,-49.52 22.09,-47.42 24.58,-52.09 26.95,-49.52"/>
</a>
</g>
</g>
<!-- pilot02_04_stac_1338737683&#45;&gt;pilot02_04_stac_1338777682 -->
<g id="edge40" class="edge">
<title>pilot02_04_stac_1338737683&#45;&gt;pilot02_04_stac_1338777682</title>
<g id="a_edge40"><a xlink:title="Acknowledgement">
<path fill="none" stroke="#12ffff" d="M47.28,-66.48C52.16,-61.91 62.78,-50.42 58,-41 53.83,-32.77 44.63,-27.05 37.91,-23.78"/>
<polygon fill="#12ffff" stroke="#12ffff" points="38.29,-22.04 33.01,-21.61 36.88,-25.24 38.29,-22.04"/>
</a>
</g>
</g>
</g>
</svg>
