<?xml version="1.0" encoding="UTF-8" standalone="no"?>
<!DOCTYPE svg PUBLIC "-//W3C//DTD SVG 1.1//EN"
 "http://www.w3.org/Graphics/SVG/1.1/DTD/svg11.dtd">
<!-- Generated by graphviz version 3.0.0 (20220226.1711)
 -->
<!-- Title: 9_s2_league4_game2_790 Pages: 1 -->
<svg width="68pt" height="170pt"
 viewBox="0.00 0.00 68.00 170.00" xmlns="http://www.w3.org/2000/svg" xmlns:xlink="http://www.w3.org/1999/xlink">
<g id="graph0" class="graph" transform="scale(1 1) rotate(0) translate(4 166)">
<title>9_s2_league4_game2_790</title>
<polygon fill="white" stroke="transparent" points="-4,4 -4,-166 64,-166 64,4 -4,4"/>
<g id="clust1" class="cluster">
<title>cluster_9_s2_league4_game2_790</title>
<polygon fill="none" stroke="black" points="8,-8 8,-154 52,-154 52,-8 8,-8"/>
<text text-anchor="middle" x="26.5" y="-138.8" font-family="Times,serif" font-size="14.00">790</text>
</g>
<!-- s2_league4_game2_09_stac_1399316625 -->
<g id="node1" class="node">
<title>s2_league4_game2_09_stac_1399316625</title>
<g id="a_node1"><a xlink:title="1 &#160;ztime &#160;random 7">
<ellipse fill="black" stroke="black" cx="30" cy="-119.5" rx="3.5" ry="3.5"/>
</a>
</g>
</g>
<!-- s2_league4_game2_09_stac_1399316628 -->
<g id="node2" class="node">
<title>s2_league4_game2_09_stac_1399316628</title>
<g id="a_node2"><a xlink:title="2 &#160;Shawnus &#160;damn">
<ellipse fill="black" stroke="black" cx="20" cy="-94.5" rx="3.5" ry="3.5"/>
</a>
</g>
</g>
<!-- s2_league4_game2_09_stac_1399316625&#45;&gt;s2_league4_game2_09_stac_1399316628 -->
<g id="edge3" class="edge">
<title>s2_league4_game2_09_stac_1399316625&#45;&gt;s2_league4_game2_09_stac_1399316628</title>
<g id="a_edge3"><a xlink:title="Comment">
<path fill="none" stroke="#ff8200" d="M28.93,-116.04C27.54,-112.84 25.05,-107.12 23.06,-102.53"/>
<polygon fill="#ff8200" stroke="#ff8200" points="24.63,-101.76 21.03,-97.87 21.42,-103.16 24.63,-101.76"/>
</a>
</g>
</g>
<!-- s2_league4_game2_09_stac_1399316631 -->
<g id="node3" class="node">
<title>s2_league4_game2_09_stac_1399316631</title>
<g id="a_node3"><a xlink:title="3 &#160;ztime &#160;doesn&#39;t happen like this in the real game does it...?">
<ellipse fill="black" stroke="black" cx="40" cy="-69.5" rx="3.5" ry="3.5"/>
</a>
</g>
</g>
<!-- s2_league4_game2_09_stac_1399316625&#45;&gt;s2_league4_game2_09_stac_1399316631 -->
<g id="edge4" class="edge">
<title>s2_league4_game2_09_stac_1399316625&#45;&gt;s2_league4_game2_09_stac_1399316631</title>
<g id="a_edge4"><a xlink:title="Clarification_question">
<path fill="none" stroke="#ff40d1" d="M30.54,-115.92C31.99,-108.95 36.03,-89.55 38.34,-78.49"/>
<polygon fill="#ff40d1" stroke="#ff40d1" points="40.1,-78.58 39.41,-73.33 36.68,-77.87 40.1,-78.58"/>
</a>
</g>
</g>
<!-- s2_league4_game2_09_stac_1399316628&#45;&gt;s2_league4_game2_09_stac_1399316631 -->
<!-- s2_league4_game2_09_stac_1399316637 -->
<g id="node4" class="node">
<title>s2_league4_game2_09_stac_1399316637</title>
<g id="a_node4"><a xlink:title="4 &#160;Shawnus &#160;two resources stolen!">
<ellipse fill="black" stroke="black" cx="30" cy="-44.5" rx="3.5" ry="3.5"/>
</a>
</g>
</g>
<!-- s2_league4_game2_09_stac_1399316628&#45;&gt;s2_league4_game2_09_stac_1399316637 -->
<g id="edge5" class="edge">
<title>s2_league4_game2_09_stac_1399316628&#45;&gt;s2_league4_game2_09_stac_1399316637</title>
<g id="a_edge5"><a xlink:title="Explanation">
<path fill="none" stroke="#a62139" d="M20.54,-90.92C21.99,-83.95 26.03,-64.55 28.34,-53.49"/>
<polygon fill="#a62139" stroke="#a62139" points="30.1,-53.58 29.41,-48.33 26.68,-52.87 30.1,-53.58"/>
</a>
</g>
</g>
<!-- s2_league4_game2_09_stac_1399316631&#45;&gt;s2_league4_game2_09_stac_1399316637 -->
<!-- s2_league4_game2_09_stac_1399316640 -->
<g id="node5" class="node">
<title>s2_league4_game2_09_stac_1399316640</title>
<g id="a_node5"><a xlink:title="5 &#160;ztime &#160;sorry...">
<ellipse fill="black" stroke="black" cx="30" cy="-19.5" rx="3.5" ry="3.5"/>
</a>
</g>
</g>
<!-- s2_league4_game2_09_stac_1399316637&#45;&gt;s2_league4_game2_09_stac_1399316640 -->
<g id="edge6" class="edge">
<title>s2_league4_game2_09_stac_1399316637&#45;&gt;s2_league4_game2_09_stac_1399316640</title>
<g id="a_edge6"><a xlink:title="Comment">
<path fill="none" stroke="#ff8200" d="M30,-40.68C30,-37.58 30,-32.47 30,-28.16"/>
<polygon fill="#ff8200" stroke="#ff8200" points="31.75,-28.06 30,-23.06 28.25,-28.06 31.75,-28.06"/>
</a>
</g>
</g>
</g>
</svg>
