<?xml version="1.0" encoding="UTF-8" standalone="no"?>
<!DOCTYPE svg PUBLIC "-//W3C//DTD SVG 1.1//EN"
 "http://www.w3.org/Graphics/SVG/1.1/DTD/svg11.dtd">
<!-- Generated by graphviz version 3.0.0 (20220226.1711)
 -->
<!-- Title: 11_s2_league4_game2_794 Pages: 1 -->
<svg width="139pt" height="747pt"
 viewBox="0.00 0.00 139.00 747.19" xmlns="http://www.w3.org/2000/svg" xmlns:xlink="http://www.w3.org/1999/xlink">
<g id="graph0" class="graph" transform="scale(1 1) rotate(0) translate(4 743.19)">
<title>11_s2_league4_game2_794</title>
<polygon fill="white" stroke="transparent" points="-4,4 -4,-743.19 135,-743.19 135,4 -4,4"/>
<g id="clust1" class="cluster">
<title>cluster_11_s2_league4_game2_794</title>
<polygon fill="none" stroke="black" points="8,-8 8,-729 123,-729 123,-8 8,-8"/>
<text text-anchor="middle" x="26.5" y="-713.8" font-family="Times,serif" font-size="14.00">794</text>
</g>
<!-- s2_league4_game2_11_stac_1399316474 -->
<g id="node1" class="node">
<title>s2_league4_game2_11_stac_1399316474</title>
<g id="a_node1"><a xlink:title="1 &#160;somdechn &#160;:)">
<ellipse fill="black" stroke="black" cx="41" cy="-694.5" rx="3.5" ry="3.5"/>
</a>
</g>
</g>
<!-- 1_0 -->
<!-- s2_league4_game2_11_stac_1399316474&#45;&gt;1_0 -->
<!-- 1_1 -->
<!-- s2_league4_game2_11_stac_1399316474&#45;&gt;1_1 -->
<!-- s2_league4_game2_11_stac_1399316477 -->
<g id="node79" class="node">
<title>s2_league4_game2_11_stac_1399316477</title>
<g id="a_node79"><a xlink:title="2 &#160;ztime &#160;:&#45;)">
<ellipse fill="black" stroke="black" cx="41" cy="-669.5" rx="3.5" ry="3.5"/>
</a>
</g>
</g>
<!-- s2_league4_game2_11_stac_1399316474&#45;&gt;s2_league4_game2_11_stac_1399316477 -->
<g id="edge68" class="edge">
<title>s2_league4_game2_11_stac_1399316474&#45;&gt;s2_league4_game2_11_stac_1399316477</title>
<g id="a_edge68"><a xlink:title="Comment">
<path fill="none" stroke="#ff8200" d="M41,-690.68C41,-687.58 41,-682.47 41,-678.16"/>
<polygon fill="#ff8200" stroke="#ff8200" points="42.75,-678.06 41,-673.06 39.25,-678.06 42.75,-678.06"/>
</a>
</g>
</g>
<!-- s2_league4_game2_11_stac_1399316478 -->
<g id="node4" class="node">
<title>s2_league4_game2_11_stac_1399316478</title>
<g id="a_node4"><a xlink:title="2 &#160;ztime &#160;thanks!!!!">
<ellipse fill="black" stroke="black" cx="66" cy="-669.5" rx="3.5" ry="3.5"/>
</a>
</g>
</g>
<!-- 2_0 -->
<!-- s2_league4_game2_11_stac_1399316478&#45;&gt;2_0 -->
<!-- s2_league4_game2_11_stac_1399316481 -->
<g id="node6" class="node">
<title>s2_league4_game2_11_stac_1399316481</title>
<g id="a_node6"><a xlink:title="3 &#160;Shawnus &#160;damn!">
<ellipse fill="black" stroke="black" cx="41" cy="-644.5" rx="3.5" ry="3.5"/>
</a>
</g>
</g>
<!-- 3_0 -->
<!-- s2_league4_game2_11_stac_1399316481&#45;&gt;3_0 -->
<!-- 3_1 -->
<!-- s2_league4_game2_11_stac_1399316481&#45;&gt;3_1 -->
<!-- s2_league4_game2_11_stac_1399316484 -->
<g id="node9" class="node">
<title>s2_league4_game2_11_stac_1399316484</title>
<g id="a_node9"><a xlink:title="4 &#160;somdechn &#160;Nice one bro...">
<ellipse fill="black" stroke="black" cx="20" cy="-619.5" rx="3.5" ry="3.5"/>
</a>
</g>
</g>
<!-- s2_league4_game2_11_stac_1399316481&#45;&gt;s2_league4_game2_11_stac_1399316484 -->
<!-- s2_league4_game2_11_stac_1399316487 -->
<g id="node12" class="node">
<title>s2_league4_game2_11_stac_1399316487</title>
<g id="a_node12"><a xlink:title="5 &#160;Shawnus &#160;nice one">
<ellipse fill="black" stroke="black" cx="40" cy="-594.5" rx="3.5" ry="3.5"/>
</a>
</g>
</g>
<!-- s2_league4_game2_11_stac_1399316481&#45;&gt;s2_league4_game2_11_stac_1399316487 -->
<g id="edge72" class="edge">
<title>s2_league4_game2_11_stac_1399316481&#45;&gt;s2_league4_game2_11_stac_1399316487</title>
<g id="a_edge72"><a xlink:title="Comment">
<path fill="none" stroke="#ff8200" d="M40.95,-640.92C40.8,-633.95 40.4,-614.55 40.17,-603.49"/>
<polygon fill="#ff8200" stroke="#ff8200" points="41.91,-603.29 40.06,-598.33 38.41,-603.37 41.91,-603.29"/>
</a>
</g>
</g>
<!-- 4_0 -->
<!-- s2_league4_game2_11_stac_1399316484&#45;&gt;4_0 -->
<!-- 4_1 -->
<!-- s2_league4_game2_11_stac_1399316484&#45;&gt;4_1 -->
<!-- s2_league4_game2_11_stac_1399316484&#45;&gt;s2_league4_game2_11_stac_1399316487 -->
<!-- 5_0 -->
<!-- s2_league4_game2_11_stac_1399316487&#45;&gt;5_0 -->
<!-- 5_1 -->
<!-- s2_league4_game2_11_stac_1399316487&#45;&gt;5_1 -->
<!-- s2_league4_game2_11_stac_1399316490 -->
<g id="node15" class="node">
<title>s2_league4_game2_11_stac_1399316490</title>
<g id="a_node15"><a xlink:title="6 &#160;ztime &#160;that was a close game....">
<ellipse fill="black" stroke="black" cx="40" cy="-569.5" rx="3.5" ry="3.5"/>
</a>
</g>
</g>
<!-- s2_league4_game2_11_stac_1399316487&#45;&gt;s2_league4_game2_11_stac_1399316490 -->
<!-- 6_0 -->
<!-- s2_league4_game2_11_stac_1399316490&#45;&gt;6_0 -->
<!-- 6_1 -->
<!-- s2_league4_game2_11_stac_1399316490&#45;&gt;6_1 -->
<!-- s2_league4_game2_11_stac_1399316493 -->
<g id="node18" class="node">
<title>s2_league4_game2_11_stac_1399316493</title>
<g id="a_node18"><a xlink:title="7 &#160;Shawnus &#160;yeah">
<ellipse fill="black" stroke="black" cx="40" cy="-544.5" rx="3.5" ry="3.5"/>
</a>
</g>
</g>
<!-- s2_league4_game2_11_stac_1399316490&#45;&gt;s2_league4_game2_11_stac_1399316493 -->
<g id="edge74" class="edge">
<title>s2_league4_game2_11_stac_1399316490&#45;&gt;s2_league4_game2_11_stac_1399316493</title>
<g id="a_edge74"><a xlink:title="Acknowledgement">
<path fill="none" stroke="#12ffff" d="M40,-565.68C40,-562.58 40,-557.47 40,-553.16"/>
<polygon fill="#12ffff" stroke="#12ffff" points="41.75,-553.06 40,-548.06 38.25,-553.06 41.75,-553.06"/>
</a>
</g>
</g>
<!-- s2_league4_game2_11_stac_1399316496 -->
<g id="node21" class="node">
<title>s2_league4_game2_11_stac_1399316496</title>
<g id="a_node21"><a xlink:title="8 &#160;Shawnus &#160;hats off to you">
<ellipse fill="black" stroke="black" cx="39" cy="-519.5" rx="3.5" ry="3.5"/>
</a>
</g>
</g>
<!-- s2_league4_game2_11_stac_1399316490&#45;&gt;s2_league4_game2_11_stac_1399316496 -->
<g id="edge75" class="edge">
<title>s2_league4_game2_11_stac_1399316490&#45;&gt;s2_league4_game2_11_stac_1399316496</title>
<g id="a_edge75"><a xlink:title="Comment">
<path fill="none" stroke="#ff8200" d="M38.16,-566.29C35.32,-562.71 29.99,-555.32 28,-548 26.02,-540.7 29.94,-532.72 33.64,-527.24"/>
<polygon fill="#ff8200" stroke="#ff8200" points="35.21,-528.06 36.8,-523.01 32.4,-525.97 35.21,-528.06"/>
</a>
</g>
</g>
<!-- s2_league4_game2_11_stac_1399316499 -->
<g id="node24" class="node">
<title>s2_league4_game2_11_stac_1399316499</title>
<g id="a_node24"><a xlink:title="9 &#160;somdechn &#160;You should have won it long time ago..">
<ellipse fill="black" stroke="black" cx="61" cy="-494.5" rx="3.5" ry="3.5"/>
</a>
</g>
</g>
<!-- s2_league4_game2_11_stac_1399316490&#45;&gt;s2_league4_game2_11_stac_1399316499 -->
<g id="edge77" class="edge">
<title>s2_league4_game2_11_stac_1399316490&#45;&gt;s2_league4_game2_11_stac_1399316499</title>
<g id="a_edge77"><a xlink:title="Comment">
<path fill="none" stroke="#ff8200" d="M43.17,-567.7C55.43,-564.58 99.28,-553.12 103,-548 106.72,-542.87 113.85,-534.34 102,-516 94.64,-504.6 78.89,-499.29 69.2,-497.02"/>
<polygon fill="#ff8200" stroke="#ff8200" points="69.55,-495.3 64.3,-496.01 68.84,-498.73 69.55,-495.3"/>
</a>
</g>
</g>
<!-- 7_0 -->
<!-- s2_league4_game2_11_stac_1399316493&#45;&gt;7_0 -->
<!-- 7_1 -->
<!-- s2_league4_game2_11_stac_1399316493&#45;&gt;7_1 -->
<!-- s2_league4_game2_11_stac_1399316493&#45;&gt;s2_league4_game2_11_stac_1399316496 -->
<g id="edge76" class="edge">
<title>s2_league4_game2_11_stac_1399316493&#45;&gt;s2_league4_game2_11_stac_1399316496</title>
<g id="a_edge76"><a xlink:title="Elaboration">
<path fill="none" stroke="#a621c7" d="M39.88,-540.68C39.74,-537.58 39.52,-532.47 39.33,-528.16"/>
<polygon fill="#a621c7" stroke="#a621c7" points="41.08,-527.98 39.11,-523.06 37.58,-528.13 41.08,-527.98"/>
</a>
</g>
</g>
<!-- 8_0 -->
<!-- s2_league4_game2_11_stac_1399316496&#45;&gt;8_0 -->
<!-- 8_1 -->
<!-- s2_league4_game2_11_stac_1399316496&#45;&gt;8_1 -->
<!-- s2_league4_game2_11_stac_1399316496&#45;&gt;s2_league4_game2_11_stac_1399316499 -->
<!-- s2_league4_game2_11_stac_1399316502 -->
<g id="node27" class="node">
<title>s2_league4_game2_11_stac_1399316502</title>
<g id="a_node27"><a xlink:title="10 &#160;Shawnus &#160;and next time..all 4 of us?">
<ellipse fill="black" stroke="black" cx="38" cy="-469.5" rx="3.5" ry="3.5"/>
</a>
</g>
</g>
<!-- s2_league4_game2_11_stac_1399316496&#45;&gt;s2_league4_game2_11_stac_1399316502 -->
<g id="edge78" class="edge">
<title>s2_league4_game2_11_stac_1399316496&#45;&gt;s2_league4_game2_11_stac_1399316502</title>
<g id="a_edge78"><a xlink:title="Continuation">
<path fill="none" stroke="#10491b" d="M38.95,-515.92C38.8,-508.95 38.4,-489.55 38.17,-478.49"/>
<polygon fill="#10491b" stroke="#10491b" points="39.91,-478.29 38.06,-473.33 36.41,-478.37 39.91,-478.29"/>
</a>
</g>
</g>
<!-- 9_0 -->
<!-- s2_league4_game2_11_stac_1399316499&#45;&gt;9_0 -->
<!-- 9_1 -->
<!-- s2_league4_game2_11_stac_1399316499&#45;&gt;9_1 -->
<!-- s2_league4_game2_11_stac_1399316499&#45;&gt;s2_league4_game2_11_stac_1399316502 -->
<!-- s2_league4_game2_11_stac_1399316505 -->
<g id="node30" class="node">
<title>s2_league4_game2_11_stac_1399316505</title>
<g id="a_node30"><a xlink:title="11 &#160;ztime &#160;I was so stuck">
<ellipse fill="black" stroke="black" cx="40" cy="-444.5" rx="3.5" ry="3.5"/>
</a>
</g>
</g>
<!-- s2_league4_game2_11_stac_1399316499&#45;&gt;s2_league4_game2_11_stac_1399316505 -->
<g id="edge79" class="edge">
<title>s2_league4_game2_11_stac_1399316499&#45;&gt;s2_league4_game2_11_stac_1399316505</title>
<g id="a_edge79"><a xlink:title="Comment">
<path fill="none" stroke="#ff8200" d="M60.18,-490.87C58.62,-485.92 54.98,-474.9 51,-466 48.91,-461.34 46.2,-456.28 44,-452.35"/>
<polygon fill="#ff8200" stroke="#ff8200" points="45.41,-451.3 41.4,-447.84 42.38,-453.05 45.41,-451.3"/>
</a>
</g>
</g>
<!-- 10_0 -->
<!-- s2_league4_game2_11_stac_1399316502&#45;&gt;10_0 -->
<!-- 10_1 -->
<!-- s2_league4_game2_11_stac_1399316502&#45;&gt;10_1 -->
<!-- s2_league4_game2_11_stac_1399316502&#45;&gt;s2_league4_game2_11_stac_1399316505 -->
<!-- s2_league4_game2_11_stac_1399316508 -->
<g id="node80" class="node">
<title>s2_league4_game2_11_stac_1399316508</title>
<g id="a_node80"><a xlink:title="12 &#160;ztime &#160;yer.. either all 4..">
<ellipse fill="black" stroke="black" cx="20" cy="-419.5" rx="3.5" ry="3.5"/>
</a>
</g>
</g>
<!-- s2_league4_game2_11_stac_1399316502&#45;&gt;s2_league4_game2_11_stac_1399316508 -->
<g id="edge80" class="edge">
<title>s2_league4_game2_11_stac_1399316502&#45;&gt;s2_league4_game2_11_stac_1399316508</title>
<g id="a_edge80"><a xlink:title="Question_answer_pair">
<path fill="none" stroke="#12ffff" d="M36.69,-466.16C34.64,-462.41 30.62,-454.8 28,-448 25.47,-441.46 23.3,-433.78 21.86,-428.2"/>
<polygon fill="#12ffff" stroke="#12ffff" points="23.51,-427.56 20.61,-423.13 20.11,-428.4 23.51,-427.56"/>
</a>
</g>
</g>
<!-- s2_league4_game2_11_stac_1399316530 -->
<g id="node81" class="node">
<title>s2_league4_game2_11_stac_1399316530</title>
<g id="a_node81"><a xlink:title="19 &#160;ztime &#160;ok guys">
<ellipse fill="black" stroke="black" cx="40" cy="-244.5" rx="3.5" ry="3.5"/>
</a>
</g>
</g>
<!-- s2_league4_game2_11_stac_1399316502&#45;&gt;s2_league4_game2_11_stac_1399316530 -->
<g id="edge88" class="edge">
<title>s2_league4_game2_11_stac_1399316502&#45;&gt;s2_league4_game2_11_stac_1399316530</title>
<g id="a_edge88"><a xlink:title="Question_answer_pair">
<path fill="none" stroke="#12ffff" d="M41.49,-468.43C52.2,-468.02 84.88,-465.35 103,-448 112.39,-439 113,-433.51 113,-420.5 113,-420.5 113,-420.5 113,-318.5 113,-305.49 111.2,-301.1 103,-291 93.44,-279.22 86.37,-281.79 74,-273 63.74,-265.71 52.51,-256.33 45.87,-250.63"/>
<polygon fill="#12ffff" stroke="#12ffff" points="47,-249.29 42.08,-247.33 44.71,-251.93 47,-249.29"/>
</a>
</g>
</g>
<!-- 11_0 -->
<!-- s2_league4_game2_11_stac_1399316505&#45;&gt;11_0 -->
<!-- 11_1 -->
<!-- s2_league4_game2_11_stac_1399316505&#45;&gt;11_1 -->
<!-- s2_league4_game2_11_stac_1399316505&#45;&gt;s2_league4_game2_11_stac_1399316508 -->
<!-- s2_league4_game2_11_stac_1399316509 -->
<g id="node33" class="node">
<title>s2_league4_game2_11_stac_1399316509</title>
<g id="a_node33"><a xlink:title="12 &#160;ztime &#160;or I drop out and you 2 play with Wolfie">
<ellipse fill="black" stroke="black" cx="45" cy="-419.5" rx="3.5" ry="3.5"/>
</a>
</g>
</g>
<!-- 12_0 -->
<!-- s2_league4_game2_11_stac_1399316509&#45;&gt;12_0 -->
<!-- s2_league4_game2_11_stac_1399316512 -->
<g id="node35" class="node">
<title>s2_league4_game2_11_stac_1399316512</title>
<g id="a_node35"><a xlink:title="13 &#160;ztime &#160;(woodnsheep / claire)">
<ellipse fill="black" stroke="black" cx="40" cy="-394.5" rx="3.5" ry="3.5"/>
</a>
</g>
</g>
<!-- s2_league4_game2_11_stac_1399316509&#45;&gt;s2_league4_game2_11_stac_1399316512 -->
<g id="edge82" class="edge">
<title>s2_league4_game2_11_stac_1399316509&#45;&gt;s2_league4_game2_11_stac_1399316512</title>
<g id="a_edge82"><a xlink:title="Elaboration">
<path fill="none" stroke="#a621c7" d="M44.46,-416.04C43.8,-412.97 42.63,-407.6 41.66,-403.12"/>
<polygon fill="#a621c7" stroke="#a621c7" points="43.35,-402.67 40.58,-398.16 39.93,-403.41 43.35,-402.67"/>
</a>
</g>
</g>
<!-- 13_0 -->
<!-- s2_league4_game2_11_stac_1399316512&#45;&gt;13_0 -->
<!-- 13_1 -->
<!-- s2_league4_game2_11_stac_1399316512&#45;&gt;13_1 -->
<!-- s2_league4_game2_11_stac_1399316515 -->
<g id="node38" class="node">
<title>s2_league4_game2_11_stac_1399316515</title>
<g id="a_node38"><a xlink:title="14 &#160;somdechn &#160;SheepNWood can&#39;t do weekend though..">
<ellipse fill="black" stroke="black" cx="30" cy="-369.5" rx="3.5" ry="3.5"/>
</a>
</g>
</g>
<!-- s2_league4_game2_11_stac_1399316512&#45;&gt;s2_league4_game2_11_stac_1399316515 -->
<!-- 14_0 -->
<!-- s2_league4_game2_11_stac_1399316515&#45;&gt;14_0 -->
<!-- 14_1 -->
<!-- s2_league4_game2_11_stac_1399316515&#45;&gt;14_1 -->
<!-- s2_league4_game2_11_stac_1399316518 -->
<g id="node41" class="node">
<title>s2_league4_game2_11_stac_1399316518</title>
<g id="a_node41"><a xlink:title="15 &#160;Shawnus &#160;urgh">
<ellipse fill="black" stroke="black" cx="20" cy="-344.5" rx="3.5" ry="3.5"/>
</a>
</g>
</g>
<!-- s2_league4_game2_11_stac_1399316515&#45;&gt;s2_league4_game2_11_stac_1399316518 -->
<g id="edge84" class="edge">
<title>s2_league4_game2_11_stac_1399316515&#45;&gt;s2_league4_game2_11_stac_1399316518</title>
<g id="a_edge84"><a xlink:title="Comment">
<path fill="none" stroke="#ff8200" d="M28.93,-366.04C27.54,-362.84 25.05,-357.12 23.06,-352.53"/>
<polygon fill="#ff8200" stroke="#ff8200" points="24.63,-351.76 21.03,-347.87 21.42,-353.16 24.63,-351.76"/>
</a>
</g>
</g>
<!-- s2_league4_game2_11_stac_1399316521 -->
<g id="node44" class="node">
<title>s2_league4_game2_11_stac_1399316521</title>
<g id="a_node44"><a xlink:title="16 &#160;ztime &#160;she&#39;ll have to fit in 1 or 2...">
<ellipse fill="black" stroke="black" cx="40" cy="-319.5" rx="3.5" ry="3.5"/>
</a>
</g>
</g>
<!-- s2_league4_game2_11_stac_1399316515&#45;&gt;s2_league4_game2_11_stac_1399316521 -->
<g id="edge85" class="edge">
<title>s2_league4_game2_11_stac_1399316515&#45;&gt;s2_league4_game2_11_stac_1399316521</title>
<g id="a_edge85"><a xlink:title="Contrast">
<path fill="none" stroke="#ff7ecf" d="M33.33,-367.73C44.01,-365.18 77.03,-356.71 83,-348 92.64,-333.93 63.48,-325.47 48.42,-322.14"/>
<polygon fill="#ff7ecf" stroke="#ff7ecf" points="48.53,-320.38 43.28,-321.08 47.83,-323.81 48.53,-320.38"/>
</a>
</g>
</g>
<!-- 15_0 -->
<!-- s2_league4_game2_11_stac_1399316518&#45;&gt;15_0 -->
<!-- 15_1 -->
<!-- s2_league4_game2_11_stac_1399316518&#45;&gt;15_1 -->
<!-- s2_league4_game2_11_stac_1399316518&#45;&gt;s2_league4_game2_11_stac_1399316521 -->
<!-- s2_league4_game2_11_stac_1399316524 -->
<g id="node47" class="node">
<title>s2_league4_game2_11_stac_1399316524</title>
<g id="a_node47"><a xlink:title="17 &#160;Shawnus &#160;we will sort something out maybe">
<ellipse fill="black" stroke="black" cx="40" cy="-294.5" rx="3.5" ry="3.5"/>
</a>
</g>
</g>
<!-- s2_league4_game2_11_stac_1399316518&#45;&gt;s2_league4_game2_11_stac_1399316524 -->
<g id="edge86" class="edge">
<title>s2_league4_game2_11_stac_1399316518&#45;&gt;s2_league4_game2_11_stac_1399316524</title>
<g id="a_edge86"><a xlink:title="Continuation">
<path fill="none" stroke="#10491b" d="M20.54,-340.85C21.61,-335.85 24.23,-324.77 28,-316 30.11,-311.1 33.15,-305.92 35.64,-301.99"/>
<polygon fill="#10491b" stroke="#10491b" points="37.11,-302.94 38.4,-297.8 34.19,-301.02 37.11,-302.94"/>
</a>
</g>
</g>
<!-- 16_0 -->
<!-- s2_league4_game2_11_stac_1399316521&#45;&gt;16_0 -->
<!-- 16_1 -->
<!-- s2_league4_game2_11_stac_1399316521&#45;&gt;16_1 -->
<!-- s2_league4_game2_11_stac_1399316521&#45;&gt;s2_league4_game2_11_stac_1399316524 -->
<!-- 17_0 -->
<!-- s2_league4_game2_11_stac_1399316524&#45;&gt;17_0 -->
<!-- 17_1 -->
<!-- s2_league4_game2_11_stac_1399316524&#45;&gt;17_1 -->
<!-- s2_league4_game2_11_stac_1399316527 -->
<g id="node50" class="node">
<title>s2_league4_game2_11_stac_1399316527</title>
<g id="a_node50"><a xlink:title="18 &#160;ztime &#160;she made one the other week with somdech and me...">
<ellipse fill="black" stroke="black" cx="40" cy="-269.5" rx="3.5" ry="3.5"/>
</a>
</g>
</g>
<!-- s2_league4_game2_11_stac_1399316524&#45;&gt;s2_league4_game2_11_stac_1399316527 -->
<g id="edge87" class="edge">
<title>s2_league4_game2_11_stac_1399316524&#45;&gt;s2_league4_game2_11_stac_1399316527</title>
<g id="a_edge87"><a xlink:title="Explanation">
<path fill="none" stroke="#a62139" d="M40,-290.68C40,-287.58 40,-282.47 40,-278.16"/>
<polygon fill="#a62139" stroke="#a62139" points="41.75,-278.06 40,-273.06 38.25,-278.06 41.75,-278.06"/>
</a>
</g>
</g>
<!-- 18_0 -->
<!-- s2_league4_game2_11_stac_1399316527&#45;&gt;18_0 -->
<!-- 18_1 -->
<!-- s2_league4_game2_11_stac_1399316527&#45;&gt;18_1 -->
<!-- s2_league4_game2_11_stac_1399316527&#45;&gt;s2_league4_game2_11_stac_1399316530 -->
<!-- s2_league4_game2_11_stac_1399316536 -->
<g id="node53" class="node">
<title>s2_league4_game2_11_stac_1399316536</title>
<g id="a_node53"><a xlink:title="20 &#160;Shawnus &#160;so...see you guys on email :)">
<ellipse fill="black" stroke="black" cx="65" cy="-219.5" rx="3.5" ry="3.5"/>
</a>
</g>
</g>
<!-- 20_0 -->
<!-- s2_league4_game2_11_stac_1399316536&#45;&gt;20_0 -->
<!-- s2_league4_game2_11_stac_1399316539 -->
<g id="node55" class="node">
<title>s2_league4_game2_11_stac_1399316539</title>
<g id="a_node55"><a xlink:title="21 &#160;ztime &#160;have a great weekend...">
<ellipse fill="black" stroke="black" cx="40" cy="-194.5" rx="3.5" ry="3.5"/>
</a>
</g>
</g>
<!-- 21_0 -->
<!-- s2_league4_game2_11_stac_1399316539&#45;&gt;21_0 -->
<!-- 21_1 -->
<!-- s2_league4_game2_11_stac_1399316539&#45;&gt;21_1 -->
<!-- s2_league4_game2_11_stac_1399316542 -->
<g id="node58" class="node">
<title>s2_league4_game2_11_stac_1399316542</title>
<g id="a_node58"><a xlink:title="22 &#160;Shawnus &#160;thanks for a really good game">
<ellipse fill="black" stroke="black" cx="40" cy="-169.5" rx="3.5" ry="3.5"/>
</a>
</g>
</g>
<!-- s2_league4_game2_11_stac_1399316539&#45;&gt;s2_league4_game2_11_stac_1399316542 -->
<g id="edge94" class="edge">
<title>s2_league4_game2_11_stac_1399316539&#45;&gt;s2_league4_game2_11_stac_1399316542</title>
<g id="a_edge94"><a xlink:title="Comment">
<path fill="none" stroke="#ff8200" d="M40,-190.68C40,-187.58 40,-182.47 40,-178.16"/>
<polygon fill="#ff8200" stroke="#ff8200" points="41.75,-178.06 40,-173.06 38.25,-178.06 41.75,-178.06"/>
</a>
</g>
</g>
<!-- s2_league4_game2_11_stac_1399316545 -->
<g id="node61" class="node">
<title>s2_league4_game2_11_stac_1399316545</title>
<g id="a_node61"><a xlink:title="23 &#160;ztime &#160;cheers">
<ellipse fill="black" stroke="black" cx="30" cy="-144.5" rx="3.5" ry="3.5"/>
</a>
</g>
</g>
<!-- s2_league4_game2_11_stac_1399316539&#45;&gt;s2_league4_game2_11_stac_1399316545 -->
<g id="edge95" class="edge">
<title>s2_league4_game2_11_stac_1399316539&#45;&gt;s2_league4_game2_11_stac_1399316545</title>
<g id="a_edge95"><a xlink:title="Comment">
<path fill="none" stroke="#ff8200" d="M38.16,-191.29C35.32,-187.71 29.99,-180.32 28,-173 26.23,-166.49 27.02,-158.8 28.08,-153.22"/>
<polygon fill="#ff8200" stroke="#ff8200" points="29.84,-153.4 29.24,-148.13 26.42,-152.62 29.84,-153.4"/>
</a>
</g>
</g>
<!-- s2_league4_game2_11_stac_1399316551 -->
<g id="node64" class="node">
<title>s2_league4_game2_11_stac_1399316551</title>
<g id="a_node64"><a xlink:title="24 &#160;Shawnus &#160;you both too">
<ellipse fill="black" stroke="black" cx="50" cy="-119.5" rx="3.5" ry="3.5"/>
</a>
</g>
</g>
<!-- s2_league4_game2_11_stac_1399316539&#45;&gt;s2_league4_game2_11_stac_1399316551 -->
<g id="edge96" class="edge">
<title>s2_league4_game2_11_stac_1399316539&#45;&gt;s2_league4_game2_11_stac_1399316551</title>
<g id="a_edge96"><a xlink:title="Comment">
<path fill="none" stroke="#ff8200" d="M43.17,-192.7C55.43,-189.58 99.28,-178.12 103,-173 109.51,-164.04 103.54,-152.24 93,-141 83.44,-130.81 67.77,-125.14 58.22,-122.46"/>
<polygon fill="#ff8200" stroke="#ff8200" points="58.45,-120.72 53.17,-121.17 57.58,-124.11 58.45,-120.72"/>
</a>
</g>
</g>
<!-- 22_0 -->
<!-- s2_league4_game2_11_stac_1399316542&#45;&gt;22_0 -->
<!-- 22_1 -->
<!-- s2_league4_game2_11_stac_1399316542&#45;&gt;22_1 -->
<!-- s2_league4_game2_11_stac_1399316542&#45;&gt;s2_league4_game2_11_stac_1399316545 -->
<!-- 23_0 -->
<!-- s2_league4_game2_11_stac_1399316545&#45;&gt;23_0 -->
<!-- 23_1 -->
<!-- s2_league4_game2_11_stac_1399316545&#45;&gt;23_1 -->
<!-- s2_league4_game2_11_stac_1399316545&#45;&gt;s2_league4_game2_11_stac_1399316551 -->
<!-- s2_league4_game2_11_stac_1399316557 -->
<g id="node73" class="node">
<title>s2_league4_game2_11_stac_1399316557</title>
<g id="a_node73"><a xlink:title="27 &#160;ztime &#160;until next time...">
<ellipse fill="black" stroke="black" cx="40" cy="-44.5" rx="3.5" ry="3.5"/>
</a>
</g>
</g>
<!-- s2_league4_game2_11_stac_1399316545&#45;&gt;s2_league4_game2_11_stac_1399316557 -->
<g id="edge98" class="edge">
<title>s2_league4_game2_11_stac_1399316545&#45;&gt;s2_league4_game2_11_stac_1399316557</title>
<g id="a_edge98"><a xlink:title="Continuation">
<path fill="none" stroke="#10491b" d="M29.43,-141.03C27.3,-131.27 20.25,-94.58 28,-66 29.4,-60.85 32.45,-55.67 35.12,-51.81"/>
<polygon fill="#10491b" stroke="#10491b" points="36.58,-52.77 38.16,-47.71 33.77,-50.69 36.58,-52.77"/>
</a>
</g>
</g>
<!-- 24_0 -->
<!-- s2_league4_game2_11_stac_1399316551&#45;&gt;24_0 -->
<!-- 24_1 -->
<!-- s2_league4_game2_11_stac_1399316551&#45;&gt;24_1 -->
<!-- s2_league4_game2_11_stac_1399316548 -->
<g id="node67" class="node">
<title>s2_league4_game2_11_stac_1399316548</title>
<g id="a_node67"><a xlink:title="25 &#160;somdechn &#160;I can stay late 1 night to do it.">
<ellipse fill="black" stroke="black" cx="40" cy="-94.5" rx="3.5" ry="3.5"/>
</a>
</g>
</g>
<!-- s2_league4_game2_11_stac_1399316551&#45;&gt;s2_league4_game2_11_stac_1399316548 -->
<!-- s2_league4_game2_11_stac_1399316560 -->
<g id="node76" class="node">
<title>s2_league4_game2_11_stac_1399316560</title>
<g id="a_node76"><a xlink:title="28 &#160;somdechn &#160;ok guys... See u">
<ellipse fill="black" stroke="black" cx="50" cy="-19.5" rx="3.5" ry="3.5"/>
</a>
</g>
</g>
<!-- s2_league4_game2_11_stac_1399316551&#45;&gt;s2_league4_game2_11_stac_1399316560 -->
<g id="edge99" class="edge">
<title>s2_league4_game2_11_stac_1399316551&#45;&gt;s2_league4_game2_11_stac_1399316560</title>
<g id="a_edge99"><a xlink:title="Acknowledgement">
<path fill="none" stroke="#12ffff" d="M53.33,-117.73C64.01,-115.18 97.03,-106.71 103,-98 111.04,-86.27 109.91,-78.43 103,-66 95.63,-52.74 85.56,-57.82 74,-48 66.46,-41.59 59.18,-32.76 54.66,-26.85"/>
<polygon fill="#12ffff" stroke="#12ffff" points="55.95,-25.66 51.56,-22.69 53.14,-27.75 55.95,-25.66"/>
</a>
</g>
</g>
<!-- 25_0 -->
<!-- s2_league4_game2_11_stac_1399316548&#45;&gt;25_0 -->
<!-- 25_1 -->
<!-- s2_league4_game2_11_stac_1399316548&#45;&gt;25_1 -->
<!-- s2_league4_game2_11_stac_1399316554 -->
<g id="node70" class="node">
<title>s2_league4_game2_11_stac_1399316554</title>
<g id="a_node70"><a xlink:title="26 &#160;somdechn &#160;We&#39;ll e&#45;mail..">
<ellipse fill="black" stroke="black" cx="40" cy="-69.5" rx="3.5" ry="3.5"/>
</a>
</g>
</g>
<!-- s2_league4_game2_11_stac_1399316548&#45;&gt;s2_league4_game2_11_stac_1399316554 -->
<g id="edge97" class="edge">
<title>s2_league4_game2_11_stac_1399316548&#45;&gt;s2_league4_game2_11_stac_1399316554</title>
<g id="a_edge97"><a xlink:title="Elaboration">
<path fill="none" stroke="#a621c7" d="M40,-90.68C40,-87.58 40,-82.47 40,-78.16"/>
<polygon fill="#a621c7" stroke="#a621c7" points="41.75,-78.06 40,-73.06 38.25,-78.06 41.75,-78.06"/>
</a>
</g>
</g>
<!-- 26_0 -->
<!-- s2_league4_game2_11_stac_1399316554&#45;&gt;26_0 -->
<!-- 26_1 -->
<!-- s2_league4_game2_11_stac_1399316554&#45;&gt;26_1 -->
<!-- s2_league4_game2_11_stac_1399316554&#45;&gt;s2_league4_game2_11_stac_1399316557 -->
<!-- 27_0 -->
<!-- s2_league4_game2_11_stac_1399316557&#45;&gt;27_0 -->
<!-- 27_1 -->
<!-- s2_league4_game2_11_stac_1399316557&#45;&gt;27_1 -->
<!-- s2_league4_game2_11_stac_1399316557&#45;&gt;s2_league4_game2_11_stac_1399316560 -->
<g id="edge100" class="edge">
<title>s2_league4_game2_11_stac_1399316557&#45;&gt;s2_league4_game2_11_stac_1399316560</title>
<g id="a_edge100"><a xlink:title="Acknowledgement">
<path fill="none" stroke="#12ffff" d="M41.07,-41.04C42.46,-37.84 44.95,-32.12 46.94,-27.53"/>
<polygon fill="#12ffff" stroke="#12ffff" points="48.58,-28.16 48.97,-22.87 45.37,-26.76 48.58,-28.16"/>
</a>
</g>
</g>
<!-- 28_0 -->
<!-- s2_league4_game2_11_stac_1399316560&#45;&gt;28_0 -->
<!-- 28_1 -->
<!-- s2_league4_game2_11_stac_1399316560&#45;&gt;28_1 -->
<!-- s2_league4_game2_11_stac_1399316477&#45;&gt;s2_league4_game2_11_stac_1399316478 -->
<g id="edge69" class="edge">
<title>s2_league4_game2_11_stac_1399316477&#45;&gt;s2_league4_game2_11_stac_1399316478</title>
<g id="a_edge69"><a xlink:title="Comment">
<path fill="none" stroke="#ff8200" d="M44.52,-669.5C48.78,-669.5 53.04,-669.5 57.3,-669.5"/>
<polygon fill="#ff8200" stroke="#ff8200" points="57.31,-671.25 62.31,-669.5 57.31,-667.75 57.31,-671.25"/>
</a>
</g>
</g>
<!-- s2_league4_game2_11_stac_1399316477&#45;&gt;s2_league4_game2_11_stac_1399316481 -->
<g id="edge70" class="edge">
<title>s2_league4_game2_11_stac_1399316477&#45;&gt;s2_league4_game2_11_stac_1399316481</title>
<g id="a_edge70"><a xlink:title="Comment">
<path fill="none" stroke="#ff8200" d="M41,-665.68C41,-662.58 41,-657.47 41,-653.16"/>
<polygon fill="#ff8200" stroke="#ff8200" points="42.75,-653.06 41,-648.06 39.25,-653.06 42.75,-653.06"/>
</a>
</g>
</g>
<!-- s2_league4_game2_11_stac_1399316477&#45;&gt;s2_league4_game2_11_stac_1399316484 -->
<g id="edge71" class="edge">
<title>s2_league4_game2_11_stac_1399316477&#45;&gt;s2_league4_game2_11_stac_1399316484</title>
<g id="a_edge71"><a xlink:title="Comment">
<path fill="none" stroke="#ff8200" d="M39.43,-666.19C36.95,-662.48 32.11,-654.92 29,-648 26.09,-641.54 23.66,-633.85 22.06,-628.25"/>
<polygon fill="#ff8200" stroke="#ff8200" points="23.67,-627.51 20.66,-623.15 20.29,-628.43 23.67,-627.51"/>
</a>
</g>
</g>
<!-- s2_league4_game2_11_stac_1399316477&#45;&gt;s2_league4_game2_11_stac_1399316490 -->
<g id="edge73" class="edge">
<title>s2_league4_game2_11_stac_1399316477&#45;&gt;s2_league4_game2_11_stac_1399316490</title>
<g id="a_edge73"><a xlink:title="Comment">
<path fill="none" stroke="#ff8200" d="M44.17,-667.7C56.43,-664.58 100.28,-653.12 104,-648 112.36,-636.49 111.01,-628.38 104,-616 96.34,-602.47 86.74,-606.91 74,-598 63.69,-590.79 52.48,-581.39 45.85,-575.65"/>
<polygon fill="#ff8200" stroke="#ff8200" points="46.98,-574.32 42.07,-572.34 44.68,-576.95 46.98,-574.32"/>
</a>
</g>
</g>
<!-- s2_league4_game2_11_stac_1399316508&#45;&gt;s2_league4_game2_11_stac_1399316509 -->
<g id="edge81" class="edge">
<title>s2_league4_game2_11_stac_1399316508&#45;&gt;s2_league4_game2_11_stac_1399316509</title>
<g id="a_edge81"><a xlink:title="Alternation">
<path fill="none" stroke="#10495e" d="M23.52,-419.5C27.78,-419.5 32.04,-419.5 36.3,-419.5"/>
<polygon fill="#10495e" stroke="#10495e" points="36.31,-421.25 41.31,-419.5 36.31,-417.75 36.31,-421.25"/>
</a>
</g>
</g>
<!-- s2_league4_game2_11_stac_1399316508&#45;&gt;s2_league4_game2_11_stac_1399316512 -->
<!-- s2_league4_game2_11_stac_1399316508&#45;&gt;s2_league4_game2_11_stac_1399316515 -->
<g id="edge83" class="edge">
<title>s2_league4_game2_11_stac_1399316508&#45;&gt;s2_league4_game2_11_stac_1399316515</title>
<g id="a_edge83"><a xlink:title="Question_answer_pair">
<path fill="none" stroke="#12ffff" d="M20.54,-415.92C21.99,-408.95 26.03,-389.55 28.34,-378.49"/>
<polygon fill="#12ffff" stroke="#12ffff" points="30.1,-378.58 29.41,-373.33 26.68,-377.87 30.1,-378.58"/>
</a>
</g>
</g>
<!-- s2_league4_game2_11_stac_1399316531 -->
<g id="node82" class="node">
<title>s2_league4_game2_11_stac_1399316531</title>
<g id="a_node82"><a xlink:title="19 &#160;ztime &#160;thanks for the game..">
<ellipse fill="black" stroke="black" cx="65" cy="-244.5" rx="3.5" ry="3.5"/>
</a>
</g>
</g>
<!-- s2_league4_game2_11_stac_1399316530&#45;&gt;s2_league4_game2_11_stac_1399316531 -->
<g id="edge89" class="edge">
<title>s2_league4_game2_11_stac_1399316530&#45;&gt;s2_league4_game2_11_stac_1399316531</title>
<g id="a_edge89"><a xlink:title="Continuation">
<path fill="none" stroke="#10491b" d="M43.52,-244.5C47.78,-244.5 52.04,-244.5 56.3,-244.5"/>
<polygon fill="#10491b" stroke="#10491b" points="56.31,-246.25 61.31,-244.5 56.31,-242.75 56.31,-246.25"/>
</a>
</g>
</g>
<!-- s2_league4_game2_11_stac_1399316535 -->
<g id="node84" class="node">
<title>s2_league4_game2_11_stac_1399316535</title>
<g id="a_node84"><a xlink:title="20 &#160;Shawnus &#160;well i want breakfast!">
<ellipse fill="black" stroke="black" cx="40" cy="-219.5" rx="3.5" ry="3.5"/>
</a>
</g>
</g>
<!-- s2_league4_game2_11_stac_1399316530&#45;&gt;s2_league4_game2_11_stac_1399316535 -->
<g id="edge91" class="edge">
<title>s2_league4_game2_11_stac_1399316530&#45;&gt;s2_league4_game2_11_stac_1399316535</title>
<g id="a_edge91"><a xlink:title="Result">
<path fill="none" stroke="#10ff0f" d="M40,-240.68C40,-237.58 40,-232.47 40,-228.16"/>
<polygon fill="#10ff0f" stroke="#10ff0f" points="41.75,-228.06 40,-223.06 38.25,-228.06 41.75,-228.06"/>
</a>
</g>
</g>
<!-- s2_league4_game2_11_stac_1399316532 -->
<g id="node83" class="node">
<title>s2_league4_game2_11_stac_1399316532</title>
<g id="a_node83"><a xlink:title="19 &#160;ztime &#160;I gotta dash off now...">
<ellipse fill="black" stroke="black" cx="90" cy="-244.5" rx="3.5" ry="3.5"/>
</a>
</g>
</g>
<!-- s2_league4_game2_11_stac_1399316531&#45;&gt;s2_league4_game2_11_stac_1399316532 -->
<g id="edge90" class="edge">
<title>s2_league4_game2_11_stac_1399316531&#45;&gt;s2_league4_game2_11_stac_1399316532</title>
<g id="a_edge90"><a xlink:title="Continuation">
<path fill="none" stroke="#10491b" d="M68.52,-244.5C72.78,-244.5 77.04,-244.5 81.3,-244.5"/>
<polygon fill="#10491b" stroke="#10491b" points="81.31,-246.25 86.31,-244.5 81.31,-242.75 81.31,-246.25"/>
</a>
</g>
</g>
<!-- s2_league4_game2_11_stac_1399316535&#45;&gt;s2_league4_game2_11_stac_1399316536 -->
<g id="edge92" class="edge">
<title>s2_league4_game2_11_stac_1399316535&#45;&gt;s2_league4_game2_11_stac_1399316536</title>
<g id="a_edge92"><a xlink:title="Result">
<path fill="none" stroke="#10ff0f" d="M43.52,-219.5C47.78,-219.5 52.04,-219.5 56.3,-219.5"/>
<polygon fill="#10ff0f" stroke="#10ff0f" points="56.31,-221.25 61.31,-219.5 56.31,-217.75 56.31,-221.25"/>
</a>
</g>
</g>
<!-- s2_league4_game2_11_stac_1399316535&#45;&gt;s2_league4_game2_11_stac_1399316539 -->
<g id="edge93" class="edge">
<title>s2_league4_game2_11_stac_1399316535&#45;&gt;s2_league4_game2_11_stac_1399316539</title>
<g id="a_edge93"><a xlink:title="Comment">
<path fill="none" stroke="#ff8200" d="M40,-215.68C40,-212.58 40,-207.47 40,-203.16"/>
<polygon fill="#ff8200" stroke="#ff8200" points="41.75,-203.06 40,-198.06 38.25,-203.06 41.75,-203.06"/>
</a>
</g>
</g>
</g>
</svg>
