<?xml version="1.0" encoding="UTF-8" standalone="no"?>
<!DOCTYPE svg PUBLIC "-//W3C//DTD SVG 1.1//EN"
 "http://www.w3.org/Graphics/SVG/1.1/DTD/svg11.dtd">
<!-- Generated by graphviz version 3.0.0 (20220226.1711)
 -->
<!-- Title: 2_s2_leagueM_game4_1054 Pages: 1 -->
<svg width="113pt" height="220pt"
 viewBox="0.00 0.00 113.00 220.00" xmlns="http://www.w3.org/2000/svg" xmlns:xlink="http://www.w3.org/1999/xlink">
<g id="graph0" class="graph" transform="scale(1 1) rotate(0) translate(4 216)">
<title>2_s2_leagueM_game4_1054</title>
<polygon fill="white" stroke="transparent" points="-4,4 -4,-216 109,-216 109,4 -4,4"/>
<g id="clust1" class="cluster">
<title>cluster_2_s2_leagueM_game4_1054</title>
<polygon fill="none" stroke="black" points="8,-8 8,-204 97,-204 97,-8 8,-8"/>
<text text-anchor="middle" x="30" y="-188.8" font-family="Times,serif" font-size="14.00">1054</text>
</g>
<!-- s2_leagueM_game4_02_stac_1413791867 -->
<g id="node1" class="node">
<title>s2_leagueM_game4_02_stac_1413791867</title>
<g id="a_node1"><a xlink:title="1 &#160;dmm &#160;does anyone have clay they can trade?">
<ellipse fill="black" stroke="black" cx="40" cy="-169.5" rx="3.5" ry="3.5"/>
</a>
</g>
</g>
<!-- 1_0 -->
<!-- s2_leagueM_game4_02_stac_1413791867&#45;&gt;1_0 -->
<!-- s2_leagueM_game4_02_stac_1413791874 -->
<g id="node3" class="node">
<title>s2_leagueM_game4_02_stac_1413791874</title>
<g id="a_node3"><a xlink:title="3 &#160;CheshireCatGrin &#160;likewise">
<ellipse fill="black" stroke="black" cx="40" cy="-119.5" rx="3.5" ry="3.5"/>
</a>
</g>
</g>
<!-- s2_leagueM_game4_02_stac_1413791867&#45;&gt;s2_leagueM_game4_02_stac_1413791874 -->
<g id="edge8" class="edge">
<title>s2_leagueM_game4_02_stac_1413791867&#45;&gt;s2_leagueM_game4_02_stac_1413791874</title>
<g id="a_edge8"><a xlink:title="Question_answer_pair">
<path fill="none" stroke="#12ffff" d="M38.16,-166.29C35.32,-162.71 29.99,-155.32 28,-148 26,-140.61 30.25,-132.64 34.24,-127.19"/>
<polygon fill="#12ffff" stroke="#12ffff" points="35.85,-127.98 37.63,-122.99 33.13,-125.78 35.85,-127.98"/>
</a>
</g>
</g>
<!-- s2_leagueM_game4_02_stac_1413791870 -->
<g id="node7" class="node">
<title>s2_leagueM_game4_02_stac_1413791870</title>
<g id="a_node7"><a xlink:title="2 &#160;inca &#160;none at all,">
<ellipse fill="black" stroke="black" cx="40" cy="-144.5" rx="3.5" ry="3.5"/>
</a>
</g>
</g>
<!-- s2_leagueM_game4_02_stac_1413791867&#45;&gt;s2_leagueM_game4_02_stac_1413791870 -->
<g id="edge6" class="edge">
<title>s2_leagueM_game4_02_stac_1413791867&#45;&gt;s2_leagueM_game4_02_stac_1413791870</title>
<g id="a_edge6"><a xlink:title="Question_answer_pair">
<path fill="none" stroke="#12ffff" d="M40,-165.68C40,-162.58 40,-157.47 40,-153.16"/>
<polygon fill="#12ffff" stroke="#12ffff" points="41.75,-153.06 40,-148.06 38.25,-153.06 41.75,-153.06"/>
</a>
</g>
</g>
<!-- s2_leagueM_game4_02_stac_1413791878 -->
<g id="node9" class="node">
<title>s2_leagueM_game4_02_stac_1413791878</title>
<g id="a_node9"><a xlink:title="4 &#160;dmm &#160;same request again...">
<ellipse fill="black" stroke="black" cx="40" cy="-94.5" rx="3.5" ry="3.5"/>
</a>
</g>
</g>
<!-- s2_leagueM_game4_02_stac_1413791867&#45;&gt;s2_leagueM_game4_02_stac_1413791878 -->
<g id="edge10" class="edge">
<title>s2_leagueM_game4_02_stac_1413791867&#45;&gt;s2_leagueM_game4_02_stac_1413791878</title>
<g id="a_edge10"><a xlink:title="Elaboration">
<path fill="none" stroke="#a621c7" d="M43.56,-167.83C51.45,-166.14 70.32,-160.87 78,-148 85.29,-135.79 85.29,-128.21 78,-116 71.64,-105.34 57.6,-99.89 48.49,-97.37"/>
<polygon fill="#a621c7" stroke="#a621c7" points="48.83,-95.66 43.56,-96.17 48,-99.06 48.83,-95.66"/>
</a>
</g>
</g>
<!-- 3_0 -->
<!-- s2_leagueM_game4_02_stac_1413791874&#45;&gt;3_0 -->
<!-- s2_leagueM_game4_02_stac_1413791874&#45;&gt;s2_leagueM_game4_02_stac_1413791878 -->
<!-- s2_leagueM_game4_02_stac_1413791886 -->
<g id="node5" class="node">
<title>s2_leagueM_game4_02_stac_1413791886</title>
<g id="a_node5"><a xlink:title="6 &#160;CheshireCatGrin &#160;Still have no clay ...">
<ellipse fill="black" stroke="black" cx="40" cy="-44.5" rx="3.5" ry="3.5"/>
</a>
</g>
</g>
<!-- 6_0 -->
<!-- s2_leagueM_game4_02_stac_1413791886&#45;&gt;6_0 -->
<!-- s2_leagueM_game4_02_stac_1413791889 -->
<g id="node13" class="node">
<title>s2_leagueM_game4_02_stac_1413791889</title>
<g id="a_node13"><a xlink:title="7 &#160;dmm &#160;okay,">
<ellipse fill="black" stroke="black" cx="50" cy="-19.5" rx="3.5" ry="3.5"/>
</a>
</g>
</g>
<!-- s2_leagueM_game4_02_stac_1413791886&#45;&gt;s2_leagueM_game4_02_stac_1413791889 -->
<!-- s2_leagueM_game4_02_stac_1413791870&#45;&gt;s2_leagueM_game4_02_stac_1413791874 -->
<g id="edge9" class="edge">
<title>s2_leagueM_game4_02_stac_1413791870&#45;&gt;s2_leagueM_game4_02_stac_1413791874</title>
<g id="a_edge9"><a xlink:title="Parallel">
<path fill="none" stroke="#0ab046" d="M40,-140.68C40,-137.58 40,-132.47 40,-128.16"/>
<polygon fill="#0ab046" stroke="#0ab046" points="41.75,-128.06 40,-123.06 38.25,-128.06 41.75,-128.06"/>
</a>
</g>
</g>
<!-- s2_leagueM_game4_02_stac_1413791871 -->
<g id="node8" class="node">
<title>s2_leagueM_game4_02_stac_1413791871</title>
<g id="a_node8"><a xlink:title="2 &#160;inca &#160;sorry">
<ellipse fill="black" stroke="black" cx="65" cy="-144.5" rx="3.5" ry="3.5"/>
</a>
</g>
</g>
<!-- s2_leagueM_game4_02_stac_1413791870&#45;&gt;s2_leagueM_game4_02_stac_1413791871 -->
<g id="edge7" class="edge">
<title>s2_leagueM_game4_02_stac_1413791870&#45;&gt;s2_leagueM_game4_02_stac_1413791871</title>
<g id="a_edge7"><a xlink:title="Comment">
<path fill="none" stroke="#ff8200" d="M43.52,-144.5C47.78,-144.5 52.04,-144.5 56.3,-144.5"/>
<polygon fill="#ff8200" stroke="#ff8200" points="56.31,-146.25 61.31,-144.5 56.31,-142.75 56.31,-146.25"/>
</a>
</g>
</g>
<!-- s2_leagueM_game4_02_stac_1413791878&#45;&gt;s2_leagueM_game4_02_stac_1413791886 -->
<g id="edge14" class="edge">
<title>s2_leagueM_game4_02_stac_1413791878&#45;&gt;s2_leagueM_game4_02_stac_1413791886</title>
<g id="a_edge14"><a xlink:title="Question_answer_pair">
<path fill="none" stroke="#12ffff" d="M38.16,-91.29C35.32,-87.71 29.99,-80.32 28,-73 26,-65.61 30.25,-57.64 34.24,-52.19"/>
<polygon fill="#12ffff" stroke="#12ffff" points="35.85,-52.98 37.63,-47.99 33.13,-50.78 35.85,-52.98"/>
</a>
</g>
</g>
<!-- s2_leagueM_game4_02_stac_1413791879 -->
<g id="node10" class="node">
<title>s2_leagueM_game4_02_stac_1413791879</title>
<g id="a_node10"><a xlink:title="4 &#160;dmm &#160;i might be interested in an ore also though">
<ellipse fill="black" stroke="black" cx="65" cy="-94.5" rx="3.5" ry="3.5"/>
</a>
</g>
</g>
<!-- s2_leagueM_game4_02_stac_1413791878&#45;&gt;s2_leagueM_game4_02_stac_1413791879 -->
<g id="edge11" class="edge">
<title>s2_leagueM_game4_02_stac_1413791878&#45;&gt;s2_leagueM_game4_02_stac_1413791879</title>
<g id="a_edge11"><a xlink:title="Contrast">
<path fill="none" stroke="#ff7ecf" d="M43.52,-94.5C47.78,-94.5 52.04,-94.5 56.3,-94.5"/>
<polygon fill="#ff7ecf" stroke="#ff7ecf" points="56.31,-96.25 61.31,-94.5 56.31,-92.75 56.31,-96.25"/>
</a>
</g>
</g>
<!-- s2_leagueM_game4_02_stac_1413791882 -->
<g id="node11" class="node">
<title>s2_leagueM_game4_02_stac_1413791882</title>
<g id="a_node11"><a xlink:title="5 &#160;inca &#160;still not got any clay,">
<ellipse fill="black" stroke="black" cx="40" cy="-69.5" rx="3.5" ry="3.5"/>
</a>
</g>
</g>
<!-- s2_leagueM_game4_02_stac_1413791878&#45;&gt;s2_leagueM_game4_02_stac_1413791882 -->
<g id="edge12" class="edge">
<title>s2_leagueM_game4_02_stac_1413791878&#45;&gt;s2_leagueM_game4_02_stac_1413791882</title>
<g id="a_edge12"><a xlink:title="Question_answer_pair">
<path fill="none" stroke="#12ffff" d="M40,-90.68C40,-87.58 40,-82.47 40,-78.16"/>
<polygon fill="#12ffff" stroke="#12ffff" points="41.75,-78.06 40,-73.06 38.25,-78.06 41.75,-78.06"/>
</a>
</g>
</g>
<!-- s2_leagueM_game4_02_stac_1413791878&#45;&gt;s2_leagueM_game4_02_stac_1413791889 -->
<g id="edge16" class="edge">
<title>s2_leagueM_game4_02_stac_1413791878&#45;&gt;s2_leagueM_game4_02_stac_1413791889</title>
<g id="a_edge16"><a xlink:title="Acknowledgement">
<path fill="none" stroke="#12ffff" d="M43.56,-92.83C51.45,-91.14 70.32,-85.87 78,-73 85.29,-60.79 84.43,-53.68 78,-41 73.83,-32.77 64.63,-27.05 57.91,-23.78"/>
<polygon fill="#12ffff" stroke="#12ffff" points="58.29,-22.04 53.01,-21.61 56.88,-25.24 58.29,-22.04"/>
</a>
</g>
</g>
<!-- s2_leagueM_game4_02_stac_1413791882&#45;&gt;s2_leagueM_game4_02_stac_1413791886 -->
<g id="edge15" class="edge">
<title>s2_leagueM_game4_02_stac_1413791882&#45;&gt;s2_leagueM_game4_02_stac_1413791886</title>
<g id="a_edge15"><a xlink:title="Contrast">
<path fill="none" stroke="#ff7ecf" d="M40,-65.68C40,-62.58 40,-57.47 40,-53.16"/>
<polygon fill="#ff7ecf" stroke="#ff7ecf" points="41.75,-53.06 40,-48.06 38.25,-53.06 41.75,-53.06"/>
</a>
</g>
</g>
<!-- s2_leagueM_game4_02_stac_1413791883 -->
<g id="node12" class="node">
<title>s2_leagueM_game4_02_stac_1413791883</title>
<g id="a_node12"><a xlink:title="5 &#160;inca &#160;sorry">
<ellipse fill="black" stroke="black" cx="65" cy="-69.5" rx="3.5" ry="3.5"/>
</a>
</g>
</g>
<!-- s2_leagueM_game4_02_stac_1413791882&#45;&gt;s2_leagueM_game4_02_stac_1413791883 -->
<g id="edge13" class="edge">
<title>s2_leagueM_game4_02_stac_1413791882&#45;&gt;s2_leagueM_game4_02_stac_1413791883</title>
<g id="a_edge13"><a xlink:title="Comment">
<path fill="none" stroke="#ff8200" d="M43.52,-69.5C47.78,-69.5 52.04,-69.5 56.3,-69.5"/>
<polygon fill="#ff8200" stroke="#ff8200" points="56.31,-71.25 61.31,-69.5 56.31,-67.75 56.31,-71.25"/>
</a>
</g>
</g>
<!-- s2_leagueM_game4_02_stac_1413791890 -->
<g id="node14" class="node">
<title>s2_leagueM_game4_02_stac_1413791890</title>
<g id="a_node14"><a xlink:title="7 &#160;dmm &#160;thanks anyway">
<ellipse fill="black" stroke="black" cx="75" cy="-19.5" rx="3.5" ry="3.5"/>
</a>
</g>
</g>
<!-- s2_leagueM_game4_02_stac_1413791889&#45;&gt;s2_leagueM_game4_02_stac_1413791890 -->
<g id="edge17" class="edge">
<title>s2_leagueM_game4_02_stac_1413791889&#45;&gt;s2_leagueM_game4_02_stac_1413791890</title>
<g id="a_edge17"><a xlink:title="Continuation">
<path fill="none" stroke="#10491b" d="M53.52,-19.5C57.78,-19.5 62.04,-19.5 66.3,-19.5"/>
<polygon fill="#10491b" stroke="#10491b" points="66.31,-21.25 71.31,-19.5 66.31,-17.75 66.31,-21.25"/>
</a>
</g>
</g>
</g>
</svg>
