<?xml version="1.0" encoding="UTF-8" standalone="no"?>
<!DOCTYPE svg PUBLIC "-//W3C//DTD SVG 1.1//EN"
 "http://www.w3.org/Graphics/SVG/1.1/DTD/svg11.dtd">
<!-- Generated by graphviz version 3.0.0 (20220226.1711)
 -->
<!-- Title: 2_s1_league3_game3_549 Pages: 1 -->
<svg width="114pt" height="420pt"
 viewBox="0.00 0.00 114.00 420.00" xmlns="http://www.w3.org/2000/svg" xmlns:xlink="http://www.w3.org/1999/xlink">
<g id="graph0" class="graph" transform="scale(1 1) rotate(0) translate(4 416)">
<title>2_s1_league3_game3_549</title>
<polygon fill="white" stroke="transparent" points="-4,4 -4,-416 110,-416 110,4 -4,4"/>
<g id="clust1" class="cluster">
<title>cluster_2_s1_league3_game3_549</title>
<polygon fill="none" stroke="black" points="8,-8 8,-404 98,-404 98,-8 8,-8"/>
<text text-anchor="middle" x="26.5" y="-388.8" font-family="Times,serif" font-size="14.00">549</text>
</g>
<!-- s1_league3_game3_02_stac_1368708031 -->
<g id="node1" class="node">
<title>s1_league3_game3_02_stac_1368708031</title>
<g id="a_node1"><a xlink:title="1 &#160;nareik15 &#160;erm... how do accept a trade?">
<ellipse fill="black" stroke="black" cx="40" cy="-369.5" rx="3.5" ry="3.5"/>
</a>
</g>
</g>
<!-- 1_0 -->
<!-- s1_league3_game3_02_stac_1368708031&#45;&gt;1_0 -->
<!-- s1_league3_game3_02_stac_1368708034 -->
<g id="node3" class="node">
<title>s1_league3_game3_02_stac_1368708034</title>
<g id="a_node3"><a xlink:title="2 &#160;inca &#160;do you have wheat?">
<ellipse fill="black" stroke="black" cx="29" cy="-344.5" rx="3.5" ry="3.5"/>
</a>
</g>
</g>
<!-- s1_league3_game3_02_stac_1368708031&#45;&gt;s1_league3_game3_02_stac_1368708034 -->
<g id="edge18" class="edge">
<title>s1_league3_game3_02_stac_1368708031&#45;&gt;s1_league3_game3_02_stac_1368708034</title>
<g id="a_edge18"><a xlink:title="Q_Elab">
<path fill="none" stroke="#0d20ff" d="M38.82,-366.04C37.29,-362.84 34.56,-357.12 32.36,-352.53"/>
<polygon fill="#0d20ff" stroke="#0d20ff" points="33.87,-351.63 30.14,-347.87 30.71,-353.14 33.87,-351.63"/>
</a>
</g>
</g>
<!-- s1_league3_game3_02_stac_1368708037 -->
<g id="node5" class="node">
<title>s1_league3_game3_02_stac_1368708037</title>
<g id="a_node5"><a xlink:title="3 &#160;yiin &#160;ehh i am not sure as well">
<ellipse fill="black" stroke="black" cx="52" cy="-319.5" rx="3.5" ry="3.5"/>
</a>
</g>
</g>
<!-- s1_league3_game3_02_stac_1368708031&#45;&gt;s1_league3_game3_02_stac_1368708037 -->
<g id="edge19" class="edge">
<title>s1_league3_game3_02_stac_1368708031&#45;&gt;s1_league3_game3_02_stac_1368708037</title>
<g id="a_edge19"><a xlink:title="Question_answer_pair">
<path fill="none" stroke="#12ffff" d="M40.65,-365.92C42.39,-358.95 47.24,-339.55 50,-328.49"/>
<polygon fill="#12ffff" stroke="#12ffff" points="51.78,-328.61 51.29,-323.33 48.38,-327.76 51.78,-328.61"/>
</a>
</g>
</g>
<!-- 2_0 -->
<!-- s1_league3_game3_02_stac_1368708034&#45;&gt;2_0 -->
<!-- s1_league3_game3_02_stac_1368708034&#45;&gt;s1_league3_game3_02_stac_1368708037 -->
<!-- s1_league3_game3_02_stac_1368708040 -->
<g id="node27" class="node">
<title>s1_league3_game3_02_stac_1368708040</title>
<g id="a_node27"><a xlink:title="4 &#160;nareik15 &#160;yeah, can do the trade">
<ellipse fill="black" stroke="black" cx="43" cy="-294.5" rx="3.5" ry="3.5"/>
</a>
</g>
</g>
<!-- s1_league3_game3_02_stac_1368708034&#45;&gt;s1_league3_game3_02_stac_1368708040 -->
<g id="edge20" class="edge">
<title>s1_league3_game3_02_stac_1368708034&#45;&gt;s1_league3_game3_02_stac_1368708040</title>
<g id="a_edge20"><a xlink:title="Question_answer_pair">
<path fill="none" stroke="#12ffff" d="M29.75,-340.92C31.8,-333.89 37.55,-314.19 40.76,-303.18"/>
<polygon fill="#12ffff" stroke="#12ffff" points="42.45,-303.62 42.17,-298.33 39.09,-302.64 42.45,-303.62"/>
</a>
</g>
</g>
<!-- 3_0 -->
<!-- s1_league3_game3_02_stac_1368708037&#45;&gt;3_0 -->
<!-- s1_league3_game3_02_stac_1368708037&#45;&gt;s1_league3_game3_02_stac_1368708040 -->
<!-- s1_league3_game3_02_stac_1368708044 -->
<g id="node7" class="node">
<title>s1_league3_game3_02_stac_1368708044</title>
<g id="a_node7"><a xlink:title="5 &#160;inca &#160;weird">
<ellipse fill="black" stroke="black" cx="20" cy="-269.5" rx="3.5" ry="3.5"/>
</a>
</g>
</g>
<!-- 5_0 -->
<!-- s1_league3_game3_02_stac_1368708044&#45;&gt;5_0 -->
<!-- s1_league3_game3_02_stac_1368708048 -->
<g id="node29" class="node">
<title>s1_league3_game3_02_stac_1368708048</title>
<g id="a_node29"><a xlink:title="6 &#160;inca &#160;usually suggests one">
<ellipse fill="black" stroke="black" cx="30" cy="-244.5" rx="3.5" ry="3.5"/>
</a>
</g>
</g>
<!-- s1_league3_game3_02_stac_1368708044&#45;&gt;s1_league3_game3_02_stac_1368708048 -->
<!-- s1_league3_game3_02_stac_1368708052 -->
<g id="node9" class="node">
<title>s1_league3_game3_02_stac_1368708052</title>
<g id="a_node9"><a xlink:title="7 &#160;yiin &#160;technical error i think">
<ellipse fill="black" stroke="black" cx="20" cy="-219.5" rx="3.5" ry="3.5"/>
</a>
</g>
</g>
<!-- 7_0 -->
<!-- s1_league3_game3_02_stac_1368708052&#45;&gt;7_0 -->
<!-- s1_league3_game3_02_stac_1368708056 -->
<g id="node11" class="node">
<title>s1_league3_game3_02_stac_1368708056</title>
<g id="a_node11"><a xlink:title="8 &#160;nareik15 &#160;i&#39;ll try and trade with you next turn. see if that works.">
<ellipse fill="black" stroke="black" cx="50" cy="-194.5" rx="3.5" ry="3.5"/>
</a>
</g>
</g>
<!-- s1_league3_game3_02_stac_1368708052&#45;&gt;s1_league3_game3_02_stac_1368708056 -->
<g id="edge27" class="edge">
<title>s1_league3_game3_02_stac_1368708052&#45;&gt;s1_league3_game3_02_stac_1368708056</title>
<g id="a_edge27"><a xlink:title="Contrast">
<path fill="none" stroke="#ff7ecf" d="M22.35,-216.7C26.84,-213.25 36.78,-205.64 43.43,-200.53"/>
<polygon fill="#ff7ecf" stroke="#ff7ecf" points="44.84,-201.66 47.74,-197.23 42.71,-198.89 44.84,-201.66"/>
</a>
</g>
</g>
<!-- 8_0 -->
<!-- s1_league3_game3_02_stac_1368708056&#45;&gt;8_0 -->
<!-- s1_league3_game3_02_stac_1368708059 -->
<g id="node13" class="node">
<title>s1_league3_game3_02_stac_1368708059</title>
<g id="a_node13"><a xlink:title="9 &#160;yiin &#160;thank you">
<ellipse fill="black" stroke="black" cx="50" cy="-169.5" rx="3.5" ry="3.5"/>
</a>
</g>
</g>
<!-- s1_league3_game3_02_stac_1368708056&#45;&gt;s1_league3_game3_02_stac_1368708059 -->
<g id="edge28" class="edge">
<title>s1_league3_game3_02_stac_1368708056&#45;&gt;s1_league3_game3_02_stac_1368708059</title>
<g id="a_edge28"><a xlink:title="Acknowledgement">
<path fill="none" stroke="#12ffff" d="M50,-190.68C50,-187.58 50,-182.47 50,-178.16"/>
<polygon fill="#12ffff" stroke="#12ffff" points="51.75,-178.06 50,-173.06 48.25,-178.06 51.75,-178.06"/>
</a>
</g>
</g>
<!-- 9_0 -->
<!-- s1_league3_game3_02_stac_1368708059&#45;&gt;9_0 -->
<!-- s1_league3_game3_02_stac_1368708063 -->
<g id="node15" class="node">
<title>s1_league3_game3_02_stac_1368708063</title>
<g id="a_node15"><a xlink:title="10 &#160;nareik15 &#160;so was it wood you were after?">
<ellipse fill="black" stroke="black" cx="50" cy="-144.5" rx="3.5" ry="3.5"/>
</a>
</g>
</g>
<!-- s1_league3_game3_02_stac_1368708059&#45;&gt;s1_league3_game3_02_stac_1368708063 -->
<g id="edge29" class="edge">
<title>s1_league3_game3_02_stac_1368708059&#45;&gt;s1_league3_game3_02_stac_1368708063</title>
<g id="a_edge29"><a xlink:title="Clarification_question">
<path fill="none" stroke="#ff40d1" d="M50,-165.68C50,-162.58 50,-157.47 50,-153.16"/>
<polygon fill="#ff40d1" stroke="#ff40d1" points="51.75,-153.06 50,-148.06 48.25,-153.06 51.75,-153.06"/>
</a>
</g>
</g>
<!-- 10_0 -->
<!-- s1_league3_game3_02_stac_1368708063&#45;&gt;10_0 -->
<!-- s1_league3_game3_02_stac_1368708066 -->
<g id="node17" class="node">
<title>s1_league3_game3_02_stac_1368708066</title>
<g id="a_node17"><a xlink:title="11 &#160;yiin &#160;wheat that i am after">
<ellipse fill="black" stroke="black" cx="40" cy="-119.5" rx="3.5" ry="3.5"/>
</a>
</g>
</g>
<!-- s1_league3_game3_02_stac_1368708063&#45;&gt;s1_league3_game3_02_stac_1368708066 -->
<g id="edge30" class="edge">
<title>s1_league3_game3_02_stac_1368708063&#45;&gt;s1_league3_game3_02_stac_1368708066</title>
<g id="a_edge30"><a xlink:title="Question_answer_pair">
<path fill="none" stroke="#12ffff" d="M48.93,-141.04C47.54,-137.84 45.05,-132.12 43.06,-127.53"/>
<polygon fill="#12ffff" stroke="#12ffff" points="44.63,-126.76 41.03,-122.87 41.42,-128.16 44.63,-126.76"/>
</a>
</g>
</g>
<!-- s1_league3_game3_02_stac_1368708072 -->
<g id="node21" class="node">
<title>s1_league3_game3_02_stac_1368708072</title>
<g id="a_node21"><a xlink:title="13 &#160;inca &#160;yeah think there&#39;s been a misunderstanding">
<ellipse fill="black" stroke="black" cx="40" cy="-69.5" rx="3.5" ry="3.5"/>
</a>
</g>
</g>
<!-- s1_league3_game3_02_stac_1368708063&#45;&gt;s1_league3_game3_02_stac_1368708072 -->
<g id="edge32" class="edge">
<title>s1_league3_game3_02_stac_1368708063&#45;&gt;s1_league3_game3_02_stac_1368708072</title>
<g id="a_edge32"><a xlink:title="Question_answer_pair">
<path fill="none" stroke="#12ffff" d="M51.85,-141.26C58.96,-132.52 83.82,-100.76 78,-91 71.64,-80.34 57.6,-74.89 48.49,-72.37"/>
<polygon fill="#12ffff" stroke="#12ffff" points="48.83,-70.66 43.56,-71.17 48,-74.06 48.83,-70.66"/>
</a>
</g>
</g>
<!-- 11_0 -->
<!-- s1_league3_game3_02_stac_1368708066&#45;&gt;11_0 -->
<!-- s1_league3_game3_02_stac_1368708069 -->
<g id="node19" class="node">
<title>s1_league3_game3_02_stac_1368708069</title>
<g id="a_node19"><a xlink:title="12 &#160;yiin &#160;i mean i am after wheat">
<ellipse fill="black" stroke="black" cx="40" cy="-94.5" rx="3.5" ry="3.5"/>
</a>
</g>
</g>
<!-- s1_league3_game3_02_stac_1368708066&#45;&gt;s1_league3_game3_02_stac_1368708069 -->
<g id="edge31" class="edge">
<title>s1_league3_game3_02_stac_1368708066&#45;&gt;s1_league3_game3_02_stac_1368708069</title>
<g id="a_edge31"><a xlink:title="Elaboration">
<path fill="none" stroke="#a621c7" d="M40,-115.68C40,-112.58 40,-107.47 40,-103.16"/>
<polygon fill="#a621c7" stroke="#a621c7" points="41.75,-103.06 40,-98.06 38.25,-103.06 41.75,-103.06"/>
</a>
</g>
</g>
<!-- s1_league3_game3_02_stac_1368708066&#45;&gt;s1_league3_game3_02_stac_1368708072 -->
<g id="edge33" class="edge">
<title>s1_league3_game3_02_stac_1368708066&#45;&gt;s1_league3_game3_02_stac_1368708072</title>
<g id="a_edge33"><a xlink:title="Comment">
<path fill="none" stroke="#ff8200" d="M38.16,-116.29C35.32,-112.71 29.99,-105.32 28,-98 26,-90.61 30.25,-82.64 34.24,-77.19"/>
<polygon fill="#ff8200" stroke="#ff8200" points="35.85,-77.98 37.63,-72.99 33.13,-75.78 35.85,-77.98"/>
</a>
</g>
</g>
<!-- 12_0 -->
<!-- s1_league3_game3_02_stac_1368708069&#45;&gt;12_0 -->
<!-- s1_league3_game3_02_stac_1368708069&#45;&gt;s1_league3_game3_02_stac_1368708072 -->
<!-- 13_0 -->
<!-- s1_league3_game3_02_stac_1368708072&#45;&gt;13_0 -->
<!-- s1_league3_game3_02_stac_1368708075 -->
<g id="node23" class="node">
<title>s1_league3_game3_02_stac_1368708075</title>
<g id="a_node23"><a xlink:title="14 &#160;nareik15 &#160;oh, I thought you had some wheat to trade.">
<ellipse fill="black" stroke="black" cx="30" cy="-44.5" rx="3.5" ry="3.5"/>
</a>
</g>
</g>
<!-- s1_league3_game3_02_stac_1368708072&#45;&gt;s1_league3_game3_02_stac_1368708075 -->
<g id="edge34" class="edge">
<title>s1_league3_game3_02_stac_1368708072&#45;&gt;s1_league3_game3_02_stac_1368708075</title>
<g id="a_edge34"><a xlink:title="Comment">
<path fill="none" stroke="#ff8200" d="M38.93,-66.04C37.54,-62.84 35.05,-57.12 33.06,-52.53"/>
<polygon fill="#ff8200" stroke="#ff8200" points="34.63,-51.76 31.03,-47.87 31.42,-53.16 34.63,-51.76"/>
</a>
</g>
</g>
<!-- s1_league3_game3_02_stac_1368708078 -->
<g id="node25" class="node">
<title>s1_league3_game3_02_stac_1368708078</title>
<g id="a_node25"><a xlink:title="15 &#160;nareik15 &#160;yeah misunderstanding :)">
<ellipse fill="black" stroke="black" cx="40" cy="-19.5" rx="3.5" ry="3.5"/>
</a>
</g>
</g>
<!-- s1_league3_game3_02_stac_1368708072&#45;&gt;s1_league3_game3_02_stac_1368708078 -->
<g id="edge35" class="edge">
<title>s1_league3_game3_02_stac_1368708072&#45;&gt;s1_league3_game3_02_stac_1368708078</title>
<g id="a_edge35"><a xlink:title="Comment">
<path fill="none" stroke="#ff8200" d="M40.51,-65.86C41.24,-61.97 42.53,-54.46 43,-48 43.49,-41.25 42.53,-33.59 41.57,-28.07"/>
<polygon fill="#ff8200" stroke="#ff8200" points="43.27,-27.64 40.59,-23.07 39.83,-28.32 43.27,-27.64"/>
</a>
</g>
</g>
<!-- 14_0 -->
<!-- s1_league3_game3_02_stac_1368708075&#45;&gt;14_0 -->
<!-- s1_league3_game3_02_stac_1368708075&#45;&gt;s1_league3_game3_02_stac_1368708078 -->
<g id="edge36" class="edge">
<title>s1_league3_game3_02_stac_1368708075&#45;&gt;s1_league3_game3_02_stac_1368708078</title>
<g id="a_edge36"><a xlink:title="Comment">
<path fill="none" stroke="#ff8200" d="M31.07,-41.04C32.46,-37.84 34.95,-32.12 36.94,-27.53"/>
<polygon fill="#ff8200" stroke="#ff8200" points="38.58,-28.16 38.97,-22.87 35.37,-26.76 38.58,-28.16"/>
</a>
</g>
</g>
<!-- 15_0 -->
<!-- s1_league3_game3_02_stac_1368708078&#45;&gt;15_0 -->
<!-- s1_league3_game3_02_stac_1368708040&#45;&gt;s1_league3_game3_02_stac_1368708044 -->
<g id="edge22" class="edge">
<title>s1_league3_game3_02_stac_1368708040&#45;&gt;s1_league3_game3_02_stac_1368708044</title>
<g id="a_edge22"><a xlink:title="Comment">
<path fill="none" stroke="#ff8200" d="M40.88,-291.38C37.54,-288.04 30.95,-281.45 26.06,-276.56"/>
<polygon fill="#ff8200" stroke="#ff8200" points="27.23,-275.26 22.46,-272.96 24.76,-277.73 27.23,-275.26"/>
</a>
</g>
</g>
<!-- s1_league3_game3_02_stac_1368708040&#45;&gt;s1_league3_game3_02_stac_1368708056 -->
<g id="edge26" class="edge">
<title>s1_league3_game3_02_stac_1368708040&#45;&gt;s1_league3_game3_02_stac_1368708056</title>
<g id="a_edge26"><a xlink:title="Continuation">
<path fill="none" stroke="#10491b" d="M44.14,-291.09C48.49,-281.57 63.58,-245.63 58,-216 57.13,-211.36 55.23,-206.42 53.5,-202.55"/>
<polygon fill="#10491b" stroke="#10491b" points="54.97,-201.57 51.23,-197.81 51.82,-203.08 54.97,-201.57"/>
</a>
</g>
</g>
<!-- s1_league3_game3_02_stac_1368708041 -->
<g id="node28" class="node">
<title>s1_league3_game3_02_stac_1368708041</title>
<g id="a_node28"><a xlink:title="4 &#160;nareik15 &#160;but can only see a &quot;reject&quot; button">
<ellipse fill="black" stroke="black" cx="68" cy="-294.5" rx="3.5" ry="3.5"/>
</a>
</g>
</g>
<!-- s1_league3_game3_02_stac_1368708040&#45;&gt;s1_league3_game3_02_stac_1368708041 -->
<g id="edge21" class="edge">
<title>s1_league3_game3_02_stac_1368708040&#45;&gt;s1_league3_game3_02_stac_1368708041</title>
<g id="a_edge21"><a xlink:title="Contrast">
<path fill="none" stroke="#ff7ecf" d="M46.52,-294.5C50.78,-294.5 55.04,-294.5 59.3,-294.5"/>
<polygon fill="#ff7ecf" stroke="#ff7ecf" points="59.31,-296.25 64.31,-294.5 59.31,-292.75 59.31,-296.25"/>
</a>
</g>
</g>
<!-- s1_league3_game3_02_stac_1368708040&#45;&gt;s1_league3_game3_02_stac_1368708048 -->
<g id="edge23" class="edge">
<title>s1_league3_game3_02_stac_1368708040&#45;&gt;s1_league3_game3_02_stac_1368708048</title>
<g id="a_edge23"><a xlink:title="Question_answer_pair">
<path fill="none" stroke="#12ffff" d="M42.3,-290.92C40.4,-283.89 35.06,-264.19 32.08,-253.18"/>
<polygon fill="#12ffff" stroke="#12ffff" points="33.76,-252.7 30.77,-248.33 30.39,-253.62 33.76,-252.7"/>
</a>
</g>
</g>
<!-- s1_league3_game3_02_stac_1368708048&#45;&gt;s1_league3_game3_02_stac_1368708052 -->
<g id="edge25" class="edge">
<title>s1_league3_game3_02_stac_1368708048&#45;&gt;s1_league3_game3_02_stac_1368708052</title>
<g id="a_edge25"><a xlink:title="Comment">
<path fill="none" stroke="#ff8200" d="M28.93,-241.04C27.54,-237.84 25.05,-232.12 23.06,-227.53"/>
<polygon fill="#ff8200" stroke="#ff8200" points="24.63,-226.76 21.03,-222.87 21.42,-228.16 24.63,-226.76"/>
</a>
</g>
</g>
<!-- s1_league3_game3_02_stac_1368708049 -->
<g id="node30" class="node">
<title>s1_league3_game3_02_stac_1368708049</title>
<g id="a_node30"><a xlink:title="6 &#160;inca &#160;you doesn&#39;t have what is offered">
<ellipse fill="black" stroke="black" cx="86" cy="-244.5" rx="3.5" ry="3.5"/>
</a>
</g>
</g>
<!-- s1_league3_game3_02_stac_1368708048&#45;&gt;s1_league3_game3_02_stac_1368708049 -->
<g id="edge24" class="edge">
<title>s1_league3_game3_02_stac_1368708048&#45;&gt;s1_league3_game3_02_stac_1368708049</title>
<g id="a_edge24"><a xlink:title="Elaboration">
<path fill="none" stroke="#a621c7" d="M33.94,-244.5C48.31,-244.5 62.68,-244.5 77.05,-244.5"/>
<polygon fill="#a621c7" stroke="#a621c7" points="77.34,-246.25 82.34,-244.5 77.34,-242.75 77.34,-246.25"/>
</a>
</g>
</g>
</g>
</svg>
