<?xml version="1.0" encoding="UTF-8" standalone="no"?>
<!DOCTYPE svg PUBLIC "-//W3C//DTD SVG 1.1//EN"
 "http://www.w3.org/Graphics/SVG/1.1/DTD/svg11.dtd">
<!-- Generated by graphviz version 3.0.0 (20220226.1711)
 -->
<!-- Title: 4_s1_league3_game3_552 Pages: 1 -->
<svg width="138pt" height="197pt"
 viewBox="0.00 0.00 138.00 197.19" xmlns="http://www.w3.org/2000/svg" xmlns:xlink="http://www.w3.org/1999/xlink">
<g id="graph0" class="graph" transform="scale(1 1) rotate(0) translate(4 193.19)">
<title>4_s1_league3_game3_552</title>
<polygon fill="white" stroke="transparent" points="-4,4 -4,-193.19 134,-193.19 134,4 -4,4"/>
<g id="clust1" class="cluster">
<title>cluster_4_s1_league3_game3_552</title>
<polygon fill="none" stroke="black" points="8,-8 8,-179 122,-179 122,-8 8,-8"/>
<text text-anchor="middle" x="26.5" y="-163.8" font-family="Times,serif" font-size="14.00">552</text>
</g>
<!-- s1_league3_game3_04_stac_1368708031 -->
<g id="node1" class="node">
<title>s1_league3_game3_04_stac_1368708031</title>
<g id="a_node1"><a xlink:title="1 &#160;nareik15 &#160;anyone have wood to trade. I have sheep">
<ellipse fill="black" stroke="black" cx="60" cy="-144.5" rx="3.5" ry="3.5"/>
</a>
</g>
</g>
<!-- 1_0 -->
<!-- s1_league3_game3_04_stac_1368708031&#45;&gt;1_0 -->
<!-- 1_1 -->
<!-- s1_league3_game3_04_stac_1368708031&#45;&gt;1_1 -->
<!-- s1_league3_game3_04_stac_1368708034 -->
<g id="node4" class="node">
<title>s1_league3_game3_04_stac_1368708034</title>
<g id="a_node4"><a xlink:title="2 &#160;yiin &#160;no">
<ellipse fill="black" stroke="black" cx="20" cy="-119.5" rx="3.5" ry="3.5"/>
</a>
</g>
</g>
<!-- s1_league3_game3_04_stac_1368708031&#45;&gt;s1_league3_game3_04_stac_1368708034 -->
<g id="edge12" class="edge">
<title>s1_league3_game3_04_stac_1368708031&#45;&gt;s1_league3_game3_04_stac_1368708034</title>
<g id="a_edge12"><a xlink:title="Question_answer_pair">
<path fill="none" stroke="#12ffff" d="M57.38,-141.99C51.33,-138.52 36.26,-129.85 27.21,-124.64"/>
<polygon fill="#12ffff" stroke="#12ffff" points="27.89,-123.02 22.69,-122.04 26.15,-126.05 27.89,-123.02"/>
</a>
</g>
</g>
<!-- s1_league3_game3_04_stac_1368708037 -->
<g id="node14" class="node">
<title>s1_league3_game3_04_stac_1368708037</title>
<g id="a_node14"><a xlink:title="3 &#160;Gaeilgeoir &#160;Sorry,">
<ellipse fill="black" stroke="black" cx="30" cy="-94.5" rx="3.5" ry="3.5"/>
</a>
</g>
</g>
<!-- s1_league3_game3_04_stac_1368708031&#45;&gt;s1_league3_game3_04_stac_1368708037 -->
<g id="edge13" class="edge">
<title>s1_league3_game3_04_stac_1368708031&#45;&gt;s1_league3_game3_04_stac_1368708037</title>
<g id="a_edge13"><a xlink:title="Question_answer_pair">
<path fill="none" stroke="#12ffff" d="M62.89,-142.09C70.56,-138.16 90.32,-126.68 83,-116 77.78,-108.38 51.84,-100.94 38.28,-97.49"/>
<polygon fill="#12ffff" stroke="#12ffff" points="38.6,-95.77 33.33,-96.27 37.77,-99.17 38.6,-95.77"/>
</a>
</g>
</g>
<!-- s1_league3_game3_04_stac_1368708045 -->
<g id="node15" class="node">
<title>s1_league3_game3_04_stac_1368708045</title>
<g id="a_node15"><a xlink:title="5 &#160;inca &#160;do you have wheat kieran?">
<ellipse fill="black" stroke="black" cx="50" cy="-44.5" rx="3.5" ry="3.5"/>
</a>
</g>
</g>
<!-- s1_league3_game3_04_stac_1368708031&#45;&gt;s1_league3_game3_04_stac_1368708045 -->
<g id="edge16" class="edge">
<title>s1_league3_game3_04_stac_1368708031&#45;&gt;s1_league3_game3_04_stac_1368708045</title>
<g id="a_edge16"><a xlink:title="Q_Elab">
<path fill="none" stroke="#0d20ff" d="M62.77,-142.24C68.39,-139.54 81.19,-132.64 88,-123 103.12,-101.61 117.81,-87.61 103,-66 97.78,-58.38 71.84,-50.94 58.28,-47.49"/>
<polygon fill="#0d20ff" stroke="#0d20ff" points="58.6,-45.77 53.33,-46.27 57.77,-49.17 58.6,-45.77"/>
</a>
</g>
</g>
<!-- 2_0 -->
<!-- s1_league3_game3_04_stac_1368708034&#45;&gt;2_0 -->
<!-- 2_1 -->
<!-- s1_league3_game3_04_stac_1368708034&#45;&gt;2_1 -->
<!-- s1_league3_game3_04_stac_1368708034&#45;&gt;s1_league3_game3_04_stac_1368708037 -->
<!-- s1_league3_game3_04_stac_1368708038 -->
<g id="node7" class="node">
<title>s1_league3_game3_04_stac_1368708038</title>
<g id="a_node7"><a xlink:title="3 &#160;Gaeilgeoir &#160;I need wood too">
<ellipse fill="black" stroke="black" cx="55" cy="-94.5" rx="3.5" ry="3.5"/>
</a>
</g>
</g>
<!-- 3_0 -->
<!-- s1_league3_game3_04_stac_1368708038&#45;&gt;3_0 -->
<!-- s1_league3_game3_04_stac_1368708042 -->
<g id="node9" class="node">
<title>s1_league3_game3_04_stac_1368708042</title>
<g id="a_node9"><a xlink:title="4 &#160;Gaeilgeoir &#160;if you want">
<ellipse fill="black" stroke="black" cx="40" cy="-69.5" rx="3.5" ry="3.5"/>
</a>
</g>
</g>
<!-- s1_league3_game3_04_stac_1368708038&#45;&gt;s1_league3_game3_04_stac_1368708042 -->
<g id="edge15" class="edge">
<title>s1_league3_game3_04_stac_1368708038&#45;&gt;s1_league3_game3_04_stac_1368708042</title>
<g id="a_edge15"><a xlink:title="Conditional">
<path fill="none" stroke="#1c931a" d="M53.39,-91.04C51.26,-87.77 47.42,-81.87 44.39,-77.23"/>
<polygon fill="#1c931a" stroke="#1c931a" points="45.75,-76.11 41.55,-72.87 42.81,-78.02 45.75,-76.11"/>
</a>
</g>
</g>
<!-- 4_0 -->
<!-- s1_league3_game3_04_stac_1368708042&#45;&gt;4_0 -->
<!-- 4_1 -->
<!-- s1_league3_game3_04_stac_1368708042&#45;&gt;4_1 -->
<!-- s1_league3_game3_04_stac_1368708042&#45;&gt;s1_league3_game3_04_stac_1368708045 -->
<!-- s1_league3_game3_04_stac_1368708051 -->
<g id="node12" class="node">
<title>s1_league3_game3_04_stac_1368708051</title>
<g id="a_node12"><a xlink:title="6 &#160;nareik15 &#160;plenty of sheep though :)">
<ellipse fill="black" stroke="black" cx="75" cy="-19.5" rx="3.5" ry="3.5"/>
</a>
</g>
</g>
<!-- 6_0 -->
<!-- s1_league3_game3_04_stac_1368708051&#45;&gt;6_0 -->
<!-- s1_league3_game3_04_stac_1368708037&#45;&gt;s1_league3_game3_04_stac_1368708038 -->
<g id="edge14" class="edge">
<title>s1_league3_game3_04_stac_1368708037&#45;&gt;s1_league3_game3_04_stac_1368708038</title>
<g id="a_edge14"><a xlink:title="Explanation">
<path fill="none" stroke="#a62139" d="M33.52,-94.5C37.78,-94.5 42.04,-94.5 46.3,-94.5"/>
<polygon fill="#a62139" stroke="#a62139" points="46.31,-96.25 51.31,-94.5 46.31,-92.75 46.31,-96.25"/>
</a>
</g>
</g>
<!-- s1_league3_game3_04_stac_1368708037&#45;&gt;s1_league3_game3_04_stac_1368708042 -->
<!-- s1_league3_game3_04_stac_1368708046 -->
<g id="node16" class="node">
<title>s1_league3_game3_04_stac_1368708046</title>
<g id="a_node16"><a xlink:title="5 &#160;inca &#160;if so">
<ellipse fill="black" stroke="black" cx="75" cy="-44.5" rx="3.5" ry="3.5"/>
</a>
</g>
</g>
<!-- s1_league3_game3_04_stac_1368708045&#45;&gt;s1_league3_game3_04_stac_1368708046 -->
<g id="edge17" class="edge">
<title>s1_league3_game3_04_stac_1368708045&#45;&gt;s1_league3_game3_04_stac_1368708046</title>
<g id="a_edge17"><a xlink:title="Elaboration">
<path fill="none" stroke="#a621c7" d="M53.52,-44.5C57.78,-44.5 62.04,-44.5 66.3,-44.5"/>
<polygon fill="#a621c7" stroke="#a621c7" points="66.31,-46.25 71.31,-44.5 66.31,-42.75 66.31,-46.25"/>
</a>
</g>
</g>
<!-- s1_league3_game3_04_stac_1368708050 -->
<g id="node18" class="node">
<title>s1_league3_game3_04_stac_1368708050</title>
<g id="a_node18"><a xlink:title="6 &#160;nareik15 &#160;sorry,">
<ellipse fill="black" stroke="black" cx="50" cy="-19.5" rx="3.5" ry="3.5"/>
</a>
</g>
</g>
<!-- s1_league3_game3_04_stac_1368708045&#45;&gt;s1_league3_game3_04_stac_1368708050 -->
<g id="edge19" class="edge">
<title>s1_league3_game3_04_stac_1368708045&#45;&gt;s1_league3_game3_04_stac_1368708050</title>
<g id="a_edge19"><a xlink:title="Question_answer_pair">
<path fill="none" stroke="#12ffff" d="M50,-40.68C50,-37.58 50,-32.47 50,-28.16"/>
<polygon fill="#12ffff" stroke="#12ffff" points="51.75,-28.06 50,-23.06 48.25,-28.06 51.75,-28.06"/>
</a>
</g>
</g>
<!-- s1_league3_game3_04_stac_1368708047 -->
<g id="node17" class="node">
<title>s1_league3_game3_04_stac_1368708047</title>
<g id="a_node17"><a xlink:title="5 &#160;inca &#160;i can trade wood">
<ellipse fill="black" stroke="black" cx="100" cy="-44.5" rx="3.5" ry="3.5"/>
</a>
</g>
</g>
<!-- s1_league3_game3_04_stac_1368708046&#45;&gt;s1_league3_game3_04_stac_1368708047 -->
<g id="edge18" class="edge">
<title>s1_league3_game3_04_stac_1368708046&#45;&gt;s1_league3_game3_04_stac_1368708047</title>
<g id="a_edge18"><a xlink:title="Elaboration">
<path fill="none" stroke="#a621c7" d="M78.52,-44.5C82.78,-44.5 87.04,-44.5 91.3,-44.5"/>
<polygon fill="#a621c7" stroke="#a621c7" points="91.31,-46.25 96.31,-44.5 91.31,-42.75 91.31,-46.25"/>
</a>
</g>
</g>
<!-- s1_league3_game3_04_stac_1368708050&#45;&gt;s1_league3_game3_04_stac_1368708051 -->
<g id="edge20" class="edge">
<title>s1_league3_game3_04_stac_1368708050&#45;&gt;s1_league3_game3_04_stac_1368708051</title>
<g id="a_edge20"><a xlink:title="Contrast">
<path fill="none" stroke="#ff7ecf" d="M53.52,-19.5C57.78,-19.5 62.04,-19.5 66.3,-19.5"/>
<polygon fill="#ff7ecf" stroke="#ff7ecf" points="66.31,-21.25 71.31,-19.5 66.31,-17.75 66.31,-21.25"/>
</a>
</g>
</g>
</g>
</svg>
