<?xml version="1.0" encoding="UTF-8" standalone="no"?>
<!DOCTYPE svg PUBLIC "-//W3C//DTD SVG 1.1//EN"
 "http://www.w3.org/Graphics/SVG/1.1/DTD/svg11.dtd">
<!-- Generated by graphviz version 3.0.0 (20220226.1711)
 -->
<!-- Title: 5_s1_league3_game3_555 Pages: 1 -->
<svg width="134pt" height="495pt"
 viewBox="0.00 0.00 134.00 495.00" xmlns="http://www.w3.org/2000/svg" xmlns:xlink="http://www.w3.org/1999/xlink">
<g id="graph0" class="graph" transform="scale(1 1) rotate(0) translate(4 491)">
<title>5_s1_league3_game3_555</title>
<polygon fill="white" stroke="transparent" points="-4,4 -4,-491 130,-491 130,4 -4,4"/>
<g id="clust1" class="cluster">
<title>cluster_5_s1_league3_game3_555</title>
<polygon fill="none" stroke="black" points="8,-8 8,-479 118,-479 118,-8 8,-8"/>
<text text-anchor="middle" x="26.5" y="-463.8" font-family="Times,serif" font-size="14.00">555</text>
</g>
<!-- s1_league3_game3_05_stac_1368708052 -->
<g id="node1" class="node">
<title>s1_league3_game3_05_stac_1368708052</title>
<g id="a_node1"><a xlink:title="1 &#160;yiin &#160;if only someone can roll a 3">
<ellipse fill="black" stroke="black" cx="63" cy="-444.5" rx="3.5" ry="3.5"/>
</a>
</g>
</g>
<!-- 1_0 -->
<!-- s1_league3_game3_05_stac_1368708052&#45;&gt;1_0 -->
<!-- s1_league3_game3_05_stac_1368708055 -->
<g id="node3" class="node">
<title>s1_league3_game3_05_stac_1368708055</title>
<g id="a_node3"><a xlink:title="2 &#160;Gaeilgeoir &#160;so true">
<ellipse fill="black" stroke="black" cx="52" cy="-419.5" rx="3.5" ry="3.5"/>
</a>
</g>
</g>
<!-- s1_league3_game3_05_stac_1368708052&#45;&gt;s1_league3_game3_05_stac_1368708055 -->
<g id="edge26" class="edge">
<title>s1_league3_game3_05_stac_1368708052&#45;&gt;s1_league3_game3_05_stac_1368708055</title>
<g id="a_edge26"><a xlink:title="Acknowledgement">
<path fill="none" stroke="#12ffff" d="M61.82,-441.04C60.29,-437.84 57.56,-432.12 55.36,-427.53"/>
<polygon fill="#12ffff" stroke="#12ffff" points="56.87,-426.63 53.14,-422.87 53.71,-428.14 56.87,-426.63"/>
</a>
</g>
</g>
<!-- s1_league3_game3_05_stac_1368708066 -->
<g id="node9" class="node">
<title>s1_league3_game3_05_stac_1368708066</title>
<g id="a_node9"><a xlink:title="5 &#160;nareik15 &#160;i&#39;m guessing nobody has any clay?">
<ellipse fill="black" stroke="black" cx="53" cy="-344.5" rx="3.5" ry="3.5"/>
</a>
</g>
</g>
<!-- s1_league3_game3_05_stac_1368708052&#45;&gt;s1_league3_game3_05_stac_1368708066 -->
<g id="edge28" class="edge">
<title>s1_league3_game3_05_stac_1368708052&#45;&gt;s1_league3_game3_05_stac_1368708066</title>
<g id="a_edge28"><a xlink:title="Question_answer_pair">
<path fill="none" stroke="#12ffff" d="M63.57,-441.03C65.7,-431.27 72.75,-394.58 65,-366 63.6,-360.85 60.55,-355.67 57.88,-351.81"/>
<polygon fill="#12ffff" stroke="#12ffff" points="59.23,-350.69 54.84,-347.71 56.42,-352.77 59.23,-350.69"/>
</a>
</g>
</g>
<!-- 2_0 -->
<!-- s1_league3_game3_05_stac_1368708055&#45;&gt;2_0 -->
<!-- s1_league3_game3_05_stac_1368708059 -->
<g id="node5" class="node">
<title>s1_league3_game3_05_stac_1368708059</title>
<g id="a_node5"><a xlink:title="3 &#160;yiin &#160;oop">
<ellipse fill="black" stroke="black" cx="27" cy="-394.5" rx="3.5" ry="3.5"/>
</a>
</g>
</g>
<!-- s1_league3_game3_05_stac_1368708055&#45;&gt;s1_league3_game3_05_stac_1368708059 -->
<!-- 3_0 -->
<!-- s1_league3_game3_05_stac_1368708059&#45;&gt;3_0 -->
<!-- s1_league3_game3_05_stac_1368708062 -->
<g id="node7" class="node">
<title>s1_league3_game3_05_stac_1368708062</title>
<g id="a_node7"><a xlink:title="4 &#160;Gaeilgeoir &#160;I&#39;ve made that mistake numerous times. :P">
<ellipse fill="black" stroke="black" cx="27" cy="-369.5" rx="3.5" ry="3.5"/>
</a>
</g>
</g>
<!-- s1_league3_game3_05_stac_1368708059&#45;&gt;s1_league3_game3_05_stac_1368708062 -->
<g id="edge27" class="edge">
<title>s1_league3_game3_05_stac_1368708059&#45;&gt;s1_league3_game3_05_stac_1368708062</title>
<g id="a_edge27"><a xlink:title="Comment">
<path fill="none" stroke="#ff8200" d="M27,-390.68C27,-387.58 27,-382.47 27,-378.16"/>
<polygon fill="#ff8200" stroke="#ff8200" points="28.75,-378.06 27,-373.06 25.25,-378.06 28.75,-378.06"/>
</a>
</g>
</g>
<!-- 4_0 -->
<!-- s1_league3_game3_05_stac_1368708062&#45;&gt;4_0 -->
<!-- s1_league3_game3_05_stac_1368708062&#45;&gt;s1_league3_game3_05_stac_1368708066 -->
<!-- 5_0 -->
<!-- s1_league3_game3_05_stac_1368708066&#45;&gt;5_0 -->
<!-- s1_league3_game3_05_stac_1368708069 -->
<g id="node11" class="node">
<title>s1_league3_game3_05_stac_1368708069</title>
<g id="a_node11"><a xlink:title="6 &#160;Gaeilgeoir &#160;Not me anyway">
<ellipse fill="black" stroke="black" cx="20" cy="-319.5" rx="3.5" ry="3.5"/>
</a>
</g>
</g>
<!-- s1_league3_game3_05_stac_1368708066&#45;&gt;s1_league3_game3_05_stac_1368708069 -->
<g id="edge29" class="edge">
<title>s1_league3_game3_05_stac_1368708066&#45;&gt;s1_league3_game3_05_stac_1368708069</title>
<g id="a_edge29"><a xlink:title="Question_answer_pair">
<path fill="none" stroke="#12ffff" d="M50.41,-341.7C45.37,-338.18 34.11,-330.33 26.8,-325.24"/>
<polygon fill="#12ffff" stroke="#12ffff" points="27.59,-323.66 22.49,-322.23 25.59,-326.53 27.59,-323.66"/>
</a>
</g>
</g>
<!-- s1_league3_game3_05_stac_1368708073 -->
<g id="node13" class="node">
<title>s1_league3_game3_05_stac_1368708073</title>
<g id="a_node13"><a xlink:title="7 &#160;inca &#160;nope">
<ellipse fill="black" stroke="black" cx="20" cy="-294.5" rx="3.5" ry="3.5"/>
</a>
</g>
</g>
<!-- s1_league3_game3_05_stac_1368708066&#45;&gt;s1_league3_game3_05_stac_1368708073 -->
<g id="edge30" class="edge">
<title>s1_league3_game3_05_stac_1368708066&#45;&gt;s1_league3_game3_05_stac_1368708073</title>
<g id="a_edge30"><a xlink:title="Question_answer_pair">
<path fill="none" stroke="#12ffff" d="M51.41,-341.18C46.59,-334.17 32.01,-312.96 24.53,-302.09"/>
<polygon fill="#12ffff" stroke="#12ffff" points="25.93,-301.03 21.65,-297.9 23.04,-303.02 25.93,-301.03"/>
</a>
</g>
</g>
<!-- s1_league3_game3_05_stac_1368708076 -->
<g id="node15" class="node">
<title>s1_league3_game3_05_stac_1368708076</title>
<g id="a_node15"><a xlink:title="8 &#160;yiin &#160;i think this is the problem with the game">
<ellipse fill="black" stroke="black" cx="40" cy="-269.5" rx="3.5" ry="3.5"/>
</a>
</g>
</g>
<!-- s1_league3_game3_05_stac_1368708066&#45;&gt;s1_league3_game3_05_stac_1368708076 -->
<g id="edge31" class="edge">
<title>s1_league3_game3_05_stac_1368708066&#45;&gt;s1_league3_game3_05_stac_1368708076</title>
<g id="a_edge31"><a xlink:title="Question_answer_pair">
<path fill="none" stroke="#12ffff" d="M54,-340.99C56.92,-333.25 64.84,-309.16 58,-291 55.69,-284.88 50.64,-279.4 46.47,-275.65"/>
<polygon fill="#12ffff" stroke="#12ffff" points="47.43,-274.17 42.47,-272.31 45.19,-276.85 47.43,-274.17"/>
</a>
</g>
</g>
<!-- s1_league3_game3_05_stac_1368708080 -->
<g id="node17" class="node">
<title>s1_league3_game3_05_stac_1368708080</title>
<g id="a_node17"><a xlink:title="9 &#160;Gaeilgeoir &#160;why can&#39;t a 3 be rolled?? :(">
<ellipse fill="black" stroke="black" cx="50" cy="-244.5" rx="3.5" ry="3.5"/>
</a>
</g>
</g>
<!-- s1_league3_game3_05_stac_1368708066&#45;&gt;s1_league3_game3_05_stac_1368708080 -->
<g id="edge32" class="edge">
<title>s1_league3_game3_05_stac_1368708066&#45;&gt;s1_league3_game3_05_stac_1368708080</title>
<g id="a_edge32"><a xlink:title="Clarification_question">
<path fill="none" stroke="#ff40d1" d="M54.96,-341.24C62.97,-331.72 92.2,-293.99 78,-266 73.83,-257.77 64.63,-252.05 57.91,-248.78"/>
<polygon fill="#ff40d1" stroke="#ff40d1" points="58.29,-247.04 53.01,-246.61 56.88,-250.24 58.29,-247.04"/>
</a>
</g>
</g>
<!-- 6_0 -->
<!-- s1_league3_game3_05_stac_1368708069&#45;&gt;6_0 -->
<!-- s1_league3_game3_05_stac_1368708069&#45;&gt;s1_league3_game3_05_stac_1368708073 -->
<!-- 7_0 -->
<!-- s1_league3_game3_05_stac_1368708073&#45;&gt;7_0 -->
<!-- s1_league3_game3_05_stac_1368708073&#45;&gt;s1_league3_game3_05_stac_1368708076 -->
<!-- s1_league3_game3_05_stac_1368708084 -->
<g id="node31" class="node">
<title>s1_league3_game3_05_stac_1368708084</title>
<g id="a_node31"><a xlink:title="10 &#160;inca &#160;anyone got sheep?">
<ellipse fill="black" stroke="black" cx="50" cy="-219.5" rx="3.5" ry="3.5"/>
</a>
</g>
</g>
<!-- s1_league3_game3_05_stac_1368708073&#45;&gt;s1_league3_game3_05_stac_1368708084 -->
<g id="edge33" class="edge">
<title>s1_league3_game3_05_stac_1368708073&#45;&gt;s1_league3_game3_05_stac_1368708084</title>
<g id="a_edge33"><a xlink:title="Continuation">
<path fill="none" stroke="#10491b" d="M20.62,-291.01C22.57,-283.31 29.02,-259.35 38,-241 40.29,-236.31 43.25,-231.25 45.65,-227.33"/>
<polygon fill="#10491b" stroke="#10491b" points="47.3,-228 48.48,-222.84 44.34,-226.14 47.3,-228"/>
</a>
</g>
</g>
<!-- 8_0 -->
<!-- s1_league3_game3_05_stac_1368708076&#45;&gt;8_0 -->
<!-- s1_league3_game3_05_stac_1368708076&#45;&gt;s1_league3_game3_05_stac_1368708080 -->
<!-- 9_0 -->
<!-- s1_league3_game3_05_stac_1368708080&#45;&gt;9_0 -->
<!-- s1_league3_game3_05_stac_1368708080&#45;&gt;s1_league3_game3_05_stac_1368708084 -->
<!-- s1_league3_game3_05_stac_1368708092 -->
<g id="node19" class="node">
<title>s1_league3_game3_05_stac_1368708092</title>
<g id="a_node19"><a xlink:title="12 &#160;nareik15 &#160;sorry">
<ellipse fill="black" stroke="black" cx="59" cy="-169.5" rx="3.5" ry="3.5"/>
</a>
</g>
</g>
<!-- 12_0 -->
<!-- s1_league3_game3_05_stac_1368708092&#45;&gt;12_0 -->
<!-- s1_league3_game3_05_stac_1368708096 -->
<g id="node21" class="node">
<title>s1_league3_game3_05_stac_1368708096</title>
<g id="a_node21"><a xlink:title="13 &#160;yiin &#160;i got one">
<ellipse fill="black" stroke="black" cx="59" cy="-144.5" rx="3.5" ry="3.5"/>
</a>
</g>
</g>
<!-- s1_league3_game3_05_stac_1368708092&#45;&gt;s1_league3_game3_05_stac_1368708096 -->
<!-- 13_0 -->
<!-- s1_league3_game3_05_stac_1368708096&#45;&gt;13_0 -->
<!-- s1_league3_game3_05_stac_1368708099 -->
<g id="node23" class="node">
<title>s1_league3_game3_05_stac_1368708099</title>
<g id="a_node23"><a xlink:title="14 &#160;yiin &#160;i can give you">
<ellipse fill="black" stroke="black" cx="40" cy="-119.5" rx="3.5" ry="3.5"/>
</a>
</g>
</g>
<!-- s1_league3_game3_05_stac_1368708096&#45;&gt;s1_league3_game3_05_stac_1368708099 -->
<g id="edge39" class="edge">
<title>s1_league3_game3_05_stac_1368708096&#45;&gt;s1_league3_game3_05_stac_1368708099</title>
<g id="a_edge39"><a xlink:title="Continuation">
<path fill="none" stroke="#10491b" d="M57.25,-141.38C54.55,-138.11 49.26,-131.71 45.25,-126.85"/>
<polygon fill="#10491b" stroke="#10491b" points="46.57,-125.7 42.03,-122.96 43.87,-127.93 46.57,-125.7"/>
</a>
</g>
</g>
<!-- s1_league3_game3_05_stac_1368708105 -->
<g id="node35" class="node">
<title>s1_league3_game3_05_stac_1368708105</title>
<g id="a_node35"><a xlink:title="16 &#160;inca &#160;too late now,">
<ellipse fill="black" stroke="black" cx="63" cy="-69.5" rx="3.5" ry="3.5"/>
</a>
</g>
</g>
<!-- s1_league3_game3_05_stac_1368708096&#45;&gt;s1_league3_game3_05_stac_1368708105 -->
<g id="edge41" class="edge">
<title>s1_league3_game3_05_stac_1368708096&#45;&gt;s1_league3_game3_05_stac_1368708105</title>
<g id="a_edge41"><a xlink:title="Contrast">
<path fill="none" stroke="#ff7ecf" d="M59.15,-140.73C59.71,-130.52 61.67,-94.78 62.56,-78.59"/>
<polygon fill="#ff7ecf" stroke="#ff7ecf" points="64.32,-78.36 62.85,-73.28 60.83,-78.17 64.32,-78.36"/>
</a>
</g>
</g>
<!-- s1_league3_game3_05_stac_1368708106 -->
<g id="node36" class="node">
<title>s1_league3_game3_05_stac_1368708106</title>
<g id="a_node36"><a xlink:title="16 &#160;inca &#160;cheers anyway">
<ellipse fill="black" stroke="black" cx="88" cy="-69.5" rx="3.5" ry="3.5"/>
</a>
</g>
</g>
<!-- s1_league3_game3_05_stac_1368708096&#45;&gt;s1_league3_game3_05_stac_1368708106 -->
<g id="edge42" class="edge">
<title>s1_league3_game3_05_stac_1368708096&#45;&gt;s1_league3_game3_05_stac_1368708106</title>
<g id="a_edge42"><a xlink:title="Acknowledgement">
<path fill="none" stroke="#12ffff" d="M59.96,-141.07C63.89,-131.2 78.72,-93.86 85.08,-77.85"/>
<polygon fill="#12ffff" stroke="#12ffff" points="86.78,-78.31 87,-73.01 83.53,-77.01 86.78,-78.31"/>
</a>
</g>
</g>
<!-- 14_0 -->
<!-- s1_league3_game3_05_stac_1368708099&#45;&gt;14_0 -->
<!-- s1_league3_game3_05_stac_1368708102 -->
<g id="node25" class="node">
<title>s1_league3_game3_05_stac_1368708102</title>
<g id="a_node25"><a xlink:title="15 &#160;yiin &#160;but i need wheat">
<ellipse fill="black" stroke="black" cx="20" cy="-94.5" rx="3.5" ry="3.5"/>
</a>
</g>
</g>
<!-- s1_league3_game3_05_stac_1368708099&#45;&gt;s1_league3_game3_05_stac_1368708102 -->
<g id="edge40" class="edge">
<title>s1_league3_game3_05_stac_1368708099&#45;&gt;s1_league3_game3_05_stac_1368708102</title>
<g id="a_edge40"><a xlink:title="Contrast">
<path fill="none" stroke="#ff7ecf" d="M38.15,-116.38C35.31,-113.11 29.75,-106.71 25.52,-101.85"/>
<polygon fill="#ff7ecf" stroke="#ff7ecf" points="26.74,-100.59 22.14,-97.96 24.1,-102.88 26.74,-100.59"/>
</a>
</g>
</g>
<!-- 15_0 -->
<!-- s1_league3_game3_05_stac_1368708102&#45;&gt;15_0 -->
<!-- s1_league3_game3_05_stac_1368708102&#45;&gt;s1_league3_game3_05_stac_1368708105 -->
<!-- s1_league3_game3_05_stac_1368708110 -->
<g id="node27" class="node">
<title>s1_league3_game3_05_stac_1368708110</title>
<g id="a_node27"><a xlink:title="17 &#160;yiin &#160;finally">
<ellipse fill="black" stroke="black" cx="63" cy="-44.5" rx="3.5" ry="3.5"/>
</a>
</g>
</g>
<!-- 17_0 -->
<!-- s1_league3_game3_05_stac_1368708110&#45;&gt;17_0 -->
<!-- s1_league3_game3_05_stac_1368708113 -->
<g id="node29" class="node">
<title>s1_league3_game3_05_stac_1368708113</title>
<g id="a_node29"><a xlink:title="18 &#160;Gaeilgeoir &#160;haha">
<ellipse fill="black" stroke="black" cx="63" cy="-19.5" rx="3.5" ry="3.5"/>
</a>
</g>
</g>
<!-- s1_league3_game3_05_stac_1368708110&#45;&gt;s1_league3_game3_05_stac_1368708113 -->
<g id="edge44" class="edge">
<title>s1_league3_game3_05_stac_1368708110&#45;&gt;s1_league3_game3_05_stac_1368708113</title>
<g id="a_edge44"><a xlink:title="Comment">
<path fill="none" stroke="#ff8200" d="M63,-40.68C63,-37.58 63,-32.47 63,-28.16"/>
<polygon fill="#ff8200" stroke="#ff8200" points="64.75,-28.06 63,-23.06 61.25,-28.06 64.75,-28.06"/>
</a>
</g>
</g>
<!-- 18_0 -->
<!-- s1_league3_game3_05_stac_1368708113&#45;&gt;18_0 -->
<!-- s1_league3_game3_05_stac_1368708084&#45;&gt;s1_league3_game3_05_stac_1368708092 -->
<g id="edge37" class="edge">
<title>s1_league3_game3_05_stac_1368708084&#45;&gt;s1_league3_game3_05_stac_1368708092</title>
<g id="a_edge37"><a xlink:title="Question_answer_pair">
<path fill="none" stroke="#12ffff" d="M52.47,-216.69C56.62,-213.48 64.86,-206.33 68,-198 70.66,-190.95 67.11,-182.71 63.71,-177.11"/>
<polygon fill="#12ffff" stroke="#12ffff" points="65.06,-175.98 60.82,-172.81 62.16,-177.93 65.06,-175.98"/>
</a>
</g>
</g>
<!-- s1_league3_game3_05_stac_1368708084&#45;&gt;s1_league3_game3_05_stac_1368708096 -->
<g id="edge38" class="edge">
<title>s1_league3_game3_05_stac_1368708084&#45;&gt;s1_league3_game3_05_stac_1368708096</title>
<g id="a_edge38"><a xlink:title="Question_answer_pair">
<path fill="none" stroke="#12ffff" d="M48.92,-216.17C47.25,-212.43 44.13,-204.83 43,-198 42.49,-194.93 42.75,-194.1 43,-191 43.89,-179.78 43.2,-176.59 47,-166 48.8,-160.98 51.85,-155.8 54.42,-151.9"/>
<polygon fill="#12ffff" stroke="#12ffff" points="55.88,-152.86 57.29,-147.76 53,-150.87 55.88,-152.86"/>
</a>
</g>
</g>
<!-- s1_league3_game3_05_stac_1368708085 -->
<g id="node32" class="node">
<title>s1_league3_game3_05_stac_1368708085</title>
<g id="a_node32"><a xlink:title="10 &#160;inca &#160;I can give anything but clay">
<ellipse fill="black" stroke="black" cx="75" cy="-219.5" rx="3.5" ry="3.5"/>
</a>
</g>
</g>
<!-- s1_league3_game3_05_stac_1368708084&#45;&gt;s1_league3_game3_05_stac_1368708085 -->
<g id="edge34" class="edge">
<title>s1_league3_game3_05_stac_1368708084&#45;&gt;s1_league3_game3_05_stac_1368708085</title>
<g id="a_edge34"><a xlink:title="Elaboration">
<path fill="none" stroke="#a621c7" d="M53.52,-219.5C57.78,-219.5 62.04,-219.5 66.3,-219.5"/>
<polygon fill="#a621c7" stroke="#a621c7" points="66.31,-221.25 71.31,-219.5 66.31,-217.75 66.31,-221.25"/>
</a>
</g>
</g>
<!-- s1_league3_game3_05_stac_1368708088 -->
<g id="node33" class="node">
<title>s1_league3_game3_05_stac_1368708088</title>
<g id="a_node33"><a xlink:title="11 &#160;Gaeilgeoir &#160;sorry,">
<ellipse fill="black" stroke="black" cx="55" cy="-194.5" rx="3.5" ry="3.5"/>
</a>
</g>
</g>
<!-- s1_league3_game3_05_stac_1368708084&#45;&gt;s1_league3_game3_05_stac_1368708088 -->
<g id="edge35" class="edge">
<title>s1_league3_game3_05_stac_1368708084&#45;&gt;s1_league3_game3_05_stac_1368708088</title>
<g id="a_edge35"><a xlink:title="Question_answer_pair">
<path fill="none" stroke="#12ffff" d="M50.54,-216.04C51.2,-212.97 52.37,-207.6 53.34,-203.12"/>
<polygon fill="#12ffff" stroke="#12ffff" points="55.07,-203.41 54.42,-198.16 51.65,-202.67 55.07,-203.41"/>
</a>
</g>
</g>
<!-- s1_league3_game3_05_stac_1368708088&#45;&gt;s1_league3_game3_05_stac_1368708092 -->
<!-- s1_league3_game3_05_stac_1368708089 -->
<g id="node34" class="node">
<title>s1_league3_game3_05_stac_1368708089</title>
<g id="a_node34"><a xlink:title="11 &#160;Gaeilgeoir &#160;I don&#39;t.">
<ellipse fill="black" stroke="black" cx="101" cy="-194.5" rx="3.5" ry="3.5"/>
</a>
</g>
</g>
<!-- s1_league3_game3_05_stac_1368708088&#45;&gt;s1_league3_game3_05_stac_1368708089 -->
<g id="edge36" class="edge">
<title>s1_league3_game3_05_stac_1368708088&#45;&gt;s1_league3_game3_05_stac_1368708089</title>
<g id="a_edge36"><a xlink:title="Explanation">
<path fill="none" stroke="#a62139" d="M58.59,-194.5C69.8,-194.5 81,-194.5 92.21,-194.5"/>
<polygon fill="#a62139" stroke="#a62139" points="92.36,-196.25 97.36,-194.5 92.36,-192.75 92.36,-196.25"/>
</a>
</g>
</g>
<!-- s1_league3_game3_05_stac_1368708105&#45;&gt;s1_league3_game3_05_stac_1368708110 -->
<!-- s1_league3_game3_05_stac_1368708105&#45;&gt;s1_league3_game3_05_stac_1368708106 -->
<g id="edge43" class="edge">
<title>s1_league3_game3_05_stac_1368708105&#45;&gt;s1_league3_game3_05_stac_1368708106</title>
<g id="a_edge43"><a xlink:title="Continuation">
<path fill="none" stroke="#10491b" d="M66.52,-69.5C70.78,-69.5 75.04,-69.5 79.3,-69.5"/>
<polygon fill="#10491b" stroke="#10491b" points="79.31,-71.25 84.31,-69.5 79.31,-67.75 79.31,-71.25"/>
</a>
</g>
</g>
</g>
</svg>
