<?xml version="1.0" encoding="UTF-8" standalone="no"?>
<!DOCTYPE svg PUBLIC "-//W3C//DTD SVG 1.1//EN"
 "http://www.w3.org/Graphics/SVG/1.1/DTD/svg11.dtd">
<!-- Generated by graphviz version 3.0.0 (20220226.1711)
 -->
<!-- Title: 1_pilot02_47 Pages: 1 -->
<svg width="73pt" height="95pt"
 viewBox="0.00 0.00 73.00 95.00" xmlns="http://www.w3.org/2000/svg" xmlns:xlink="http://www.w3.org/1999/xlink">
<g id="graph0" class="graph" transform="scale(1 1) rotate(0) translate(4 91)">
<title>1_pilot02_47</title>
<polygon fill="white" stroke="transparent" points="-4,4 -4,-91 69,-91 69,4 -4,4"/>
<g id="clust1" class="cluster">
<title>cluster_1_pilot02_47</title>
<polygon fill="none" stroke="black" points="8,-8 8,-79 57,-79 57,-8 8,-8"/>
<text text-anchor="middle" x="23" y="-63.8" font-family="Times,serif" font-size="14.00">47</text>
</g>
<!-- pilot02_01_stac_1338637672 -->
<g id="node1" class="node">
<title>pilot02_01_stac_1338637672</title>
<g id="a_node1"><a xlink:title="2 &#160;william &#160;i am offering a wheat for wood or clay">
<ellipse fill="black" stroke="black" cx="20" cy="-44.5" rx="3.5" ry="3.5"/>
</a>
</g>
</g>
<!-- 2_0 -->
<!-- pilot02_01_stac_1338637672&#45;&gt;2_0 -->
<!-- pilot02_01_stac_1338647672 -->
<g id="node3" class="node">
<title>pilot02_01_stac_1338647672</title>
<g id="a_node3"><a xlink:title="1 &#160;Thomas &#160;no ">
<ellipse fill="black" stroke="black" cx="20" cy="-19.5" rx="3.5" ry="3.5"/>
</a>
</g>
</g>
<!-- pilot02_01_stac_1338637672&#45;&gt;pilot02_01_stac_1338647672 -->
<g id="edge3" class="edge">
<title>pilot02_01_stac_1338637672&#45;&gt;pilot02_01_stac_1338647672</title>
<g id="a_edge3"><a xlink:title="Question_answer_pair">
<path fill="none" stroke="#12ffff" d="M17.05,-42.51C13.24,-39.67 12.3,-31.35 14.21,-25.79"/>
<polygon fill="#12ffff" stroke="#12ffff" points="15.78,-26.59 17.09,-21.46 12.86,-24.66 15.78,-26.59"/>
</a>
</g>
</g>
<!-- pilot02_01_stac_1338647672&#45;&gt;pilot02_01_stac_1338637672 -->
<!-- pilot02_01_stac_1338647673 -->
<g id="node4" class="node">
<title>pilot02_01_stac_1338647673</title>
<g id="a_node4"><a xlink:title="1 &#160;Thomas &#160;thanks">
<ellipse fill="black" stroke="black" cx="45" cy="-19.5" rx="3.5" ry="3.5"/>
</a>
</g>
</g>
<!-- pilot02_01_stac_1338647672&#45;&gt;pilot02_01_stac_1338647673 -->
<g id="edge4" class="edge">
<title>pilot02_01_stac_1338647672&#45;&gt;pilot02_01_stac_1338647673</title>
<g id="a_edge4"><a xlink:title="Comment">
<path fill="none" stroke="#ff8200" d="M23.52,-19.5C27.78,-19.5 32.04,-19.5 36.3,-19.5"/>
<polygon fill="#ff8200" stroke="#ff8200" points="36.31,-21.25 41.31,-19.5 36.31,-17.75 36.31,-21.25"/>
</a>
</g>
</g>
</g>
</svg>
