<?xml version="1.0" encoding="UTF-8" standalone="no"?>
<!DOCTYPE svg PUBLIC "-//W3C//DTD SVG 1.1//EN"
 "http://www.w3.org/Graphics/SVG/1.1/DTD/svg11.dtd">
<!-- Generated by graphviz version 3.0.0 (20220226.1711)
 -->
<!-- Title: 7_s1_league3_game3_560 Pages: 1 -->
<svg width="88pt" height="545pt"
 viewBox="0.00 0.00 88.00 545.00" xmlns="http://www.w3.org/2000/svg" xmlns:xlink="http://www.w3.org/1999/xlink">
<g id="graph0" class="graph" transform="scale(1 1) rotate(0) translate(4 541)">
<title>7_s1_league3_game3_560</title>
<polygon fill="white" stroke="transparent" points="-4,4 -4,-541 84,-541 84,4 -4,4"/>
<g id="clust1" class="cluster">
<title>cluster_7_s1_league3_game3_560</title>
<polygon fill="none" stroke="black" points="8,-8 8,-529 72,-529 72,-8 8,-8"/>
<text text-anchor="middle" x="26.5" y="-513.8" font-family="Times,serif" font-size="14.00">560</text>
</g>
<!-- s1_league3_game3_07_stac_1368708031 -->
<g id="node1" class="node">
<title>s1_league3_game3_07_stac_1368708031</title>
<g id="a_node1"><a xlink:title="1 &#160;nareik15 &#160;thanks">
<ellipse fill="black" stroke="black" cx="39" cy="-494.5" rx="3.5" ry="3.5"/>
</a>
</g>
</g>
<!-- s1_league3_game3_07_stac_1368708034 -->
<g id="node2" class="node">
<title>s1_league3_game3_07_stac_1368708034</title>
<g id="a_node2"><a xlink:title="2 &#160;Gaeilgeoir &#160;no prob mate">
<ellipse fill="black" stroke="black" cx="39" cy="-469.5" rx="3.5" ry="3.5"/>
</a>
</g>
</g>
<!-- s1_league3_game3_07_stac_1368708031&#45;&gt;s1_league3_game3_07_stac_1368708034 -->
<g id="edge7" class="edge">
<title>s1_league3_game3_07_stac_1368708031&#45;&gt;s1_league3_game3_07_stac_1368708034</title>
<g id="a_edge7"><a xlink:title="Parallel">
<path fill="none" stroke="#0ab046" d="M39,-490.68C39,-487.58 39,-482.47 39,-478.16"/>
<polygon fill="#0ab046" stroke="#0ab046" points="40.75,-478.06 39,-473.06 37.25,-478.06 40.75,-478.06"/>
</a>
</g>
</g>
<!-- s1_league3_game3_07_stac_1368708037 -->
<g id="node3" class="node">
<title>s1_league3_game3_07_stac_1368708037</title>
<g id="a_node3"><a xlink:title="3 &#160;yiin &#160;anyone got clay or wheat">
<ellipse fill="black" stroke="black" cx="39" cy="-444.5" rx="3.5" ry="3.5"/>
</a>
</g>
</g>
<!-- s1_league3_game3_07_stac_1368708034&#45;&gt;s1_league3_game3_07_stac_1368708037 -->
<g id="edge8" class="edge">
<title>s1_league3_game3_07_stac_1368708034&#45;&gt;s1_league3_game3_07_stac_1368708037</title>
<g id="a_edge8"><a xlink:title="Continuation">
<path fill="none" stroke="#10491b" d="M39,-465.68C39,-462.58 39,-457.47 39,-453.16"/>
<polygon fill="#10491b" stroke="#10491b" points="40.75,-453.06 39,-448.06 37.25,-453.06 40.75,-453.06"/>
</a>
</g>
</g>
<!-- s1_league3_game3_07_stac_1368708040 -->
<g id="node4" class="node">
<title>s1_league3_game3_07_stac_1368708040</title>
<g id="a_node4"><a xlink:title="4 &#160;nareik15 &#160;wow inca.. must be bathing in clay now">
<ellipse fill="black" stroke="black" cx="28" cy="-419.5" rx="3.5" ry="3.5"/>
</a>
</g>
</g>
<!-- s1_league3_game3_07_stac_1368708037&#45;&gt;s1_league3_game3_07_stac_1368708040 -->
<g id="edge9" class="edge">
<title>s1_league3_game3_07_stac_1368708037&#45;&gt;s1_league3_game3_07_stac_1368708040</title>
<g id="a_edge9"><a xlink:title="Comment">
<path fill="none" stroke="#ff8200" d="M37.82,-441.04C36.29,-437.84 33.56,-432.12 31.36,-427.53"/>
<polygon fill="#ff8200" stroke="#ff8200" points="32.87,-426.63 29.14,-422.87 29.71,-428.14 32.87,-426.63"/>
</a>
</g>
</g>
<!-- s1_league3_game3_07_stac_1368708043 -->
<g id="node5" class="node">
<title>s1_league3_game3_07_stac_1368708043</title>
<g id="a_node5"><a xlink:title="5 &#160;inca &#160;haha, yep">
<ellipse fill="black" stroke="black" cx="42" cy="-394.5" rx="3.5" ry="3.5"/>
</a>
</g>
</g>
<!-- s1_league3_game3_07_stac_1368708037&#45;&gt;s1_league3_game3_07_stac_1368708043 -->
<g id="edge10" class="edge">
<title>s1_league3_game3_07_stac_1368708037&#45;&gt;s1_league3_game3_07_stac_1368708043</title>
<g id="a_edge10"><a xlink:title="Question_answer_pair">
<path fill="none" stroke="#12ffff" d="M39.31,-440.85C39.76,-436.95 40.57,-429.42 41,-423 41.45,-416.28 41.71,-408.62 41.85,-403.09"/>
<polygon fill="#12ffff" stroke="#12ffff" points="43.6,-403.12 41.96,-398.08 40.1,-403.04 43.6,-403.12"/>
</a>
</g>
</g>
<!-- s1_league3_game3_07_stac_1368708040&#45;&gt;s1_league3_game3_07_stac_1368708043 -->
<g id="edge11" class="edge">
<title>s1_league3_game3_07_stac_1368708040&#45;&gt;s1_league3_game3_07_stac_1368708043</title>
<g id="a_edge11"><a xlink:title="Comment">
<path fill="none" stroke="#ff8200" d="M29.5,-416.04C31.49,-412.77 35.08,-406.87 37.9,-402.23"/>
<polygon fill="#ff8200" stroke="#ff8200" points="39.45,-403.06 40.55,-397.87 36.46,-401.24 39.45,-403.06"/>
</a>
</g>
</g>
<!-- s1_league3_game3_07_stac_1368708046 -->
<g id="node6" class="node">
<title>s1_league3_game3_07_stac_1368708046</title>
<g id="a_node6"><a xlink:title="6 &#160;yiin &#160;what do you need">
<ellipse fill="black" stroke="black" cx="33" cy="-369.5" rx="3.5" ry="3.5"/>
</a>
</g>
</g>
<!-- s1_league3_game3_07_stac_1368708043&#45;&gt;s1_league3_game3_07_stac_1368708046 -->
<g id="edge12" class="edge">
<title>s1_league3_game3_07_stac_1368708043&#45;&gt;s1_league3_game3_07_stac_1368708046</title>
<g id="a_edge12"><a xlink:title="Clarification_question">
<path fill="none" stroke="#ff40d1" d="M41.04,-391.04C39.81,-387.91 37.64,-382.37 35.87,-377.83"/>
<polygon fill="#ff40d1" stroke="#ff40d1" points="37.38,-376.89 33.93,-372.87 34.12,-378.17 37.38,-376.89"/>
</a>
</g>
</g>
<!-- s1_league3_game3_07_stac_1368708049 -->
<g id="node7" class="node">
<title>s1_league3_game3_07_stac_1368708049</title>
<g id="a_node7"><a xlink:title="7 &#160;Gaeilgeoir &#160;want some ore for clay, inca?">
<ellipse fill="black" stroke="black" cx="56" cy="-344.5" rx="3.5" ry="3.5"/>
</a>
</g>
</g>
<!-- s1_league3_game3_07_stac_1368708043&#45;&gt;s1_league3_game3_07_stac_1368708049 -->
<g id="edge13" class="edge">
<title>s1_league3_game3_07_stac_1368708043&#45;&gt;s1_league3_game3_07_stac_1368708049</title>
<g id="a_edge13"><a xlink:title="Q_Elab">
<path fill="none" stroke="#0d20ff" d="M42.75,-390.92C44.8,-383.89 50.55,-364.19 53.76,-353.18"/>
<polygon fill="#0d20ff" stroke="#0d20ff" points="55.45,-353.62 55.17,-348.33 52.09,-352.64 55.45,-353.62"/>
</a>
</g>
</g>
<!-- s1_league3_game3_07_stac_1368708046&#45;&gt;s1_league3_game3_07_stac_1368708049 -->
<!-- s1_league3_game3_07_stac_1368708055 -->
<g id="node9" class="node">
<title>s1_league3_game3_07_stac_1368708055</title>
<g id="a_node9"><a xlink:title="9 &#160;inca &#160;do you have sheep yiin?">
<ellipse fill="black" stroke="black" cx="46" cy="-294.5" rx="3.5" ry="3.5"/>
</a>
</g>
</g>
<!-- s1_league3_game3_07_stac_1368708046&#45;&gt;s1_league3_game3_07_stac_1368708055 -->
<g id="edge15" class="edge">
<title>s1_league3_game3_07_stac_1368708046&#45;&gt;s1_league3_game3_07_stac_1368708055</title>
<g id="a_edge15"><a xlink:title="Q_Elab">
<path fill="none" stroke="#0d20ff" d="M33.49,-365.73C35.31,-355.52 41.68,-319.78 44.56,-303.59"/>
<polygon fill="#0d20ff" stroke="#0d20ff" points="46.35,-303.5 45.51,-298.28 42.91,-302.89 46.35,-303.5"/>
</a>
</g>
</g>
<!-- s1_league3_game3_07_stac_1368708052 -->
<g id="node8" class="node">
<title>s1_league3_game3_07_stac_1368708052</title>
<g id="a_node8"><a xlink:title="8 &#160;Gaeilgeoir &#160;:P">
<ellipse fill="black" stroke="black" cx="56" cy="-319.5" rx="3.5" ry="3.5"/>
</a>
</g>
</g>
<!-- s1_league3_game3_07_stac_1368708049&#45;&gt;s1_league3_game3_07_stac_1368708052 -->
<g id="edge14" class="edge">
<title>s1_league3_game3_07_stac_1368708049&#45;&gt;s1_league3_game3_07_stac_1368708052</title>
<g id="a_edge14"><a xlink:title="Comment">
<path fill="none" stroke="#ff8200" d="M56,-340.68C56,-337.58 56,-332.47 56,-328.16"/>
<polygon fill="#ff8200" stroke="#ff8200" points="57.75,-328.06 56,-323.06 54.25,-328.06 57.75,-328.06"/>
</a>
</g>
</g>
<!-- s1_league3_game3_07_stac_1368708052&#45;&gt;s1_league3_game3_07_stac_1368708055 -->
<!-- s1_league3_game3_07_stac_1368708058 -->
<g id="node10" class="node">
<title>s1_league3_game3_07_stac_1368708058</title>
<g id="a_node10"><a xlink:title="10 &#160;Gaeilgeoir &#160;I do!">
<ellipse fill="black" stroke="black" cx="37" cy="-269.5" rx="3.5" ry="3.5"/>
</a>
</g>
</g>
<!-- s1_league3_game3_07_stac_1368708055&#45;&gt;s1_league3_game3_07_stac_1368708058 -->
<g id="edge16" class="edge">
<title>s1_league3_game3_07_stac_1368708055&#45;&gt;s1_league3_game3_07_stac_1368708058</title>
<g id="a_edge16"><a xlink:title="Question_answer_pair">
<path fill="none" stroke="#12ffff" d="M45.04,-291.04C43.81,-287.91 41.64,-282.37 39.87,-277.83"/>
<polygon fill="#12ffff" stroke="#12ffff" points="41.38,-276.89 37.93,-272.87 38.12,-278.17 41.38,-276.89"/>
</a>
</g>
</g>
<!-- s1_league3_game3_07_stac_1368708062 -->
<g id="node11" class="node">
<title>s1_league3_game3_07_stac_1368708062</title>
<g id="a_node11"><a xlink:title="11 &#160;inca &#160;if so">
<ellipse fill="black" stroke="black" cx="49" cy="-244.5" rx="3.5" ry="3.5"/>
</a>
</g>
</g>
<!-- s1_league3_game3_07_stac_1368708055&#45;&gt;s1_league3_game3_07_stac_1368708062 -->
<g id="edge17" class="edge">
<title>s1_league3_game3_07_stac_1368708055&#45;&gt;s1_league3_game3_07_stac_1368708062</title>
<g id="a_edge17"><a xlink:title="Elaboration">
<path fill="none" stroke="#a621c7" d="M46.68,-290.87C47.65,-286.99 49.37,-279.5 50,-273 50.65,-266.3 50.28,-258.63 49.82,-253.1"/>
<polygon fill="#a621c7" stroke="#a621c7" points="51.55,-252.89 49.32,-248.08 48.07,-253.23 51.55,-252.89"/>
</a>
</g>
</g>
<!-- s1_league3_game3_07_stac_1368708058&#45;&gt;s1_league3_game3_07_stac_1368708062 -->
<g id="edge18" class="edge">
<title>s1_league3_game3_07_stac_1368708058&#45;&gt;s1_league3_game3_07_stac_1368708062</title>
<g id="a_edge18"><a xlink:title="Acknowledgement">
<path fill="none" stroke="#12ffff" d="M38.28,-266.04C39.95,-262.84 42.94,-257.12 45.33,-252.53"/>
<polygon fill="#12ffff" stroke="#12ffff" points="47,-253.12 47.76,-247.87 43.9,-251.5 47,-253.12"/>
</a>
</g>
</g>
<!-- s1_league3_game3_07_stac_1368708065 -->
<g id="node12" class="node">
<title>s1_league3_game3_07_stac_1368708065</title>
<g id="a_node12"><a xlink:title="12 &#160;inca &#160;sorry, gaeil offered ore first i guess">
<ellipse fill="black" stroke="black" cx="49" cy="-219.5" rx="3.5" ry="3.5"/>
</a>
</g>
</g>
<!-- s1_league3_game3_07_stac_1368708062&#45;&gt;s1_league3_game3_07_stac_1368708065 -->
<g id="edge19" class="edge">
<title>s1_league3_game3_07_stac_1368708062&#45;&gt;s1_league3_game3_07_stac_1368708065</title>
<g id="a_edge19"><a xlink:title="Explanation">
<path fill="none" stroke="#a62139" d="M49,-240.68C49,-237.58 49,-232.47 49,-228.16"/>
<polygon fill="#a62139" stroke="#a62139" points="50.75,-228.06 49,-223.06 47.25,-228.06 50.75,-228.06"/>
</a>
</g>
</g>
<!-- s1_league3_game3_07_stac_1368708068 -->
<g id="node13" class="node">
<title>s1_league3_game3_07_stac_1368708068</title>
<g id="a_node13"><a xlink:title="13 &#160;Gaeilgeoir &#160;it&#39;s ok">
<ellipse fill="black" stroke="black" cx="39" cy="-194.5" rx="3.5" ry="3.5"/>
</a>
</g>
</g>
<!-- s1_league3_game3_07_stac_1368708065&#45;&gt;s1_league3_game3_07_stac_1368708068 -->
<g id="edge20" class="edge">
<title>s1_league3_game3_07_stac_1368708065&#45;&gt;s1_league3_game3_07_stac_1368708068</title>
<g id="a_edge20"><a xlink:title="Question_answer_pair">
<path fill="none" stroke="#12ffff" d="M47.93,-216.04C46.54,-212.84 44.05,-207.12 42.06,-202.53"/>
<polygon fill="#12ffff" stroke="#12ffff" points="43.63,-201.76 40.03,-197.87 40.42,-203.16 43.63,-201.76"/>
</a>
</g>
</g>
<!-- s1_league3_game3_07_stac_1368708071 -->
<g id="node14" class="node">
<title>s1_league3_game3_07_stac_1368708071</title>
<g id="a_node14"><a xlink:title="14 &#160;inca &#160;got sheep?">
<ellipse fill="black" stroke="black" cx="50" cy="-169.5" rx="3.5" ry="3.5"/>
</a>
</g>
</g>
<!-- s1_league3_game3_07_stac_1368708065&#45;&gt;s1_league3_game3_07_stac_1368708071 -->
<g id="edge21" class="edge">
<title>s1_league3_game3_07_stac_1368708065&#45;&gt;s1_league3_game3_07_stac_1368708071</title>
<g id="a_edge21"><a xlink:title="Continuation">
<path fill="none" stroke="#10491b" d="M49.51,-215.86C50.24,-211.97 51.53,-204.46 52,-198 52.49,-191.27 51.83,-183.61 51.14,-178.09"/>
<polygon fill="#10491b" stroke="#10491b" points="52.87,-177.78 50.44,-173.08 49.4,-178.27 52.87,-177.78"/>
</a>
</g>
</g>
<!-- s1_league3_game3_07_stac_1368708068&#45;&gt;s1_league3_game3_07_stac_1368708071 -->
<!-- s1_league3_game3_07_stac_1368708074 -->
<g id="node15" class="node">
<title>s1_league3_game3_07_stac_1368708074</title>
<g id="a_node15"><a xlink:title="15 &#160;Gaeilgeoir &#160;I have sheep too">
<ellipse fill="black" stroke="black" cx="40" cy="-144.5" rx="3.5" ry="3.5"/>
</a>
</g>
</g>
<!-- s1_league3_game3_07_stac_1368708071&#45;&gt;s1_league3_game3_07_stac_1368708074 -->
<g id="edge22" class="edge">
<title>s1_league3_game3_07_stac_1368708071&#45;&gt;s1_league3_game3_07_stac_1368708074</title>
<g id="a_edge22"><a xlink:title="Question_answer_pair">
<path fill="none" stroke="#12ffff" d="M48.93,-166.04C47.54,-162.84 45.05,-157.12 43.06,-152.53"/>
<polygon fill="#12ffff" stroke="#12ffff" points="44.63,-151.76 41.03,-147.87 41.42,-153.16 44.63,-151.76"/>
</a>
</g>
</g>
<!-- s1_league3_game3_07_stac_1368708080 -->
<g id="node17" class="node">
<title>s1_league3_game3_07_stac_1368708080</title>
<g id="a_node17"><a xlink:title="17 &#160;yiin &#160;i got sheep">
<ellipse fill="black" stroke="black" cx="40" cy="-94.5" rx="3.5" ry="3.5"/>
</a>
</g>
</g>
<!-- s1_league3_game3_07_stac_1368708071&#45;&gt;s1_league3_game3_07_stac_1368708080 -->
<g id="edge24" class="edge">
<title>s1_league3_game3_07_stac_1368708071&#45;&gt;s1_league3_game3_07_stac_1368708080</title>
<g id="a_edge24"><a xlink:title="Question_answer_pair">
<path fill="none" stroke="#12ffff" d="M50.71,-166.03C52.8,-158.39 58.4,-134.59 53,-116 51.48,-110.76 48.18,-105.58 45.28,-101.74"/>
<polygon fill="#12ffff" stroke="#12ffff" points="46.5,-100.47 41.99,-97.69 43.78,-102.67 46.5,-100.47"/>
</a>
</g>
</g>
<!-- s1_league3_game3_07_stac_1368708077 -->
<g id="node16" class="node">
<title>s1_league3_game3_07_stac_1368708077</title>
<g id="a_node16"><a xlink:title="16 &#160;Gaeilgeoir &#160;take his trade">
<ellipse fill="black" stroke="black" cx="40" cy="-119.5" rx="3.5" ry="3.5"/>
</a>
</g>
</g>
<!-- s1_league3_game3_07_stac_1368708074&#45;&gt;s1_league3_game3_07_stac_1368708077 -->
<g id="edge23" class="edge">
<title>s1_league3_game3_07_stac_1368708074&#45;&gt;s1_league3_game3_07_stac_1368708077</title>
<g id="a_edge23"><a xlink:title="Continuation">
<path fill="none" stroke="#10491b" d="M40,-140.68C40,-137.58 40,-132.47 40,-128.16"/>
<polygon fill="#10491b" stroke="#10491b" points="41.75,-128.06 40,-123.06 38.25,-128.06 41.75,-128.06"/>
</a>
</g>
</g>
<!-- s1_league3_game3_07_stac_1368708083 -->
<g id="node18" class="node">
<title>s1_league3_game3_07_stac_1368708083</title>
<g id="a_node18"><a xlink:title="18 &#160;inca &#160;ok, i&#39;ll trade with you for sheep briain">
<ellipse fill="black" stroke="black" cx="30" cy="-69.5" rx="3.5" ry="3.5"/>
</a>
</g>
</g>
<!-- s1_league3_game3_07_stac_1368708074&#45;&gt;s1_league3_game3_07_stac_1368708083 -->
<g id="edge25" class="edge">
<title>s1_league3_game3_07_stac_1368708074&#45;&gt;s1_league3_game3_07_stac_1368708083</title>
<g id="a_edge25"><a xlink:title="Acknowledgement">
<path fill="none" stroke="#12ffff" d="M38.16,-141.29C35.32,-137.71 29.99,-130.32 28,-123 23.77,-107.4 26.35,-88.24 28.35,-77.92"/>
<polygon fill="#12ffff" stroke="#12ffff" points="30.07,-78.22 29.39,-72.97 26.65,-77.5 30.07,-78.22"/>
</a>
</g>
</g>
<!-- s1_league3_game3_07_stac_1368708077&#45;&gt;s1_league3_game3_07_stac_1368708080 -->
<!-- s1_league3_game3_07_stac_1368708080&#45;&gt;s1_league3_game3_07_stac_1368708083 -->
<!-- s1_league3_game3_07_stac_1368708086 -->
<g id="node19" class="node">
<title>s1_league3_game3_07_stac_1368708086</title>
<g id="a_node19"><a xlink:title="19 &#160;inca &#160;cheers">
<ellipse fill="black" stroke="black" cx="20" cy="-44.5" rx="3.5" ry="3.5"/>
</a>
</g>
</g>
<!-- s1_league3_game3_07_stac_1368708083&#45;&gt;s1_league3_game3_07_stac_1368708086 -->
<g id="edge26" class="edge">
<title>s1_league3_game3_07_stac_1368708083&#45;&gt;s1_league3_game3_07_stac_1368708086</title>
<g id="a_edge26"><a xlink:title="Comment">
<path fill="none" stroke="#ff8200" d="M28.93,-66.04C27.54,-62.84 25.05,-57.12 23.06,-52.53"/>
<polygon fill="#ff8200" stroke="#ff8200" points="24.63,-51.76 21.03,-47.87 21.42,-53.16 24.63,-51.76"/>
</a>
</g>
</g>
<!-- s1_league3_game3_07_stac_1368708090 -->
<g id="node20" class="node">
<title>s1_league3_game3_07_stac_1368708090</title>
<g id="a_node20"><a xlink:title="20 &#160;Gaeilgeoir &#160;cheers">
<ellipse fill="black" stroke="black" cx="31" cy="-19.5" rx="3.5" ry="3.5"/>
</a>
</g>
</g>
<!-- s1_league3_game3_07_stac_1368708083&#45;&gt;s1_league3_game3_07_stac_1368708090 -->
<g id="edge27" class="edge">
<title>s1_league3_game3_07_stac_1368708083&#45;&gt;s1_league3_game3_07_stac_1368708090</title>
<g id="a_edge27"><a xlink:title="Acknowledgement">
<path fill="none" stroke="#12ffff" d="M30.51,-65.86C31.24,-61.97 32.53,-54.46 33,-48 33.49,-41.27 32.83,-33.61 32.14,-28.09"/>
<polygon fill="#12ffff" stroke="#12ffff" points="33.87,-27.78 31.44,-23.08 30.4,-28.27 33.87,-27.78"/>
</a>
</g>
</g>
<!-- s1_league3_game3_07_stac_1368708086&#45;&gt;s1_league3_game3_07_stac_1368708090 -->
</g>
</svg>
