<?xml version="1.0" encoding="UTF-8" standalone="no"?>
<!DOCTYPE svg PUBLIC "-//W3C//DTD SVG 1.1//EN"
 "http://www.w3.org/Graphics/SVG/1.1/DTD/svg11.dtd">
<!-- Generated by graphviz version 3.0.0 (20220226.1711)
 -->
<!-- Title: 7_s1_league3_game3_561 Pages: 1 -->
<svg width="114pt" height="195pt"
 viewBox="0.00 0.00 114.00 195.00" xmlns="http://www.w3.org/2000/svg" xmlns:xlink="http://www.w3.org/1999/xlink">
<g id="graph0" class="graph" transform="scale(1 1) rotate(0) translate(4 191)">
<title>7_s1_league3_game3_561</title>
<polygon fill="white" stroke="transparent" points="-4,4 -4,-191 110,-191 110,4 -4,4"/>
<g id="clust1" class="cluster">
<title>cluster_7_s1_league3_game3_561</title>
<polygon fill="none" stroke="black" points="8,-8 8,-179 98,-179 98,-8 8,-8"/>
<text text-anchor="middle" x="26.5" y="-163.8" font-family="Times,serif" font-size="14.00">561</text>
</g>
<!-- s1_league3_game3_07_stac_1368708094 -->
<g id="node1" class="node">
<title>s1_league3_game3_07_stac_1368708094</title>
<g id="a_node1"><a xlink:title="1 &#160;nareik15 &#160;Anyone have wheat to trade?">
<ellipse fill="black" stroke="black" cx="40" cy="-144.5" rx="3.5" ry="3.5"/>
</a>
</g>
</g>
<!-- 1_0 -->
<!-- s1_league3_game3_07_stac_1368708094&#45;&gt;1_0 -->
<!-- s1_league3_game3_07_stac_1368708101 -->
<g id="node3" class="node">
<title>s1_league3_game3_07_stac_1368708101</title>
<g id="a_node3"><a xlink:title="3 &#160;yiin &#160;no sry">
<ellipse fill="black" stroke="black" cx="40" cy="-94.5" rx="3.5" ry="3.5"/>
</a>
</g>
</g>
<!-- s1_league3_game3_07_stac_1368708094&#45;&gt;s1_league3_game3_07_stac_1368708101 -->
<g id="edge10" class="edge">
<title>s1_league3_game3_07_stac_1368708094&#45;&gt;s1_league3_game3_07_stac_1368708101</title>
<g id="a_edge10"><a xlink:title="Question_answer_pair">
<path fill="none" stroke="#12ffff" d="M41.99,-141.31C45.07,-137.78 50.84,-130.45 53,-123 55.3,-115.08 49.95,-106.58 45.43,-101.16"/>
<polygon fill="#12ffff" stroke="#12ffff" points="46.68,-99.93 42.02,-97.42 44.09,-102.29 46.68,-99.93"/>
</a>
</g>
</g>
<!-- s1_league3_game3_07_stac_1368708104 -->
<g id="node5" class="node">
<title>s1_league3_game3_07_stac_1368708104</title>
<g id="a_node5"><a xlink:title="4 &#160;inca &#160;do you have wood?">
<ellipse fill="black" stroke="black" cx="30" cy="-69.5" rx="3.5" ry="3.5"/>
</a>
</g>
</g>
<!-- s1_league3_game3_07_stac_1368708094&#45;&gt;s1_league3_game3_07_stac_1368708104 -->
<g id="edge11" class="edge">
<title>s1_league3_game3_07_stac_1368708094&#45;&gt;s1_league3_game3_07_stac_1368708104</title>
<g id="a_edge11"><a xlink:title="Q_Elab">
<path fill="none" stroke="#0d20ff" d="M38.16,-141.29C35.32,-137.71 29.99,-130.32 28,-123 23.77,-107.4 26.35,-88.24 28.35,-77.92"/>
<polygon fill="#0d20ff" stroke="#0d20ff" points="30.07,-78.22 29.39,-72.97 26.65,-77.5 30.07,-78.22"/>
</a>
</g>
</g>
<!-- s1_league3_game3_07_stac_1368708097 -->
<g id="node11" class="node">
<title>s1_league3_game3_07_stac_1368708097</title>
<g id="a_node11"><a xlink:title="2 &#160;Gaeilgeoir &#160;not a bit,">
<ellipse fill="black" stroke="black" cx="40" cy="-119.5" rx="3.5" ry="3.5"/>
</a>
</g>
</g>
<!-- s1_league3_game3_07_stac_1368708094&#45;&gt;s1_league3_game3_07_stac_1368708097 -->
<g id="edge8" class="edge">
<title>s1_league3_game3_07_stac_1368708094&#45;&gt;s1_league3_game3_07_stac_1368708097</title>
<g id="a_edge8"><a xlink:title="Question_answer_pair">
<path fill="none" stroke="#12ffff" d="M40,-140.68C40,-137.58 40,-132.47 40,-128.16"/>
<polygon fill="#12ffff" stroke="#12ffff" points="41.75,-128.06 40,-123.06 38.25,-128.06 41.75,-128.06"/>
</a>
</g>
</g>
<!-- 3_0 -->
<!-- s1_league3_game3_07_stac_1368708101&#45;&gt;3_0 -->
<!-- s1_league3_game3_07_stac_1368708101&#45;&gt;s1_league3_game3_07_stac_1368708104 -->
<!-- 4_0 -->
<!-- s1_league3_game3_07_stac_1368708104&#45;&gt;4_0 -->
<!-- s1_league3_game3_07_stac_1368708107 -->
<g id="node7" class="node">
<title>s1_league3_game3_07_stac_1368708107</title>
<g id="a_node7"><a xlink:title="5 &#160;nareik15 &#160;yep">
<ellipse fill="black" stroke="black" cx="30" cy="-44.5" rx="3.5" ry="3.5"/>
</a>
</g>
</g>
<!-- s1_league3_game3_07_stac_1368708104&#45;&gt;s1_league3_game3_07_stac_1368708107 -->
<g id="edge12" class="edge">
<title>s1_league3_game3_07_stac_1368708104&#45;&gt;s1_league3_game3_07_stac_1368708107</title>
<g id="a_edge12"><a xlink:title="Question_answer_pair">
<path fill="none" stroke="#12ffff" d="M30,-65.68C30,-62.58 30,-57.47 30,-53.16"/>
<polygon fill="#12ffff" stroke="#12ffff" points="31.75,-53.06 30,-48.06 28.25,-53.06 31.75,-53.06"/>
</a>
</g>
</g>
<!-- 5_0 -->
<!-- s1_league3_game3_07_stac_1368708107&#45;&gt;5_0 -->
<!-- s1_league3_game3_07_stac_1368708110 -->
<g id="node9" class="node">
<title>s1_league3_game3_07_stac_1368708110</title>
<g id="a_node9"><a xlink:title="6 &#160;inca &#160;cheers">
<ellipse fill="black" stroke="black" cx="30" cy="-19.5" rx="3.5" ry="3.5"/>
</a>
</g>
</g>
<!-- s1_league3_game3_07_stac_1368708107&#45;&gt;s1_league3_game3_07_stac_1368708110 -->
<g id="edge13" class="edge">
<title>s1_league3_game3_07_stac_1368708107&#45;&gt;s1_league3_game3_07_stac_1368708110</title>
<g id="a_edge13"><a xlink:title="Acknowledgement">
<path fill="none" stroke="#12ffff" d="M30,-40.68C30,-37.58 30,-32.47 30,-28.16"/>
<polygon fill="#12ffff" stroke="#12ffff" points="31.75,-28.06 30,-23.06 28.25,-28.06 31.75,-28.06"/>
</a>
</g>
</g>
<!-- 6_0 -->
<!-- s1_league3_game3_07_stac_1368708110&#45;&gt;6_0 -->
<!-- s1_league3_game3_07_stac_1368708097&#45;&gt;s1_league3_game3_07_stac_1368708101 -->
<!-- s1_league3_game3_07_stac_1368708098 -->
<g id="node12" class="node">
<title>s1_league3_game3_07_stac_1368708098</title>
<g id="a_node12"><a xlink:title="2 &#160;Gaeilgeoir &#160;sorry">
<ellipse fill="black" stroke="black" cx="86" cy="-119.5" rx="3.5" ry="3.5"/>
</a>
</g>
</g>
<!-- s1_league3_game3_07_stac_1368708097&#45;&gt;s1_league3_game3_07_stac_1368708098 -->
<g id="edge9" class="edge">
<title>s1_league3_game3_07_stac_1368708097&#45;&gt;s1_league3_game3_07_stac_1368708098</title>
<g id="a_edge9"><a xlink:title="Comment">
<path fill="none" stroke="#ff8200" d="M43.59,-119.5C54.8,-119.5 66,-119.5 77.21,-119.5"/>
<polygon fill="#ff8200" stroke="#ff8200" points="77.36,-121.25 82.36,-119.5 77.36,-117.75 77.36,-121.25"/>
</a>
</g>
</g>
</g>
</svg>
