<?xml version="1.0" encoding="UTF-8" standalone="no"?>
<!DOCTYPE svg PUBLIC "-//W3C//DTD SVG 1.1//EN"
 "http://www.w3.org/Graphics/SVG/1.1/DTD/svg11.dtd">
<!-- Generated by graphviz version 3.0.0 (20220226.1711)
 -->
<!-- Title: 8_s1_league3_game3_563 Pages: 1 -->
<svg width="68pt" height="270pt"
 viewBox="0.00 0.00 68.00 270.00" xmlns="http://www.w3.org/2000/svg" xmlns:xlink="http://www.w3.org/1999/xlink">
<g id="graph0" class="graph" transform="scale(1 1) rotate(0) translate(4 266)">
<title>8_s1_league3_game3_563</title>
<polygon fill="white" stroke="transparent" points="-4,4 -4,-266 64,-266 64,4 -4,4"/>
<g id="clust1" class="cluster">
<title>cluster_8_s1_league3_game3_563</title>
<polygon fill="none" stroke="black" points="8,-8 8,-254 52,-254 52,-8 8,-8"/>
<text text-anchor="middle" x="26.5" y="-238.8" font-family="Times,serif" font-size="14.00">563</text>
</g>
<!-- s1_league3_game3_08_stac_1368708032 -->
<g id="node1" class="node">
<title>s1_league3_game3_08_stac_1368708032</title>
<g id="a_node1"><a xlink:title="1 &#160;Gaeilgeoir &#160;3 MORE clay">
<ellipse fill="black" stroke="black" cx="30" cy="-219.5" rx="3.5" ry="3.5"/>
</a>
</g>
</g>
<!-- s1_league3_game3_08_stac_1368708035 -->
<g id="node2" class="node">
<title>s1_league3_game3_08_stac_1368708035</title>
<g id="a_node2"><a xlink:title="2 &#160;yiin &#160;anyone got clay??">
<ellipse fill="black" stroke="black" cx="30" cy="-194.5" rx="3.5" ry="3.5"/>
</a>
</g>
</g>
<!-- s1_league3_game3_08_stac_1368708032&#45;&gt;s1_league3_game3_08_stac_1368708035 -->
<g id="edge3" class="edge">
<title>s1_league3_game3_08_stac_1368708032&#45;&gt;s1_league3_game3_08_stac_1368708035</title>
<g id="a_edge3"><a xlink:title="Continuation">
<path fill="none" stroke="#10491b" d="M30,-215.68C30,-212.58 30,-207.47 30,-203.16"/>
<polygon fill="#10491b" stroke="#10491b" points="31.75,-203.06 30,-198.06 28.25,-203.06 31.75,-203.06"/>
</a>
</g>
</g>
<!-- s1_league3_game3_08_stac_1368708038 -->
<g id="node3" class="node">
<title>s1_league3_game3_08_stac_1368708038</title>
<g id="a_node3"><a xlink:title="3 &#160;Gaeilgeoir &#160;our peruvian friend">
<ellipse fill="black" stroke="black" cx="30" cy="-169.5" rx="3.5" ry="3.5"/>
</a>
</g>
</g>
<!-- s1_league3_game3_08_stac_1368708035&#45;&gt;s1_league3_game3_08_stac_1368708038 -->
<g id="edge4" class="edge">
<title>s1_league3_game3_08_stac_1368708035&#45;&gt;s1_league3_game3_08_stac_1368708038</title>
<g id="a_edge4"><a xlink:title="Comment">
<path fill="none" stroke="#ff8200" d="M30,-190.68C30,-187.58 30,-182.47 30,-178.16"/>
<polygon fill="#ff8200" stroke="#ff8200" points="31.75,-178.06 30,-173.06 28.25,-178.06 31.75,-178.06"/>
</a>
</g>
</g>
<!-- s1_league3_game3_08_stac_1368708041 -->
<g id="node4" class="node">
<title>s1_league3_game3_08_stac_1368708041</title>
<g id="a_node4"><a xlink:title="4 &#160;inca &#160;haha">
<ellipse fill="black" stroke="black" cx="30" cy="-144.5" rx="3.5" ry="3.5"/>
</a>
</g>
</g>
<!-- s1_league3_game3_08_stac_1368708038&#45;&gt;s1_league3_game3_08_stac_1368708041 -->
<g id="edge5" class="edge">
<title>s1_league3_game3_08_stac_1368708038&#45;&gt;s1_league3_game3_08_stac_1368708041</title>
<g id="a_edge5"><a xlink:title="Comment">
<path fill="none" stroke="#ff8200" d="M30,-165.68C30,-162.58 30,-157.47 30,-153.16"/>
<polygon fill="#ff8200" stroke="#ff8200" points="31.75,-153.06 30,-148.06 28.25,-153.06 31.75,-153.06"/>
</a>
</g>
</g>
<!-- s1_league3_game3_08_stac_1368708044 -->
<g id="node5" class="node">
<title>s1_league3_game3_08_stac_1368708044</title>
<g id="a_node5"><a xlink:title="5 &#160;yiin &#160;what do you need">
<ellipse fill="black" stroke="black" cx="20" cy="-119.5" rx="3.5" ry="3.5"/>
</a>
</g>
</g>
<!-- s1_league3_game3_08_stac_1368708041&#45;&gt;s1_league3_game3_08_stac_1368708044 -->
<g id="edge6" class="edge">
<title>s1_league3_game3_08_stac_1368708041&#45;&gt;s1_league3_game3_08_stac_1368708044</title>
<g id="a_edge6"><a xlink:title="Clarification_question">
<path fill="none" stroke="#ff40d1" d="M28.93,-141.04C27.54,-137.84 25.05,-132.12 23.06,-127.53"/>
<polygon fill="#ff40d1" stroke="#ff40d1" points="24.63,-126.76 21.03,-122.87 21.42,-128.16 24.63,-126.76"/>
</a>
</g>
</g>
<!-- s1_league3_game3_08_stac_1368708047 -->
<g id="node6" class="node">
<title>s1_league3_game3_08_stac_1368708047</title>
<g id="a_node6"><a xlink:title="6 &#160;inca &#160;yeah i&#39;ve got &#160;a little bit of clay">
<ellipse fill="black" stroke="black" cx="40" cy="-94.5" rx="3.5" ry="3.5"/>
</a>
</g>
</g>
<!-- s1_league3_game3_08_stac_1368708041&#45;&gt;s1_league3_game3_08_stac_1368708047 -->
<g id="edge7" class="edge">
<title>s1_league3_game3_08_stac_1368708041&#45;&gt;s1_league3_game3_08_stac_1368708047</title>
<g id="a_edge7"><a xlink:title="Elaboration">
<path fill="none" stroke="#a621c7" d="M30.54,-140.92C31.99,-133.95 36.03,-114.55 38.34,-103.49"/>
<polygon fill="#a621c7" stroke="#a621c7" points="40.1,-103.58 39.41,-98.33 36.68,-102.87 40.1,-103.58"/>
</a>
</g>
</g>
<!-- s1_league3_game3_08_stac_1368708044&#45;&gt;s1_league3_game3_08_stac_1368708047 -->
<!-- s1_league3_game3_08_stac_1368708050 -->
<g id="node7" class="node">
<title>s1_league3_game3_08_stac_1368708050</title>
<g id="a_node7"><a xlink:title="7 &#160;inca &#160;got sheep?">
<ellipse fill="black" stroke="black" cx="30" cy="-69.5" rx="3.5" ry="3.5"/>
</a>
</g>
</g>
<!-- s1_league3_game3_08_stac_1368708044&#45;&gt;s1_league3_game3_08_stac_1368708050 -->
<g id="edge8" class="edge">
<title>s1_league3_game3_08_stac_1368708044&#45;&gt;s1_league3_game3_08_stac_1368708050</title>
<g id="a_edge8"><a xlink:title="Q_Elab">
<path fill="none" stroke="#0d20ff" d="M20.54,-115.92C21.99,-108.95 26.03,-89.55 28.34,-78.49"/>
<polygon fill="#0d20ff" stroke="#0d20ff" points="30.1,-78.58 29.41,-73.33 26.68,-77.87 30.1,-78.58"/>
</a>
</g>
</g>
<!-- s1_league3_game3_08_stac_1368708047&#45;&gt;s1_league3_game3_08_stac_1368708050 -->
<!-- s1_league3_game3_08_stac_1368708053 -->
<g id="node8" class="node">
<title>s1_league3_game3_08_stac_1368708053</title>
<g id="a_node8"><a xlink:title="8 &#160;yiin &#160;yes plenty of it">
<ellipse fill="black" stroke="black" cx="30" cy="-44.5" rx="3.5" ry="3.5"/>
</a>
</g>
</g>
<!-- s1_league3_game3_08_stac_1368708050&#45;&gt;s1_league3_game3_08_stac_1368708053 -->
<g id="edge9" class="edge">
<title>s1_league3_game3_08_stac_1368708050&#45;&gt;s1_league3_game3_08_stac_1368708053</title>
<g id="a_edge9"><a xlink:title="Question_answer_pair">
<path fill="none" stroke="#12ffff" d="M30,-65.68C30,-62.58 30,-57.47 30,-53.16"/>
<polygon fill="#12ffff" stroke="#12ffff" points="31.75,-53.06 30,-48.06 28.25,-53.06 31.75,-53.06"/>
</a>
</g>
</g>
<!-- s1_league3_game3_08_stac_1368708056 -->
<g id="node9" class="node">
<title>s1_league3_game3_08_stac_1368708056</title>
<g id="a_node9"><a xlink:title="9 &#160;inca &#160;cheers">
<ellipse fill="black" stroke="black" cx="30" cy="-19.5" rx="3.5" ry="3.5"/>
</a>
</g>
</g>
<!-- s1_league3_game3_08_stac_1368708053&#45;&gt;s1_league3_game3_08_stac_1368708056 -->
<g id="edge10" class="edge">
<title>s1_league3_game3_08_stac_1368708053&#45;&gt;s1_league3_game3_08_stac_1368708056</title>
<g id="a_edge10"><a xlink:title="Acknowledgement">
<path fill="none" stroke="#12ffff" d="M30,-40.68C30,-37.58 30,-32.47 30,-28.16"/>
<polygon fill="#12ffff" stroke="#12ffff" points="31.75,-28.06 30,-23.06 28.25,-28.06 31.75,-28.06"/>
</a>
</g>
</g>
</g>
</svg>
