<?xml version="1.0" encoding="UTF-8" standalone="no"?>
<!DOCTYPE svg PUBLIC "-//W3C//DTD SVG 1.1//EN"
 "http://www.w3.org/Graphics/SVG/1.1/DTD/svg11.dtd">
<!-- Generated by graphviz version 3.0.0 (20220226.1711)
 -->
<!-- Title: 9_s1_league3_game3_565 Pages: 1 -->
<svg width="68pt" height="270pt"
 viewBox="0.00 0.00 68.00 270.00" xmlns="http://www.w3.org/2000/svg" xmlns:xlink="http://www.w3.org/1999/xlink">
<g id="graph0" class="graph" transform="scale(1 1) rotate(0) translate(4 266)">
<title>9_s1_league3_game3_565</title>
<polygon fill="white" stroke="transparent" points="-4,4 -4,-266 64,-266 64,4 -4,4"/>
<g id="clust1" class="cluster">
<title>cluster_9_s1_league3_game3_565</title>
<polygon fill="none" stroke="black" points="8,-8 8,-254 52,-254 52,-8 8,-8"/>
<text text-anchor="middle" x="26.5" y="-238.8" font-family="Times,serif" font-size="14.00">565</text>
</g>
<!-- s1_league3_game3_09_stac_1368708032 -->
<g id="node1" class="node">
<title>s1_league3_game3_09_stac_1368708032</title>
<g id="a_node1"><a xlink:title="1 &#160;inca &#160;anyone got any wood? i can give clay or wheat">
<ellipse fill="black" stroke="black" cx="30" cy="-219.5" rx="3.5" ry="3.5"/>
</a>
</g>
</g>
<!-- s1_league3_game3_09_stac_1368708035 -->
<g id="node2" class="node">
<title>s1_league3_game3_09_stac_1368708035</title>
<g id="a_node2"><a xlink:title="2 &#160;nareik15 &#160;yep plenty">
<ellipse fill="black" stroke="black" cx="20" cy="-194.5" rx="3.5" ry="3.5"/>
</a>
</g>
</g>
<!-- s1_league3_game3_09_stac_1368708032&#45;&gt;s1_league3_game3_09_stac_1368708035 -->
<g id="edge5" class="edge">
<title>s1_league3_game3_09_stac_1368708032&#45;&gt;s1_league3_game3_09_stac_1368708035</title>
<g id="a_edge5"><a xlink:title="Question_answer_pair">
<path fill="none" stroke="#12ffff" d="M28.93,-216.04C27.54,-212.84 25.05,-207.12 23.06,-202.53"/>
<polygon fill="#12ffff" stroke="#12ffff" points="24.63,-201.76 21.03,-197.87 21.42,-203.16 24.63,-201.76"/>
</a>
</g>
</g>
<!-- s1_league3_game3_09_stac_1368708038 -->
<g id="node3" class="node">
<title>s1_league3_game3_09_stac_1368708038</title>
<g id="a_node3"><a xlink:title="3 &#160;yiin &#160;i got wood">
<ellipse fill="black" stroke="black" cx="40" cy="-169.5" rx="3.5" ry="3.5"/>
</a>
</g>
</g>
<!-- s1_league3_game3_09_stac_1368708032&#45;&gt;s1_league3_game3_09_stac_1368708038 -->
<g id="edge6" class="edge">
<title>s1_league3_game3_09_stac_1368708032&#45;&gt;s1_league3_game3_09_stac_1368708038</title>
<g id="a_edge6"><a xlink:title="Question_answer_pair">
<path fill="none" stroke="#12ffff" d="M30.54,-215.92C31.99,-208.95 36.03,-189.55 38.34,-178.49"/>
<polygon fill="#12ffff" stroke="#12ffff" points="40.1,-178.58 39.41,-173.33 36.68,-177.87 40.1,-178.58"/>
</a>
</g>
</g>
<!-- s1_league3_game3_09_stac_1368708035&#45;&gt;s1_league3_game3_09_stac_1368708038 -->
<!-- s1_league3_game3_09_stac_1368708041 -->
<g id="node4" class="node">
<title>s1_league3_game3_09_stac_1368708041</title>
<g id="a_node4"><a xlink:title="4 &#160;inca &#160;would you prefer clay or wheat kieran?">
<ellipse fill="black" stroke="black" cx="30" cy="-144.5" rx="3.5" ry="3.5"/>
</a>
</g>
</g>
<!-- s1_league3_game3_09_stac_1368708035&#45;&gt;s1_league3_game3_09_stac_1368708041 -->
<g id="edge7" class="edge">
<title>s1_league3_game3_09_stac_1368708035&#45;&gt;s1_league3_game3_09_stac_1368708041</title>
<g id="a_edge7"><a xlink:title="Q_Elab">
<path fill="none" stroke="#0d20ff" d="M20.54,-190.92C21.99,-183.95 26.03,-164.55 28.34,-153.49"/>
<polygon fill="#0d20ff" stroke="#0d20ff" points="30.1,-153.58 29.41,-148.33 26.68,-152.87 30.1,-153.58"/>
</a>
</g>
</g>
<!-- s1_league3_game3_09_stac_1368708038&#45;&gt;s1_league3_game3_09_stac_1368708041 -->
<!-- s1_league3_game3_09_stac_1368708044 -->
<g id="node5" class="node">
<title>s1_league3_game3_09_stac_1368708044</title>
<g id="a_node5"><a xlink:title="5 &#160;nareik15 &#160;can give you 2 wood for one of each">
<ellipse fill="black" stroke="black" cx="20" cy="-119.5" rx="3.5" ry="3.5"/>
</a>
</g>
</g>
<!-- s1_league3_game3_09_stac_1368708041&#45;&gt;s1_league3_game3_09_stac_1368708044 -->
<g id="edge8" class="edge">
<title>s1_league3_game3_09_stac_1368708041&#45;&gt;s1_league3_game3_09_stac_1368708044</title>
<g id="a_edge8"><a xlink:title="Question_answer_pair">
<path fill="none" stroke="#12ffff" d="M28.93,-141.04C27.54,-137.84 25.05,-132.12 23.06,-127.53"/>
<polygon fill="#12ffff" stroke="#12ffff" points="24.63,-126.76 21.03,-122.87 21.42,-128.16 24.63,-126.76"/>
</a>
</g>
</g>
<!-- s1_league3_game3_09_stac_1368708047 -->
<g id="node6" class="node">
<title>s1_league3_game3_09_stac_1368708047</title>
<g id="a_node6"><a xlink:title="6 &#160;yiin &#160;clay">
<ellipse fill="black" stroke="black" cx="40" cy="-94.5" rx="3.5" ry="3.5"/>
</a>
</g>
</g>
<!-- s1_league3_game3_09_stac_1368708041&#45;&gt;s1_league3_game3_09_stac_1368708047 -->
<g id="edge9" class="edge">
<title>s1_league3_game3_09_stac_1368708041&#45;&gt;s1_league3_game3_09_stac_1368708047</title>
<g id="a_edge9"><a xlink:title="Question_answer_pair">
<path fill="none" stroke="#12ffff" d="M30.54,-140.92C31.99,-133.95 36.03,-114.55 38.34,-103.49"/>
<polygon fill="#12ffff" stroke="#12ffff" points="40.1,-103.58 39.41,-98.33 36.68,-102.87 40.1,-103.58"/>
</a>
</g>
</g>
<!-- s1_league3_game3_09_stac_1368708044&#45;&gt;s1_league3_game3_09_stac_1368708047 -->
<!-- s1_league3_game3_09_stac_1368708050 -->
<g id="node7" class="node">
<title>s1_league3_game3_09_stac_1368708050</title>
<g id="a_node7"><a xlink:title="7 &#160;inca &#160;deal kieran">
<ellipse fill="black" stroke="black" cx="20" cy="-69.5" rx="3.5" ry="3.5"/>
</a>
</g>
</g>
<!-- s1_league3_game3_09_stac_1368708044&#45;&gt;s1_league3_game3_09_stac_1368708050 -->
<g id="edge10" class="edge">
<title>s1_league3_game3_09_stac_1368708044&#45;&gt;s1_league3_game3_09_stac_1368708050</title>
<g id="a_edge10"><a xlink:title="Question_answer_pair">
<path fill="none" stroke="#12ffff" d="M20,-115.92C20,-108.95 20,-89.55 20,-78.49"/>
<polygon fill="#12ffff" stroke="#12ffff" points="21.75,-78.33 20,-73.33 18.25,-78.33 21.75,-78.33"/>
</a>
</g>
</g>
<!-- s1_league3_game3_09_stac_1368708047&#45;&gt;s1_league3_game3_09_stac_1368708050 -->
<!-- s1_league3_game3_09_stac_1368708053 -->
<g id="node8" class="node">
<title>s1_league3_game3_09_stac_1368708053</title>
<g id="a_node8"><a xlink:title="8 &#160;inca &#160;sorry yin">
<ellipse fill="black" stroke="black" cx="30" cy="-44.5" rx="3.5" ry="3.5"/>
</a>
</g>
</g>
<!-- s1_league3_game3_09_stac_1368708047&#45;&gt;s1_league3_game3_09_stac_1368708053 -->
<g id="edge11" class="edge">
<title>s1_league3_game3_09_stac_1368708047&#45;&gt;s1_league3_game3_09_stac_1368708053</title>
<g id="a_edge11"><a xlink:title="Comment">
<path fill="none" stroke="#ff8200" d="M39.46,-90.92C38.01,-83.95 33.97,-64.55 31.66,-53.49"/>
<polygon fill="#ff8200" stroke="#ff8200" points="33.32,-52.87 30.59,-48.33 29.9,-53.58 33.32,-52.87"/>
</a>
</g>
</g>
<!-- s1_league3_game3_09_stac_1368708050&#45;&gt;s1_league3_game3_09_stac_1368708053 -->
<g id="edge12" class="edge">
<title>s1_league3_game3_09_stac_1368708050&#45;&gt;s1_league3_game3_09_stac_1368708053</title>
<g id="a_edge12"><a xlink:title="Comment">
<path fill="none" stroke="#ff8200" d="M21.07,-66.04C22.46,-62.84 24.95,-57.12 26.94,-52.53"/>
<polygon fill="#ff8200" stroke="#ff8200" points="28.58,-53.16 28.97,-47.87 25.37,-51.76 28.58,-53.16"/>
</a>
</g>
</g>
<!-- s1_league3_game3_09_stac_1368708056 -->
<g id="node9" class="node">
<title>s1_league3_game3_09_stac_1368708056</title>
<g id="a_node9"><a xlink:title="9 &#160;yiin &#160;no problem">
<ellipse fill="black" stroke="black" cx="30" cy="-19.5" rx="3.5" ry="3.5"/>
</a>
</g>
</g>
<!-- s1_league3_game3_09_stac_1368708053&#45;&gt;s1_league3_game3_09_stac_1368708056 -->
<g id="edge13" class="edge">
<title>s1_league3_game3_09_stac_1368708053&#45;&gt;s1_league3_game3_09_stac_1368708056</title>
<g id="a_edge13"><a xlink:title="Comment">
<path fill="none" stroke="#ff8200" d="M30,-40.68C30,-37.58 30,-32.47 30,-28.16"/>
<polygon fill="#ff8200" stroke="#ff8200" points="31.75,-28.06 30,-23.06 28.25,-28.06 31.75,-28.06"/>
</a>
</g>
</g>
</g>
</svg>
