<?xml version="1.0" encoding="UTF-8" standalone="no"?>
<!DOCTYPE svg PUBLIC "-//W3C//DTD SVG 1.1//EN"
 "http://www.w3.org/Graphics/SVG/1.1/DTD/svg11.dtd">
<!-- Generated by graphviz version 3.0.0 (20220226.1711)
 -->
<!-- Title: 2_pilot02_49 Pages: 1 -->
<svg width="68pt" height="120pt"
 viewBox="0.00 0.00 68.00 120.00" xmlns="http://www.w3.org/2000/svg" xmlns:xlink="http://www.w3.org/1999/xlink">
<g id="graph0" class="graph" transform="scale(1 1) rotate(0) translate(4 116)">
<title>2_pilot02_49</title>
<polygon fill="white" stroke="transparent" points="-4,4 -4,-116 64,-116 64,4 -4,4"/>
<g id="clust1" class="cluster">
<title>cluster_2_pilot02_49</title>
<polygon fill="none" stroke="black" points="8,-8 8,-104 52,-104 52,-8 8,-8"/>
<text text-anchor="middle" x="23" y="-88.8" font-family="Times,serif" font-size="14.00">49</text>
</g>
<!-- pilot02_02_stac_1338567675 -->
<g id="node1" class="node">
<title>pilot02_02_stac_1338567675</title>
<g id="a_node1"><a xlink:title="1 &#160;Thomas &#160;anyone want wood?">
<ellipse fill="black" stroke="black" cx="30" cy="-69.5" rx="3.5" ry="3.5"/>
</a>
</g>
</g>
<!-- pilot02_02_stac_1338577675 -->
<g id="node2" class="node">
<title>pilot02_02_stac_1338577675</title>
<g id="a_node2"><a xlink:title="2 &#160;Thomas &#160;sorry clay">
<ellipse fill="black" stroke="black" cx="20" cy="-44.5" rx="3.5" ry="3.5"/>
</a>
</g>
</g>
<!-- pilot02_02_stac_1338567675&#45;&gt;pilot02_02_stac_1338577675 -->
<g id="edge2" class="edge">
<title>pilot02_02_stac_1338567675&#45;&gt;pilot02_02_stac_1338577675</title>
<g id="a_edge2"><a xlink:title="Correction">
<path fill="none" stroke="#ff174e" d="M28.93,-66.04C27.54,-62.84 25.05,-57.12 23.06,-52.53"/>
<polygon fill="#ff174e" stroke="#ff174e" points="24.63,-51.76 21.03,-47.87 21.42,-53.16 24.63,-51.76"/>
</a>
</g>
</g>
<!-- pilot02_02_stac_1338587675 -->
<g id="node3" class="node">
<title>pilot02_02_stac_1338587675</title>
<g id="a_node3"><a xlink:title="3 &#160;william &#160;no">
<ellipse fill="black" stroke="black" cx="30" cy="-19.5" rx="3.5" ry="3.5"/>
</a>
</g>
</g>
<!-- pilot02_02_stac_1338567675&#45;&gt;pilot02_02_stac_1338587675 -->
<g id="edge3" class="edge">
<title>pilot02_02_stac_1338567675&#45;&gt;pilot02_02_stac_1338587675</title>
<g id="a_edge3"><a xlink:title="Question_answer_pair">
<path fill="none" stroke="#12ffff" d="M30.59,-65.93C31.65,-61.07 33.67,-50.2 33,-41 32.69,-36.76 32.03,-32.07 31.4,-28.25"/>
<polygon fill="#12ffff" stroke="#12ffff" points="33.1,-27.76 30.51,-23.14 29.65,-28.37 33.1,-27.76"/>
</a>
</g>
</g>
<!-- pilot02_02_stac_1338577675&#45;&gt;pilot02_02_stac_1338587675 -->
</g>
</svg>
