<?xml version="1.0" encoding="UTF-8" standalone="no"?>
<!DOCTYPE svg PUBLIC "-//W3C//DTD SVG 1.1//EN"
 "http://www.w3.org/Graphics/SVG/1.1/DTD/svg11.dtd">
<!-- Generated by graphviz version 3.0.0 (20220226.1711)
 -->
<!-- Title: 3_pilot02_51 Pages: 1 -->
<svg width="138pt" height="347pt"
 viewBox="0.00 0.00 138.00 347.19" xmlns="http://www.w3.org/2000/svg" xmlns:xlink="http://www.w3.org/1999/xlink">
<g id="graph0" class="graph" transform="scale(1 1) rotate(0) translate(4 343.19)">
<title>3_pilot02_51</title>
<polygon fill="white" stroke="transparent" points="-4,4 -4,-343.19 134,-343.19 134,4 -4,4"/>
<g id="clust1" class="cluster">
<title>cluster_3_pilot02_51</title>
<polygon fill="none" stroke="black" points="8,-8 8,-329 122,-329 122,-8 8,-8"/>
<text text-anchor="middle" x="23" y="-313.8" font-family="Times,serif" font-size="14.00">51</text>
</g>
<!-- pilot02_03_stac_1338387679 -->
<g id="node1" class="node">
<title>pilot02_03_stac_1338387679</title>
<g id="a_node1"><a xlink:title="1 &#160;Cat &#160;so I&#39;d like to build a road...">
<ellipse fill="black" stroke="black" cx="60" cy="-294.5" rx="3.5" ry="3.5"/>
</a>
</g>
</g>
<!-- 1_0 -->
<!-- pilot02_03_stac_1338387679&#45;&gt;1_0 -->
<!-- 1_1 -->
<!-- pilot02_03_stac_1338387679&#45;&gt;1_1 -->
<!-- pilot02_03_stac_1338397679 -->
<g id="node4" class="node">
<title>pilot02_03_stac_1338397679</title>
<g id="a_node4"><a xlink:title="2 &#160;Cat &#160;where do i press?">
<ellipse fill="black" stroke="black" cx="60" cy="-269.5" rx="3.5" ry="3.5"/>
</a>
</g>
</g>
<!-- pilot02_03_stac_1338387679&#45;&gt;pilot02_03_stac_1338397679 -->
<g id="edge27" class="edge">
<title>pilot02_03_stac_1338387679&#45;&gt;pilot02_03_stac_1338397679</title>
<g id="a_edge27"><a xlink:title="Clarification_question">
<path fill="none" stroke="#ff40d1" d="M60,-290.68C60,-287.58 60,-282.47 60,-278.16"/>
<polygon fill="#ff40d1" stroke="#ff40d1" points="61.75,-278.06 60,-273.06 58.25,-278.06 61.75,-278.06"/>
</a>
</g>
</g>
<!-- 2_0 -->
<!-- pilot02_03_stac_1338397679&#45;&gt;2_0 -->
<!-- 2_1 -->
<!-- pilot02_03_stac_1338397679&#45;&gt;2_1 -->
<!-- pilot02_03_stac_1338407679 -->
<g id="node7" class="node">
<title>pilot02_03_stac_1338407679</title>
<g id="a_node7"><a xlink:title="3 &#160;william &#160;to build?">
<ellipse fill="black" stroke="black" cx="20" cy="-244.5" rx="3.5" ry="3.5"/>
</a>
</g>
</g>
<!-- pilot02_03_stac_1338397679&#45;&gt;pilot02_03_stac_1338407679 -->
<g id="edge28" class="edge">
<title>pilot02_03_stac_1338397679&#45;&gt;pilot02_03_stac_1338407679</title>
<g id="a_edge28"><a xlink:title="Q_Elab">
<path fill="none" stroke="#0d20ff" d="M57.38,-266.99C51.33,-263.52 36.26,-254.85 27.21,-249.64"/>
<polygon fill="#0d20ff" stroke="#0d20ff" points="27.89,-248.02 22.69,-247.04 26.15,-251.05 27.89,-248.02"/>
</a>
</g>
</g>
<!-- pilot02_03_stac_1338417679 -->
<g id="node10" class="node">
<title>pilot02_03_stac_1338417679</title>
<g id="a_node10"><a xlink:title="4 &#160;william &#160;at the bottom next to &quot;road&quot; etc.">
<ellipse fill="black" stroke="black" cx="40" cy="-219.5" rx="3.5" ry="3.5"/>
</a>
</g>
</g>
<!-- pilot02_03_stac_1338397679&#45;&gt;pilot02_03_stac_1338417679 -->
<g id="edge29" class="edge">
<title>pilot02_03_stac_1338397679&#45;&gt;pilot02_03_stac_1338417679</title>
<g id="a_edge29"><a xlink:title="Question_answer_pair">
<path fill="none" stroke="#12ffff" d="M62.85,-267.12C70.41,-263.26 89.91,-251.95 83,-241 79.02,-234.69 59.27,-227.08 47.97,-223.15"/>
<polygon fill="#12ffff" stroke="#12ffff" points="48.26,-221.4 42.96,-221.45 47.13,-224.71 48.26,-221.4"/>
</a>
</g>
</g>
<!-- pilot02_03_stac_1338427679 -->
<g id="node33" class="node">
<title>pilot02_03_stac_1338427679</title>
<g id="a_node33"><a xlink:title="5 &#160;Thomas &#160;if you have 1 wood, 1 clay, ">
<ellipse fill="black" stroke="black" cx="60" cy="-194.5" rx="3.5" ry="3.5"/>
</a>
</g>
</g>
<!-- pilot02_03_stac_1338397679&#45;&gt;pilot02_03_stac_1338427679 -->
<g id="edge30" class="edge">
<title>pilot02_03_stac_1338397679&#45;&gt;pilot02_03_stac_1338427679</title>
<g id="a_edge30"><a xlink:title="Question_answer_pair">
<path fill="none" stroke="#12ffff" d="M62.81,-267.14C74.37,-261.36 116.96,-238.12 103,-216 99.02,-209.69 79.27,-202.08 67.97,-198.15"/>
<polygon fill="#12ffff" stroke="#12ffff" points="68.26,-196.4 62.96,-196.45 67.13,-199.71 68.26,-196.4"/>
</a>
</g>
</g>
<!-- 3_0 -->
<!-- pilot02_03_stac_1338407679&#45;&gt;3_0 -->
<!-- 3_1 -->
<!-- pilot02_03_stac_1338407679&#45;&gt;3_1 -->
<!-- pilot02_03_stac_1338407679&#45;&gt;pilot02_03_stac_1338417679 -->
<!-- 4_0 -->
<!-- pilot02_03_stac_1338417679&#45;&gt;4_0 -->
<!-- 4_1 -->
<!-- pilot02_03_stac_1338417679&#45;&gt;4_1 -->
<!-- pilot02_03_stac_1338417679&#45;&gt;pilot02_03_stac_1338427679 -->
<!-- pilot02_03_stac_1338427680 -->
<g id="node13" class="node">
<title>pilot02_03_stac_1338427680</title>
<g id="a_node13"><a xlink:title="5 &#160;Thomas &#160;it is at the bottom of the screen">
<ellipse fill="black" stroke="black" cx="85" cy="-194.5" rx="3.5" ry="3.5"/>
</a>
</g>
</g>
<!-- 5_0 -->
<!-- pilot02_03_stac_1338427680&#45;&gt;5_0 -->
<!-- pilot02_03_stac_1338437679 -->
<g id="node15" class="node">
<title>pilot02_03_stac_1338437679</title>
<g id="a_node15"><a xlink:title="6 &#160;Cat &#160;okay, I see...">
<ellipse fill="black" stroke="black" cx="60" cy="-169.5" rx="3.5" ry="3.5"/>
</a>
</g>
</g>
<!-- 6_0 -->
<!-- pilot02_03_stac_1338437679&#45;&gt;6_0 -->
<!-- 6_1 -->
<!-- pilot02_03_stac_1338437679&#45;&gt;6_1 -->
<!-- pilot02_03_stac_1338447679 -->
<g id="node18" class="node">
<title>pilot02_03_stac_1338447679</title>
<g id="a_node18"><a xlink:title="7 &#160;Cat &#160;anyone wants an ore?">
<ellipse fill="black" stroke="black" cx="60" cy="-144.5" rx="3.5" ry="3.5"/>
</a>
</g>
</g>
<!-- pilot02_03_stac_1338437679&#45;&gt;pilot02_03_stac_1338447679 -->
<g id="edge33" class="edge">
<title>pilot02_03_stac_1338437679&#45;&gt;pilot02_03_stac_1338447679</title>
<g id="a_edge33"><a xlink:title="Continuation">
<path fill="none" stroke="#10491b" d="M60,-165.68C60,-162.58 60,-157.47 60,-153.16"/>
<polygon fill="#10491b" stroke="#10491b" points="61.75,-153.06 60,-148.06 58.25,-153.06 61.75,-153.06"/>
</a>
</g>
</g>
<!-- 7_0 -->
<!-- pilot02_03_stac_1338447679&#45;&gt;7_0 -->
<!-- 7_1 -->
<!-- pilot02_03_stac_1338447679&#45;&gt;7_1 -->
<!-- pilot02_03_stac_1338457679 -->
<g id="node21" class="node">
<title>pilot02_03_stac_1338457679</title>
<g id="a_node21"><a xlink:title="8 &#160;Thomas &#160;nope">
<ellipse fill="black" stroke="black" cx="20" cy="-119.5" rx="3.5" ry="3.5"/>
</a>
</g>
</g>
<!-- pilot02_03_stac_1338447679&#45;&gt;pilot02_03_stac_1338457679 -->
<g id="edge34" class="edge">
<title>pilot02_03_stac_1338447679&#45;&gt;pilot02_03_stac_1338457679</title>
<g id="a_edge34"><a xlink:title="Question_answer_pair">
<path fill="none" stroke="#12ffff" d="M57.38,-141.99C51.33,-138.52 36.26,-129.85 27.21,-124.64"/>
<polygon fill="#12ffff" stroke="#12ffff" points="27.89,-123.02 22.69,-122.04 26.15,-126.05 27.89,-123.02"/>
</a>
</g>
</g>
<!-- pilot02_03_stac_1338467679 -->
<g id="node24" class="node">
<title>pilot02_03_stac_1338467679</title>
<g id="a_node24"><a xlink:title="9 &#160;william &#160;no">
<ellipse fill="black" stroke="black" cx="40" cy="-94.5" rx="3.5" ry="3.5"/>
</a>
</g>
</g>
<!-- pilot02_03_stac_1338447679&#45;&gt;pilot02_03_stac_1338467679 -->
<g id="edge35" class="edge">
<title>pilot02_03_stac_1338447679&#45;&gt;pilot02_03_stac_1338467679</title>
<g id="a_edge35"><a xlink:title="Question_answer_pair">
<path fill="none" stroke="#12ffff" d="M62.85,-142.12C70.41,-138.26 89.91,-126.95 83,-116 79.02,-109.69 59.27,-102.08 47.97,-98.15"/>
<polygon fill="#12ffff" stroke="#12ffff" points="48.26,-96.4 42.96,-96.45 47.13,-99.71 48.26,-96.4"/>
</a>
</g>
</g>
<!-- pilot02_03_stac_1338477679 -->
<g id="node27" class="node">
<title>pilot02_03_stac_1338477679</title>
<g id="a_node27"><a xlink:title="10 &#160;Cat &#160;for a wood">
<ellipse fill="black" stroke="black" cx="50" cy="-69.5" rx="3.5" ry="3.5"/>
</a>
</g>
</g>
<!-- pilot02_03_stac_1338447679&#45;&gt;pilot02_03_stac_1338477679 -->
<g id="edge36" class="edge">
<title>pilot02_03_stac_1338447679&#45;&gt;pilot02_03_stac_1338477679</title>
<g id="a_edge36"><a xlink:title="Elaboration">
<path fill="none" stroke="#a621c7" d="M62.86,-142.11C74.59,-136.21 117.79,-112.57 103,-91 97.78,-83.38 71.84,-75.94 58.28,-72.49"/>
<polygon fill="#a621c7" stroke="#a621c7" points="58.6,-70.77 53.33,-71.27 57.77,-74.17 58.6,-70.77"/>
</a>
</g>
</g>
<!-- 8_0 -->
<!-- pilot02_03_stac_1338457679&#45;&gt;8_0 -->
<!-- 8_1 -->
<!-- pilot02_03_stac_1338457679&#45;&gt;8_1 -->
<!-- pilot02_03_stac_1338457679&#45;&gt;pilot02_03_stac_1338467679 -->
<!-- 9_0 -->
<!-- pilot02_03_stac_1338467679&#45;&gt;9_0 -->
<!-- 9_1 -->
<!-- pilot02_03_stac_1338467679&#45;&gt;9_1 -->
<!-- pilot02_03_stac_1338467679&#45;&gt;pilot02_03_stac_1338477679 -->
<!-- 10_0 -->
<!-- pilot02_03_stac_1338477679&#45;&gt;10_0 -->
<!-- 10_1 -->
<!-- pilot02_03_stac_1338477679&#45;&gt;10_1 -->
<!-- pilot02_03_stac_1338487679 -->
<g id="node34" class="node">
<title>pilot02_03_stac_1338487679</title>
<g id="a_node34"><a xlink:title="11 &#160;william &#160;you need 10 victory points to win. ">
<ellipse fill="black" stroke="black" cx="50" cy="-44.5" rx="3.5" ry="3.5"/>
</a>
</g>
</g>
<!-- pilot02_03_stac_1338477679&#45;&gt;pilot02_03_stac_1338487679 -->
<!-- pilot02_03_stac_1338517679 -->
<g id="node30" class="node">
<title>pilot02_03_stac_1338517679</title>
<g id="a_node30"><a xlink:title="12 &#160;Cat &#160;okay, thanks">
<ellipse fill="black" stroke="black" cx="50" cy="-19.5" rx="3.5" ry="3.5"/>
</a>
</g>
</g>
<!-- 12_0 -->
<!-- pilot02_03_stac_1338517679&#45;&gt;12_0 -->
<!-- 12_1 -->
<!-- pilot02_03_stac_1338517679&#45;&gt;12_1 -->
<!-- pilot02_03_stac_1338427679&#45;&gt;pilot02_03_stac_1338427680 -->
<g id="edge31" class="edge">
<title>pilot02_03_stac_1338427679&#45;&gt;pilot02_03_stac_1338427680</title>
<g id="a_edge31"><a xlink:title="Conditional">
<path fill="none" stroke="#1c931a" d="M63.52,-194.5C67.78,-194.5 72.04,-194.5 76.3,-194.5"/>
<polygon fill="#1c931a" stroke="#1c931a" points="76.31,-196.25 81.31,-194.5 76.31,-192.75 76.31,-196.25"/>
</a>
</g>
</g>
<!-- pilot02_03_stac_1338427679&#45;&gt;pilot02_03_stac_1338437679 -->
<g id="edge32" class="edge">
<title>pilot02_03_stac_1338427679&#45;&gt;pilot02_03_stac_1338437679</title>
<g id="a_edge32"><a xlink:title="Acknowledgement">
<path fill="none" stroke="#12ffff" d="M60,-190.68C60,-187.58 60,-182.47 60,-178.16"/>
<polygon fill="#12ffff" stroke="#12ffff" points="61.75,-178.06 60,-173.06 58.25,-178.06 61.75,-178.06"/>
</a>
</g>
</g>
<!-- pilot02_03_stac_1338487679&#45;&gt;pilot02_03_stac_1338517679 -->
<g id="edge39" class="edge">
<title>pilot02_03_stac_1338487679&#45;&gt;pilot02_03_stac_1338517679</title>
<g id="a_edge39"><a xlink:title="Acknowledgement">
<path fill="none" stroke="#12ffff" d="M50,-40.68C50,-37.58 50,-32.47 50,-28.16"/>
<polygon fill="#12ffff" stroke="#12ffff" points="51.75,-28.06 50,-23.06 48.25,-28.06 51.75,-28.06"/>
</a>
</g>
</g>
<!-- pilot02_03_stac_1338487680 -->
<g id="node35" class="node">
<title>pilot02_03_stac_1338487680</title>
<g id="a_node35"><a xlink:title="11 &#160;william &#160;a settlement gives you 1 VP, ">
<ellipse fill="black" stroke="black" cx="75" cy="-44.5" rx="3.5" ry="3.5"/>
</a>
</g>
</g>
<!-- pilot02_03_stac_1338487679&#45;&gt;pilot02_03_stac_1338487680 -->
<g id="edge37" class="edge">
<title>pilot02_03_stac_1338487679&#45;&gt;pilot02_03_stac_1338487680</title>
<g id="a_edge37"><a xlink:title="Elaboration">
<path fill="none" stroke="#a621c7" d="M53.52,-44.5C57.78,-44.5 62.04,-44.5 66.3,-44.5"/>
<polygon fill="#a621c7" stroke="#a621c7" points="66.31,-46.25 71.31,-44.5 66.31,-42.75 66.31,-46.25"/>
</a>
</g>
</g>
<!-- pilot02_03_stac_1338487681 -->
<g id="node36" class="node">
<title>pilot02_03_stac_1338487681</title>
<g id="a_node36"><a xlink:title="11 &#160;william &#160;a city gives you 2 VP">
<ellipse fill="black" stroke="black" cx="100" cy="-44.5" rx="3.5" ry="3.5"/>
</a>
</g>
</g>
<!-- pilot02_03_stac_1338487680&#45;&gt;pilot02_03_stac_1338487681 -->
<g id="edge38" class="edge">
<title>pilot02_03_stac_1338487680&#45;&gt;pilot02_03_stac_1338487681</title>
<g id="a_edge38"><a xlink:title="Elaboration">
<path fill="none" stroke="#a621c7" d="M78.52,-44.5C82.78,-44.5 87.04,-44.5 91.3,-44.5"/>
<polygon fill="#a621c7" stroke="#a621c7" points="91.31,-46.25 96.31,-44.5 91.31,-42.75 91.31,-46.25"/>
</a>
</g>
</g>
</g>
</svg>
