<?xml version="1.0" encoding="UTF-8" standalone="no"?>
<!DOCTYPE svg PUBLIC "-//W3C//DTD SVG 1.1//EN"
 "http://www.w3.org/Graphics/SVG/1.1/DTD/svg11.dtd">
<!-- Generated by graphviz version 3.0.0 (20220226.1711)
 -->
<!-- Title: 4_pilot02_53 Pages: 1 -->
<svg width="68pt" height="145pt"
 viewBox="0.00 0.00 68.00 145.00" xmlns="http://www.w3.org/2000/svg" xmlns:xlink="http://www.w3.org/1999/xlink">
<g id="graph0" class="graph" transform="scale(1 1) rotate(0) translate(4 141)">
<title>4_pilot02_53</title>
<polygon fill="white" stroke="transparent" points="-4,4 -4,-141 64,-141 64,4 -4,4"/>
<g id="clust1" class="cluster">
<title>cluster_4_pilot02_53</title>
<polygon fill="none" stroke="black" points="8,-8 8,-129 52,-129 52,-8 8,-8"/>
<text text-anchor="middle" x="23" y="-113.8" font-family="Times,serif" font-size="14.00">53</text>
</g>
<!-- pilot02_04_stac_1338387682 -->
<g id="node1" class="node">
<title>pilot02_04_stac_1338387682</title>
<g id="a_node1"><a xlink:title="1 &#160;Thomas &#160;can I buy a sheep?">
<ellipse fill="black" stroke="black" cx="30" cy="-94.5" rx="3.5" ry="3.5"/>
</a>
</g>
</g>
<!-- pilot02_04_stac_1338397682 -->
<g id="node2" class="node">
<title>pilot02_04_stac_1338397682</title>
<g id="a_node2"><a xlink:title="2 &#160;william &#160;none">
<ellipse fill="black" stroke="black" cx="20" cy="-69.5" rx="3.5" ry="3.5"/>
</a>
</g>
</g>
<!-- pilot02_04_stac_1338387682&#45;&gt;pilot02_04_stac_1338397682 -->
<g id="edge2" class="edge">
<title>pilot02_04_stac_1338387682&#45;&gt;pilot02_04_stac_1338397682</title>
<g id="a_edge2"><a xlink:title="Question_answer_pair">
<path fill="none" stroke="#12ffff" d="M28.93,-91.04C27.54,-87.84 25.05,-82.12 23.06,-77.53"/>
<polygon fill="#12ffff" stroke="#12ffff" points="24.63,-76.76 21.03,-72.87 21.42,-78.16 24.63,-76.76"/>
</a>
</g>
</g>
<!-- pilot02_04_stac_1338407682 -->
<g id="node3" class="node">
<title>pilot02_04_stac_1338407682</title>
<g id="a_node3"><a xlink:title="3 &#160;Cat &#160;no sorry">
<ellipse fill="black" stroke="black" cx="40" cy="-44.5" rx="3.5" ry="3.5"/>
</a>
</g>
</g>
<!-- pilot02_04_stac_1338387682&#45;&gt;pilot02_04_stac_1338407682 -->
<g id="edge3" class="edge">
<title>pilot02_04_stac_1338387682&#45;&gt;pilot02_04_stac_1338407682</title>
<g id="a_edge3"><a xlink:title="Question_answer_pair">
<path fill="none" stroke="#12ffff" d="M30.54,-90.92C31.99,-83.95 36.03,-64.55 38.34,-53.49"/>
<polygon fill="#12ffff" stroke="#12ffff" points="40.1,-53.58 39.41,-48.33 36.68,-52.87 40.1,-53.58"/>
</a>
</g>
</g>
<!-- pilot02_04_stac_1338397682&#45;&gt;pilot02_04_stac_1338407682 -->
<!-- pilot02_04_stac_1338417682 -->
<g id="node4" class="node">
<title>pilot02_04_stac_1338417682</title>
<g id="a_node4"><a xlink:title="4 &#160;Thomas &#160;ok">
<ellipse fill="black" stroke="black" cx="30" cy="-19.5" rx="3.5" ry="3.5"/>
</a>
</g>
</g>
<!-- pilot02_04_stac_1338397682&#45;&gt;pilot02_04_stac_1338417682 -->
<g id="edge4" class="edge">
<title>pilot02_04_stac_1338397682&#45;&gt;pilot02_04_stac_1338417682</title>
<g id="a_edge4"><a xlink:title="Acknowledgement">
<path fill="none" stroke="#12ffff" d="M20.54,-65.92C21.99,-58.95 26.03,-39.55 28.34,-28.49"/>
<polygon fill="#12ffff" stroke="#12ffff" points="30.1,-28.58 29.41,-23.33 26.68,-27.87 30.1,-28.58"/>
</a>
</g>
</g>
<!-- pilot02_04_stac_1338407682&#45;&gt;pilot02_04_stac_1338417682 -->
<g id="edge5" class="edge">
<title>pilot02_04_stac_1338407682&#45;&gt;pilot02_04_stac_1338417682</title>
<g id="a_edge5"><a xlink:title="Acknowledgement">
<path fill="none" stroke="#12ffff" d="M38.93,-41.04C37.54,-37.84 35.05,-32.12 33.06,-27.53"/>
<polygon fill="#12ffff" stroke="#12ffff" points="34.63,-26.76 31.03,-22.87 31.42,-28.16 34.63,-26.76"/>
</a>
</g>
</g>
</g>
</svg>
