<?xml version="1.0" encoding="UTF-8" standalone="no"?>
<!DOCTYPE svg PUBLIC "-//W3C//DTD SVG 1.1//EN"
 "http://www.w3.org/Graphics/SVG/1.1/DTD/svg11.dtd">
<!-- Generated by graphviz version 3.0.0 (20220226.1711)
 -->
<!-- Title: 4_pilot02_55 Pages: 1 -->
<svg width="113pt" height="470pt"
 viewBox="0.00 0.00 113.00 470.00" xmlns="http://www.w3.org/2000/svg" xmlns:xlink="http://www.w3.org/1999/xlink">
<g id="graph0" class="graph" transform="scale(1 1) rotate(0) translate(4 466)">
<title>4_pilot02_55</title>
<polygon fill="white" stroke="transparent" points="-4,4 -4,-466 109,-466 109,4 -4,4"/>
<g id="clust1" class="cluster">
<title>cluster_4_pilot02_55</title>
<polygon fill="none" stroke="black" points="8,-8 8,-454 97,-454 97,-8 8,-8"/>
<text text-anchor="middle" x="23" y="-438.8" font-family="Times,serif" font-size="14.00">55</text>
</g>
<!-- pilot02_04_stac_1338587682 -->
<g id="node1" class="node">
<title>pilot02_04_stac_1338587682</title>
<g id="a_node1"><a xlink:title="1 &#160;Cat &#160;is the robber robbing me?">
<ellipse fill="black" stroke="black" cx="40" cy="-419.5" rx="3.5" ry="3.5"/>
</a>
</g>
</g>
<!-- 1_0 -->
<!-- pilot02_04_stac_1338587682&#45;&gt;1_0 -->
<!-- pilot02_04_stac_1338597682 -->
<g id="node3" class="node">
<title>pilot02_04_stac_1338597682</title>
<g id="a_node3"><a xlink:title="2 &#160;Cat &#160;can I move him?">
<ellipse fill="black" stroke="black" cx="20" cy="-394.5" rx="3.5" ry="3.5"/>
</a>
</g>
</g>
<!-- pilot02_04_stac_1338587682&#45;&gt;pilot02_04_stac_1338597682 -->
<g id="edge22" class="edge">
<title>pilot02_04_stac_1338587682&#45;&gt;pilot02_04_stac_1338597682</title>
<g id="a_edge22"><a xlink:title="Clarification_question">
<path fill="none" stroke="#ff40d1" d="M38.15,-416.38C35.31,-413.11 29.75,-406.71 25.52,-401.85"/>
<polygon fill="#ff40d1" stroke="#ff40d1" points="26.74,-400.59 22.14,-397.96 24.1,-402.88 26.74,-400.59"/>
</a>
</g>
</g>
<!-- pilot02_04_stac_1338617682 -->
<g id="node7" class="node">
<title>pilot02_04_stac_1338617682</title>
<g id="a_node7"><a xlink:title="4 &#160;william &#160;the robber prevents you from getting that stuff while he&#39;s there">
<ellipse fill="black" stroke="black" cx="49" cy="-344.5" rx="3.5" ry="3.5"/>
</a>
</g>
</g>
<!-- pilot02_04_stac_1338587682&#45;&gt;pilot02_04_stac_1338617682 -->
<g id="edge24" class="edge">
<title>pilot02_04_stac_1338587682&#45;&gt;pilot02_04_stac_1338617682</title>
<g id="a_edge24"><a xlink:title="Question_answer_pair">
<path fill="none" stroke="#12ffff" d="M42.47,-416.69C46.62,-413.48 54.86,-406.33 58,-398 63.83,-382.52 57.12,-363.04 52.55,-352.71"/>
<polygon fill="#12ffff" stroke="#12ffff" points="54.04,-351.77 50.32,-347.99 50.87,-353.26 54.04,-351.77"/>
</a>
</g>
</g>
<!-- 2_0 -->
<!-- pilot02_04_stac_1338597682&#45;&gt;2_0 -->
<!-- pilot02_04_stac_1338607682 -->
<g id="node5" class="node">
<title>pilot02_04_stac_1338607682</title>
<g id="a_node5"><a xlink:title="3 &#160;Thomas &#160;if you roll a 7">
<ellipse fill="black" stroke="black" cx="39" cy="-369.5" rx="3.5" ry="3.5"/>
</a>
</g>
</g>
<!-- pilot02_04_stac_1338597682&#45;&gt;pilot02_04_stac_1338607682 -->
<g id="edge23" class="edge">
<title>pilot02_04_stac_1338597682&#45;&gt;pilot02_04_stac_1338607682</title>
<g id="a_edge23"><a xlink:title="Question_answer_pair">
<path fill="none" stroke="#12ffff" d="M21.75,-391.38C24.45,-388.11 29.74,-381.71 33.75,-376.85"/>
<polygon fill="#12ffff" stroke="#12ffff" points="35.13,-377.93 36.97,-372.96 32.43,-375.7 35.13,-377.93"/>
</a>
</g>
</g>
<!-- 3_0 -->
<!-- pilot02_04_stac_1338607682&#45;&gt;3_0 -->
<!-- pilot02_04_stac_1338607682&#45;&gt;pilot02_04_stac_1338617682 -->
<!-- 4_0 -->
<!-- pilot02_04_stac_1338617682&#45;&gt;4_0 -->
<!-- pilot02_04_stac_1338627682 -->
<g id="node9" class="node">
<title>pilot02_04_stac_1338627682</title>
<g id="a_node9"><a xlink:title="5 &#160;william &#160;can someone give me an ore??">
<ellipse fill="black" stroke="black" cx="49" cy="-319.5" rx="3.5" ry="3.5"/>
</a>
</g>
</g>
<!-- pilot02_04_stac_1338617682&#45;&gt;pilot02_04_stac_1338627682 -->
<g id="edge25" class="edge">
<title>pilot02_04_stac_1338617682&#45;&gt;pilot02_04_stac_1338627682</title>
<g id="a_edge25"><a xlink:title="Continuation">
<path fill="none" stroke="#10491b" d="M49,-340.68C49,-337.58 49,-332.47 49,-328.16"/>
<polygon fill="#10491b" stroke="#10491b" points="50.75,-328.06 49,-323.06 47.25,-328.06 50.75,-328.06"/>
</a>
</g>
</g>
<!-- 5_0 -->
<!-- pilot02_04_stac_1338627682&#45;&gt;5_0 -->
<!-- pilot02_04_stac_1338637682 -->
<g id="node11" class="node">
<title>pilot02_04_stac_1338637682</title>
<g id="a_node11"><a xlink:title="6 &#160;Cat &#160;what for?">
<ellipse fill="black" stroke="black" cx="29" cy="-294.5" rx="3.5" ry="3.5"/>
</a>
</g>
</g>
<!-- pilot02_04_stac_1338627682&#45;&gt;pilot02_04_stac_1338637682 -->
<g id="edge26" class="edge">
<title>pilot02_04_stac_1338627682&#45;&gt;pilot02_04_stac_1338637682</title>
<g id="a_edge26"><a xlink:title="Q_Elab">
<path fill="none" stroke="#0d20ff" d="M47.15,-316.38C44.31,-313.11 38.75,-306.71 34.52,-301.85"/>
<polygon fill="#0d20ff" stroke="#0d20ff" points="35.74,-300.59 31.14,-297.96 33.1,-302.88 35.74,-300.59"/>
</a>
</g>
</g>
<!-- pilot02_04_stac_1338657682 -->
<g id="node15" class="node">
<title>pilot02_04_stac_1338657682</title>
<g id="a_node15"><a xlink:title="8 &#160;Thomas &#160;sure">
<ellipse fill="black" stroke="black" cx="60" cy="-244.5" rx="3.5" ry="3.5"/>
</a>
</g>
</g>
<!-- pilot02_04_stac_1338627682&#45;&gt;pilot02_04_stac_1338657682 -->
<g id="edge28" class="edge">
<title>pilot02_04_stac_1338627682&#45;&gt;pilot02_04_stac_1338657682</title>
<g id="a_edge28"><a xlink:title="Question_answer_pair">
<path fill="none" stroke="#12ffff" d="M51.47,-316.69C55.62,-313.48 63.86,-306.33 67,-298 72.8,-282.61 67.08,-263.09 63.1,-252.73"/>
<polygon fill="#12ffff" stroke="#12ffff" points="64.68,-251.96 61.16,-248 61.44,-253.29 64.68,-251.96"/>
</a>
</g>
</g>
<!-- 6_0 -->
<!-- pilot02_04_stac_1338637682&#45;&gt;6_0 -->
<!-- pilot02_04_stac_1338647682 -->
<g id="node13" class="node">
<title>pilot02_04_stac_1338647682</title>
<g id="a_node13"><a xlink:title="7 &#160;william &#160;wheat or wood">
<ellipse fill="black" stroke="black" cx="29" cy="-269.5" rx="3.5" ry="3.5"/>
</a>
</g>
</g>
<!-- pilot02_04_stac_1338637682&#45;&gt;pilot02_04_stac_1338647682 -->
<g id="edge27" class="edge">
<title>pilot02_04_stac_1338637682&#45;&gt;pilot02_04_stac_1338647682</title>
<g id="a_edge27"><a xlink:title="Question_answer_pair">
<path fill="none" stroke="#12ffff" d="M29,-290.68C29,-287.58 29,-282.47 29,-278.16"/>
<polygon fill="#12ffff" stroke="#12ffff" points="30.75,-278.06 29,-273.06 27.25,-278.06 30.75,-278.06"/>
</a>
</g>
</g>
<!-- 7_0 -->
<!-- pilot02_04_stac_1338647682&#45;&gt;7_0 -->
<!-- pilot02_04_stac_1338647682&#45;&gt;pilot02_04_stac_1338657682 -->
<!-- pilot02_04_stac_1338667682 -->
<g id="node17" class="node">
<title>pilot02_04_stac_1338667682</title>
<g id="a_node17"><a xlink:title="9 &#160;william &#160;which?">
<ellipse fill="black" stroke="black" cx="41" cy="-219.5" rx="3.5" ry="3.5"/>
</a>
</g>
</g>
<!-- pilot02_04_stac_1338647682&#45;&gt;pilot02_04_stac_1338667682 -->
<g id="edge29" class="edge">
<title>pilot02_04_stac_1338647682&#45;&gt;pilot02_04_stac_1338667682</title>
<g id="a_edge29"><a xlink:title="Clarification_question">
<path fill="none" stroke="#ff40d1" d="M29.65,-265.92C31.39,-258.95 36.24,-239.55 39,-228.49"/>
<polygon fill="#ff40d1" stroke="#ff40d1" points="40.78,-228.61 40.29,-223.33 37.38,-227.76 40.78,-228.61"/>
</a>
</g>
</g>
<!-- pilot02_04_stac_1338677682 -->
<g id="node19" class="node">
<title>pilot02_04_stac_1338677682</title>
<g id="a_node19"><a xlink:title="10 &#160;Cat &#160;how about sheep or clar?">
<ellipse fill="black" stroke="black" cx="20" cy="-194.5" rx="3.5" ry="3.5"/>
</a>
</g>
</g>
<!-- pilot02_04_stac_1338647682&#45;&gt;pilot02_04_stac_1338677682 -->
<g id="edge31" class="edge">
<title>pilot02_04_stac_1338647682&#45;&gt;pilot02_04_stac_1338677682</title>
<g id="a_edge31"><a xlink:title="Q_Elab">
<path fill="none" stroke="#0d20ff" d="M28.66,-265.73C27.4,-255.52 22.99,-219.78 21,-203.59"/>
<polygon fill="#0d20ff" stroke="#0d20ff" points="22.69,-203.02 20.34,-198.28 19.22,-203.45 22.69,-203.02"/>
</a>
</g>
</g>
<!-- 8_0 -->
<!-- pilot02_04_stac_1338657682&#45;&gt;8_0 -->
<!-- pilot02_04_stac_1338657682&#45;&gt;pilot02_04_stac_1338667682 -->
<g id="edge30" class="edge">
<title>pilot02_04_stac_1338657682&#45;&gt;pilot02_04_stac_1338667682</title>
<g id="a_edge30"><a xlink:title="Clarification_question">
<path fill="none" stroke="#ff40d1" d="M58.25,-241.38C55.55,-238.11 50.26,-231.71 46.25,-226.85"/>
<polygon fill="#ff40d1" stroke="#ff40d1" points="47.57,-225.7 43.03,-222.96 44.87,-227.93 47.57,-225.7"/>
</a>
</g>
</g>
<!-- 9_0 -->
<!-- pilot02_04_stac_1338667682&#45;&gt;9_0 -->
<!-- pilot02_04_stac_1338667682&#45;&gt;pilot02_04_stac_1338677682 -->
<!-- pilot02_04_stac_1338687682 -->
<g id="node21" class="node">
<title>pilot02_04_stac_1338687682</title>
<g id="a_node21"><a xlink:title="11 &#160;Thomas &#160;wheat please">
<ellipse fill="black" stroke="black" cx="20" cy="-169.5" rx="3.5" ry="3.5"/>
</a>
</g>
</g>
<!-- pilot02_04_stac_1338667682&#45;&gt;pilot02_04_stac_1338687682 -->
<g id="edge32" class="edge">
<title>pilot02_04_stac_1338667682&#45;&gt;pilot02_04_stac_1338687682</title>
<g id="a_edge32"><a xlink:title="Question_answer_pair">
<path fill="none" stroke="#12ffff" d="M40.49,-215.83C39.46,-210.82 36.93,-199.7 33,-191 30.76,-186.03 27.46,-180.85 24.75,-176.94"/>
<polygon fill="#12ffff" stroke="#12ffff" points="26.09,-175.81 21.75,-172.78 23.25,-177.86 26.09,-175.81"/>
</a>
</g>
</g>
<!-- 10_0 -->
<!-- pilot02_04_stac_1338677682&#45;&gt;10_0 -->
<!-- pilot02_04_stac_1338677682&#45;&gt;pilot02_04_stac_1338687682 -->
<!-- 11_0 -->
<!-- pilot02_04_stac_1338687682&#45;&gt;11_0 -->
<!-- pilot02_04_stac_1338697682 -->
<g id="node23" class="node">
<title>pilot02_04_stac_1338697682</title>
<g id="a_node23"><a xlink:title="12 &#160;william &#160;k">
<ellipse fill="black" stroke="black" cx="20" cy="-144.5" rx="3.5" ry="3.5"/>
</a>
</g>
</g>
<!-- pilot02_04_stac_1338687682&#45;&gt;pilot02_04_stac_1338697682 -->
<g id="edge33" class="edge">
<title>pilot02_04_stac_1338687682&#45;&gt;pilot02_04_stac_1338697682</title>
<g id="a_edge33"><a xlink:title="Acknowledgement">
<path fill="none" stroke="#12ffff" d="M20,-165.68C20,-162.58 20,-157.47 20,-153.16"/>
<polygon fill="#12ffff" stroke="#12ffff" points="21.75,-153.06 20,-148.06 18.25,-153.06 21.75,-153.06"/>
</a>
</g>
</g>
<!-- 12_0 -->
<!-- pilot02_04_stac_1338697682&#45;&gt;12_0 -->
<!-- pilot02_04_stac_1338717682 -->
<g id="node31" class="node">
<title>pilot02_04_stac_1338717682</title>
<g id="a_node31"><a xlink:title="13 &#160;Thomas &#160;sorry ">
<ellipse fill="black" stroke="black" cx="20" cy="-119.5" rx="3.5" ry="3.5"/>
</a>
</g>
</g>
<!-- pilot02_04_stac_1338697682&#45;&gt;pilot02_04_stac_1338717682 -->
<g id="edge34" class="edge">
<title>pilot02_04_stac_1338697682&#45;&gt;pilot02_04_stac_1338717682</title>
<g id="a_edge34"><a xlink:title="Comment">
<path fill="none" stroke="#ff8200" d="M20,-140.68C20,-137.58 20,-132.47 20,-128.16"/>
<polygon fill="#ff8200" stroke="#ff8200" points="21.75,-128.06 20,-123.06 18.25,-128.06 21.75,-128.06"/>
</a>
</g>
</g>
<!-- pilot02_04_stac_1338727682 -->
<g id="node25" class="node">
<title>pilot02_04_stac_1338727682</title>
<g id="a_node25"><a xlink:title="14 &#160;Thomas &#160;couldn&#39;t see it">
<ellipse fill="black" stroke="black" cx="30" cy="-94.5" rx="3.5" ry="3.5"/>
</a>
</g>
</g>
<!-- 14_0 -->
<!-- pilot02_04_stac_1338727682&#45;&gt;14_0 -->
<!-- pilot02_04_stac_1338737682 -->
<g id="node33" class="node">
<title>pilot02_04_stac_1338737682</title>
<g id="a_node33"><a xlink:title="15 &#160;william &#160;if you move another window on top of the speech bubble ">
<ellipse fill="black" stroke="black" cx="30" cy="-69.5" rx="3.5" ry="3.5"/>
</a>
</g>
</g>
<!-- pilot02_04_stac_1338727682&#45;&gt;pilot02_04_stac_1338737682 -->
<g id="edge37" class="edge">
<title>pilot02_04_stac_1338727682&#45;&gt;pilot02_04_stac_1338737682</title>
<g id="a_edge37"><a xlink:title="Explanation">
<path fill="none" stroke="#a62139" d="M30,-90.68C30,-87.58 30,-82.47 30,-78.16"/>
<polygon fill="#a62139" stroke="#a62139" points="31.75,-78.06 30,-73.06 28.25,-78.06 31.75,-78.06"/>
</a>
</g>
</g>
<!-- pilot02_04_stac_1338747682 -->
<g id="node27" class="node">
<title>pilot02_04_stac_1338747682</title>
<g id="a_node27"><a xlink:title="16 &#160;william &#160;like &quot;whiping&quot; over it">
<ellipse fill="black" stroke="black" cx="41" cy="-44.5" rx="3.5" ry="3.5"/>
</a>
</g>
</g>
<!-- 16_0 -->
<!-- pilot02_04_stac_1338747682&#45;&gt;16_0 -->
<!-- pilot02_04_stac_1338777682 -->
<g id="node29" class="node">
<title>pilot02_04_stac_1338777682</title>
<g id="a_node29"><a xlink:title="17 &#160;Thomas &#160;thanks">
<ellipse fill="black" stroke="black" cx="30" cy="-19.5" rx="3.5" ry="3.5"/>
</a>
</g>
</g>
<!-- pilot02_04_stac_1338747682&#45;&gt;pilot02_04_stac_1338777682 -->
<!-- 17_0 -->
<!-- pilot02_04_stac_1338777682&#45;&gt;17_0 -->
<!-- pilot02_04_stac_1338717682&#45;&gt;pilot02_04_stac_1338727682 -->
<!-- pilot02_04_stac_1338717683 -->
<g id="node32" class="node">
<title>pilot02_04_stac_1338717683</title>
<g id="a_node32"><a xlink:title="13 &#160;Thomas &#160;retry">
<ellipse fill="black" stroke="black" cx="45" cy="-119.5" rx="3.5" ry="3.5"/>
</a>
</g>
</g>
<!-- pilot02_04_stac_1338717682&#45;&gt;pilot02_04_stac_1338717683 -->
<g id="edge35" class="edge">
<title>pilot02_04_stac_1338717682&#45;&gt;pilot02_04_stac_1338717683</title>
<g id="a_edge35"><a xlink:title="Explanation">
<path fill="none" stroke="#a62139" d="M23.52,-119.5C27.78,-119.5 32.04,-119.5 36.3,-119.5"/>
<polygon fill="#a62139" stroke="#a62139" points="36.31,-121.25 41.31,-119.5 36.31,-117.75 36.31,-121.25"/>
</a>
</g>
</g>
<!-- pilot02_04_stac_1338717683&#45;&gt;pilot02_04_stac_1338727682 -->
<g id="edge36" class="edge">
<title>pilot02_04_stac_1338717683&#45;&gt;pilot02_04_stac_1338727682</title>
<g id="a_edge36"><a xlink:title="Explanation">
<path fill="none" stroke="#a62139" d="M43.39,-116.04C41.26,-112.77 37.42,-106.87 34.39,-102.23"/>
<polygon fill="#a62139" stroke="#a62139" points="35.75,-101.11 31.55,-97.87 32.81,-103.02 35.75,-101.11"/>
</a>
</g>
</g>
<!-- pilot02_04_stac_1338737682&#45;&gt;pilot02_04_stac_1338747682 -->
<g id="edge39" class="edge">
<title>pilot02_04_stac_1338737682&#45;&gt;pilot02_04_stac_1338747682</title>
<g id="a_edge39"><a xlink:title="Elaboration">
<path fill="none" stroke="#a621c7" d="M31.18,-66.04C32.71,-62.84 35.44,-57.12 37.64,-52.53"/>
<polygon fill="#a621c7" stroke="#a621c7" points="39.29,-53.14 39.86,-47.87 36.13,-51.63 39.29,-53.14"/>
</a>
</g>
</g>
<!-- pilot02_04_stac_1338737682&#45;&gt;pilot02_04_stac_1338777682 -->
<g id="edge40" class="edge">
<title>pilot02_04_stac_1338737682&#45;&gt;pilot02_04_stac_1338777682</title>
<g id="a_edge40"><a xlink:title="Acknowledgement">
<path fill="none" stroke="#12ffff" d="M29.8,-65.92C29.45,-61.05 28.78,-50.17 29,-41 29.1,-36.79 29.32,-32.1 29.53,-28.27"/>
<polygon fill="#12ffff" stroke="#12ffff" points="31.29,-28.25 29.83,-23.15 27.79,-28.04 31.29,-28.25"/>
</a>
</g>
</g>
<!-- pilot02_04_stac_1338737683 -->
<g id="node34" class="node">
<title>pilot02_04_stac_1338737683</title>
<g id="a_node34"><a xlink:title="15 &#160;william &#160;you will see it">
<ellipse fill="black" stroke="black" cx="55" cy="-69.5" rx="3.5" ry="3.5"/>
</a>
</g>
</g>
<!-- pilot02_04_stac_1338737682&#45;&gt;pilot02_04_stac_1338737683 -->
<g id="edge38" class="edge">
<title>pilot02_04_stac_1338737682&#45;&gt;pilot02_04_stac_1338737683</title>
<g id="a_edge38"><a xlink:title="Conditional">
<path fill="none" stroke="#1c931a" d="M33.52,-69.5C37.78,-69.5 42.04,-69.5 46.3,-69.5"/>
<polygon fill="#1c931a" stroke="#1c931a" points="46.31,-71.25 51.31,-69.5 46.31,-67.75 46.31,-71.25"/>
</a>
</g>
</g>
</g>
</svg>
