<?xml version="1.0" encoding="UTF-8" standalone="no"?>
<!DOCTYPE svg PUBLIC "-//W3C//DTD SVG 1.1//EN"
 "http://www.w3.org/Graphics/SVG/1.1/DTD/svg11.dtd">
<!-- Generated by graphviz version 3.0.0 (20220226.1711)
 -->
<!-- Title: 8_pilot02_63 Pages: 1 -->
<svg width="113pt" height="495pt"
 viewBox="0.00 0.00 113.00 495.00" xmlns="http://www.w3.org/2000/svg" xmlns:xlink="http://www.w3.org/1999/xlink">
<g id="graph0" class="graph" transform="scale(1 1) rotate(0) translate(4 491)">
<title>8_pilot02_63</title>
<polygon fill="white" stroke="transparent" points="-4,4 -4,-491 109,-491 109,4 -4,4"/>
<g id="clust1" class="cluster">
<title>cluster_8_pilot02_63</title>
<polygon fill="none" stroke="black" points="8,-8 8,-479 97,-479 97,-8 8,-8"/>
<text text-anchor="middle" x="23" y="-463.8" font-family="Times,serif" font-size="14.00">63</text>
</g>
<!-- pilot02_08_stac_1338557693 -->
<g id="node1" class="node">
<title>pilot02_08_stac_1338557693</title>
<g id="a_node1"><a xlink:title="1 &#160;Cat &#160;anyone for ore?">
<ellipse fill="black" stroke="black" cx="60" cy="-444.5" rx="3.5" ry="3.5"/>
</a>
</g>
</g>
<!-- 1_0 -->
<!-- pilot02_08_stac_1338557693&#45;&gt;1_0 -->
<!-- pilot02_08_stac_1338567693 -->
<g id="node3" class="node">
<title>pilot02_08_stac_1338567693</title>
<g id="a_node3"><a xlink:title="2 &#160;Cat &#160;I&#39;d like clay">
<ellipse fill="black" stroke="black" cx="60" cy="-419.5" rx="3.5" ry="3.5"/>
</a>
</g>
</g>
<!-- pilot02_08_stac_1338557693&#45;&gt;pilot02_08_stac_1338567693 -->
<g id="edge23" class="edge">
<title>pilot02_08_stac_1338557693&#45;&gt;pilot02_08_stac_1338567693</title>
<g id="a_edge23"><a xlink:title="Elaboration">
<path fill="none" stroke="#a621c7" d="M60,-440.68C60,-437.58 60,-432.47 60,-428.16"/>
<polygon fill="#a621c7" stroke="#a621c7" points="61.75,-428.06 60,-423.06 58.25,-428.06 61.75,-428.06"/>
</a>
</g>
</g>
<!-- 2_0 -->
<!-- pilot02_08_stac_1338567693&#45;&gt;2_0 -->
<!-- pilot02_08_stac_1338577693 -->
<g id="node5" class="node">
<title>pilot02_08_stac_1338577693</title>
<g id="a_node5"><a xlink:title="3 &#160;Thomas &#160;sorry">
<ellipse fill="black" stroke="black" cx="20" cy="-394.5" rx="3.5" ry="3.5"/>
</a>
</g>
</g>
<!-- pilot02_08_stac_1338567693&#45;&gt;pilot02_08_stac_1338577693 -->
<g id="edge24" class="edge">
<title>pilot02_08_stac_1338567693&#45;&gt;pilot02_08_stac_1338577693</title>
<g id="a_edge24"><a xlink:title="Question_answer_pair">
<path fill="none" stroke="#12ffff" d="M57.38,-416.99C51.33,-413.52 36.26,-404.85 27.21,-399.64"/>
<polygon fill="#12ffff" stroke="#12ffff" points="27.89,-398.02 22.69,-397.04 26.15,-401.05 27.89,-398.02"/>
</a>
</g>
</g>
<!-- pilot02_08_stac_1338587693 -->
<g id="node7" class="node">
<title>pilot02_08_stac_1338587693</title>
<g id="a_node7"><a xlink:title="4 &#160;william &#160;sry">
<ellipse fill="black" stroke="black" cx="40" cy="-369.5" rx="3.5" ry="3.5"/>
</a>
</g>
</g>
<!-- pilot02_08_stac_1338567693&#45;&gt;pilot02_08_stac_1338587693 -->
<g id="edge25" class="edge">
<title>pilot02_08_stac_1338567693&#45;&gt;pilot02_08_stac_1338587693</title>
<g id="a_edge25"><a xlink:title="Question_answer_pair">
<path fill="none" stroke="#12ffff" d="M60.35,-415.79C60.9,-410.71 61.55,-399.48 58,-391 55.47,-384.97 50.44,-379.48 46.33,-375.7"/>
<polygon fill="#12ffff" stroke="#12ffff" points="47.34,-374.26 42.41,-372.33 45.06,-376.92 47.34,-374.26"/>
</a>
</g>
</g>
<!-- pilot02_08_stac_1338597693 -->
<g id="node9" class="node">
<title>pilot02_08_stac_1338597693</title>
<g id="a_node9"><a xlink:title="5 &#160;Cat &#160;or sheep">
<ellipse fill="black" stroke="black" cx="50" cy="-344.5" rx="3.5" ry="3.5"/>
</a>
</g>
</g>
<!-- pilot02_08_stac_1338567693&#45;&gt;pilot02_08_stac_1338597693 -->
<g id="edge26" class="edge">
<title>pilot02_08_stac_1338567693&#45;&gt;pilot02_08_stac_1338597693</title>
<g id="a_edge26"><a xlink:title="Alternation">
<path fill="none" stroke="#10495e" d="M61.87,-416.41C68.13,-409.18 87.41,-384.56 78,-366 73.83,-357.77 64.63,-352.05 57.91,-348.78"/>
<polygon fill="#10495e" stroke="#10495e" points="58.29,-347.04 53.01,-346.61 56.88,-350.24 58.29,-347.04"/>
</a>
</g>
</g>
<!-- 3_0 -->
<!-- pilot02_08_stac_1338577693&#45;&gt;3_0 -->
<!-- pilot02_08_stac_1338577693&#45;&gt;pilot02_08_stac_1338587693 -->
<!-- 4_0 -->
<!-- pilot02_08_stac_1338587693&#45;&gt;4_0 -->
<!-- pilot02_08_stac_1338587693&#45;&gt;pilot02_08_stac_1338597693 -->
<!-- 5_0 -->
<!-- pilot02_08_stac_1338597693&#45;&gt;5_0 -->
<!-- pilot02_08_stac_1338607693 -->
<g id="node11" class="node">
<title>pilot02_08_stac_1338607693</title>
<g id="a_node11"><a xlink:title="6 &#160;william &#160;nope">
<ellipse fill="black" stroke="black" cx="30" cy="-319.5" rx="3.5" ry="3.5"/>
</a>
</g>
</g>
<!-- pilot02_08_stac_1338597693&#45;&gt;pilot02_08_stac_1338607693 -->
<g id="edge27" class="edge">
<title>pilot02_08_stac_1338597693&#45;&gt;pilot02_08_stac_1338607693</title>
<g id="a_edge27"><a xlink:title="Question_answer_pair">
<path fill="none" stroke="#12ffff" d="M48.15,-341.38C45.31,-338.11 39.75,-331.71 35.52,-326.85"/>
<polygon fill="#12ffff" stroke="#12ffff" points="36.74,-325.59 32.14,-322.96 34.1,-327.88 36.74,-325.59"/>
</a>
</g>
</g>
<!-- pilot02_08_stac_1338617693 -->
<g id="node13" class="node">
<title>pilot02_08_stac_1338617693</title>
<g id="a_node13"><a xlink:title="7 &#160;Thomas &#160;can&#39;t">
<ellipse fill="black" stroke="black" cx="40" cy="-294.5" rx="3.5" ry="3.5"/>
</a>
</g>
</g>
<!-- pilot02_08_stac_1338597693&#45;&gt;pilot02_08_stac_1338617693 -->
<g id="edge28" class="edge">
<title>pilot02_08_stac_1338597693&#45;&gt;pilot02_08_stac_1338617693</title>
<g id="a_edge28"><a xlink:title="Question_answer_pair">
<path fill="none" stroke="#12ffff" d="M52.58,-341.84C58.71,-337.68 73.27,-326.38 68,-316 63.83,-307.77 54.63,-302.05 47.91,-298.78"/>
<polygon fill="#12ffff" stroke="#12ffff" points="48.29,-297.04 43.01,-296.61 46.88,-300.24 48.29,-297.04"/>
</a>
</g>
</g>
<!-- 6_0 -->
<!-- pilot02_08_stac_1338607693&#45;&gt;6_0 -->
<!-- pilot02_08_stac_1338607693&#45;&gt;pilot02_08_stac_1338617693 -->
<!-- 7_0 -->
<!-- pilot02_08_stac_1338617693&#45;&gt;7_0 -->
<!-- pilot02_08_stac_1463480866 -->
<g id="node15" class="node">
<title>pilot02_08_stac_1463480866</title>
<g id="a_node15"><a xlink:title="8 &#160;Thomas &#160;have plenty of ore">
<ellipse fill="black" stroke="black" cx="40" cy="-269.5" rx="3.5" ry="3.5"/>
</a>
</g>
</g>
<!-- pilot02_08_stac_1338617693&#45;&gt;pilot02_08_stac_1463480866 -->
<g id="edge29" class="edge">
<title>pilot02_08_stac_1338617693&#45;&gt;pilot02_08_stac_1463480866</title>
<g id="a_edge29"><a xlink:title="Explanation">
<path fill="none" stroke="#a62139" d="M40,-290.68C40,-287.58 40,-282.47 40,-278.16"/>
<polygon fill="#a62139" stroke="#a62139" points="41.75,-278.06 40,-273.06 38.25,-278.06 41.75,-278.06"/>
</a>
</g>
</g>
<!-- 8_0 -->
<!-- pilot02_08_stac_1463480866&#45;&gt;8_0 -->
<!-- pilot02_08_stac_1338387696 -->
<g id="node17" class="node">
<title>pilot02_08_stac_1338387696</title>
<g id="a_node17"><a xlink:title="9 &#160;Thomas &#160;for anything">
<ellipse fill="black" stroke="black" cx="40" cy="-244.5" rx="3.5" ry="3.5"/>
</a>
</g>
</g>
<!-- pilot02_08_stac_1463480866&#45;&gt;pilot02_08_stac_1338387696 -->
<g id="edge30" class="edge">
<title>pilot02_08_stac_1463480866&#45;&gt;pilot02_08_stac_1338387696</title>
<g id="a_edge30"><a xlink:title="Continuation">
<path fill="none" stroke="#10491b" d="M40,-265.68C40,-262.58 40,-257.47 40,-253.16"/>
<polygon fill="#10491b" stroke="#10491b" points="41.75,-253.06 40,-248.06 38.25,-253.06 41.75,-253.06"/>
</a>
</g>
</g>
<!-- 9_0 -->
<!-- pilot02_08_stac_1338387696&#45;&gt;9_0 -->
<!-- pilot02_08_stac_1338397696 -->
<g id="node19" class="node">
<title>pilot02_08_stac_1338397696</title>
<g id="a_node19"><a xlink:title="10 &#160;william &#160;wheat?">
<ellipse fill="black" stroke="black" cx="40" cy="-219.5" rx="3.5" ry="3.5"/>
</a>
</g>
</g>
<!-- pilot02_08_stac_1338387696&#45;&gt;pilot02_08_stac_1338397696 -->
<g id="edge31" class="edge">
<title>pilot02_08_stac_1338387696&#45;&gt;pilot02_08_stac_1338397696</title>
<g id="a_edge31"><a xlink:title="Q_Elab">
<path fill="none" stroke="#0d20ff" d="M40,-240.68C40,-237.58 40,-232.47 40,-228.16"/>
<polygon fill="#0d20ff" stroke="#0d20ff" points="41.75,-228.06 40,-223.06 38.25,-228.06 41.75,-228.06"/>
</a>
</g>
</g>
<!-- 10_0 -->
<!-- pilot02_08_stac_1338397696&#45;&gt;10_0 -->
<!-- pilot02_08_stac_1338407696 -->
<g id="node21" class="node">
<title>pilot02_08_stac_1338407696</title>
<g id="a_node21"><a xlink:title="11 &#160;Thomas &#160;3 ore for a wheat?">
<ellipse fill="black" stroke="black" cx="40" cy="-194.5" rx="3.5" ry="3.5"/>
</a>
</g>
</g>
<!-- pilot02_08_stac_1338397696&#45;&gt;pilot02_08_stac_1338407696 -->
<g id="edge32" class="edge">
<title>pilot02_08_stac_1338397696&#45;&gt;pilot02_08_stac_1338407696</title>
<g id="a_edge32"><a xlink:title="Q_Elab">
<path fill="none" stroke="#0d20ff" d="M40,-215.68C40,-212.58 40,-207.47 40,-203.16"/>
<polygon fill="#0d20ff" stroke="#0d20ff" points="41.75,-203.06 40,-198.06 38.25,-203.06 41.75,-203.06"/>
</a>
</g>
</g>
<!-- 11_0 -->
<!-- pilot02_08_stac_1338407696&#45;&gt;11_0 -->
<!-- pilot02_08_stac_1338417696 -->
<g id="node23" class="node">
<title>pilot02_08_stac_1338417696</title>
<g id="a_node23"><a xlink:title="12 &#160;Cat &#160;ok">
<ellipse fill="black" stroke="black" cx="30" cy="-169.5" rx="3.5" ry="3.5"/>
</a>
</g>
</g>
<!-- pilot02_08_stac_1338407696&#45;&gt;pilot02_08_stac_1338417696 -->
<g id="edge33" class="edge">
<title>pilot02_08_stac_1338407696&#45;&gt;pilot02_08_stac_1338417696</title>
<g id="a_edge33"><a xlink:title="Question_answer_pair">
<path fill="none" stroke="#12ffff" d="M38.93,-191.04C37.54,-187.84 35.05,-182.12 33.06,-177.53"/>
<polygon fill="#12ffff" stroke="#12ffff" points="34.63,-176.76 31.03,-172.87 31.42,-178.16 34.63,-176.76"/>
</a>
</g>
</g>
<!-- pilot02_08_stac_1338467696 -->
<g id="node29" class="node">
<title>pilot02_08_stac_1338467696</title>
<g id="a_node29"><a xlink:title="16 &#160;william &#160;i will do it">
<ellipse fill="black" stroke="black" cx="40" cy="-69.5" rx="3.5" ry="3.5"/>
</a>
</g>
</g>
<!-- pilot02_08_stac_1338407696&#45;&gt;pilot02_08_stac_1338467696 -->
<g id="edge38" class="edge">
<title>pilot02_08_stac_1338407696&#45;&gt;pilot02_08_stac_1338467696</title>
<g id="a_edge38"><a xlink:title="Question_answer_pair">
<path fill="none" stroke="#12ffff" d="M42.73,-192.21C48.26,-189.44 60.91,-182.44 68,-173 75.81,-162.6 78,-158.51 78,-145.5 78,-145.5 78,-145.5 78,-118.5 78,-105.49 75.81,-101.4 68,-91 62.46,-83.62 53.53,-77.74 47.25,-74.2"/>
<polygon fill="#12ffff" stroke="#12ffff" points="47.96,-72.59 42.73,-71.79 46.32,-75.68 47.96,-72.59"/>
</a>
</g>
</g>
<!-- 12_0 -->
<!-- pilot02_08_stac_1338417696&#45;&gt;12_0 -->
<!-- pilot02_08_stac_1338427696 -->
<g id="node25" class="node">
<title>pilot02_08_stac_1338427696</title>
<g id="a_node25"><a xlink:title="13 &#160;william &#160;^^">
<ellipse fill="black" stroke="black" cx="30" cy="-144.5" rx="3.5" ry="3.5"/>
</a>
</g>
</g>
<!-- pilot02_08_stac_1338417696&#45;&gt;pilot02_08_stac_1338427696 -->
<g id="edge34" class="edge">
<title>pilot02_08_stac_1338417696&#45;&gt;pilot02_08_stac_1338427696</title>
<g id="a_edge34"><a xlink:title="Comment">
<path fill="none" stroke="#ff8200" d="M30,-165.68C30,-162.58 30,-157.47 30,-153.16"/>
<polygon fill="#ff8200" stroke="#ff8200" points="31.75,-153.06 30,-148.06 28.25,-153.06 31.75,-153.06"/>
</a>
</g>
</g>
<!-- 13_0 -->
<!-- pilot02_08_stac_1338427696&#45;&gt;13_0 -->
<!-- pilot02_08_stac_1338447696 -->
<g id="node35" class="node">
<title>pilot02_08_stac_1338447696</title>
<g id="a_node35"><a xlink:title="14 &#160;Cat &#160;sorry, ">
<ellipse fill="black" stroke="black" cx="30" cy="-119.5" rx="3.5" ry="3.5"/>
</a>
</g>
</g>
<!-- pilot02_08_stac_1338427696&#45;&gt;pilot02_08_stac_1338447696 -->
<g id="edge35" class="edge">
<title>pilot02_08_stac_1338427696&#45;&gt;pilot02_08_stac_1338447696</title>
<g id="a_edge35"><a xlink:title="Comment">
<path fill="none" stroke="#ff8200" d="M30,-140.68C30,-137.58 30,-132.47 30,-128.16"/>
<polygon fill="#ff8200" stroke="#ff8200" points="31.75,-128.06 30,-123.06 28.25,-128.06 31.75,-128.06"/>
</a>
</g>
</g>
<!-- pilot02_08_stac_1338457696 -->
<g id="node27" class="node">
<title>pilot02_08_stac_1338457696</title>
<g id="a_node27"><a xlink:title="15 &#160;Thomas &#160;ok">
<ellipse fill="black" stroke="black" cx="30" cy="-94.5" rx="3.5" ry="3.5"/>
</a>
</g>
</g>
<!-- 15_0 -->
<!-- pilot02_08_stac_1338457696&#45;&gt;15_0 -->
<!-- pilot02_08_stac_1338457696&#45;&gt;pilot02_08_stac_1338467696 -->
<!-- 16_0 -->
<!-- pilot02_08_stac_1338467696&#45;&gt;16_0 -->
<!-- pilot02_08_stac_1338497696 -->
<g id="node31" class="node">
<title>pilot02_08_stac_1338497696</title>
<g id="a_node31"><a xlink:title="17 &#160;Thomas &#160;thaks">
<ellipse fill="black" stroke="black" cx="30" cy="-44.5" rx="3.5" ry="3.5"/>
</a>
</g>
</g>
<!-- pilot02_08_stac_1338467696&#45;&gt;pilot02_08_stac_1338497696 -->
<g id="edge39" class="edge">
<title>pilot02_08_stac_1338467696&#45;&gt;pilot02_08_stac_1338497696</title>
<g id="a_edge39"><a xlink:title="Acknowledgement">
<path fill="none" stroke="#12ffff" d="M38.93,-66.04C37.54,-62.84 35.05,-57.12 33.06,-52.53"/>
<polygon fill="#12ffff" stroke="#12ffff" points="34.63,-51.76 31.03,-47.87 31.42,-53.16 34.63,-51.76"/>
</a>
</g>
</g>
<!-- pilot02_08_stac_1338517696 -->
<g id="node33" class="node">
<title>pilot02_08_stac_1338517696</title>
<g id="a_node33"><a xlink:title="18 &#160;william &#160;*ADDTIME*">
<ellipse fill="black" stroke="black" cx="40" cy="-19.5" rx="3.5" ry="3.5"/>
</a>
</g>
</g>
<!-- pilot02_08_stac_1338467696&#45;&gt;pilot02_08_stac_1338517696 -->
<g id="edge40" class="edge">
<title>pilot02_08_stac_1338467696&#45;&gt;pilot02_08_stac_1338517696</title>
<g id="a_edge40"><a xlink:title="Continuation">
<path fill="none" stroke="#10491b" d="M43.26,-67.3C51.92,-63.89 74.41,-53.64 68,-41 63.83,-32.77 54.63,-27.05 47.91,-23.78"/>
<polygon fill="#10491b" stroke="#10491b" points="48.29,-22.04 43.01,-21.61 46.88,-25.24 48.29,-22.04"/>
</a>
</g>
</g>
<!-- 17_0 -->
<!-- pilot02_08_stac_1338497696&#45;&gt;17_0 -->
<!-- pilot02_08_stac_1338497696&#45;&gt;pilot02_08_stac_1338517696 -->
<!-- 18_0 -->
<!-- pilot02_08_stac_1338517696&#45;&gt;18_0 -->
<!-- pilot02_08_stac_1338447696&#45;&gt;pilot02_08_stac_1338457696 -->
<g id="edge37" class="edge">
<title>pilot02_08_stac_1338447696&#45;&gt;pilot02_08_stac_1338457696</title>
<g id="a_edge37"><a xlink:title="Acknowledgement">
<path fill="none" stroke="#12ffff" d="M30,-115.68C30,-112.58 30,-107.47 30,-103.16"/>
<polygon fill="#12ffff" stroke="#12ffff" points="31.75,-103.06 30,-98.06 28.25,-103.06 31.75,-103.06"/>
</a>
</g>
</g>
<!-- pilot02_08_stac_1338447697 -->
<g id="node36" class="node">
<title>pilot02_08_stac_1338447697</title>
<g id="a_node36"><a xlink:title="14 &#160;Cat &#160;misunderstood">
<ellipse fill="black" stroke="black" cx="55" cy="-119.5" rx="3.5" ry="3.5"/>
</a>
</g>
</g>
<!-- pilot02_08_stac_1338447696&#45;&gt;pilot02_08_stac_1338447697 -->
<g id="edge36" class="edge">
<title>pilot02_08_stac_1338447696&#45;&gt;pilot02_08_stac_1338447697</title>
<g id="a_edge36"><a xlink:title="Explanation">
<path fill="none" stroke="#a62139" d="M33.52,-119.5C37.78,-119.5 42.04,-119.5 46.3,-119.5"/>
<polygon fill="#a62139" stroke="#a62139" points="46.31,-121.25 51.31,-119.5 46.31,-117.75 46.31,-121.25"/>
</a>
</g>
</g>
</g>
</svg>
