<?xml version="1.0" encoding="UTF-8" standalone="no"?>
<!DOCTYPE svg PUBLIC "-//W3C//DTD SVG 1.1//EN"
 "http://www.w3.org/Graphics/SVG/1.1/DTD/svg11.dtd">
<!-- Generated by graphviz version 3.0.0 (20220226.1711)
 -->
<!-- Title: 10_pilot02_67 Pages: 1 -->
<svg width="88pt" height="245pt"
 viewBox="0.00 0.00 88.00 245.00" xmlns="http://www.w3.org/2000/svg" xmlns:xlink="http://www.w3.org/1999/xlink">
<g id="graph0" class="graph" transform="scale(1 1) rotate(0) translate(4 241)">
<title>10_pilot02_67</title>
<polygon fill="white" stroke="transparent" points="-4,4 -4,-241 84,-241 84,4 -4,4"/>
<g id="clust1" class="cluster">
<title>cluster_10_pilot02_67</title>
<polygon fill="none" stroke="black" points="8,-8 8,-229 72,-229 72,-8 8,-8"/>
<text text-anchor="middle" x="23" y="-213.8" font-family="Times,serif" font-size="14.00">67</text>
</g>
<!-- pilot02_10_stac_1338517699 -->
<g id="node1" class="node">
<title>pilot02_10_stac_1338517699</title>
<g id="a_node1"><a xlink:title="1 &#160;william &#160;theres your wood">
<ellipse fill="black" stroke="black" cx="43" cy="-194.5" rx="3.5" ry="3.5"/>
</a>
</g>
</g>
<!-- pilot02_10_stac_1338537699 -->
<g id="node2" class="node">
<title>pilot02_10_stac_1338537699</title>
<g id="a_node2"><a xlink:title="2 &#160;william &#160;does someone need clay?">
<ellipse fill="black" stroke="black" cx="43" cy="-169.5" rx="3.5" ry="3.5"/>
</a>
</g>
</g>
<!-- pilot02_10_stac_1338517699&#45;&gt;pilot02_10_stac_1338537699 -->
<g id="edge5" class="edge">
<title>pilot02_10_stac_1338517699&#45;&gt;pilot02_10_stac_1338537699</title>
<g id="a_edge5"><a xlink:title="Continuation">
<path fill="none" stroke="#10491b" d="M43,-190.68C43,-187.58 43,-182.47 43,-178.16"/>
<polygon fill="#10491b" stroke="#10491b" points="44.75,-178.06 43,-173.06 41.25,-178.06 44.75,-178.06"/>
</a>
</g>
</g>
<!-- pilot02_10_stac_1338547699 -->
<g id="node3" class="node">
<title>pilot02_10_stac_1338547699</title>
<g id="a_node3"><a xlink:title="3 &#160;william &#160;i will take sheep or ore">
<ellipse fill="black" stroke="black" cx="20" cy="-144.5" rx="3.5" ry="3.5"/>
</a>
</g>
</g>
<!-- pilot02_10_stac_1338537699&#45;&gt;pilot02_10_stac_1338547699 -->
<g id="edge6" class="edge">
<title>pilot02_10_stac_1338537699&#45;&gt;pilot02_10_stac_1338547699</title>
<g id="a_edge6"><a xlink:title="Elaboration">
<path fill="none" stroke="#a621c7" d="M40.88,-166.38C37.54,-163.04 30.95,-156.45 26.06,-151.56"/>
<polygon fill="#a621c7" stroke="#a621c7" points="27.23,-150.26 22.46,-147.96 24.76,-152.73 27.23,-150.26"/>
</a>
</g>
</g>
<!-- pilot02_10_stac_1338557699 -->
<g id="node4" class="node">
<title>pilot02_10_stac_1338557699</title>
<g id="a_node4"><a xlink:title="4 &#160;Cat &#160;I can trade wood">
<ellipse fill="black" stroke="black" cx="39" cy="-119.5" rx="3.5" ry="3.5"/>
</a>
</g>
</g>
<!-- pilot02_10_stac_1338537699&#45;&gt;pilot02_10_stac_1338557699 -->
<g id="edge7" class="edge">
<title>pilot02_10_stac_1338537699&#45;&gt;pilot02_10_stac_1338557699</title>
<g id="a_edge7"><a xlink:title="Question_answer_pair">
<path fill="none" stroke="#12ffff" d="M42.78,-165.92C42.2,-158.95 40.59,-139.55 39.67,-128.49"/>
<polygon fill="#12ffff" stroke="#12ffff" points="41.4,-128.17 39.24,-123.33 37.91,-128.46 41.4,-128.17"/>
</a>
</g>
</g>
<!-- pilot02_10_stac_1338567699 -->
<g id="node5" class="node">
<title>pilot02_10_stac_1338567699</title>
<g id="a_node5"><a xlink:title="5 &#160;Thomas &#160;nope">
<ellipse fill="black" stroke="black" cx="60" cy="-94.5" rx="3.5" ry="3.5"/>
</a>
</g>
</g>
<!-- pilot02_10_stac_1338537699&#45;&gt;pilot02_10_stac_1338567699 -->
<g id="edge8" class="edge">
<title>pilot02_10_stac_1338537699&#45;&gt;pilot02_10_stac_1338567699</title>
<g id="a_edge8"><a xlink:title="Question_answer_pair">
<path fill="none" stroke="#12ffff" d="M43.65,-165.73C46.04,-155.43 54.5,-119.14 58.22,-103.15"/>
<polygon fill="#12ffff" stroke="#12ffff" points="59.99,-103.24 59.42,-97.97 56.59,-102.44 59.99,-103.24"/>
</a>
</g>
</g>
<!-- pilot02_10_stac_1338547699&#45;&gt;pilot02_10_stac_1338557699 -->
<!-- pilot02_10_stac_1338557699&#45;&gt;pilot02_10_stac_1338567699 -->
<!-- pilot02_10_stac_1338577699 -->
<g id="node6" class="node">
<title>pilot02_10_stac_1338577699</title>
<g id="a_node6"><a xlink:title="6 &#160;Cat &#160;for clay">
<ellipse fill="black" stroke="black" cx="38" cy="-69.5" rx="3.5" ry="3.5"/>
</a>
</g>
</g>
<!-- pilot02_10_stac_1338557699&#45;&gt;pilot02_10_stac_1338577699 -->
<g id="edge9" class="edge">
<title>pilot02_10_stac_1338557699&#45;&gt;pilot02_10_stac_1338577699</title>
<g id="a_edge9"><a xlink:title="Elaboration">
<path fill="none" stroke="#a621c7" d="M38.95,-115.92C38.8,-108.95 38.4,-89.55 38.17,-78.49"/>
<polygon fill="#a621c7" stroke="#a621c7" points="39.91,-78.29 38.06,-73.33 36.41,-78.37 39.91,-78.29"/>
</a>
</g>
</g>
<!-- pilot02_10_stac_1338567699&#45;&gt;pilot02_10_stac_1338577699 -->
<!-- pilot02_10_stac_1338587699 -->
<g id="node7" class="node">
<title>pilot02_10_stac_1338587699</title>
<g id="a_node7"><a xlink:title="7 &#160;william &#160;k">
<ellipse fill="black" stroke="black" cx="29" cy="-44.5" rx="3.5" ry="3.5"/>
</a>
</g>
</g>
<!-- pilot02_10_stac_1338577699&#45;&gt;pilot02_10_stac_1338587699 -->
<g id="edge10" class="edge">
<title>pilot02_10_stac_1338577699&#45;&gt;pilot02_10_stac_1338587699</title>
<g id="a_edge10"><a xlink:title="Acknowledgement">
<path fill="none" stroke="#12ffff" d="M37.04,-66.04C35.81,-62.91 33.64,-57.37 31.87,-52.83"/>
<polygon fill="#12ffff" stroke="#12ffff" points="33.38,-51.89 29.93,-47.87 30.12,-53.17 33.38,-51.89"/>
</a>
</g>
</g>
<!-- pilot02_10_stac_1338597699 -->
<g id="node8" class="node">
<title>pilot02_10_stac_1338597699</title>
<g id="a_node8"><a xlink:title="8 &#160;Cat &#160;or ore">
<ellipse fill="black" stroke="black" cx="40" cy="-19.5" rx="3.5" ry="3.5"/>
</a>
</g>
</g>
<!-- pilot02_10_stac_1338577699&#45;&gt;pilot02_10_stac_1338597699 -->
<g id="edge11" class="edge">
<title>pilot02_10_stac_1338577699&#45;&gt;pilot02_10_stac_1338597699</title>
<g id="a_edge11"><a xlink:title="Alternation">
<path fill="none" stroke="#10495e" d="M38.68,-65.87C39.65,-61.99 41.37,-54.5 42,-48 42.65,-41.28 41.98,-33.62 41.24,-28.1"/>
<polygon fill="#10495e" stroke="#10495e" points="42.96,-27.76 40.48,-23.08 39.5,-28.29 42.96,-27.76"/>
</a>
</g>
</g>
<!-- pilot02_10_stac_1338587699&#45;&gt;pilot02_10_stac_1338597699 -->
</g>
</svg>
