<?xml version="1.0" encoding="UTF-8" standalone="no"?>
<!DOCTYPE svg PUBLIC "-//W3C//DTD SVG 1.1//EN"
 "http://www.w3.org/Graphics/SVG/1.1/DTD/svg11.dtd">
<!-- Generated by graphviz version 3.0.0 (20220226.1711)
 -->
<!-- Title: 2_s2_leagueM_game4_1057 Pages: 1 -->
<svg width="118pt" height="372pt"
 viewBox="0.00 0.00 118.00 372.19" xmlns="http://www.w3.org/2000/svg" xmlns:xlink="http://www.w3.org/1999/xlink">
<g id="graph0" class="graph" transform="scale(1 1) rotate(0) translate(4 368.19)">
<title>2_s2_leagueM_game4_1057</title>
<polygon fill="white" stroke="transparent" points="-4,4 -4,-368.19 114,-368.19 114,4 -4,4"/>
<g id="clust1" class="cluster">
<title>cluster_2_s2_leagueM_game4_1057</title>
<polygon fill="none" stroke="black" points="8,-8 8,-354 102,-354 102,-8 8,-8"/>
<text text-anchor="middle" x="30" y="-338.8" font-family="Times,serif" font-size="14.00">1057</text>
</g>
<!-- s2_leagueM_game4_02_stac_1413791932 -->
<g id="node1" class="node">
<title>s2_leagueM_game4_02_stac_1413791932</title>
<g id="a_node1"><a xlink:title="1 &#160;dmm &#160;thought that would happen :P">
<ellipse fill="black" stroke="black" cx="30" cy="-319.5" rx="3.5" ry="3.5"/>
</a>
</g>
</g>
<!-- 1_0 -->
<!-- s2_leagueM_game4_02_stac_1413791932&#45;&gt;1_0 -->
<!-- 1_1 -->
<!-- s2_leagueM_game4_02_stac_1413791932&#45;&gt;1_1 -->
<!-- s2_leagueM_game4_02_stac_1413791935 -->
<g id="node4" class="node">
<title>s2_leagueM_game4_02_stac_1413791935</title>
<g id="a_node4"><a xlink:title="2 &#160;dmm &#160;well done">
<ellipse fill="black" stroke="black" cx="30" cy="-294.5" rx="3.5" ry="3.5"/>
</a>
</g>
</g>
<!-- s2_leagueM_game4_02_stac_1413791932&#45;&gt;s2_leagueM_game4_02_stac_1413791935 -->
<g id="edge25" class="edge">
<title>s2_leagueM_game4_02_stac_1413791932&#45;&gt;s2_leagueM_game4_02_stac_1413791935</title>
<g id="a_edge25"><a xlink:title="Comment">
<path fill="none" stroke="#ff8200" d="M30,-315.68C30,-312.58 30,-307.47 30,-303.16"/>
<polygon fill="#ff8200" stroke="#ff8200" points="31.75,-303.06 30,-298.06 28.25,-303.06 31.75,-303.06"/>
</a>
</g>
</g>
<!-- 2_0 -->
<!-- s2_leagueM_game4_02_stac_1413791935&#45;&gt;2_0 -->
<!-- 2_1 -->
<!-- s2_leagueM_game4_02_stac_1413791935&#45;&gt;2_1 -->
<!-- s2_leagueM_game4_02_stac_1413791938 -->
<g id="node7" class="node">
<title>s2_leagueM_game4_02_stac_1413791938</title>
<g id="a_node7"><a xlink:title="3 &#160;CheshireCatGrin &#160;Bravo!">
<ellipse fill="black" stroke="black" cx="20" cy="-269.5" rx="3.5" ry="3.5"/>
</a>
</g>
</g>
<!-- s2_leagueM_game4_02_stac_1413791935&#45;&gt;s2_leagueM_game4_02_stac_1413791938 -->
<g id="edge26" class="edge">
<title>s2_leagueM_game4_02_stac_1413791935&#45;&gt;s2_leagueM_game4_02_stac_1413791938</title>
<g id="a_edge26"><a xlink:title="Comment">
<path fill="none" stroke="#ff8200" d="M28.93,-291.04C27.54,-287.84 25.05,-282.12 23.06,-277.53"/>
<polygon fill="#ff8200" stroke="#ff8200" points="24.63,-276.76 21.03,-272.87 21.42,-278.16 24.63,-276.76"/>
</a>
</g>
</g>
<!-- s2_leagueM_game4_02_stac_1413791941 -->
<g id="node32" class="node">
<title>s2_leagueM_game4_02_stac_1413791941</title>
<g id="a_node32"><a xlink:title="4 &#160;inca &#160;cheers!">
<ellipse fill="black" stroke="black" cx="20" cy="-244.5" rx="3.5" ry="3.5"/>
</a>
</g>
</g>
<!-- s2_leagueM_game4_02_stac_1413791935&#45;&gt;s2_leagueM_game4_02_stac_1413791941 -->
<g id="edge27" class="edge">
<title>s2_leagueM_game4_02_stac_1413791935&#45;&gt;s2_leagueM_game4_02_stac_1413791941</title>
<g id="a_edge27"><a xlink:title="Acknowledgement">
<path fill="none" stroke="#12ffff" d="M33.33,-292.73C44.01,-290.18 77.03,-281.71 83,-273 84.76,-270.43 84.83,-268.52 83,-266 79.69,-261.44 44.54,-251.85 28.23,-247.6"/>
<polygon fill="#12ffff" stroke="#12ffff" points="28.45,-245.85 23.17,-246.3 27.57,-249.24 28.45,-245.85"/>
</a>
</g>
</g>
<!-- 3_0 -->
<!-- s2_leagueM_game4_02_stac_1413791938&#45;&gt;3_0 -->
<!-- 3_1 -->
<!-- s2_leagueM_game4_02_stac_1413791938&#45;&gt;3_1 -->
<!-- s2_leagueM_game4_02_stac_1413791938&#45;&gt;s2_leagueM_game4_02_stac_1413791941 -->
<g id="edge28" class="edge">
<title>s2_leagueM_game4_02_stac_1413791938&#45;&gt;s2_leagueM_game4_02_stac_1413791941</title>
<g id="a_edge28"><a xlink:title="Acknowledgement">
<path fill="none" stroke="#12ffff" d="M20,-265.68C20,-262.58 20,-257.47 20,-253.16"/>
<polygon fill="#12ffff" stroke="#12ffff" points="21.75,-253.06 20,-248.06 18.25,-253.06 21.75,-253.06"/>
</a>
</g>
</g>
<!-- s2_leagueM_game4_02_stac_1413791942 -->
<g id="node10" class="node">
<title>s2_leagueM_game4_02_stac_1413791942</title>
<g id="a_node10"><a xlink:title="4 &#160;inca &#160;good game guys">
<ellipse fill="black" stroke="black" cx="45" cy="-244.5" rx="3.5" ry="3.5"/>
</a>
</g>
</g>
<!-- 4_0 -->
<!-- s2_leagueM_game4_02_stac_1413791942&#45;&gt;4_0 -->
<!-- s2_leagueM_game4_02_stac_1413791945 -->
<g id="node12" class="node">
<title>s2_leagueM_game4_02_stac_1413791945</title>
<g id="a_node12"><a xlink:title="5 &#160;CheshireCatGrin &#160;Good if brief game!">
<ellipse fill="black" stroke="black" cx="20" cy="-219.5" rx="3.5" ry="3.5"/>
</a>
</g>
</g>
<!-- s2_leagueM_game4_02_stac_1413791942&#45;&gt;s2_leagueM_game4_02_stac_1413791945 -->
<g id="edge30" class="edge">
<title>s2_leagueM_game4_02_stac_1413791942&#45;&gt;s2_leagueM_game4_02_stac_1413791945</title>
<g id="a_edge30"><a xlink:title="Comment">
<path fill="none" stroke="#ff8200" d="M42.69,-241.38C38.92,-237.9 31.3,-230.89 25.93,-225.96"/>
<polygon fill="#ff8200" stroke="#ff8200" points="26.95,-224.52 22.09,-222.42 24.58,-227.09 26.95,-224.52"/>
</a>
</g>
</g>
<!-- s2_leagueM_game4_02_stac_1413791948 -->
<g id="node33" class="node">
<title>s2_leagueM_game4_02_stac_1413791948</title>
<g id="a_node33"><a xlink:title="6 &#160;inca &#160;exciting last game now,">
<ellipse fill="black" stroke="black" cx="30" cy="-194.5" rx="3.5" ry="3.5"/>
</a>
</g>
</g>
<!-- s2_leagueM_game4_02_stac_1413791942&#45;&gt;s2_leagueM_game4_02_stac_1413791948 -->
<g id="edge31" class="edge">
<title>s2_leagueM_game4_02_stac_1413791942&#45;&gt;s2_leagueM_game4_02_stac_1413791948</title>
<g id="a_edge31"><a xlink:title="Continuation">
<path fill="none" stroke="#10491b" d="M48.22,-242.76C59.05,-240.11 92.94,-230.51 83,-216 77.78,-208.38 51.84,-200.94 38.28,-197.49"/>
<polygon fill="#10491b" stroke="#10491b" points="38.6,-195.77 33.33,-196.27 37.77,-199.17 38.6,-195.77"/>
</a>
</g>
</g>
<!-- 5_0 -->
<!-- s2_leagueM_game4_02_stac_1413791945&#45;&gt;5_0 -->
<!-- 5_1 -->
<!-- s2_leagueM_game4_02_stac_1413791945&#45;&gt;5_1 -->
<!-- s2_leagueM_game4_02_stac_1413791945&#45;&gt;s2_leagueM_game4_02_stac_1413791948 -->
<!-- s2_leagueM_game4_02_stac_1413791949 -->
<g id="node15" class="node">
<title>s2_leagueM_game4_02_stac_1413791949</title>
<g id="a_node15"><a xlink:title="6 &#160;inca &#160;three of you on 1 win">
<ellipse fill="black" stroke="black" cx="55" cy="-194.5" rx="3.5" ry="3.5"/>
</a>
</g>
</g>
<!-- 6_0 -->
<!-- s2_leagueM_game4_02_stac_1413791949&#45;&gt;6_0 -->
<!-- s2_leagueM_game4_02_stac_1413791953 -->
<g id="node17" class="node">
<title>s2_leagueM_game4_02_stac_1413791953</title>
<g id="a_node17"><a xlink:title="7 &#160;CheshireCatGrin &#160;toodle pip">
<ellipse fill="black" stroke="black" cx="45" cy="-169.5" rx="3.5" ry="3.5"/>
</a>
</g>
</g>
<!-- 7_0 -->
<!-- s2_leagueM_game4_02_stac_1413791953&#45;&gt;7_0 -->
<!-- s2_leagueM_game4_02_stac_1413791962 -->
<g id="node19" class="node">
<title>s2_leagueM_game4_02_stac_1413791962</title>
<g id="a_node19"><a xlink:title="9 &#160;dmm &#160;did we pick a date?">
<ellipse fill="black" stroke="black" cx="45" cy="-119.5" rx="3.5" ry="3.5"/>
</a>
</g>
</g>
<!-- 9_0 -->
<!-- s2_leagueM_game4_02_stac_1413791962&#45;&gt;9_0 -->
<!-- s2_leagueM_game4_02_stac_1413791965 -->
<g id="node21" class="node">
<title>s2_leagueM_game4_02_stac_1413791965</title>
<g id="a_node21"><a xlink:title="10 &#160;inca &#160;i don&#39;t think you did">
<ellipse fill="black" stroke="black" cx="20" cy="-94.5" rx="3.5" ry="3.5"/>
</a>
</g>
</g>
<!-- s2_leagueM_game4_02_stac_1413791962&#45;&gt;s2_leagueM_game4_02_stac_1413791965 -->
<g id="edge40" class="edge">
<title>s2_leagueM_game4_02_stac_1413791962&#45;&gt;s2_leagueM_game4_02_stac_1413791965</title>
<g id="a_edge40"><a xlink:title="Question_answer_pair">
<path fill="none" stroke="#12ffff" d="M42.69,-116.38C38.92,-112.9 31.3,-105.89 25.93,-100.96"/>
<polygon fill="#12ffff" stroke="#12ffff" points="26.95,-99.52 22.09,-97.42 24.58,-102.09 26.95,-99.52"/>
</a>
</g>
</g>
<!-- 10_0 -->
<!-- s2_leagueM_game4_02_stac_1413791965&#45;&gt;10_0 -->
<!-- 10_1 -->
<!-- s2_leagueM_game4_02_stac_1413791965&#45;&gt;10_1 -->
<!-- s2_leagueM_game4_02_stac_1413791968 -->
<g id="node39" class="node">
<title>s2_leagueM_game4_02_stac_1413791968</title>
<g id="a_node39"><a xlink:title="11 &#160;dmm &#160;okay,">
<ellipse fill="black" stroke="black" cx="20" cy="-69.5" rx="3.5" ry="3.5"/>
</a>
</g>
</g>
<!-- s2_leagueM_game4_02_stac_1413791965&#45;&gt;s2_leagueM_game4_02_stac_1413791968 -->
<g id="edge41" class="edge">
<title>s2_leagueM_game4_02_stac_1413791965&#45;&gt;s2_leagueM_game4_02_stac_1413791968</title>
<g id="a_edge41"><a xlink:title="Acknowledgement">
<path fill="none" stroke="#12ffff" d="M20,-90.68C20,-87.58 20,-82.47 20,-78.16"/>
<polygon fill="#12ffff" stroke="#12ffff" points="21.75,-78.06 20,-73.06 18.25,-78.06 21.75,-78.06"/>
</a>
</g>
</g>
<!-- s2_leagueM_game4_02_stac_1413791969 -->
<g id="node24" class="node">
<title>s2_leagueM_game4_02_stac_1413791969</title>
<g id="a_node24"><a xlink:title="11 &#160;dmm &#160;we&#39;ll leave that to the emails">
<ellipse fill="black" stroke="black" cx="45" cy="-69.5" rx="3.5" ry="3.5"/>
</a>
</g>
</g>
<!-- 11_0 -->
<!-- s2_leagueM_game4_02_stac_1413791969&#45;&gt;11_0 -->
<!-- s2_leagueM_game4_02_stac_1413791972 -->
<g id="node26" class="node">
<title>s2_leagueM_game4_02_stac_1413791972</title>
<g id="a_node26"><a xlink:title="12 &#160;dmm &#160;bye!">
<ellipse fill="black" stroke="black" cx="30" cy="-44.5" rx="3.5" ry="3.5"/>
</a>
</g>
</g>
<!-- s2_leagueM_game4_02_stac_1413791969&#45;&gt;s2_leagueM_game4_02_stac_1413791972 -->
<g id="edge43" class="edge">
<title>s2_leagueM_game4_02_stac_1413791969&#45;&gt;s2_leagueM_game4_02_stac_1413791972</title>
<g id="a_edge43"><a xlink:title="Continuation">
<path fill="none" stroke="#10491b" d="M43.39,-66.04C41.26,-62.77 37.42,-56.87 34.39,-52.23"/>
<polygon fill="#10491b" stroke="#10491b" points="35.75,-51.11 31.55,-47.87 32.81,-53.02 35.75,-51.11"/>
</a>
</g>
</g>
<!-- 12_0 -->
<!-- s2_leagueM_game4_02_stac_1413791972&#45;&gt;12_0 -->
<!-- 12_1 -->
<!-- s2_leagueM_game4_02_stac_1413791972&#45;&gt;12_1 -->
<!-- s2_leagueM_game4_02_stac_1413791975 -->
<g id="node29" class="node">
<title>s2_leagueM_game4_02_stac_1413791975</title>
<g id="a_node29"><a xlink:title="13 &#160;inca &#160;see you later!">
<ellipse fill="black" stroke="black" cx="30" cy="-19.5" rx="3.5" ry="3.5"/>
</a>
</g>
</g>
<!-- s2_leagueM_game4_02_stac_1413791972&#45;&gt;s2_leagueM_game4_02_stac_1413791975 -->
<g id="edge44" class="edge">
<title>s2_leagueM_game4_02_stac_1413791972&#45;&gt;s2_leagueM_game4_02_stac_1413791975</title>
<g id="a_edge44"><a xlink:title="Comment">
<path fill="none" stroke="#ff8200" d="M30,-40.68C30,-37.58 30,-32.47 30,-28.16"/>
<polygon fill="#ff8200" stroke="#ff8200" points="31.75,-28.06 30,-23.06 28.25,-28.06 31.75,-28.06"/>
</a>
</g>
</g>
<!-- 13_0 -->
<!-- s2_leagueM_game4_02_stac_1413791975&#45;&gt;13_0 -->
<!-- 13_1 -->
<!-- s2_leagueM_game4_02_stac_1413791975&#45;&gt;13_1 -->
<!-- s2_leagueM_game4_02_stac_1413791941&#45;&gt;s2_leagueM_game4_02_stac_1413791942 -->
<g id="edge29" class="edge">
<title>s2_leagueM_game4_02_stac_1413791941&#45;&gt;s2_leagueM_game4_02_stac_1413791942</title>
<g id="a_edge29"><a xlink:title="Continuation">
<path fill="none" stroke="#10491b" d="M23.52,-244.5C27.78,-244.5 32.04,-244.5 36.3,-244.5"/>
<polygon fill="#10491b" stroke="#10491b" points="36.31,-246.25 41.31,-244.5 36.31,-242.75 36.31,-246.25"/>
</a>
</g>
</g>
<!-- s2_leagueM_game4_02_stac_1413791941&#45;&gt;s2_leagueM_game4_02_stac_1413791945 -->
<!-- s2_leagueM_game4_02_stac_1413791948&#45;&gt;s2_leagueM_game4_02_stac_1413791949 -->
<g id="edge32" class="edge">
<title>s2_leagueM_game4_02_stac_1413791948&#45;&gt;s2_leagueM_game4_02_stac_1413791949</title>
<g id="a_edge32"><a xlink:title="Elaboration">
<path fill="none" stroke="#a621c7" d="M33.52,-194.5C37.78,-194.5 42.04,-194.5 46.3,-194.5"/>
<polygon fill="#a621c7" stroke="#a621c7" points="46.31,-196.25 51.31,-194.5 46.31,-192.75 46.31,-196.25"/>
</a>
</g>
</g>
<!-- s2_leagueM_game4_02_stac_1413791952 -->
<g id="node34" class="node">
<title>s2_leagueM_game4_02_stac_1413791952</title>
<g id="a_node34"><a xlink:title="7 &#160;CheshireCatGrin &#160;Right,">
<ellipse fill="black" stroke="black" cx="20" cy="-169.5" rx="3.5" ry="3.5"/>
</a>
</g>
</g>
<!-- s2_leagueM_game4_02_stac_1413791948&#45;&gt;s2_leagueM_game4_02_stac_1413791952 -->
<g id="edge33" class="edge">
<title>s2_leagueM_game4_02_stac_1413791948&#45;&gt;s2_leagueM_game4_02_stac_1413791952</title>
<g id="a_edge33"><a xlink:title="Acknowledgement">
<path fill="none" stroke="#12ffff" d="M28.93,-191.04C27.54,-187.84 25.05,-182.12 23.06,-177.53"/>
<polygon fill="#12ffff" stroke="#12ffff" points="24.63,-176.76 21.03,-172.87 21.42,-178.16 24.63,-176.76"/>
</a>
</g>
</g>
<!-- s2_leagueM_game4_02_stac_1413791961 -->
<g id="node38" class="node">
<title>s2_leagueM_game4_02_stac_1413791961</title>
<g id="a_node38"><a xlink:title="9 &#160;dmm &#160;when did we decide on for the final game?">
<ellipse fill="black" stroke="black" cx="20" cy="-119.5" rx="3.5" ry="3.5"/>
</a>
</g>
</g>
<!-- s2_leagueM_game4_02_stac_1413791948&#45;&gt;s2_leagueM_game4_02_stac_1413791961 -->
<g id="edge38" class="edge">
<title>s2_leagueM_game4_02_stac_1413791948&#45;&gt;s2_leagueM_game4_02_stac_1413791961</title>
<g id="a_edge38"><a xlink:title="Clarification_question">
<path fill="none" stroke="#ff40d1" d="M33.33,-192.73C44.01,-190.18 77.03,-181.71 83,-173 91.04,-161.27 91.36,-152.51 83,-141 79.69,-136.44 44.54,-126.85 28.23,-122.6"/>
<polygon fill="#ff40d1" stroke="#ff40d1" points="28.45,-120.85 23.17,-121.3 27.57,-124.24 28.45,-120.85"/>
</a>
</g>
</g>
<!-- s2_leagueM_game4_02_stac_1413791952&#45;&gt;s2_leagueM_game4_02_stac_1413791953 -->
<g id="edge34" class="edge">
<title>s2_leagueM_game4_02_stac_1413791952&#45;&gt;s2_leagueM_game4_02_stac_1413791953</title>
<g id="a_edge34"><a xlink:title="Elaboration">
<path fill="none" stroke="#a621c7" d="M23.52,-169.5C27.78,-169.5 32.04,-169.5 36.3,-169.5"/>
<polygon fill="#a621c7" stroke="#a621c7" points="36.31,-171.25 41.31,-169.5 36.31,-167.75 36.31,-171.25"/>
</a>
</g>
</g>
<!-- s2_leagueM_game4_02_stac_1413791956 -->
<g id="node35" class="node">
<title>s2_leagueM_game4_02_stac_1413791956</title>
<g id="a_node35"><a xlink:title="8 &#160;inca &#160;OK,">
<ellipse fill="black" stroke="black" cx="20" cy="-144.5" rx="3.5" ry="3.5"/>
</a>
</g>
</g>
<!-- s2_leagueM_game4_02_stac_1413791952&#45;&gt;s2_leagueM_game4_02_stac_1413791956 -->
<g id="edge35" class="edge">
<title>s2_leagueM_game4_02_stac_1413791952&#45;&gt;s2_leagueM_game4_02_stac_1413791956</title>
<g id="a_edge35"><a xlink:title="Acknowledgement">
<path fill="none" stroke="#12ffff" d="M20,-165.68C20,-162.58 20,-157.47 20,-153.16"/>
<polygon fill="#12ffff" stroke="#12ffff" points="21.75,-153.06 20,-148.06 18.25,-153.06 21.75,-153.06"/>
</a>
</g>
</g>
<!-- s2_leagueM_game4_02_stac_1413791957 -->
<g id="node36" class="node">
<title>s2_leagueM_game4_02_stac_1413791957</title>
<g id="a_node36"><a xlink:title="8 &#160;inca &#160;cheers for the games guys,">
<ellipse fill="black" stroke="black" cx="45" cy="-144.5" rx="3.5" ry="3.5"/>
</a>
</g>
</g>
<!-- s2_leagueM_game4_02_stac_1413791956&#45;&gt;s2_leagueM_game4_02_stac_1413791957 -->
<g id="edge36" class="edge">
<title>s2_leagueM_game4_02_stac_1413791956&#45;&gt;s2_leagueM_game4_02_stac_1413791957</title>
<g id="a_edge36"><a xlink:title="Continuation">
<path fill="none" stroke="#10491b" d="M23.52,-144.5C27.78,-144.5 32.04,-144.5 36.3,-144.5"/>
<polygon fill="#10491b" stroke="#10491b" points="36.31,-146.25 41.31,-144.5 36.31,-142.75 36.31,-146.25"/>
</a>
</g>
</g>
<!-- s2_leagueM_game4_02_stac_1413791956&#45;&gt;s2_leagueM_game4_02_stac_1413791961 -->
<!-- s2_leagueM_game4_02_stac_1413791958 -->
<g id="node37" class="node">
<title>s2_leagueM_game4_02_stac_1413791958</title>
<g id="a_node37"><a xlink:title="8 &#160;inca &#160;I&#39;ve had fun">
<ellipse fill="black" stroke="black" cx="70" cy="-144.5" rx="3.5" ry="3.5"/>
</a>
</g>
</g>
<!-- s2_leagueM_game4_02_stac_1413791957&#45;&gt;s2_leagueM_game4_02_stac_1413791958 -->
<g id="edge37" class="edge">
<title>s2_leagueM_game4_02_stac_1413791957&#45;&gt;s2_leagueM_game4_02_stac_1413791958</title>
<g id="a_edge37"><a xlink:title="Explanation">
<path fill="none" stroke="#a62139" d="M48.52,-144.5C52.78,-144.5 57.04,-144.5 61.3,-144.5"/>
<polygon fill="#a62139" stroke="#a62139" points="61.31,-146.25 66.31,-144.5 61.31,-142.75 61.31,-146.25"/>
</a>
</g>
</g>
<!-- s2_leagueM_game4_02_stac_1413791961&#45;&gt;s2_leagueM_game4_02_stac_1413791962 -->
<g id="edge39" class="edge">
<title>s2_leagueM_game4_02_stac_1413791961&#45;&gt;s2_leagueM_game4_02_stac_1413791962</title>
<g id="a_edge39"><a xlink:title="Clarification_question">
<path fill="none" stroke="#ff40d1" d="M23.52,-119.5C27.78,-119.5 32.04,-119.5 36.3,-119.5"/>
<polygon fill="#ff40d1" stroke="#ff40d1" points="36.31,-121.25 41.31,-119.5 36.31,-117.75 36.31,-121.25"/>
</a>
</g>
</g>
<!-- s2_leagueM_game4_02_stac_1413791961&#45;&gt;s2_leagueM_game4_02_stac_1413791965 -->
<!-- s2_leagueM_game4_02_stac_1413791968&#45;&gt;s2_leagueM_game4_02_stac_1413791969 -->
<g id="edge42" class="edge">
<title>s2_leagueM_game4_02_stac_1413791968&#45;&gt;s2_leagueM_game4_02_stac_1413791969</title>
<g id="a_edge42"><a xlink:title="Continuation">
<path fill="none" stroke="#10491b" d="M23.52,-69.5C27.78,-69.5 32.04,-69.5 36.3,-69.5"/>
<polygon fill="#10491b" stroke="#10491b" points="36.31,-71.25 41.31,-69.5 36.31,-67.75 36.31,-71.25"/>
</a>
</g>
</g>
<!-- s2_leagueM_game4_02_stac_1413791968&#45;&gt;s2_leagueM_game4_02_stac_1413791972 -->
</g>
</svg>
