<?xml version="1.0" encoding="UTF-8" standalone="no"?>
<!DOCTYPE svg PUBLIC "-//W3C//DTD SVG 1.1//EN"
 "http://www.w3.org/Graphics/SVG/1.1/DTD/svg11.dtd">
<!-- Generated by graphviz version 3.0.0 (20220226.1711)
 -->
<!-- Title: 1_s2_league4_game2_750 Pages: 1 -->
<svg width="153pt" height="920pt"
 viewBox="0.00 0.00 153.00 920.00" xmlns="http://www.w3.org/2000/svg" xmlns:xlink="http://www.w3.org/1999/xlink">
<g id="graph0" class="graph" transform="scale(1 1) rotate(0) translate(4 916)">
<title>1_s2_league4_game2_750</title>
<polygon fill="white" stroke="transparent" points="-4,4 -4,-916 149,-916 149,4 -4,4"/>
<g id="clust1" class="cluster">
<title>cluster_1_s2_league4_game2_750</title>
<polygon fill="none" stroke="black" points="8,-8 8,-904 137,-904 137,-8 8,-8"/>
<text text-anchor="middle" x="26.5" y="-888.8" font-family="Times,serif" font-size="14.00">750</text>
</g>
<!-- s2_league4_game2_01_stac_1463481758 -->
<g id="node1" class="node">
<title>s2_league4_game2_01_stac_1463481758</title>
<g id="a_node1"><a xlink:title="1 &#160;ztime &#160;morning...">
<ellipse fill="black" stroke="black" cx="30" cy="-869.5" rx="3.5" ry="3.5"/>
</a>
</g>
</g>
<!-- 1_0 -->
<!-- s2_league4_game2_01_stac_1463481758&#45;&gt;1_0 -->
<!-- s2_league4_game2_01_stac_1399316472 -->
<g id="node3" class="node">
<title>s2_league4_game2_01_stac_1399316472</title>
<g id="a_node3"><a xlink:title="2 &#160;Shawnus &#160;hey">
<ellipse fill="black" stroke="black" cx="30" cy="-844.5" rx="3.5" ry="3.5"/>
</a>
</g>
</g>
<!-- s2_league4_game2_01_stac_1463481758&#45;&gt;s2_league4_game2_01_stac_1399316472 -->
<g id="edge52" class="edge">
<title>s2_league4_game2_01_stac_1463481758&#45;&gt;s2_league4_game2_01_stac_1399316472</title>
<g id="a_edge52"><a xlink:title="Acknowledgement">
<path fill="none" stroke="#12ffff" d="M30,-865.68C30,-862.58 30,-857.47 30,-853.16"/>
<polygon fill="#12ffff" stroke="#12ffff" points="31.75,-853.06 30,-848.06 28.25,-853.06 31.75,-853.06"/>
</a>
</g>
</g>
<!-- 2_0 -->
<!-- s2_league4_game2_01_stac_1399316472&#45;&gt;2_0 -->
<!-- s2_league4_game2_01_stac_1399316475 -->
<g id="node5" class="node">
<title>s2_league4_game2_01_stac_1399316475</title>
<g id="a_node5"><a xlink:title="3 &#160;Shawnus &#160;good morning">
<ellipse fill="black" stroke="black" cx="46" cy="-819.5" rx="3.5" ry="3.5"/>
</a>
</g>
</g>
<!-- s2_league4_game2_01_stac_1399316472&#45;&gt;s2_league4_game2_01_stac_1399316475 -->
<g id="edge53" class="edge">
<title>s2_league4_game2_01_stac_1399316472&#45;&gt;s2_league4_game2_01_stac_1399316475</title>
<g id="a_edge53"><a xlink:title="Comment">
<path fill="none" stroke="#ff8200" d="M31.71,-841.04C33.99,-837.77 38.09,-831.87 41.32,-827.23"/>
<polygon fill="#ff8200" stroke="#ff8200" points="42.93,-827.98 44.35,-822.87 40.06,-825.98 42.93,-827.98"/>
</a>
</g>
</g>
<!-- s2_league4_game2_01_stac_1399316478 -->
<g id="node7" class="node">
<title>s2_league4_game2_01_stac_1399316478</title>
<g id="a_node7"><a xlink:title="4 &#160;ztime &#160;which part of the country are you in?">
<ellipse fill="black" stroke="black" cx="41" cy="-794.5" rx="3.5" ry="3.5"/>
</a>
</g>
</g>
<!-- s2_league4_game2_01_stac_1399316472&#45;&gt;s2_league4_game2_01_stac_1399316478 -->
<g id="edge54" class="edge">
<title>s2_league4_game2_01_stac_1399316472&#45;&gt;s2_league4_game2_01_stac_1399316478</title>
<g id="a_edge54"><a xlink:title="Clarification_question">
<path fill="none" stroke="#ff40d1" d="M30.22,-840.89C30.66,-835.97 31.83,-825 34,-816 35.07,-811.58 36.69,-806.76 38.1,-802.91"/>
<polygon fill="#ff40d1" stroke="#ff40d1" points="39.78,-803.4 39.94,-798.11 36.52,-802.15 39.78,-803.4"/>
</a>
</g>
</g>
<!-- 3_0 -->
<!-- s2_league4_game2_01_stac_1399316475&#45;&gt;3_0 -->
<!-- s2_league4_game2_01_stac_1399316475&#45;&gt;s2_league4_game2_01_stac_1399316478 -->
<!-- 4_0 -->
<!-- s2_league4_game2_01_stac_1399316478&#45;&gt;4_0 -->
<!-- s2_league4_game2_01_stac_1399316481 -->
<g id="node9" class="node">
<title>s2_league4_game2_01_stac_1399316481</title>
<g id="a_node9"><a xlink:title="5 &#160;somdechn &#160;NZ bro...">
<ellipse fill="black" stroke="black" cx="90" cy="-769.5" rx="3.5" ry="3.5"/>
</a>
</g>
</g>
<!-- s2_league4_game2_01_stac_1399316478&#45;&gt;s2_league4_game2_01_stac_1399316481 -->
<g id="edge55" class="edge">
<title>s2_league4_game2_01_stac_1399316478&#45;&gt;s2_league4_game2_01_stac_1399316481</title>
<g id="a_edge55"><a xlink:title="Question_answer_pair">
<path fill="none" stroke="#12ffff" d="M43.92,-792.13C51.43,-788.61 71.59,-779.14 82.59,-773.98"/>
<polygon fill="#12ffff" stroke="#12ffff" points="83.38,-775.54 87.16,-771.83 81.89,-772.37 83.38,-775.54"/>
</a>
</g>
</g>
<!-- s2_league4_game2_01_stac_1399316484 -->
<g id="node11" class="node">
<title>s2_league4_game2_01_stac_1399316484</title>
<g id="a_node11"><a xlink:title="6 &#160;Shawnus &#160;London">
<ellipse fill="black" stroke="black" cx="60" cy="-744.5" rx="3.5" ry="3.5"/>
</a>
</g>
</g>
<!-- s2_league4_game2_01_stac_1399316478&#45;&gt;s2_league4_game2_01_stac_1399316484 -->
<g id="edge56" class="edge">
<title>s2_league4_game2_01_stac_1399316478&#45;&gt;s2_league4_game2_01_stac_1399316484</title>
<g id="a_edge56"><a xlink:title="Question_answer_pair">
<path fill="none" stroke="#12ffff" d="M42.02,-790.92C44.8,-783.89 52.6,-764.19 56.96,-753.18"/>
<polygon fill="#12ffff" stroke="#12ffff" points="58.67,-753.63 58.88,-748.33 55.41,-752.34 58.67,-753.63"/>
</a>
</g>
</g>
<!-- s2_league4_game2_01_stac_1399316487 -->
<g id="node13" class="node">
<title>s2_league4_game2_01_stac_1399316487</title>
<g id="a_node13"><a xlink:title="7 &#160;ztime &#160;Edinburgh">
<ellipse fill="black" stroke="black" cx="59" cy="-719.5" rx="3.5" ry="3.5"/>
</a>
</g>
</g>
<!-- s2_league4_game2_01_stac_1399316478&#45;&gt;s2_league4_game2_01_stac_1399316487 -->
<g id="edge57" class="edge">
<title>s2_league4_game2_01_stac_1399316478&#45;&gt;s2_league4_game2_01_stac_1399316487</title>
<g id="a_edge57"><a xlink:title="Elaboration">
<path fill="none" stroke="#a621c7" d="M41.03,-790.57C41.17,-782.48 42.12,-759.2 48,-741 49.57,-736.14 52.28,-731.08 54.61,-727.2"/>
<polygon fill="#a621c7" stroke="#a621c7" points="56.22,-727.93 57.42,-722.77 53.26,-726.06 56.22,-727.93"/>
</a>
</g>
</g>
<!-- s2_league4_game2_01_stac_1399316502 -->
<g id="node67" class="node">
<title>s2_league4_game2_01_stac_1399316502</title>
<g id="a_node67"><a xlink:title="12 &#160;ztime &#160;right..">
<ellipse fill="black" stroke="black" cx="80" cy="-594.5" rx="3.5" ry="3.5"/>
</a>
</g>
</g>
<!-- s2_league4_game2_01_stac_1399316478&#45;&gt;s2_league4_game2_01_stac_1399316502 -->
<g id="edge63" class="edge">
<title>s2_league4_game2_01_stac_1399316478&#45;&gt;s2_league4_game2_01_stac_1399316502</title>
<g id="a_edge63"><a xlink:title="Acknowledgement">
<path fill="none" stroke="#12ffff" d="M39.12,-791.48C33.46,-785.21 17,-765.25 17,-745.5 17,-745.5 17,-745.5 17,-643.5 17,-616.32 54.56,-602.5 71.67,-597.61"/>
<polygon fill="#12ffff" stroke="#12ffff" points="72.24,-599.27 76.61,-596.29 71.33,-595.89 72.24,-599.27"/>
</a>
</g>
</g>
<!-- 5_0 -->
<!-- s2_league4_game2_01_stac_1399316481&#45;&gt;5_0 -->
<!-- s2_league4_game2_01_stac_1399316481&#45;&gt;s2_league4_game2_01_stac_1399316484 -->
<!-- s2_league4_game2_01_stac_1399316493 -->
<g id="node17" class="node">
<title>s2_league4_game2_01_stac_1399316493</title>
<g id="a_node17"><a xlink:title="9 &#160;ztime &#160;Welcome NZ">
<ellipse fill="black" stroke="black" cx="80" cy="-669.5" rx="3.5" ry="3.5"/>
</a>
</g>
</g>
<!-- s2_league4_game2_01_stac_1399316481&#45;&gt;s2_league4_game2_01_stac_1399316493 -->
<g id="edge59" class="edge">
<title>s2_league4_game2_01_stac_1399316481&#45;&gt;s2_league4_game2_01_stac_1399316493</title>
<g id="a_edge59"><a xlink:title="Comment">
<path fill="none" stroke="#ff8200" d="M91.23,-766.19C93.14,-762.48 96.7,-754.91 98,-748 100.79,-733.18 115.53,-740.81 97,-691 94.77,-685.02 90,-679.53 86.08,-675.73"/>
<polygon fill="#ff8200" stroke="#ff8200" points="87.21,-674.39 82.32,-672.35 84.86,-676.99 87.21,-674.39"/>
</a>
</g>
</g>
<!-- s2_league4_game2_01_stac_1399316496 -->
<g id="node19" class="node">
<title>s2_league4_game2_01_stac_1399316496</title>
<g id="a_node19"><a xlink:title="10 &#160;Shawnus &#160;hello NZ">
<ellipse fill="black" stroke="black" cx="100" cy="-644.5" rx="3.5" ry="3.5"/>
</a>
</g>
</g>
<!-- s2_league4_game2_01_stac_1399316481&#45;&gt;s2_league4_game2_01_stac_1399316496 -->
<g id="edge60" class="edge">
<title>s2_league4_game2_01_stac_1399316481&#45;&gt;s2_league4_game2_01_stac_1399316496</title>
<g id="a_edge60"><a xlink:title="Acknowledgement">
<path fill="none" stroke="#12ffff" d="M92.49,-767.03C100.95,-761.85 128,-743.46 128,-720.5 128,-720.5 128,-720.5 128,-693.5 128,-676.24 114.33,-659.67 106.09,-651.25"/>
<polygon fill="#12ffff" stroke="#12ffff" points="107,-649.69 102.2,-647.45 104.56,-652.2 107,-649.69"/>
</a>
</g>
</g>
<!-- 6_0 -->
<!-- s2_league4_game2_01_stac_1399316484&#45;&gt;6_0 -->
<!-- s2_league4_game2_01_stac_1399316484&#45;&gt;s2_league4_game2_01_stac_1399316487 -->
<!-- 7_0 -->
<!-- s2_league4_game2_01_stac_1399316487&#45;&gt;7_0 -->
<!-- s2_league4_game2_01_stac_1399316490 -->
<g id="node15" class="node">
<title>s2_league4_game2_01_stac_1399316490</title>
<g id="a_node15"><a xlink:title="8 &#160;Shawnus &#160;lovely place">
<ellipse fill="black" stroke="black" cx="59" cy="-694.5" rx="3.5" ry="3.5"/>
</a>
</g>
</g>
<!-- s2_league4_game2_01_stac_1399316487&#45;&gt;s2_league4_game2_01_stac_1399316490 -->
<g id="edge58" class="edge">
<title>s2_league4_game2_01_stac_1399316487&#45;&gt;s2_league4_game2_01_stac_1399316490</title>
<g id="a_edge58"><a xlink:title="Comment">
<path fill="none" stroke="#ff8200" d="M59,-715.68C59,-712.58 59,-707.47 59,-703.16"/>
<polygon fill="#ff8200" stroke="#ff8200" points="60.75,-703.06 59,-698.06 57.25,-703.06 60.75,-703.06"/>
</a>
</g>
</g>
<!-- 8_0 -->
<!-- s2_league4_game2_01_stac_1399316490&#45;&gt;8_0 -->
<!-- s2_league4_game2_01_stac_1399316490&#45;&gt;s2_league4_game2_01_stac_1399316493 -->
<!-- s2_league4_game2_01_stac_1399316506 -->
<g id="node23" class="node">
<title>s2_league4_game2_01_stac_1399316506</title>
<g id="a_node23"><a xlink:title="13 &#160;Shawnus &#160;I did the marathon there this year (scotland, not NZ)">
<ellipse fill="black" stroke="black" cx="59" cy="-569.5" rx="3.5" ry="3.5"/>
</a>
</g>
</g>
<!-- s2_league4_game2_01_stac_1399316490&#45;&gt;s2_league4_game2_01_stac_1399316506 -->
<g id="edge65" class="edge">
<title>s2_league4_game2_01_stac_1399316490&#45;&gt;s2_league4_game2_01_stac_1399316506</title>
<g id="a_edge65"><a xlink:title="Elaboration">
<path fill="none" stroke="#a621c7" d="M58.82,-690.9C58.32,-683.69 57,-662.85 57,-645.5 57,-645.5 57,-645.5 57,-618.5 57,-604.27 57.89,-587.69 58.48,-578.21"/>
<polygon fill="#a621c7" stroke="#a621c7" points="60.23,-578.2 58.82,-573.1 56.74,-577.97 60.23,-578.2"/>
</a>
</g>
</g>
<!-- 9_0 -->
<!-- s2_league4_game2_01_stac_1399316493&#45;&gt;9_0 -->
<!-- s2_league4_game2_01_stac_1399316493&#45;&gt;s2_league4_game2_01_stac_1399316496 -->
<!-- s2_league4_game2_01_stac_1399316499 -->
<g id="node21" class="node">
<title>s2_league4_game2_01_stac_1399316499</title>
<g id="a_node21"><a xlink:title="11 &#160;somdechn &#160;Yrahhh &#160;Hi all">
<ellipse fill="black" stroke="black" cx="80" cy="-619.5" rx="3.5" ry="3.5"/>
</a>
</g>
</g>
<!-- s2_league4_game2_01_stac_1399316493&#45;&gt;s2_league4_game2_01_stac_1399316499 -->
<g id="edge61" class="edge">
<title>s2_league4_game2_01_stac_1399316493&#45;&gt;s2_league4_game2_01_stac_1399316499</title>
<g id="a_edge61"><a xlink:title="Comment">
<path fill="none" stroke="#ff8200" d="M80,-665.92C80,-658.95 80,-639.55 80,-628.49"/>
<polygon fill="#ff8200" stroke="#ff8200" points="81.75,-628.33 80,-623.33 78.25,-628.33 81.75,-628.33"/>
</a>
</g>
</g>
<!-- 10_0 -->
<!-- s2_league4_game2_01_stac_1399316496&#45;&gt;10_0 -->
<!-- s2_league4_game2_01_stac_1399316496&#45;&gt;s2_league4_game2_01_stac_1399316499 -->
<g id="edge62" class="edge">
<title>s2_league4_game2_01_stac_1399316496&#45;&gt;s2_league4_game2_01_stac_1399316499</title>
<g id="a_edge62"><a xlink:title="Comment">
<path fill="none" stroke="#ff8200" d="M98.15,-641.38C95.31,-638.11 89.75,-631.71 85.52,-626.85"/>
<polygon fill="#ff8200" stroke="#ff8200" points="86.74,-625.59 82.14,-622.96 84.1,-627.88 86.74,-625.59"/>
</a>
</g>
</g>
<!-- 11_0 -->
<!-- s2_league4_game2_01_stac_1399316499&#45;&gt;11_0 -->
<!-- s2_league4_game2_01_stac_1399316499&#45;&gt;s2_league4_game2_01_stac_1399316502 -->
<!-- 13_0 -->
<!-- s2_league4_game2_01_stac_1399316506&#45;&gt;13_0 -->
<!-- s2_league4_game2_01_stac_1399316509 -->
<g id="node25" class="node">
<title>s2_league4_game2_01_stac_1399316509</title>
<g id="a_node25"><a xlink:title="14 &#160;ztime &#160;wooo... impressive">
<ellipse fill="black" stroke="black" cx="37" cy="-544.5" rx="3.5" ry="3.5"/>
</a>
</g>
</g>
<!-- s2_league4_game2_01_stac_1399316506&#45;&gt;s2_league4_game2_01_stac_1399316509 -->
<g id="edge66" class="edge">
<title>s2_league4_game2_01_stac_1399316506&#45;&gt;s2_league4_game2_01_stac_1399316509</title>
<g id="a_edge66"><a xlink:title="Comment">
<path fill="none" stroke="#ff8200" d="M56.97,-566.38C53.84,-563.11 47.72,-556.71 43.08,-551.85"/>
<polygon fill="#ff8200" stroke="#ff8200" points="44.08,-550.36 39.35,-547.96 41.55,-552.78 44.08,-550.36"/>
</a>
</g>
</g>
<!-- s2_league4_game2_01_stac_1399316512 -->
<g id="node27" class="node">
<title>s2_league4_game2_01_stac_1399316512</title>
<g id="a_node27"><a xlink:title="15 &#160;Shawnus &#160;penis shaped medal for all...">
<ellipse fill="black" stroke="black" cx="37" cy="-519.5" rx="3.5" ry="3.5"/>
</a>
</g>
</g>
<!-- s2_league4_game2_01_stac_1399316506&#45;&gt;s2_league4_game2_01_stac_1399316512 -->
<g id="edge67" class="edge">
<title>s2_league4_game2_01_stac_1399316506&#45;&gt;s2_league4_game2_01_stac_1399316512</title>
<g id="a_edge67"><a xlink:title="Comment">
<path fill="none" stroke="#ff8200" d="M58.37,-565.84C57.12,-560.83 54.11,-549.72 50,-541 47.67,-536.07 44.38,-530.89 41.69,-526.97"/>
<polygon fill="#ff8200" stroke="#ff8200" points="43.04,-525.85 38.72,-522.79 40.19,-527.88 43.04,-525.85"/>
</a>
</g>
</g>
<!-- 14_0 -->
<!-- s2_league4_game2_01_stac_1399316509&#45;&gt;14_0 -->
<!-- s2_league4_game2_01_stac_1399316509&#45;&gt;s2_league4_game2_01_stac_1399316512 -->
<!-- 15_0 -->
<!-- s2_league4_game2_01_stac_1399316512&#45;&gt;15_0 -->
<!-- s2_league4_game2_01_stac_1399316515 -->
<g id="node29" class="node">
<title>s2_league4_game2_01_stac_1399316515</title>
<g id="a_node29"><a xlink:title="16 &#160;somdechn &#160;Wow... that;s cool.">
<ellipse fill="black" stroke="black" cx="60" cy="-494.5" rx="3.5" ry="3.5"/>
</a>
</g>
</g>
<!-- s2_league4_game2_01_stac_1399316512&#45;&gt;s2_league4_game2_01_stac_1399316515 -->
<g id="edge68" class="edge">
<title>s2_league4_game2_01_stac_1399316512&#45;&gt;s2_league4_game2_01_stac_1399316515</title>
<g id="a_edge68"><a xlink:title="Comment">
<path fill="none" stroke="#ff8200" d="M39.12,-516.38C42.46,-513.04 49.05,-506.45 53.94,-501.56"/>
<polygon fill="#ff8200" stroke="#ff8200" points="55.24,-502.73 57.54,-497.96 52.77,-500.26 55.24,-502.73"/>
</a>
</g>
</g>
<!-- s2_league4_game2_01_stac_1399316518 -->
<g id="node31" class="node">
<title>s2_league4_game2_01_stac_1399316518</title>
<g id="a_node31"><a xlink:title="17 &#160;ztime &#160;err....">
<ellipse fill="black" stroke="black" cx="40" cy="-469.5" rx="3.5" ry="3.5"/>
</a>
</g>
</g>
<!-- s2_league4_game2_01_stac_1399316512&#45;&gt;s2_league4_game2_01_stac_1399316518 -->
<g id="edge69" class="edge">
<title>s2_league4_game2_01_stac_1399316512&#45;&gt;s2_league4_game2_01_stac_1399316518</title>
<g id="a_edge69"><a xlink:title="Comment">
<path fill="none" stroke="#ff8200" d="M37.16,-515.92C37.6,-508.95 38.81,-489.55 39.5,-478.49"/>
<polygon fill="#ff8200" stroke="#ff8200" points="41.26,-478.43 39.82,-473.33 37.76,-478.21 41.26,-478.43"/>
</a>
</g>
</g>
<!-- s2_league4_game2_01_stac_1399316524 -->
<g id="node35" class="node">
<title>s2_league4_game2_01_stac_1399316524</title>
<g id="a_node35"><a xlink:title="19 &#160;ztime &#160;impressive medal?">
<ellipse fill="black" stroke="black" cx="39" cy="-419.5" rx="3.5" ry="3.5"/>
</a>
</g>
</g>
<!-- s2_league4_game2_01_stac_1399316512&#45;&gt;s2_league4_game2_01_stac_1399316524 -->
<g id="edge71" class="edge">
<title>s2_league4_game2_01_stac_1399316512&#45;&gt;s2_league4_game2_01_stac_1399316524</title>
<g id="a_edge71"><a xlink:title="Clarification_question">
<path fill="none" stroke="#ff40d1" d="M36.09,-516.05C32.6,-506.36 20.74,-469.9 28,-441 29.25,-436.04 31.95,-430.98 34.36,-427.13"/>
<polygon fill="#ff40d1" stroke="#ff40d1" points="35.97,-427.87 37.31,-422.74 33.07,-425.91 35.97,-427.87"/>
</a>
</g>
</g>
<!-- 16_0 -->
<!-- s2_league4_game2_01_stac_1399316515&#45;&gt;16_0 -->
<!-- s2_league4_game2_01_stac_1399316515&#45;&gt;s2_league4_game2_01_stac_1399316518 -->
<!-- 17_0 -->
<!-- s2_league4_game2_01_stac_1399316518&#45;&gt;17_0 -->
<!-- s2_league4_game2_01_stac_1399316521 -->
<g id="node33" class="node">
<title>s2_league4_game2_01_stac_1399316521</title>
<g id="a_node33"><a xlink:title="18 &#160;Shawnus &#160;indeed,..what i said when they gave it to me">
<ellipse fill="black" stroke="black" cx="40" cy="-444.5" rx="3.5" ry="3.5"/>
</a>
</g>
</g>
<!-- s2_league4_game2_01_stac_1399316518&#45;&gt;s2_league4_game2_01_stac_1399316521 -->
<g id="edge70" class="edge">
<title>s2_league4_game2_01_stac_1399316518&#45;&gt;s2_league4_game2_01_stac_1399316521</title>
<g id="a_edge70"><a xlink:title="Acknowledgement">
<path fill="none" stroke="#12ffff" d="M40,-465.68C40,-462.58 40,-457.47 40,-453.16"/>
<polygon fill="#12ffff" stroke="#12ffff" points="41.75,-453.06 40,-448.06 38.25,-453.06 41.75,-453.06"/>
</a>
</g>
</g>
<!-- 18_0 -->
<!-- s2_league4_game2_01_stac_1399316521&#45;&gt;18_0 -->
<!-- s2_league4_game2_01_stac_1399316521&#45;&gt;s2_league4_game2_01_stac_1399316524 -->
<!-- 19_0 -->
<!-- s2_league4_game2_01_stac_1399316524&#45;&gt;19_0 -->
<!-- s2_league4_game2_01_stac_1399316527 -->
<g id="node37" class="node">
<title>s2_league4_game2_01_stac_1399316527</title>
<g id="a_node37"><a xlink:title="20 &#160;Shawnus &#160;below average proportion but was metal...">
<ellipse fill="black" stroke="black" cx="39" cy="-394.5" rx="3.5" ry="3.5"/>
</a>
</g>
</g>
<!-- s2_league4_game2_01_stac_1399316524&#45;&gt;s2_league4_game2_01_stac_1399316527 -->
<g id="edge72" class="edge">
<title>s2_league4_game2_01_stac_1399316524&#45;&gt;s2_league4_game2_01_stac_1399316527</title>
<g id="a_edge72"><a xlink:title="Question_answer_pair">
<path fill="none" stroke="#12ffff" d="M39,-415.68C39,-412.58 39,-407.47 39,-403.16"/>
<polygon fill="#12ffff" stroke="#12ffff" points="40.75,-403.06 39,-398.06 37.25,-403.06 40.75,-403.06"/>
</a>
</g>
</g>
<!-- 20_0 -->
<!-- s2_league4_game2_01_stac_1399316527&#45;&gt;20_0 -->
<!-- s2_league4_game2_01_stac_1399316530 -->
<g id="node39" class="node">
<title>s2_league4_game2_01_stac_1399316530</title>
<g id="a_node39"><a xlink:title="21 &#160;somdechn &#160;Anyway.........">
<ellipse fill="black" stroke="black" cx="73" cy="-369.5" rx="3.5" ry="3.5"/>
</a>
</g>
</g>
<!-- s2_league4_game2_01_stac_1399316527&#45;&gt;s2_league4_game2_01_stac_1399316530 -->
<!-- s2_league4_game2_01_stac_1399316533 -->
<g id="node41" class="node">
<title>s2_league4_game2_01_stac_1399316533</title>
<g id="a_node41"><a xlink:title="22 &#160;ztime &#160;I bet you all looked like a bunch of dicks...">
<ellipse fill="black" stroke="black" cx="38" cy="-344.5" rx="3.5" ry="3.5"/>
</a>
</g>
</g>
<!-- s2_league4_game2_01_stac_1399316527&#45;&gt;s2_league4_game2_01_stac_1399316533 -->
<g id="edge74" class="edge">
<title>s2_league4_game2_01_stac_1399316527&#45;&gt;s2_league4_game2_01_stac_1399316533</title>
<g id="a_edge74"><a xlink:title="Comment">
<path fill="none" stroke="#ff8200" d="M38.95,-390.92C38.8,-383.95 38.4,-364.55 38.17,-353.49"/>
<polygon fill="#ff8200" stroke="#ff8200" points="39.91,-353.29 38.06,-348.33 36.41,-353.37 39.91,-353.29"/>
</a>
</g>
</g>
<!-- 21_0 -->
<!-- s2_league4_game2_01_stac_1399316530&#45;&gt;21_0 -->
<!-- s2_league4_game2_01_stac_1399316530&#45;&gt;s2_league4_game2_01_stac_1399316533 -->
<!-- s2_league4_game2_01_stac_1399316539 -->
<g id="node45" class="node">
<title>s2_league4_game2_01_stac_1399316539</title>
<g id="a_node45"><a xlink:title="24 &#160;ztime &#160;yer.. shall we..">
<ellipse fill="black" stroke="black" cx="63" cy="-294.5" rx="3.5" ry="3.5"/>
</a>
</g>
</g>
<!-- s2_league4_game2_01_stac_1399316530&#45;&gt;s2_league4_game2_01_stac_1399316539 -->
<g id="edge76" class="edge">
<title>s2_league4_game2_01_stac_1399316530&#45;&gt;s2_league4_game2_01_stac_1399316539</title>
<g id="a_edge76"><a xlink:title="Acknowledgement">
<path fill="none" stroke="#12ffff" d="M73.71,-366.03C75.8,-358.39 81.4,-334.59 76,-316 74.48,-310.76 71.18,-305.58 68.28,-301.74"/>
<polygon fill="#12ffff" stroke="#12ffff" points="69.5,-300.47 64.99,-297.69 66.78,-302.67 69.5,-300.47"/>
</a>
</g>
</g>
<!-- 22_0 -->
<!-- s2_league4_game2_01_stac_1399316533&#45;&gt;22_0 -->
<!-- s2_league4_game2_01_stac_1399316536 -->
<g id="node43" class="node">
<title>s2_league4_game2_01_stac_1399316536</title>
<g id="a_node43"><a xlink:title="23 &#160;Shawnus &#160;hahaha">
<ellipse fill="black" stroke="black" cx="63" cy="-319.5" rx="3.5" ry="3.5"/>
</a>
</g>
</g>
<!-- s2_league4_game2_01_stac_1399316533&#45;&gt;s2_league4_game2_01_stac_1399316536 -->
<g id="edge75" class="edge">
<title>s2_league4_game2_01_stac_1399316533&#45;&gt;s2_league4_game2_01_stac_1399316536</title>
<g id="a_edge75"><a xlink:title="Comment">
<path fill="none" stroke="#ff8200" d="M40.31,-341.38C44.08,-337.9 51.7,-330.89 57.07,-325.96"/>
<polygon fill="#ff8200" stroke="#ff8200" points="58.42,-327.09 60.91,-322.42 56.05,-324.52 58.42,-327.09"/>
</a>
</g>
</g>
<!-- 23_0 -->
<!-- s2_league4_game2_01_stac_1399316536&#45;&gt;23_0 -->
<!-- s2_league4_game2_01_stac_1399316536&#45;&gt;s2_league4_game2_01_stac_1399316539 -->
<!-- 24_0 -->
<!-- s2_league4_game2_01_stac_1399316539&#45;&gt;24_0 -->
<!-- s2_league4_game2_01_stac_1399316542 -->
<g id="node47" class="node">
<title>s2_league4_game2_01_stac_1399316542</title>
<g id="a_node47"><a xlink:title="25 &#160;Shawnus &#160;go for it">
<ellipse fill="black" stroke="black" cx="63" cy="-269.5" rx="3.5" ry="3.5"/>
</a>
</g>
</g>
<!-- s2_league4_game2_01_stac_1399316539&#45;&gt;s2_league4_game2_01_stac_1399316542 -->
<g id="edge77" class="edge">
<title>s2_league4_game2_01_stac_1399316539&#45;&gt;s2_league4_game2_01_stac_1399316542</title>
<g id="a_edge77"><a xlink:title="Question_answer_pair">
<path fill="none" stroke="#12ffff" d="M63,-290.68C63,-287.58 63,-282.47 63,-278.16"/>
<polygon fill="#12ffff" stroke="#12ffff" points="64.75,-278.06 63,-273.06 61.25,-278.06 64.75,-278.06"/>
</a>
</g>
</g>
<!-- s2_league4_game2_01_stac_1399316545 -->
<g id="node49" class="node">
<title>s2_league4_game2_01_stac_1399316545</title>
<g id="a_node49"><a xlink:title="26 &#160;somdechn &#160;Yes..">
<ellipse fill="black" stroke="black" cx="40" cy="-244.5" rx="3.5" ry="3.5"/>
</a>
</g>
</g>
<!-- s2_league4_game2_01_stac_1399316539&#45;&gt;s2_league4_game2_01_stac_1399316545 -->
<g id="edge78" class="edge">
<title>s2_league4_game2_01_stac_1399316539&#45;&gt;s2_league4_game2_01_stac_1399316545</title>
<g id="a_edge78"><a xlink:title="Question_answer_pair">
<path fill="none" stroke="#12ffff" d="M61.48,-291.16C59.08,-287.42 54.33,-279.82 51,-273 47.75,-266.35 44.67,-258.48 42.61,-252.87"/>
<polygon fill="#12ffff" stroke="#12ffff" points="44.24,-252.25 40.91,-248.13 40.95,-253.43 44.24,-252.25"/>
</a>
</g>
</g>
<!-- 25_0 -->
<!-- s2_league4_game2_01_stac_1399316542&#45;&gt;25_0 -->
<!-- s2_league4_game2_01_stac_1399316542&#45;&gt;s2_league4_game2_01_stac_1399316545 -->
<g id="edge79" class="edge">
<title>s2_league4_game2_01_stac_1399316542&#45;&gt;s2_league4_game2_01_stac_1399316545</title>
<g id="a_edge79"><a xlink:title="Acknowledgement">
<path fill="none" stroke="#12ffff" d="M60.88,-266.38C57.54,-263.04 50.95,-256.45 46.06,-251.56"/>
<polygon fill="#12ffff" stroke="#12ffff" points="47.23,-250.26 42.46,-247.96 44.76,-252.73 47.23,-250.26"/>
</a>
</g>
</g>
<!-- 26_0 -->
<!-- s2_league4_game2_01_stac_1399316545&#45;&gt;26_0 -->
<!-- s2_league4_game2_01_stac_1399316548 -->
<g id="node51" class="node">
<title>s2_league4_game2_01_stac_1399316548</title>
<g id="a_node51"><a xlink:title="27 &#160;ztime &#160;go nz">
<ellipse fill="black" stroke="black" cx="40" cy="-219.5" rx="3.5" ry="3.5"/>
</a>
</g>
</g>
<!-- s2_league4_game2_01_stac_1399316545&#45;&gt;s2_league4_game2_01_stac_1399316548 -->
<g id="edge80" class="edge">
<title>s2_league4_game2_01_stac_1399316545&#45;&gt;s2_league4_game2_01_stac_1399316548</title>
<g id="a_edge80"><a xlink:title="Acknowledgement">
<path fill="none" stroke="#12ffff" d="M40,-240.68C40,-237.58 40,-232.47 40,-228.16"/>
<polygon fill="#12ffff" stroke="#12ffff" points="41.75,-228.06 40,-223.06 38.25,-228.06 41.75,-228.06"/>
</a>
</g>
</g>
<!-- 27_0 -->
<!-- s2_league4_game2_01_stac_1399316548&#45;&gt;27_0 -->
<!-- s2_league4_game2_01_stac_1399316551 -->
<g id="node53" class="node">
<title>s2_league4_game2_01_stac_1399316551</title>
<g id="a_node53"><a xlink:title="28 &#160;ztime &#160;damn">
<ellipse fill="black" stroke="black" cx="40" cy="-194.5" rx="3.5" ry="3.5"/>
</a>
</g>
</g>
<!-- s2_league4_game2_01_stac_1399316548&#45;&gt;s2_league4_game2_01_stac_1399316551 -->
<g id="edge81" class="edge">
<title>s2_league4_game2_01_stac_1399316548&#45;&gt;s2_league4_game2_01_stac_1399316551</title>
<g id="a_edge81"><a xlink:title="Comment">
<path fill="none" stroke="#ff8200" d="M40,-215.68C40,-212.58 40,-207.47 40,-203.16"/>
<polygon fill="#ff8200" stroke="#ff8200" points="41.75,-203.06 40,-198.06 38.25,-203.06 41.75,-203.06"/>
</a>
</g>
</g>
<!-- 28_0 -->
<!-- s2_league4_game2_01_stac_1399316551&#45;&gt;28_0 -->
<!-- s2_league4_game2_01_stac_1399316554 -->
<g id="node55" class="node">
<title>s2_league4_game2_01_stac_1399316554</title>
<g id="a_node55"><a xlink:title="29 &#160;Shawnus &#160;misplaced/">
<ellipse fill="black" stroke="black" cx="40" cy="-169.5" rx="3.5" ry="3.5"/>
</a>
</g>
</g>
<!-- s2_league4_game2_01_stac_1399316551&#45;&gt;s2_league4_game2_01_stac_1399316554 -->
<g id="edge82" class="edge">
<title>s2_league4_game2_01_stac_1399316551&#45;&gt;s2_league4_game2_01_stac_1399316554</title>
<g id="a_edge82"><a xlink:title="Comment">
<path fill="none" stroke="#ff8200" d="M40,-190.68C40,-187.58 40,-182.47 40,-178.16"/>
<polygon fill="#ff8200" stroke="#ff8200" points="41.75,-178.06 40,-173.06 38.25,-178.06 41.75,-178.06"/>
</a>
</g>
</g>
<!-- s2_league4_game2_01_stac_1399316560 -->
<g id="node59" class="node">
<title>s2_league4_game2_01_stac_1399316560</title>
<g id="a_node59"><a xlink:title="31 &#160;somdechn &#160;Need to undo are you?">
<ellipse fill="black" stroke="black" cx="37" cy="-119.5" rx="3.5" ry="3.5"/>
</a>
</g>
</g>
<!-- s2_league4_game2_01_stac_1399316551&#45;&gt;s2_league4_game2_01_stac_1399316560 -->
<g id="edge84" class="edge">
<title>s2_league4_game2_01_stac_1399316551&#45;&gt;s2_league4_game2_01_stac_1399316560</title>
<g id="a_edge84"><a xlink:title="Clarification_question">
<path fill="none" stroke="#ff40d1" d="M38.16,-191.29C35.32,-187.71 29.99,-180.32 28,-173 24.28,-159.27 25.08,-154.92 28,-141 29.01,-136.19 31.22,-131.13 33.2,-127.24"/>
<polygon fill="#ff40d1" stroke="#ff40d1" points="34.76,-128.02 35.61,-122.79 31.69,-126.35 34.76,-128.02"/>
</a>
</g>
</g>
<!-- 29_0 -->
<!-- s2_league4_game2_01_stac_1399316554&#45;&gt;29_0 -->
<!-- s2_league4_game2_01_stac_1399316557 -->
<g id="node57" class="node">
<title>s2_league4_game2_01_stac_1399316557</title>
<g id="a_node57"><a xlink:title="30 &#160;Shawnus &#160;?">
<ellipse fill="black" stroke="black" cx="40" cy="-144.5" rx="3.5" ry="3.5"/>
</a>
</g>
</g>
<!-- s2_league4_game2_01_stac_1399316554&#45;&gt;s2_league4_game2_01_stac_1399316557 -->
<g id="edge83" class="edge">
<title>s2_league4_game2_01_stac_1399316554&#45;&gt;s2_league4_game2_01_stac_1399316557</title>
<g id="a_edge83"><a xlink:title="Continuation">
<path fill="none" stroke="#10491b" d="M40,-165.68C40,-162.58 40,-157.47 40,-153.16"/>
<polygon fill="#10491b" stroke="#10491b" points="41.75,-153.06 40,-148.06 38.25,-153.06 41.75,-153.06"/>
</a>
</g>
</g>
<!-- s2_league4_game2_01_stac_1399316563 -->
<g id="node69" class="node">
<title>s2_league4_game2_01_stac_1399316563</title>
<g id="a_node69"><a xlink:title="32 &#160;ztime &#160;no..">
<ellipse fill="black" stroke="black" cx="56" cy="-94.5" rx="3.5" ry="3.5"/>
</a>
</g>
</g>
<!-- s2_league4_game2_01_stac_1399316554&#45;&gt;s2_league4_game2_01_stac_1399316563 -->
<g id="edge85" class="edge">
<title>s2_league4_game2_01_stac_1399316554&#45;&gt;s2_league4_game2_01_stac_1399316563</title>
<g id="a_edge85"><a xlink:title="Acknowledgement">
<path fill="none" stroke="#12ffff" d="M43.56,-167.83C51.45,-166.14 70.32,-160.87 78,-148 81.39,-142.31 82.84,-132.94 75,-116 72.19,-109.92 66.88,-104.44 62.59,-100.67"/>
<polygon fill="#12ffff" stroke="#12ffff" points="63.47,-99.13 58.5,-97.32 61.26,-101.84 63.47,-99.13"/>
</a>
</g>
</g>
<!-- 30_0 -->
<!-- s2_league4_game2_01_stac_1399316557&#45;&gt;30_0 -->
<!-- s2_league4_game2_01_stac_1399316557&#45;&gt;s2_league4_game2_01_stac_1399316560 -->
<!-- 31_0 -->
<!-- s2_league4_game2_01_stac_1399316560&#45;&gt;31_0 -->
<!-- s2_league4_game2_01_stac_1399316567 -->
<g id="node61" class="node">
<title>s2_league4_game2_01_stac_1399316567</title>
<g id="a_node61"><a xlink:title="33 &#160;ztime &#160;no it&#39;s fine..">
<ellipse fill="black" stroke="black" cx="33" cy="-69.5" rx="3.5" ry="3.5"/>
</a>
</g>
</g>
<!-- s2_league4_game2_01_stac_1399316560&#45;&gt;s2_league4_game2_01_stac_1399316567 -->
<g id="edge87" class="edge">
<title>s2_league4_game2_01_stac_1399316560&#45;&gt;s2_league4_game2_01_stac_1399316567</title>
<g id="a_edge87"><a xlink:title="Question_answer_pair">
<path fill="none" stroke="#12ffff" d="M36.78,-115.92C36.2,-108.95 34.59,-89.55 33.67,-78.49"/>
<polygon fill="#12ffff" stroke="#12ffff" points="35.4,-78.17 33.24,-73.33 31.91,-78.46 35.4,-78.17"/>
</a>
</g>
</g>
<!-- s2_league4_game2_01_stac_1399316560&#45;&gt;s2_league4_game2_01_stac_1399316563 -->
<!-- 33_0 -->
<!-- s2_league4_game2_01_stac_1399316567&#45;&gt;33_0 -->
<!-- s2_league4_game2_01_stac_1399316570 -->
<g id="node63" class="node">
<title>s2_league4_game2_01_stac_1399316570</title>
<g id="a_node63"><a xlink:title="34 &#160;Shawnus &#160;hahaha">
<ellipse fill="black" stroke="black" cx="67" cy="-44.5" rx="3.5" ry="3.5"/>
</a>
</g>
</g>
<!-- s2_league4_game2_01_stac_1399316567&#45;&gt;s2_league4_game2_01_stac_1399316570 -->
<!-- 34_0 -->
<!-- s2_league4_game2_01_stac_1399316570&#45;&gt;34_0 -->
<!-- s2_league4_game2_01_stac_1399316573 -->
<g id="node65" class="node">
<title>s2_league4_game2_01_stac_1399316573</title>
<g id="a_node65"><a xlink:title="35 &#160;somdechn &#160;Got to be mean here.">
<ellipse fill="black" stroke="black" cx="89" cy="-19.5" rx="3.5" ry="3.5"/>
</a>
</g>
</g>
<!-- s2_league4_game2_01_stac_1399316570&#45;&gt;s2_league4_game2_01_stac_1399316573 -->
<!-- 35_0 -->
<!-- s2_league4_game2_01_stac_1399316573&#45;&gt;35_0 -->
<!-- s2_league4_game2_01_stac_1399316502&#45;&gt;s2_league4_game2_01_stac_1399316506 -->
<!-- s2_league4_game2_01_stac_1399316502&#45;&gt;s2_league4_game2_01_stac_1399316530 -->
<g id="edge73" class="edge">
<title>s2_league4_game2_01_stac_1399316502&#45;&gt;s2_league4_game2_01_stac_1399316530</title>
<g id="a_edge73"><a xlink:title="Acknowledgement">
<path fill="none" stroke="#12ffff" d="M82.2,-591.55C88.8,-585.45 108,-565.95 108,-545.5 108,-545.5 108,-545.5 108,-418.5 108,-399.71 90.27,-383.35 80.05,-375.48"/>
<polygon fill="#12ffff" stroke="#12ffff" points="80.81,-373.87 75.75,-372.33 78.74,-376.7 80.81,-373.87"/>
</a>
</g>
</g>
<!-- s2_league4_game2_01_stac_1399316503 -->
<g id="node68" class="node">
<title>s2_league4_game2_01_stac_1399316503</title>
<g id="a_node68"><a xlink:title="12 &#160;ztime &#160;shall we...">
<ellipse fill="black" stroke="black" cx="105" cy="-594.5" rx="3.5" ry="3.5"/>
</a>
</g>
</g>
<!-- s2_league4_game2_01_stac_1399316502&#45;&gt;s2_league4_game2_01_stac_1399316503 -->
<g id="edge64" class="edge">
<title>s2_league4_game2_01_stac_1399316502&#45;&gt;s2_league4_game2_01_stac_1399316503</title>
<g id="a_edge64"><a xlink:title="Clarification_question">
<path fill="none" stroke="#ff40d1" d="M83.52,-594.5C87.78,-594.5 92.04,-594.5 96.3,-594.5"/>
<polygon fill="#ff40d1" stroke="#ff40d1" points="96.31,-596.25 101.31,-594.5 96.31,-592.75 96.31,-596.25"/>
</a>
</g>
</g>
<!-- s2_league4_game2_01_stac_1399316563&#45;&gt;s2_league4_game2_01_stac_1399316567 -->
<!-- s2_league4_game2_01_stac_1399316563&#45;&gt;s2_league4_game2_01_stac_1399316570 -->
<g id="edge88" class="edge">
<title>s2_league4_game2_01_stac_1399316563&#45;&gt;s2_league4_game2_01_stac_1399316570</title>
<g id="a_edge88"><a xlink:title="Comment">
<path fill="none" stroke="#ff8200" d="M56.59,-90.92C58.19,-83.95 62.64,-64.55 65.17,-53.49"/>
<polygon fill="#ff8200" stroke="#ff8200" points="66.94,-53.6 66.35,-48.33 63.53,-52.81 66.94,-53.6"/>
</a>
</g>
</g>
<!-- s2_league4_game2_01_stac_1399316563&#45;&gt;s2_league4_game2_01_stac_1399316573 -->
<g id="edge89" class="edge">
<title>s2_league4_game2_01_stac_1399316563&#45;&gt;s2_league4_game2_01_stac_1399316573</title>
<g id="a_edge89"><a xlink:title="Comment">
<path fill="none" stroke="#ff8200" d="M59.38,-92.77C66.86,-90.95 84.77,-85.44 92,-73 100.21,-58.88 95.48,-38.86 91.89,-28.08"/>
<polygon fill="#ff8200" stroke="#ff8200" points="93.45,-27.24 90.1,-23.14 90.15,-28.43 93.45,-27.24"/>
</a>
</g>
</g>
<!-- s2_league4_game2_01_stac_1399316564 -->
<g id="node70" class="node">
<title>s2_league4_game2_01_stac_1399316564</title>
<g id="a_node70"><a xlink:title="32 &#160;ztime &#160;you took the spot I was looking at...">
<ellipse fill="black" stroke="black" cx="81" cy="-94.5" rx="3.5" ry="3.5"/>
</a>
</g>
</g>
<!-- s2_league4_game2_01_stac_1399316563&#45;&gt;s2_league4_game2_01_stac_1399316564 -->
<g id="edge86" class="edge">
<title>s2_league4_game2_01_stac_1399316563&#45;&gt;s2_league4_game2_01_stac_1399316564</title>
<g id="a_edge86"><a xlink:title="Elaboration">
<path fill="none" stroke="#a621c7" d="M59.52,-94.5C63.78,-94.5 68.04,-94.5 72.3,-94.5"/>
<polygon fill="#a621c7" stroke="#a621c7" points="72.31,-96.25 77.31,-94.5 72.31,-92.75 72.31,-96.25"/>
</a>
</g>
</g>
</g>
</svg>
