<?xml version="1.0" encoding="UTF-8" standalone="no"?>
<!DOCTYPE svg PUBLIC "-//W3C//DTD SVG 1.1//EN"
 "http://www.w3.org/Graphics/SVG/1.1/DTD/svg11.dtd">
<!-- Generated by graphviz version 3.0.0 (20220226.1711)
 -->
<!-- Title: 1_s2_league4_game2_753 Pages: 1 -->
<svg width="93pt" height="120pt"
 viewBox="0.00 0.00 93.00 120.00" xmlns="http://www.w3.org/2000/svg" xmlns:xlink="http://www.w3.org/1999/xlink">
<g id="graph0" class="graph" transform="scale(1 1) rotate(0) translate(4 116)">
<title>1_s2_league4_game2_753</title>
<polygon fill="white" stroke="transparent" points="-4,4 -4,-116 89,-116 89,4 -4,4"/>
<g id="clust1" class="cluster">
<title>cluster_1_s2_league4_game2_753</title>
<polygon fill="none" stroke="black" points="8,-8 8,-104 77,-104 77,-8 8,-8"/>
<text text-anchor="middle" x="26.5" y="-88.8" font-family="Times,serif" font-size="14.00">753</text>
</g>
<!-- s2_league4_game2_01_stac_1399316603 -->
<g id="node1" class="node">
<title>s2_league4_game2_01_stac_1399316603</title>
<g id="a_node1"><a xlink:title="1 &#160;somdechn &#160;Ok I can give Sheep for Clay">
<ellipse fill="black" stroke="black" cx="30" cy="-69.5" rx="3.5" ry="3.5"/>
</a>
</g>
</g>
<!-- 1_0 -->
<!-- s2_league4_game2_01_stac_1399316603&#45;&gt;1_0 -->
<!-- s2_league4_game2_01_stac_1399316606 -->
<g id="node3" class="node">
<title>s2_league4_game2_01_stac_1399316606</title>
<g id="a_node3"><a xlink:title="2 &#160;ztime &#160;sorry">
<ellipse fill="black" stroke="black" cx="20" cy="-44.5" rx="3.5" ry="3.5"/>
</a>
</g>
</g>
<!-- s2_league4_game2_01_stac_1399316603&#45;&gt;s2_league4_game2_01_stac_1399316606 -->
<g id="edge4" class="edge">
<title>s2_league4_game2_01_stac_1399316603&#45;&gt;s2_league4_game2_01_stac_1399316606</title>
<g id="a_edge4"><a xlink:title="Question_answer_pair">
<path fill="none" stroke="#12ffff" d="M28.93,-66.04C27.54,-62.84 25.05,-57.12 23.06,-52.53"/>
<polygon fill="#12ffff" stroke="#12ffff" points="24.63,-51.76 21.03,-47.87 21.42,-53.16 24.63,-51.76"/>
</a>
</g>
</g>
<!-- s2_league4_game2_01_stac_1399316609 -->
<g id="node5" class="node">
<title>s2_league4_game2_01_stac_1399316609</title>
<g id="a_node5"><a xlink:title="3 &#160;Shawnus &#160;none">
<ellipse fill="black" stroke="black" cx="30" cy="-19.5" rx="3.5" ry="3.5"/>
</a>
</g>
</g>
<!-- s2_league4_game2_01_stac_1399316603&#45;&gt;s2_league4_game2_01_stac_1399316609 -->
<g id="edge5" class="edge">
<title>s2_league4_game2_01_stac_1399316603&#45;&gt;s2_league4_game2_01_stac_1399316609</title>
<g id="a_edge5"><a xlink:title="Question_answer_pair">
<path fill="none" stroke="#12ffff" d="M33.01,-67.39C39.08,-64.95 52.66,-58.53 58,-48 63.46,-37.24 47.96,-28.2 37.89,-23.66"/>
<polygon fill="#12ffff" stroke="#12ffff" points="38.55,-22.04 33.26,-21.7 37.19,-25.26 38.55,-22.04"/>
</a>
</g>
</g>
<!-- 2_0 -->
<!-- s2_league4_game2_01_stac_1399316606&#45;&gt;2_0 -->
<!-- s2_league4_game2_01_stac_1399316606&#45;&gt;s2_league4_game2_01_stac_1399316609 -->
<!-- s2_league4_game2_01_stac_1399316610 -->
<g id="node6" class="node">
<title>s2_league4_game2_01_stac_1399316610</title>
<g id="a_node6"><a xlink:title="3 &#160;Shawnus &#160;sorry">
<ellipse fill="black" stroke="black" cx="55" cy="-19.5" rx="3.5" ry="3.5"/>
</a>
</g>
</g>
<!-- s2_league4_game2_01_stac_1399316609&#45;&gt;s2_league4_game2_01_stac_1399316610 -->
<g id="edge6" class="edge">
<title>s2_league4_game2_01_stac_1399316609&#45;&gt;s2_league4_game2_01_stac_1399316610</title>
<g id="a_edge6"><a xlink:title="Comment">
<path fill="none" stroke="#ff8200" d="M33.52,-19.5C37.78,-19.5 42.04,-19.5 46.3,-19.5"/>
<polygon fill="#ff8200" stroke="#ff8200" points="46.31,-21.25 51.31,-19.5 46.31,-17.75 46.31,-21.25"/>
</a>
</g>
</g>
</g>
</svg>
