<?xml version="1.0" encoding="UTF-8" standalone="no"?>
<!DOCTYPE svg PUBLIC "-//W3C//DTD SVG 1.1//EN"
 "http://www.w3.org/Graphics/SVG/1.1/DTD/svg11.dtd">
<!-- Generated by graphviz version 3.0.0 (20220226.1711)
 -->
<!-- Title: 2_s2_league4_game2_756 Pages: 1 -->
<svg width="108pt" height="545pt"
 viewBox="0.00 0.00 108.00 545.00" xmlns="http://www.w3.org/2000/svg" xmlns:xlink="http://www.w3.org/1999/xlink">
<g id="graph0" class="graph" transform="scale(1 1) rotate(0) translate(4 541)">
<title>2_s2_league4_game2_756</title>
<polygon fill="white" stroke="transparent" points="-4,4 -4,-541 104,-541 104,4 -4,4"/>
<g id="clust1" class="cluster">
<title>cluster_2_s2_league4_game2_756</title>
<polygon fill="none" stroke="black" points="8,-8 8,-529 92,-529 92,-8 8,-8"/>
<text text-anchor="middle" x="26.5" y="-513.8" font-family="Times,serif" font-size="14.00">756</text>
</g>
<!-- s2_league4_game2_02_stac_1399316504 -->
<g id="node1" class="node">
<title>s2_league4_game2_02_stac_1399316504</title>
<g id="a_node1"><a xlink:title="1 &#160;ztime &#160;anyone want wheat?">
<ellipse fill="black" stroke="black" cx="56" cy="-494.5" rx="3.5" ry="3.5"/>
</a>
</g>
</g>
<!-- s2_league4_game2_02_stac_1399316507 -->
<g id="node2" class="node">
<title>s2_league4_game2_02_stac_1399316507</title>
<g id="a_node2"><a xlink:title="2 &#160;somdechn &#160;Yes please">
<ellipse fill="black" stroke="black" cx="33" cy="-469.5" rx="3.5" ry="3.5"/>
</a>
</g>
</g>
<!-- s2_league4_game2_02_stac_1399316504&#45;&gt;s2_league4_game2_02_stac_1399316507 -->
<g id="edge8" class="edge">
<title>s2_league4_game2_02_stac_1399316504&#45;&gt;s2_league4_game2_02_stac_1399316507</title>
<g id="a_edge8"><a xlink:title="Question_answer_pair">
<path fill="none" stroke="#12ffff" d="M53.88,-491.38C50.54,-488.04 43.95,-481.45 39.06,-476.56"/>
<polygon fill="#12ffff" stroke="#12ffff" points="40.23,-475.26 35.46,-472.96 37.76,-477.73 40.23,-475.26"/>
</a>
</g>
</g>
<!-- s2_league4_game2_02_stac_1399316510 -->
<g id="node3" class="node">
<title>s2_league4_game2_02_stac_1399316510</title>
<g id="a_node3"><a xlink:title="3 &#160;ztime &#160;I&#39;m after wood">
<ellipse fill="black" stroke="black" cx="41" cy="-444.5" rx="3.5" ry="3.5"/>
</a>
</g>
</g>
<!-- s2_league4_game2_02_stac_1399316504&#45;&gt;s2_league4_game2_02_stac_1399316510 -->
<g id="edge9" class="edge">
<title>s2_league4_game2_02_stac_1399316504&#45;&gt;s2_league4_game2_02_stac_1399316510</title>
<g id="a_edge9"><a xlink:title="Elaboration">
<path fill="none" stroke="#a621c7" d="M55.19,-490.92C53,-483.89 46.84,-464.19 43.4,-453.18"/>
<polygon fill="#a621c7" stroke="#a621c7" points="45.05,-452.58 41.89,-448.33 41.71,-453.63 45.05,-452.58"/>
</a>
</g>
</g>
<!-- s2_league4_game2_02_stac_1399316534 -->
<g id="node11" class="node">
<title>s2_league4_game2_02_stac_1399316534</title>
<g id="a_node11"><a xlink:title="11 &#160;ztime &#160;anyone want to sell sheep?">
<ellipse fill="black" stroke="black" cx="60" cy="-244.5" rx="3.5" ry="3.5"/>
</a>
</g>
</g>
<!-- s2_league4_game2_02_stac_1399316504&#45;&gt;s2_league4_game2_02_stac_1399316534 -->
<g id="edge17" class="edge">
<title>s2_league4_game2_02_stac_1399316504&#45;&gt;s2_league4_game2_02_stac_1399316534</title>
<g id="a_edge17"><a xlink:title="Continuation">
<path fill="none" stroke="#10491b" d="M57.85,-491.05C62.8,-484.23 76,-464.28 76,-445.5 76,-445.5 76,-445.5 76,-293.5 76,-278.23 68.62,-261.56 63.88,-252.43"/>
<polygon fill="#10491b" stroke="#10491b" points="65.4,-251.56 61.48,-248 62.32,-253.23 65.4,-251.56"/>
</a>
</g>
</g>
<!-- s2_league4_game2_02_stac_1399316507&#45;&gt;s2_league4_game2_02_stac_1399316510 -->
<!-- s2_league4_game2_02_stac_1399316513 -->
<g id="node4" class="node">
<title>s2_league4_game2_02_stac_1399316513</title>
<g id="a_node4"><a xlink:title="4 &#160;ztime &#160;or sheep...">
<ellipse fill="black" stroke="black" cx="48" cy="-419.5" rx="3.5" ry="3.5"/>
</a>
</g>
</g>
<!-- s2_league4_game2_02_stac_1399316510&#45;&gt;s2_league4_game2_02_stac_1399316513 -->
<g id="edge10" class="edge">
<title>s2_league4_game2_02_stac_1399316510&#45;&gt;s2_league4_game2_02_stac_1399316513</title>
<g id="a_edge10"><a xlink:title="Alternation">
<path fill="none" stroke="#10495e" d="M41.75,-441.04C42.68,-437.97 44.32,-432.6 45.68,-428.12"/>
<polygon fill="#10495e" stroke="#10495e" points="47.41,-428.45 47.19,-423.16 44.06,-427.43 47.41,-428.45"/>
</a>
</g>
</g>
<!-- s2_league4_game2_02_stac_1399316516 -->
<g id="node5" class="node">
<title>s2_league4_game2_02_stac_1399316516</title>
<g id="a_node5"><a xlink:title="5 &#160;ztime &#160;which do you want?">
<ellipse fill="black" stroke="black" cx="35" cy="-394.5" rx="3.5" ry="3.5"/>
</a>
</g>
</g>
<!-- s2_league4_game2_02_stac_1399316510&#45;&gt;s2_league4_game2_02_stac_1399316516 -->
<g id="edge11" class="edge">
<title>s2_league4_game2_02_stac_1399316510&#45;&gt;s2_league4_game2_02_stac_1399316516</title>
<g id="a_edge11"><a xlink:title="Clarification_question">
<path fill="none" stroke="#ff40d1" d="M40.18,-440.88C39.01,-437.01 36.91,-429.53 36,-423 35.07,-416.33 34.87,-408.66 34.86,-403.12"/>
<polygon fill="#ff40d1" stroke="#ff40d1" points="36.61,-403.11 34.92,-398.09 33.11,-403.07 36.61,-403.11"/>
</a>
</g>
</g>
<!-- s2_league4_game2_02_stac_1399316513&#45;&gt;s2_league4_game2_02_stac_1399316516 -->
<!-- s2_league4_game2_02_stac_1399316519 -->
<g id="node6" class="node">
<title>s2_league4_game2_02_stac_1399316519</title>
<g id="a_node6"><a xlink:title="6 &#160;somdechn &#160;I can give you ore">
<ellipse fill="black" stroke="black" cx="35" cy="-369.5" rx="3.5" ry="3.5"/>
</a>
</g>
</g>
<!-- s2_league4_game2_02_stac_1399316516&#45;&gt;s2_league4_game2_02_stac_1399316519 -->
<g id="edge12" class="edge">
<title>s2_league4_game2_02_stac_1399316516&#45;&gt;s2_league4_game2_02_stac_1399316519</title>
<g id="a_edge12"><a xlink:title="Question_answer_pair">
<path fill="none" stroke="#12ffff" d="M35,-390.68C35,-387.58 35,-382.47 35,-378.16"/>
<polygon fill="#12ffff" stroke="#12ffff" points="36.75,-378.06 35,-373.06 33.25,-378.06 36.75,-378.06"/>
</a>
</g>
</g>
<!-- s2_league4_game2_02_stac_1399316522 -->
<g id="node7" class="node">
<title>s2_league4_game2_02_stac_1399316522</title>
<g id="a_node7"><a xlink:title="7 &#160;ztime &#160;ore.. ok...">
<ellipse fill="black" stroke="black" cx="35" cy="-344.5" rx="3.5" ry="3.5"/>
</a>
</g>
</g>
<!-- s2_league4_game2_02_stac_1399316519&#45;&gt;s2_league4_game2_02_stac_1399316522 -->
<g id="edge13" class="edge">
<title>s2_league4_game2_02_stac_1399316519&#45;&gt;s2_league4_game2_02_stac_1399316522</title>
<g id="a_edge13"><a xlink:title="Question_answer_pair">
<path fill="none" stroke="#12ffff" d="M35,-365.68C35,-362.58 35,-357.47 35,-353.16"/>
<polygon fill="#12ffff" stroke="#12ffff" points="36.75,-353.06 35,-348.06 33.25,-353.06 36.75,-353.06"/>
</a>
</g>
</g>
<!-- s2_league4_game2_02_stac_1399316525 -->
<g id="node8" class="node">
<title>s2_league4_game2_02_stac_1399316525</title>
<g id="a_node8"><a xlink:title="8 &#160;Shawnus &#160;:D">
<ellipse fill="black" stroke="black" cx="35" cy="-319.5" rx="3.5" ry="3.5"/>
</a>
</g>
</g>
<!-- s2_league4_game2_02_stac_1399316522&#45;&gt;s2_league4_game2_02_stac_1399316525 -->
<g id="edge14" class="edge">
<title>s2_league4_game2_02_stac_1399316522&#45;&gt;s2_league4_game2_02_stac_1399316525</title>
<g id="a_edge14"><a xlink:title="Comment">
<path fill="none" stroke="#ff8200" d="M35,-340.68C35,-337.58 35,-332.47 35,-328.16"/>
<polygon fill="#ff8200" stroke="#ff8200" points="36.75,-328.06 35,-323.06 33.25,-328.06 36.75,-328.06"/>
</a>
</g>
</g>
<!-- s2_league4_game2_02_stac_1399316528 -->
<g id="node9" class="node">
<title>s2_league4_game2_02_stac_1399316528</title>
<g id="a_node9"><a xlink:title="9 &#160;Shawnus &#160;this is a major trading game">
<ellipse fill="black" stroke="black" cx="53" cy="-294.5" rx="3.5" ry="3.5"/>
</a>
</g>
</g>
<!-- s2_league4_game2_02_stac_1399316525&#45;&gt;s2_league4_game2_02_stac_1399316528 -->
<g id="edge15" class="edge">
<title>s2_league4_game2_02_stac_1399316525&#45;&gt;s2_league4_game2_02_stac_1399316528</title>
<g id="a_edge15"><a xlink:title="Elaboration">
<path fill="none" stroke="#a621c7" d="M36.66,-316.38C39.17,-313.17 44.02,-306.97 47.79,-302.15"/>
<polygon fill="#a621c7" stroke="#a621c7" points="49.37,-302.98 51.07,-297.96 46.61,-300.82 49.37,-302.98"/>
</a>
</g>
</g>
<!-- s2_league4_game2_02_stac_1399316531 -->
<g id="node10" class="node">
<title>s2_league4_game2_02_stac_1399316531</title>
<g id="a_node10"><a xlink:title="10 &#160;ztime &#160;yer..">
<ellipse fill="black" stroke="black" cx="53" cy="-269.5" rx="3.5" ry="3.5"/>
</a>
</g>
</g>
<!-- s2_league4_game2_02_stac_1399316525&#45;&gt;s2_league4_game2_02_stac_1399316531 -->
<g id="edge16" class="edge">
<title>s2_league4_game2_02_stac_1399316525&#45;&gt;s2_league4_game2_02_stac_1399316531</title>
<g id="a_edge16"><a xlink:title="Acknowledgement">
<path fill="none" stroke="#12ffff" d="M35.3,-315.84C35.92,-310.84 37.59,-299.74 41,-291 42.94,-286.03 45.98,-280.85 48.52,-276.94"/>
<polygon fill="#12ffff" stroke="#12ffff" points="49.98,-277.9 51.34,-272.78 47.09,-275.93 49.98,-277.9"/>
</a>
</g>
</g>
<!-- s2_league4_game2_02_stac_1399316528&#45;&gt;s2_league4_game2_02_stac_1399316531 -->
<!-- s2_league4_game2_02_stac_1399316531&#45;&gt;s2_league4_game2_02_stac_1399316534 -->
<!-- s2_league4_game2_02_stac_1399316537 -->
<g id="node12" class="node">
<title>s2_league4_game2_02_stac_1399316537</title>
<g id="a_node12"><a xlink:title="12 &#160;ztime &#160;I can give wheat..">
<ellipse fill="black" stroke="black" cx="37" cy="-219.5" rx="3.5" ry="3.5"/>
</a>
</g>
</g>
<!-- s2_league4_game2_02_stac_1399316534&#45;&gt;s2_league4_game2_02_stac_1399316537 -->
<g id="edge18" class="edge">
<title>s2_league4_game2_02_stac_1399316534&#45;&gt;s2_league4_game2_02_stac_1399316537</title>
<g id="a_edge18"><a xlink:title="Elaboration">
<path fill="none" stroke="#a621c7" d="M57.88,-241.38C54.54,-238.04 47.95,-231.45 43.06,-226.56"/>
<polygon fill="#a621c7" stroke="#a621c7" points="44.23,-225.26 39.46,-222.96 41.76,-227.73 44.23,-225.26"/>
</a>
</g>
</g>
<!-- s2_league4_game2_02_stac_1399316540 -->
<g id="node13" class="node">
<title>s2_league4_game2_02_stac_1399316540</title>
<g id="a_node13"><a xlink:title="13 &#160;Shawnus &#160;not got any :(">
<ellipse fill="black" stroke="black" cx="60" cy="-194.5" rx="3.5" ry="3.5"/>
</a>
</g>
</g>
<!-- s2_league4_game2_02_stac_1399316534&#45;&gt;s2_league4_game2_02_stac_1399316540 -->
<g id="edge19" class="edge">
<title>s2_league4_game2_02_stac_1399316534&#45;&gt;s2_league4_game2_02_stac_1399316540</title>
<g id="a_edge19"><a xlink:title="Question_answer_pair">
<path fill="none" stroke="#12ffff" d="M60,-240.92C60,-233.95 60,-214.55 60,-203.49"/>
<polygon fill="#12ffff" stroke="#12ffff" points="61.75,-203.33 60,-198.33 58.25,-203.33 61.75,-203.33"/>
</a>
</g>
</g>
<!-- s2_league4_game2_02_stac_1399316555 -->
<g id="node18" class="node">
<title>s2_league4_game2_02_stac_1399316555</title>
<g id="a_node18"><a xlink:title="18 &#160;Shawnus &#160;i want sheep too...">
<ellipse fill="black" stroke="black" cx="69" cy="-69.5" rx="3.5" ry="3.5"/>
</a>
</g>
</g>
<!-- s2_league4_game2_02_stac_1399316534&#45;&gt;s2_league4_game2_02_stac_1399316555 -->
<g id="edge25" class="edge">
<title>s2_league4_game2_02_stac_1399316534&#45;&gt;s2_league4_game2_02_stac_1399316555</title>
<g id="a_edge25"><a xlink:title="Question_answer_pair">
<path fill="none" stroke="#12ffff" d="M61.8,-241.47C67.23,-235.15 83,-215.09 83,-195.5 83,-195.5 83,-195.5 83,-118.5 83,-103.55 76.66,-86.99 72.51,-77.75"/>
<polygon fill="#12ffff" stroke="#12ffff" points="74,-76.8 70.29,-73.03 70.84,-78.29 74,-76.8"/>
</a>
</g>
</g>
<!-- s2_league4_game2_02_stac_1399316537&#45;&gt;s2_league4_game2_02_stac_1399316540 -->
<!-- s2_league4_game2_02_stac_1399316543 -->
<g id="node14" class="node">
<title>s2_league4_game2_02_stac_1399316543</title>
<g id="a_node14"><a xlink:title="14 &#160;somdechn &#160;How about clay?">
<ellipse fill="black" stroke="black" cx="50" cy="-169.5" rx="3.5" ry="3.5"/>
</a>
</g>
</g>
<!-- s2_league4_game2_02_stac_1399316537&#45;&gt;s2_league4_game2_02_stac_1399316543 -->
<g id="edge20" class="edge">
<title>s2_league4_game2_02_stac_1399316537&#45;&gt;s2_league4_game2_02_stac_1399316543</title>
<g id="a_edge20"><a xlink:title="Q_Elab">
<path fill="none" stroke="#0d20ff" d="M37.7,-215.92C39.6,-208.89 44.94,-189.19 47.92,-178.18"/>
<polygon fill="#0d20ff" stroke="#0d20ff" points="49.61,-178.62 49.23,-173.33 46.24,-177.7 49.61,-178.62"/>
</a>
</g>
</g>
<!-- s2_league4_game2_02_stac_1399316546 -->
<g id="node15" class="node">
<title>s2_league4_game2_02_stac_1399316546</title>
<g id="a_node15"><a xlink:title="15 &#160;ztime &#160;2 wheat...">
<ellipse fill="black" stroke="black" cx="50" cy="-144.5" rx="3.5" ry="3.5"/>
</a>
</g>
</g>
<!-- s2_league4_game2_02_stac_1399316537&#45;&gt;s2_league4_game2_02_stac_1399316546 -->
<g id="edge21" class="edge">
<title>s2_league4_game2_02_stac_1399316537&#45;&gt;s2_league4_game2_02_stac_1399316546</title>
<g id="a_edge21"><a xlink:title="Elaboration">
<path fill="none" stroke="#a621c7" d="M36.55,-215.58C35.41,-207.5 32.86,-184.25 38,-166 39.45,-160.86 42.49,-155.68 45.16,-151.82"/>
<polygon fill="#a621c7" stroke="#a621c7" points="46.62,-152.78 48.17,-147.72 43.8,-150.71 46.62,-152.78"/>
</a>
</g>
</g>
<!-- s2_league4_game2_02_stac_1399316540&#45;&gt;s2_league4_game2_02_stac_1399316543 -->
<!-- s2_league4_game2_02_stac_1399316543&#45;&gt;s2_league4_game2_02_stac_1399316546 -->
<g id="edge22" class="edge">
<title>s2_league4_game2_02_stac_1399316543&#45;&gt;s2_league4_game2_02_stac_1399316546</title>
<g id="a_edge22"><a xlink:title="Question_answer_pair">
<path fill="none" stroke="#12ffff" d="M50,-165.68C50,-162.58 50,-157.47 50,-153.16"/>
<polygon fill="#12ffff" stroke="#12ffff" points="51.75,-153.06 50,-148.06 48.25,-153.06 51.75,-153.06"/>
</a>
</g>
</g>
<!-- s2_league4_game2_02_stac_1399316549 -->
<g id="node16" class="node">
<title>s2_league4_game2_02_stac_1399316549</title>
<g id="a_node16"><a xlink:title="16 &#160;somdechn &#160;I want clay...">
<ellipse fill="black" stroke="black" cx="55" cy="-119.5" rx="3.5" ry="3.5"/>
</a>
</g>
</g>
<!-- s2_league4_game2_02_stac_1399316546&#45;&gt;s2_league4_game2_02_stac_1399316549 -->
<g id="edge23" class="edge">
<title>s2_league4_game2_02_stac_1399316546&#45;&gt;s2_league4_game2_02_stac_1399316549</title>
<g id="a_edge23"><a xlink:title="Question_answer_pair">
<path fill="none" stroke="#12ffff" d="M50.54,-141.04C51.2,-137.97 52.37,-132.6 53.34,-128.12"/>
<polygon fill="#12ffff" stroke="#12ffff" points="55.07,-128.41 54.42,-123.16 51.65,-127.67 55.07,-128.41"/>
</a>
</g>
</g>
<!-- s2_league4_game2_02_stac_1399316552 -->
<g id="node17" class="node">
<title>s2_league4_game2_02_stac_1399316552</title>
<g id="a_node17"><a xlink:title="17 &#160;ztime &#160;sorry..">
<ellipse fill="black" stroke="black" cx="57" cy="-94.5" rx="3.5" ry="3.5"/>
</a>
</g>
</g>
<!-- s2_league4_game2_02_stac_1399316549&#45;&gt;s2_league4_game2_02_stac_1399316552 -->
<g id="edge24" class="edge">
<title>s2_league4_game2_02_stac_1399316549&#45;&gt;s2_league4_game2_02_stac_1399316552</title>
<g id="a_edge24"><a xlink:title="Question_answer_pair">
<path fill="none" stroke="#12ffff" d="M55.25,-115.68C55.51,-112.58 55.96,-107.47 56.33,-103.16"/>
<polygon fill="#12ffff" stroke="#12ffff" points="58.09,-103.19 56.78,-98.06 54.6,-102.89 58.09,-103.19"/>
</a>
</g>
</g>
<!-- s2_league4_game2_02_stac_1399316552&#45;&gt;s2_league4_game2_02_stac_1399316555 -->
<!-- s2_league4_game2_02_stac_1399316560 -->
<g id="node19" class="node">
<title>s2_league4_game2_02_stac_1399316560</title>
<g id="a_node19"><a xlink:title="19 &#160;Shawnus &#160;if anyone gets some">
<ellipse fill="black" stroke="black" cx="69" cy="-44.5" rx="3.5" ry="3.5"/>
</a>
</g>
</g>
<!-- s2_league4_game2_02_stac_1399316555&#45;&gt;s2_league4_game2_02_stac_1399316560 -->
<g id="edge26" class="edge">
<title>s2_league4_game2_02_stac_1399316555&#45;&gt;s2_league4_game2_02_stac_1399316560</title>
<g id="a_edge26"><a xlink:title="Conditional">
<path fill="none" stroke="#1c931a" d="M69,-65.68C69,-62.58 69,-57.47 69,-53.16"/>
<polygon fill="#1c931a" stroke="#1c931a" points="70.75,-53.06 69,-48.06 67.25,-53.06 70.75,-53.06"/>
</a>
</g>
</g>
<!-- s2_league4_game2_02_stac_1399316563 -->
<g id="node20" class="node">
<title>s2_league4_game2_02_stac_1399316563</title>
<g id="a_node20"><a xlink:title="20 &#160;ztime &#160;ha.. somdech stole from me">
<ellipse fill="black" stroke="black" cx="69" cy="-19.5" rx="3.5" ry="3.5"/>
</a>
</g>
</g>
<!-- s2_league4_game2_02_stac_1399316560&#45;&gt;s2_league4_game2_02_stac_1399316563 -->
<g id="edge27" class="edge">
<title>s2_league4_game2_02_stac_1399316560&#45;&gt;s2_league4_game2_02_stac_1399316563</title>
<g id="a_edge27"><a xlink:title="Comment">
<path fill="none" stroke="#ff8200" d="M69,-40.68C69,-37.58 69,-32.47 69,-28.16"/>
<polygon fill="#ff8200" stroke="#ff8200" points="70.75,-28.06 69,-23.06 67.25,-28.06 70.75,-28.06"/>
</a>
</g>
</g>
</g>
</svg>
