<?xml version="1.0" encoding="UTF-8" standalone="no"?>
<!DOCTYPE svg PUBLIC "-//W3C//DTD SVG 1.1//EN"
 "http://www.w3.org/Graphics/SVG/1.1/DTD/svg11.dtd">
<!-- Generated by graphviz version 3.0.0 (20220226.1711)
 -->
<!-- Title: 5_s2_league4_game2_764 Pages: 1 -->
<svg width="93pt" height="320pt"
 viewBox="0.00 0.00 93.00 320.00" xmlns="http://www.w3.org/2000/svg" xmlns:xlink="http://www.w3.org/1999/xlink">
<g id="graph0" class="graph" transform="scale(1 1) rotate(0) translate(4 316)">
<title>5_s2_league4_game2_764</title>
<polygon fill="white" stroke="transparent" points="-4,4 -4,-316 89,-316 89,4 -4,4"/>
<g id="clust1" class="cluster">
<title>cluster_5_s2_league4_game2_764</title>
<polygon fill="none" stroke="black" points="8,-8 8,-304 77,-304 77,-8 8,-8"/>
<text text-anchor="middle" x="26.5" y="-288.8" font-family="Times,serif" font-size="14.00">764</text>
</g>
<!-- s2_league4_game2_05_stac_1399316473 -->
<g id="node1" class="node">
<title>s2_league4_game2_05_stac_1399316473</title>
<g id="a_node1"><a xlink:title="1 &#160;Shawnus &#160;have a clay now, anyone have a wood?">
<ellipse fill="black" stroke="black" cx="30" cy="-269.5" rx="3.5" ry="3.5"/>
</a>
</g>
</g>
<!-- 1_0 -->
<!-- s2_league4_game2_05_stac_1399316473&#45;&gt;1_0 -->
<!-- s2_league4_game2_05_stac_1399316476 -->
<g id="node3" class="node">
<title>s2_league4_game2_05_stac_1399316476</title>
<g id="a_node3"><a xlink:title="2 &#160;ztime &#160;yep">
<ellipse fill="black" stroke="black" cx="20" cy="-244.5" rx="3.5" ry="3.5"/>
</a>
</g>
</g>
<!-- s2_league4_game2_05_stac_1399316473&#45;&gt;s2_league4_game2_05_stac_1399316476 -->
<g id="edge13" class="edge">
<title>s2_league4_game2_05_stac_1399316473&#45;&gt;s2_league4_game2_05_stac_1399316476</title>
<g id="a_edge13"><a xlink:title="Question_answer_pair">
<path fill="none" stroke="#12ffff" d="M28.93,-266.04C27.54,-262.84 25.05,-257.12 23.06,-252.53"/>
<polygon fill="#12ffff" stroke="#12ffff" points="24.63,-251.76 21.03,-247.87 21.42,-253.16 24.63,-251.76"/>
</a>
</g>
</g>
<!-- s2_league4_game2_05_stac_1399316485 -->
<g id="node9" class="node">
<title>s2_league4_game2_05_stac_1399316485</title>
<g id="a_node9"><a xlink:title="5 &#160;somdechn &#160;Yes please">
<ellipse fill="black" stroke="black" cx="30" cy="-169.5" rx="3.5" ry="3.5"/>
</a>
</g>
</g>
<!-- s2_league4_game2_05_stac_1399316473&#45;&gt;s2_league4_game2_05_stac_1399316485 -->
<g id="edge16" class="edge">
<title>s2_league4_game2_05_stac_1399316473&#45;&gt;s2_league4_game2_05_stac_1399316485</title>
<g id="a_edge16"><a xlink:title="Question_answer_pair">
<path fill="none" stroke="#12ffff" d="M33.01,-267.39C39.08,-264.95 52.66,-258.53 58,-248 69.46,-225.41 69.46,-213.59 58,-191 53.83,-182.77 44.63,-177.05 37.91,-173.78"/>
<polygon fill="#12ffff" stroke="#12ffff" points="38.29,-172.04 33.01,-171.61 36.88,-175.24 38.29,-172.04"/>
</a>
</g>
</g>
<!-- 2_0 -->
<!-- s2_league4_game2_05_stac_1399316476&#45;&gt;2_0 -->
<!-- s2_league4_game2_05_stac_1399316479 -->
<g id="node5" class="node">
<title>s2_league4_game2_05_stac_1399316479</title>
<g id="a_node5"><a xlink:title="3 &#160;ztime &#160;I have wood">
<ellipse fill="black" stroke="black" cx="20" cy="-219.5" rx="3.5" ry="3.5"/>
</a>
</g>
</g>
<!-- s2_league4_game2_05_stac_1399316476&#45;&gt;s2_league4_game2_05_stac_1399316479 -->
<g id="edge14" class="edge">
<title>s2_league4_game2_05_stac_1399316476&#45;&gt;s2_league4_game2_05_stac_1399316479</title>
<g id="a_edge14"><a xlink:title="Elaboration">
<path fill="none" stroke="#a621c7" d="M20,-240.68C20,-237.58 20,-232.47 20,-228.16"/>
<polygon fill="#a621c7" stroke="#a621c7" points="21.75,-228.06 20,-223.06 18.25,-228.06 21.75,-228.06"/>
</a>
</g>
</g>
<!-- 3_0 -->
<!-- s2_league4_game2_05_stac_1399316479&#45;&gt;3_0 -->
<!-- s2_league4_game2_05_stac_1399316482 -->
<g id="node7" class="node">
<title>s2_league4_game2_05_stac_1399316482</title>
<g id="a_node7"><a xlink:title="4 &#160;ztime &#160;1 for 1">
<ellipse fill="black" stroke="black" cx="20" cy="-194.5" rx="3.5" ry="3.5"/>
</a>
</g>
</g>
<!-- s2_league4_game2_05_stac_1399316479&#45;&gt;s2_league4_game2_05_stac_1399316482 -->
<g id="edge15" class="edge">
<title>s2_league4_game2_05_stac_1399316479&#45;&gt;s2_league4_game2_05_stac_1399316482</title>
<g id="a_edge15"><a xlink:title="Elaboration">
<path fill="none" stroke="#a621c7" d="M20,-215.68C20,-212.58 20,-207.47 20,-203.16"/>
<polygon fill="#a621c7" stroke="#a621c7" points="21.75,-203.06 20,-198.06 18.25,-203.06 21.75,-203.06"/>
</a>
</g>
</g>
<!-- 4_0 -->
<!-- s2_league4_game2_05_stac_1399316482&#45;&gt;4_0 -->
<!-- s2_league4_game2_05_stac_1399316482&#45;&gt;s2_league4_game2_05_stac_1399316485 -->
<!-- 5_0 -->
<!-- s2_league4_game2_05_stac_1399316485&#45;&gt;5_0 -->
<!-- s2_league4_game2_05_stac_1399316488 -->
<g id="node11" class="node">
<title>s2_league4_game2_05_stac_1399316488</title>
<g id="a_node11"><a xlink:title="6 &#160;somdechn &#160;Too late I guess">
<ellipse fill="black" stroke="black" cx="30" cy="-144.5" rx="3.5" ry="3.5"/>
</a>
</g>
</g>
<!-- s2_league4_game2_05_stac_1399316485&#45;&gt;s2_league4_game2_05_stac_1399316488 -->
<g id="edge17" class="edge">
<title>s2_league4_game2_05_stac_1399316485&#45;&gt;s2_league4_game2_05_stac_1399316488</title>
<g id="a_edge17"><a xlink:title="Comment">
<path fill="none" stroke="#ff8200" d="M30,-165.68C30,-162.58 30,-157.47 30,-153.16"/>
<polygon fill="#ff8200" stroke="#ff8200" points="31.75,-153.06 30,-148.06 28.25,-153.06 31.75,-153.06"/>
</a>
</g>
</g>
<!-- 6_0 -->
<!-- s2_league4_game2_05_stac_1399316488&#45;&gt;6_0 -->
<!-- s2_league4_game2_05_stac_1399316491 -->
<g id="node13" class="node">
<title>s2_league4_game2_05_stac_1399316491</title>
<g id="a_node13"><a xlink:title="7 &#160;ztime &#160;soz bro">
<ellipse fill="black" stroke="black" cx="20" cy="-119.5" rx="3.5" ry="3.5"/>
</a>
</g>
</g>
<!-- s2_league4_game2_05_stac_1399316488&#45;&gt;s2_league4_game2_05_stac_1399316491 -->
<g id="edge18" class="edge">
<title>s2_league4_game2_05_stac_1399316488&#45;&gt;s2_league4_game2_05_stac_1399316491</title>
<g id="a_edge18"><a xlink:title="Acknowledgement">
<path fill="none" stroke="#12ffff" d="M28.93,-141.04C27.54,-137.84 25.05,-132.12 23.06,-127.53"/>
<polygon fill="#12ffff" stroke="#12ffff" points="24.63,-126.76 21.03,-122.87 21.42,-128.16 24.63,-126.76"/>
</a>
</g>
</g>
<!-- s2_league4_game2_05_stac_1399316494 -->
<g id="node19" class="node">
<title>s2_league4_game2_05_stac_1399316494</title>
<g id="a_node19"><a xlink:title="8 &#160;Shawnus &#160;sorry,">
<ellipse fill="black" stroke="black" cx="40" cy="-94.5" rx="3.5" ry="3.5"/>
</a>
</g>
</g>
<!-- s2_league4_game2_05_stac_1399316488&#45;&gt;s2_league4_game2_05_stac_1399316494 -->
<g id="edge19" class="edge">
<title>s2_league4_game2_05_stac_1399316488&#45;&gt;s2_league4_game2_05_stac_1399316494</title>
<g id="a_edge19"><a xlink:title="Comment">
<path fill="none" stroke="#ff8200" d="M33.01,-142.39C39.08,-139.95 52.66,-133.53 58,-123 62.28,-114.57 53.47,-105.52 46.73,-100.2"/>
<polygon fill="#ff8200" stroke="#ff8200" points="47.65,-98.7 42.58,-97.16 45.58,-101.52 47.65,-98.7"/>
</a>
</g>
</g>
<!-- 7_0 -->
<!-- s2_league4_game2_05_stac_1399316491&#45;&gt;7_0 -->
<!-- s2_league4_game2_05_stac_1399316498 -->
<g id="node15" class="node">
<title>s2_league4_game2_05_stac_1399316498</title>
<g id="a_node15"><a xlink:title="9 &#160;ztime &#160;need that new laptop">
<ellipse fill="black" stroke="black" cx="30" cy="-69.5" rx="3.5" ry="3.5"/>
</a>
</g>
</g>
<!-- s2_league4_game2_05_stac_1399316491&#45;&gt;s2_league4_game2_05_stac_1399316498 -->
<g id="edge21" class="edge">
<title>s2_league4_game2_05_stac_1399316491&#45;&gt;s2_league4_game2_05_stac_1399316498</title>
<g id="a_edge21"><a xlink:title="Elaboration">
<path fill="none" stroke="#a621c7" d="M20.54,-115.92C21.99,-108.95 26.03,-89.55 28.34,-78.49"/>
<polygon fill="#a621c7" stroke="#a621c7" points="30.1,-78.58 29.41,-73.33 26.68,-77.87 30.1,-78.58"/>
</a>
</g>
</g>
<!-- s2_league4_game2_05_stac_1399316491&#45;&gt;s2_league4_game2_05_stac_1399316494 -->
<!-- 9_0 -->
<!-- s2_league4_game2_05_stac_1399316498&#45;&gt;9_0 -->
<!-- s2_league4_game2_05_stac_1399316501 -->
<g id="node17" class="node">
<title>s2_league4_game2_05_stac_1399316501</title>
<g id="a_node17"><a xlink:title="10 &#160;somdechn &#160;What laptop?">
<ellipse fill="black" stroke="black" cx="30" cy="-44.5" rx="3.5" ry="3.5"/>
</a>
</g>
</g>
<!-- s2_league4_game2_05_stac_1399316498&#45;&gt;s2_league4_game2_05_stac_1399316501 -->
<g id="edge22" class="edge">
<title>s2_league4_game2_05_stac_1399316498&#45;&gt;s2_league4_game2_05_stac_1399316501</title>
<g id="a_edge22"><a xlink:title="Clarification_question">
<path fill="none" stroke="#ff40d1" d="M30,-65.68C30,-62.58 30,-57.47 30,-53.16"/>
<polygon fill="#ff40d1" stroke="#ff40d1" points="31.75,-53.06 30,-48.06 28.25,-53.06 31.75,-53.06"/>
</a>
</g>
</g>
<!-- 10_0 -->
<!-- s2_league4_game2_05_stac_1399316501&#45;&gt;10_0 -->
<!-- s2_league4_game2_05_stac_1399316504 -->
<g id="node21" class="node">
<title>s2_league4_game2_05_stac_1399316504</title>
<g id="a_node21"><a xlink:title="11 &#160;ztime &#160;earlier..">
<ellipse fill="black" stroke="black" cx="30" cy="-19.5" rx="3.5" ry="3.5"/>
</a>
</g>
</g>
<!-- s2_league4_game2_05_stac_1399316501&#45;&gt;s2_league4_game2_05_stac_1399316504 -->
<g id="edge23" class="edge">
<title>s2_league4_game2_05_stac_1399316501&#45;&gt;s2_league4_game2_05_stac_1399316504</title>
<g id="a_edge23"><a xlink:title="Question_answer_pair">
<path fill="none" stroke="#12ffff" d="M30,-40.68C30,-37.58 30,-32.47 30,-28.16"/>
<polygon fill="#12ffff" stroke="#12ffff" points="31.75,-28.06 30,-23.06 28.25,-28.06 31.75,-28.06"/>
</a>
</g>
</g>
<!-- s2_league4_game2_05_stac_1399316494&#45;&gt;s2_league4_game2_05_stac_1399316498 -->
<!-- s2_league4_game2_05_stac_1399316495 -->
<g id="node20" class="node">
<title>s2_league4_game2_05_stac_1399316495</title>
<g id="a_node20"><a xlink:title="8 &#160;Shawnus &#160;quickest off the block">
<ellipse fill="black" stroke="black" cx="65" cy="-94.5" rx="3.5" ry="3.5"/>
</a>
</g>
</g>
<!-- s2_league4_game2_05_stac_1399316494&#45;&gt;s2_league4_game2_05_stac_1399316495 -->
<g id="edge20" class="edge">
<title>s2_league4_game2_05_stac_1399316494&#45;&gt;s2_league4_game2_05_stac_1399316495</title>
<g id="a_edge20"><a xlink:title="Explanation">
<path fill="none" stroke="#a62139" d="M43.52,-94.5C47.78,-94.5 52.04,-94.5 56.3,-94.5"/>
<polygon fill="#a62139" stroke="#a62139" points="56.31,-96.25 61.31,-94.5 56.31,-92.75 56.31,-96.25"/>
</a>
</g>
</g>
<!-- s2_league4_game2_05_stac_1399316505 -->
<g id="node22" class="node">
<title>s2_league4_game2_05_stac_1399316505</title>
<g id="a_node22"><a xlink:title="11 &#160;ztime &#160;how much wood for a new laptop...">
<ellipse fill="black" stroke="black" cx="55" cy="-19.5" rx="3.5" ry="3.5"/>
</a>
</g>
</g>
<!-- s2_league4_game2_05_stac_1399316504&#45;&gt;s2_league4_game2_05_stac_1399316505 -->
<g id="edge24" class="edge">
<title>s2_league4_game2_05_stac_1399316504&#45;&gt;s2_league4_game2_05_stac_1399316505</title>
<g id="a_edge24"><a xlink:title="Clarification_question">
<path fill="none" stroke="#ff40d1" d="M33.52,-19.5C37.78,-19.5 42.04,-19.5 46.3,-19.5"/>
<polygon fill="#ff40d1" stroke="#ff40d1" points="46.31,-21.25 51.31,-19.5 46.31,-17.75 46.31,-21.25"/>
</a>
</g>
</g>
</g>
</svg>
