<?xml version="1.0" encoding="UTF-8" standalone="no"?>
<!DOCTYPE svg PUBLIC "-//W3C//DTD SVG 1.1//EN"
 "http://www.w3.org/Graphics/SVG/1.1/DTD/svg11.dtd">
<!-- Generated by graphviz version 3.0.0 (20220226.1711)
 -->
<!-- Title: 5_s2_league4_game2_767 Pages: 1 -->
<svg width="108pt" height="395pt"
 viewBox="0.00 0.00 108.00 395.00" xmlns="http://www.w3.org/2000/svg" xmlns:xlink="http://www.w3.org/1999/xlink">
<g id="graph0" class="graph" transform="scale(1 1) rotate(0) translate(4 391)">
<title>5_s2_league4_game2_767</title>
<polygon fill="white" stroke="transparent" points="-4,4 -4,-391 104,-391 104,4 -4,4"/>
<g id="clust1" class="cluster">
<title>cluster_5_s2_league4_game2_767</title>
<polygon fill="none" stroke="black" points="8,-8 8,-379 92,-379 92,-8 8,-8"/>
<text text-anchor="middle" x="26.5" y="-363.8" font-family="Times,serif" font-size="14.00">767</text>
</g>
<!-- s2_league4_game2_05_stac_1399316552 -->
<g id="node1" class="node">
<title>s2_league4_game2_05_stac_1399316552</title>
<g id="a_node1"><a xlink:title="1 &#160;ztime &#160;7!!!!">
<ellipse fill="black" stroke="black" cx="53" cy="-344.5" rx="3.5" ry="3.5"/>
</a>
</g>
</g>
<!-- s2_league4_game2_05_stac_1399316555 -->
<g id="node2" class="node">
<title>s2_league4_game2_05_stac_1399316555</title>
<g id="a_node2"><a xlink:title="2 &#160;somdechn &#160;Yeah right...">
<ellipse fill="black" stroke="black" cx="20" cy="-319.5" rx="3.5" ry="3.5"/>
</a>
</g>
</g>
<!-- s2_league4_game2_05_stac_1399316552&#45;&gt;s2_league4_game2_05_stac_1399316555 -->
<g id="edge7" class="edge">
<title>s2_league4_game2_05_stac_1399316552&#45;&gt;s2_league4_game2_05_stac_1399316555</title>
<g id="a_edge7"><a xlink:title="Acknowledgement">
<path fill="none" stroke="#12ffff" d="M50.41,-341.7C45.37,-338.18 34.11,-330.33 26.8,-325.24"/>
<polygon fill="#12ffff" stroke="#12ffff" points="27.59,-323.66 22.49,-322.23 25.59,-326.53 27.59,-323.66"/>
</a>
</g>
</g>
<!-- s2_league4_game2_05_stac_1399316558 -->
<g id="node3" class="node">
<title>s2_league4_game2_05_stac_1399316558</title>
<g id="a_node3"><a xlink:title="3 &#160;ztime &#160;what... is this a fix?">
<ellipse fill="black" stroke="black" cx="40" cy="-294.5" rx="3.5" ry="3.5"/>
</a>
</g>
</g>
<!-- s2_league4_game2_05_stac_1399316552&#45;&gt;s2_league4_game2_05_stac_1399316558 -->
<g id="edge8" class="edge">
<title>s2_league4_game2_05_stac_1399316552&#45;&gt;s2_league4_game2_05_stac_1399316558</title>
<g id="a_edge8"><a xlink:title="Clarification_question">
<path fill="none" stroke="#ff40d1" d="M52.3,-340.92C50.4,-333.89 45.06,-314.19 42.08,-303.18"/>
<polygon fill="#ff40d1" stroke="#ff40d1" points="43.76,-302.7 40.77,-298.33 40.39,-303.62 43.76,-302.7"/>
</a>
</g>
</g>
<!-- s2_league4_game2_05_stac_1399316561 -->
<g id="node4" class="node">
<title>s2_league4_game2_05_stac_1399316561</title>
<g id="a_node4"><a xlink:title="4 &#160;Shawnus &#160;hahaha">
<ellipse fill="black" stroke="black" cx="60" cy="-269.5" rx="3.5" ry="3.5"/>
</a>
</g>
</g>
<!-- s2_league4_game2_05_stac_1399316552&#45;&gt;s2_league4_game2_05_stac_1399316561 -->
<g id="edge9" class="edge">
<title>s2_league4_game2_05_stac_1399316552&#45;&gt;s2_league4_game2_05_stac_1399316561</title>
<g id="a_edge9"><a xlink:title="Comment">
<path fill="none" stroke="#ff8200" d="M53.27,-340.73C54.24,-330.52 57.67,-294.78 59.22,-278.59"/>
<polygon fill="#ff8200" stroke="#ff8200" points="61,-278.42 59.73,-273.28 57.51,-278.09 61,-278.42"/>
</a>
</g>
</g>
<!-- s2_league4_game2_05_stac_1399316564 -->
<g id="node5" class="node">
<title>s2_league4_game2_05_stac_1399316564</title>
<g id="a_node5"><a xlink:title="5 &#160;ztime &#160;ok anyone want wheat?">
<ellipse fill="black" stroke="black" cx="70" cy="-244.5" rx="3.5" ry="3.5"/>
</a>
</g>
</g>
<!-- s2_league4_game2_05_stac_1399316552&#45;&gt;s2_league4_game2_05_stac_1399316564 -->
<g id="edge10" class="edge">
<title>s2_league4_game2_05_stac_1399316552&#45;&gt;s2_league4_game2_05_stac_1399316564</title>
<g id="a_edge10"><a xlink:title="Continuation">
<path fill="none" stroke="#10491b" d="M54.06,-340.87C57.67,-331.71 69.51,-300.26 73,-273 73.86,-266.28 72.86,-258.62 71.79,-253.1"/>
<polygon fill="#10491b" stroke="#10491b" points="73.47,-252.59 70.69,-248.08 70.05,-253.34 73.47,-252.59"/>
</a>
</g>
</g>
<!-- s2_league4_game2_05_stac_1399316555&#45;&gt;s2_league4_game2_05_stac_1399316558 -->
<!-- s2_league4_game2_05_stac_1399316558&#45;&gt;s2_league4_game2_05_stac_1399316561 -->
<!-- s2_league4_game2_05_stac_1399316561&#45;&gt;s2_league4_game2_05_stac_1399316564 -->
<!-- s2_league4_game2_05_stac_1399316567 -->
<g id="node6" class="node">
<title>s2_league4_game2_05_stac_1399316567</title>
<g id="a_node6"><a xlink:title="6 &#160;Shawnus &#160;nope">
<ellipse fill="black" stroke="black" cx="54" cy="-219.5" rx="3.5" ry="3.5"/>
</a>
</g>
</g>
<!-- s2_league4_game2_05_stac_1399316564&#45;&gt;s2_league4_game2_05_stac_1399316567 -->
<g id="edge11" class="edge">
<title>s2_league4_game2_05_stac_1399316564&#45;&gt;s2_league4_game2_05_stac_1399316567</title>
<g id="a_edge11"><a xlink:title="Question_answer_pair">
<path fill="none" stroke="#12ffff" d="M68.29,-241.04C66.01,-237.77 61.91,-231.87 58.68,-227.23"/>
<polygon fill="#12ffff" stroke="#12ffff" points="59.94,-225.98 55.65,-222.87 57.07,-227.98 59.94,-225.98"/>
</a>
</g>
</g>
<!-- s2_league4_game2_05_stac_1399316573 -->
<g id="node8" class="node">
<title>s2_league4_game2_05_stac_1399316573</title>
<g id="a_node8"><a xlink:title="8 &#160;somdechn &#160;Yes">
<ellipse fill="black" stroke="black" cx="55" cy="-169.5" rx="3.5" ry="3.5"/>
</a>
</g>
</g>
<!-- s2_league4_game2_05_stac_1399316564&#45;&gt;s2_league4_game2_05_stac_1399316573 -->
<g id="edge13" class="edge">
<title>s2_league4_game2_05_stac_1399316564&#45;&gt;s2_league4_game2_05_stac_1399316573</title>
<g id="a_edge13"><a xlink:title="Question_answer_pair">
<path fill="none" stroke="#12ffff" d="M70.3,-240.57C71.04,-232.48 72.49,-209.18 67,-191 65.46,-185.89 62.41,-180.71 59.77,-176.84"/>
<polygon fill="#12ffff" stroke="#12ffff" points="61.14,-175.75 56.79,-172.73 58.31,-177.8 61.14,-175.75"/>
</a>
</g>
</g>
<!-- s2_league4_game2_05_stac_1399316570 -->
<g id="node7" class="node">
<title>s2_league4_game2_05_stac_1399316570</title>
<g id="a_node7"><a xlink:title="7 &#160;Shawnus &#160;just someone to roll 9&#39;s..">
<ellipse fill="black" stroke="black" cx="54" cy="-194.5" rx="3.5" ry="3.5"/>
</a>
</g>
</g>
<!-- s2_league4_game2_05_stac_1399316567&#45;&gt;s2_league4_game2_05_stac_1399316570 -->
<g id="edge12" class="edge">
<title>s2_league4_game2_05_stac_1399316567&#45;&gt;s2_league4_game2_05_stac_1399316570</title>
<g id="a_edge12"><a xlink:title="Explanation">
<path fill="none" stroke="#a62139" d="M54,-215.68C54,-212.58 54,-207.47 54,-203.16"/>
<polygon fill="#a62139" stroke="#a62139" points="55.75,-203.06 54,-198.06 52.25,-203.06 55.75,-203.06"/>
</a>
</g>
</g>
<!-- s2_league4_game2_05_stac_1399316570&#45;&gt;s2_league4_game2_05_stac_1399316573 -->
<!-- s2_league4_game2_05_stac_1399316576 -->
<g id="node9" class="node">
<title>s2_league4_game2_05_stac_1399316576</title>
<g id="a_node9"><a xlink:title="9 &#160;somdechn &#160;I can give you wood.">
<ellipse fill="black" stroke="black" cx="32" cy="-144.5" rx="3.5" ry="3.5"/>
</a>
</g>
</g>
<!-- s2_league4_game2_05_stac_1399316573&#45;&gt;s2_league4_game2_05_stac_1399316576 -->
<g id="edge14" class="edge">
<title>s2_league4_game2_05_stac_1399316573&#45;&gt;s2_league4_game2_05_stac_1399316576</title>
<g id="a_edge14"><a xlink:title="Elaboration">
<path fill="none" stroke="#a621c7" d="M52.88,-166.38C49.54,-163.04 42.95,-156.45 38.06,-151.56"/>
<polygon fill="#a621c7" stroke="#a621c7" points="39.23,-150.26 34.46,-147.96 36.76,-152.73 39.23,-150.26"/>
</a>
</g>
</g>
<!-- s2_league4_game2_05_stac_1399316579 -->
<g id="node10" class="node">
<title>s2_league4_game2_05_stac_1399316579</title>
<g id="a_node10"><a xlink:title="10 &#160;ztime &#160;was that yes to a trade somdech?">
<ellipse fill="black" stroke="black" cx="52" cy="-119.5" rx="3.5" ry="3.5"/>
</a>
</g>
</g>
<!-- s2_league4_game2_05_stac_1399316573&#45;&gt;s2_league4_game2_05_stac_1399316579 -->
<g id="edge15" class="edge">
<title>s2_league4_game2_05_stac_1399316573&#45;&gt;s2_league4_game2_05_stac_1399316579</title>
<g id="a_edge15"><a xlink:title="Clarification_question">
<path fill="none" stroke="#ff40d1" d="M54.84,-165.92C54.4,-158.95 53.19,-139.55 52.5,-128.49"/>
<polygon fill="#ff40d1" stroke="#ff40d1" points="54.24,-128.21 52.18,-123.33 50.74,-128.43 54.24,-128.21"/>
</a>
</g>
</g>
<!-- s2_league4_game2_05_stac_1399316582 -->
<g id="node11" class="node">
<title>s2_league4_game2_05_stac_1399316582</title>
<g id="a_node11"><a xlink:title="11 &#160;ztime &#160;OK.. cool.. for 1 wheat?">
<ellipse fill="black" stroke="black" cx="63" cy="-94.5" rx="3.5" ry="3.5"/>
</a>
</g>
</g>
<!-- s2_league4_game2_05_stac_1399316573&#45;&gt;s2_league4_game2_05_stac_1399316582 -->
<g id="edge16" class="edge">
<title>s2_league4_game2_05_stac_1399316573&#45;&gt;s2_league4_game2_05_stac_1399316582</title>
<g id="a_edge16"><a xlink:title="Q_Elab">
<path fill="none" stroke="#0d20ff" d="M56.02,-165.69C58.75,-157.89 65.94,-135.28 65,-116 64.79,-111.78 64.35,-107.09 63.94,-103.26"/>
<polygon fill="#0d20ff" stroke="#0d20ff" points="65.66,-102.91 63.34,-98.15 62.18,-103.32 65.66,-102.91"/>
</a>
</g>
</g>
<!-- s2_league4_game2_05_stac_1399316576&#45;&gt;s2_league4_game2_05_stac_1399316579 -->
<!-- s2_league4_game2_05_stac_1399316579&#45;&gt;s2_league4_game2_05_stac_1399316582 -->
<!-- s2_league4_game2_05_stac_1399316585 -->
<g id="node12" class="node">
<title>s2_league4_game2_05_stac_1399316585</title>
<g id="a_node12"><a xlink:title="12 &#160;somdechn &#160;and an ore.. :)">
<ellipse fill="black" stroke="black" cx="63" cy="-69.5" rx="3.5" ry="3.5"/>
</a>
</g>
</g>
<!-- s2_league4_game2_05_stac_1399316582&#45;&gt;s2_league4_game2_05_stac_1399316585 -->
<g id="edge17" class="edge">
<title>s2_league4_game2_05_stac_1399316582&#45;&gt;s2_league4_game2_05_stac_1399316585</title>
<g id="a_edge17"><a xlink:title="Question_answer_pair">
<path fill="none" stroke="#12ffff" d="M63,-90.68C63,-87.58 63,-82.47 63,-78.16"/>
<polygon fill="#12ffff" stroke="#12ffff" points="64.75,-78.06 63,-73.06 61.25,-78.06 64.75,-78.06"/>
</a>
</g>
</g>
<!-- s2_league4_game2_05_stac_1399316588 -->
<g id="node13" class="node">
<title>s2_league4_game2_05_stac_1399316588</title>
<g id="a_node13"><a xlink:title="13 &#160;ztime &#160;err.. don&#39;t have ore..">
<ellipse fill="black" stroke="black" cx="63" cy="-44.5" rx="3.5" ry="3.5"/>
</a>
</g>
</g>
<!-- s2_league4_game2_05_stac_1399316585&#45;&gt;s2_league4_game2_05_stac_1399316588 -->
<g id="edge18" class="edge">
<title>s2_league4_game2_05_stac_1399316585&#45;&gt;s2_league4_game2_05_stac_1399316588</title>
<g id="a_edge18"><a xlink:title="Contrast">
<path fill="none" stroke="#ff7ecf" d="M63,-65.68C63,-62.58 63,-57.47 63,-53.16"/>
<polygon fill="#ff7ecf" stroke="#ff7ecf" points="64.75,-53.06 63,-48.06 61.25,-53.06 64.75,-53.06"/>
</a>
</g>
</g>
<!-- s2_league4_game2_05_stac_1399316591 -->
<g id="node14" class="node">
<title>s2_league4_game2_05_stac_1399316591</title>
<g id="a_node14"><a xlink:title="14 &#160;ztime &#160;thanks..">
<ellipse fill="black" stroke="black" cx="63" cy="-19.5" rx="3.5" ry="3.5"/>
</a>
</g>
</g>
<!-- s2_league4_game2_05_stac_1399316588&#45;&gt;s2_league4_game2_05_stac_1399316591 -->
<g id="edge19" class="edge">
<title>s2_league4_game2_05_stac_1399316588&#45;&gt;s2_league4_game2_05_stac_1399316591</title>
<g id="a_edge19"><a xlink:title="Comment">
<path fill="none" stroke="#ff8200" d="M63,-40.68C63,-37.58 63,-32.47 63,-28.16"/>
<polygon fill="#ff8200" stroke="#ff8200" points="64.75,-28.06 63,-23.06 61.25,-28.06 64.75,-28.06"/>
</a>
</g>
</g>
</g>
</svg>
