<?xml version="1.0" encoding="UTF-8" standalone="no"?>
<!DOCTYPE svg PUBLIC "-//W3C//DTD SVG 1.1//EN"
 "http://www.w3.org/Graphics/SVG/1.1/DTD/svg11.dtd">
<!-- Generated by graphviz version 3.0.0 (20220226.1711)
 -->
<!-- Title: 1_s2_leagueM_game4_1050 Pages: 1 -->
<svg width="93pt" height="120pt"
 viewBox="0.00 0.00 93.00 120.00" xmlns="http://www.w3.org/2000/svg" xmlns:xlink="http://www.w3.org/1999/xlink">
<g id="graph0" class="graph" transform="scale(1 1) rotate(0) translate(4 116)">
<title>1_s2_leagueM_game4_1050</title>
<polygon fill="white" stroke="transparent" points="-4,4 -4,-116 89,-116 89,4 -4,4"/>
<g id="clust1" class="cluster">
<title>cluster_1_s2_leagueM_game4_1050</title>
<polygon fill="none" stroke="black" points="8,-8 8,-104 77,-104 77,-8 8,-8"/>
<text text-anchor="middle" x="30" y="-88.8" font-family="Times,serif" font-size="14.00">1050</text>
</g>
<!-- s2_leagueM_game4_01_stac_1413791940 -->
<g id="node1" class="node">
<title>s2_leagueM_game4_01_stac_1413791940</title>
<g id="a_node1"><a xlink:title="1 &#160;dmm &#160;any sheep and wheat now?">
<ellipse fill="black" stroke="black" cx="30" cy="-69.5" rx="3.5" ry="3.5"/>
</a>
</g>
</g>
<!-- 1_0 -->
<!-- s2_leagueM_game4_01_stac_1413791940&#45;&gt;1_0 -->
<!-- s2_leagueM_game4_01_stac_1413791947 -->
<g id="node3" class="node">
<title>s2_leagueM_game4_01_stac_1413791947</title>
<g id="a_node3"><a xlink:title="3 &#160;CheshireCatGrin &#160;none to spare, sadly">
<ellipse fill="black" stroke="black" cx="30" cy="-19.5" rx="3.5" ry="3.5"/>
</a>
</g>
</g>
<!-- s2_leagueM_game4_01_stac_1413791940&#45;&gt;s2_leagueM_game4_01_stac_1413791947 -->
<g id="edge6" class="edge">
<title>s2_leagueM_game4_01_stac_1413791940&#45;&gt;s2_leagueM_game4_01_stac_1413791947</title>
<g id="a_edge6"><a xlink:title="Question_answer_pair">
<path fill="none" stroke="#12ffff" d="M29.6,-65.92C28.9,-61.06 27.55,-50.18 28,-41 28.21,-36.78 28.65,-32.09 29.06,-28.26"/>
<polygon fill="#12ffff" stroke="#12ffff" points="30.82,-28.32 29.66,-23.15 27.34,-27.91 30.82,-28.32"/>
</a>
</g>
</g>
<!-- s2_leagueM_game4_01_stac_1413791943 -->
<g id="node5" class="node">
<title>s2_leagueM_game4_01_stac_1413791943</title>
<g id="a_node5"><a xlink:title="2 &#160;inca &#160;still no sheep,">
<ellipse fill="black" stroke="black" cx="40" cy="-44.5" rx="3.5" ry="3.5"/>
</a>
</g>
</g>
<!-- s2_leagueM_game4_01_stac_1413791940&#45;&gt;s2_leagueM_game4_01_stac_1413791943 -->
<g id="edge4" class="edge">
<title>s2_leagueM_game4_01_stac_1413791940&#45;&gt;s2_leagueM_game4_01_stac_1413791943</title>
<g id="a_edge4"><a xlink:title="Question_answer_pair">
<path fill="none" stroke="#12ffff" d="M31.07,-66.04C32.46,-62.84 34.95,-57.12 36.94,-52.53"/>
<polygon fill="#12ffff" stroke="#12ffff" points="38.58,-53.16 38.97,-47.87 35.37,-51.76 38.58,-53.16"/>
</a>
</g>
</g>
<!-- 3_0 -->
<!-- s2_leagueM_game4_01_stac_1413791947&#45;&gt;3_0 -->
<!-- s2_leagueM_game4_01_stac_1413791943&#45;&gt;s2_leagueM_game4_01_stac_1413791947 -->
<!-- s2_leagueM_game4_01_stac_1413791944 -->
<g id="node6" class="node">
<title>s2_leagueM_game4_01_stac_1413791944</title>
<g id="a_node6"><a xlink:title="2 &#160;inca &#160;sorry">
<ellipse fill="black" stroke="black" cx="65" cy="-44.5" rx="3.5" ry="3.5"/>
</a>
</g>
</g>
<!-- s2_leagueM_game4_01_stac_1413791943&#45;&gt;s2_leagueM_game4_01_stac_1413791944 -->
<g id="edge5" class="edge">
<title>s2_leagueM_game4_01_stac_1413791943&#45;&gt;s2_leagueM_game4_01_stac_1413791944</title>
<g id="a_edge5"><a xlink:title="Comment">
<path fill="none" stroke="#ff8200" d="M43.52,-44.5C47.78,-44.5 52.04,-44.5 56.3,-44.5"/>
<polygon fill="#ff8200" stroke="#ff8200" points="56.31,-46.25 61.31,-44.5 56.31,-42.75 56.31,-46.25"/>
</a>
</g>
</g>
</g>
</svg>
