<?xml version="1.0" encoding="UTF-8" standalone="no"?>
<!DOCTYPE svg PUBLIC "-//W3C//DTD SVG 1.1//EN"
 "http://www.w3.org/Graphics/SVG/1.1/DTD/svg11.dtd">
<!-- Generated by graphviz version 3.0.0 (20220226.1711)
 -->
<!-- Title: 6_s2_league4_game2_771 Pages: 1 -->
<svg width="61pt" height="120pt"
 viewBox="0.00 0.00 61.00 120.00" xmlns="http://www.w3.org/2000/svg" xmlns:xlink="http://www.w3.org/1999/xlink">
<g id="graph0" class="graph" transform="scale(1 1) rotate(0) translate(4 116)">
<title>6_s2_league4_game2_771</title>
<polygon fill="white" stroke="transparent" points="-4,4 -4,-116 57,-116 57,4 -4,4"/>
<g id="clust1" class="cluster">
<title>cluster_6_s2_league4_game2_771</title>
<polygon fill="none" stroke="black" points="8,-8 8,-104 45,-104 45,-8 8,-8"/>
<text text-anchor="middle" x="26.5" y="-88.8" font-family="Times,serif" font-size="14.00">771</text>
</g>
<!-- s2_league4_game2_06_stac_1399316503 -->
<g id="node1" class="node">
<title>s2_league4_game2_06_stac_1399316503</title>
<g id="a_node1"><a xlink:title="1 &#160;ztime &#160;drum roll">
<ellipse fill="black" stroke="black" cx="26" cy="-69.5" rx="3.5" ry="3.5"/>
</a>
</g>
</g>
<!-- s2_league4_game2_06_stac_1399316506 -->
<g id="node2" class="node">
<title>s2_league4_game2_06_stac_1399316506</title>
<g id="a_node2"><a xlink:title="2 &#160;ztime &#160;8..">
<ellipse fill="black" stroke="black" cx="26" cy="-44.5" rx="3.5" ry="3.5"/>
</a>
</g>
</g>
<!-- s2_league4_game2_06_stac_1399316503&#45;&gt;s2_league4_game2_06_stac_1399316506 -->
<g id="edge1" class="edge">
<title>s2_league4_game2_06_stac_1399316503&#45;&gt;s2_league4_game2_06_stac_1399316506</title>
<g id="a_edge1"><a xlink:title="Continuation">
<path fill="none" stroke="#10491b" d="M26,-65.68C26,-62.58 26,-57.47 26,-53.16"/>
<polygon fill="#10491b" stroke="#10491b" points="27.75,-53.06 26,-48.06 24.25,-53.06 27.75,-53.06"/>
</a>
</g>
</g>
<!-- s2_league4_game2_06_stac_1399316509 -->
<g id="node3" class="node">
<title>s2_league4_game2_06_stac_1399316509</title>
<g id="a_node3"><a xlink:title="3 &#160;ztime &#160;nice">
<ellipse fill="black" stroke="black" cx="26" cy="-19.5" rx="3.5" ry="3.5"/>
</a>
</g>
</g>
<!-- s2_league4_game2_06_stac_1399316506&#45;&gt;s2_league4_game2_06_stac_1399316509 -->
<g id="edge2" class="edge">
<title>s2_league4_game2_06_stac_1399316506&#45;&gt;s2_league4_game2_06_stac_1399316509</title>
<g id="a_edge2"><a xlink:title="Comment">
<path fill="none" stroke="#ff8200" d="M26,-40.68C26,-37.58 26,-32.47 26,-28.16"/>
<polygon fill="#ff8200" stroke="#ff8200" points="27.75,-28.06 26,-23.06 24.25,-28.06 27.75,-28.06"/>
</a>
</g>
</g>
</g>
</svg>
