<?xml version="1.0" encoding="UTF-8" standalone="no"?>
<!DOCTYPE svg PUBLIC "-//W3C//DTD SVG 1.1//EN"
 "http://www.w3.org/Graphics/SVG/1.1/DTD/svg11.dtd">
<!-- Generated by graphviz version 3.0.0 (20220226.1711)
 -->
<!-- Title: 7_s2_league4_game2_777 Pages: 1 -->
<svg width="114pt" height="395pt"
 viewBox="0.00 0.00 114.00 395.00" xmlns="http://www.w3.org/2000/svg" xmlns:xlink="http://www.w3.org/1999/xlink">
<g id="graph0" class="graph" transform="scale(1 1) rotate(0) translate(4 391)">
<title>7_s2_league4_game2_777</title>
<polygon fill="white" stroke="transparent" points="-4,4 -4,-391 110,-391 110,4 -4,4"/>
<g id="clust1" class="cluster">
<title>cluster_7_s2_league4_game2_777</title>
<polygon fill="none" stroke="black" points="8,-8 8,-379 98,-379 98,-8 8,-8"/>
<text text-anchor="middle" x="26.5" y="-363.8" font-family="Times,serif" font-size="14.00">777</text>
</g>
<!-- s2_league4_game2_07_stac_1399316511 -->
<g id="node1" class="node">
<title>s2_league4_game2_07_stac_1399316511</title>
<g id="a_node1"><a xlink:title="1 &#160;somdechn &#160;Wood &#45;&gt; Sheep">
<ellipse fill="black" stroke="black" cx="43" cy="-344.5" rx="3.5" ry="3.5"/>
</a>
</g>
</g>
<!-- 1_0 -->
<!-- s2_league4_game2_07_stac_1399316511&#45;&gt;1_0 -->
<!-- s2_league4_game2_07_stac_1399316514 -->
<g id="node3" class="node">
<title>s2_league4_game2_07_stac_1399316514</title>
<g id="a_node3"><a xlink:title="2 &#160;somdechn &#160;I need sheep here..">
<ellipse fill="black" stroke="black" cx="20" cy="-319.5" rx="3.5" ry="3.5"/>
</a>
</g>
</g>
<!-- s2_league4_game2_07_stac_1399316511&#45;&gt;s2_league4_game2_07_stac_1399316514 -->
<g id="edge20" class="edge">
<title>s2_league4_game2_07_stac_1399316511&#45;&gt;s2_league4_game2_07_stac_1399316514</title>
<g id="a_edge20"><a xlink:title="Elaboration">
<path fill="none" stroke="#a621c7" d="M40.88,-341.38C37.54,-338.04 30.95,-331.45 26.06,-326.56"/>
<polygon fill="#a621c7" stroke="#a621c7" points="27.23,-325.26 22.46,-322.96 24.76,-327.73 27.23,-325.26"/>
</a>
</g>
</g>
<!-- s2_league4_game2_07_stac_1399316517 -->
<g id="node5" class="node">
<title>s2_league4_game2_07_stac_1399316517</title>
<g id="a_node5"><a xlink:title="3 &#160;ztime &#160;sorry">
<ellipse fill="black" stroke="black" cx="20" cy="-294.5" rx="3.5" ry="3.5"/>
</a>
</g>
</g>
<!-- s2_league4_game2_07_stac_1399316511&#45;&gt;s2_league4_game2_07_stac_1399316517 -->
<g id="edge21" class="edge">
<title>s2_league4_game2_07_stac_1399316511&#45;&gt;s2_league4_game2_07_stac_1399316517</title>
<g id="a_edge21"><a xlink:title="Comment">
<path fill="none" stroke="#ff8200" d="M42.24,-340.84C40.78,-335.85 37.3,-324.75 33,-316 30.59,-311.11 27.3,-305.92 24.63,-301.99"/>
<polygon fill="#ff8200" stroke="#ff8200" points="26,-300.89 21.69,-297.8 23.13,-302.9 26,-300.89"/>
</a>
</g>
</g>
<!-- s2_league4_game2_07_stac_1399316520 -->
<g id="node25" class="node">
<title>s2_league4_game2_07_stac_1399316520</title>
<g id="a_node25"><a xlink:title="4 &#160;Shawnus &#160;sorry,">
<ellipse fill="black" stroke="black" cx="60" cy="-269.5" rx="3.5" ry="3.5"/>
</a>
</g>
</g>
<!-- s2_league4_game2_07_stac_1399316511&#45;&gt;s2_league4_game2_07_stac_1399316520 -->
<g id="edge22" class="edge">
<title>s2_league4_game2_07_stac_1399316511&#45;&gt;s2_league4_game2_07_stac_1399316520</title>
<g id="a_edge22"><a xlink:title="Comment">
<path fill="none" stroke="#ff8200" d="M44.03,-341.09C46.84,-334.4 54.64,-314.97 58,-298 59.31,-291.38 59.78,-283.71 59.95,-278.15"/>
<polygon fill="#ff8200" stroke="#ff8200" points="61.7,-278.13 60.02,-273.11 58.2,-278.08 61.7,-278.13"/>
</a>
</g>
</g>
<!-- 2_0 -->
<!-- s2_league4_game2_07_stac_1399316514&#45;&gt;2_0 -->
<!-- s2_league4_game2_07_stac_1399316514&#45;&gt;s2_league4_game2_07_stac_1399316517 -->
<!-- 3_0 -->
<!-- s2_league4_game2_07_stac_1399316517&#45;&gt;3_0 -->
<!-- s2_league4_game2_07_stac_1399316524 -->
<g id="node7" class="node">
<title>s2_league4_game2_07_stac_1399316524</title>
<g id="a_node7"><a xlink:title="5 &#160;ztime &#160;sheep&#45;free">
<ellipse fill="black" stroke="black" cx="40" cy="-244.5" rx="3.5" ry="3.5"/>
</a>
</g>
</g>
<!-- s2_league4_game2_07_stac_1399316517&#45;&gt;s2_league4_game2_07_stac_1399316524 -->
<g id="edge24" class="edge">
<title>s2_league4_game2_07_stac_1399316517&#45;&gt;s2_league4_game2_07_stac_1399316524</title>
<g id="a_edge24"><a xlink:title="Elaboration">
<path fill="none" stroke="#a621c7" d="M21.08,-290.92C24.06,-283.76 32.53,-263.44 37.06,-252.57"/>
<polygon fill="#a621c7" stroke="#a621c7" points="38.71,-253.15 39.02,-247.86 35.48,-251.81 38.71,-253.15"/>
</a>
</g>
</g>
<!-- s2_league4_game2_07_stac_1399316527 -->
<g id="node9" class="node">
<title>s2_league4_game2_07_stac_1399316527</title>
<g id="a_node9"><a xlink:title="6 &#160;somdechn &#160;2 woods for anything but not wheat.">
<ellipse fill="black" stroke="black" cx="40" cy="-219.5" rx="3.5" ry="3.5"/>
</a>
</g>
</g>
<!-- s2_league4_game2_07_stac_1399316517&#45;&gt;s2_league4_game2_07_stac_1399316527 -->
<g id="edge25" class="edge">
<title>s2_league4_game2_07_stac_1399316517&#45;&gt;s2_league4_game2_07_stac_1399316527</title>
<g id="a_edge25"><a xlink:title="Contrast">
<path fill="none" stroke="#ff7ecf" d="M20.06,-290.56C20.29,-282.43 21.53,-259.05 28,-241 29.8,-235.98 32.85,-230.8 35.42,-226.9"/>
<polygon fill="#ff7ecf" stroke="#ff7ecf" points="36.88,-227.86 38.29,-222.76 34,-225.87 36.88,-227.86"/>
</a>
</g>
</g>
<!-- s2_league4_game2_07_stac_1399316517&#45;&gt;s2_league4_game2_07_stac_1399316520 -->
<!-- 5_0 -->
<!-- s2_league4_game2_07_stac_1399316524&#45;&gt;5_0 -->
<!-- s2_league4_game2_07_stac_1399316524&#45;&gt;s2_league4_game2_07_stac_1399316527 -->
<!-- 6_0 -->
<!-- s2_league4_game2_07_stac_1399316527&#45;&gt;6_0 -->
<!-- s2_league4_game2_07_stac_1399316530 -->
<g id="node11" class="node">
<title>s2_league4_game2_07_stac_1399316530</title>
<g id="a_node11"><a xlink:title="7 &#160;ztime &#160;sorry">
<ellipse fill="black" stroke="black" cx="40" cy="-194.5" rx="3.5" ry="3.5"/>
</a>
</g>
</g>
<!-- s2_league4_game2_07_stac_1399316527&#45;&gt;s2_league4_game2_07_stac_1399316530 -->
<g id="edge27" class="edge">
<title>s2_league4_game2_07_stac_1399316527&#45;&gt;s2_league4_game2_07_stac_1399316530</title>
<g id="a_edge27"><a xlink:title="Comment">
<path fill="none" stroke="#ff8200" d="M40,-215.68C40,-212.58 40,-207.47 40,-203.16"/>
<polygon fill="#ff8200" stroke="#ff8200" points="41.75,-203.06 40,-198.06 38.25,-203.06 41.75,-203.06"/>
</a>
</g>
</g>
<!-- s2_league4_game2_07_stac_1399316536 -->
<g id="node15" class="node">
<title>s2_league4_game2_07_stac_1399316536</title>
<g id="a_node15"><a xlink:title="9 &#160;Shawnus &#160;hahaha a ore?">
<ellipse fill="black" stroke="black" cx="52" cy="-144.5" rx="3.5" ry="3.5"/>
</a>
</g>
</g>
<!-- s2_league4_game2_07_stac_1399316527&#45;&gt;s2_league4_game2_07_stac_1399316536 -->
<g id="edge29" class="edge">
<title>s2_league4_game2_07_stac_1399316527&#45;&gt;s2_league4_game2_07_stac_1399316536</title>
<g id="a_edge29"><a xlink:title="Q_Elab">
<path fill="none" stroke="#0d20ff" d="M41.82,-216.26C44.66,-212.64 50.11,-205.2 53,-198 57.22,-187.48 56.88,-184.28 58,-173 58.31,-169.9 58.44,-169.08 58,-166 57.36,-161.56 55.99,-156.74 54.72,-152.89"/>
<polygon fill="#0d20ff" stroke="#0d20ff" points="56.34,-152.23 53.02,-148.1 53.04,-153.4 56.34,-152.23"/>
</a>
</g>
</g>
<!-- 7_0 -->
<!-- s2_league4_game2_07_stac_1399316530&#45;&gt;7_0 -->
<!-- s2_league4_game2_07_stac_1399316533 -->
<g id="node13" class="node">
<title>s2_league4_game2_07_stac_1399316533</title>
<g id="a_node13"><a xlink:title="8 &#160;ztime &#160;unless you&#39;d accept a wood in return??">
<ellipse fill="black" stroke="black" cx="20" cy="-169.5" rx="3.5" ry="3.5"/>
</a>
</g>
</g>
<!-- s2_league4_game2_07_stac_1399316530&#45;&gt;s2_league4_game2_07_stac_1399316533 -->
<g id="edge28" class="edge">
<title>s2_league4_game2_07_stac_1399316530&#45;&gt;s2_league4_game2_07_stac_1399316533</title>
<g id="a_edge28"><a xlink:title="Alternation">
<path fill="none" stroke="#10495e" d="M38.15,-191.38C35.31,-188.11 29.75,-181.71 25.52,-176.85"/>
<polygon fill="#10495e" stroke="#10495e" points="26.74,-175.59 22.14,-172.96 24.1,-177.88 26.74,-175.59"/>
</a>
</g>
</g>
<!-- 8_0 -->
<!-- s2_league4_game2_07_stac_1399316533&#45;&gt;8_0 -->
<!-- s2_league4_game2_07_stac_1399316533&#45;&gt;s2_league4_game2_07_stac_1399316536 -->
<!-- s2_league4_game2_07_stac_1399316539 -->
<g id="node17" class="node">
<title>s2_league4_game2_07_stac_1399316539</title>
<g id="a_node17"><a xlink:title="10 &#160;somdechn &#160;Sure thing..">
<ellipse fill="black" stroke="black" cx="20" cy="-119.5" rx="3.5" ry="3.5"/>
</a>
</g>
</g>
<!-- s2_league4_game2_07_stac_1399316533&#45;&gt;s2_league4_game2_07_stac_1399316539 -->
<g id="edge30" class="edge">
<title>s2_league4_game2_07_stac_1399316533&#45;&gt;s2_league4_game2_07_stac_1399316539</title>
<g id="a_edge30"><a xlink:title="Question_answer_pair">
<path fill="none" stroke="#12ffff" d="M20,-165.92C20,-158.95 20,-139.55 20,-128.49"/>
<polygon fill="#12ffff" stroke="#12ffff" points="21.75,-128.33 20,-123.33 18.25,-128.33 21.75,-128.33"/>
</a>
</g>
</g>
<!-- 9_0 -->
<!-- s2_league4_game2_07_stac_1399316536&#45;&gt;9_0 -->
<!-- s2_league4_game2_07_stac_1399316536&#45;&gt;s2_league4_game2_07_stac_1399316539 -->
<!-- s2_league4_game2_07_stac_1399316545 -->
<g id="node21" class="node">
<title>s2_league4_game2_07_stac_1399316545</title>
<g id="a_node21"><a xlink:title="12 &#160;somdechn &#160;ore would be good">
<ellipse fill="black" stroke="black" cx="50" cy="-69.5" rx="3.5" ry="3.5"/>
</a>
</g>
</g>
<!-- s2_league4_game2_07_stac_1399316536&#45;&gt;s2_league4_game2_07_stac_1399316545 -->
<g id="edge32" class="edge">
<title>s2_league4_game2_07_stac_1399316536&#45;&gt;s2_league4_game2_07_stac_1399316545</title>
<g id="a_edge32"><a xlink:title="Question_answer_pair">
<path fill="none" stroke="#12ffff" d="M53.02,-140.9C54.47,-137.06 57.05,-129.61 58,-123 60.02,-108.92 60.63,-104.98 58,-91 57.13,-86.36 55.23,-81.42 53.5,-77.55"/>
<polygon fill="#12ffff" stroke="#12ffff" points="54.97,-76.57 51.23,-72.81 51.82,-78.08 54.97,-76.57"/>
</a>
</g>
</g>
<!-- 10_0 -->
<!-- s2_league4_game2_07_stac_1399316539&#45;&gt;10_0 -->
<!-- s2_league4_game2_07_stac_1399316542 -->
<g id="node19" class="node">
<title>s2_league4_game2_07_stac_1399316542</title>
<g id="a_node19"><a xlink:title="11 &#160;ztime &#160;great... set it up!">
<ellipse fill="black" stroke="black" cx="20" cy="-94.5" rx="3.5" ry="3.5"/>
</a>
</g>
</g>
<!-- s2_league4_game2_07_stac_1399316539&#45;&gt;s2_league4_game2_07_stac_1399316542 -->
<g id="edge31" class="edge">
<title>s2_league4_game2_07_stac_1399316539&#45;&gt;s2_league4_game2_07_stac_1399316542</title>
<g id="a_edge31"><a xlink:title="Comment">
<path fill="none" stroke="#ff8200" d="M20,-115.68C20,-112.58 20,-107.47 20,-103.16"/>
<polygon fill="#ff8200" stroke="#ff8200" points="21.75,-103.06 20,-98.06 18.25,-103.06 21.75,-103.06"/>
</a>
</g>
</g>
<!-- 11_0 -->
<!-- s2_league4_game2_07_stac_1399316542&#45;&gt;11_0 -->
<!-- s2_league4_game2_07_stac_1399316542&#45;&gt;s2_league4_game2_07_stac_1399316545 -->
<!-- 12_0 -->
<!-- s2_league4_game2_07_stac_1399316545&#45;&gt;12_0 -->
<!-- s2_league4_game2_07_stacutil_1464011601 -->
<g id="node27" class="node">
<title>s2_league4_game2_07_stacutil_1464011601</title>
<g id="a_node27"><a xlink:title="13 &#160;Shawnus &#160;you sound desperate and i can&#39;t">
<ellipse fill="black" stroke="black" cx="40" cy="-44.5" rx="3.5" ry="3.5"/>
</a>
</g>
</g>
<!-- s2_league4_game2_07_stac_1399316545&#45;&gt;s2_league4_game2_07_stacutil_1464011601 -->
<g id="edge33" class="edge">
<title>s2_league4_game2_07_stac_1399316545&#45;&gt;s2_league4_game2_07_stacutil_1464011601</title>
<g id="a_edge33"><a xlink:title="Comment">
<path fill="none" stroke="#ff8200" d="M48.93,-66.04C47.54,-62.84 45.05,-57.12 43.06,-52.53"/>
<polygon fill="#ff8200" stroke="#ff8200" points="44.63,-51.76 41.03,-47.87 41.42,-53.16 44.63,-51.76"/>
</a>
</g>
</g>
<!-- s2_league4_game2_07_stacutil_1464011602 -->
<g id="node28" class="node">
<title>s2_league4_game2_07_stacutil_1464011602</title>
<g id="a_node28"><a xlink:title="13 &#160;Shawnus &#160;so no">
<ellipse fill="black" stroke="black" cx="65" cy="-44.5" rx="3.5" ry="3.5"/>
</a>
</g>
</g>
<!-- s2_league4_game2_07_stac_1399316545&#45;&gt;s2_league4_game2_07_stacutil_1464011602 -->
<g id="edge34" class="edge">
<title>s2_league4_game2_07_stac_1399316545&#45;&gt;s2_league4_game2_07_stacutil_1464011602</title>
<g id="a_edge34"><a xlink:title="Result">
<path fill="none" stroke="#10ff0f" d="M51.61,-66.04C53.74,-62.77 57.58,-56.87 60.61,-52.23"/>
<polygon fill="#10ff0f" stroke="#10ff0f" points="62.19,-53.02 63.45,-47.87 59.25,-51.11 62.19,-53.02"/>
</a>
</g>
</g>
<!-- s2_league4_game2_07_stac_1399316551 -->
<g id="node23" class="node">
<title>s2_league4_game2_07_stac_1399316551</title>
<g id="a_node23"><a xlink:title="14 &#160;somdechn &#160;Just want to get rid of the cards.">
<ellipse fill="black" stroke="black" cx="40" cy="-19.5" rx="3.5" ry="3.5"/>
</a>
</g>
</g>
<!-- 14_0 -->
<!-- s2_league4_game2_07_stac_1399316551&#45;&gt;14_0 -->
<!-- s2_league4_game2_07_stac_1399316520&#45;&gt;s2_league4_game2_07_stac_1399316524 -->
<!-- s2_league4_game2_07_stac_1399316520&#45;&gt;s2_league4_game2_07_stac_1399316527 -->
<g id="edge26" class="edge">
<title>s2_league4_game2_07_stac_1399316520&#45;&gt;s2_league4_game2_07_stac_1399316527</title>
<g id="a_edge26"><a xlink:title="Contrast">
<path fill="none" stroke="#ff7ecf" d="M62.66,-266.79C68.99,-262.52 83.97,-251 78,-241 71.64,-230.34 57.6,-224.89 48.49,-222.37"/>
<polygon fill="#ff7ecf" stroke="#ff7ecf" points="48.83,-220.66 43.56,-221.17 48,-224.06 48.83,-220.66"/>
</a>
</g>
</g>
<!-- s2_league4_game2_07_stac_1399316521 -->
<g id="node26" class="node">
<title>s2_league4_game2_07_stac_1399316521</title>
<g id="a_node26"><a xlink:title="4 &#160;Shawnus &#160;no sheep on my lands">
<ellipse fill="black" stroke="black" cx="85" cy="-269.5" rx="3.5" ry="3.5"/>
</a>
</g>
</g>
<!-- s2_league4_game2_07_stac_1399316520&#45;&gt;s2_league4_game2_07_stac_1399316521 -->
<g id="edge23" class="edge">
<title>s2_league4_game2_07_stac_1399316520&#45;&gt;s2_league4_game2_07_stac_1399316521</title>
<g id="a_edge23"><a xlink:title="Explanation">
<path fill="none" stroke="#a62139" d="M63.52,-269.5C67.78,-269.5 72.04,-269.5 76.3,-269.5"/>
<polygon fill="#a62139" stroke="#a62139" points="76.31,-271.25 81.31,-269.5 76.31,-267.75 76.31,-271.25"/>
</a>
</g>
</g>
<!-- s2_league4_game2_07_stacutil_1464011601&#45;&gt;s2_league4_game2_07_stac_1399316551 -->
<g id="edge36" class="edge">
<title>s2_league4_game2_07_stacutil_1464011601&#45;&gt;s2_league4_game2_07_stac_1399316551</title>
<g id="a_edge36"><a xlink:title="Contrast">
<path fill="none" stroke="#ff7ecf" d="M40,-40.68C40,-37.58 40,-32.47 40,-28.16"/>
<polygon fill="#ff7ecf" stroke="#ff7ecf" points="41.75,-28.06 40,-23.06 38.25,-28.06 41.75,-28.06"/>
</a>
</g>
</g>
<!-- s2_league4_game2_07_stacutil_1464011601&#45;&gt;s2_league4_game2_07_stacutil_1464011602 -->
<g id="edge35" class="edge">
<title>s2_league4_game2_07_stacutil_1464011601&#45;&gt;s2_league4_game2_07_stacutil_1464011602</title>
<g id="a_edge35"><a xlink:title="Result">
<path fill="none" stroke="#10ff0f" d="M43.52,-44.5C47.78,-44.5 52.04,-44.5 56.3,-44.5"/>
<polygon fill="#10ff0f" stroke="#10ff0f" points="56.31,-46.25 61.31,-44.5 56.31,-42.75 56.31,-46.25"/>
</a>
</g>
</g>
</g>
</svg>
