<?xml version="1.0" encoding="UTF-8" standalone="no"?>
<!DOCTYPE svg PUBLIC "-//W3C//DTD SVG 1.1//EN"
 "http://www.w3.org/Graphics/SVG/1.1/DTD/svg11.dtd">
<!-- Generated by graphviz version 3.0.0 (20220226.1711)
 -->
<!-- Title: 8_s2_league4_game2_781 Pages: 1 -->
<svg width="88pt" height="220pt"
 viewBox="0.00 0.00 88.00 220.00" xmlns="http://www.w3.org/2000/svg" xmlns:xlink="http://www.w3.org/1999/xlink">
<g id="graph0" class="graph" transform="scale(1 1) rotate(0) translate(4 216)">
<title>8_s2_league4_game2_781</title>
<polygon fill="white" stroke="transparent" points="-4,4 -4,-216 84,-216 84,4 -4,4"/>
<g id="clust1" class="cluster">
<title>cluster_8_s2_league4_game2_781</title>
<polygon fill="none" stroke="black" points="8,-8 8,-204 72,-204 72,-8 8,-8"/>
<text text-anchor="middle" x="26.5" y="-188.8" font-family="Times,serif" font-size="14.00">781</text>
</g>
<!-- s2_league4_game2_08_stac_1399316473 -->
<g id="node1" class="node">
<title>s2_league4_game2_08_stac_1399316473</title>
<g id="a_node1"><a xlink:title="1 &#160;somdechn &#160;12 aagain...">
<ellipse fill="black" stroke="black" cx="43" cy="-169.5" rx="3.5" ry="3.5"/>
</a>
</g>
</g>
<!-- s2_league4_game2_08_stac_1399316477 -->
<g id="node2" class="node">
<title>s2_league4_game2_08_stac_1399316477</title>
<g id="a_node2"><a xlink:title="2 &#160;ztime &#160;dude..">
<ellipse fill="black" stroke="black" cx="20" cy="-144.5" rx="3.5" ry="3.5"/>
</a>
</g>
</g>
<!-- s2_league4_game2_08_stac_1399316473&#45;&gt;s2_league4_game2_08_stac_1399316477 -->
<g id="edge5" class="edge">
<title>s2_league4_game2_08_stac_1399316473&#45;&gt;s2_league4_game2_08_stac_1399316477</title>
<g id="a_edge5"><a xlink:title="Comment">
<path fill="none" stroke="#ff8200" d="M40.88,-166.38C37.54,-163.04 30.95,-156.45 26.06,-151.56"/>
<polygon fill="#ff8200" stroke="#ff8200" points="27.23,-150.26 22.46,-147.96 24.76,-152.73 27.23,-150.26"/>
</a>
</g>
</g>
<!-- s2_league4_game2_08_stac_1399316480 -->
<g id="node3" class="node">
<title>s2_league4_game2_08_stac_1399316480</title>
<g id="a_node3"><a xlink:title="3 &#160;Shawnus &#160;haha you are far ahead!">
<ellipse fill="black" stroke="black" cx="40" cy="-119.5" rx="3.5" ry="3.5"/>
</a>
</g>
</g>
<!-- s2_league4_game2_08_stac_1399316473&#45;&gt;s2_league4_game2_08_stac_1399316480 -->
<g id="edge6" class="edge">
<title>s2_league4_game2_08_stac_1399316473&#45;&gt;s2_league4_game2_08_stac_1399316480</title>
<g id="a_edge6"><a xlink:title="Comment">
<path fill="none" stroke="#ff8200" d="M42.84,-165.92C42.4,-158.95 41.19,-139.55 40.5,-128.49"/>
<polygon fill="#ff8200" stroke="#ff8200" points="42.24,-128.21 40.18,-123.33 38.74,-128.43 42.24,-128.21"/>
</a>
</g>
</g>
<!-- s2_league4_game2_08_stac_1399316483 -->
<g id="node4" class="node">
<title>s2_league4_game2_08_stac_1399316483</title>
<g id="a_node4"><a xlink:title="4 &#160;somdechn &#160;Who whats Sheep?">
<ellipse fill="black" stroke="black" cx="41" cy="-94.5" rx="3.5" ry="3.5"/>
</a>
</g>
</g>
<!-- s2_league4_game2_08_stac_1399316473&#45;&gt;s2_league4_game2_08_stac_1399316483 -->
<g id="edge7" class="edge">
<title>s2_league4_game2_08_stac_1399316473&#45;&gt;s2_league4_game2_08_stac_1399316483</title>
<g id="a_edge7"><a xlink:title="Q_Elab">
<path fill="none" stroke="#0d20ff" d="M44.24,-166.06C47.91,-158.53 58.15,-134.98 53,-116 51.6,-110.85 48.55,-105.67 45.88,-101.81"/>
<polygon fill="#0d20ff" stroke="#0d20ff" points="47.23,-100.69 42.84,-97.71 44.42,-102.77 47.23,-100.69"/>
</a>
</g>
</g>
<!-- s2_league4_game2_08_stac_1399316477&#45;&gt;s2_league4_game2_08_stac_1399316480 -->
<!-- s2_league4_game2_08_stac_1399316480&#45;&gt;s2_league4_game2_08_stac_1399316483 -->
<!-- s2_league4_game2_08_stac_1399316486 -->
<g id="node5" class="node">
<title>s2_league4_game2_08_stac_1399316486</title>
<g id="a_node5"><a xlink:title="5 &#160;Shawnus &#160;nope">
<ellipse fill="black" stroke="black" cx="20" cy="-69.5" rx="3.5" ry="3.5"/>
</a>
</g>
</g>
<!-- s2_league4_game2_08_stac_1399316483&#45;&gt;s2_league4_game2_08_stac_1399316486 -->
<g id="edge8" class="edge">
<title>s2_league4_game2_08_stac_1399316483&#45;&gt;s2_league4_game2_08_stac_1399316486</title>
<g id="a_edge8"><a xlink:title="Question_answer_pair">
<path fill="none" stroke="#12ffff" d="M39.06,-91.38C36.08,-88.11 30.23,-81.71 25.8,-76.85"/>
<polygon fill="#12ffff" stroke="#12ffff" points="26.91,-75.47 22.25,-72.96 24.33,-77.83 26.91,-75.47"/>
</a>
</g>
</g>
<!-- s2_league4_game2_08_stac_1399316489 -->
<g id="node6" class="node">
<title>s2_league4_game2_08_stac_1399316489</title>
<g id="a_node6"><a xlink:title="6 &#160;ztime &#160;not really... when you get l road">
<ellipse fill="black" stroke="black" cx="43" cy="-44.5" rx="3.5" ry="3.5"/>
</a>
</g>
</g>
<!-- s2_league4_game2_08_stac_1399316483&#45;&gt;s2_league4_game2_08_stac_1399316489 -->
<g id="edge9" class="edge">
<title>s2_league4_game2_08_stac_1399316483&#45;&gt;s2_league4_game2_08_stac_1399316489</title>
<g id="a_edge9"><a xlink:title="Question_answer_pair">
<path fill="none" stroke="#12ffff" d="M41.11,-90.92C41.4,-83.95 42.21,-64.55 42.67,-53.49"/>
<polygon fill="#12ffff" stroke="#12ffff" points="44.42,-53.4 42.88,-48.33 40.93,-53.26 44.42,-53.4"/>
</a>
</g>
</g>
<!-- s2_league4_game2_08_stac_1399316486&#45;&gt;s2_league4_game2_08_stac_1399316489 -->
<!-- s2_league4_game2_08_stac_1399316493 -->
<g id="node7" class="node">
<title>s2_league4_game2_08_stac_1399316493</title>
<g id="a_node7"><a xlink:title="7 &#160;Shawnus &#160;dont have any of the resources for that">
<ellipse fill="black" stroke="black" cx="31" cy="-19.5" rx="3.5" ry="3.5"/>
</a>
</g>
</g>
<!-- s2_league4_game2_08_stac_1399316486&#45;&gt;s2_league4_game2_08_stac_1399316493 -->
<g id="edge10" class="edge">
<title>s2_league4_game2_08_stac_1399316486&#45;&gt;s2_league4_game2_08_stac_1399316493</title>
<g id="a_edge10"><a xlink:title="Explanation">
<path fill="none" stroke="#a62139" d="M20.59,-65.92C22.19,-58.95 26.64,-39.55 29.17,-28.49"/>
<polygon fill="#a62139" stroke="#a62139" points="30.94,-28.6 30.35,-23.33 27.53,-27.81 30.94,-28.6"/>
</a>
</g>
</g>
<!-- s2_league4_game2_08_stac_1399316489&#45;&gt;s2_league4_game2_08_stac_1399316493 -->
</g>
</svg>
