<?xml version="1.0" encoding="UTF-8" standalone="no"?>
<!DOCTYPE svg PUBLIC "-//W3C//DTD SVG 1.1//EN"
 "http://www.w3.org/Graphics/SVG/1.1/DTD/svg11.dtd">
<!-- Generated by graphviz version 3.0.0 (20220226.1711)
 -->
<!-- Title: 8_s2_league4_game2_782 Pages: 1 -->
<svg width="88pt" height="195pt"
 viewBox="0.00 0.00 88.00 195.00" xmlns="http://www.w3.org/2000/svg" xmlns:xlink="http://www.w3.org/1999/xlink">
<g id="graph0" class="graph" transform="scale(1 1) rotate(0) translate(4 191)">
<title>8_s2_league4_game2_782</title>
<polygon fill="white" stroke="transparent" points="-4,4 -4,-191 84,-191 84,4 -4,4"/>
<g id="clust1" class="cluster">
<title>cluster_8_s2_league4_game2_782</title>
<polygon fill="none" stroke="black" points="8,-8 8,-179 72,-179 72,-8 8,-8"/>
<text text-anchor="middle" x="26.5" y="-163.8" font-family="Times,serif" font-size="14.00">782</text>
</g>
<!-- s2_league4_game2_08_stac_1399316496 -->
<g id="node1" class="node">
<title>s2_league4_game2_08_stac_1399316496</title>
<g id="a_node1"><a xlink:title="1 &#160;ztime &#160;ha.. luck 7">
<ellipse fill="black" stroke="black" cx="43" cy="-144.5" rx="3.5" ry="3.5"/>
</a>
</g>
</g>
<!-- s2_league4_game2_08_stac_1399316499 -->
<g id="node2" class="node">
<title>s2_league4_game2_08_stac_1399316499</title>
<g id="a_node2"><a xlink:title="2 &#160;somdechn &#160;Not again...">
<ellipse fill="black" stroke="black" cx="20" cy="-119.5" rx="3.5" ry="3.5"/>
</a>
</g>
</g>
<!-- s2_league4_game2_08_stac_1399316496&#45;&gt;s2_league4_game2_08_stac_1399316499 -->
<g id="edge3" class="edge">
<title>s2_league4_game2_08_stac_1399316496&#45;&gt;s2_league4_game2_08_stac_1399316499</title>
<g id="a_edge3"><a xlink:title="Contrast">
<path fill="none" stroke="#ff7ecf" d="M40.88,-141.38C37.54,-138.04 30.95,-131.45 26.06,-126.56"/>
<polygon fill="#ff7ecf" stroke="#ff7ecf" points="27.23,-125.26 22.46,-122.96 24.76,-127.73 27.23,-125.26"/>
</a>
</g>
</g>
<!-- s2_league4_game2_08_stac_1399316502 -->
<g id="node3" class="node">
<title>s2_league4_game2_08_stac_1399316502</title>
<g id="a_node3"><a xlink:title="3 &#160;Shawnus &#160;*shakes fist*">
<ellipse fill="black" stroke="black" cx="30" cy="-94.5" rx="3.5" ry="3.5"/>
</a>
</g>
</g>
<!-- s2_league4_game2_08_stac_1399316496&#45;&gt;s2_league4_game2_08_stac_1399316502 -->
<g id="edge4" class="edge">
<title>s2_league4_game2_08_stac_1399316496&#45;&gt;s2_league4_game2_08_stac_1399316502</title>
<g id="a_edge4"><a xlink:title="Comment">
<path fill="none" stroke="#ff8200" d="M42.3,-140.92C40.4,-133.89 35.06,-114.19 32.08,-103.18"/>
<polygon fill="#ff8200" stroke="#ff8200" points="33.76,-102.7 30.77,-98.33 30.39,-103.62 33.76,-102.7"/>
</a>
</g>
</g>
<!-- s2_league4_game2_08_stac_1399316511 -->
<g id="node6" class="node">
<title>s2_league4_game2_08_stac_1399316511</title>
<g id="a_node6"><a xlink:title="6 &#160;ztime &#160;hmm.. what to do..">
<ellipse fill="black" stroke="black" cx="50" cy="-19.5" rx="3.5" ry="3.5"/>
</a>
</g>
</g>
<!-- s2_league4_game2_08_stac_1399316496&#45;&gt;s2_league4_game2_08_stac_1399316511 -->
<g id="edge8" class="edge">
<title>s2_league4_game2_08_stac_1399316496&#45;&gt;s2_league4_game2_08_stac_1399316511</title>
<g id="a_edge8"><a xlink:title="Continuation">
<path fill="none" stroke="#10491b" d="M44.85,-141.05C49.8,-134.23 63,-114.28 63,-95.5 63,-95.5 63,-95.5 63,-68.5 63,-53.63 57.11,-37.04 53.26,-27.78"/>
<polygon fill="#10491b" stroke="#10491b" points="54.8,-26.92 51.2,-23.04 51.59,-28.32 54.8,-26.92"/>
</a>
</g>
</g>
<!-- s2_league4_game2_08_stac_1399316499&#45;&gt;s2_league4_game2_08_stac_1399316502 -->
<!-- s2_league4_game2_08_stac_1399316505 -->
<g id="node4" class="node">
<title>s2_league4_game2_08_stac_1399316505</title>
<g id="a_node4"><a xlink:title="4 &#160;ztime &#160;dog eat dog world...">
<ellipse fill="black" stroke="black" cx="20" cy="-69.5" rx="3.5" ry="3.5"/>
</a>
</g>
</g>
<!-- s2_league4_game2_08_stac_1399316502&#45;&gt;s2_league4_game2_08_stac_1399316505 -->
<g id="edge5" class="edge">
<title>s2_league4_game2_08_stac_1399316502&#45;&gt;s2_league4_game2_08_stac_1399316505</title>
<g id="a_edge5"><a xlink:title="Comment">
<path fill="none" stroke="#ff8200" d="M28.93,-91.04C27.54,-87.84 25.05,-82.12 23.06,-77.53"/>
<polygon fill="#ff8200" stroke="#ff8200" points="24.63,-76.76 21.03,-72.87 21.42,-78.16 24.63,-76.76"/>
</a>
</g>
</g>
<!-- s2_league4_game2_08_stac_1399316508 -->
<g id="node5" class="node">
<title>s2_league4_game2_08_stac_1399316508</title>
<g id="a_node5"><a xlink:title="5 &#160;Shawnus &#160;literally took bread from my mouth there">
<ellipse fill="black" stroke="black" cx="40" cy="-44.5" rx="3.5" ry="3.5"/>
</a>
</g>
</g>
<!-- s2_league4_game2_08_stac_1399316502&#45;&gt;s2_league4_game2_08_stac_1399316508 -->
<g id="edge6" class="edge">
<title>s2_league4_game2_08_stac_1399316502&#45;&gt;s2_league4_game2_08_stac_1399316508</title>
<g id="a_edge6"><a xlink:title="Explanation">
<path fill="none" stroke="#a62139" d="M30.54,-90.92C31.99,-83.95 36.03,-64.55 38.34,-53.49"/>
<polygon fill="#a62139" stroke="#a62139" points="40.1,-53.58 39.41,-48.33 36.68,-52.87 40.1,-53.58"/>
</a>
</g>
</g>
<!-- s2_league4_game2_08_stac_1399316505&#45;&gt;s2_league4_game2_08_stac_1399316508 -->
<g id="edge7" class="edge">
<title>s2_league4_game2_08_stac_1399316505&#45;&gt;s2_league4_game2_08_stac_1399316508</title>
<g id="a_edge7"><a xlink:title="Comment">
<path fill="none" stroke="#ff8200" d="M21.85,-66.38C24.69,-63.11 30.25,-56.71 34.48,-51.85"/>
<polygon fill="#ff8200" stroke="#ff8200" points="35.9,-52.88 37.86,-47.96 33.26,-50.59 35.9,-52.88"/>
</a>
</g>
</g>
<!-- s2_league4_game2_08_stac_1399316508&#45;&gt;s2_league4_game2_08_stac_1399316511 -->
</g>
</svg>
