<?xml version="1.0" encoding="UTF-8" standalone="no"?>
<!DOCTYPE svg PUBLIC "-//W3C//DTD SVG 1.1//EN"
 "http://www.w3.org/Graphics/SVG/1.1/DTD/svg11.dtd">
<!-- Generated by graphviz version 3.0.0 (20220226.1711)
 -->
<!-- Title: 9_s2_league4_game2_787 Pages: 1 -->
<svg width="128pt" height="770pt"
 viewBox="0.00 0.00 128.00 770.00" xmlns="http://www.w3.org/2000/svg" xmlns:xlink="http://www.w3.org/1999/xlink">
<g id="graph0" class="graph" transform="scale(1 1) rotate(0) translate(4 766)">
<title>9_s2_league4_game2_787</title>
<polygon fill="white" stroke="transparent" points="-4,4 -4,-766 124,-766 124,4 -4,4"/>
<g id="clust1" class="cluster">
<title>cluster_9_s2_league4_game2_787</title>
<polygon fill="none" stroke="black" points="8,-8 8,-754 112,-754 112,-8 8,-8"/>
<text text-anchor="middle" x="26.5" y="-738.8" font-family="Times,serif" font-size="14.00">787</text>
</g>
<!-- s2_league4_game2_09_stac_1399316507 -->
<g id="node1" class="node">
<title>s2_league4_game2_09_stac_1399316507</title>
<g id="a_node1"><a xlink:title="1 &#160;somdechn &#160;I have give wood for wheat.">
<ellipse fill="black" stroke="black" cx="67" cy="-719.5" rx="3.5" ry="3.5"/>
</a>
</g>
</g>
<!-- s2_league4_game2_09_stac_1399316510 -->
<g id="node2" class="node">
<title>s2_league4_game2_09_stac_1399316510</title>
<g id="a_node2"><a xlink:title="2 &#160;ztime &#160;have none">
<ellipse fill="black" stroke="black" cx="56" cy="-694.5" rx="3.5" ry="3.5"/>
</a>
</g>
</g>
<!-- s2_league4_game2_09_stac_1399316507&#45;&gt;s2_league4_game2_09_stac_1399316510 -->
<g id="edge14" class="edge">
<title>s2_league4_game2_09_stac_1399316507&#45;&gt;s2_league4_game2_09_stac_1399316510</title>
<g id="a_edge14"><a xlink:title="Question_answer_pair">
<path fill="none" stroke="#12ffff" d="M65.82,-716.04C64.29,-712.84 61.56,-707.12 59.36,-702.53"/>
<polygon fill="#12ffff" stroke="#12ffff" points="60.87,-701.63 57.14,-697.87 57.71,-703.14 60.87,-701.63"/>
</a>
</g>
</g>
<!-- s2_league4_game2_09_stac_1399316513 -->
<g id="node3" class="node">
<title>s2_league4_game2_09_stac_1399316513</title>
<g id="a_node3"><a xlink:title="3 &#160;Shawnus &#160;need wheat">
<ellipse fill="black" stroke="black" cx="68" cy="-669.5" rx="3.5" ry="3.5"/>
</a>
</g>
</g>
<!-- s2_league4_game2_09_stac_1399316507&#45;&gt;s2_league4_game2_09_stac_1399316513 -->
<g id="edge15" class="edge">
<title>s2_league4_game2_09_stac_1399316507&#45;&gt;s2_league4_game2_09_stac_1399316513</title>
<g id="a_edge15"><a xlink:title="Question_answer_pair">
<path fill="none" stroke="#12ffff" d="M67.34,-715.85C67.83,-711.95 68.69,-704.43 69,-698 69.33,-691.27 68.99,-683.61 68.62,-678.09"/>
<polygon fill="#12ffff" stroke="#12ffff" points="70.37,-677.93 68.24,-673.08 66.88,-678.2 70.37,-677.93"/>
</a>
</g>
</g>
<!-- s2_league4_game2_09_stac_1399316510&#45;&gt;s2_league4_game2_09_stac_1399316513 -->
<!-- s2_league4_game2_09_stac_1399316516 -->
<g id="node4" class="node">
<title>s2_league4_game2_09_stac_1399316516</title>
<g id="a_node4"><a xlink:title="4 &#160;somdechn &#160;So do I.">
<ellipse fill="black" stroke="black" cx="34" cy="-644.5" rx="3.5" ry="3.5"/>
</a>
</g>
</g>
<!-- s2_league4_game2_09_stac_1399316513&#45;&gt;s2_league4_game2_09_stac_1399316516 -->
<g id="edge16" class="edge">
<title>s2_league4_game2_09_stac_1399316513&#45;&gt;s2_league4_game2_09_stac_1399316516</title>
<g id="a_edge16"><a xlink:title="Question_answer_pair">
<path fill="none" stroke="#12ffff" d="M65.33,-666.7C60.14,-663.18 48.54,-655.33 41,-650.24"/>
<polygon fill="#12ffff" stroke="#12ffff" points="41.68,-648.59 36.56,-647.23 39.72,-651.48 41.68,-648.59"/>
</a>
</g>
</g>
<!-- s2_league4_game2_09_stac_1399316519 -->
<g id="node5" class="node">
<title>s2_league4_game2_09_stac_1399316519</title>
<g id="a_node5"><a xlink:title="5 &#160;ztime &#160;so do i">
<ellipse fill="black" stroke="black" cx="80" cy="-619.5" rx="3.5" ry="3.5"/>
</a>
</g>
</g>
<!-- s2_league4_game2_09_stac_1399316513&#45;&gt;s2_league4_game2_09_stac_1399316519 -->
<g id="edge17" class="edge">
<title>s2_league4_game2_09_stac_1399316513&#45;&gt;s2_league4_game2_09_stac_1399316519</title>
<g id="a_edge17"><a xlink:title="Question_answer_pair">
<path fill="none" stroke="#12ffff" d="M68.65,-665.92C70.39,-658.95 75.24,-639.55 78,-628.49"/>
<polygon fill="#12ffff" stroke="#12ffff" points="79.78,-628.61 79.29,-623.33 76.38,-627.76 79.78,-628.61"/>
</a>
</g>
</g>
<!-- s2_league4_game2_09_stac_1399316522 -->
<g id="node6" class="node">
<title>s2_league4_game2_09_stac_1399316522</title>
<g id="a_node6"><a xlink:title="6 &#160;Shawnus &#160;we should cut down some forests and plant crops..">
<ellipse fill="black" stroke="black" cx="57" cy="-594.5" rx="3.5" ry="3.5"/>
</a>
</g>
</g>
<!-- s2_league4_game2_09_stac_1399316513&#45;&gt;s2_league4_game2_09_stac_1399316522 -->
<g id="edge19" class="edge">
<title>s2_league4_game2_09_stac_1399316513&#45;&gt;s2_league4_game2_09_stac_1399316522</title>
<g id="a_edge19"><a xlink:title="Elaboration">
<path fill="none" stroke="#a621c7" d="M67.58,-665.73C66.04,-655.52 60.66,-619.78 58.22,-603.59"/>
<polygon fill="#a621c7" stroke="#a621c7" points="59.89,-602.96 57.42,-598.28 56.43,-603.48 59.89,-602.96"/>
</a>
</g>
</g>
<!-- s2_league4_game2_09_stac_1399316528 -->
<g id="node8" class="node">
<title>s2_league4_game2_09_stac_1399316528</title>
<g id="a_node8"><a xlink:title="8 &#160;ztime &#160;the bank always wins...">
<ellipse fill="black" stroke="black" cx="68" cy="-544.5" rx="3.5" ry="3.5"/>
</a>
</g>
</g>
<!-- s2_league4_game2_09_stac_1399316513&#45;&gt;s2_league4_game2_09_stac_1399316528 -->
<g id="edge23" class="edge">
<title>s2_league4_game2_09_stac_1399316513&#45;&gt;s2_league4_game2_09_stac_1399316528</title>
<g id="a_edge23"><a xlink:title="Comment">
<path fill="none" stroke="#ff8200" d="M70.75,-666.67C79,-660.93 103,-642.36 103,-620.5 103,-620.5 103,-620.5 103,-593.5 103,-574.71 85.27,-558.35 75.05,-550.48"/>
<polygon fill="#ff8200" stroke="#ff8200" points="75.81,-548.87 70.75,-547.33 73.74,-551.7 75.81,-548.87"/>
</a>
</g>
</g>
<!-- s2_league4_game2_09_stac_1399316516&#45;&gt;s2_league4_game2_09_stac_1399316519 -->
<g id="edge18" class="edge">
<title>s2_league4_game2_09_stac_1399316516&#45;&gt;s2_league4_game2_09_stac_1399316519</title>
<g id="a_edge18"><a xlink:title="Parallel">
<path fill="none" stroke="#0ab046" d="M36.74,-642.13C43.72,-638.64 62.37,-629.31 72.76,-624.12"/>
<polygon fill="#0ab046" stroke="#0ab046" points="73.64,-625.64 77.33,-621.83 72.08,-622.5 73.64,-625.64"/>
</a>
</g>
</g>
<!-- s2_league4_game2_09_stac_1399316516&#45;&gt;s2_league4_game2_09_stac_1399316522 -->
<g id="edge20" class="edge">
<title>s2_league4_game2_09_stac_1399316516&#45;&gt;s2_league4_game2_09_stac_1399316522</title>
<g id="a_edge20"><a xlink:title="Result">
<path fill="none" stroke="#10ff0f" d="M35.24,-640.92C38.67,-633.76 48.4,-613.44 53.61,-602.57"/>
<polygon fill="#10ff0f" stroke="#10ff0f" points="55.28,-603.13 55.87,-597.86 52.13,-601.62 55.28,-603.13"/>
</a>
</g>
</g>
<!-- s2_league4_game2_09_stac_1399316516&#45;&gt;s2_league4_game2_09_stac_1399316528 -->
<g id="edge24" class="edge">
<title>s2_league4_game2_09_stac_1399316516&#45;&gt;s2_league4_game2_09_stac_1399316528</title>
<g id="a_edge24"><a xlink:title="Comment">
<path fill="none" stroke="#ff8200" d="M33.75,-640.9C32.9,-630.65 30.88,-592.35 45,-566 48.71,-559.07 55.75,-553.34 61.06,-549.72"/>
<polygon fill="#ff8200" stroke="#ff8200" points="62.04,-551.17 65.32,-547.01 60.16,-548.22 62.04,-551.17"/>
</a>
</g>
</g>
<!-- s2_league4_game2_09_stac_1399316519&#45;&gt;s2_league4_game2_09_stac_1399316522 -->
<g id="edge21" class="edge">
<title>s2_league4_game2_09_stac_1399316519&#45;&gt;s2_league4_game2_09_stac_1399316522</title>
<g id="a_edge21"><a xlink:title="Result">
<path fill="none" stroke="#10ff0f" d="M77.88,-616.38C74.54,-613.04 67.95,-606.45 63.06,-601.56"/>
<polygon fill="#10ff0f" stroke="#10ff0f" points="64.23,-600.26 59.46,-597.96 61.76,-602.73 64.23,-600.26"/>
</a>
</g>
</g>
<!-- s2_league4_game2_09_stac_1399316519&#45;&gt;s2_league4_game2_09_stac_1399316528 -->
<g id="edge25" class="edge">
<title>s2_league4_game2_09_stac_1399316519&#45;&gt;s2_league4_game2_09_stac_1399316528</title>
<g id="a_edge25"><a xlink:title="Continuation">
<path fill="none" stroke="#10491b" d="M79.54,-615.73C77.87,-605.52 71.99,-569.78 69.33,-553.59"/>
<polygon fill="#10491b" stroke="#10491b" points="70.99,-552.93 68.46,-548.28 67.54,-553.49 70.99,-552.93"/>
</a>
</g>
</g>
<!-- s2_league4_game2_09_stac_1399316525 -->
<g id="node7" class="node">
<title>s2_league4_game2_09_stac_1399316525</title>
<g id="a_node7"><a xlink:title="7 &#160;ztime &#160;yer...">
<ellipse fill="black" stroke="black" cx="57" cy="-569.5" rx="3.5" ry="3.5"/>
</a>
</g>
</g>
<!-- s2_league4_game2_09_stac_1399316522&#45;&gt;s2_league4_game2_09_stac_1399316525 -->
<g id="edge22" class="edge">
<title>s2_league4_game2_09_stac_1399316522&#45;&gt;s2_league4_game2_09_stac_1399316525</title>
<g id="a_edge22"><a xlink:title="Question_answer_pair">
<path fill="none" stroke="#12ffff" d="M57,-590.68C57,-587.58 57,-582.47 57,-578.16"/>
<polygon fill="#12ffff" stroke="#12ffff" points="58.75,-578.06 57,-573.06 55.25,-578.06 58.75,-578.06"/>
</a>
</g>
</g>
<!-- s2_league4_game2_09_stac_1399316525&#45;&gt;s2_league4_game2_09_stac_1399316528 -->
<!-- s2_league4_game2_09_stac_1399316532 -->
<g id="node9" class="node">
<title>s2_league4_game2_09_stac_1399316532</title>
<g id="a_node9"><a xlink:title="9 &#160;somdechn &#160;Yep... Bank always win.">
<ellipse fill="black" stroke="black" cx="68" cy="-519.5" rx="3.5" ry="3.5"/>
</a>
</g>
</g>
<!-- s2_league4_game2_09_stac_1399316528&#45;&gt;s2_league4_game2_09_stac_1399316532 -->
<g id="edge26" class="edge">
<title>s2_league4_game2_09_stac_1399316528&#45;&gt;s2_league4_game2_09_stac_1399316532</title>
<g id="a_edge26"><a xlink:title="Acknowledgement">
<path fill="none" stroke="#12ffff" d="M68,-540.68C68,-537.58 68,-532.47 68,-528.16"/>
<polygon fill="#12ffff" stroke="#12ffff" points="69.75,-528.06 68,-523.06 66.25,-528.06 69.75,-528.06"/>
</a>
</g>
</g>
<!-- s2_league4_game2_09_stac_1399316535 -->
<g id="node10" class="node">
<title>s2_league4_game2_09_stac_1399316535</title>
<g id="a_node10"><a xlink:title="10 &#160;ztime &#160;ha well done..">
<ellipse fill="black" stroke="black" cx="61" cy="-494.5" rx="3.5" ry="3.5"/>
</a>
</g>
</g>
<!-- s2_league4_game2_09_stac_1399316532&#45;&gt;s2_league4_game2_09_stac_1399316535 -->
<g id="edge27" class="edge">
<title>s2_league4_game2_09_stac_1399316532&#45;&gt;s2_league4_game2_09_stac_1399316535</title>
<g id="a_edge27"><a xlink:title="Comment">
<path fill="none" stroke="#ff8200" d="M67.25,-516.04C66.32,-512.97 64.68,-507.6 63.32,-503.12"/>
<polygon fill="#ff8200" stroke="#ff8200" points="64.94,-502.43 61.81,-498.16 61.59,-503.45 64.94,-502.43"/>
</a>
</g>
</g>
<!-- s2_league4_game2_09_stac_1399316538 -->
<g id="node11" class="node">
<title>s2_league4_game2_09_stac_1399316538</title>
<g id="a_node11"><a xlink:title="11 &#160;ztime &#160;I enjoyed it for a while...">
<ellipse fill="black" stroke="black" cx="72" cy="-469.5" rx="3.5" ry="3.5"/>
</a>
</g>
</g>
<!-- s2_league4_game2_09_stac_1399316532&#45;&gt;s2_league4_game2_09_stac_1399316538 -->
<g id="edge28" class="edge">
<title>s2_league4_game2_09_stac_1399316532&#45;&gt;s2_league4_game2_09_stac_1399316538</title>
<g id="a_edge28"><a xlink:title="Comment">
<path fill="none" stroke="#ff8200" d="M69.02,-515.9C70.47,-512.06 73.05,-504.61 74,-498 74.96,-491.32 74.25,-483.65 73.43,-478.12"/>
<polygon fill="#ff8200" stroke="#ff8200" points="75.13,-477.72 72.56,-473.09 71.69,-478.32 75.13,-477.72"/>
</a>
</g>
</g>
<!-- s2_league4_game2_09_stac_1399316535&#45;&gt;s2_league4_game2_09_stac_1399316538 -->
<g id="edge29" class="edge">
<title>s2_league4_game2_09_stac_1399316535&#45;&gt;s2_league4_game2_09_stac_1399316538</title>
<g id="a_edge29"><a xlink:title="Elaboration">
<path fill="none" stroke="#a621c7" d="M62.18,-491.04C63.71,-487.84 66.44,-482.12 68.64,-477.53"/>
<polygon fill="#a621c7" stroke="#a621c7" points="70.29,-478.14 70.86,-472.87 67.13,-476.63 70.29,-478.14"/>
</a>
</g>
</g>
<!-- s2_league4_game2_09_stac_1399316542 -->
<g id="node12" class="node">
<title>s2_league4_game2_09_stac_1399316542</title>
<g id="a_node12"><a xlink:title="12 &#160;Shawnus &#160;haha">
<ellipse fill="black" stroke="black" cx="61" cy="-444.5" rx="3.5" ry="3.5"/>
</a>
</g>
</g>
<!-- s2_league4_game2_09_stac_1399316538&#45;&gt;s2_league4_game2_09_stac_1399316542 -->
<g id="edge30" class="edge">
<title>s2_league4_game2_09_stac_1399316538&#45;&gt;s2_league4_game2_09_stac_1399316542</title>
<g id="a_edge30"><a xlink:title="Comment">
<path fill="none" stroke="#ff8200" d="M70.82,-466.04C69.29,-462.84 66.56,-457.12 64.36,-452.53"/>
<polygon fill="#ff8200" stroke="#ff8200" points="65.87,-451.63 62.14,-447.87 62.71,-453.14 65.87,-451.63"/>
</a>
</g>
</g>
<!-- s2_league4_game2_09_stac_1399316545 -->
<g id="node13" class="node">
<title>s2_league4_game2_09_stac_1399316545</title>
<g id="a_node13"><a xlink:title="13 &#160;ztime &#160;just seem to be stuck here...">
<ellipse fill="black" stroke="black" cx="67" cy="-419.5" rx="3.5" ry="3.5"/>
</a>
</g>
</g>
<!-- s2_league4_game2_09_stac_1399316538&#45;&gt;s2_league4_game2_09_stac_1399316545 -->
<g id="edge31" class="edge">
<title>s2_league4_game2_09_stac_1399316538&#45;&gt;s2_league4_game2_09_stac_1399316545</title>
<g id="a_edge31"><a xlink:title="Contrast">
<path fill="none" stroke="#ff7ecf" d="M72.59,-465.9C73.63,-461 75.51,-450.07 74,-441 73.24,-436.41 71.58,-431.48 70.07,-427.6"/>
<polygon fill="#ff7ecf" stroke="#ff7ecf" points="71.62,-426.77 68.08,-422.83 68.39,-428.12 71.62,-426.77"/>
</a>
</g>
</g>
<!-- s2_league4_game2_09_stac_1399316542&#45;&gt;s2_league4_game2_09_stac_1399316545 -->
<!-- s2_league4_game2_09_stac_1399316548 -->
<g id="node14" class="node">
<title>s2_league4_game2_09_stac_1399316548</title>
<g id="a_node14"><a xlink:title="14 &#160;somdechn &#160;That&#39;s good fo us...">
<ellipse fill="black" stroke="black" cx="44" cy="-394.5" rx="3.5" ry="3.5"/>
</a>
</g>
</g>
<!-- s2_league4_game2_09_stac_1399316545&#45;&gt;s2_league4_game2_09_stac_1399316548 -->
<g id="edge32" class="edge">
<title>s2_league4_game2_09_stac_1399316545&#45;&gt;s2_league4_game2_09_stac_1399316548</title>
<g id="a_edge32"><a xlink:title="Comment">
<path fill="none" stroke="#ff8200" d="M64.88,-416.38C61.54,-413.04 54.95,-406.45 50.06,-401.56"/>
<polygon fill="#ff8200" stroke="#ff8200" points="51.23,-400.26 46.46,-397.96 48.76,-402.73 51.23,-400.26"/>
</a>
</g>
</g>
<!-- s2_league4_game2_09_stac_1399316551 -->
<g id="node15" class="node">
<title>s2_league4_game2_09_stac_1399316551</title>
<g id="a_node15"><a xlink:title="15 &#160;ztime &#160;anyone want wood?">
<ellipse fill="black" stroke="black" cx="64" cy="-369.5" rx="3.5" ry="3.5"/>
</a>
</g>
</g>
<!-- s2_league4_game2_09_stac_1399316545&#45;&gt;s2_league4_game2_09_stac_1399316551 -->
<g id="edge33" class="edge">
<title>s2_league4_game2_09_stac_1399316545&#45;&gt;s2_league4_game2_09_stac_1399316551</title>
<g id="a_edge33"><a xlink:title="Continuation">
<path fill="none" stroke="#10491b" d="M66.84,-415.92C66.4,-408.95 65.19,-389.55 64.5,-378.49"/>
<polygon fill="#10491b" stroke="#10491b" points="66.24,-378.21 64.18,-373.33 62.74,-378.43 66.24,-378.21"/>
</a>
</g>
</g>
<!-- s2_league4_game2_09_stac_1399316554 -->
<g id="node16" class="node">
<title>s2_league4_game2_09_stac_1399316554</title>
<g id="a_node16"><a xlink:title="16 &#160;Shawnus &#160;it&#39;s a long close game">
<ellipse fill="black" stroke="black" cx="87" cy="-344.5" rx="3.5" ry="3.5"/>
</a>
</g>
</g>
<!-- s2_league4_game2_09_stac_1399316545&#45;&gt;s2_league4_game2_09_stac_1399316554 -->
<g id="edge34" class="edge">
<title>s2_league4_game2_09_stac_1399316545&#45;&gt;s2_league4_game2_09_stac_1399316554</title>
<g id="a_edge34"><a xlink:title="Comment">
<path fill="none" stroke="#ff8200" d="M67.76,-415.73C70.58,-405.43 80.52,-369.14 84.9,-353.15"/>
<polygon fill="#ff8200" stroke="#ff8200" points="86.69,-353.26 86.32,-347.97 83.31,-352.33 86.69,-353.26"/>
</a>
</g>
</g>
<!-- s2_league4_game2_09_stac_1399316548&#45;&gt;s2_league4_game2_09_stac_1399316551 -->
<!-- s2_league4_game2_09_stac_1399316551&#45;&gt;s2_league4_game2_09_stac_1399316554 -->
<!-- s2_league4_game2_09_stac_1399316557 -->
<g id="node17" class="node">
<title>s2_league4_game2_09_stac_1399316557</title>
<g id="a_node17"><a xlink:title="17 &#160;Shawnus &#160;nope">
<ellipse fill="black" stroke="black" cx="41" cy="-319.5" rx="3.5" ry="3.5"/>
</a>
</g>
</g>
<!-- s2_league4_game2_09_stac_1399316551&#45;&gt;s2_league4_game2_09_stac_1399316557 -->
<g id="edge35" class="edge">
<title>s2_league4_game2_09_stac_1399316551&#45;&gt;s2_league4_game2_09_stac_1399316557</title>
<g id="a_edge35"><a xlink:title="Question_answer_pair">
<path fill="none" stroke="#12ffff" d="M62.76,-365.92C59.33,-358.76 49.6,-338.44 44.39,-327.57"/>
<polygon fill="#12ffff" stroke="#12ffff" points="45.87,-326.62 42.13,-322.86 42.72,-328.13 45.87,-326.62"/>
</a>
</g>
</g>
<!-- s2_league4_game2_09_stac_1399316560 -->
<g id="node18" class="node">
<title>s2_league4_game2_09_stac_1399316560</title>
<g id="a_node18"><a xlink:title="18 &#160;somdechn &#160;nop">
<ellipse fill="black" stroke="black" cx="64" cy="-294.5" rx="3.5" ry="3.5"/>
</a>
</g>
</g>
<!-- s2_league4_game2_09_stac_1399316551&#45;&gt;s2_league4_game2_09_stac_1399316560 -->
<g id="edge36" class="edge">
<title>s2_league4_game2_09_stac_1399316551&#45;&gt;s2_league4_game2_09_stac_1399316560</title>
<g id="a_edge36"><a xlink:title="Question_answer_pair">
<path fill="none" stroke="#12ffff" d="M64,-365.73C64,-355.52 64,-319.78 64,-303.59"/>
<polygon fill="#12ffff" stroke="#12ffff" points="65.75,-303.28 64,-298.28 62.25,-303.28 65.75,-303.28"/>
</a>
</g>
</g>
<!-- s2_league4_game2_09_stac_1399316554&#45;&gt;s2_league4_game2_09_stac_1399316557 -->
<!-- s2_league4_game2_09_stac_1399316563 -->
<g id="node19" class="node">
<title>s2_league4_game2_09_stac_1399316563</title>
<g id="a_node19"><a xlink:title="19 &#160;ztime &#160;yer.... it&#39;s close..">
<ellipse fill="black" stroke="black" cx="85" cy="-269.5" rx="3.5" ry="3.5"/>
</a>
</g>
</g>
<!-- s2_league4_game2_09_stac_1399316554&#45;&gt;s2_league4_game2_09_stac_1399316563 -->
<g id="edge37" class="edge">
<title>s2_league4_game2_09_stac_1399316554&#45;&gt;s2_league4_game2_09_stac_1399316563</title>
<g id="a_edge37"><a xlink:title="Comment">
<path fill="none" stroke="#ff8200" d="M86.92,-340.73C86.64,-330.52 85.67,-294.78 85.22,-278.59"/>
<polygon fill="#ff8200" stroke="#ff8200" points="86.96,-278.23 85.08,-273.28 83.46,-278.32 86.96,-278.23"/>
</a>
</g>
</g>
<!-- s2_league4_game2_09_stac_1399316557&#45;&gt;s2_league4_game2_09_stac_1399316560 -->
<!-- s2_league4_game2_09_stac_1399316566 -->
<g id="node20" class="node">
<title>s2_league4_game2_09_stac_1399316566</title>
<g id="a_node20"><a xlink:title="20 &#160;ztime &#160;ok..">
<ellipse fill="black" stroke="black" cx="62" cy="-244.5" rx="3.5" ry="3.5"/>
</a>
</g>
</g>
<!-- s2_league4_game2_09_stac_1399316557&#45;&gt;s2_league4_game2_09_stac_1399316566 -->
<g id="edge38" class="edge">
<title>s2_league4_game2_09_stac_1399316557&#45;&gt;s2_league4_game2_09_stac_1399316566</title>
<g id="a_edge38"><a xlink:title="Acknowledgement">
<path fill="none" stroke="#12ffff" d="M41.8,-315.73C44.76,-305.43 55.2,-269.14 59.8,-253.15"/>
<polygon fill="#12ffff" stroke="#12ffff" points="61.59,-253.26 61.29,-247.97 58.23,-252.29 61.59,-253.26"/>
</a>
</g>
</g>
<!-- s2_league4_game2_09_stac_1399316560&#45;&gt;s2_league4_game2_09_stac_1399316563 -->
<!-- s2_league4_game2_09_stac_1399316560&#45;&gt;s2_league4_game2_09_stac_1399316566 -->
<g id="edge39" class="edge">
<title>s2_league4_game2_09_stac_1399316560&#45;&gt;s2_league4_game2_09_stac_1399316566</title>
<g id="a_edge39"><a xlink:title="Acknowledgement">
<path fill="none" stroke="#12ffff" d="M63.89,-290.92C63.6,-283.95 62.79,-264.55 62.33,-253.49"/>
<polygon fill="#12ffff" stroke="#12ffff" points="64.07,-253.26 62.12,-248.33 60.58,-253.4 64.07,-253.26"/>
</a>
</g>
</g>
<!-- s2_league4_game2_09_stac_1399316563&#45;&gt;s2_league4_game2_09_stac_1399316566 -->
<!-- s2_league4_game2_09_stac_1399316569 -->
<g id="node21" class="node">
<title>s2_league4_game2_09_stac_1399316569</title>
<g id="a_node21"><a xlink:title="21 &#160;somdechn &#160;Hey ehey...">
<ellipse fill="black" stroke="black" cx="62" cy="-219.5" rx="3.5" ry="3.5"/>
</a>
</g>
</g>
<!-- s2_league4_game2_09_stac_1399316566&#45;&gt;s2_league4_game2_09_stac_1399316569 -->
<g id="edge40" class="edge">
<title>s2_league4_game2_09_stac_1399316566&#45;&gt;s2_league4_game2_09_stac_1399316569</title>
<g id="a_edge40"><a xlink:title="Acknowledgement">
<path fill="none" stroke="#12ffff" d="M62,-240.68C62,-237.58 62,-232.47 62,-228.16"/>
<polygon fill="#12ffff" stroke="#12ffff" points="63.75,-228.06 62,-223.06 60.25,-228.06 63.75,-228.06"/>
</a>
</g>
</g>
<!-- s2_league4_game2_09_stac_1399316573 -->
<g id="node22" class="node">
<title>s2_league4_game2_09_stac_1399316573</title>
<g id="a_node22"><a xlink:title="22 &#160;ztime &#160;I&#39;m helping you out..">
<ellipse fill="black" stroke="black" cx="62" cy="-194.5" rx="3.5" ry="3.5"/>
</a>
</g>
</g>
<!-- s2_league4_game2_09_stac_1399316569&#45;&gt;s2_league4_game2_09_stac_1399316573 -->
<g id="edge41" class="edge">
<title>s2_league4_game2_09_stac_1399316569&#45;&gt;s2_league4_game2_09_stac_1399316573</title>
<g id="a_edge41"><a xlink:title="Comment">
<path fill="none" stroke="#ff8200" d="M62,-215.68C62,-212.58 62,-207.47 62,-203.16"/>
<polygon fill="#ff8200" stroke="#ff8200" points="63.75,-203.06 62,-198.06 60.25,-203.06 63.75,-203.06"/>
</a>
</g>
</g>
<!-- s2_league4_game2_09_stac_1399316576 -->
<g id="node23" class="node">
<title>s2_league4_game2_09_stac_1399316576</title>
<g id="a_node23"><a xlink:title="23 &#160;ztime &#160;trying to get you under 7 cards...">
<ellipse fill="black" stroke="black" cx="39" cy="-169.5" rx="3.5" ry="3.5"/>
</a>
</g>
</g>
<!-- s2_league4_game2_09_stac_1399316573&#45;&gt;s2_league4_game2_09_stac_1399316576 -->
<g id="edge42" class="edge">
<title>s2_league4_game2_09_stac_1399316573&#45;&gt;s2_league4_game2_09_stac_1399316576</title>
<g id="a_edge42"><a xlink:title="Elaboration">
<path fill="none" stroke="#a621c7" d="M59.88,-191.38C56.54,-188.04 49.95,-181.45 45.06,-176.56"/>
<polygon fill="#a621c7" stroke="#a621c7" points="46.23,-175.26 41.46,-172.96 43.76,-177.73 46.23,-175.26"/>
</a>
</g>
</g>
<!-- s2_league4_game2_09_stac_1399316579 -->
<g id="node24" class="node">
<title>s2_league4_game2_09_stac_1399316579</title>
<g id="a_node24"><a xlink:title="24 &#160;Shawnus &#160;hahaha">
<ellipse fill="black" stroke="black" cx="59" cy="-144.5" rx="3.5" ry="3.5"/>
</a>
</g>
</g>
<!-- s2_league4_game2_09_stac_1399316573&#45;&gt;s2_league4_game2_09_stac_1399316579 -->
<g id="edge43" class="edge">
<title>s2_league4_game2_09_stac_1399316573&#45;&gt;s2_league4_game2_09_stac_1399316579</title>
<g id="a_edge43"><a xlink:title="Comment">
<path fill="none" stroke="#ff8200" d="M61.84,-190.92C61.4,-183.95 60.19,-164.55 59.5,-153.49"/>
<polygon fill="#ff8200" stroke="#ff8200" points="61.24,-153.21 59.18,-148.33 57.74,-153.43 61.24,-153.21"/>
</a>
</g>
</g>
<!-- s2_league4_game2_09_stac_1399316582 -->
<g id="node25" class="node">
<title>s2_league4_game2_09_stac_1399316582</title>
<g id="a_node25"><a xlink:title="25 &#160;somdechn &#160;I can give wood for Wheat.">
<ellipse fill="black" stroke="black" cx="67" cy="-119.5" rx="3.5" ry="3.5"/>
</a>
</g>
</g>
<!-- s2_league4_game2_09_stac_1399316573&#45;&gt;s2_league4_game2_09_stac_1399316582 -->
<g id="edge44" class="edge">
<title>s2_league4_game2_09_stac_1399316573&#45;&gt;s2_league4_game2_09_stac_1399316582</title>
<g id="a_edge44"><a xlink:title="Question_answer_pair">
<path fill="none" stroke="#12ffff" d="M62.99,-191.11C65.95,-183.72 74.35,-160.53 72,-141 71.47,-136.6 70.33,-131.78 69.27,-127.92"/>
<polygon fill="#12ffff" stroke="#12ffff" points="70.94,-127.42 67.85,-123.12 67.58,-128.41 70.94,-127.42"/>
</a>
</g>
</g>
<!-- s2_league4_game2_09_stac_1399316576&#45;&gt;s2_league4_game2_09_stac_1399316579 -->
<!-- s2_league4_game2_09_stac_1399316579&#45;&gt;s2_league4_game2_09_stac_1399316582 -->
<!-- s2_league4_game2_09_stac_1399316585 -->
<g id="node26" class="node">
<title>s2_league4_game2_09_stac_1399316585</title>
<g id="a_node26"><a xlink:title="26 &#160;somdechn &#160;or clay">
<ellipse fill="black" stroke="black" cx="44" cy="-94.5" rx="3.5" ry="3.5"/>
</a>
</g>
</g>
<!-- s2_league4_game2_09_stac_1399316582&#45;&gt;s2_league4_game2_09_stac_1399316585 -->
<g id="edge45" class="edge">
<title>s2_league4_game2_09_stac_1399316582&#45;&gt;s2_league4_game2_09_stac_1399316585</title>
<g id="a_edge45"><a xlink:title="Alternation">
<path fill="none" stroke="#10495e" d="M64.88,-116.38C61.54,-113.04 54.95,-106.45 50.06,-101.56"/>
<polygon fill="#10495e" stroke="#10495e" points="51.23,-100.26 46.46,-97.96 48.76,-102.73 51.23,-100.26"/>
</a>
</g>
</g>
<!-- s2_league4_game2_09_stac_1399316588 -->
<g id="node27" class="node">
<title>s2_league4_game2_09_stac_1399316588</title>
<g id="a_node27"><a xlink:title="27 &#160;somdechn &#160;Clay would be better.">
<ellipse fill="black" stroke="black" cx="64" cy="-69.5" rx="3.5" ry="3.5"/>
</a>
</g>
</g>
<!-- s2_league4_game2_09_stac_1399316582&#45;&gt;s2_league4_game2_09_stac_1399316588 -->
<g id="edge46" class="edge">
<title>s2_league4_game2_09_stac_1399316582&#45;&gt;s2_league4_game2_09_stac_1399316588</title>
<g id="a_edge46"><a xlink:title="Elaboration">
<path fill="none" stroke="#a621c7" d="M66.84,-115.92C66.4,-108.95 65.19,-89.55 64.5,-78.49"/>
<polygon fill="#a621c7" stroke="#a621c7" points="66.24,-78.21 64.18,-73.33 62.74,-78.43 66.24,-78.21"/>
</a>
</g>
</g>
<!-- s2_league4_game2_09_stac_1399316592 -->
<g id="node28" class="node">
<title>s2_league4_game2_09_stac_1399316592</title>
<g id="a_node28"><a xlink:title="28 &#160;ztime &#160;I can&#39;t help">
<ellipse fill="black" stroke="black" cx="75" cy="-44.5" rx="3.5" ry="3.5"/>
</a>
</g>
</g>
<!-- s2_league4_game2_09_stac_1399316582&#45;&gt;s2_league4_game2_09_stac_1399316592 -->
<g id="edge47" class="edge">
<title>s2_league4_game2_09_stac_1399316582&#45;&gt;s2_league4_game2_09_stac_1399316592</title>
<g id="a_edge47"><a xlink:title="Question_answer_pair">
<path fill="none" stroke="#12ffff" d="M68.02,-115.69C70.75,-107.89 77.94,-85.28 77,-66 76.79,-61.78 76.35,-57.09 75.94,-53.26"/>
<polygon fill="#12ffff" stroke="#12ffff" points="77.66,-52.91 75.34,-48.15 74.18,-53.32 77.66,-52.91"/>
</a>
</g>
</g>
<!-- s2_league4_game2_09_stac_1399316585&#45;&gt;s2_league4_game2_09_stac_1399316588 -->
<!-- s2_league4_game2_09_stac_1399316588&#45;&gt;s2_league4_game2_09_stac_1399316592 -->
<!-- s2_league4_game2_09_stac_1399316595 -->
<g id="node29" class="node">
<title>s2_league4_game2_09_stac_1399316595</title>
<g id="a_node29"><a xlink:title="29 &#160;somdechn &#160;Nooo.">
<ellipse fill="black" stroke="black" cx="75" cy="-19.5" rx="3.5" ry="3.5"/>
</a>
</g>
</g>
<!-- s2_league4_game2_09_stac_1399316592&#45;&gt;s2_league4_game2_09_stac_1399316595 -->
<g id="edge48" class="edge">
<title>s2_league4_game2_09_stac_1399316592&#45;&gt;s2_league4_game2_09_stac_1399316595</title>
<g id="a_edge48"><a xlink:title="Comment">
<path fill="none" stroke="#ff8200" d="M75,-40.68C75,-37.58 75,-32.47 75,-28.16"/>
<polygon fill="#ff8200" stroke="#ff8200" points="76.75,-28.06 75,-23.06 73.25,-28.06 76.75,-28.06"/>
</a>
</g>
</g>
</g>
</svg>
