<?xml version="1.0" encoding="UTF-8" standalone="no"?>
<!DOCTYPE svg PUBLIC "-//W3C//DTD SVG 1.1//EN"
 "http://www.w3.org/Graphics/SVG/1.1/DTD/svg11.dtd">
<!-- Generated by graphviz version 3.0.0 (20220226.1711)
 -->
<!-- Title: 1_s1_league3_game3_546 Pages: 1 -->
<svg width="94pt" height="145pt"
 viewBox="0.00 0.00 94.00 145.00" xmlns="http://www.w3.org/2000/svg" xmlns:xlink="http://www.w3.org/1999/xlink">
<g id="graph0" class="graph" transform="scale(1 1) rotate(0) translate(4 141)">
<title>1_s1_league3_game3_546</title>
<polygon fill="white" stroke="transparent" points="-4,4 -4,-141 90,-141 90,4 -4,4"/>
<g id="clust1" class="cluster">
<title>cluster_1_s1_league3_game3_546</title>
<polygon fill="none" stroke="black" points="8,-8 8,-129 78,-129 78,-8 8,-8"/>
<text text-anchor="middle" x="26.5" y="-113.8" font-family="Times,serif" font-size="14.00">546</text>
</g>
<!-- s1_league3_game3_01_stac_1368708120 -->
<g id="node1" class="node">
<title>s1_league3_game3_01_stac_1368708120</title>
<g id="a_node1"><a xlink:title="3 &#160;yiin &#160;nope sry">
<ellipse fill="black" stroke="black" cx="20" cy="-44.5" rx="3.5" ry="3.5"/>
</a>
</g>
</g>
<!-- 3_0 -->
<!-- s1_league3_game3_01_stac_1368708120&#45;&gt;3_0 -->
<!-- s1_league3_game3_01_stac_1368708123 -->
<g id="node3" class="node">
<title>s1_league3_game3_01_stac_1368708123</title>
<g id="a_node3"><a xlink:title="4 &#160;Gaeilgeoir &#160;deal">
<ellipse fill="black" stroke="black" cx="30" cy="-19.5" rx="3.5" ry="3.5"/>
</a>
</g>
</g>
<!-- s1_league3_game3_01_stac_1368708120&#45;&gt;s1_league3_game3_01_stac_1368708123 -->
<!-- 4_0 -->
<!-- s1_league3_game3_01_stac_1368708123&#45;&gt;4_0 -->
<!-- s1_league3_game3_01_stac_1368708112 -->
<g id="node5" class="node">
<title>s1_league3_game3_01_stac_1368708112</title>
<g id="a_node5"><a xlink:title="1 &#160;Gaeilgeoir &#160;anyone have wood?">
<ellipse fill="black" stroke="black" cx="30" cy="-94.5" rx="3.5" ry="3.5"/>
</a>
</g>
</g>
<!-- s1_league3_game3_01_stac_1368708112&#45;&gt;s1_league3_game3_01_stac_1368708120 -->
<g id="edge8" class="edge">
<title>s1_league3_game3_01_stac_1368708112&#45;&gt;s1_league3_game3_01_stac_1368708120</title>
<g id="a_edge8"><a xlink:title="Question_answer_pair">
<path fill="none" stroke="#12ffff" d="M30.95,-90.86C32.6,-85.9 35.57,-74.86 33,-66 31.48,-60.76 28.18,-55.58 25.28,-51.74"/>
<polygon fill="#12ffff" stroke="#12ffff" points="26.5,-50.47 21.99,-47.69 23.78,-52.67 26.5,-50.47"/>
</a>
</g>
</g>
<!-- s1_league3_game3_01_stac_1368708113 -->
<g id="node6" class="node">
<title>s1_league3_game3_01_stac_1368708113</title>
<g id="a_node6"><a xlink:title="1 &#160;Gaeilgeoir &#160;I can spare sheep, ore or wheat?">
<ellipse fill="black" stroke="black" cx="55" cy="-94.5" rx="3.5" ry="3.5"/>
</a>
</g>
</g>
<!-- s1_league3_game3_01_stac_1368708112&#45;&gt;s1_league3_game3_01_stac_1368708113 -->
<g id="edge5" class="edge">
<title>s1_league3_game3_01_stac_1368708112&#45;&gt;s1_league3_game3_01_stac_1368708113</title>
<g id="a_edge5"><a xlink:title="Elaboration">
<path fill="none" stroke="#a621c7" d="M33.52,-94.5C37.78,-94.5 42.04,-94.5 46.3,-94.5"/>
<polygon fill="#a621c7" stroke="#a621c7" points="46.31,-96.25 51.31,-94.5 46.31,-92.75 46.31,-96.25"/>
</a>
</g>
</g>
<!-- s1_league3_game3_01_stac_1368708116 -->
<g id="node7" class="node">
<title>s1_league3_game3_01_stac_1368708116</title>
<g id="a_node7"><a xlink:title="2 &#160;inca &#160;i&#39;ve got wood,">
<ellipse fill="black" stroke="black" cx="20" cy="-69.5" rx="3.5" ry="3.5"/>
</a>
</g>
</g>
<!-- s1_league3_game3_01_stac_1368708112&#45;&gt;s1_league3_game3_01_stac_1368708116 -->
<g id="edge6" class="edge">
<title>s1_league3_game3_01_stac_1368708112&#45;&gt;s1_league3_game3_01_stac_1368708116</title>
<g id="a_edge6"><a xlink:title="Question_answer_pair">
<path fill="none" stroke="#12ffff" d="M28.93,-91.04C27.54,-87.84 25.05,-82.12 23.06,-77.53"/>
<polygon fill="#12ffff" stroke="#12ffff" points="24.63,-76.76 21.03,-72.87 21.42,-78.16 24.63,-76.76"/>
</a>
</g>
</g>
<!-- s1_league3_game3_01_stac_1368708116&#45;&gt;s1_league3_game3_01_stac_1368708120 -->
<!-- s1_league3_game3_01_stac_1368708117 -->
<g id="node8" class="node">
<title>s1_league3_game3_01_stac_1368708117</title>
<g id="a_node8"><a xlink:title="2 &#160;inca &#160;trade for ore?">
<ellipse fill="black" stroke="black" cx="66" cy="-69.5" rx="3.5" ry="3.5"/>
</a>
</g>
</g>
<!-- s1_league3_game3_01_stac_1368708116&#45;&gt;s1_league3_game3_01_stac_1368708117 -->
<g id="edge7" class="edge">
<title>s1_league3_game3_01_stac_1368708116&#45;&gt;s1_league3_game3_01_stac_1368708117</title>
<g id="a_edge7"><a xlink:title="Q_Elab">
<path fill="none" stroke="#0d20ff" d="M23.59,-69.5C34.8,-69.5 46,-69.5 57.21,-69.5"/>
<polygon fill="#0d20ff" stroke="#0d20ff" points="57.36,-71.25 62.36,-69.5 57.36,-67.75 57.36,-71.25"/>
</a>
</g>
</g>
<!-- s1_league3_game3_01_stac_1368708117&#45;&gt;s1_league3_game3_01_stac_1368708123 -->
<g id="edge9" class="edge">
<title>s1_league3_game3_01_stac_1368708117&#45;&gt;s1_league3_game3_01_stac_1368708123</title>
<g id="a_edge9"><a xlink:title="Question_answer_pair">
<path fill="none" stroke="#12ffff" d="M65.81,-65.99C65.31,-60.86 63.59,-48.98 58,-41 52.71,-33.44 43.73,-27.59 37.37,-24.11"/>
<polygon fill="#12ffff" stroke="#12ffff" points="38.02,-22.48 32.78,-21.76 36.43,-25.6 38.02,-22.48"/>
</a>
</g>
</g>
</g>
</svg>
