<?xml version="1.0" encoding="UTF-8" standalone="no"?>
<!DOCTYPE svg PUBLIC "-//W3C//DTD SVG 1.1//EN"
 "http://www.w3.org/Graphics/SVG/1.1/DTD/svg11.dtd">
<!-- Generated by graphviz version 3.0.0 (20220226.1711)
 -->
<!-- Title: 1_s1_league3_game3_548 Pages: 1 -->
<svg width="134pt" height="245pt"
 viewBox="0.00 0.00 134.00 245.00" xmlns="http://www.w3.org/2000/svg" xmlns:xlink="http://www.w3.org/1999/xlink">
<g id="graph0" class="graph" transform="scale(1 1) rotate(0) translate(4 241)">
<title>1_s1_league3_game3_548</title>
<polygon fill="white" stroke="transparent" points="-4,4 -4,-241 130,-241 130,4 -4,4"/>
<g id="clust1" class="cluster">
<title>cluster_1_s1_league3_game3_548</title>
<polygon fill="none" stroke="black" points="8,-8 8,-229 118,-229 118,-8 8,-8"/>
<text text-anchor="middle" x="26.5" y="-213.8" font-family="Times,serif" font-size="14.00">548</text>
</g>
<!-- s1_league3_game3_01_stac_1368708140 -->
<g id="node1" class="node">
<title>s1_league3_game3_01_stac_1368708140</title>
<g id="a_node1"><a xlink:title="1 &#160;yiin &#160;do anyone need ore">
<ellipse fill="black" stroke="black" cx="40" cy="-194.5" rx="3.5" ry="3.5"/>
</a>
</g>
</g>
<!-- 1_0 -->
<!-- s1_league3_game3_01_stac_1368708140&#45;&gt;1_0 -->
<!-- s1_league3_game3_01_stac_1368708143 -->
<g id="node3" class="node">
<title>s1_league3_game3_01_stac_1368708143</title>
<g id="a_node3"><a xlink:title="2 &#160;inca &#160;i&#39;ll trade for sheep?">
<ellipse fill="black" stroke="black" cx="63" cy="-169.5" rx="3.5" ry="3.5"/>
</a>
</g>
</g>
<!-- s1_league3_game3_01_stac_1368708140&#45;&gt;s1_league3_game3_01_stac_1368708143 -->
<g id="edge11" class="edge">
<title>s1_league3_game3_01_stac_1368708140&#45;&gt;s1_league3_game3_01_stac_1368708143</title>
<g id="a_edge11"><a xlink:title="Q_Elab">
<path fill="none" stroke="#0d20ff" d="M42.12,-191.38C45.46,-188.04 52.05,-181.45 56.94,-176.56"/>
<polygon fill="#0d20ff" stroke="#0d20ff" points="58.24,-177.73 60.54,-172.96 55.77,-175.26 58.24,-177.73"/>
</a>
</g>
</g>
<!-- s1_league3_game3_01_stac_1368708157 -->
<g id="node9" class="node">
<title>s1_league3_game3_01_stac_1368708157</title>
<g id="a_node9"><a xlink:title="6 &#160;Gaeilgeoir &#160;sorry, I&#39;m no help">
<ellipse fill="black" stroke="black" cx="20" cy="-69.5" rx="3.5" ry="3.5"/>
</a>
</g>
</g>
<!-- s1_league3_game3_01_stac_1368708140&#45;&gt;s1_league3_game3_01_stac_1368708157 -->
<g id="edge16" class="edge">
<title>s1_league3_game3_01_stac_1368708140&#45;&gt;s1_league3_game3_01_stac_1368708157</title>
<g id="a_edge16"><a xlink:title="Question_answer_pair">
<path fill="none" stroke="#12ffff" d="M38.15,-191.05C33.2,-184.23 20,-164.28 20,-145.5 20,-145.5 20,-145.5 20,-118.5 20,-104.28 20,-87.69 20,-78.21"/>
<polygon fill="#12ffff" stroke="#12ffff" points="21.75,-78.1 20,-73.1 18.25,-78.1 21.75,-78.1"/>
</a>
</g>
</g>
<!-- s1_league3_game3_01_stac_1368708152 -->
<g id="node13" class="node">
<title>s1_league3_game3_01_stac_1368708152</title>
<g id="a_node13"><a xlink:title="5 &#160;nareik15 &#160;i&#39;m ok for ore at the mo.">
<ellipse fill="black" stroke="black" cx="53" cy="-94.5" rx="3.5" ry="3.5"/>
</a>
</g>
</g>
<!-- s1_league3_game3_01_stac_1368708140&#45;&gt;s1_league3_game3_01_stac_1368708152 -->
<g id="edge14" class="edge">
<title>s1_league3_game3_01_stac_1368708140&#45;&gt;s1_league3_game3_01_stac_1368708152</title>
<g id="a_edge14"><a xlink:title="Question_answer_pair">
<path fill="none" stroke="#12ffff" d="M40.38,-190.67C42.1,-177.7 49.26,-123.67 51.96,-103.31"/>
<polygon fill="#12ffff" stroke="#12ffff" points="53.73,-103.34 52.65,-98.15 50.26,-102.88 53.73,-103.34"/>
</a>
</g>
</g>
<!-- 2_0 -->
<!-- s1_league3_game3_01_stac_1368708143&#45;&gt;2_0 -->
<!-- s1_league3_game3_01_stac_1368708146 -->
<g id="node5" class="node">
<title>s1_league3_game3_01_stac_1368708146</title>
<g id="a_node5"><a xlink:title="3 &#160;yiin &#160;yes thank you">
<ellipse fill="black" stroke="black" cx="63" cy="-144.5" rx="3.5" ry="3.5"/>
</a>
</g>
</g>
<!-- s1_league3_game3_01_stac_1368708143&#45;&gt;s1_league3_game3_01_stac_1368708146 -->
<g id="edge12" class="edge">
<title>s1_league3_game3_01_stac_1368708143&#45;&gt;s1_league3_game3_01_stac_1368708146</title>
<g id="a_edge12"><a xlink:title="Question_answer_pair">
<path fill="none" stroke="#12ffff" d="M63,-165.68C63,-162.58 63,-157.47 63,-153.16"/>
<polygon fill="#12ffff" stroke="#12ffff" points="64.75,-153.06 63,-148.06 61.25,-153.06 64.75,-153.06"/>
</a>
</g>
</g>
<!-- 3_0 -->
<!-- s1_league3_game3_01_stac_1368708146&#45;&gt;3_0 -->
<!-- s1_league3_game3_01_stac_1368708149 -->
<g id="node7" class="node">
<title>s1_league3_game3_01_stac_1368708149</title>
<g id="a_node7"><a xlink:title="4 &#160;inca &#160;cool">
<ellipse fill="black" stroke="black" cx="63" cy="-119.5" rx="3.5" ry="3.5"/>
</a>
</g>
</g>
<!-- s1_league3_game3_01_stac_1368708146&#45;&gt;s1_league3_game3_01_stac_1368708149 -->
<g id="edge13" class="edge">
<title>s1_league3_game3_01_stac_1368708146&#45;&gt;s1_league3_game3_01_stac_1368708149</title>
<g id="a_edge13"><a xlink:title="Acknowledgement">
<path fill="none" stroke="#12ffff" d="M63,-140.68C63,-137.58 63,-132.47 63,-128.16"/>
<polygon fill="#12ffff" stroke="#12ffff" points="64.75,-128.06 63,-123.06 61.25,-128.06 64.75,-128.06"/>
</a>
</g>
</g>
<!-- 4_0 -->
<!-- s1_league3_game3_01_stac_1368708149&#45;&gt;4_0 -->
<!-- s1_league3_game3_01_stac_1368708149&#45;&gt;s1_league3_game3_01_stac_1368708152 -->
<!-- 6_0 -->
<!-- s1_league3_game3_01_stac_1368708157&#45;&gt;6_0 -->
<!-- s1_league3_game3_01_stac_1368708160 -->
<g id="node15" class="node">
<title>s1_league3_game3_01_stac_1368708160</title>
<g id="a_node15"><a xlink:title="7 &#160;yiin &#160;yes">
<ellipse fill="black" stroke="black" cx="47" cy="-44.5" rx="3.5" ry="3.5"/>
</a>
</g>
</g>
<!-- s1_league3_game3_01_stac_1368708157&#45;&gt;s1_league3_game3_01_stac_1368708160 -->
<!-- s1_league3_game3_01_stac_1368708164 -->
<g id="node11" class="node">
<title>s1_league3_game3_01_stac_1368708164</title>
<g id="a_node11"><a xlink:title="8 &#160;inca &#160;no wheat here, sorry">
<ellipse fill="black" stroke="black" cx="66" cy="-19.5" rx="3.5" ry="3.5"/>
</a>
</g>
</g>
<!-- 8_0 -->
<!-- s1_league3_game3_01_stac_1368708164&#45;&gt;8_0 -->
<!-- s1_league3_game3_01_stac_1368708152&#45;&gt;s1_league3_game3_01_stac_1368708157 -->
<!-- s1_league3_game3_01_stac_1368708154 -->
<g id="node14" class="node">
<title>s1_league3_game3_01_stac_1368708154</title>
<g id="a_node14"><a xlink:title="5 &#160;nareik15 &#160;if anyone has any">
<ellipse fill="black" stroke="black" cx="83" cy="-94.5" rx="3.5" ry="3.5"/>
</a>
</g>
</g>
<!-- s1_league3_game3_01_stac_1368708152&#45;&gt;s1_league3_game3_01_stac_1368708154 -->
<g id="edge15" class="edge">
<title>s1_league3_game3_01_stac_1368708152&#45;&gt;s1_league3_game3_01_stac_1368708154</title>
<g id="a_edge15"><a xlink:title="Contrast">
<path fill="none" stroke="#ff7ecf" d="M56.75,-94.5C62.51,-94.5 68.26,-94.5 74.02,-94.5"/>
<polygon fill="#ff7ecf" stroke="#ff7ecf" points="74.31,-96.25 79.31,-94.5 74.31,-92.75 74.31,-96.25"/>
</a>
</g>
</g>
<!-- s1_league3_game3_01_stac_1368708154&#45;&gt;s1_league3_game3_01_stac_1368708164 -->
<g id="edge20" class="edge">
<title>s1_league3_game3_01_stac_1368708154&#45;&gt;s1_league3_game3_01_stac_1368708164</title>
<g id="a_edge20"><a xlink:title="Question_answer_pair">
<path fill="none" stroke="#12ffff" d="M84.27,-90.95C88,-83.09 98.16,-58.7 90,-41 86.63,-33.68 79.21,-28.01 73.51,-24.51"/>
<polygon fill="#12ffff" stroke="#12ffff" points="74.14,-22.85 68.92,-21.91 72.42,-25.9 74.14,-22.85"/>
</a>
</g>
</g>
<!-- s1_league3_game3_01_stac_1368708154&#45;&gt;s1_league3_game3_01_stac_1368708160 -->
<g id="edge17" class="edge">
<title>s1_league3_game3_01_stac_1368708154&#45;&gt;s1_league3_game3_01_stac_1368708160</title>
<g id="a_edge17"><a xlink:title="Acknowledgement">
<path fill="none" stroke="#12ffff" d="M80.1,-92.29C74.21,-89.68 60.85,-82.96 54,-73 49.98,-67.16 48.27,-59.19 47.54,-53.34"/>
<polygon fill="#12ffff" stroke="#12ffff" points="49.25,-52.84 47.07,-48.01 45.77,-53.15 49.25,-52.84"/>
</a>
</g>
</g>
<!-- s1_league3_game3_01_stac_1368708161 -->
<g id="node16" class="node">
<title>s1_league3_game3_01_stac_1368708161</title>
<g id="a_node16"><a xlink:title="7 &#160;yiin &#160;i also need wheat :)">
<ellipse fill="black" stroke="black" cx="77" cy="-44.5" rx="3.5" ry="3.5"/>
</a>
</g>
</g>
<!-- s1_league3_game3_01_stac_1368708154&#45;&gt;s1_league3_game3_01_stac_1368708161 -->
<g id="edge18" class="edge">
<title>s1_league3_game3_01_stac_1368708154&#45;&gt;s1_league3_game3_01_stac_1368708161</title>
<g id="a_edge18"><a xlink:title="Parallel">
<path fill="none" stroke="#0ab046" d="M82.68,-90.92C81.81,-83.95 79.38,-64.55 78,-53.49"/>
<polygon fill="#0ab046" stroke="#0ab046" points="79.71,-53.08 77.35,-48.33 76.24,-53.51 79.71,-53.08"/>
</a>
</g>
</g>
<!-- s1_league3_game3_01_stac_1368708160&#45;&gt;s1_league3_game3_01_stac_1368708164 -->
<!-- s1_league3_game3_01_stac_1368708160&#45;&gt;s1_league3_game3_01_stac_1368708161 -->
<g id="edge19" class="edge">
<title>s1_league3_game3_01_stac_1368708160&#45;&gt;s1_league3_game3_01_stac_1368708161</title>
<g id="a_edge19"><a xlink:title="Elaboration">
<path fill="none" stroke="#a621c7" d="M50.75,-44.5C56.51,-44.5 62.26,-44.5 68.02,-44.5"/>
<polygon fill="#a621c7" stroke="#a621c7" points="68.31,-46.25 73.31,-44.5 68.31,-42.75 68.31,-46.25"/>
</a>
</g>
</g>
</g>
</svg>
