<?xml version="1.0" encoding="UTF-8" standalone="no"?>
<!DOCTYPE svg PUBLIC "-//W3C//DTD SVG 1.1//EN"
 "http://www.w3.org/Graphics/SVG/1.1/DTD/svg11.dtd">
<!-- Generated by graphviz version 3.0.0 (20220226.1711)
 -->
<!-- Title: 2_s1_league3_game3_550 Pages: 1 -->
<svg width="108pt" height="470pt"
 viewBox="0.00 0.00 108.00 470.00" xmlns="http://www.w3.org/2000/svg" xmlns:xlink="http://www.w3.org/1999/xlink">
<g id="graph0" class="graph" transform="scale(1 1) rotate(0) translate(4 466)">
<title>2_s1_league3_game3_550</title>
<polygon fill="white" stroke="transparent" points="-4,4 -4,-466 104,-466 104,4 -4,4"/>
<g id="clust1" class="cluster">
<title>cluster_2_s1_league3_game3_550</title>
<polygon fill="none" stroke="black" points="8,-8 8,-454 92,-454 92,-8 8,-8"/>
<text text-anchor="middle" x="26.5" y="-438.8" font-family="Times,serif" font-size="14.00">550</text>
</g>
<!-- s1_league3_game3_02_stac_1368708082 -->
<g id="node1" class="node">
<title>s1_league3_game3_02_stac_1368708082</title>
<g id="a_node1"><a xlink:title="1 &#160;Gaeilgeoir &#160;Can anyone spare ore?">
<ellipse fill="black" stroke="black" cx="53" cy="-419.5" rx="3.5" ry="3.5"/>
</a>
</g>
</g>
<!-- s1_league3_game3_02_stac_1368708085 -->
<g id="node2" class="node">
<title>s1_league3_game3_02_stac_1368708085</title>
<g id="a_node2"><a xlink:title="2 &#160;nareik15 &#160;yeah">
<ellipse fill="black" stroke="black" cx="20" cy="-394.5" rx="3.5" ry="3.5"/>
</a>
</g>
</g>
<!-- s1_league3_game3_02_stac_1368708082&#45;&gt;s1_league3_game3_02_stac_1368708085 -->
<g id="edge7" class="edge">
<title>s1_league3_game3_02_stac_1368708082&#45;&gt;s1_league3_game3_02_stac_1368708085</title>
<g id="a_edge7"><a xlink:title="Question_answer_pair">
<path fill="none" stroke="#12ffff" d="M50.41,-416.7C45.37,-413.18 34.11,-405.33 26.8,-400.24"/>
<polygon fill="#12ffff" stroke="#12ffff" points="27.59,-398.66 22.49,-397.23 25.59,-401.53 27.59,-398.66"/>
</a>
</g>
</g>
<!-- s1_league3_game3_02_stac_1368708088 -->
<g id="node3" class="node">
<title>s1_league3_game3_02_stac_1368708088</title>
<g id="a_node3"><a xlink:title="3 &#160;Gaeilgeoir &#160;Sorry, sheep">
<ellipse fill="black" stroke="black" cx="40" cy="-369.5" rx="3.5" ry="3.5"/>
</a>
</g>
</g>
<!-- s1_league3_game3_02_stac_1368708082&#45;&gt;s1_league3_game3_02_stac_1368708088 -->
<g id="edge8" class="edge">
<title>s1_league3_game3_02_stac_1368708082&#45;&gt;s1_league3_game3_02_stac_1368708088</title>
<g id="a_edge8"><a xlink:title="Correction">
<path fill="none" stroke="#ff174e" d="M52.3,-415.92C50.4,-408.89 45.06,-389.19 42.08,-378.18"/>
<polygon fill="#ff174e" stroke="#ff174e" points="43.76,-377.7 40.77,-373.33 40.39,-378.62 43.76,-377.7"/>
</a>
</g>
</g>
<!-- s1_league3_game3_02_stac_1368708091 -->
<g id="node4" class="node">
<title>s1_league3_game3_02_stac_1368708091</title>
<g id="a_node4"><a xlink:title="4 &#160;yiin &#160;i got ore">
<ellipse fill="black" stroke="black" cx="60" cy="-344.5" rx="3.5" ry="3.5"/>
</a>
</g>
</g>
<!-- s1_league3_game3_02_stac_1368708082&#45;&gt;s1_league3_game3_02_stac_1368708091 -->
<g id="edge9" class="edge">
<title>s1_league3_game3_02_stac_1368708082&#45;&gt;s1_league3_game3_02_stac_1368708091</title>
<g id="a_edge9"><a xlink:title="Question_answer_pair">
<path fill="none" stroke="#12ffff" d="M53.27,-415.73C54.24,-405.52 57.67,-369.78 59.22,-353.59"/>
<polygon fill="#12ffff" stroke="#12ffff" points="61,-353.42 59.73,-348.28 57.51,-353.09 61,-353.42"/>
</a>
</g>
</g>
<!-- s1_league3_game3_02_stac_1368708094 -->
<g id="node5" class="node">
<title>s1_league3_game3_02_stac_1368708094</title>
<g id="a_node5"><a xlink:title="5 &#160;Gaeilgeoir &#160;Anyone have sheep?">
<ellipse fill="black" stroke="black" cx="61" cy="-319.5" rx="3.5" ry="3.5"/>
</a>
</g>
</g>
<!-- s1_league3_game3_02_stac_1368708082&#45;&gt;s1_league3_game3_02_stac_1368708094 -->
<g id="edge10" class="edge">
<title>s1_league3_game3_02_stac_1368708082&#45;&gt;s1_league3_game3_02_stac_1368708094</title>
<g id="a_edge10"><a xlink:title="Narration">
<path fill="none" stroke="#1c931a" d="M54.06,-415.87C57.67,-406.71 69.51,-375.26 73,-348 73.39,-344.91 73.81,-344 73,-341 71.6,-335.85 68.55,-330.67 65.88,-326.81"/>
<polygon fill="#1c931a" stroke="#1c931a" points="67.23,-325.69 62.84,-322.71 64.42,-327.77 67.23,-325.69"/>
</a>
</g>
</g>
<!-- s1_league3_game3_02_stac_1368708085&#45;&gt;s1_league3_game3_02_stac_1368708088 -->
<!-- s1_league3_game3_02_stac_1368708088&#45;&gt;s1_league3_game3_02_stac_1368708091 -->
<!-- s1_league3_game3_02_stac_1368708091&#45;&gt;s1_league3_game3_02_stac_1368708094 -->
<!-- s1_league3_game3_02_stac_1368708097 -->
<g id="node6" class="node">
<title>s1_league3_game3_02_stac_1368708097</title>
<g id="a_node6"><a xlink:title="6 &#160;Gaeilgeoir &#160;I can give ore or wheat">
<ellipse fill="black" stroke="black" cx="39" cy="-294.5" rx="3.5" ry="3.5"/>
</a>
</g>
</g>
<!-- s1_league3_game3_02_stac_1368708094&#45;&gt;s1_league3_game3_02_stac_1368708097 -->
<g id="edge11" class="edge">
<title>s1_league3_game3_02_stac_1368708094&#45;&gt;s1_league3_game3_02_stac_1368708097</title>
<g id="a_edge11"><a xlink:title="Elaboration">
<path fill="none" stroke="#a621c7" d="M58.97,-316.38C55.84,-313.11 49.72,-306.71 45.08,-301.85"/>
<polygon fill="#a621c7" stroke="#a621c7" points="46.08,-300.36 41.35,-297.96 43.55,-302.78 46.08,-300.36"/>
</a>
</g>
</g>
<!-- s1_league3_game3_02_stac_1368708100 -->
<g id="node7" class="node">
<title>s1_league3_game3_02_stac_1368708100</title>
<g id="a_node7"><a xlink:title="7 &#160;nareik15 &#160;i&#39;ve got sheep aswell">
<ellipse fill="black" stroke="black" cx="40" cy="-269.5" rx="3.5" ry="3.5"/>
</a>
</g>
</g>
<!-- s1_league3_game3_02_stac_1368708094&#45;&gt;s1_league3_game3_02_stac_1368708100 -->
<g id="edge12" class="edge">
<title>s1_league3_game3_02_stac_1368708094&#45;&gt;s1_league3_game3_02_stac_1368708100</title>
<g id="a_edge12"><a xlink:title="Question_answer_pair">
<path fill="none" stroke="#12ffff" d="M60.34,-315.85C59.04,-310.87 55.96,-299.8 52,-291 49.81,-286.13 46.77,-280.95 44.3,-277.01"/>
<polygon fill="#12ffff" stroke="#12ffff" points="45.76,-276.06 41.57,-272.81 42.82,-277.96 45.76,-276.06"/>
</a>
</g>
</g>
<!-- s1_league3_game3_02_stac_1368708097&#45;&gt;s1_league3_game3_02_stac_1368708100 -->
<!-- s1_league3_game3_02_stac_1368708103 -->
<g id="node8" class="node">
<title>s1_league3_game3_02_stac_1368708103</title>
<g id="a_node8"><a xlink:title="8 &#160;Gaeilgeoir &#160;need ore or wheat?">
<ellipse fill="black" stroke="black" cx="40" cy="-244.5" rx="3.5" ry="3.5"/>
</a>
</g>
</g>
<!-- s1_league3_game3_02_stac_1368708100&#45;&gt;s1_league3_game3_02_stac_1368708103 -->
<g id="edge13" class="edge">
<title>s1_league3_game3_02_stac_1368708100&#45;&gt;s1_league3_game3_02_stac_1368708103</title>
<g id="a_edge13"><a xlink:title="Q_Elab">
<path fill="none" stroke="#0d20ff" d="M40,-265.68C40,-262.58 40,-257.47 40,-253.16"/>
<polygon fill="#0d20ff" stroke="#0d20ff" points="41.75,-253.06 40,-248.06 38.25,-253.06 41.75,-253.06"/>
</a>
</g>
</g>
<!-- s1_league3_game3_02_stac_1368708106 -->
<g id="node9" class="node">
<title>s1_league3_game3_02_stac_1368708106</title>
<g id="a_node9"><a xlink:title="9 &#160;yiin &#160;i need wheat">
<ellipse fill="black" stroke="black" cx="20" cy="-219.5" rx="3.5" ry="3.5"/>
</a>
</g>
</g>
<!-- s1_league3_game3_02_stac_1368708103&#45;&gt;s1_league3_game3_02_stac_1368708106 -->
<g id="edge14" class="edge">
<title>s1_league3_game3_02_stac_1368708103&#45;&gt;s1_league3_game3_02_stac_1368708106</title>
<g id="a_edge14"><a xlink:title="Question_answer_pair">
<path fill="none" stroke="#12ffff" d="M38.15,-241.38C35.31,-238.11 29.75,-231.71 25.52,-226.85"/>
<polygon fill="#12ffff" stroke="#12ffff" points="26.74,-225.59 22.14,-222.96 24.1,-227.88 26.74,-225.59"/>
</a>
</g>
</g>
<!-- s1_league3_game3_02_stac_1368708109 -->
<g id="node10" class="node">
<title>s1_league3_game3_02_stac_1368708109</title>
<g id="a_node10"><a xlink:title="10 &#160;nareik15 &#160;wheat">
<ellipse fill="black" stroke="black" cx="43" cy="-194.5" rx="3.5" ry="3.5"/>
</a>
</g>
</g>
<!-- s1_league3_game3_02_stac_1368708103&#45;&gt;s1_league3_game3_02_stac_1368708109 -->
<g id="edge15" class="edge">
<title>s1_league3_game3_02_stac_1368708103&#45;&gt;s1_league3_game3_02_stac_1368708109</title>
<g id="a_edge15"><a xlink:title="Question_answer_pair">
<path fill="none" stroke="#12ffff" d="M40.16,-240.92C40.6,-233.95 41.81,-214.55 42.5,-203.49"/>
<polygon fill="#12ffff" stroke="#12ffff" points="44.26,-203.43 42.82,-198.33 40.76,-203.21 44.26,-203.43"/>
</a>
</g>
</g>
<!-- s1_league3_game3_02_stac_1368708106&#45;&gt;s1_league3_game3_02_stac_1368708109 -->
<!-- s1_league3_game3_02_stac_1368708112 -->
<g id="node11" class="node">
<title>s1_league3_game3_02_stac_1368708112</title>
<g id="a_node11"><a xlink:title="11 &#160;Gaeilgeoir &#160;no trade?">
<ellipse fill="black" stroke="black" cx="31" cy="-169.5" rx="3.5" ry="3.5"/>
</a>
</g>
</g>
<!-- s1_league3_game3_02_stac_1368708106&#45;&gt;s1_league3_game3_02_stac_1368708112 -->
<g id="edge16" class="edge">
<title>s1_league3_game3_02_stac_1368708106&#45;&gt;s1_league3_game3_02_stac_1368708112</title>
<g id="a_edge16"><a xlink:title="Clarification_question">
<path fill="none" stroke="#ff40d1" d="M20.59,-215.92C22.19,-208.95 26.64,-189.55 29.17,-178.49"/>
<polygon fill="#ff40d1" stroke="#ff40d1" points="30.94,-178.6 30.35,-173.33 27.53,-177.81 30.94,-178.6"/>
</a>
</g>
</g>
<!-- s1_league3_game3_02_stac_1368708109&#45;&gt;s1_league3_game3_02_stac_1368708112 -->
<g id="edge17" class="edge">
<title>s1_league3_game3_02_stac_1368708109&#45;&gt;s1_league3_game3_02_stac_1368708112</title>
<g id="a_edge17"><a xlink:title="Clarification_question">
<path fill="none" stroke="#ff40d1" d="M41.72,-191.04C40.05,-187.84 37.06,-182.12 34.67,-177.53"/>
<polygon fill="#ff40d1" stroke="#ff40d1" points="36.1,-176.5 32.24,-172.87 33,-178.12 36.1,-176.5"/>
</a>
</g>
</g>
<!-- s1_league3_game3_02_stac_1368708115 -->
<g id="node12" class="node">
<title>s1_league3_game3_02_stac_1368708115</title>
<g id="a_node12"><a xlink:title="12 &#160;yiin &#160;you have the highest point">
<ellipse fill="black" stroke="black" cx="20" cy="-144.5" rx="3.5" ry="3.5"/>
</a>
</g>
</g>
<!-- s1_league3_game3_02_stac_1368708112&#45;&gt;s1_league3_game3_02_stac_1368708115 -->
<g id="edge18" class="edge">
<title>s1_league3_game3_02_stac_1368708112&#45;&gt;s1_league3_game3_02_stac_1368708115</title>
<g id="a_edge18"><a xlink:title="Question_answer_pair">
<path fill="none" stroke="#12ffff" d="M29.82,-166.04C28.29,-162.84 25.56,-157.12 23.36,-152.53"/>
<polygon fill="#12ffff" stroke="#12ffff" points="24.87,-151.63 21.14,-147.87 21.71,-153.14 24.87,-151.63"/>
</a>
</g>
</g>
<!-- s1_league3_game3_02_stac_1368708118 -->
<g id="node13" class="node">
<title>s1_league3_game3_02_stac_1368708118</title>
<g id="a_node13"><a xlink:title="13 &#160;nareik15 &#160;i think the resources were backwards( me getting ore) might be wrong">
<ellipse fill="black" stroke="black" cx="31" cy="-119.5" rx="3.5" ry="3.5"/>
</a>
</g>
</g>
<!-- s1_league3_game3_02_stac_1368708112&#45;&gt;s1_league3_game3_02_stac_1368708118 -->
<g id="edge19" class="edge">
<title>s1_league3_game3_02_stac_1368708112&#45;&gt;s1_league3_game3_02_stac_1368708118</title>
<g id="a_edge19"><a xlink:title="Question_answer_pair">
<path fill="none" stroke="#12ffff" d="M31.4,-165.92C32.1,-161.06 33.45,-150.18 33,-141 32.79,-136.78 32.35,-132.09 31.94,-128.26"/>
<polygon fill="#12ffff" stroke="#12ffff" points="33.66,-127.91 31.34,-123.15 30.18,-128.32 33.66,-127.91"/>
</a>
</g>
</g>
<!-- s1_league3_game3_02_stac_1368708115&#45;&gt;s1_league3_game3_02_stac_1368708118 -->
<g id="edge20" class="edge">
<title>s1_league3_game3_02_stac_1368708115&#45;&gt;s1_league3_game3_02_stac_1368708118</title>
<g id="a_edge20"><a xlink:title="Contrast">
<path fill="none" stroke="#ff7ecf" d="M21.18,-141.04C22.71,-137.84 25.44,-132.12 27.64,-127.53"/>
<polygon fill="#ff7ecf" stroke="#ff7ecf" points="29.29,-128.14 29.86,-122.87 26.13,-126.63 29.29,-128.14"/>
</a>
</g>
</g>
<!-- s1_league3_game3_02_stac_1368708121 -->
<g id="node14" class="node">
<title>s1_league3_game3_02_stac_1368708121</title>
<g id="a_node14"><a xlink:title="14 &#160;Gaeilgeoir &#160;I&#39;ll try again">
<ellipse fill="black" stroke="black" cx="31" cy="-94.5" rx="3.5" ry="3.5"/>
</a>
</g>
</g>
<!-- s1_league3_game3_02_stac_1368708118&#45;&gt;s1_league3_game3_02_stac_1368708121 -->
<g id="edge21" class="edge">
<title>s1_league3_game3_02_stac_1368708118&#45;&gt;s1_league3_game3_02_stac_1368708121</title>
<g id="a_edge21"><a xlink:title="Result">
<path fill="none" stroke="#10ff0f" d="M31,-115.68C31,-112.58 31,-107.47 31,-103.16"/>
<polygon fill="#10ff0f" stroke="#10ff0f" points="32.75,-103.06 31,-98.06 29.25,-103.06 32.75,-103.06"/>
</a>
</g>
</g>
<!-- s1_league3_game3_02_stac_1368708124 -->
<g id="node15" class="node">
<title>s1_league3_game3_02_stac_1368708124</title>
<g id="a_node15"><a xlink:title="15 &#160;nareik15 &#160;cool :)">
<ellipse fill="black" stroke="black" cx="20" cy="-69.5" rx="3.5" ry="3.5"/>
</a>
</g>
</g>
<!-- s1_league3_game3_02_stac_1368708121&#45;&gt;s1_league3_game3_02_stac_1368708124 -->
<g id="edge22" class="edge">
<title>s1_league3_game3_02_stac_1368708121&#45;&gt;s1_league3_game3_02_stac_1368708124</title>
<g id="a_edge22"><a xlink:title="Acknowledgement">
<path fill="none" stroke="#12ffff" d="M29.82,-91.04C28.29,-87.84 25.56,-82.12 23.36,-77.53"/>
<polygon fill="#12ffff" stroke="#12ffff" points="24.87,-76.63 21.14,-72.87 21.71,-78.14 24.87,-76.63"/>
</a>
</g>
</g>
<!-- s1_league3_game3_02_stac_1368708127 -->
<g id="node16" class="node">
<title>s1_league3_game3_02_stac_1368708127</title>
<g id="a_node16"><a xlink:title="16 &#160;Gaeilgeoir &#160;I&#39;m definitely giving wheat">
<ellipse fill="black" stroke="black" cx="31" cy="-44.5" rx="3.5" ry="3.5"/>
</a>
</g>
</g>
<!-- s1_league3_game3_02_stac_1368708121&#45;&gt;s1_league3_game3_02_stac_1368708127 -->
<g id="edge23" class="edge">
<title>s1_league3_game3_02_stac_1368708121&#45;&gt;s1_league3_game3_02_stac_1368708127</title>
<g id="a_edge23"><a xlink:title="Continuation">
<path fill="none" stroke="#10491b" d="M31.34,-90.85C31.83,-86.95 32.69,-79.43 33,-73 33.33,-66.26 32.69,-58.6 32.05,-53.08"/>
<polygon fill="#10491b" stroke="#10491b" points="33.78,-52.81 31.4,-48.08 30.31,-53.26 33.78,-52.81"/>
</a>
</g>
</g>
<!-- s1_league3_game3_02_stac_1368708124&#45;&gt;s1_league3_game3_02_stac_1368708127 -->
<!-- s1_league3_game3_02_stac_1368708130 -->
<g id="node17" class="node">
<title>s1_league3_game3_02_stac_1368708130</title>
<g id="a_node17"><a xlink:title="17 &#160;Gaeilgeoir &#160;I have no sheep :)">
<ellipse fill="black" stroke="black" cx="31" cy="-19.5" rx="3.5" ry="3.5"/>
</a>
</g>
</g>
<!-- s1_league3_game3_02_stac_1368708127&#45;&gt;s1_league3_game3_02_stac_1368708130 -->
<g id="edge24" class="edge">
<title>s1_league3_game3_02_stac_1368708127&#45;&gt;s1_league3_game3_02_stac_1368708130</title>
<g id="a_edge24"><a xlink:title="Elaboration">
<path fill="none" stroke="#a621c7" d="M31,-40.68C31,-37.58 31,-32.47 31,-28.16"/>
<polygon fill="#a621c7" stroke="#a621c7" points="32.75,-28.06 31,-23.06 29.25,-28.06 32.75,-28.06"/>
</a>
</g>
</g>
</g>
</svg>
