<?xml version="1.0" encoding="UTF-8" standalone="no"?>
<!DOCTYPE svg PUBLIC "-//W3C//DTD SVG 1.1//EN"
 "http://www.w3.org/Graphics/SVG/1.1/DTD/svg11.dtd">
<!-- Generated by graphviz version 3.0.0 (20220226.1711)
 -->
<!-- Title: 3_s1_league3_game3_551 Pages: 1 -->
<svg width="113pt" height="145pt"
 viewBox="0.00 0.00 113.00 145.00" xmlns="http://www.w3.org/2000/svg" xmlns:xlink="http://www.w3.org/1999/xlink">
<g id="graph0" class="graph" transform="scale(1 1) rotate(0) translate(4 141)">
<title>3_s1_league3_game3_551</title>
<polygon fill="white" stroke="transparent" points="-4,4 -4,-141 109,-141 109,4 -4,4"/>
<g id="clust1" class="cluster">
<title>cluster_3_s1_league3_game3_551</title>
<polygon fill="none" stroke="black" points="8,-8 8,-129 97,-129 97,-8 8,-8"/>
<text text-anchor="middle" x="26.5" y="-113.8" font-family="Times,serif" font-size="14.00">551</text>
</g>
<!-- s1_league3_game3_03_stac_1368708031 -->
<g id="node1" class="node">
<title>s1_league3_game3_03_stac_1368708031</title>
<g id="a_node1"><a xlink:title="1 &#160;yiin &#160;does anyone have clay">
<ellipse fill="black" stroke="black" cx="40" cy="-94.5" rx="3.5" ry="3.5"/>
</a>
</g>
</g>
<!-- 1_0 -->
<!-- s1_league3_game3_03_stac_1368708031&#45;&gt;1_0 -->
<!-- s1_league3_game3_03_stac_1368708042 -->
<g id="node3" class="node">
<title>s1_league3_game3_03_stac_1368708042</title>
<g id="a_node3"><a xlink:title="4 &#160;Gaeilgeoir &#160;no sorry">
<ellipse fill="black" stroke="black" cx="30" cy="-19.5" rx="3.5" ry="3.5"/>
</a>
</g>
</g>
<!-- s1_league3_game3_03_stac_1368708031&#45;&gt;s1_league3_game3_03_stac_1368708042 -->
<g id="edge9" class="edge">
<title>s1_league3_game3_03_stac_1368708031&#45;&gt;s1_league3_game3_03_stac_1368708042</title>
<g id="a_edge9"><a xlink:title="Question_answer_pair">
<path fill="none" stroke="#12ffff" d="M38.16,-91.29C35.32,-87.71 29.99,-80.32 28,-73 23.77,-57.4 26.35,-38.24 28.35,-27.92"/>
<polygon fill="#12ffff" stroke="#12ffff" points="30.07,-28.22 29.39,-22.97 26.65,-27.5 30.07,-28.22"/>
</a>
</g>
</g>
<!-- s1_league3_game3_03_stac_1368708034 -->
<g id="node5" class="node">
<title>s1_league3_game3_03_stac_1368708034</title>
<g id="a_node5"><a xlink:title="2 &#160;inca &#160;i need mine,">
<ellipse fill="black" stroke="black" cx="40" cy="-69.5" rx="3.5" ry="3.5"/>
</a>
</g>
</g>
<!-- s1_league3_game3_03_stac_1368708031&#45;&gt;s1_league3_game3_03_stac_1368708034 -->
<g id="edge5" class="edge">
<title>s1_league3_game3_03_stac_1368708031&#45;&gt;s1_league3_game3_03_stac_1368708034</title>
<g id="a_edge5"><a xlink:title="Question_answer_pair">
<path fill="none" stroke="#12ffff" d="M40,-90.68C40,-87.58 40,-82.47 40,-78.16"/>
<polygon fill="#12ffff" stroke="#12ffff" points="41.75,-78.06 40,-73.06 38.25,-78.06 41.75,-78.06"/>
</a>
</g>
</g>
<!-- s1_league3_game3_03_stac_1368708038 -->
<g id="node7" class="node">
<title>s1_league3_game3_03_stac_1368708038</title>
<g id="a_node7"><a xlink:title="3 &#160;nareik15 &#160;nope,">
<ellipse fill="black" stroke="black" cx="40" cy="-44.5" rx="3.5" ry="3.5"/>
</a>
</g>
</g>
<!-- s1_league3_game3_03_stac_1368708031&#45;&gt;s1_league3_game3_03_stac_1368708038 -->
<g id="edge7" class="edge">
<title>s1_league3_game3_03_stac_1368708031&#45;&gt;s1_league3_game3_03_stac_1368708038</title>
<g id="a_edge7"><a xlink:title="Question_answer_pair">
<path fill="none" stroke="#12ffff" d="M43.56,-92.83C51.45,-91.14 70.32,-85.87 78,-73 85.89,-59.78 61.42,-51.09 48.07,-47.45"/>
<polygon fill="#12ffff" stroke="#12ffff" points="48.43,-45.74 43.15,-46.2 47.57,-49.13 48.43,-45.74"/>
</a>
</g>
</g>
<!-- 4_0 -->
<!-- s1_league3_game3_03_stac_1368708042&#45;&gt;4_0 -->
<!-- s1_league3_game3_03_stac_1368708035 -->
<g id="node6" class="node">
<title>s1_league3_game3_03_stac_1368708035</title>
<g id="a_node6"><a xlink:title="2 &#160;inca &#160;sorry">
<ellipse fill="black" stroke="black" cx="65" cy="-69.5" rx="3.5" ry="3.5"/>
</a>
</g>
</g>
<!-- s1_league3_game3_03_stac_1368708034&#45;&gt;s1_league3_game3_03_stac_1368708035 -->
<g id="edge6" class="edge">
<title>s1_league3_game3_03_stac_1368708034&#45;&gt;s1_league3_game3_03_stac_1368708035</title>
<g id="a_edge6"><a xlink:title="Comment">
<path fill="none" stroke="#ff8200" d="M43.52,-69.5C47.78,-69.5 52.04,-69.5 56.3,-69.5"/>
<polygon fill="#ff8200" stroke="#ff8200" points="56.31,-71.25 61.31,-69.5 56.31,-67.75 56.31,-71.25"/>
</a>
</g>
</g>
<!-- s1_league3_game3_03_stac_1368708034&#45;&gt;s1_league3_game3_03_stac_1368708038 -->
<!-- s1_league3_game3_03_stac_1368708038&#45;&gt;s1_league3_game3_03_stac_1368708042 -->
<!-- s1_league3_game3_03_stac_1368708039 -->
<g id="node8" class="node">
<title>s1_league3_game3_03_stac_1368708039</title>
<g id="a_node8"><a xlink:title="3 &#160;nareik15 &#160;looking for the same thing">
<ellipse fill="black" stroke="black" cx="65" cy="-44.5" rx="3.5" ry="3.5"/>
</a>
</g>
</g>
<!-- s1_league3_game3_03_stac_1368708038&#45;&gt;s1_league3_game3_03_stac_1368708039 -->
<g id="edge8" class="edge">
<title>s1_league3_game3_03_stac_1368708038&#45;&gt;s1_league3_game3_03_stac_1368708039</title>
<g id="a_edge8"><a xlink:title="Comment">
<path fill="none" stroke="#ff8200" d="M43.52,-44.5C47.78,-44.5 52.04,-44.5 56.3,-44.5"/>
<polygon fill="#ff8200" stroke="#ff8200" points="56.31,-46.25 61.31,-44.5 56.31,-42.75 56.31,-46.25"/>
</a>
</g>
</g>
</g>
</svg>
