<?xml version="1.0" encoding="UTF-8" standalone="no"?>
<!DOCTYPE svg PUBLIC "-//W3C//DTD SVG 1.1//EN"
 "http://www.w3.org/Graphics/SVG/1.1/DTD/svg11.dtd">
<!-- Generated by graphviz version 3.0.0 (20220226.1711)
 -->
<!-- Title: 4_s1_league3_game3_553 Pages: 1 -->
<svg width="94pt" height="220pt"
 viewBox="0.00 0.00 94.00 220.00" xmlns="http://www.w3.org/2000/svg" xmlns:xlink="http://www.w3.org/1999/xlink">
<g id="graph0" class="graph" transform="scale(1 1) rotate(0) translate(4 216)">
<title>4_s1_league3_game3_553</title>
<polygon fill="white" stroke="transparent" points="-4,4 -4,-216 90,-216 90,4 -4,4"/>
<g id="clust1" class="cluster">
<title>cluster_4_s1_league3_game3_553</title>
<polygon fill="none" stroke="black" points="8,-8 8,-204 78,-204 78,-8 8,-8"/>
<text text-anchor="middle" x="26.5" y="-188.8" font-family="Times,serif" font-size="14.00">553</text>
</g>
<!-- s1_league3_game3_04_stac_1368708059 -->
<g id="node1" class="node">
<title>s1_league3_game3_04_stac_1368708059</title>
<g id="a_node1"><a xlink:title="2 &#160;inca &#160;i&#39;ll trade sheep for wheat">
<ellipse fill="black" stroke="black" cx="20" cy="-144.5" rx="3.5" ry="3.5"/>
</a>
</g>
</g>
<!-- 2_0 -->
<!-- s1_league3_game3_04_stac_1368708059&#45;&gt;2_0 -->
<!-- s1_league3_game3_04_stac_1368708062 -->
<g id="node3" class="node">
<title>s1_league3_game3_04_stac_1368708062</title>
<g id="a_node3"><a xlink:title="3 &#160;nareik15 &#160;me too">
<ellipse fill="black" stroke="black" cx="41" cy="-119.5" rx="3.5" ry="3.5"/>
</a>
</g>
</g>
<!-- s1_league3_game3_04_stac_1368708059&#45;&gt;s1_league3_game3_04_stac_1368708062 -->
<g id="edge11" class="edge">
<title>s1_league3_game3_04_stac_1368708059&#45;&gt;s1_league3_game3_04_stac_1368708062</title>
<g id="a_edge11"><a xlink:title="Parallel">
<path fill="none" stroke="#0ab046" d="M21.94,-141.38C24.92,-138.11 30.77,-131.71 35.2,-126.85"/>
<polygon fill="#0ab046" stroke="#0ab046" points="36.67,-127.83 38.75,-122.96 34.09,-125.47 36.67,-127.83"/>
</a>
</g>
</g>
<!-- s1_league3_game3_04_stac_1368708065 -->
<g id="node5" class="node">
<title>s1_league3_game3_04_stac_1368708065</title>
<g id="a_node5"><a xlink:title="4 &#160;Gaeilgeoir &#160;deal">
<ellipse fill="black" stroke="black" cx="30" cy="-94.5" rx="3.5" ry="3.5"/>
</a>
</g>
</g>
<!-- s1_league3_game3_04_stac_1368708059&#45;&gt;s1_league3_game3_04_stac_1368708065 -->
<g id="edge12" class="edge">
<title>s1_league3_game3_04_stac_1368708059&#45;&gt;s1_league3_game3_04_stac_1368708065</title>
<g id="a_edge12"><a xlink:title="Acknowledgement">
<path fill="none" stroke="#12ffff" d="M20.54,-140.92C21.99,-133.95 26.03,-114.55 28.34,-103.49"/>
<polygon fill="#12ffff" stroke="#12ffff" points="30.1,-103.58 29.41,-98.33 26.68,-102.87 30.1,-103.58"/>
</a>
</g>
</g>
<!-- 3_0 -->
<!-- s1_league3_game3_04_stac_1368708062&#45;&gt;3_0 -->
<!-- s1_league3_game3_04_stac_1368708062&#45;&gt;s1_league3_game3_04_stac_1368708065 -->
<!-- 4_0 -->
<!-- s1_league3_game3_04_stac_1368708065&#45;&gt;4_0 -->
<!-- s1_league3_game3_04_stac_1368708068 -->
<g id="node7" class="node">
<title>s1_league3_game3_04_stac_1368708068</title>
<g id="a_node7"><a xlink:title="5 &#160;nareik15 &#160;...">
<ellipse fill="black" stroke="black" cx="30" cy="-69.5" rx="3.5" ry="3.5"/>
</a>
</g>
</g>
<!-- s1_league3_game3_04_stac_1368708065&#45;&gt;s1_league3_game3_04_stac_1368708068 -->
<g id="edge13" class="edge">
<title>s1_league3_game3_04_stac_1368708065&#45;&gt;s1_league3_game3_04_stac_1368708068</title>
<g id="a_edge13"><a xlink:title="Comment">
<path fill="none" stroke="#ff8200" d="M30,-90.68C30,-87.58 30,-82.47 30,-78.16"/>
<polygon fill="#ff8200" stroke="#ff8200" points="31.75,-78.06 30,-73.06 28.25,-78.06 31.75,-78.06"/>
</a>
</g>
</g>
<!-- 5_0 -->
<!-- s1_league3_game3_04_stac_1368708068&#45;&gt;5_0 -->
<!-- s1_league3_game3_04_stac_1368708071 -->
<g id="node9" class="node">
<title>s1_league3_game3_04_stac_1368708071</title>
<g id="a_node9"><a xlink:title="6 &#160;Gaeilgeoir &#160;sorry!">
<ellipse fill="black" stroke="black" cx="30" cy="-44.5" rx="3.5" ry="3.5"/>
</a>
</g>
</g>
<!-- s1_league3_game3_04_stac_1368708068&#45;&gt;s1_league3_game3_04_stac_1368708071 -->
<g id="edge14" class="edge">
<title>s1_league3_game3_04_stac_1368708068&#45;&gt;s1_league3_game3_04_stac_1368708071</title>
<g id="a_edge14"><a xlink:title="Comment">
<path fill="none" stroke="#ff8200" d="M30,-65.68C30,-62.58 30,-57.47 30,-53.16"/>
<polygon fill="#ff8200" stroke="#ff8200" points="31.75,-53.06 30,-48.06 28.25,-53.06 31.75,-53.06"/>
</a>
</g>
</g>
<!-- 6_0 -->
<!-- s1_league3_game3_04_stac_1368708071&#45;&gt;6_0 -->
<!-- s1_league3_game3_04_stac_1368708074 -->
<g id="node11" class="node">
<title>s1_league3_game3_04_stac_1368708074</title>
<g id="a_node11"><a xlink:title="7 &#160;nareik15 &#160;:)">
<ellipse fill="black" stroke="black" cx="30" cy="-19.5" rx="3.5" ry="3.5"/>
</a>
</g>
</g>
<!-- s1_league3_game3_04_stac_1368708071&#45;&gt;s1_league3_game3_04_stac_1368708074 -->
<g id="edge15" class="edge">
<title>s1_league3_game3_04_stac_1368708071&#45;&gt;s1_league3_game3_04_stac_1368708074</title>
<g id="a_edge15"><a xlink:title="Comment">
<path fill="none" stroke="#ff8200" d="M30,-40.68C30,-37.58 30,-32.47 30,-28.16"/>
<polygon fill="#ff8200" stroke="#ff8200" points="31.75,-28.06 30,-23.06 28.25,-28.06 31.75,-28.06"/>
</a>
</g>
</g>
<!-- 7_0 -->
<!-- s1_league3_game3_04_stac_1368708074&#45;&gt;7_0 -->
<!-- s1_league3_game3_04_stac_1368708055 -->
<g id="node13" class="node">
<title>s1_league3_game3_04_stac_1368708055</title>
<g id="a_node13"><a xlink:title="1 &#160;Gaeilgeoir &#160;anyone have clay or sheep?">
<ellipse fill="black" stroke="black" cx="30" cy="-169.5" rx="3.5" ry="3.5"/>
</a>
</g>
</g>
<!-- s1_league3_game3_04_stac_1368708055&#45;&gt;s1_league3_game3_04_stac_1368708059 -->
<g id="edge9" class="edge">
<title>s1_league3_game3_04_stac_1368708055&#45;&gt;s1_league3_game3_04_stac_1368708059</title>
<g id="a_edge9"><a xlink:title="Question_answer_pair">
<path fill="none" stroke="#12ffff" d="M28.93,-166.04C27.54,-162.84 25.05,-157.12 23.06,-152.53"/>
<polygon fill="#12ffff" stroke="#12ffff" points="24.63,-151.76 21.03,-147.87 21.42,-153.16 24.63,-151.76"/>
</a>
</g>
</g>
<!-- s1_league3_game3_04_stac_1368708055&#45;&gt;s1_league3_game3_04_stac_1368708062 -->
<g id="edge10" class="edge">
<title>s1_league3_game3_04_stac_1368708055&#45;&gt;s1_league3_game3_04_stac_1368708062</title>
<g id="a_edge10"><a xlink:title="Question_answer_pair">
<path fill="none" stroke="#12ffff" d="M30.59,-165.92C32.19,-158.95 36.64,-139.55 39.17,-128.49"/>
<polygon fill="#12ffff" stroke="#12ffff" points="40.94,-128.6 40.35,-123.33 37.53,-127.81 40.94,-128.6"/>
</a>
</g>
</g>
<!-- s1_league3_game3_04_stac_1368708056 -->
<g id="node14" class="node">
<title>s1_league3_game3_04_stac_1368708056</title>
<g id="a_node14"><a xlink:title="1 &#160;Gaeilgeoir &#160;I can give wheat.">
<ellipse fill="black" stroke="black" cx="55" cy="-169.5" rx="3.5" ry="3.5"/>
</a>
</g>
</g>
<!-- s1_league3_game3_04_stac_1368708055&#45;&gt;s1_league3_game3_04_stac_1368708056 -->
<g id="edge8" class="edge">
<title>s1_league3_game3_04_stac_1368708055&#45;&gt;s1_league3_game3_04_stac_1368708056</title>
<g id="a_edge8"><a xlink:title="Elaboration">
<path fill="none" stroke="#a621c7" d="M33.52,-169.5C37.78,-169.5 42.04,-169.5 46.3,-169.5"/>
<polygon fill="#a621c7" stroke="#a621c7" points="46.31,-171.25 51.31,-169.5 46.31,-167.75 46.31,-171.25"/>
</a>
</g>
</g>
</g>
</svg>
