<?xml version="1.0" encoding="UTF-8" standalone="no"?>
<!DOCTYPE svg PUBLIC "-//W3C//DTD SVG 1.1//EN"
 "http://www.w3.org/Graphics/SVG/1.1/DTD/svg11.dtd">
<!-- Generated by graphviz version 3.0.0 (20220226.1711)
 -->
<!-- Title: 5_s1_league3_game3_554 Pages: 1 -->
<svg width="133pt" height="195pt"
 viewBox="0.00 0.00 133.00 195.00" xmlns="http://www.w3.org/2000/svg" xmlns:xlink="http://www.w3.org/1999/xlink">
<g id="graph0" class="graph" transform="scale(1 1) rotate(0) translate(4 191)">
<title>5_s1_league3_game3_554</title>
<polygon fill="white" stroke="transparent" points="-4,4 -4,-191 129,-191 129,4 -4,4"/>
<g id="clust1" class="cluster">
<title>cluster_5_s1_league3_game3_554</title>
<polygon fill="none" stroke="black" points="8,-8 8,-179 117,-179 117,-8 8,-8"/>
<text text-anchor="middle" x="26.5" y="-163.8" font-family="Times,serif" font-size="14.00">554</text>
</g>
<!-- s1_league3_game3_05_stac_1368708031 -->
<g id="node1" class="node">
<title>s1_league3_game3_05_stac_1368708031</title>
<g id="a_node1"><a xlink:title="1 &#160;Gaeilgeoir &#160;anyone have clay? :)">
<ellipse fill="black" stroke="black" cx="74" cy="-144.5" rx="3.5" ry="3.5"/>
</a>
</g>
</g>
<!-- 1_0 -->
<!-- s1_league3_game3_05_stac_1368708031&#45;&gt;1_0 -->
<!-- s1_league3_game3_05_stac_1368708034 -->
<g id="node3" class="node">
<title>s1_league3_game3_05_stac_1368708034</title>
<g id="a_node3"><a xlink:title="2 &#160;Gaeilgeoir &#160;I have wheat and wood">
<ellipse fill="black" stroke="black" cx="20" cy="-119.5" rx="3.5" ry="3.5"/>
</a>
</g>
</g>
<!-- s1_league3_game3_05_stac_1368708031&#45;&gt;s1_league3_game3_05_stac_1368708034 -->
<g id="edge8" class="edge">
<title>s1_league3_game3_05_stac_1368708031&#45;&gt;s1_league3_game3_05_stac_1368708034</title>
<g id="a_edge8"><a xlink:title="Elaboration">
<path fill="none" stroke="#a621c7" d="M71.1,-142.26C62.97,-138.8 39.77,-128.92 27.63,-123.75"/>
<polygon fill="#a621c7" stroke="#a621c7" points="28.2,-122.09 22.92,-121.74 26.83,-125.31 28.2,-122.09"/>
</a>
</g>
</g>
<!-- s1_league3_game3_05_stac_1368708037 -->
<g id="node5" class="node">
<title>s1_league3_game3_05_stac_1368708037</title>
<g id="a_node5"><a xlink:title="3 &#160;yiin &#160;no sorry">
<ellipse fill="black" stroke="black" cx="39" cy="-94.5" rx="3.5" ry="3.5"/>
</a>
</g>
</g>
<!-- s1_league3_game3_05_stac_1368708031&#45;&gt;s1_league3_game3_05_stac_1368708037 -->
<g id="edge9" class="edge">
<title>s1_league3_game3_05_stac_1368708031&#45;&gt;s1_league3_game3_05_stac_1368708037</title>
<g id="a_edge9"><a xlink:title="Question_answer_pair">
<path fill="none" stroke="#12ffff" d="M72.84,-141.11C70.4,-136.2 64.44,-124.7 58,-116 54.01,-110.62 48.8,-105.08 44.84,-101.12"/>
<polygon fill="#12ffff" stroke="#12ffff" points="45.96,-99.76 41.16,-97.52 43.52,-102.26 45.96,-99.76"/>
</a>
</g>
</g>
<!-- s1_league3_game3_05_stac_1368708040 -->
<g id="node9" class="node">
<title>s1_league3_game3_05_stac_1368708040</title>
<g id="a_node9"><a xlink:title="4 &#160;inca &#160;not any more,">
<ellipse fill="black" stroke="black" cx="60" cy="-69.5" rx="3.5" ry="3.5"/>
</a>
</g>
</g>
<!-- s1_league3_game3_05_stac_1368708031&#45;&gt;s1_league3_game3_05_stac_1368708040 -->
<g id="edge10" class="edge">
<title>s1_league3_game3_05_stac_1368708031&#45;&gt;s1_league3_game3_05_stac_1368708040</title>
<g id="a_edge10"><a xlink:title="Question_answer_pair">
<path fill="none" stroke="#12ffff" d="M74.82,-140.99C77.2,-133.26 83.57,-109.21 77,-91 74.83,-85 70.06,-79.5 66.12,-75.72"/>
<polygon fill="#12ffff" stroke="#12ffff" points="67.23,-74.37 62.34,-72.34 64.9,-76.98 67.23,-74.37"/>
</a>
</g>
</g>
<!-- s1_league3_game3_05_stac_1368708044 -->
<g id="node11" class="node">
<title>s1_league3_game3_05_stac_1368708044</title>
<g id="a_node11"><a xlink:title="5 &#160;nareik15 &#160;nope,">
<ellipse fill="black" stroke="black" cx="80" cy="-44.5" rx="3.5" ry="3.5"/>
</a>
</g>
</g>
<!-- s1_league3_game3_05_stac_1368708031&#45;&gt;s1_league3_game3_05_stac_1368708044 -->
<g id="edge12" class="edge">
<title>s1_league3_game3_05_stac_1368708031&#45;&gt;s1_league3_game3_05_stac_1368708044</title>
<g id="a_edge12"><a xlink:title="Question_answer_pair">
<path fill="none" stroke="#12ffff" d="M75.31,-141.16C77.38,-137.42 81.41,-129.81 84,-123 92.2,-101.43 94.86,-95.86 98,-73 98.42,-69.92 99.1,-68.91 98,-66 95.69,-59.88 90.64,-54.4 86.47,-50.65"/>
<polygon fill="#12ffff" stroke="#12ffff" points="87.43,-49.17 82.47,-47.31 85.19,-51.85 87.43,-49.17"/>
</a>
</g>
</g>
<!-- 2_0 -->
<!-- s1_league3_game3_05_stac_1368708034&#45;&gt;2_0 -->
<!-- s1_league3_game3_05_stac_1368708034&#45;&gt;s1_league3_game3_05_stac_1368708037 -->
<!-- 3_0 -->
<!-- s1_league3_game3_05_stac_1368708037&#45;&gt;3_0 -->
<!-- s1_league3_game3_05_stac_1368708048 -->
<g id="node7" class="node">
<title>s1_league3_game3_05_stac_1368708048</title>
<g id="a_node7"><a xlink:title="6 &#160;Gaeilgeoir &#160;oh well">
<ellipse fill="black" stroke="black" cx="57" cy="-19.5" rx="3.5" ry="3.5"/>
</a>
</g>
</g>
<!-- s1_league3_game3_05_stac_1368708037&#45;&gt;s1_league3_game3_05_stac_1368708048 -->
<g id="edge14" class="edge">
<title>s1_league3_game3_05_stac_1368708037&#45;&gt;s1_league3_game3_05_stac_1368708048</title>
<g id="a_edge14"><a xlink:title="Acknowledgement">
<path fill="none" stroke="#12ffff" d="M39.68,-90.73C42.22,-80.43 51.17,-44.14 55.11,-28.15"/>
<polygon fill="#12ffff" stroke="#12ffff" points="56.89,-28.24 56.39,-22.97 53.49,-27.41 56.89,-28.24"/>
</a>
</g>
</g>
<!-- s1_league3_game3_05_stac_1368708037&#45;&gt;s1_league3_game3_05_stac_1368708040 -->
<!-- 6_0 -->
<!-- s1_league3_game3_05_stac_1368708048&#45;&gt;6_0 -->
<!-- s1_league3_game3_05_stac_1368708040&#45;&gt;s1_league3_game3_05_stac_1368708048 -->
<g id="edge15" class="edge">
<title>s1_league3_game3_05_stac_1368708040&#45;&gt;s1_league3_game3_05_stac_1368708048</title>
<g id="a_edge15"><a xlink:title="Acknowledgement">
<path fill="none" stroke="#12ffff" d="M59.84,-65.92C59.4,-58.95 58.19,-39.55 57.5,-28.49"/>
<polygon fill="#12ffff" stroke="#12ffff" points="59.24,-28.21 57.18,-23.33 55.74,-28.43 59.24,-28.21"/>
</a>
</g>
</g>
<!-- s1_league3_game3_05_stac_1368708041 -->
<g id="node10" class="node">
<title>s1_league3_game3_05_stac_1368708041</title>
<g id="a_node10"><a xlink:title="4 &#160;inca &#160;sorry">
<ellipse fill="black" stroke="black" cx="85" cy="-69.5" rx="3.5" ry="3.5"/>
</a>
</g>
</g>
<!-- s1_league3_game3_05_stac_1368708040&#45;&gt;s1_league3_game3_05_stac_1368708041 -->
<g id="edge11" class="edge">
<title>s1_league3_game3_05_stac_1368708040&#45;&gt;s1_league3_game3_05_stac_1368708041</title>
<g id="a_edge11"><a xlink:title="Comment">
<path fill="none" stroke="#ff8200" d="M63.52,-69.5C67.78,-69.5 72.04,-69.5 76.3,-69.5"/>
<polygon fill="#ff8200" stroke="#ff8200" points="76.31,-71.25 81.31,-69.5 76.31,-67.75 76.31,-71.25"/>
</a>
</g>
</g>
<!-- s1_league3_game3_05_stac_1368708040&#45;&gt;s1_league3_game3_05_stac_1368708044 -->
<!-- s1_league3_game3_05_stac_1368708044&#45;&gt;s1_league3_game3_05_stac_1368708048 -->
<g id="edge16" class="edge">
<title>s1_league3_game3_05_stac_1368708044&#45;&gt;s1_league3_game3_05_stac_1368708048</title>
<g id="a_edge16"><a xlink:title="Acknowledgement">
<path fill="none" stroke="#12ffff" d="M77.88,-41.38C74.54,-38.04 67.95,-31.45 63.06,-26.56"/>
<polygon fill="#12ffff" stroke="#12ffff" points="64.23,-25.26 59.46,-22.96 61.76,-27.73 64.23,-25.26"/>
</a>
</g>
</g>
<!-- s1_league3_game3_05_stac_1368708045 -->
<g id="node12" class="node">
<title>s1_league3_game3_05_stac_1368708045</title>
<g id="a_node12"><a xlink:title="5 &#160;nareik15 &#160;no clay">
<ellipse fill="black" stroke="black" cx="105" cy="-44.5" rx="3.5" ry="3.5"/>
</a>
</g>
</g>
<!-- s1_league3_game3_05_stac_1368708044&#45;&gt;s1_league3_game3_05_stac_1368708045 -->
<g id="edge13" class="edge">
<title>s1_league3_game3_05_stac_1368708044&#45;&gt;s1_league3_game3_05_stac_1368708045</title>
<g id="a_edge13"><a xlink:title="Elaboration">
<path fill="none" stroke="#a621c7" d="M83.52,-44.5C87.78,-44.5 92.04,-44.5 96.3,-44.5"/>
<polygon fill="#a621c7" stroke="#a621c7" points="96.31,-46.25 101.31,-44.5 96.31,-42.75 96.31,-46.25"/>
</a>
</g>
</g>
</g>
</svg>
