<?xml version="1.0" encoding="UTF-8" standalone="no"?>
<!DOCTYPE svg PUBLIC "-//W3C//DTD SVG 1.1//EN"
 "http://www.w3.org/Graphics/SVG/1.1/DTD/svg11.dtd">
<!-- Generated by graphviz version 3.0.0 (20220226.1711)
 -->
<!-- Title: 1_s2_leagueM_game4_1045 Pages: 1 -->
<svg width="73pt" height="95pt"
 viewBox="0.00 0.00 73.00 95.00" xmlns="http://www.w3.org/2000/svg" xmlns:xlink="http://www.w3.org/1999/xlink">
<g id="graph0" class="graph" transform="scale(1 1) rotate(0) translate(4 91)">
<title>1_s2_leagueM_game4_1045</title>
<polygon fill="white" stroke="transparent" points="-4,4 -4,-91 69,-91 69,4 -4,4"/>
<g id="clust1" class="cluster">
<title>cluster_1_s2_leagueM_game4_1045</title>
<polygon fill="none" stroke="black" points="8,-8 8,-79 57,-79 57,-8 8,-8"/>
<text text-anchor="middle" x="30" y="-63.8" font-family="Times,serif" font-size="14.00">1045</text>
</g>
<!-- s2_leagueM_game4_01_stac_1413791893 -->
<g id="node1" class="node">
<title>s2_leagueM_game4_01_stac_1413791893</title>
<g id="a_node1"><a xlink:title="1 &#160;dmm &#160;i&#39;d try to trade but there are too many different things i need :/">
<ellipse fill="black" stroke="black" cx="20" cy="-44.5" rx="3.5" ry="3.5"/>
</a>
</g>
</g>
<!-- 1_0 -->
<!-- s2_leagueM_game4_01_stac_1413791893&#45;&gt;1_0 -->
<!-- s2_leagueM_game4_01_stac_1413791897 -->
<g id="node3" class="node">
<title>s2_leagueM_game4_01_stac_1413791897</title>
<g id="a_node3"><a xlink:title="2 &#160;inca &#160;fair enough,">
<ellipse fill="black" stroke="black" cx="20" cy="-19.5" rx="3.5" ry="3.5"/>
</a>
</g>
</g>
<!-- s2_leagueM_game4_01_stac_1413791893&#45;&gt;s2_leagueM_game4_01_stac_1413791897 -->
<g id="edge2" class="edge">
<title>s2_leagueM_game4_01_stac_1413791893&#45;&gt;s2_leagueM_game4_01_stac_1413791897</title>
<g id="a_edge2"><a xlink:title="Comment">
<path fill="none" stroke="#ff8200" d="M20,-40.68C20,-37.58 20,-32.47 20,-28.16"/>
<polygon fill="#ff8200" stroke="#ff8200" points="21.75,-28.06 20,-23.06 18.25,-28.06 21.75,-28.06"/>
</a>
</g>
</g>
<!-- s2_leagueM_game4_01_stac_1413791898 -->
<g id="node4" class="node">
<title>s2_leagueM_game4_01_stac_1413791898</title>
<g id="a_node4"><a xlink:title="2 &#160;inca &#160;early days">
<ellipse fill="black" stroke="black" cx="45" cy="-19.5" rx="3.5" ry="3.5"/>
</a>
</g>
</g>
<!-- s2_leagueM_game4_01_stac_1413791897&#45;&gt;s2_leagueM_game4_01_stac_1413791898 -->
<g id="edge3" class="edge">
<title>s2_leagueM_game4_01_stac_1413791897&#45;&gt;s2_leagueM_game4_01_stac_1413791898</title>
<g id="a_edge3"><a xlink:title="Explanation">
<path fill="none" stroke="#a62139" d="M23.52,-19.5C27.78,-19.5 32.04,-19.5 36.3,-19.5"/>
<polygon fill="#a62139" stroke="#a62139" points="36.31,-21.25 41.31,-19.5 36.31,-17.75 36.31,-21.25"/>
</a>
</g>
</g>
</g>
</svg>
