<?xml version="1.0" encoding="UTF-8" standalone="no"?>
<!DOCTYPE svg PUBLIC "-//W3C//DTD SVG 1.1//EN"
 "http://www.w3.org/Graphics/SVG/1.1/DTD/svg11.dtd">
<!-- Generated by graphviz version 3.0.0 (20220226.1711)
 -->
<!-- Title: 9_s1_league3_game3_566 Pages: 1 -->
<svg width="113pt" height="120pt"
 viewBox="0.00 0.00 113.00 120.00" xmlns="http://www.w3.org/2000/svg" xmlns:xlink="http://www.w3.org/1999/xlink">
<g id="graph0" class="graph" transform="scale(1 1) rotate(0) translate(4 116)">
<title>9_s1_league3_game3_566</title>
<polygon fill="white" stroke="transparent" points="-4,4 -4,-116 109,-116 109,4 -4,4"/>
<g id="clust1" class="cluster">
<title>cluster_9_s1_league3_game3_566</title>
<polygon fill="none" stroke="black" points="8,-8 8,-104 97,-104 97,-8 8,-8"/>
<text text-anchor="middle" x="26.5" y="-88.8" font-family="Times,serif" font-size="14.00">566</text>
</g>
<!-- s1_league3_game3_09_stac_1368708060 -->
<g id="node1" class="node">
<title>s1_league3_game3_09_stac_1368708060</title>
<g id="a_node1"><a xlink:title="1 &#160;yiin &#160;anyone got clay">
<ellipse fill="black" stroke="black" cx="60" cy="-69.5" rx="3.5" ry="3.5"/>
</a>
</g>
</g>
<!-- 1_0 -->
<!-- s1_league3_game3_09_stac_1368708060&#45;&gt;1_0 -->
<!-- s1_league3_game3_09_stac_1368708063 -->
<g id="node3" class="node">
<title>s1_league3_game3_09_stac_1368708063</title>
<g id="a_node3"><a xlink:title="2 &#160;inca &#160;not any more, sorry">
<ellipse fill="black" stroke="black" cx="20" cy="-44.5" rx="3.5" ry="3.5"/>
</a>
</g>
</g>
<!-- s1_league3_game3_09_stac_1368708060&#45;&gt;s1_league3_game3_09_stac_1368708063 -->
<g id="edge4" class="edge">
<title>s1_league3_game3_09_stac_1368708060&#45;&gt;s1_league3_game3_09_stac_1368708063</title>
<g id="a_edge4"><a xlink:title="Question_answer_pair">
<path fill="none" stroke="#12ffff" d="M57.38,-66.99C51.33,-63.52 36.26,-54.85 27.21,-49.64"/>
<polygon fill="#12ffff" stroke="#12ffff" points="27.89,-48.02 22.69,-47.04 26.15,-51.05 27.89,-48.02"/>
</a>
</g>
</g>
<!-- s1_league3_game3_09_stac_1368708066 -->
<g id="node5" class="node">
<title>s1_league3_game3_09_stac_1368708066</title>
<g id="a_node5"><a xlink:title="3 &#160;nareik15 &#160;i have some,">
<ellipse fill="black" stroke="black" cx="60" cy="-19.5" rx="3.5" ry="3.5"/>
</a>
</g>
</g>
<!-- s1_league3_game3_09_stac_1368708060&#45;&gt;s1_league3_game3_09_stac_1368708066 -->
<g id="edge5" class="edge">
<title>s1_league3_game3_09_stac_1368708060&#45;&gt;s1_league3_game3_09_stac_1368708066</title>
<g id="a_edge5"><a xlink:title="Question_answer_pair">
<path fill="none" stroke="#12ffff" d="M60,-65.92C60,-58.95 60,-39.55 60,-28.49"/>
<polygon fill="#12ffff" stroke="#12ffff" points="61.75,-28.33 60,-23.33 58.25,-28.33 61.75,-28.33"/>
</a>
</g>
</g>
<!-- s1_league3_game3_09_stac_1368708067 -->
<g id="node6" class="node">
<title>s1_league3_game3_09_stac_1368708067</title>
<g id="a_node6"><a xlink:title="3 &#160;nareik15 &#160;do you have any ore">
<ellipse fill="black" stroke="black" cx="85" cy="-19.5" rx="3.5" ry="3.5"/>
</a>
</g>
</g>
<!-- s1_league3_game3_09_stac_1368708060&#45;&gt;s1_league3_game3_09_stac_1368708067 -->
<g id="edge6" class="edge">
<title>s1_league3_game3_09_stac_1368708060&#45;&gt;s1_league3_game3_09_stac_1368708067</title>
<g id="a_edge6"><a xlink:title="Q_Elab">
<path fill="none" stroke="#0d20ff" d="M61.21,-66.18C64.83,-59.23 75.71,-38.34 81.42,-27.38"/>
<polygon fill="#0d20ff" stroke="#0d20ff" points="82.99,-28.15 83.75,-22.9 79.89,-26.53 82.99,-28.15"/>
</a>
</g>
</g>
<!-- 2_0 -->
<!-- s1_league3_game3_09_stac_1368708063&#45;&gt;2_0 -->
<!-- s1_league3_game3_09_stac_1368708063&#45;&gt;s1_league3_game3_09_stac_1368708066 -->
<!-- s1_league3_game3_09_stac_1368708066&#45;&gt;s1_league3_game3_09_stac_1368708067 -->
<g id="edge7" class="edge">
<title>s1_league3_game3_09_stac_1368708066&#45;&gt;s1_league3_game3_09_stac_1368708067</title>
<g id="a_edge7"><a xlink:title="Continuation">
<path fill="none" stroke="#10491b" d="M63.52,-19.5C67.78,-19.5 72.04,-19.5 76.3,-19.5"/>
<polygon fill="#10491b" stroke="#10491b" points="76.31,-21.25 81.31,-19.5 76.31,-17.75 76.31,-21.25"/>
</a>
</g>
</g>
</g>
</svg>
