<?xml version="1.0" encoding="UTF-8" standalone="no"?>
<!DOCTYPE svg PUBLIC "-//W3C//DTD SVG 1.1//EN"
 "http://www.w3.org/Graphics/SVG/1.1/DTD/svg11.dtd">
<!-- Generated by graphviz version 3.0.0 (20220226.1711)
 -->
<!-- Title: 2_pilot02_48 Pages: 1 -->
<svg width="138pt" height="422pt"
 viewBox="0.00 0.00 138.00 422.19" xmlns="http://www.w3.org/2000/svg" xmlns:xlink="http://www.w3.org/1999/xlink">
<g id="graph0" class="graph" transform="scale(1 1) rotate(0) translate(4 418.19)">
<title>2_pilot02_48</title>
<polygon fill="white" stroke="transparent" points="-4,4 -4,-418.19 134,-418.19 134,4 -4,4"/>
<g id="clust1" class="cluster">
<title>cluster_2_pilot02_48</title>
<polygon fill="none" stroke="black" points="8,-8 8,-404 122,-404 122,-8 8,-8"/>
<text text-anchor="middle" x="23" y="-388.8" font-family="Times,serif" font-size="14.00">48</text>
</g>
<!-- pilot02_02_stac_1338387675 -->
<g id="node1" class="node">
<title>pilot02_02_stac_1338387675</title>
<g id="a_node1"><a xlink:title="1 &#160;Cat &#160;how do we do an exchange?">
<ellipse fill="black" stroke="black" cx="49" cy="-369.5" rx="3.5" ry="3.5"/>
</a>
</g>
</g>
<!-- 1_0 -->
<!-- pilot02_02_stac_1338387675&#45;&gt;1_0 -->
<!-- 1_1 -->
<!-- pilot02_02_stac_1338387675&#45;&gt;1_1 -->
<!-- pilot02_02_stac_1338397675 -->
<g id="node4" class="node">
<title>pilot02_02_stac_1338397675</title>
<g id="a_node4"><a xlink:title="2 &#160;william &#160;first we chat about it">
<ellipse fill="black" stroke="black" cx="49" cy="-344.5" rx="3.5" ry="3.5"/>
</a>
</g>
</g>
<!-- pilot02_02_stac_1338387675&#45;&gt;pilot02_02_stac_1338397675 -->
<g id="edge33" class="edge">
<title>pilot02_02_stac_1338387675&#45;&gt;pilot02_02_stac_1338397675</title>
<g id="a_edge33"><a xlink:title="Question_answer_pair">
<path fill="none" stroke="#12ffff" d="M49,-365.68C49,-362.58 49,-357.47 49,-353.16"/>
<polygon fill="#12ffff" stroke="#12ffff" points="50.75,-353.06 49,-348.06 47.25,-353.06 50.75,-353.06"/>
</a>
</g>
</g>
<!-- 2_0 -->
<!-- pilot02_02_stac_1338397675&#45;&gt;2_0 -->
<!-- 2_1 -->
<!-- pilot02_02_stac_1338397675&#45;&gt;2_1 -->
<!-- pilot02_02_stac_1338407675 -->
<g id="node7" class="node">
<title>pilot02_02_stac_1338407675</title>
<g id="a_node7"><a xlink:title="3 &#160;william &#160;when we actually want to exchange...">
<ellipse fill="black" stroke="black" cx="39" cy="-319.5" rx="3.5" ry="3.5"/>
</a>
</g>
</g>
<!-- pilot02_02_stac_1338397675&#45;&gt;pilot02_02_stac_1338407675 -->
<g id="edge34" class="edge">
<title>pilot02_02_stac_1338397675&#45;&gt;pilot02_02_stac_1338407675</title>
<g id="a_edge34"><a xlink:title="Narration">
<path fill="none" stroke="#1c931a" d="M47.93,-341.04C46.54,-337.84 44.05,-332.12 42.06,-327.53"/>
<polygon fill="#1c931a" stroke="#1c931a" points="43.63,-326.76 40.03,-322.87 40.42,-328.16 43.63,-326.76"/>
</a>
</g>
</g>
<!-- pilot02_02_stac_1338437675 -->
<g id="node41" class="node">
<title>pilot02_02_stac_1338437675</title>
<g id="a_node41"><a xlink:title="6 &#160;Cat &#160;okay, ">
<ellipse fill="black" stroke="black" cx="41" cy="-244.5" rx="3.5" ry="3.5"/>
</a>
</g>
</g>
<!-- pilot02_02_stac_1338397675&#45;&gt;pilot02_02_stac_1338437675 -->
<g id="edge37" class="edge">
<title>pilot02_02_stac_1338397675&#45;&gt;pilot02_02_stac_1338437675</title>
<g id="a_edge37"><a xlink:title="Acknowledgement">
<path fill="none" stroke="#12ffff" d="M50.55,-341.3C54.1,-336.34 63.28,-324.13 73,-316 84.92,-306.02 95.34,-311.53 103,-298 110.01,-285.62 111.33,-277.53 103,-266 99.75,-261.5 65.15,-251.88 49.1,-247.61"/>
<polygon fill="#12ffff" stroke="#12ffff" points="49.4,-245.88 44.12,-246.3 48.51,-249.27 49.4,-245.88"/>
</a>
</g>
</g>
<!-- 3_0 -->
<!-- pilot02_02_stac_1338407675&#45;&gt;3_0 -->
<!-- 3_1 -->
<!-- pilot02_02_stac_1338407675&#45;&gt;3_1 -->
<!-- pilot02_02_stac_1338417675 -->
<g id="node10" class="node">
<title>pilot02_02_stac_1338417675</title>
<g id="a_node10"><a xlink:title="4 &#160;Thomas &#160;register a trade&#39;">
<ellipse fill="black" stroke="black" cx="40" cy="-294.5" rx="3.5" ry="3.5"/>
</a>
</g>
</g>
<!-- pilot02_02_stac_1338407675&#45;&gt;pilot02_02_stac_1338417675 -->
<g id="edge35" class="edge">
<title>pilot02_02_stac_1338407675&#45;&gt;pilot02_02_stac_1338417675</title>
<g id="a_edge35"><a xlink:title="Elaboration">
<path fill="none" stroke="#a621c7" d="M39.12,-315.68C39.26,-312.58 39.48,-307.47 39.67,-303.16"/>
<polygon fill="#a621c7" stroke="#a621c7" points="41.42,-303.13 39.89,-298.06 37.92,-302.98 41.42,-303.13"/>
</a>
</g>
</g>
<!-- pilot02_02_stac_1338427675 -->
<g id="node13" class="node">
<title>pilot02_02_stac_1338427675</title>
<g id="a_node13"><a xlink:title="5 &#160;william &#160;we click &quot;register a trade">
<ellipse fill="black" stroke="black" cx="40" cy="-269.5" rx="3.5" ry="3.5"/>
</a>
</g>
</g>
<!-- pilot02_02_stac_1338407675&#45;&gt;pilot02_02_stac_1338427675 -->
<g id="edge36" class="edge">
<title>pilot02_02_stac_1338407675&#45;&gt;pilot02_02_stac_1338427675</title>
<g id="a_edge36"><a xlink:title="Conditional">
<path fill="none" stroke="#1c931a" d="M36.8,-315.99C32.9,-311.23 25.42,-300.53 28,-291 29.4,-285.85 32.45,-280.67 35.12,-276.81"/>
<polygon fill="#1c931a" stroke="#1c931a" points="36.58,-277.77 38.16,-272.71 33.77,-275.69 36.58,-277.77"/>
</a>
</g>
</g>
<!-- 4_0 -->
<!-- pilot02_02_stac_1338417675&#45;&gt;4_0 -->
<!-- 4_1 -->
<!-- pilot02_02_stac_1338417675&#45;&gt;4_1 -->
<!-- pilot02_02_stac_1338417675&#45;&gt;pilot02_02_stac_1338427675 -->
<!-- 5_0 -->
<!-- pilot02_02_stac_1338427675&#45;&gt;5_0 -->
<!-- 5_1 -->
<!-- pilot02_02_stac_1338427675&#45;&gt;5_1 -->
<!-- pilot02_02_stac_1338427675&#45;&gt;pilot02_02_stac_1338437675 -->
<!-- pilot02_02_stac_1338437676 -->
<g id="node16" class="node">
<title>pilot02_02_stac_1338437676</title>
<g id="a_node16"><a xlink:title="6 &#160;Cat &#160;let&#39;s do an exchange">
<ellipse fill="black" stroke="black" cx="66" cy="-244.5" rx="3.5" ry="3.5"/>
</a>
</g>
</g>
<!-- 6_0 -->
<!-- pilot02_02_stac_1338437676&#45;&gt;6_0 -->
<!-- pilot02_02_stac_1338447675 -->
<g id="node18" class="node">
<title>pilot02_02_stac_1338447675</title>
<g id="a_node18"><a xlink:title="7 &#160;william &#160;what kind?">
<ellipse fill="black" stroke="black" cx="42" cy="-219.5" rx="3.5" ry="3.5"/>
</a>
</g>
</g>
<!-- pilot02_02_stac_1338437676&#45;&gt;pilot02_02_stac_1338447675 -->
<g id="edge39" class="edge">
<title>pilot02_02_stac_1338437676&#45;&gt;pilot02_02_stac_1338447675</title>
<g id="a_edge39"><a xlink:title="Elaboration">
<path fill="none" stroke="#a621c7" d="M63.79,-241.38C60.16,-237.9 52.84,-230.89 47.69,-225.96"/>
<polygon fill="#a621c7" stroke="#a621c7" points="48.83,-224.62 44,-222.42 46.4,-227.14 48.83,-224.62"/>
</a>
</g>
</g>
<!-- 7_0 -->
<!-- pilot02_02_stac_1338447675&#45;&gt;7_0 -->
<!-- 7_1 -->
<!-- pilot02_02_stac_1338447675&#45;&gt;7_1 -->
<!-- pilot02_02_stac_1338477675 -->
<g id="node21" class="node">
<title>pilot02_02_stac_1338477675</title>
<g id="a_node21"><a xlink:title="8 &#160;Cat &#160;wood for wheat">
<ellipse fill="black" stroke="black" cx="42" cy="-194.5" rx="3.5" ry="3.5"/>
</a>
</g>
</g>
<!-- pilot02_02_stac_1338447675&#45;&gt;pilot02_02_stac_1338477675 -->
<g id="edge40" class="edge">
<title>pilot02_02_stac_1338447675&#45;&gt;pilot02_02_stac_1338477675</title>
<g id="a_edge40"><a xlink:title="Question_answer_pair">
<path fill="none" stroke="#12ffff" d="M42,-215.68C42,-212.58 42,-207.47 42,-203.16"/>
<polygon fill="#12ffff" stroke="#12ffff" points="43.75,-203.06 42,-198.06 40.25,-203.06 43.75,-203.06"/>
</a>
</g>
</g>
<!-- 8_0 -->
<!-- pilot02_02_stac_1338477675&#45;&gt;8_0 -->
<!-- 8_1 -->
<!-- pilot02_02_stac_1338477675&#45;&gt;8_1 -->
<!-- pilot02_02_stac_1338487675 -->
<g id="node24" class="node">
<title>pilot02_02_stac_1338487675</title>
<g id="a_node24"><a xlink:title="9 &#160;Thomas &#160;which do you want?">
<ellipse fill="black" stroke="black" cx="20" cy="-169.5" rx="3.5" ry="3.5"/>
</a>
</g>
</g>
<!-- pilot02_02_stac_1338477675&#45;&gt;pilot02_02_stac_1338487675 -->
<g id="edge41" class="edge">
<title>pilot02_02_stac_1338477675&#45;&gt;pilot02_02_stac_1338487675</title>
<g id="a_edge41"><a xlink:title="Clarification_question">
<path fill="none" stroke="#ff40d1" d="M39.97,-191.38C36.84,-188.11 30.72,-181.71 26.08,-176.85"/>
<polygon fill="#ff40d1" stroke="#ff40d1" points="27.08,-175.36 22.35,-172.96 24.55,-177.78 27.08,-175.36"/>
</a>
</g>
</g>
<!-- pilot02_02_stac_1338497675 -->
<g id="node27" class="node">
<title>pilot02_02_stac_1338497675</title>
<g id="a_node27"><a xlink:title="10 &#160;william &#160;yup i saw it">
<ellipse fill="black" stroke="black" cx="43" cy="-144.5" rx="3.5" ry="3.5"/>
</a>
</g>
</g>
<!-- pilot02_02_stac_1338477675&#45;&gt;pilot02_02_stac_1338497675 -->
<g id="edge42" class="edge">
<title>pilot02_02_stac_1338477675&#45;&gt;pilot02_02_stac_1338497675</title>
<g id="a_edge42"><a xlink:title="Acknowledgement">
<path fill="none" stroke="#12ffff" d="M42.05,-190.92C42.2,-183.95 42.6,-164.55 42.83,-153.49"/>
<polygon fill="#12ffff" stroke="#12ffff" points="44.59,-153.37 42.94,-148.33 41.09,-153.29 44.59,-153.37"/>
</a>
</g>
</g>
<!-- 9_0 -->
<!-- pilot02_02_stac_1338487675&#45;&gt;9_0 -->
<!-- 9_1 -->
<!-- pilot02_02_stac_1338487675&#45;&gt;9_1 -->
<!-- pilot02_02_stac_1338487675&#45;&gt;pilot02_02_stac_1338497675 -->
<!-- pilot02_02_stac_1338507675 -->
<g id="node30" class="node">
<title>pilot02_02_stac_1338507675</title>
<g id="a_node30"><a xlink:title="11 &#160;william &#160;already traded, tom">
<ellipse fill="black" stroke="black" cx="20" cy="-119.5" rx="3.5" ry="3.5"/>
</a>
</g>
</g>
<!-- pilot02_02_stac_1338487675&#45;&gt;pilot02_02_stac_1338507675 -->
<g id="edge43" class="edge">
<title>pilot02_02_stac_1338487675&#45;&gt;pilot02_02_stac_1338507675</title>
<g id="a_edge43"><a xlink:title="Correction">
<path fill="none" stroke="#ff174e" d="M20,-165.92C20,-158.95 20,-139.55 20,-128.49"/>
<polygon fill="#ff174e" stroke="#ff174e" points="21.75,-128.33 20,-123.33 18.25,-128.33 21.75,-128.33"/>
</a>
</g>
</g>
<!-- 10_0 -->
<!-- pilot02_02_stac_1338497675&#45;&gt;10_0 -->
<!-- 10_1 -->
<!-- pilot02_02_stac_1338497675&#45;&gt;10_1 -->
<!-- pilot02_02_stac_1338497675&#45;&gt;pilot02_02_stac_1338507675 -->
<!-- pilot02_02_stac_1338527675 -->
<g id="node36" class="node">
<title>pilot02_02_stac_1338527675</title>
<g id="a_node36"><a xlink:title="13 &#160;Cat &#160;thanks">
<ellipse fill="black" stroke="black" cx="40" cy="-69.5" rx="3.5" ry="3.5"/>
</a>
</g>
</g>
<!-- pilot02_02_stac_1338497675&#45;&gt;pilot02_02_stac_1338527675 -->
<g id="edge45" class="edge">
<title>pilot02_02_stac_1338497675&#45;&gt;pilot02_02_stac_1338527675</title>
<g id="a_edge45"><a xlink:title="Acknowledgement">
<path fill="none" stroke="#12ffff" d="M46.25,-142.99C54.23,-141.54 74.7,-136.58 83,-123 90.42,-110.86 90.59,-103.03 83,-91 79.02,-84.69 59.27,-77.08 47.97,-73.15"/>
<polygon fill="#12ffff" stroke="#12ffff" points="48.26,-71.4 42.96,-71.45 47.13,-74.71 48.26,-71.4"/>
</a>
</g>
</g>
<!-- 11_0 -->
<!-- pilot02_02_stac_1338507675&#45;&gt;11_0 -->
<!-- 11_1 -->
<!-- pilot02_02_stac_1338507675&#45;&gt;11_1 -->
<!-- pilot02_02_stac_1338517675 -->
<g id="node33" class="node">
<title>pilot02_02_stac_1338517675</title>
<g id="a_node33"><a xlink:title="12 &#160;Thomas &#160;ok">
<ellipse fill="black" stroke="black" cx="20" cy="-94.5" rx="3.5" ry="3.5"/>
</a>
</g>
</g>
<!-- pilot02_02_stac_1338507675&#45;&gt;pilot02_02_stac_1338517675 -->
<g id="edge44" class="edge">
<title>pilot02_02_stac_1338507675&#45;&gt;pilot02_02_stac_1338517675</title>
<g id="a_edge44"><a xlink:title="Acknowledgement">
<path fill="none" stroke="#12ffff" d="M20,-115.68C20,-112.58 20,-107.47 20,-103.16"/>
<polygon fill="#12ffff" stroke="#12ffff" points="21.75,-103.06 20,-98.06 18.25,-103.06 21.75,-103.06"/>
</a>
</g>
</g>
<!-- 12_0 -->
<!-- pilot02_02_stac_1338517675&#45;&gt;12_0 -->
<!-- 12_1 -->
<!-- pilot02_02_stac_1338517675&#45;&gt;12_1 -->
<!-- pilot02_02_stac_1338517675&#45;&gt;pilot02_02_stac_1338527675 -->
<!-- 13_0 -->
<!-- pilot02_02_stac_1338527675&#45;&gt;13_0 -->
<!-- 13_1 -->
<!-- pilot02_02_stac_1338527675&#45;&gt;13_1 -->
<!-- pilot02_02_stac_1338537675 -->
<g id="node42" class="node">
<title>pilot02_02_stac_1338537675</title>
<g id="a_node42"><a xlink:title="14 &#160;Cat &#160;what else can I do during the turn? ">
<ellipse fill="black" stroke="black" cx="40" cy="-44.5" rx="3.5" ry="3.5"/>
</a>
</g>
</g>
<!-- pilot02_02_stac_1338527675&#45;&gt;pilot02_02_stac_1338537675 -->
<g id="edge46" class="edge">
<title>pilot02_02_stac_1338527675&#45;&gt;pilot02_02_stac_1338537675</title>
<g id="a_edge46"><a xlink:title="Continuation">
<path fill="none" stroke="#10491b" d="M40,-65.68C40,-62.58 40,-57.47 40,-53.16"/>
<polygon fill="#10491b" stroke="#10491b" points="41.75,-53.06 40,-48.06 38.25,-53.06 41.75,-53.06"/>
</a>
</g>
</g>
<!-- pilot02_02_stac_1338537676 -->
<g id="node39" class="node">
<title>pilot02_02_stac_1338537676</title>
<g id="a_node39"><a xlink:title="14 &#160;Cat &#160;(i am new to this)">
<ellipse fill="black" stroke="black" cx="65" cy="-44.5" rx="3.5" ry="3.5"/>
</a>
</g>
</g>
<!-- 14_0 -->
<!-- pilot02_02_stac_1338537676&#45;&gt;14_0 -->
<!-- pilot02_02_stac_1338437675&#45;&gt;pilot02_02_stac_1338437676 -->
<g id="edge38" class="edge">
<title>pilot02_02_stac_1338437675&#45;&gt;pilot02_02_stac_1338437676</title>
<g id="a_edge38"><a xlink:title="Result">
<path fill="none" stroke="#10ff0f" d="M44.52,-244.5C48.78,-244.5 53.04,-244.5 57.3,-244.5"/>
<polygon fill="#10ff0f" stroke="#10ff0f" points="57.31,-246.25 62.31,-244.5 57.31,-242.75 57.31,-246.25"/>
</a>
</g>
</g>
<!-- pilot02_02_stac_1338437675&#45;&gt;pilot02_02_stac_1338447675 -->
<!-- pilot02_02_stac_1338537675&#45;&gt;pilot02_02_stac_1338537676 -->
<g id="edge47" class="edge">
<title>pilot02_02_stac_1338537675&#45;&gt;pilot02_02_stac_1338537676</title>
<g id="a_edge47"><a xlink:title="Explanation">
<path fill="none" stroke="#a62139" d="M43.52,-44.5C47.78,-44.5 52.04,-44.5 56.3,-44.5"/>
<polygon fill="#a62139" stroke="#a62139" points="56.31,-46.25 61.31,-44.5 56.31,-42.75 56.31,-46.25"/>
</a>
</g>
</g>
<!-- pilot02_02_nasher_1384870235904 -->
<g id="node43" class="node">
<title>pilot02_02_nasher_1384870235904</title>
<g id="a_node43"><a xlink:title="15 &#160;william &#160;build,">
<ellipse fill="black" stroke="black" cx="40" cy="-19.5" rx="3.5" ry="3.5"/>
</a>
</g>
</g>
<!-- pilot02_02_stac_1338537675&#45;&gt;pilot02_02_nasher_1384870235904 -->
<g id="edge48" class="edge">
<title>pilot02_02_stac_1338537675&#45;&gt;pilot02_02_nasher_1384870235904</title>
<g id="a_edge48"><a xlink:title="Question_answer_pair">
<path fill="none" stroke="#12ffff" d="M40,-40.68C40,-37.58 40,-32.47 40,-28.16"/>
<polygon fill="#12ffff" stroke="#12ffff" points="41.75,-28.06 40,-23.06 38.25,-28.06 41.75,-28.06"/>
</a>
</g>
</g>
<!-- pilot02_02_mabrusan_1382435279166 -->
<g id="node44" class="node">
<title>pilot02_02_mabrusan_1382435279166</title>
<g id="a_node44"><a xlink:title="15 &#160;william &#160;trade,">
<ellipse fill="black" stroke="black" cx="65" cy="-19.5" rx="3.5" ry="3.5"/>
</a>
</g>
</g>
<!-- pilot02_02_nasher_1384870235904&#45;&gt;pilot02_02_mabrusan_1382435279166 -->
<g id="edge49" class="edge">
<title>pilot02_02_nasher_1384870235904&#45;&gt;pilot02_02_mabrusan_1382435279166</title>
<g id="a_edge49"><a xlink:title="Narration">
<path fill="none" stroke="#1c931a" d="M43.52,-19.5C47.78,-19.5 52.04,-19.5 56.3,-19.5"/>
<polygon fill="#1c931a" stroke="#1c931a" points="56.31,-21.25 61.31,-19.5 56.31,-17.75 56.31,-21.25"/>
</a>
</g>
</g>
<!-- pilot02_02_mabrusan_1382435305557 -->
<g id="node45" class="node">
<title>pilot02_02_mabrusan_1382435305557</title>
<g id="a_node45"><a xlink:title="15 &#160;william &#160;&quot;done&quot;">
<ellipse fill="black" stroke="black" cx="90" cy="-19.5" rx="3.5" ry="3.5"/>
</a>
</g>
</g>
<!-- pilot02_02_mabrusan_1382435279166&#45;&gt;pilot02_02_mabrusan_1382435305557 -->
<g id="edge50" class="edge">
<title>pilot02_02_mabrusan_1382435279166&#45;&gt;pilot02_02_mabrusan_1382435305557</title>
<g id="a_edge50"><a xlink:title="Narration">
<path fill="none" stroke="#1c931a" d="M68.52,-19.5C72.78,-19.5 77.04,-19.5 81.3,-19.5"/>
<polygon fill="#1c931a" stroke="#1c931a" points="81.31,-21.25 86.31,-19.5 81.31,-17.75 81.31,-21.25"/>
</a>
</g>
</g>
</g>
</svg>
