<?xml version="1.0" encoding="UTF-8" standalone="no"?>
<!DOCTYPE svg PUBLIC "-//W3C//DTD SVG 1.1//EN"
 "http://www.w3.org/Graphics/SVG/1.1/DTD/svg11.dtd">
<!-- Generated by graphviz version 3.0.0 (20220226.1711)
 -->
<!-- Title: 9_s1_league3_game3_568 Pages: 1 -->
<svg width="68pt" height="320pt"
 viewBox="0.00 0.00 68.00 320.00" xmlns="http://www.w3.org/2000/svg" xmlns:xlink="http://www.w3.org/1999/xlink">
<g id="graph0" class="graph" transform="scale(1 1) rotate(0) translate(4 316)">
<title>9_s1_league3_game3_568</title>
<polygon fill="white" stroke="transparent" points="-4,4 -4,-316 64,-316 64,4 -4,4"/>
<g id="clust1" class="cluster">
<title>cluster_9_s1_league3_game3_568</title>
<polygon fill="none" stroke="black" points="8,-8 8,-304 52,-304 52,-8 8,-8"/>
<text text-anchor="middle" x="26.5" y="-288.8" font-family="Times,serif" font-size="14.00">568</text>
</g>
<!-- s1_league3_game3_09_stac_1368708087 -->
<g id="node1" class="node">
<title>s1_league3_game3_09_stac_1368708087</title>
<g id="a_node1"><a xlink:title="1 &#160;Gaeilgeoir &#160;well played">
<ellipse fill="black" stroke="black" cx="30" cy="-269.5" rx="3.5" ry="3.5"/>
</a>
</g>
</g>
<!-- s1_league3_game3_09_stac_1368708090 -->
<g id="node2" class="node">
<title>s1_league3_game3_09_stac_1368708090</title>
<g id="a_node2"><a xlink:title="2 &#160;inca &#160;cheers, good game">
<ellipse fill="black" stroke="black" cx="20" cy="-244.5" rx="3.5" ry="3.5"/>
</a>
</g>
</g>
<!-- s1_league3_game3_09_stac_1368708087&#45;&gt;s1_league3_game3_09_stac_1368708090 -->
<g id="edge4" class="edge">
<title>s1_league3_game3_09_stac_1368708087&#45;&gt;s1_league3_game3_09_stac_1368708090</title>
<g id="a_edge4"><a xlink:title="Acknowledgement">
<path fill="none" stroke="#12ffff" d="M28.93,-266.04C27.54,-262.84 25.05,-257.12 23.06,-252.53"/>
<polygon fill="#12ffff" stroke="#12ffff" points="24.63,-251.76 21.03,-247.87 21.42,-253.16 24.63,-251.76"/>
</a>
</g>
</g>
<!-- s1_league3_game3_09_stac_1368708096 -->
<g id="node4" class="node">
<title>s1_league3_game3_09_stac_1368708096</title>
<g id="a_node4"><a xlink:title="4 &#160;Gaeilgeoir &#160;talk soon">
<ellipse fill="black" stroke="black" cx="30" cy="-194.5" rx="3.5" ry="3.5"/>
</a>
</g>
</g>
<!-- s1_league3_game3_09_stac_1368708087&#45;&gt;s1_league3_game3_09_stac_1368708096 -->
<g id="edge6" class="edge">
<title>s1_league3_game3_09_stac_1368708087&#45;&gt;s1_league3_game3_09_stac_1368708096</title>
<g id="a_edge6"><a xlink:title="Continuation">
<path fill="none" stroke="#10491b" d="M30.51,-265.86C31.24,-261.97 32.53,-254.46 33,-248 34.03,-233.82 34.03,-230.18 33,-216 32.69,-211.76 32.03,-207.07 31.4,-203.25"/>
<polygon fill="#10491b" stroke="#10491b" points="33.1,-202.76 30.51,-198.14 29.65,-203.37 33.1,-202.76"/>
</a>
</g>
</g>
<!-- s1_league3_game3_09_stac_1368708093 -->
<g id="node3" class="node">
<title>s1_league3_game3_09_stac_1368708093</title>
<g id="a_node3"><a xlink:title="3 &#160;nareik15 &#160;nice. good game">
<ellipse fill="black" stroke="black" cx="20" cy="-219.5" rx="3.5" ry="3.5"/>
</a>
</g>
</g>
<!-- s1_league3_game3_09_stac_1368708090&#45;&gt;s1_league3_game3_09_stac_1368708093 -->
<g id="edge5" class="edge">
<title>s1_league3_game3_09_stac_1368708090&#45;&gt;s1_league3_game3_09_stac_1368708093</title>
<g id="a_edge5"><a xlink:title="Acknowledgement">
<path fill="none" stroke="#12ffff" d="M20,-240.68C20,-237.58 20,-232.47 20,-228.16"/>
<polygon fill="#12ffff" stroke="#12ffff" points="21.75,-228.06 20,-223.06 18.25,-228.06 21.75,-228.06"/>
</a>
</g>
</g>
<!-- s1_league3_game3_09_stac_1368708093&#45;&gt;s1_league3_game3_09_stac_1368708096 -->
<!-- s1_league3_game3_09_stac_1368708099 -->
<g id="node5" class="node">
<title>s1_league3_game3_09_stac_1368708099</title>
<g id="a_node5"><a xlink:title="5 &#160;inca &#160;shall we say wednesday for the one without kieran?">
<ellipse fill="black" stroke="black" cx="30" cy="-169.5" rx="3.5" ry="3.5"/>
</a>
</g>
</g>
<!-- s1_league3_game3_09_stac_1368708096&#45;&gt;s1_league3_game3_09_stac_1368708099 -->
<g id="edge7" class="edge">
<title>s1_league3_game3_09_stac_1368708096&#45;&gt;s1_league3_game3_09_stac_1368708099</title>
<g id="a_edge7"><a xlink:title="Clarification_question">
<path fill="none" stroke="#ff40d1" d="M30,-190.68C30,-187.58 30,-182.47 30,-178.16"/>
<polygon fill="#ff40d1" stroke="#ff40d1" points="31.75,-178.06 30,-173.06 28.25,-178.06 31.75,-178.06"/>
</a>
</g>
</g>
<!-- s1_league3_game3_09_stac_1368708102 -->
<g id="node6" class="node">
<title>s1_league3_game3_09_stac_1368708102</title>
<g id="a_node6"><a xlink:title="6 &#160;Gaeilgeoir &#160;sounds fine to me">
<ellipse fill="black" stroke="black" cx="20" cy="-144.5" rx="3.5" ry="3.5"/>
</a>
</g>
</g>
<!-- s1_league3_game3_09_stac_1368708099&#45;&gt;s1_league3_game3_09_stac_1368708102 -->
<g id="edge8" class="edge">
<title>s1_league3_game3_09_stac_1368708099&#45;&gt;s1_league3_game3_09_stac_1368708102</title>
<g id="a_edge8"><a xlink:title="Question_answer_pair">
<path fill="none" stroke="#12ffff" d="M28.93,-166.04C27.54,-162.84 25.05,-157.12 23.06,-152.53"/>
<polygon fill="#12ffff" stroke="#12ffff" points="24.63,-151.76 21.03,-147.87 21.42,-153.16 24.63,-151.76"/>
</a>
</g>
</g>
<!-- s1_league3_game3_09_stac_1368708105 -->
<g id="node7" class="node">
<title>s1_league3_game3_09_stac_1368708105</title>
<g id="a_node7"><a xlink:title="7 &#160;Gaeilgeoir &#160;time?">
<ellipse fill="black" stroke="black" cx="30" cy="-119.5" rx="3.5" ry="3.5"/>
</a>
</g>
</g>
<!-- s1_league3_game3_09_stac_1368708099&#45;&gt;s1_league3_game3_09_stac_1368708105 -->
<g id="edge9" class="edge">
<title>s1_league3_game3_09_stac_1368708099&#45;&gt;s1_league3_game3_09_stac_1368708105</title>
<g id="a_edge9"><a xlink:title="Q_Elab">
<path fill="none" stroke="#0d20ff" d="M30.59,-165.93C31.65,-161.07 33.67,-150.2 33,-141 32.69,-136.76 32.03,-132.07 31.4,-128.25"/>
<polygon fill="#0d20ff" stroke="#0d20ff" points="33.1,-127.76 30.51,-123.14 29.65,-128.37 33.1,-127.76"/>
</a>
</g>
</g>
<!-- s1_league3_game3_09_stac_1368708102&#45;&gt;s1_league3_game3_09_stac_1368708105 -->
<!-- s1_league3_game3_09_stac_1368708108 -->
<g id="node8" class="node">
<title>s1_league3_game3_09_stac_1368708108</title>
<g id="a_node8"><a xlink:title="8 &#160;inca &#160;cool, any time&#39;s fine for me, 8 again?">
<ellipse fill="black" stroke="black" cx="30" cy="-94.5" rx="3.5" ry="3.5"/>
</a>
</g>
</g>
<!-- s1_league3_game3_09_stac_1368708105&#45;&gt;s1_league3_game3_09_stac_1368708108 -->
<g id="edge10" class="edge">
<title>s1_league3_game3_09_stac_1368708105&#45;&gt;s1_league3_game3_09_stac_1368708108</title>
<g id="a_edge10"><a xlink:title="Q_Elab">
<path fill="none" stroke="#0d20ff" d="M30,-115.68C30,-112.58 30,-107.47 30,-103.16"/>
<polygon fill="#0d20ff" stroke="#0d20ff" points="31.75,-103.06 30,-98.06 28.25,-103.06 31.75,-103.06"/>
</a>
</g>
</g>
<!-- s1_league3_game3_09_stac_1368708111 -->
<g id="node9" class="node">
<title>s1_league3_game3_09_stac_1368708111</title>
<g id="a_node9"><a xlink:title="9 &#160;Gaeilgeoir &#160;yay">
<ellipse fill="black" stroke="black" cx="30" cy="-69.5" rx="3.5" ry="3.5"/>
</a>
</g>
</g>
<!-- s1_league3_game3_09_stac_1368708108&#45;&gt;s1_league3_game3_09_stac_1368708111 -->
<g id="edge11" class="edge">
<title>s1_league3_game3_09_stac_1368708108&#45;&gt;s1_league3_game3_09_stac_1368708111</title>
<g id="a_edge11"><a xlink:title="Question_answer_pair">
<path fill="none" stroke="#12ffff" d="M30,-90.68C30,-87.58 30,-82.47 30,-78.16"/>
<polygon fill="#12ffff" stroke="#12ffff" points="31.75,-78.06 30,-73.06 28.25,-78.06 31.75,-78.06"/>
</a>
</g>
</g>
<!-- s1_league3_game3_09_stac_1368708114 -->
<g id="node10" class="node">
<title>s1_league3_game3_09_stac_1368708114</title>
<g id="a_node10"><a xlink:title="10 &#160;Gaeilgeoir &#160;can&#39;t wait">
<ellipse fill="black" stroke="black" cx="20" cy="-44.5" rx="3.5" ry="3.5"/>
</a>
</g>
</g>
<!-- s1_league3_game3_09_stac_1368708111&#45;&gt;s1_league3_game3_09_stac_1368708114 -->
<g id="edge12" class="edge">
<title>s1_league3_game3_09_stac_1368708111&#45;&gt;s1_league3_game3_09_stac_1368708114</title>
<g id="a_edge12"><a xlink:title="Continuation">
<path fill="none" stroke="#10491b" d="M28.93,-66.04C27.54,-62.84 25.05,-57.12 23.06,-52.53"/>
<polygon fill="#10491b" stroke="#10491b" points="24.63,-51.76 21.03,-47.87 21.42,-53.16 24.63,-51.76"/>
</a>
</g>
</g>
<!-- s1_league3_game3_09_stac_1368708117 -->
<g id="node11" class="node">
<title>s1_league3_game3_09_stac_1368708117</title>
<g id="a_node11"><a xlink:title="11 &#160;inca &#160;cool, see you then!">
<ellipse fill="black" stroke="black" cx="30" cy="-19.5" rx="3.5" ry="3.5"/>
</a>
</g>
</g>
<!-- s1_league3_game3_09_stac_1368708111&#45;&gt;s1_league3_game3_09_stac_1368708117 -->
<g id="edge13" class="edge">
<title>s1_league3_game3_09_stac_1368708111&#45;&gt;s1_league3_game3_09_stac_1368708117</title>
<g id="a_edge13"><a xlink:title="Acknowledgement">
<path fill="none" stroke="#12ffff" d="M30.59,-65.93C31.65,-61.07 33.67,-50.2 33,-41 32.69,-36.76 32.03,-32.07 31.4,-28.25"/>
<polygon fill="#12ffff" stroke="#12ffff" points="33.1,-27.76 30.51,-23.14 29.65,-28.37 33.1,-27.76"/>
</a>
</g>
</g>
<!-- s1_league3_game3_09_stac_1368708114&#45;&gt;s1_league3_game3_09_stac_1368708117 -->
</g>
</svg>
