<?xml version="1.0" encoding="UTF-8" standalone="no"?>
<!DOCTYPE svg PUBLIC "-//W3C//DTD SVG 1.1//EN"
 "http://www.w3.org/Graphics/SVG/1.1/DTD/svg11.dtd">
<!-- Generated by graphviz version 3.0.0 (20220226.1711)
 -->
<!-- Title: 3_pilot02_52 Pages: 1 -->
<svg width="113pt" height="495pt"
 viewBox="0.00 0.00 113.00 495.00" xmlns="http://www.w3.org/2000/svg" xmlns:xlink="http://www.w3.org/1999/xlink">
<g id="graph0" class="graph" transform="scale(1 1) rotate(0) translate(4 491)">
<title>3_pilot02_52</title>
<polygon fill="white" stroke="transparent" points="-4,4 -4,-491 109,-491 109,4 -4,4"/>
<g id="clust1" class="cluster">
<title>cluster_3_pilot02_52</title>
<polygon fill="none" stroke="black" points="8,-8 8,-479 97,-479 97,-8 8,-8"/>
<text text-anchor="middle" x="23" y="-463.8" font-family="Times,serif" font-size="14.00">52</text>
</g>
<!-- pilot02_03_stac_1338547679 -->
<g id="node1" class="node">
<title>pilot02_03_stac_1338547679</title>
<g id="a_node1"><a xlink:title="1 &#160;william &#160;does someone have clay?">
<ellipse fill="black" stroke="black" cx="30" cy="-444.5" rx="3.5" ry="3.5"/>
</a>
</g>
</g>
<!-- 1_0 -->
<!-- pilot02_03_stac_1338547679&#45;&gt;1_0 -->
<!-- pilot02_03_stac_1338557679 -->
<g id="node3" class="node">
<title>pilot02_03_stac_1338557679</title>
<g id="a_node3"><a xlink:title="2 &#160;Thomas &#160;none">
<ellipse fill="black" stroke="black" cx="41" cy="-419.5" rx="3.5" ry="3.5"/>
</a>
</g>
</g>
<!-- pilot02_03_stac_1338547679&#45;&gt;pilot02_03_stac_1338557679 -->
<g id="edge22" class="edge">
<title>pilot02_03_stac_1338547679&#45;&gt;pilot02_03_stac_1338557679</title>
<g id="a_edge22"><a xlink:title="Question_answer_pair">
<path fill="none" stroke="#12ffff" d="M31.18,-441.04C32.71,-437.84 35.44,-432.12 37.64,-427.53"/>
<polygon fill="#12ffff" stroke="#12ffff" points="39.29,-428.14 39.86,-422.87 36.13,-426.63 39.29,-428.14"/>
</a>
</g>
</g>
<!-- pilot02_03_stac_1338567679 -->
<g id="node5" class="node">
<title>pilot02_03_stac_1338567679</title>
<g id="a_node5"><a xlink:title="3 &#160;Cat &#160;yes">
<ellipse fill="black" stroke="black" cx="30" cy="-394.5" rx="3.5" ry="3.5"/>
</a>
</g>
</g>
<!-- pilot02_03_stac_1338547679&#45;&gt;pilot02_03_stac_1338567679 -->
<g id="edge23" class="edge">
<title>pilot02_03_stac_1338547679&#45;&gt;pilot02_03_stac_1338567679</title>
<g id="a_edge23"><a xlink:title="Question_answer_pair">
<path fill="none" stroke="#12ffff" d="M29.8,-440.92C29.45,-436.05 28.78,-425.17 29,-416 29.1,-411.79 29.32,-407.1 29.53,-403.27"/>
<polygon fill="#12ffff" stroke="#12ffff" points="31.29,-403.25 29.83,-398.15 27.79,-403.04 31.29,-403.25"/>
</a>
</g>
</g>
<!-- 2_0 -->
<!-- pilot02_03_stac_1338557679&#45;&gt;2_0 -->
<!-- pilot02_03_stac_1338557679&#45;&gt;pilot02_03_stac_1338567679 -->
<!-- 3_0 -->
<!-- pilot02_03_stac_1338567679&#45;&gt;3_0 -->
<!-- pilot02_03_stac_1338597679 -->
<g id="node7" class="node">
<title>pilot02_03_stac_1338597679</title>
<g id="a_node7"><a xlink:title="4 &#160;william &#160;what do you want for it?">
<ellipse fill="black" stroke="black" cx="30" cy="-369.5" rx="3.5" ry="3.5"/>
</a>
</g>
</g>
<!-- pilot02_03_stac_1338567679&#45;&gt;pilot02_03_stac_1338597679 -->
<g id="edge24" class="edge">
<title>pilot02_03_stac_1338567679&#45;&gt;pilot02_03_stac_1338597679</title>
<g id="a_edge24"><a xlink:title="Q_Elab">
<path fill="none" stroke="#0d20ff" d="M30,-390.68C30,-387.58 30,-382.47 30,-378.16"/>
<polygon fill="#0d20ff" stroke="#0d20ff" points="31.75,-378.06 30,-373.06 28.25,-378.06 31.75,-378.06"/>
</a>
</g>
</g>
<!-- 4_0 -->
<!-- pilot02_03_stac_1338597679&#45;&gt;4_0 -->
<!-- pilot02_03_stac_1338607679 -->
<g id="node9" class="node">
<title>pilot02_03_stac_1338607679</title>
<g id="a_node9"><a xlink:title="5 &#160;Cat &#160;hmm, not sure...">
<ellipse fill="black" stroke="black" cx="41" cy="-344.5" rx="3.5" ry="3.5"/>
</a>
</g>
</g>
<!-- pilot02_03_stac_1338597679&#45;&gt;pilot02_03_stac_1338607679 -->
<g id="edge25" class="edge">
<title>pilot02_03_stac_1338597679&#45;&gt;pilot02_03_stac_1338607679</title>
<g id="a_edge25"><a xlink:title="Question_answer_pair">
<path fill="none" stroke="#12ffff" d="M31.18,-366.04C32.71,-362.84 35.44,-357.12 37.64,-352.53"/>
<polygon fill="#12ffff" stroke="#12ffff" points="39.29,-353.14 39.86,-347.87 36.13,-351.63 39.29,-353.14"/>
</a>
</g>
</g>
<!-- pilot02_03_stac_1338617679 -->
<g id="node31" class="node">
<title>pilot02_03_stac_1338617679</title>
<g id="a_node31"><a xlink:title="6 &#160;Cat &#160;I&#39;d like wood, ">
<ellipse fill="black" stroke="black" cx="30" cy="-319.5" rx="3.5" ry="3.5"/>
</a>
</g>
</g>
<!-- pilot02_03_stac_1338597679&#45;&gt;pilot02_03_stac_1338617679 -->
<g id="edge26" class="edge">
<title>pilot02_03_stac_1338597679&#45;&gt;pilot02_03_stac_1338617679</title>
<g id="a_edge26"><a xlink:title="Question_answer_pair">
<path fill="none" stroke="#12ffff" d="M29.83,-365.85C29.59,-361.94 29.16,-354.41 29,-348 28.84,-341.27 29.16,-333.61 29.48,-328.09"/>
<polygon fill="#12ffff" stroke="#12ffff" points="31.22,-328.18 29.8,-323.08 27.73,-327.95 31.22,-328.18"/>
</a>
</g>
</g>
<!-- 5_0 -->
<!-- pilot02_03_stac_1338607679&#45;&gt;5_0 -->
<!-- pilot02_03_stac_1338607679&#45;&gt;pilot02_03_stac_1338617679 -->
<!-- pilot02_03_stac_1338627679 -->
<g id="node11" class="node">
<title>pilot02_03_stac_1338627679</title>
<g id="a_node11"><a xlink:title="7 &#160;william &#160;i can give you wood!">
<ellipse fill="black" stroke="black" cx="30" cy="-294.5" rx="3.5" ry="3.5"/>
</a>
</g>
</g>
<!-- 7_0 -->
<!-- pilot02_03_stac_1338627679&#45;&gt;7_0 -->
<!-- pilot02_03_stac_1338637679 -->
<g id="node13" class="node">
<title>pilot02_03_stac_1338637679</title>
<g id="a_node13"><a xlink:title="8 &#160;Cat &#160;I can echange ore for wood though">
<ellipse fill="black" stroke="black" cx="30" cy="-269.5" rx="3.5" ry="3.5"/>
</a>
</g>
</g>
<!-- pilot02_03_stac_1338627679&#45;&gt;pilot02_03_stac_1338637679 -->
<g id="edge29" class="edge">
<title>pilot02_03_stac_1338627679&#45;&gt;pilot02_03_stac_1338637679</title>
<g id="a_edge29"><a xlink:title="Correction">
<path fill="none" stroke="#ff174e" d="M30,-290.68C30,-287.58 30,-282.47 30,-278.16"/>
<polygon fill="#ff174e" stroke="#ff174e" points="31.75,-278.06 30,-273.06 28.25,-278.06 31.75,-278.06"/>
</a>
</g>
</g>
<!-- 8_0 -->
<!-- pilot02_03_stac_1338637679&#45;&gt;8_0 -->
<!-- pilot02_03_stac_1338647679 -->
<g id="node15" class="node">
<title>pilot02_03_stac_1338647679</title>
<g id="a_node15"><a xlink:title="9 &#160;william &#160;give or want ore?">
<ellipse fill="black" stroke="black" cx="20" cy="-244.5" rx="3.5" ry="3.5"/>
</a>
</g>
</g>
<!-- pilot02_03_stac_1338637679&#45;&gt;pilot02_03_stac_1338647679 -->
<g id="edge30" class="edge">
<title>pilot02_03_stac_1338637679&#45;&gt;pilot02_03_stac_1338647679</title>
<g id="a_edge30"><a xlink:title="Clarification_question">
<path fill="none" stroke="#ff40d1" d="M28.93,-266.04C27.54,-262.84 25.05,-257.12 23.06,-252.53"/>
<polygon fill="#ff40d1" stroke="#ff40d1" points="24.63,-251.76 21.03,-247.87 21.42,-253.16 24.63,-251.76"/>
</a>
</g>
</g>
<!-- pilot02_03_stac_1338667679 -->
<g id="node19" class="node">
<title>pilot02_03_stac_1338667679</title>
<g id="a_node19"><a xlink:title="11 &#160;william &#160;i&#39;m in">
<ellipse fill="black" stroke="black" cx="50" cy="-194.5" rx="3.5" ry="3.5"/>
</a>
</g>
</g>
<!-- pilot02_03_stac_1338637679&#45;&gt;pilot02_03_stac_1338667679 -->
<g id="edge32" class="edge">
<title>pilot02_03_stac_1338637679&#45;&gt;pilot02_03_stac_1338667679</title>
<g id="a_edge32"><a xlink:title="Acknowledgement">
<path fill="none" stroke="#12ffff" d="M33.01,-267.39C39.08,-264.95 52.66,-258.53 58,-248 65.53,-233.16 58.46,-213.14 53.64,-202.63"/>
<polygon fill="#12ffff" stroke="#12ffff" points="55.18,-201.8 51.41,-198.07 52.04,-203.34 55.18,-201.8"/>
</a>
</g>
</g>
<!-- 9_0 -->
<!-- pilot02_03_stac_1338647679&#45;&gt;9_0 -->
<!-- pilot02_03_stac_1338657679 -->
<g id="node17" class="node">
<title>pilot02_03_stac_1338657679</title>
<g id="a_node17"><a xlink:title="10 &#160;Cat &#160;give ore, receive wood">
<ellipse fill="black" stroke="black" cx="20" cy="-219.5" rx="3.5" ry="3.5"/>
</a>
</g>
</g>
<!-- pilot02_03_stac_1338647679&#45;&gt;pilot02_03_stac_1338657679 -->
<g id="edge31" class="edge">
<title>pilot02_03_stac_1338647679&#45;&gt;pilot02_03_stac_1338657679</title>
<g id="a_edge31"><a xlink:title="Question_answer_pair">
<path fill="none" stroke="#12ffff" d="M20,-240.68C20,-237.58 20,-232.47 20,-228.16"/>
<polygon fill="#12ffff" stroke="#12ffff" points="21.75,-228.06 20,-223.06 18.25,-228.06 21.75,-228.06"/>
</a>
</g>
</g>
<!-- 10_0 -->
<!-- pilot02_03_stac_1338657679&#45;&gt;10_0 -->
<!-- pilot02_03_stac_1338657679&#45;&gt;pilot02_03_stac_1338667679 -->
<g id="edge33" class="edge">
<title>pilot02_03_stac_1338657679&#45;&gt;pilot02_03_stac_1338667679</title>
<g id="a_edge33"><a xlink:title="Acknowledgement">
<path fill="none" stroke="#12ffff" d="M22.35,-216.7C26.84,-213.25 36.78,-205.64 43.43,-200.53"/>
<polygon fill="#12ffff" stroke="#12ffff" points="44.84,-201.66 47.74,-197.23 42.71,-198.89 44.84,-201.66"/>
</a>
</g>
</g>
<!-- pilot02_03_stac_1338737679 -->
<g id="node25" class="node">
<title>pilot02_03_stac_1338737679</title>
<g id="a_node25"><a xlink:title="15 &#160;Cat &#160;if you can give me wood">
<ellipse fill="black" stroke="black" cx="29" cy="-94.5" rx="3.5" ry="3.5"/>
</a>
</g>
</g>
<!-- pilot02_03_stac_1338657679&#45;&gt;pilot02_03_stac_1338737679 -->
<g id="edge38" class="edge">
<title>pilot02_03_stac_1338657679&#45;&gt;pilot02_03_stac_1338737679</title>
<g id="a_edge38"><a xlink:title="Elaboration">
<path fill="none" stroke="#a621c7" d="M19.72,-215.9C18.98,-208.7 17,-187.87 17,-170.5 17,-170.5 17,-170.5 17,-143.5 17,-128.7 22.43,-112.09 25.99,-102.8"/>
<polygon fill="#a621c7" stroke="#a621c7" points="27.66,-103.34 27.89,-98.05 24.41,-102.04 27.66,-103.34"/>
</a>
</g>
</g>
<!-- 11_0 -->
<!-- pilot02_03_stac_1338667679&#45;&gt;11_0 -->
<!-- pilot02_03_stac_1338677679 -->
<g id="node21" class="node">
<title>pilot02_03_stac_1338677679</title>
<g id="a_node21"><a xlink:title="12 &#160;Cat &#160;great">
<ellipse fill="black" stroke="black" cx="60" cy="-169.5" rx="3.5" ry="3.5"/>
</a>
</g>
</g>
<!-- pilot02_03_stac_1338667679&#45;&gt;pilot02_03_stac_1338677679 -->
<g id="edge34" class="edge">
<title>pilot02_03_stac_1338667679&#45;&gt;pilot02_03_stac_1338677679</title>
<g id="a_edge34"><a xlink:title="Acknowledgement">
<path fill="none" stroke="#12ffff" d="M51.07,-191.04C52.46,-187.84 54.95,-182.12 56.94,-177.53"/>
<polygon fill="#12ffff" stroke="#12ffff" points="58.58,-178.16 58.97,-172.87 55.37,-176.76 58.58,-178.16"/>
</a>
</g>
</g>
<!-- pilot02_03_stac_1338697679 -->
<g id="node33" class="node">
<title>pilot02_03_stac_1338697679</title>
<g id="a_node33"><a xlink:title="13 &#160;william &#160;oh, sorry. ">
<ellipse fill="black" stroke="black" cx="40" cy="-144.5" rx="3.5" ry="3.5"/>
</a>
</g>
</g>
<!-- pilot02_03_stac_1338667679&#45;&gt;pilot02_03_stac_1338697679 -->
<g id="edge35" class="edge">
<title>pilot02_03_stac_1338667679&#45;&gt;pilot02_03_stac_1338697679</title>
<g id="a_edge35"><a xlink:title="Correction">
<path fill="none" stroke="#ff174e" d="M49.46,-190.92C48.01,-183.95 43.97,-164.55 41.66,-153.49"/>
<polygon fill="#ff174e" stroke="#ff174e" points="43.32,-152.87 40.59,-148.33 39.9,-153.58 43.32,-152.87"/>
</a>
</g>
</g>
<!-- 12_0 -->
<!-- pilot02_03_stac_1338677679&#45;&gt;12_0 -->
<!-- pilot02_03_stac_1338677679&#45;&gt;pilot02_03_stac_1338697679 -->
<!-- pilot02_03_stac_1338717679 -->
<g id="node23" class="node">
<title>pilot02_03_stac_1338717679</title>
<g id="a_node23"><a xlink:title="14 &#160;william &#160;? i &#160;am confused">
<ellipse fill="black" stroke="black" cx="41" cy="-119.5" rx="3.5" ry="3.5"/>
</a>
</g>
</g>
<!-- 14_0 -->
<!-- pilot02_03_stac_1338717679&#45;&gt;14_0 -->
<!-- pilot02_03_stac_1338717679&#45;&gt;pilot02_03_stac_1338737679 -->
<!-- pilot02_03_stac_1338747680 -->
<g id="node36" class="node">
<title>pilot02_03_stac_1338747680</title>
<g id="a_node36"><a xlink:title="16 &#160;william &#160;i just got the speech bubble message wrong...">
<ellipse fill="black" stroke="black" cx="66" cy="-69.5" rx="3.5" ry="3.5"/>
</a>
</g>
</g>
<!-- pilot02_03_stac_1338717679&#45;&gt;pilot02_03_stac_1338747680 -->
<g id="edge40" class="edge">
<title>pilot02_03_stac_1338717679&#45;&gt;pilot02_03_stac_1338747680</title>
<g id="a_edge40"><a xlink:title="Explanation">
<path fill="none" stroke="#a62139" d="M42.21,-116.18C45.83,-109.23 56.71,-88.34 62.42,-77.38"/>
<polygon fill="#a62139" stroke="#a62139" points="63.99,-78.15 64.75,-72.9 60.89,-76.53 63.99,-78.15"/>
</a>
</g>
</g>
<!-- 15_0 -->
<!-- pilot02_03_stac_1338737679&#45;&gt;15_0 -->
<!-- pilot02_03_stac_1338757679 -->
<g id="node27" class="node">
<title>pilot02_03_stac_1338757679</title>
<g id="a_node27"><a xlink:title="17 &#160;william &#160;done">
<ellipse fill="black" stroke="black" cx="31" cy="-44.5" rx="3.5" ry="3.5"/>
</a>
</g>
</g>
<!-- pilot02_03_stac_1338737679&#45;&gt;pilot02_03_stac_1338757679 -->
<g id="edge42" class="edge">
<title>pilot02_03_stac_1338737679&#45;&gt;pilot02_03_stac_1338757679</title>
<g id="a_edge42"><a xlink:title="Acknowledgement">
<path fill="none" stroke="#12ffff" d="M29.68,-90.87C30.65,-86.99 32.37,-79.5 33,-73 33.65,-66.28 32.98,-58.62 32.24,-53.1"/>
<polygon fill="#12ffff" stroke="#12ffff" points="33.96,-52.76 31.48,-48.08 30.5,-53.29 33.96,-52.76"/>
</a>
</g>
</g>
<!-- pilot02_03_stac_1338747679 -->
<g id="node35" class="node">
<title>pilot02_03_stac_1338747679</title>
<g id="a_node35"><a xlink:title="16 &#160;william &#160;ok. ">
<ellipse fill="black" stroke="black" cx="20" cy="-69.5" rx="3.5" ry="3.5"/>
</a>
</g>
</g>
<!-- pilot02_03_stac_1338737679&#45;&gt;pilot02_03_stac_1338747679 -->
<g id="edge39" class="edge">
<title>pilot02_03_stac_1338737679&#45;&gt;pilot02_03_stac_1338747679</title>
<g id="a_edge39"><a xlink:title="Acknowledgement">
<path fill="none" stroke="#12ffff" d="M28.04,-91.04C26.81,-87.91 24.64,-82.37 22.87,-77.83"/>
<polygon fill="#12ffff" stroke="#12ffff" points="24.38,-76.89 20.93,-72.87 21.12,-78.17 24.38,-76.89"/>
</a>
</g>
</g>
<!-- 17_0 -->
<!-- pilot02_03_stac_1338757679&#45;&gt;17_0 -->
<!-- pilot02_03_stac_1338767679 -->
<g id="node29" class="node">
<title>pilot02_03_stac_1338767679</title>
<g id="a_node29"><a xlink:title="18 &#160;Cat &#160;thanks">
<ellipse fill="black" stroke="black" cx="31" cy="-19.5" rx="3.5" ry="3.5"/>
</a>
</g>
</g>
<!-- pilot02_03_stac_1338757679&#45;&gt;pilot02_03_stac_1338767679 -->
<g id="edge43" class="edge">
<title>pilot02_03_stac_1338757679&#45;&gt;pilot02_03_stac_1338767679</title>
<g id="a_edge43"><a xlink:title="Acknowledgement">
<path fill="none" stroke="#12ffff" d="M31,-40.68C31,-37.58 31,-32.47 31,-28.16"/>
<polygon fill="#12ffff" stroke="#12ffff" points="32.75,-28.06 31,-23.06 29.25,-28.06 32.75,-28.06"/>
</a>
</g>
</g>
<!-- 18_0 -->
<!-- pilot02_03_stac_1338767679&#45;&gt;18_0 -->
<!-- pilot02_03_stac_1338617679&#45;&gt;pilot02_03_stac_1338627679 -->
<g id="edge28" class="edge">
<title>pilot02_03_stac_1338617679&#45;&gt;pilot02_03_stac_1338627679</title>
<g id="a_edge28"><a xlink:title="Question_answer_pair">
<path fill="none" stroke="#12ffff" d="M30,-315.68C30,-312.58 30,-307.47 30,-303.16"/>
<polygon fill="#12ffff" stroke="#12ffff" points="31.75,-303.06 30,-298.06 28.25,-303.06 31.75,-303.06"/>
</a>
</g>
</g>
<!-- pilot02_03_stac_1338617680 -->
<g id="node32" class="node">
<title>pilot02_03_stac_1338617680</title>
<g id="a_node32"><a xlink:title="6 &#160;Cat &#160;but I need clay too">
<ellipse fill="black" stroke="black" cx="55" cy="-319.5" rx="3.5" ry="3.5"/>
</a>
</g>
</g>
<!-- pilot02_03_stac_1338617679&#45;&gt;pilot02_03_stac_1338617680 -->
<g id="edge27" class="edge">
<title>pilot02_03_stac_1338617679&#45;&gt;pilot02_03_stac_1338617680</title>
<g id="a_edge27"><a xlink:title="Contrast">
<path fill="none" stroke="#ff7ecf" d="M33.52,-319.5C37.78,-319.5 42.04,-319.5 46.3,-319.5"/>
<polygon fill="#ff7ecf" stroke="#ff7ecf" points="46.31,-321.25 51.31,-319.5 46.31,-317.75 46.31,-321.25"/>
</a>
</g>
</g>
<!-- pilot02_03_stac_1338697679&#45;&gt;pilot02_03_stac_1338717679 -->
<!-- pilot02_03_stac_1338697680 -->
<g id="node34" class="node">
<title>pilot02_03_stac_1338697680</title>
<g id="a_node34"><a xlink:title="13 &#160;william &#160;i thought you were talking about yourself when you said give ore">
<ellipse fill="black" stroke="black" cx="65" cy="-144.5" rx="3.5" ry="3.5"/>
</a>
</g>
</g>
<!-- pilot02_03_stac_1338697679&#45;&gt;pilot02_03_stac_1338697680 -->
<g id="edge36" class="edge">
<title>pilot02_03_stac_1338697679&#45;&gt;pilot02_03_stac_1338697680</title>
<g id="a_edge36"><a xlink:title="Explanation">
<path fill="none" stroke="#a62139" d="M43.52,-144.5C47.78,-144.5 52.04,-144.5 56.3,-144.5"/>
<polygon fill="#a62139" stroke="#a62139" points="56.31,-146.25 61.31,-144.5 56.31,-142.75 56.31,-146.25"/>
</a>
</g>
</g>
<!-- pilot02_03_stac_1338697680&#45;&gt;pilot02_03_stac_1338717679 -->
<g id="edge37" class="edge">
<title>pilot02_03_stac_1338697680&#45;&gt;pilot02_03_stac_1338717679</title>
<g id="a_edge37"><a xlink:title="Elaboration">
<path fill="none" stroke="#a621c7" d="M62.79,-141.38C59.16,-137.9 51.84,-130.89 46.69,-125.96"/>
<polygon fill="#a621c7" stroke="#a621c7" points="47.83,-124.62 43,-122.42 45.4,-127.14 47.83,-124.62"/>
</a>
</g>
</g>
<!-- pilot02_03_stac_1338747679&#45;&gt;pilot02_03_stac_1338757679 -->
<!-- pilot02_03_stac_1338747679&#45;&gt;pilot02_03_stac_1338747680 -->
<g id="edge41" class="edge">
<title>pilot02_03_stac_1338747679&#45;&gt;pilot02_03_stac_1338747680</title>
<g id="a_edge41"><a xlink:title="Explanation">
<path fill="none" stroke="#a62139" d="M23.59,-69.5C34.8,-69.5 46,-69.5 57.21,-69.5"/>
<polygon fill="#a62139" stroke="#a62139" points="57.36,-71.25 62.36,-69.5 57.36,-67.75 57.36,-71.25"/>
</a>
</g>
</g>
</g>
</svg>
