<?xml version="1.0" encoding="UTF-8" standalone="no"?>
<!DOCTYPE svg PUBLIC "-//W3C//DTD SVG 1.1//EN"
 "http://www.w3.org/Graphics/SVG/1.1/DTD/svg11.dtd">
<!-- Generated by graphviz version 3.0.0 (20220226.1711)
 -->
<!-- Title: 4_pilot02_54 Pages: 1 -->
<svg width="108pt" height="195pt"
 viewBox="0.00 0.00 108.00 195.00" xmlns="http://www.w3.org/2000/svg" xmlns:xlink="http://www.w3.org/1999/xlink">
<g id="graph0" class="graph" transform="scale(1 1) rotate(0) translate(4 191)">
<title>4_pilot02_54</title>
<polygon fill="white" stroke="transparent" points="-4,4 -4,-191 104,-191 104,4 -4,4"/>
<g id="clust1" class="cluster">
<title>cluster_4_pilot02_54</title>
<polygon fill="none" stroke="black" points="8,-8 8,-179 92,-179 92,-8 8,-8"/>
<text text-anchor="middle" x="23" y="-163.8" font-family="Times,serif" font-size="14.00">54</text>
</g>
<!-- pilot02_04_stac_1338497682 -->
<g id="node1" class="node">
<title>pilot02_04_stac_1338497682</title>
<g id="a_node1"><a xlink:title="1 &#160;william &#160;i&#39;ve got too much wheat!">
<ellipse fill="black" stroke="black" cx="53" cy="-144.5" rx="3.5" ry="3.5"/>
</a>
</g>
</g>
<!-- pilot02_04_stac_1338507682 -->
<g id="node2" class="node">
<title>pilot02_04_stac_1338507682</title>
<g id="a_node2"><a xlink:title="2 &#160;Thomas &#160;sheep again anyone?">
<ellipse fill="black" stroke="black" cx="53" cy="-119.5" rx="3.5" ry="3.5"/>
</a>
</g>
</g>
<!-- pilot02_04_stac_1338497682&#45;&gt;pilot02_04_stac_1338507682 -->
<g id="edge2" class="edge">
<title>pilot02_04_stac_1338497682&#45;&gt;pilot02_04_stac_1338507682</title>
<g id="a_edge2"><a xlink:title="Continuation">
<path fill="none" stroke="#10491b" d="M53,-140.68C53,-137.58 53,-132.47 53,-128.16"/>
<polygon fill="#10491b" stroke="#10491b" points="54.75,-128.06 53,-123.06 51.25,-128.06 54.75,-128.06"/>
</a>
</g>
</g>
<!-- pilot02_04_stac_1338517682 -->
<g id="node3" class="node">
<title>pilot02_04_stac_1338517682</title>
<g id="a_node3"><a xlink:title="3 &#160;Thomas &#160;or clay">
<ellipse fill="black" stroke="black" cx="20" cy="-94.5" rx="3.5" ry="3.5"/>
</a>
</g>
</g>
<!-- pilot02_04_stac_1338507682&#45;&gt;pilot02_04_stac_1338517682 -->
<g id="edge3" class="edge">
<title>pilot02_04_stac_1338507682&#45;&gt;pilot02_04_stac_1338517682</title>
<g id="a_edge3"><a xlink:title="Alternation">
<path fill="none" stroke="#10495e" d="M50.41,-116.7C45.37,-113.18 34.11,-105.33 26.8,-100.24"/>
<polygon fill="#10495e" stroke="#10495e" points="27.59,-98.66 22.49,-97.23 25.59,-101.53 27.59,-98.66"/>
</a>
</g>
</g>
<!-- pilot02_04_stac_1338527682 -->
<g id="node4" class="node">
<title>pilot02_04_stac_1338527682</title>
<g id="a_node4"><a xlink:title="4 &#160;william &#160;no">
<ellipse fill="black" stroke="black" cx="40" cy="-69.5" rx="3.5" ry="3.5"/>
</a>
</g>
</g>
<!-- pilot02_04_stac_1338507682&#45;&gt;pilot02_04_stac_1338527682 -->
<g id="edge4" class="edge">
<title>pilot02_04_stac_1338507682&#45;&gt;pilot02_04_stac_1338527682</title>
<g id="a_edge4"><a xlink:title="Question_answer_pair">
<path fill="none" stroke="#12ffff" d="M52.3,-115.92C50.4,-108.89 45.06,-89.19 42.08,-78.18"/>
<polygon fill="#12ffff" stroke="#12ffff" points="43.76,-77.7 40.77,-73.33 40.39,-78.62 43.76,-77.7"/>
</a>
</g>
</g>
<!-- pilot02_04_stac_1338537682 -->
<g id="node5" class="node">
<title>pilot02_04_stac_1338537682</title>
<g id="a_node5"><a xlink:title="5 &#160;william &#160;n">
<ellipse fill="black" stroke="black" cx="60" cy="-44.5" rx="3.5" ry="3.5"/>
</a>
</g>
</g>
<!-- pilot02_04_stac_1338507682&#45;&gt;pilot02_04_stac_1338537682 -->
<g id="edge5" class="edge">
<title>pilot02_04_stac_1338507682&#45;&gt;pilot02_04_stac_1338537682</title>
<g id="a_edge5"><a xlink:title="Question_answer_pair">
<path fill="none" stroke="#12ffff" d="M53.27,-115.73C54.24,-105.52 57.67,-69.78 59.22,-53.59"/>
<polygon fill="#12ffff" stroke="#12ffff" points="61,-53.42 59.73,-48.28 57.51,-53.09 61,-53.42"/>
</a>
</g>
</g>
<!-- pilot02_04_stac_1338547682 -->
<g id="node6" class="node">
<title>pilot02_04_stac_1338547682</title>
<g id="a_node6"><a xlink:title="6 &#160;Cat &#160;no">
<ellipse fill="black" stroke="black" cx="70" cy="-19.5" rx="3.5" ry="3.5"/>
</a>
</g>
</g>
<!-- pilot02_04_stac_1338507682&#45;&gt;pilot02_04_stac_1338547682 -->
<g id="edge7" class="edge">
<title>pilot02_04_stac_1338507682&#45;&gt;pilot02_04_stac_1338547682</title>
<g id="a_edge7"><a xlink:title="Question_answer_pair">
<path fill="none" stroke="#12ffff" d="M54.06,-115.87C57.67,-106.71 69.51,-75.26 73,-48 73.86,-41.28 72.86,-33.62 71.79,-28.1"/>
<polygon fill="#12ffff" stroke="#12ffff" points="73.47,-27.59 70.69,-23.08 70.05,-28.34 73.47,-27.59"/>
</a>
</g>
</g>
<!-- pilot02_04_stac_1338517682&#45;&gt;pilot02_04_stac_1338527682 -->
<!-- pilot02_04_stac_1338527682&#45;&gt;pilot02_04_stac_1338537682 -->
<g id="edge6" class="edge">
<title>pilot02_04_stac_1338527682&#45;&gt;pilot02_04_stac_1338537682</title>
<g id="a_edge6"><a xlink:title="Parallel">
<path fill="none" stroke="#0ab046" d="M41.85,-66.38C44.69,-63.11 50.25,-56.71 54.48,-51.85"/>
<polygon fill="#0ab046" stroke="#0ab046" points="55.9,-52.88 57.86,-47.96 53.26,-50.59 55.9,-52.88"/>
</a>
</g>
</g>
<!-- pilot02_04_stac_1338537682&#45;&gt;pilot02_04_stac_1338547682 -->
<g id="edge8" class="edge">
<title>pilot02_04_stac_1338537682&#45;&gt;pilot02_04_stac_1338547682</title>
<g id="a_edge8"><a xlink:title="Parallel">
<path fill="none" stroke="#0ab046" d="M61.07,-41.04C62.46,-37.84 64.95,-32.12 66.94,-27.53"/>
<polygon fill="#0ab046" stroke="#0ab046" points="68.58,-28.16 68.97,-22.87 65.37,-26.76 68.58,-28.16"/>
</a>
</g>
</g>
</g>
</svg>
