<?xml version="1.0" encoding="UTF-8" standalone="no"?>
<!DOCTYPE svg PUBLIC "-//W3C//DTD SVG 1.1//EN"
 "http://www.w3.org/Graphics/SVG/1.1/DTD/svg11.dtd">
<!-- Generated by graphviz version 3.0.0 (20220226.1711)
 -->
<!-- Title: 5_pilot02_57 Pages: 1 -->
<svg width="93pt" height="170pt"
 viewBox="0.00 0.00 93.00 170.00" xmlns="http://www.w3.org/2000/svg" xmlns:xlink="http://www.w3.org/1999/xlink">
<g id="graph0" class="graph" transform="scale(1 1) rotate(0) translate(4 166)">
<title>5_pilot02_57</title>
<polygon fill="white" stroke="transparent" points="-4,4 -4,-166 89,-166 89,4 -4,4"/>
<g id="clust1" class="cluster">
<title>cluster_5_pilot02_57</title>
<polygon fill="none" stroke="black" points="8,-8 8,-154 77,-154 77,-8 8,-8"/>
<text text-anchor="middle" x="23" y="-138.8" font-family="Times,serif" font-size="14.00">57</text>
</g>
<!-- pilot02_05_stac_1338647685 -->
<g id="node1" class="node">
<title>pilot02_05_stac_1338647685</title>
<g id="a_node1"><a xlink:title="2 &#160;Thomas &#160;n">
<ellipse fill="black" stroke="black" cx="20" cy="-94.5" rx="3.5" ry="3.5"/>
</a>
</g>
</g>
<!-- 2_0 -->
<!-- pilot02_05_stac_1338647685&#45;&gt;2_0 -->
<!-- pilot02_05_stac_1338657685 -->
<g id="node3" class="node">
<title>pilot02_05_stac_1338657685</title>
<g id="a_node3"><a xlink:title="3 &#160;Cat &#160;I can give you a wheat">
<ellipse fill="black" stroke="black" cx="30" cy="-69.5" rx="3.5" ry="3.5"/>
</a>
</g>
</g>
<!-- pilot02_05_stac_1338647685&#45;&gt;pilot02_05_stac_1338657685 -->
<!-- 3_0 -->
<!-- pilot02_05_stac_1338657685&#45;&gt;3_0 -->
<!-- pilot02_05_stac_1338667685 -->
<g id="node5" class="node">
<title>pilot02_05_stac_1338667685</title>
<g id="a_node5"><a xlink:title="4 &#160;william &#160;good">
<ellipse fill="black" stroke="black" cx="30" cy="-44.5" rx="3.5" ry="3.5"/>
</a>
</g>
</g>
<!-- pilot02_05_stac_1338657685&#45;&gt;pilot02_05_stac_1338667685 -->
<g id="edge9" class="edge">
<title>pilot02_05_stac_1338657685&#45;&gt;pilot02_05_stac_1338667685</title>
<g id="a_edge9"><a xlink:title="Acknowledgement">
<path fill="none" stroke="#12ffff" d="M30,-65.68C30,-62.58 30,-57.47 30,-53.16"/>
<polygon fill="#12ffff" stroke="#12ffff" points="31.75,-53.06 30,-48.06 28.25,-53.06 31.75,-53.06"/>
</a>
</g>
</g>
<!-- 4_0 -->
<!-- pilot02_05_stac_1338667685&#45;&gt;4_0 -->
<!-- pilot02_05_stac_1338697685 -->
<g id="node7" class="node">
<title>pilot02_05_stac_1338697685</title>
<g id="a_node7"><a xlink:title="5 &#160;Cat &#160;thx">
<ellipse fill="black" stroke="black" cx="30" cy="-19.5" rx="3.5" ry="3.5"/>
</a>
</g>
</g>
<!-- pilot02_05_stac_1338667685&#45;&gt;pilot02_05_stac_1338697685 -->
<g id="edge10" class="edge">
<title>pilot02_05_stac_1338667685&#45;&gt;pilot02_05_stac_1338697685</title>
<g id="a_edge10"><a xlink:title="Acknowledgement">
<path fill="none" stroke="#12ffff" d="M30,-40.68C30,-37.58 30,-32.47 30,-28.16"/>
<polygon fill="#12ffff" stroke="#12ffff" points="31.75,-28.06 30,-23.06 28.25,-28.06 31.75,-28.06"/>
</a>
</g>
</g>
<!-- 5_0 -->
<!-- pilot02_05_stac_1338697685&#45;&gt;5_0 -->
<!-- pilot02_05_stac_1338637685 -->
<g id="node9" class="node">
<title>pilot02_05_stac_1338637685</title>
<g id="a_node9"><a xlink:title="1 &#160;william &#160;can i get a sheep or a wheat? ">
<ellipse fill="black" stroke="black" cx="30" cy="-119.5" rx="3.5" ry="3.5"/>
</a>
</g>
</g>
<!-- pilot02_05_stac_1338637685&#45;&gt;pilot02_05_stac_1338647685 -->
<g id="edge7" class="edge">
<title>pilot02_05_stac_1338637685&#45;&gt;pilot02_05_stac_1338647685</title>
<g id="a_edge7"><a xlink:title="Question_answer_pair">
<path fill="none" stroke="#12ffff" d="M28.93,-116.04C27.54,-112.84 25.05,-107.12 23.06,-102.53"/>
<polygon fill="#12ffff" stroke="#12ffff" points="24.63,-101.76 21.03,-97.87 21.42,-103.16 24.63,-101.76"/>
</a>
</g>
</g>
<!-- pilot02_05_stac_1338637685&#45;&gt;pilot02_05_stac_1338657685 -->
<g id="edge8" class="edge">
<title>pilot02_05_stac_1338637685&#45;&gt;pilot02_05_stac_1338657685</title>
<g id="a_edge8"><a xlink:title="Question_answer_pair">
<path fill="none" stroke="#12ffff" d="M33.01,-117.39C39.08,-114.95 52.66,-108.53 58,-98 63.46,-87.24 47.96,-78.2 37.89,-73.66"/>
<polygon fill="#12ffff" stroke="#12ffff" points="38.55,-72.04 33.26,-71.7 37.19,-75.26 38.55,-72.04"/>
</a>
</g>
</g>
<!-- pilot02_05_stac_1338637686 -->
<g id="node10" class="node">
<title>pilot02_05_stac_1338637686</title>
<g id="a_node10"><a xlink:title="1 &#160;william &#160;i have too much wood">
<ellipse fill="black" stroke="black" cx="55" cy="-119.5" rx="3.5" ry="3.5"/>
</a>
</g>
</g>
<!-- pilot02_05_stac_1338637685&#45;&gt;pilot02_05_stac_1338637686 -->
<g id="edge6" class="edge">
<title>pilot02_05_stac_1338637685&#45;&gt;pilot02_05_stac_1338637686</title>
<g id="a_edge6"><a xlink:title="Elaboration">
<path fill="none" stroke="#a621c7" d="M33.52,-119.5C37.78,-119.5 42.04,-119.5 46.3,-119.5"/>
<polygon fill="#a621c7" stroke="#a621c7" points="46.31,-121.25 51.31,-119.5 46.31,-117.75 46.31,-121.25"/>
</a>
</g>
</g>
</g>
</svg>
