<?xml version="1.0" encoding="UTF-8" standalone="no"?>
<!DOCTYPE svg PUBLIC "-//W3C//DTD SVG 1.1//EN"
 "http://www.w3.org/Graphics/SVG/1.1/DTD/svg11.dtd">
<!-- Generated by graphviz version 3.0.0 (20220226.1711)
 -->
<!-- Title: 6_pilot02_59 Pages: 1 -->
<svg width="158pt" height="672pt"
 viewBox="0.00 0.00 158.00 672.19" xmlns="http://www.w3.org/2000/svg" xmlns:xlink="http://www.w3.org/1999/xlink">
<g id="graph0" class="graph" transform="scale(1 1) rotate(0) translate(4 668.19)">
<title>6_pilot02_59</title>
<polygon fill="white" stroke="transparent" points="-4,4 -4,-668.19 154,-668.19 154,4 -4,4"/>
<g id="clust1" class="cluster">
<title>cluster_6_pilot02_59</title>
<polygon fill="none" stroke="black" points="8,-8 8,-654 142,-654 142,-8 8,-8"/>
<text text-anchor="middle" x="23" y="-638.8" font-family="Times,serif" font-size="14.00">59</text>
</g>
<!-- pilot02_06_stac_1338597688 -->
<g id="node1" class="node">
<title>pilot02_06_stac_1338597688</title>
<g id="a_node1"><a xlink:title="1 &#160;Cat &#160;where do i see what i rolled?">
<ellipse fill="black" stroke="black" cx="38" cy="-619.5" rx="3.5" ry="3.5"/>
</a>
</g>
</g>
<!-- 1_0 -->
<!-- pilot02_06_stac_1338597688&#45;&gt;1_0 -->
<!-- 1_1 -->
<!-- pilot02_06_stac_1338597688&#45;&gt;1_1 -->
<!-- pilot02_06_stac_1338607688 -->
<g id="node4" class="node">
<title>pilot02_06_stac_1338607688</title>
<g id="a_node4"><a xlink:title="2 &#160;william &#160;on the arrow">
<ellipse fill="black" stroke="black" cx="38" cy="-594.5" rx="3.5" ry="3.5"/>
</a>
</g>
</g>
<!-- pilot02_06_stac_1338597688&#45;&gt;pilot02_06_stac_1338607688 -->
<g id="edge56" class="edge">
<title>pilot02_06_stac_1338597688&#45;&gt;pilot02_06_stac_1338607688</title>
<g id="a_edge56"><a xlink:title="Question_answer_pair">
<path fill="none" stroke="#12ffff" d="M38,-615.68C38,-612.58 38,-607.47 38,-603.16"/>
<polygon fill="#12ffff" stroke="#12ffff" points="39.75,-603.06 38,-598.06 36.25,-603.06 39.75,-603.06"/>
</a>
</g>
</g>
<!-- 2_0 -->
<!-- pilot02_06_stac_1338607688&#45;&gt;2_0 -->
<!-- 2_1 -->
<!-- pilot02_06_stac_1338607688&#45;&gt;2_1 -->
<!-- pilot02_06_stac_1338617688 -->
<g id="node67" class="node">
<title>pilot02_06_stac_1338617688</title>
<g id="a_node67"><a xlink:title="3 &#160;Cat &#160;ok, ">
<ellipse fill="black" stroke="black" cx="38" cy="-569.5" rx="3.5" ry="3.5"/>
</a>
</g>
</g>
<!-- pilot02_06_stac_1338607688&#45;&gt;pilot02_06_stac_1338617688 -->
<g id="edge57" class="edge">
<title>pilot02_06_stac_1338607688&#45;&gt;pilot02_06_stac_1338617688</title>
<g id="a_edge57"><a xlink:title="Comment">
<path fill="none" stroke="#ff8200" d="M38,-590.68C38,-587.58 38,-582.47 38,-578.16"/>
<polygon fill="#ff8200" stroke="#ff8200" points="39.75,-578.06 38,-573.06 36.25,-578.06 39.75,-578.06"/>
</a>
</g>
</g>
<!-- pilot02_06_stac_1338627688 -->
<g id="node7" class="node">
<title>pilot02_06_stac_1338627688</title>
<g id="a_node7"><a xlink:title="4 &#160;Cat &#160;and can i do other things depending on the numbers?">
<ellipse fill="black" stroke="black" cx="39" cy="-544.5" rx="3.5" ry="3.5"/>
</a>
</g>
</g>
<!-- 4_0 -->
<!-- pilot02_06_stac_1338627688&#45;&gt;4_0 -->
<!-- 4_1 -->
<!-- pilot02_06_stac_1338627688&#45;&gt;4_1 -->
<!-- pilot02_06_stac_1338637688 -->
<g id="node10" class="node">
<title>pilot02_06_stac_1338637688</title>
<g id="a_node10"><a xlink:title="5 &#160;william &#160;yup">
<ellipse fill="black" stroke="black" cx="50" cy="-519.5" rx="3.5" ry="3.5"/>
</a>
</g>
</g>
<!-- pilot02_06_stac_1338627688&#45;&gt;pilot02_06_stac_1338637688 -->
<!-- 5_0 -->
<!-- pilot02_06_stac_1338637688&#45;&gt;5_0 -->
<!-- 5_1 -->
<!-- pilot02_06_stac_1338637688&#45;&gt;5_1 -->
<!-- pilot02_06_stac_1338647688 -->
<g id="node70" class="node">
<title>pilot02_06_stac_1338647688</title>
<g id="a_node70"><a xlink:title="6 &#160;Cat &#160;ooops, ">
<ellipse fill="black" stroke="black" cx="40" cy="-494.5" rx="3.5" ry="3.5"/>
</a>
</g>
</g>
<!-- pilot02_06_stac_1338637688&#45;&gt;pilot02_06_stac_1338647688 -->
<g id="edge62" class="edge">
<title>pilot02_06_stac_1338637688&#45;&gt;pilot02_06_stac_1338647688</title>
<g id="a_edge62"><a xlink:title="Acknowledgement">
<path fill="none" stroke="#12ffff" d="M48.93,-516.04C47.54,-512.84 45.05,-507.12 43.06,-502.53"/>
<polygon fill="#12ffff" stroke="#12ffff" points="44.63,-501.76 41.03,-497.87 41.42,-503.16 44.63,-501.76"/>
</a>
</g>
</g>
<!-- pilot02_06_stac_1338657688 -->
<g id="node71" class="node">
<title>pilot02_06_stac_1338657688</title>
<g id="a_node71"><a xlink:title="7 &#160;Cat &#160;sorry, ">
<ellipse fill="black" stroke="black" cx="40" cy="-469.5" rx="3.5" ry="3.5"/>
</a>
</g>
</g>
<!-- pilot02_06_stac_1338637688&#45;&gt;pilot02_06_stac_1338657688 -->
<g id="edge64" class="edge">
<title>pilot02_06_stac_1338637688&#45;&gt;pilot02_06_stac_1338657688</title>
<g id="a_edge64"><a xlink:title="Q_Elab">
<path fill="none" stroke="#0d20ff" d="M47.31,-517.02C42.37,-514.13 32,-507.19 28,-498 24.75,-490.54 29.94,-481.94 34.48,-476.37"/>
<polygon fill="#0d20ff" stroke="#0d20ff" points="35.91,-477.4 37.93,-472.5 33.3,-475.06 35.91,-477.4"/>
</a>
</g>
</g>
<!-- pilot02_06_stac_1338647689 -->
<g id="node13" class="node">
<title>pilot02_06_stac_1338647689</title>
<g id="a_node13"><a xlink:title="6 &#160;Cat &#160;I didn&#39;t know">
<ellipse fill="black" stroke="black" cx="65" cy="-494.5" rx="3.5" ry="3.5"/>
</a>
</g>
</g>
<!-- 6_0 -->
<!-- pilot02_06_stac_1338647689&#45;&gt;6_0 -->
<!-- pilot02_06_stac_1338657689 -->
<g id="node15" class="node">
<title>pilot02_06_stac_1338657689</title>
<g id="a_node15"><a xlink:title="7 &#160;Cat &#160;which things?">
<ellipse fill="black" stroke="black" cx="65" cy="-469.5" rx="3.5" ry="3.5"/>
</a>
</g>
</g>
<!-- 7_0 -->
<!-- pilot02_06_stac_1338657689&#45;&gt;7_0 -->
<!-- pilot02_06_stac_1338667688 -->
<g id="node17" class="node">
<title>pilot02_06_stac_1338667688</title>
<g id="a_node17"><a xlink:title="8 &#160;william &#160;no every other number just produces ressources">
<ellipse fill="black" stroke="black" cx="69" cy="-444.5" rx="3.5" ry="3.5"/>
</a>
</g>
</g>
<!-- 8_0 -->
<!-- pilot02_06_stac_1338667688&#45;&gt;8_0 -->
<!-- 8_1 -->
<!-- pilot02_06_stac_1338667688&#45;&gt;8_1 -->
<!-- pilot02_06_stac_1338677688 -->
<g id="node20" class="node">
<title>pilot02_06_stac_1338677688</title>
<g id="a_node20"><a xlink:title="9 &#160;Thomas &#160;robber is the only exception">
<ellipse fill="black" stroke="black" cx="58" cy="-419.5" rx="3.5" ry="3.5"/>
</a>
</g>
</g>
<!-- pilot02_06_stac_1338667688&#45;&gt;pilot02_06_stac_1338677688 -->
<g id="edge68" class="edge">
<title>pilot02_06_stac_1338667688&#45;&gt;pilot02_06_stac_1338677688</title>
<g id="a_edge68"><a xlink:title="Continuation">
<path fill="none" stroke="#10491b" d="M67.82,-441.04C66.29,-437.84 63.56,-432.12 61.36,-427.53"/>
<polygon fill="#10491b" stroke="#10491b" points="62.87,-426.63 59.14,-422.87 59.71,-428.14 62.87,-426.63"/>
</a>
</g>
</g>
<!-- pilot02_06_stac_1338687688 -->
<g id="node72" class="node">
<title>pilot02_06_stac_1338687688</title>
<g id="a_node72"><a xlink:title="10 &#160;Cat &#160;ok, ">
<ellipse fill="black" stroke="black" cx="80" cy="-394.5" rx="3.5" ry="3.5"/>
</a>
</g>
</g>
<!-- pilot02_06_stac_1338667688&#45;&gt;pilot02_06_stac_1338687688 -->
<g id="edge69" class="edge">
<title>pilot02_06_stac_1338667688&#45;&gt;pilot02_06_stac_1338687688</title>
<g id="a_edge69"><a xlink:title="Acknowledgement">
<path fill="none" stroke="#12ffff" d="M69.59,-440.92C71.19,-433.95 75.64,-414.55 78.17,-403.49"/>
<polygon fill="#12ffff" stroke="#12ffff" points="79.94,-403.6 79.35,-398.33 76.53,-402.81 79.94,-403.6"/>
</a>
</g>
</g>
<!-- 9_0 -->
<!-- pilot02_06_stac_1338677688&#45;&gt;9_0 -->
<!-- 9_1 -->
<!-- pilot02_06_stac_1338677688&#45;&gt;9_1 -->
<!-- pilot02_06_stac_1338677688&#45;&gt;pilot02_06_stac_1338687688 -->
<!-- pilot02_06_stac_1338687689 -->
<g id="node23" class="node">
<title>pilot02_06_stac_1338687689</title>
<g id="a_node23"><a xlink:title="10 &#160;Cat &#160;so i don&#39;t need to play special actions">
<ellipse fill="black" stroke="black" cx="30" cy="-394.5" rx="3.5" ry="3.5"/>
</a>
</g>
</g>
<!-- 10_0 -->
<!-- pilot02_06_stac_1338687689&#45;&gt;10_0 -->
<!-- pilot02_06_stac_1338697688 -->
<g id="node25" class="node">
<title>pilot02_06_stac_1338697688</title>
<g id="a_node25"><a xlink:title="11 &#160;Cat &#160;anyone would like to receive a wood for an ore?">
<ellipse fill="black" stroke="black" cx="80" cy="-369.5" rx="3.5" ry="3.5"/>
</a>
</g>
</g>
<!-- pilot02_06_stac_1338687689&#45;&gt;pilot02_06_stac_1338697688 -->
<g id="edge71" class="edge">
<title>pilot02_06_stac_1338687689&#45;&gt;pilot02_06_stac_1338697688</title>
<g id="a_edge71"><a xlink:title="Continuation">
<path fill="none" stroke="#10491b" d="M32.98,-392.13C40.64,-388.61 61.21,-379.14 72.44,-373.98"/>
<polygon fill="#10491b" stroke="#10491b" points="73.29,-375.51 77.1,-371.83 71.83,-372.33 73.29,-375.51"/>
</a>
</g>
</g>
<!-- pilot02_06_nasher_1398873420898 -->
<g id="node73" class="node">
<title>pilot02_06_nasher_1398873420898</title>
<g id="a_node73"><a xlink:title="12 &#160;william &#160;no,">
<ellipse fill="black" stroke="black" cx="20" cy="-344.5" rx="3.5" ry="3.5"/>
</a>
</g>
</g>
<!-- pilot02_06_stac_1338687689&#45;&gt;pilot02_06_nasher_1398873420898 -->
<g id="edge72" class="edge">
<title>pilot02_06_stac_1338687689&#45;&gt;pilot02_06_nasher_1398873420898</title>
<g id="a_edge72"><a xlink:title="Acknowledgement">
<path fill="none" stroke="#12ffff" d="M29.46,-390.92C28.01,-383.95 23.97,-364.55 21.66,-353.49"/>
<polygon fill="#12ffff" stroke="#12ffff" points="23.32,-352.87 20.59,-348.33 19.9,-353.58 23.32,-352.87"/>
</a>
</g>
</g>
<!-- 11_0 -->
<!-- pilot02_06_stac_1338697688&#45;&gt;11_0 -->
<!-- 11_1 -->
<!-- pilot02_06_stac_1338697688&#45;&gt;11_1 -->
<!-- pilot02_06_stac_1338717688 -->
<g id="node30" class="node">
<title>pilot02_06_stac_1338717688</title>
<g id="a_node30"><a xlink:title="13 &#160;william &#160;no">
<ellipse fill="black" stroke="black" cx="39" cy="-319.5" rx="3.5" ry="3.5"/>
</a>
</g>
</g>
<!-- pilot02_06_stac_1338697688&#45;&gt;pilot02_06_stac_1338717688 -->
<g id="edge74" class="edge">
<title>pilot02_06_stac_1338697688&#45;&gt;pilot02_06_stac_1338717688</title>
<g id="a_edge74"><a xlink:title="Question_answer_pair">
<path fill="none" stroke="#12ffff" d="M81.25,-365.98C83.61,-360.84 88.06,-348.94 83,-341 78.87,-334.53 58.34,-326.88 46.84,-323.02"/>
<polygon fill="#12ffff" stroke="#12ffff" points="47.32,-321.33 42.03,-321.44 46.23,-324.66 47.32,-321.33"/>
</a>
</g>
</g>
<!-- pilot02_06_stac_1338727688 -->
<g id="node33" class="node">
<title>pilot02_06_stac_1338727688</title>
<g id="a_node33"><a xlink:title="14 &#160;Thomas &#160;yes please">
<ellipse fill="black" stroke="black" cx="60" cy="-294.5" rx="3.5" ry="3.5"/>
</a>
</g>
</g>
<!-- pilot02_06_stac_1338697688&#45;&gt;pilot02_06_stac_1338727688 -->
<g id="edge75" class="edge">
<title>pilot02_06_stac_1338697688&#45;&gt;pilot02_06_stac_1338727688</title>
<g id="a_edge75"><a xlink:title="Question_answer_pair">
<path fill="none" stroke="#12ffff" d="M82.27,-366.38C89.87,-359.03 113.31,-334.1 102,-316 94.67,-304.26 78.47,-299.07 68.47,-296.91"/>
<polygon fill="#12ffff" stroke="#12ffff" points="68.65,-295.16 63.41,-295.96 68,-298.6 68.65,-295.16"/>
</a>
</g>
</g>
<!-- pilot02_06_stac_1338797688 -->
<g id="node45" class="node">
<title>pilot02_06_stac_1338797688</title>
<g id="a_node45"><a xlink:title="18 &#160;Cat &#160;anyone wants wood?">
<ellipse fill="black" stroke="black" cx="59" cy="-194.5" rx="3.5" ry="3.5"/>
</a>
</g>
</g>
<!-- pilot02_06_stac_1338697688&#45;&gt;pilot02_06_stac_1338797688 -->
<g id="edge80" class="edge">
<title>pilot02_06_stac_1338697688&#45;&gt;pilot02_06_stac_1338797688</title>
<g id="a_edge80"><a xlink:title="Continuation">
<path fill="none" stroke="#10491b" d="M83.16,-367.43C94.57,-363.34 133,-347.56 133,-320.5 133,-320.5 133,-320.5 133,-243.5 133,-230.34 131.61,-225 122,-216 113.92,-208.44 82.38,-200.66 67.22,-197.26"/>
<polygon fill="#10491b" stroke="#10491b" points="67.41,-195.51 62.15,-196.15 66.66,-198.93 67.41,-195.51"/>
</a>
</g>
</g>
<!-- pilot02_06_stac_1338697688&#45;&gt;pilot02_06_nasher_1398873420898 -->
<!-- pilot02_06_nasher_1398873428780 -->
<g id="node28" class="node">
<title>pilot02_06_nasher_1398873428780</title>
<g id="a_node28"><a xlink:title="12 &#160;william &#160;dev. &#160;cards are the only other special action">
<ellipse fill="black" stroke="black" cx="45" cy="-344.5" rx="3.5" ry="3.5"/>
</a>
</g>
</g>
<!-- 12_0 -->
<!-- pilot02_06_nasher_1398873428780&#45;&gt;12_0 -->
<!-- 13_0 -->
<!-- pilot02_06_stac_1338717688&#45;&gt;13_0 -->
<!-- 13_1 -->
<!-- pilot02_06_stac_1338717688&#45;&gt;13_1 -->
<!-- pilot02_06_stac_1338717688&#45;&gt;pilot02_06_stac_1338727688 -->
<!-- pilot02_06_stac_1338737688 -->
<g id="node36" class="node">
<title>pilot02_06_stac_1338737688</title>
<g id="a_node36"><a xlink:title="15 &#160;william &#160;i will take anyone&#39;s sheep though">
<ellipse fill="black" stroke="black" cx="49" cy="-269.5" rx="3.5" ry="3.5"/>
</a>
</g>
</g>
<!-- pilot02_06_stac_1338717688&#45;&gt;pilot02_06_stac_1338737688 -->
<g id="edge76" class="edge">
<title>pilot02_06_stac_1338717688&#45;&gt;pilot02_06_stac_1338737688</title>
<g id="a_edge76"><a xlink:title="Contrast">
<path fill="none" stroke="#ff7ecf" d="M39.54,-315.92C40.99,-308.95 45.03,-289.55 47.34,-278.49"/>
<polygon fill="#ff7ecf" stroke="#ff7ecf" points="49.1,-278.58 48.41,-273.33 45.68,-277.87 49.1,-278.58"/>
</a>
</g>
</g>
<!-- 14_0 -->
<!-- pilot02_06_stac_1338727688&#45;&gt;14_0 -->
<!-- 14_1 -->
<!-- pilot02_06_stac_1338727688&#45;&gt;14_1 -->
<!-- pilot02_06_stac_1338727688&#45;&gt;pilot02_06_stac_1338737688 -->
<!-- 15_0 -->
<!-- pilot02_06_stac_1338737688&#45;&gt;15_0 -->
<!-- 15_1 -->
<!-- pilot02_06_stac_1338737688&#45;&gt;15_1 -->
<!-- pilot02_06_stac_1338777688 -->
<g id="node39" class="node">
<title>pilot02_06_stac_1338777688</title>
<g id="a_node39"><a xlink:title="16 &#160;Cat &#160;don&#39;t have a sheep">
<ellipse fill="black" stroke="black" cx="60" cy="-244.5" rx="3.5" ry="3.5"/>
</a>
</g>
</g>
<!-- pilot02_06_stac_1338737688&#45;&gt;pilot02_06_stac_1338777688 -->
<g id="edge77" class="edge">
<title>pilot02_06_stac_1338737688&#45;&gt;pilot02_06_stac_1338777688</title>
<g id="a_edge77"><a xlink:title="Contrast">
<path fill="none" stroke="#ff7ecf" d="M50.18,-266.04C51.71,-262.84 54.44,-257.12 56.64,-252.53"/>
<polygon fill="#ff7ecf" stroke="#ff7ecf" points="58.29,-253.14 58.86,-247.87 55.13,-251.63 58.29,-253.14"/>
</a>
</g>
</g>
<!-- pilot02_06_stac_1338787688 -->
<g id="node42" class="node">
<title>pilot02_06_stac_1338787688</title>
<g id="a_node42"><a xlink:title="17 &#160;Thomas &#160;none here either">
<ellipse fill="black" stroke="black" cx="59" cy="-219.5" rx="3.5" ry="3.5"/>
</a>
</g>
</g>
<!-- pilot02_06_stac_1338737688&#45;&gt;pilot02_06_stac_1338787688 -->
<g id="edge78" class="edge">
<title>pilot02_06_stac_1338737688&#45;&gt;pilot02_06_stac_1338787688</title>
<g id="a_edge78"><a xlink:title="Contrast">
<path fill="none" stroke="#ff7ecf" d="M48.42,-265.87C47.44,-260.92 45.76,-249.9 48,-241 49.25,-236.04 51.95,-230.98 54.36,-227.13"/>
<polygon fill="#ff7ecf" stroke="#ff7ecf" points="55.97,-227.87 57.31,-222.74 53.07,-225.91 55.97,-227.87"/>
</a>
</g>
</g>
<!-- 16_0 -->
<!-- pilot02_06_stac_1338777688&#45;&gt;16_0 -->
<!-- 16_1 -->
<!-- pilot02_06_stac_1338777688&#45;&gt;16_1 -->
<!-- pilot02_06_stac_1338777688&#45;&gt;pilot02_06_stac_1338787688 -->
<g id="edge79" class="edge">
<title>pilot02_06_stac_1338777688&#45;&gt;pilot02_06_stac_1338787688</title>
<g id="a_edge79"><a xlink:title="Parallel">
<path fill="none" stroke="#0ab046" d="M59.88,-240.68C59.74,-237.58 59.52,-232.47 59.33,-228.16"/>
<polygon fill="#0ab046" stroke="#0ab046" points="61.08,-227.98 59.11,-223.06 57.58,-228.13 61.08,-227.98"/>
</a>
</g>
</g>
<!-- 17_0 -->
<!-- pilot02_06_stac_1338787688&#45;&gt;17_0 -->
<!-- 17_1 -->
<!-- pilot02_06_stac_1338787688&#45;&gt;17_1 -->
<!-- pilot02_06_stac_1338787688&#45;&gt;pilot02_06_stac_1338797688 -->
<!-- 18_0 -->
<!-- pilot02_06_stac_1338797688&#45;&gt;18_0 -->
<!-- 18_1 -->
<!-- pilot02_06_stac_1338797688&#45;&gt;18_1 -->
<!-- pilot02_06_stac_1338807688 -->
<g id="node48" class="node">
<title>pilot02_06_stac_1338807688</title>
<g id="a_node48"><a xlink:title="19 &#160;Thomas &#160;n">
<ellipse fill="black" stroke="black" cx="80" cy="-169.5" rx="3.5" ry="3.5"/>
</a>
</g>
</g>
<!-- pilot02_06_stac_1338797688&#45;&gt;pilot02_06_stac_1338807688 -->
<g id="edge81" class="edge">
<title>pilot02_06_stac_1338797688&#45;&gt;pilot02_06_stac_1338807688</title>
<g id="a_edge81"><a xlink:title="Question_answer_pair">
<path fill="none" stroke="#12ffff" d="M60.94,-191.38C63.92,-188.11 69.77,-181.71 74.2,-176.85"/>
<polygon fill="#12ffff" stroke="#12ffff" points="75.67,-177.83 77.75,-172.96 73.09,-175.47 75.67,-177.83"/>
</a>
</g>
</g>
<!-- pilot02_06_stac_1338817688 -->
<g id="node51" class="node">
<title>pilot02_06_stac_1338817688</title>
<g id="a_node51"><a xlink:title="20 &#160;william &#160;2 wood?">
<ellipse fill="black" stroke="black" cx="70" cy="-144.5" rx="3.5" ry="3.5"/>
</a>
</g>
</g>
<!-- pilot02_06_stac_1338797688&#45;&gt;pilot02_06_stac_1338817688 -->
<g id="edge82" class="edge">
<title>pilot02_06_stac_1338797688&#45;&gt;pilot02_06_stac_1338817688</title>
<g id="a_edge82"><a xlink:title="Q_Elab">
<path fill="none" stroke="#0d20ff" d="M59.59,-190.92C61.19,-183.95 65.64,-164.55 68.17,-153.49"/>
<polygon fill="#0d20ff" stroke="#0d20ff" points="69.94,-153.6 69.35,-148.33 66.53,-152.81 69.94,-153.6"/>
</a>
</g>
</g>
<!-- pilot02_06_stac_1338837688 -->
<g id="node57" class="node">
<title>pilot02_06_stac_1338837688</title>
<g id="a_node57"><a xlink:title="22 &#160;william &#160;hmm, no sorry">
<ellipse fill="black" stroke="black" cx="37" cy="-94.5" rx="3.5" ry="3.5"/>
</a>
</g>
</g>
<!-- pilot02_06_stac_1338797688&#45;&gt;pilot02_06_stac_1338837688 -->
<g id="edge84" class="edge">
<title>pilot02_06_stac_1338797688&#45;&gt;pilot02_06_stac_1338837688</title>
<g id="a_edge84"><a xlink:title="Question_answer_pair">
<path fill="none" stroke="#12ffff" d="M58.37,-190.67C55.44,-177.65 43.22,-123.2 38.69,-103.05"/>
<polygon fill="#12ffff" stroke="#12ffff" points="40.4,-102.65 37.6,-98.15 36.98,-103.41 40.4,-102.65"/>
</a>
</g>
</g>
<!-- 19_0 -->
<!-- pilot02_06_stac_1338807688&#45;&gt;19_0 -->
<!-- 19_1 -->
<!-- pilot02_06_stac_1338807688&#45;&gt;19_1 -->
<!-- pilot02_06_stac_1338807688&#45;&gt;pilot02_06_stac_1338817688 -->
<!-- 20_0 -->
<!-- pilot02_06_stac_1338817688&#45;&gt;20_0 -->
<!-- 20_1 -->
<!-- pilot02_06_stac_1338817688&#45;&gt;20_1 -->
<!-- pilot02_06_stac_1338827688 -->
<g id="node54" class="node">
<title>pilot02_06_stac_1338827688</title>
<g id="a_node54"><a xlink:title="21 &#160;Cat &#160;one wood for clay">
<ellipse fill="black" stroke="black" cx="70" cy="-119.5" rx="3.5" ry="3.5"/>
</a>
</g>
</g>
<!-- pilot02_06_stac_1338817688&#45;&gt;pilot02_06_stac_1338827688 -->
<g id="edge83" class="edge">
<title>pilot02_06_stac_1338817688&#45;&gt;pilot02_06_stac_1338827688</title>
<g id="a_edge83"><a xlink:title="Question_answer_pair">
<path fill="none" stroke="#12ffff" d="M70,-140.68C70,-137.58 70,-132.47 70,-128.16"/>
<polygon fill="#12ffff" stroke="#12ffff" points="71.75,-128.06 70,-123.06 68.25,-128.06 71.75,-128.06"/>
</a>
</g>
</g>
<!-- 21_0 -->
<!-- pilot02_06_stac_1338827688&#45;&gt;21_0 -->
<!-- 21_1 -->
<!-- pilot02_06_stac_1338827688&#45;&gt;21_1 -->
<!-- pilot02_06_stac_1338827688&#45;&gt;pilot02_06_stac_1338837688 -->
<g id="edge85" class="edge">
<title>pilot02_06_stac_1338827688&#45;&gt;pilot02_06_stac_1338837688</title>
<g id="a_edge85"><a xlink:title="Question_answer_pair">
<path fill="none" stroke="#12ffff" d="M67.41,-116.7C62.37,-113.18 51.11,-105.33 43.8,-100.24"/>
<polygon fill="#12ffff" stroke="#12ffff" points="44.59,-98.66 39.49,-97.23 42.59,-101.53 44.59,-98.66"/>
</a>
</g>
</g>
<!-- pilot02_06_stac_1338847688 -->
<g id="node60" class="node">
<title>pilot02_06_stac_1338847688</title>
<g id="a_node60"><a xlink:title="23 &#160;Cat &#160;or ore">
<ellipse fill="black" stroke="black" cx="60" cy="-69.5" rx="3.5" ry="3.5"/>
</a>
</g>
</g>
<!-- pilot02_06_stac_1338827688&#45;&gt;pilot02_06_stac_1338847688 -->
<g id="edge86" class="edge">
<title>pilot02_06_stac_1338827688&#45;&gt;pilot02_06_stac_1338847688</title>
<g id="a_edge86"><a xlink:title="Alternation">
<path fill="none" stroke="#10495e" d="M73.05,-117.47C82.11,-114.25 107.81,-103.78 100,-91 93.13,-79.75 77.9,-74.42 68.35,-72.1"/>
<polygon fill="#10495e" stroke="#10495e" points="68.51,-70.34 63.25,-71.01 67.78,-73.77 68.51,-70.34"/>
</a>
</g>
</g>
<!-- 22_0 -->
<!-- pilot02_06_stac_1338837688&#45;&gt;22_0 -->
<!-- 22_1 -->
<!-- pilot02_06_stac_1338837688&#45;&gt;22_1 -->
<!-- pilot02_06_stac_1338837688&#45;&gt;pilot02_06_stac_1338847688 -->
<!-- pilot02_06_stac_1338857688 -->
<g id="node74" class="node">
<title>pilot02_06_stac_1338857688</title>
<g id="a_node74"><a xlink:title="24 &#160;william &#160;i will only take two wood, ">
<ellipse fill="black" stroke="black" cx="48" cy="-44.5" rx="3.5" ry="3.5"/>
</a>
</g>
</g>
<!-- pilot02_06_stac_1338837688&#45;&gt;pilot02_06_stac_1338857688 -->
<g id="edge87" class="edge">
<title>pilot02_06_stac_1338837688&#45;&gt;pilot02_06_stac_1338857688</title>
<g id="a_edge87"><a xlink:title="Elaboration">
<path fill="none" stroke="#a621c7" d="M37.59,-90.92C39.19,-83.95 43.64,-64.55 46.17,-53.49"/>
<polygon fill="#a621c7" stroke="#a621c7" points="47.94,-53.6 47.35,-48.33 44.53,-52.81 47.94,-53.6"/>
</a>
</g>
</g>
<!-- 23_0 -->
<!-- pilot02_06_stac_1338847688&#45;&gt;23_0 -->
<!-- 23_1 -->
<!-- pilot02_06_stac_1338847688&#45;&gt;23_1 -->
<!-- pilot02_06_stac_1338847688&#45;&gt;pilot02_06_stac_1338857688 -->
<!-- pilot02_06_stac_1338857689 -->
<g id="node63" class="node">
<title>pilot02_06_stac_1338857689</title>
<g id="a_node63"><a xlink:title="24 &#160;william &#160;and give 1 ore">
<ellipse fill="black" stroke="black" cx="73" cy="-44.5" rx="3.5" ry="3.5"/>
</a>
</g>
</g>
<!-- 24_0 -->
<!-- pilot02_06_stac_1338857689&#45;&gt;24_0 -->
<!-- pilot02_06_stac_1338867689 -->
<g id="node65" class="node">
<title>pilot02_06_stac_1338867689</title>
<g id="a_node65"><a xlink:title="25 &#160;Cat &#160;sorry">
<ellipse fill="black" stroke="black" cx="73" cy="-19.5" rx="3.5" ry="3.5"/>
</a>
</g>
</g>
<!-- 25_0 -->
<!-- pilot02_06_stac_1338867689&#45;&gt;25_0 -->
<!-- pilot02_06_stac_1338617688&#45;&gt;pilot02_06_stac_1338627688 -->
<!-- pilot02_06_stac_1338617689 -->
<g id="node68" class="node">
<title>pilot02_06_stac_1338617689</title>
<g id="a_node68"><a xlink:title="3 &#160;Cat &#160;so if it had been 7 ">
<ellipse fill="black" stroke="black" cx="63" cy="-569.5" rx="3.5" ry="3.5"/>
</a>
</g>
</g>
<!-- pilot02_06_stac_1338617688&#45;&gt;pilot02_06_stac_1338617689 -->
<g id="edge58" class="edge">
<title>pilot02_06_stac_1338617688&#45;&gt;pilot02_06_stac_1338617689</title>
<g id="a_edge58"><a xlink:title="Q_Elab">
<path fill="none" stroke="#0d20ff" d="M41.52,-569.5C45.78,-569.5 50.04,-569.5 54.3,-569.5"/>
<polygon fill="#0d20ff" stroke="#0d20ff" points="54.31,-571.25 59.31,-569.5 54.31,-567.75 54.31,-571.25"/>
</a>
</g>
</g>
<!-- pilot02_06_stac_1338617689&#45;&gt;pilot02_06_stac_1338627688 -->
<g id="edge60" class="edge">
<title>pilot02_06_stac_1338617689&#45;&gt;pilot02_06_stac_1338627688</title>
<g id="a_edge60"><a xlink:title="Continuation">
<path fill="none" stroke="#10491b" d="M60.79,-566.38C57.16,-562.9 49.84,-555.89 44.69,-550.96"/>
<polygon fill="#10491b" stroke="#10491b" points="45.83,-549.62 41,-547.42 43.4,-552.14 45.83,-549.62"/>
</a>
</g>
</g>
<!-- pilot02_06_stac_1338617689&#45;&gt;pilot02_06_stac_1338637688 -->
<g id="edge61" class="edge">
<title>pilot02_06_stac_1338617689&#45;&gt;pilot02_06_stac_1338637688</title>
<g id="a_edge61"><a xlink:title="Question_answer_pair">
<path fill="none" stroke="#12ffff" d="M62.3,-565.92C60.4,-558.89 55.06,-539.19 52.08,-528.18"/>
<polygon fill="#12ffff" stroke="#12ffff" points="53.76,-527.7 50.77,-523.33 50.39,-528.62 53.76,-527.7"/>
</a>
</g>
</g>
<!-- pilot02_06_stac_1338617689&#45;&gt;pilot02_06_stac_1338667688 -->
<g id="edge66" class="edge">
<title>pilot02_06_stac_1338617689&#45;&gt;pilot02_06_stac_1338667688</title>
<g id="a_edge66"><a xlink:title="Question_answer_pair">
<path fill="none" stroke="#12ffff" d="M64.32,-566.19C71.22,-554.13 102.74,-498.97 103,-498 106.63,-484.25 109.99,-478.38 103,-466 97.49,-456.25 85.28,-450.62 77.09,-447.8"/>
<polygon fill="#12ffff" stroke="#12ffff" points="77.49,-446.1 72.2,-446.29 76.46,-449.44 77.49,-446.1"/>
</a>
</g>
</g>
<!-- pilot02_06_stac_1338617690 -->
<g id="node69" class="node">
<title>pilot02_06_stac_1338617690</title>
<g id="a_node69"><a xlink:title="3 &#160;Cat &#160;i could move the robber">
<ellipse fill="black" stroke="black" cx="88" cy="-569.5" rx="3.5" ry="3.5"/>
</a>
</g>
</g>
<!-- pilot02_06_stac_1338617689&#45;&gt;pilot02_06_stac_1338617690 -->
<g id="edge59" class="edge">
<title>pilot02_06_stac_1338617689&#45;&gt;pilot02_06_stac_1338617690</title>
<g id="a_edge59"><a xlink:title="Conditional">
<path fill="none" stroke="#1c931a" d="M66.52,-569.5C70.78,-569.5 75.04,-569.5 79.3,-569.5"/>
<polygon fill="#1c931a" stroke="#1c931a" points="79.31,-571.25 84.31,-569.5 79.31,-567.75 79.31,-571.25"/>
</a>
</g>
</g>
<!-- pilot02_06_stac_1338647688&#45;&gt;pilot02_06_stac_1338647689 -->
<g id="edge63" class="edge">
<title>pilot02_06_stac_1338647688&#45;&gt;pilot02_06_stac_1338647689</title>
<g id="a_edge63"><a xlink:title="Elaboration">
<path fill="none" stroke="#a621c7" d="M43.52,-494.5C47.78,-494.5 52.04,-494.5 56.3,-494.5"/>
<polygon fill="#a621c7" stroke="#a621c7" points="56.31,-496.25 61.31,-494.5 56.31,-492.75 56.31,-496.25"/>
</a>
</g>
</g>
<!-- pilot02_06_stac_1338647688&#45;&gt;pilot02_06_stac_1338657688 -->
<!-- pilot02_06_stac_1338657688&#45;&gt;pilot02_06_stac_1338657689 -->
<g id="edge65" class="edge">
<title>pilot02_06_stac_1338657688&#45;&gt;pilot02_06_stac_1338657689</title>
<g id="a_edge65"><a xlink:title="Continuation">
<path fill="none" stroke="#10491b" d="M43.52,-469.5C47.78,-469.5 52.04,-469.5 56.3,-469.5"/>
<polygon fill="#10491b" stroke="#10491b" points="56.31,-471.25 61.31,-469.5 56.31,-467.75 56.31,-471.25"/>
</a>
</g>
</g>
<!-- pilot02_06_stac_1338657688&#45;&gt;pilot02_06_stac_1338667688 -->
<g id="edge67" class="edge">
<title>pilot02_06_stac_1338657688&#45;&gt;pilot02_06_stac_1338667688</title>
<g id="a_edge67"><a xlink:title="Question_answer_pair">
<path fill="none" stroke="#12ffff" d="M42.28,-466.7C46.53,-463.32 55.85,-455.93 62.27,-450.84"/>
<polygon fill="#12ffff" stroke="#12ffff" points="63.66,-451.97 66.49,-447.49 61.48,-449.23 63.66,-451.97"/>
</a>
</g>
</g>
<!-- pilot02_06_stac_1338687688&#45;&gt;pilot02_06_stac_1338687689 -->
<g id="edge70" class="edge">
<title>pilot02_06_stac_1338687688&#45;&gt;pilot02_06_stac_1338687689</title>
<g id="a_edge70"><a xlink:title="Result">
<path fill="none" stroke="#10ff0f" d="M77.24,-396.82C73.43,-399.85 66.2,-405.02 59,-407 51.07,-409.18 42.48,-404.51 36.72,-400.28"/>
<polygon fill="#10ff0f" stroke="#10ff0f" points="37.62,-398.75 32.63,-396.98 35.42,-401.48 37.62,-398.75"/>
</a>
</g>
</g>
<!-- pilot02_06_stac_1338687688&#45;&gt;pilot02_06_stac_1338697688 -->
<!-- pilot02_06_nasher_1398873420898&#45;&gt;pilot02_06_nasher_1398873428780 -->
<g id="edge73" class="edge">
<title>pilot02_06_nasher_1398873420898&#45;&gt;pilot02_06_nasher_1398873428780</title>
<g id="a_edge73"><a xlink:title="Elaboration">
<path fill="none" stroke="#a621c7" d="M23.52,-344.5C27.78,-344.5 32.04,-344.5 36.3,-344.5"/>
<polygon fill="#a621c7" stroke="#a621c7" points="36.31,-346.25 41.31,-344.5 36.31,-342.75 36.31,-346.25"/>
</a>
</g>
</g>
<!-- pilot02_06_nasher_1398873420898&#45;&gt;pilot02_06_stac_1338717688 -->
<!-- pilot02_06_stac_1338857688&#45;&gt;pilot02_06_stac_1338857689 -->
<g id="edge88" class="edge">
<title>pilot02_06_stac_1338857688&#45;&gt;pilot02_06_stac_1338857689</title>
<g id="a_edge88"><a xlink:title="Continuation">
<path fill="none" stroke="#10491b" d="M51.52,-44.5C55.78,-44.5 60.04,-44.5 64.3,-44.5"/>
<polygon fill="#10491b" stroke="#10491b" points="64.31,-46.25 69.31,-44.5 64.31,-42.75 64.31,-46.25"/>
</a>
</g>
</g>
<!-- pilot02_06_stac_1338867688 -->
<g id="node75" class="node">
<title>pilot02_06_stac_1338867688</title>
<g id="a_node75"><a xlink:title="25 &#160;Cat &#160;no ">
<ellipse fill="black" stroke="black" cx="48" cy="-19.5" rx="3.5" ry="3.5"/>
</a>
</g>
</g>
<!-- pilot02_06_stac_1338857688&#45;&gt;pilot02_06_stac_1338867688 -->
<g id="edge89" class="edge">
<title>pilot02_06_stac_1338857688&#45;&gt;pilot02_06_stac_1338867688</title>
<g id="a_edge89"><a xlink:title="Question_answer_pair">
<path fill="none" stroke="#12ffff" d="M48,-40.68C48,-37.58 48,-32.47 48,-28.16"/>
<polygon fill="#12ffff" stroke="#12ffff" points="49.75,-28.06 48,-23.06 46.25,-28.06 49.75,-28.06"/>
</a>
</g>
</g>
<!-- pilot02_06_stac_1338867688&#45;&gt;pilot02_06_stac_1338867689 -->
<g id="edge90" class="edge">
<title>pilot02_06_stac_1338867688&#45;&gt;pilot02_06_stac_1338867689</title>
<g id="a_edge90"><a xlink:title="Comment">
<path fill="none" stroke="#ff8200" d="M51.52,-19.5C55.78,-19.5 60.04,-19.5 64.3,-19.5"/>
<polygon fill="#ff8200" stroke="#ff8200" points="64.31,-21.25 69.31,-19.5 64.31,-17.75 64.31,-21.25"/>
</a>
</g>
</g>
</g>
</svg>
