<?xml version="1.0" encoding="UTF-8" standalone="no"?>
<!DOCTYPE svg PUBLIC "-//W3C//DTD SVG 1.1//EN"
 "http://www.w3.org/Graphics/SVG/1.1/DTD/svg11.dtd">
<!-- Generated by graphviz version 3.0.0 (20220226.1711)
 -->
<!-- Title: 10_pilot02_66 Pages: 1 -->
<svg width="113pt" height="270pt"
 viewBox="0.00 0.00 113.00 270.00" xmlns="http://www.w3.org/2000/svg" xmlns:xlink="http://www.w3.org/1999/xlink">
<g id="graph0" class="graph" transform="scale(1 1) rotate(0) translate(4 266)">
<title>10_pilot02_66</title>
<polygon fill="white" stroke="transparent" points="-4,4 -4,-266 109,-266 109,4 -4,4"/>
<g id="clust1" class="cluster">
<title>cluster_10_pilot02_66</title>
<polygon fill="none" stroke="black" points="8,-8 8,-254 97,-254 97,-8 8,-8"/>
<text text-anchor="middle" x="23" y="-238.8" font-family="Times,serif" font-size="14.00">66</text>
</g>
<!-- pilot02_10_stac_1338387699 -->
<g id="node1" class="node">
<title>pilot02_10_stac_1338387699</title>
<g id="a_node1"><a xlink:title="1 &#160;Thomas &#160;2 ore for a wheat?">
<ellipse fill="black" stroke="black" cx="50" cy="-219.5" rx="3.5" ry="3.5"/>
</a>
</g>
</g>
<!-- 1_0 -->
<!-- pilot02_10_stac_1338387699&#45;&gt;1_0 -->
<!-- pilot02_10_stac_1338397699 -->
<g id="node3" class="node">
<title>pilot02_10_stac_1338397699</title>
<g id="a_node3"><a xlink:title="2 &#160;william &#160;are you givinig 2 ore?">
<ellipse fill="black" stroke="black" cx="40" cy="-194.5" rx="3.5" ry="3.5"/>
</a>
</g>
</g>
<!-- pilot02_10_stac_1338387699&#45;&gt;pilot02_10_stac_1338397699 -->
<g id="edge12" class="edge">
<title>pilot02_10_stac_1338387699&#45;&gt;pilot02_10_stac_1338397699</title>
<g id="a_edge12"><a xlink:title="Clarification_question">
<path fill="none" stroke="#ff40d1" d="M48.93,-216.04C47.54,-212.84 45.05,-207.12 43.06,-202.53"/>
<polygon fill="#ff40d1" stroke="#ff40d1" points="44.63,-201.76 41.03,-197.87 41.42,-203.16 44.63,-201.76"/>
</a>
</g>
</g>
<!-- pilot02_10_stac_1338457699 -->
<g id="node11" class="node">
<title>pilot02_10_stac_1338457699</title>
<g id="a_node11"><a xlink:title="6 &#160;Thomas &#160;can I buy wood for 1 ore?">
<ellipse fill="black" stroke="black" cx="50" cy="-94.5" rx="3.5" ry="3.5"/>
</a>
</g>
</g>
<!-- pilot02_10_stac_1338387699&#45;&gt;pilot02_10_stac_1338457699 -->
<g id="edge16" class="edge">
<title>pilot02_10_stac_1338387699&#45;&gt;pilot02_10_stac_1338457699</title>
<g id="a_edge16"><a xlink:title="Continuation">
<path fill="none" stroke="#10491b" d="M52.73,-217.21C58.26,-214.44 70.91,-207.44 78,-198 85.81,-187.6 88,-183.51 88,-170.5 88,-170.5 88,-170.5 88,-143.5 88,-130.49 85.81,-126.4 78,-116 72.46,-108.62 63.53,-102.74 57.25,-99.2"/>
<polygon fill="#10491b" stroke="#10491b" points="57.96,-97.59 52.73,-96.79 56.32,-100.68 57.96,-97.59"/>
</a>
</g>
</g>
<!-- 2_0 -->
<!-- pilot02_10_stac_1338397699&#45;&gt;2_0 -->
<!-- pilot02_10_stac_1338407699 -->
<g id="node5" class="node">
<title>pilot02_10_stac_1338407699</title>
<g id="a_node5"><a xlink:title="3 &#160;william &#160;then yes">
<ellipse fill="black" stroke="black" cx="20" cy="-169.5" rx="3.5" ry="3.5"/>
</a>
</g>
</g>
<!-- pilot02_10_stac_1338397699&#45;&gt;pilot02_10_stac_1338407699 -->
<g id="edge13" class="edge">
<title>pilot02_10_stac_1338397699&#45;&gt;pilot02_10_stac_1338407699</title>
<g id="a_edge13"><a xlink:title="Conditional">
<path fill="none" stroke="#1c931a" d="M38.15,-191.38C35.31,-188.11 29.75,-181.71 25.52,-176.85"/>
<polygon fill="#1c931a" stroke="#1c931a" points="26.74,-175.59 22.14,-172.96 24.1,-177.88 26.74,-175.59"/>
</a>
</g>
</g>
<!-- pilot02_10_stac_1338417699 -->
<g id="node7" class="node">
<title>pilot02_10_stac_1338417699</title>
<g id="a_node7"><a xlink:title="4 &#160;Thomas &#160;yes">
<ellipse fill="black" stroke="black" cx="40" cy="-144.5" rx="3.5" ry="3.5"/>
</a>
</g>
</g>
<!-- pilot02_10_stac_1338397699&#45;&gt;pilot02_10_stac_1338417699 -->
<g id="edge14" class="edge">
<title>pilot02_10_stac_1338397699&#45;&gt;pilot02_10_stac_1338417699</title>
<g id="a_edge14"><a xlink:title="Question_answer_pair">
<path fill="none" stroke="#12ffff" d="M42.43,-191.91C48.24,-187.89 62.1,-176.89 58,-166 55.69,-159.88 50.64,-154.4 46.47,-150.65"/>
<polygon fill="#12ffff" stroke="#12ffff" points="47.43,-149.17 42.47,-147.31 45.19,-151.85 47.43,-149.17"/>
</a>
</g>
</g>
<!-- 3_0 -->
<!-- pilot02_10_stac_1338407699&#45;&gt;3_0 -->
<!-- pilot02_10_stac_1338407699&#45;&gt;pilot02_10_stac_1338417699 -->
<!-- 4_0 -->
<!-- pilot02_10_stac_1338417699&#45;&gt;4_0 -->
<!-- pilot02_10_stac_1338427699 -->
<g id="node9" class="node">
<title>pilot02_10_stac_1338427699</title>
<g id="a_node9"><a xlink:title="5 &#160;william &#160;k">
<ellipse fill="black" stroke="black" cx="40" cy="-119.5" rx="3.5" ry="3.5"/>
</a>
</g>
</g>
<!-- pilot02_10_stac_1338417699&#45;&gt;pilot02_10_stac_1338427699 -->
<g id="edge15" class="edge">
<title>pilot02_10_stac_1338417699&#45;&gt;pilot02_10_stac_1338427699</title>
<g id="a_edge15"><a xlink:title="Acknowledgement">
<path fill="none" stroke="#12ffff" d="M40,-140.68C40,-137.58 40,-132.47 40,-128.16"/>
<polygon fill="#12ffff" stroke="#12ffff" points="41.75,-128.06 40,-123.06 38.25,-128.06 41.75,-128.06"/>
</a>
</g>
</g>
<!-- 5_0 -->
<!-- pilot02_10_stac_1338427699&#45;&gt;5_0 -->
<!-- pilot02_10_stac_1338427699&#45;&gt;pilot02_10_stac_1338457699 -->
<!-- 6_0 -->
<!-- pilot02_10_stac_1338457699&#45;&gt;6_0 -->
<!-- pilot02_10_stac_1338467699 -->
<g id="node13" class="node">
<title>pilot02_10_stac_1338467699</title>
<g id="a_node13"><a xlink:title="7 &#160;william &#160;hav none">
<ellipse fill="black" stroke="black" cx="28" cy="-69.5" rx="3.5" ry="3.5"/>
</a>
</g>
</g>
<!-- pilot02_10_stac_1338457699&#45;&gt;pilot02_10_stac_1338467699 -->
<g id="edge17" class="edge">
<title>pilot02_10_stac_1338457699&#45;&gt;pilot02_10_stac_1338467699</title>
<g id="a_edge17"><a xlink:title="Question_answer_pair">
<path fill="none" stroke="#12ffff" d="M47.97,-91.38C44.84,-88.11 38.72,-81.71 34.08,-76.85"/>
<polygon fill="#12ffff" stroke="#12ffff" points="35.08,-75.36 30.35,-72.96 32.55,-77.78 35.08,-75.36"/>
</a>
</g>
</g>
<!-- pilot02_10_stac_1338477699 -->
<g id="node17" class="node">
<title>pilot02_10_stac_1338477699</title>
<g id="a_node17"><a xlink:title="8 &#160;Cat &#160;no ">
<ellipse fill="black" stroke="black" cx="51" cy="-44.5" rx="3.5" ry="3.5"/>
</a>
</g>
</g>
<!-- pilot02_10_stac_1338457699&#45;&gt;pilot02_10_stac_1338477699 -->
<g id="edge18" class="edge">
<title>pilot02_10_stac_1338457699&#45;&gt;pilot02_10_stac_1338477699</title>
<g id="a_edge18"><a xlink:title="Question_answer_pair">
<path fill="none" stroke="#12ffff" d="M52.2,-91.63C55.9,-88.32 63.24,-81.03 66,-73 68.76,-64.96 62.57,-56.49 57.32,-51.11"/>
<polygon fill="#12ffff" stroke="#12ffff" points="58.19,-49.54 53.35,-47.4 55.8,-52.09 58.19,-49.54"/>
</a>
</g>
</g>
<!-- 7_0 -->
<!-- pilot02_10_stac_1338467699&#45;&gt;7_0 -->
<!-- pilot02_10_stac_1338487699 -->
<g id="node15" class="node">
<title>pilot02_10_stac_1338487699</title>
<g id="a_node15"><a xlink:title="9 &#160;Thomas &#160;kk">
<ellipse fill="black" stroke="black" cx="39" cy="-19.5" rx="3.5" ry="3.5"/>
</a>
</g>
</g>
<!-- pilot02_10_stac_1338467699&#45;&gt;pilot02_10_stac_1338487699 -->
<g id="edge20" class="edge">
<title>pilot02_10_stac_1338467699&#45;&gt;pilot02_10_stac_1338487699</title>
<g id="a_edge20"><a xlink:title="Acknowledgement">
<path fill="none" stroke="#12ffff" d="M28.59,-65.92C30.19,-58.95 34.64,-39.55 37.17,-28.49"/>
<polygon fill="#12ffff" stroke="#12ffff" points="38.94,-28.6 38.35,-23.33 35.53,-27.81 38.94,-28.6"/>
</a>
</g>
</g>
<!-- pilot02_10_stac_1338467699&#45;&gt;pilot02_10_stac_1338477699 -->
<!-- 9_0 -->
<!-- pilot02_10_stac_1338487699&#45;&gt;9_0 -->
<!-- pilot02_10_stac_1338477699&#45;&gt;pilot02_10_stac_1338487699 -->
<g id="edge21" class="edge">
<title>pilot02_10_stac_1338477699&#45;&gt;pilot02_10_stac_1338487699</title>
<g id="a_edge21"><a xlink:title="Acknowledgement">
<path fill="none" stroke="#12ffff" d="M49.72,-41.04C48.05,-37.84 45.06,-32.12 42.67,-27.53"/>
<polygon fill="#12ffff" stroke="#12ffff" points="44.1,-26.5 40.24,-22.87 41,-28.12 44.1,-26.5"/>
</a>
</g>
</g>
<!-- pilot02_10_stac_1338477700 -->
<g id="node18" class="node">
<title>pilot02_10_stac_1338477700</title>
<g id="a_node18"><a xlink:title="8 &#160;Cat &#160;sorry">
<ellipse fill="black" stroke="black" cx="76" cy="-44.5" rx="3.5" ry="3.5"/>
</a>
</g>
</g>
<!-- pilot02_10_stac_1338477699&#45;&gt;pilot02_10_stac_1338477700 -->
<g id="edge19" class="edge">
<title>pilot02_10_stac_1338477699&#45;&gt;pilot02_10_stac_1338477700</title>
<g id="a_edge19"><a xlink:title="Comment">
<path fill="none" stroke="#ff8200" d="M54.52,-44.5C58.78,-44.5 63.04,-44.5 67.3,-44.5"/>
<polygon fill="#ff8200" stroke="#ff8200" points="67.31,-46.25 72.31,-44.5 67.31,-42.75 67.31,-46.25"/>
</a>
</g>
</g>
</g>
</svg>
