<?xml version="1.0" encoding="UTF-8" standalone="no"?>
<!DOCTYPE svg PUBLIC "-//W3C//DTD SVG 1.1//EN"
 "http://www.w3.org/Graphics/SVG/1.1/DTD/svg11.dtd">
<!-- Generated by graphviz version 3.0.0 (20220226.1711)
 -->
<!-- Title: 11_pilot02_68 Pages: 1 -->
<svg width="88pt" height="370pt"
 viewBox="0.00 0.00 88.00 370.00" xmlns="http://www.w3.org/2000/svg" xmlns:xlink="http://www.w3.org/1999/xlink">
<g id="graph0" class="graph" transform="scale(1 1) rotate(0) translate(4 366)">
<title>11_pilot02_68</title>
<polygon fill="white" stroke="transparent" points="-4,4 -4,-366 84,-366 84,4 -4,4"/>
<g id="clust1" class="cluster">
<title>cluster_11_pilot02_68</title>
<polygon fill="none" stroke="black" points="8,-8 8,-354 72,-354 72,-8 8,-8"/>
<text text-anchor="middle" x="23" y="-338.8" font-family="Times,serif" font-size="14.00">68</text>
</g>
<!-- pilot02_11_stac_1338397702 -->
<g id="node1" class="node">
<title>pilot02_11_stac_1338397702</title>
<g id="a_node1"><a xlink:title="1 &#160;Cat &#160;would anyone like wheat?">
<ellipse fill="black" stroke="black" cx="41" cy="-319.5" rx="3.5" ry="3.5"/>
</a>
</g>
</g>
<!-- pilot02_11_stac_1338407702 -->
<g id="node2" class="node">
<title>pilot02_11_stac_1338407702</title>
<g id="a_node2"><a xlink:title="2 &#160;Thomas &#160;yes please">
<ellipse fill="black" stroke="black" cx="30" cy="-294.5" rx="3.5" ry="3.5"/>
</a>
</g>
</g>
<!-- pilot02_11_stac_1338397702&#45;&gt;pilot02_11_stac_1338407702 -->
<g id="edge4" class="edge">
<title>pilot02_11_stac_1338397702&#45;&gt;pilot02_11_stac_1338407702</title>
<g id="a_edge4"><a xlink:title="Question_answer_pair">
<path fill="none" stroke="#12ffff" d="M39.82,-316.04C38.29,-312.84 35.56,-307.12 33.36,-302.53"/>
<polygon fill="#12ffff" stroke="#12ffff" points="34.87,-301.63 31.14,-297.87 31.71,-303.14 34.87,-301.63"/>
</a>
</g>
</g>
<!-- pilot02_11_stac_1338417702 -->
<g id="node3" class="node">
<title>pilot02_11_stac_1338417702</title>
<g id="a_node3"><a xlink:title="3 &#160;Cat &#160;I need clay or ore">
<ellipse fill="black" stroke="black" cx="43" cy="-269.5" rx="3.5" ry="3.5"/>
</a>
</g>
</g>
<!-- pilot02_11_stac_1338397702&#45;&gt;pilot02_11_stac_1338417702 -->
<g id="edge5" class="edge">
<title>pilot02_11_stac_1338397702&#45;&gt;pilot02_11_stac_1338417702</title>
<g id="a_edge5"><a xlink:title="Elaboration">
<path fill="none" stroke="#a621c7" d="M41.34,-315.85C41.83,-311.95 42.69,-304.43 43,-298 43.33,-291.28 43.29,-283.62 43.2,-278.09"/>
<polygon fill="#a621c7" stroke="#a621c7" points="44.95,-278.04 43.08,-273.08 41.45,-278.12 44.95,-278.04"/>
</a>
</g>
</g>
<!-- pilot02_11_stac_1338407702&#45;&gt;pilot02_11_stac_1338417702 -->
<!-- pilot02_11_stac_1338427702 -->
<g id="node4" class="node">
<title>pilot02_11_stac_1338427702</title>
<g id="a_node4"><a xlink:title="4 &#160;Thomas &#160;I can give an ore">
<ellipse fill="black" stroke="black" cx="20" cy="-244.5" rx="3.5" ry="3.5"/>
</a>
</g>
</g>
<!-- pilot02_11_stac_1338417702&#45;&gt;pilot02_11_stac_1338427702 -->
<g id="edge6" class="edge">
<title>pilot02_11_stac_1338417702&#45;&gt;pilot02_11_stac_1338427702</title>
<g id="a_edge6"><a xlink:title="Question_answer_pair">
<path fill="none" stroke="#12ffff" d="M40.88,-266.38C37.54,-263.04 30.95,-256.45 26.06,-251.56"/>
<polygon fill="#12ffff" stroke="#12ffff" points="27.23,-250.26 22.46,-247.96 24.76,-252.73 27.23,-250.26"/>
</a>
</g>
</g>
<!-- pilot02_11_stac_1338447702 -->
<g id="node6" class="node">
<title>pilot02_11_stac_1338447702</title>
<g id="a_node6"><a xlink:title="6 &#160;Cat &#160;or a sheep!">
<ellipse fill="black" stroke="black" cx="40" cy="-194.5" rx="3.5" ry="3.5"/>
</a>
</g>
</g>
<!-- pilot02_11_stac_1338417702&#45;&gt;pilot02_11_stac_1338447702 -->
<g id="edge8" class="edge">
<title>pilot02_11_stac_1338417702&#45;&gt;pilot02_11_stac_1338447702</title>
<g id="a_edge8"><a xlink:title="Alternation">
<path fill="none" stroke="#10495e" d="M42.89,-265.73C42.47,-255.52 41,-219.78 40.33,-203.59"/>
<polygon fill="#10495e" stroke="#10495e" points="42.07,-203.2 40.11,-198.28 38.57,-203.34 42.07,-203.2"/>
</a>
</g>
</g>
<!-- pilot02_11_stac_1338467702 -->
<g id="node8" class="node">
<title>pilot02_11_stac_1338467702</title>
<g id="a_node8"><a xlink:title="8 &#160;Cat &#160;let&#39;s do the clay">
<ellipse fill="black" stroke="black" cx="50" cy="-144.5" rx="3.5" ry="3.5"/>
</a>
</g>
</g>
<!-- pilot02_11_stac_1338417702&#45;&gt;pilot02_11_stac_1338467702 -->
<g id="edge10" class="edge">
<title>pilot02_11_stac_1338417702&#45;&gt;pilot02_11_stac_1338467702</title>
<g id="a_edge10"><a xlink:title="Result">
<path fill="none" stroke="#10ff0f" d="M44.85,-266.05C49.8,-259.23 63,-239.28 63,-220.5 63,-220.5 63,-220.5 63,-193.5 63,-178.63 57.11,-162.04 53.26,-152.78"/>
<polygon fill="#10ff0f" stroke="#10ff0f" points="54.8,-151.92 51.2,-148.04 51.59,-153.32 54.8,-151.92"/>
</a>
</g>
</g>
<!-- pilot02_11_stac_1338437702 -->
<g id="node5" class="node">
<title>pilot02_11_stac_1338437702</title>
<g id="a_node5"><a xlink:title="5 &#160;Thomas &#160;or a clay">
<ellipse fill="black" stroke="black" cx="20" cy="-219.5" rx="3.5" ry="3.5"/>
</a>
</g>
</g>
<!-- pilot02_11_stac_1338427702&#45;&gt;pilot02_11_stac_1338437702 -->
<g id="edge7" class="edge">
<title>pilot02_11_stac_1338427702&#45;&gt;pilot02_11_stac_1338437702</title>
<g id="a_edge7"><a xlink:title="Alternation">
<path fill="none" stroke="#10495e" d="M20,-240.68C20,-237.58 20,-232.47 20,-228.16"/>
<polygon fill="#10495e" stroke="#10495e" points="21.75,-228.06 20,-223.06 18.25,-228.06 21.75,-228.06"/>
</a>
</g>
</g>
<!-- pilot02_11_stac_1338437702&#45;&gt;pilot02_11_stac_1338447702 -->
<!-- pilot02_11_stac_1338457702 -->
<g id="node7" class="node">
<title>pilot02_11_stac_1338457702</title>
<g id="a_node7"><a xlink:title="7 &#160;Thomas &#160;impossible...">
<ellipse fill="black" stroke="black" cx="40" cy="-169.5" rx="3.5" ry="3.5"/>
</a>
</g>
</g>
<!-- pilot02_11_stac_1338447702&#45;&gt;pilot02_11_stac_1338457702 -->
<g id="edge9" class="edge">
<title>pilot02_11_stac_1338447702&#45;&gt;pilot02_11_stac_1338457702</title>
<g id="a_edge9"><a xlink:title="Question_answer_pair">
<path fill="none" stroke="#12ffff" d="M40,-190.68C40,-187.58 40,-182.47 40,-178.16"/>
<polygon fill="#12ffff" stroke="#12ffff" points="41.75,-178.06 40,-173.06 38.25,-178.06 41.75,-178.06"/>
</a>
</g>
</g>
<!-- pilot02_11_stac_1338457702&#45;&gt;pilot02_11_stac_1338467702 -->
<g id="edge11" class="edge">
<title>pilot02_11_stac_1338457702&#45;&gt;pilot02_11_stac_1338467702</title>
<g id="a_edge11"><a xlink:title="Result">
<path fill="none" stroke="#10ff0f" d="M41.07,-166.04C42.46,-162.84 44.95,-157.12 46.94,-152.53"/>
<polygon fill="#10ff0f" stroke="#10ff0f" points="48.58,-153.16 48.97,-147.87 45.37,-151.76 48.58,-153.16"/>
</a>
</g>
</g>
<!-- pilot02_11_stac_1338477702 -->
<g id="node9" class="node">
<title>pilot02_11_stac_1338477702</title>
<g id="a_node9"><a xlink:title="9 &#160;Thomas &#160;k">
<ellipse fill="black" stroke="black" cx="34" cy="-119.5" rx="3.5" ry="3.5"/>
</a>
</g>
</g>
<!-- pilot02_11_stac_1338467702&#45;&gt;pilot02_11_stac_1338477702 -->
<g id="edge12" class="edge">
<title>pilot02_11_stac_1338467702&#45;&gt;pilot02_11_stac_1338477702</title>
<g id="a_edge12"><a xlink:title="Acknowledgement">
<path fill="none" stroke="#12ffff" d="M48.29,-141.04C46.01,-137.77 41.91,-131.87 38.68,-127.23"/>
<polygon fill="#12ffff" stroke="#12ffff" points="39.94,-125.98 35.65,-122.87 37.07,-127.98 39.94,-125.98"/>
</a>
</g>
</g>
<!-- pilot02_11_stac_1338507702 -->
<g id="node10" class="node">
<title>pilot02_11_stac_1338507702</title>
<g id="a_node10"><a xlink:title="10 &#160;Cat &#160;would you like one more what for an ore?">
<ellipse fill="black" stroke="black" cx="44" cy="-94.5" rx="3.5" ry="3.5"/>
</a>
</g>
</g>
<!-- pilot02_11_stac_1338467702&#45;&gt;pilot02_11_stac_1338507702 -->
<g id="edge13" class="edge">
<title>pilot02_11_stac_1338467702&#45;&gt;pilot02_11_stac_1338507702</title>
<g id="a_edge13"><a xlink:title="Continuation">
<path fill="none" stroke="#10491b" d="M49.75,-140.92C49.27,-136.04 48.17,-125.15 47,-116 46.46,-111.79 45.78,-107.1 45.2,-103.27"/>
<polygon fill="#10491b" stroke="#10491b" points="46.91,-102.83 44.42,-98.15 43.45,-103.36 46.91,-102.83"/>
</a>
</g>
</g>
<!-- pilot02_11_stac_1338477702&#45;&gt;pilot02_11_stac_1338507702 -->
<!-- pilot02_11_stac_1338517702 -->
<g id="node11" class="node">
<title>pilot02_11_stac_1338517702</title>
<g id="a_node11"><a xlink:title="11 &#160;Thomas &#160;one more wheat?">
<ellipse fill="black" stroke="black" cx="44" cy="-69.5" rx="3.5" ry="3.5"/>
</a>
</g>
</g>
<!-- pilot02_11_stac_1338507702&#45;&gt;pilot02_11_stac_1338517702 -->
<g id="edge14" class="edge">
<title>pilot02_11_stac_1338507702&#45;&gt;pilot02_11_stac_1338517702</title>
<g id="a_edge14"><a xlink:title="Q_Elab">
<path fill="none" stroke="#0d20ff" d="M44,-90.68C44,-87.58 44,-82.47 44,-78.16"/>
<polygon fill="#0d20ff" stroke="#0d20ff" points="45.75,-78.06 44,-73.06 42.25,-78.06 45.75,-78.06"/>
</a>
</g>
</g>
<!-- pilot02_11_stac_1338527702 -->
<g id="node12" class="node">
<title>pilot02_11_stac_1338527702</title>
<g id="a_node12"><a xlink:title="12 &#160;Cat &#160;one wheat">
<ellipse fill="black" stroke="black" cx="44" cy="-44.5" rx="3.5" ry="3.5"/>
</a>
</g>
</g>
<!-- pilot02_11_stac_1338517702&#45;&gt;pilot02_11_stac_1338527702 -->
<g id="edge15" class="edge">
<title>pilot02_11_stac_1338517702&#45;&gt;pilot02_11_stac_1338527702</title>
<g id="a_edge15"><a xlink:title="Question_answer_pair">
<path fill="none" stroke="#12ffff" d="M44,-65.68C44,-62.58 44,-57.47 44,-53.16"/>
<polygon fill="#12ffff" stroke="#12ffff" points="45.75,-53.06 44,-48.06 42.25,-53.06 45.75,-53.06"/>
</a>
</g>
</g>
<!-- pilot02_11_stac_1338537702 -->
<g id="node13" class="node">
<title>pilot02_11_stac_1338537702</title>
<g id="a_node13"><a xlink:title="13 &#160;Thomas &#160;kk">
<ellipse fill="black" stroke="black" cx="44" cy="-19.5" rx="3.5" ry="3.5"/>
</a>
</g>
</g>
<!-- pilot02_11_stac_1338527702&#45;&gt;pilot02_11_stac_1338537702 -->
<g id="edge16" class="edge">
<title>pilot02_11_stac_1338527702&#45;&gt;pilot02_11_stac_1338537702</title>
<g id="a_edge16"><a xlink:title="Acknowledgement">
<path fill="none" stroke="#12ffff" d="M44,-40.68C44,-37.58 44,-32.47 44,-28.16"/>
<polygon fill="#12ffff" stroke="#12ffff" points="45.75,-28.06 44,-23.06 42.25,-28.06 45.75,-28.06"/>
</a>
</g>
</g>
</g>
</svg>
