<?xml version="1.0" encoding="UTF-8" standalone="no"?>
<!DOCTYPE svg PUBLIC "-//W3C//DTD SVG 1.1//EN"
 "http://www.w3.org/Graphics/SVG/1.1/DTD/svg11.dtd">
<!-- Generated by graphviz version 3.0.0 (20220226.1711)
 -->
<!-- Title: 12_pilot02_70 Pages: 1 -->
<svg width="168pt" height="620pt"
 viewBox="0.00 0.00 168.00 620.00" xmlns="http://www.w3.org/2000/svg" xmlns:xlink="http://www.w3.org/1999/xlink">
<g id="graph0" class="graph" transform="scale(1 1) rotate(0) translate(4 616)">
<title>12_pilot02_70</title>
<polygon fill="white" stroke="transparent" points="-4,4 -4,-616 164,-616 164,4 -4,4"/>
<g id="clust1" class="cluster">
<title>cluster_12_pilot02_70</title>
<polygon fill="none" stroke="black" points="8,-8 8,-604 152,-604 152,-8 8,-8"/>
<text text-anchor="middle" x="23" y="-588.8" font-family="Times,serif" font-size="14.00">70</text>
</g>
<!-- pilot02_12_stac_1338387704 -->
<g id="node1" class="node">
<title>pilot02_12_stac_1338387704</title>
<g id="a_node1"><a xlink:title="1 &#160;Cat &#160;so if i want to put a settlement down">
<ellipse fill="black" stroke="black" cx="93" cy="-569.5" rx="3.5" ry="3.5"/>
</a>
</g>
</g>
<!-- pilot02_12_stac_1338397704 -->
<g id="node2" class="node">
<title>pilot02_12_stac_1338397704</title>
<g id="a_node2"><a xlink:title="2 &#160;Cat &#160;where can i do so?">
<ellipse fill="black" stroke="black" cx="70" cy="-544.5" rx="3.5" ry="3.5"/>
</a>
</g>
</g>
<!-- pilot02_12_stac_1338387704&#45;&gt;pilot02_12_stac_1338397704 -->
<g id="edge12" class="edge">
<title>pilot02_12_stac_1338387704&#45;&gt;pilot02_12_stac_1338397704</title>
<g id="a_edge12"><a xlink:title="Conditional">
<path fill="none" stroke="#1c931a" d="M90.88,-566.38C87.54,-563.04 80.95,-556.45 76.06,-551.56"/>
<polygon fill="#1c931a" stroke="#1c931a" points="77.23,-550.26 72.46,-547.96 74.76,-552.73 77.23,-550.26"/>
</a>
</g>
</g>
<!-- pilot02_12_stac_1338407704 -->
<g id="node3" class="node">
<title>pilot02_12_stac_1338407704</title>
<g id="a_node3"><a xlink:title="3 &#160;Thomas &#160;on one of your roads">
<ellipse fill="black" stroke="black" cx="90" cy="-519.5" rx="3.5" ry="3.5"/>
</a>
</g>
</g>
<!-- pilot02_12_stac_1338387704&#45;&gt;pilot02_12_stac_1338407704 -->
<g id="edge13" class="edge">
<title>pilot02_12_stac_1338387704&#45;&gt;pilot02_12_stac_1338407704</title>
<g id="a_edge13"><a xlink:title="Question_answer_pair">
<path fill="none" stroke="#12ffff" d="M92.84,-565.92C92.4,-558.95 91.19,-539.55 90.5,-528.49"/>
<polygon fill="#12ffff" stroke="#12ffff" points="92.24,-528.21 90.18,-523.33 88.74,-528.43 92.24,-528.21"/>
</a>
</g>
</g>
<!-- pilot02_12_stac_1338417704 -->
<g id="node4" class="node">
<title>pilot02_12_stac_1338417704</title>
<g id="a_node4"><a xlink:title="4 &#160;william &#160;on any corner that has distance at least two to all other settlements">
<ellipse fill="black" stroke="black" cx="113" cy="-494.5" rx="3.5" ry="3.5"/>
</a>
</g>
</g>
<!-- pilot02_12_stac_1338387704&#45;&gt;pilot02_12_stac_1338417704 -->
<g id="edge14" class="edge">
<title>pilot02_12_stac_1338387704&#45;&gt;pilot02_12_stac_1338417704</title>
<g id="a_edge14"><a xlink:title="Question_answer_pair">
<path fill="none" stroke="#12ffff" d="M93.76,-565.73C96.58,-555.43 106.52,-519.14 110.9,-503.15"/>
<polygon fill="#12ffff" stroke="#12ffff" points="112.69,-503.26 112.32,-497.97 109.31,-502.33 112.69,-503.26"/>
</a>
</g>
</g>
<!-- pilot02_12_stac_1338397704&#45;&gt;pilot02_12_stac_1338407704 -->
<!-- pilot02_12_stac_1338407704&#45;&gt;pilot02_12_stac_1338417704 -->
<!-- pilot02_12_stac_1338457704 -->
<g id="node6" class="node">
<title>pilot02_12_stac_1338457704</title>
<g id="a_node6"><a xlink:title="6 &#160;Cat &#160;thx">
<ellipse fill="black" stroke="black" cx="110" cy="-444.5" rx="3.5" ry="3.5"/>
</a>
</g>
</g>
<!-- pilot02_12_stac_1338407704&#45;&gt;pilot02_12_stac_1338457704 -->
<g id="edge16" class="edge">
<title>pilot02_12_stac_1338407704&#45;&gt;pilot02_12_stac_1338457704</title>
<g id="a_edge16"><a xlink:title="Acknowledgement">
<path fill="none" stroke="#12ffff" d="M90.76,-515.73C93.58,-505.43 103.52,-469.14 107.9,-453.15"/>
<polygon fill="#12ffff" stroke="#12ffff" points="109.69,-453.26 109.32,-447.97 106.31,-452.33 109.69,-453.26"/>
</a>
</g>
</g>
<!-- pilot02_12_stac_1338427704 -->
<g id="node5" class="node">
<title>pilot02_12_stac_1338427704</title>
<g id="a_node5"><a xlink:title="5 &#160;william &#160;connected yes">
<ellipse fill="black" stroke="black" cx="133" cy="-469.5" rx="3.5" ry="3.5"/>
</a>
</g>
</g>
<!-- pilot02_12_stac_1338417704&#45;&gt;pilot02_12_stac_1338427704 -->
<g id="edge15" class="edge">
<title>pilot02_12_stac_1338417704&#45;&gt;pilot02_12_stac_1338427704</title>
<g id="a_edge15"><a xlink:title="Continuation">
<path fill="none" stroke="#10491b" d="M114.85,-491.38C117.69,-488.11 123.25,-481.71 127.48,-476.85"/>
<polygon fill="#10491b" stroke="#10491b" points="128.9,-477.88 130.86,-472.96 126.26,-475.59 128.9,-477.88"/>
</a>
</g>
</g>
<!-- pilot02_12_stac_1338417704&#45;&gt;pilot02_12_stac_1338457704 -->
<g id="edge17" class="edge">
<title>pilot02_12_stac_1338417704&#45;&gt;pilot02_12_stac_1338457704</title>
<g id="a_edge17"><a xlink:title="Acknowledgement">
<path fill="none" stroke="#12ffff" d="M112.84,-490.92C112.4,-483.95 111.19,-464.55 110.5,-453.49"/>
<polygon fill="#12ffff" stroke="#12ffff" points="112.24,-453.21 110.18,-448.33 108.74,-453.43 112.24,-453.21"/>
</a>
</g>
</g>
<!-- pilot02_12_stac_1338427704&#45;&gt;pilot02_12_stac_1338457704 -->
<!-- pilot02_12_stac_1338467704 -->
<g id="node7" class="node">
<title>pilot02_12_stac_1338467704</title>
<g id="a_node7"><a xlink:title="7 &#160;Cat &#160;well done">
<ellipse fill="black" stroke="black" cx="110" cy="-419.5" rx="3.5" ry="3.5"/>
</a>
</g>
</g>
<!-- pilot02_12_stac_1338457704&#45;&gt;pilot02_12_stac_1338467704 -->
<g id="edge18" class="edge">
<title>pilot02_12_stac_1338457704&#45;&gt;pilot02_12_stac_1338467704</title>
<g id="a_edge18"><a xlink:title="Comment">
<path fill="none" stroke="#ff8200" d="M110,-440.68C110,-437.58 110,-432.47 110,-428.16"/>
<polygon fill="#ff8200" stroke="#ff8200" points="111.75,-428.06 110,-423.06 108.25,-428.06 111.75,-428.06"/>
</a>
</g>
</g>
<!-- pilot02_12_stac_1338477704 -->
<g id="node8" class="node">
<title>pilot02_12_stac_1338477704</title>
<g id="a_node8"><a xlink:title="8 &#160;Thomas &#160;3 knights?">
<ellipse fill="black" stroke="black" cx="80" cy="-394.5" rx="3.5" ry="3.5"/>
</a>
</g>
</g>
<!-- pilot02_12_stac_1338467704&#45;&gt;pilot02_12_stac_1338477704 -->
<g id="edge19" class="edge">
<title>pilot02_12_stac_1338467704&#45;&gt;pilot02_12_stac_1338477704</title>
<g id="a_edge19"><a xlink:title="Clarification_question">
<path fill="none" stroke="#ff40d1" d="M107.65,-416.7C103.16,-413.25 93.22,-405.64 86.57,-400.53"/>
<polygon fill="#ff40d1" stroke="#ff40d1" points="87.29,-398.89 82.26,-397.23 85.16,-401.66 87.29,-398.89"/>
</a>
</g>
</g>
<!-- pilot02_12_stac_1338487704 -->
<g id="node9" class="node">
<title>pilot02_12_stac_1338487704</title>
<g id="a_node9"><a xlink:title="9 &#160;william &#160;thanks for playing">
<ellipse fill="black" stroke="black" cx="80" cy="-369.5" rx="3.5" ry="3.5"/>
</a>
</g>
</g>
<!-- pilot02_12_stac_1338467704&#45;&gt;pilot02_12_stac_1338487704 -->
<g id="edge20" class="edge">
<title>pilot02_12_stac_1338467704&#45;&gt;pilot02_12_stac_1338487704</title>
<g id="a_edge20"><a xlink:title="Acknowledgement">
<path fill="none" stroke="#12ffff" d="M108.6,-416.21C105.7,-411.49 98.84,-400.32 93,-391 90.11,-386.38 86.82,-381.19 84.27,-377.19"/>
<polygon fill="#12ffff" stroke="#12ffff" points="85.69,-376.17 81.53,-372.89 82.74,-378.05 85.69,-376.17"/>
</a>
</g>
</g>
<!-- pilot02_12_stac_1463480862 -->
<g id="node13" class="node">
<title>pilot02_12_stac_1463480862</title>
<g id="a_node13"><a xlink:title="13 &#160;Markus &#160;Wow, that was fast.">
<ellipse fill="black" stroke="black" cx="80" cy="-269.5" rx="3.5" ry="3.5"/>
</a>
</g>
</g>
<!-- pilot02_12_stac_1338467704&#45;&gt;pilot02_12_stac_1463480862 -->
<g id="edge24" class="edge">
<title>pilot02_12_stac_1338467704&#45;&gt;pilot02_12_stac_1463480862</title>
<g id="a_edge24"><a xlink:title="Comment">
<path fill="none" stroke="#ff8200" d="M111.2,-415.96C114.42,-408.92 123,-388.46 123,-370.5 123,-370.5 123,-370.5 123,-318.5 123,-297.35 99.56,-281.27 87.29,-274.3"/>
<polygon fill="#ff8200" stroke="#ff8200" points="88.05,-272.72 82.82,-271.88 86.39,-275.8 88.05,-272.72"/>
</a>
</g>
</g>
<!-- pilot02_12_stac_1463480865 -->
<g id="node14" class="node">
<title>pilot02_12_stac_1463480865</title>
<g id="a_node14"><a xlink:title="14 &#160;Markus &#160;Well done.">
<ellipse fill="black" stroke="black" cx="68" cy="-244.5" rx="3.5" ry="3.5"/>
</a>
</g>
</g>
<!-- pilot02_12_stac_1338467704&#45;&gt;pilot02_12_stac_1463480865 -->
<g id="edge27" class="edge">
<title>pilot02_12_stac_1338467704&#45;&gt;pilot02_12_stac_1463480865</title>
<g id="a_edge27"><a xlink:title="Comment">
<path fill="none" stroke="#ff8200" d="M112.59,-416.63C120.37,-410.79 143,-391.94 143,-370.5 143,-370.5 143,-370.5 143,-293.5 143,-262.12 95.84,-250.32 76.31,-246.78"/>
<polygon fill="#ff8200" stroke="#ff8200" points="76.44,-245.03 71.22,-245.94 75.87,-248.49 76.44,-245.03"/>
</a>
</g>
</g>
<!-- pilot02_12_stac_1338477704&#45;&gt;pilot02_12_stac_1338487704 -->
<!-- pilot02_12_stac_1338497704 -->
<g id="node10" class="node">
<title>pilot02_12_stac_1338497704</title>
<g id="a_node10"><a xlink:title="10 &#160;Thomas &#160;gg">
<ellipse fill="black" stroke="black" cx="69" cy="-344.5" rx="3.5" ry="3.5"/>
</a>
</g>
</g>
<!-- pilot02_12_stac_1338487704&#45;&gt;pilot02_12_stac_1338497704 -->
<g id="edge21" class="edge">
<title>pilot02_12_stac_1338487704&#45;&gt;pilot02_12_stac_1338497704</title>
<g id="a_edge21"><a xlink:title="Comment">
<path fill="none" stroke="#ff8200" d="M78.82,-366.04C77.29,-362.84 74.56,-357.12 72.36,-352.53"/>
<polygon fill="#ff8200" stroke="#ff8200" points="73.87,-351.63 70.14,-347.87 70.71,-353.14 73.87,-351.63"/>
</a>
</g>
</g>
<!-- pilot02_12_stac_1338487704&#45;&gt;pilot02_12_stac_1463480862 -->
<g id="edge25" class="edge">
<title>pilot02_12_stac_1338487704&#45;&gt;pilot02_12_stac_1463480862</title>
<g id="a_edge25"><a xlink:title="Comment">
<path fill="none" stroke="#ff8200" d="M81.2,-366.04C85.75,-356.34 101.37,-319.82 93,-291 91.48,-285.76 88.18,-280.58 85.28,-276.74"/>
<polygon fill="#ff8200" stroke="#ff8200" points="86.5,-275.47 81.99,-272.69 83.78,-277.67 86.5,-275.47"/>
</a>
</g>
</g>
<!-- pilot02_12_stac_1338487704&#45;&gt;pilot02_12_stac_1463480865 -->
<g id="edge28" class="edge">
<title>pilot02_12_stac_1338487704&#45;&gt;pilot02_12_stac_1463480865</title>
<g id="a_edge28"><a xlink:title="Comment">
<path fill="none" stroke="#ff8200" d="M76.61,-367.71C63.53,-364.46 17,-350.75 17,-320.5 17,-320.5 17,-320.5 17,-293.5 17,-270.1 45.82,-254.76 60.13,-248.58"/>
<polygon fill="#ff8200" stroke="#ff8200" points="61,-250.12 64.96,-246.61 59.67,-246.88 61,-250.12"/>
</a>
</g>
</g>
<!-- pilot02_12_stac_1338507704 -->
<g id="node11" class="node">
<title>pilot02_12_stac_1338507704</title>
<g id="a_node11"><a xlink:title="11 &#160;william &#160;yiu">
<ellipse fill="black" stroke="black" cx="80" cy="-319.5" rx="3.5" ry="3.5"/>
</a>
</g>
</g>
<!-- pilot02_12_stac_1338497704&#45;&gt;pilot02_12_stac_1338507704 -->
<g id="edge22" class="edge">
<title>pilot02_12_stac_1338497704&#45;&gt;pilot02_12_stac_1338507704</title>
<g id="a_edge22"><a xlink:title="Acknowledgement">
<path fill="none" stroke="#12ffff" d="M70.18,-341.04C71.71,-337.84 74.44,-332.12 76.64,-327.53"/>
<polygon fill="#12ffff" stroke="#12ffff" points="78.29,-328.14 78.86,-322.87 75.13,-326.63 78.29,-328.14"/>
</a>
</g>
</g>
<!-- pilot02_12_stac_1338497704&#45;&gt;pilot02_12_stac_1463480862 -->
<g id="edge26" class="edge">
<title>pilot02_12_stac_1338497704&#45;&gt;pilot02_12_stac_1463480862</title>
<g id="a_edge26"><a xlink:title="Comment">
<path fill="none" stroke="#ff8200" d="M68.47,-341.03C66.95,-333.42 62.94,-309.65 68,-291 69.4,-285.85 72.45,-280.67 75.12,-276.81"/>
<polygon fill="#ff8200" stroke="#ff8200" points="76.58,-277.77 78.16,-272.71 73.77,-275.69 76.58,-277.77"/>
</a>
</g>
</g>
<!-- pilot02_12_stac_1338497704&#45;&gt;pilot02_12_stac_1463480865 -->
<g id="edge29" class="edge">
<title>pilot02_12_stac_1338497704&#45;&gt;pilot02_12_stac_1463480865</title>
<g id="a_edge29"><a xlink:title="Comment">
<path fill="none" stroke="#ff8200" d="M68.83,-340.85C68.59,-336.94 68.16,-329.41 68,-323 67.38,-297.57 67.68,-267.44 67.87,-253.41"/>
<polygon fill="#ff8200" stroke="#ff8200" points="69.63,-253.2 67.95,-248.18 66.13,-253.15 69.63,-253.2"/>
</a>
</g>
</g>
<!-- pilot02_12_stac_1338517704 -->
<g id="node12" class="node">
<title>pilot02_12_stac_1338517704</title>
<g id="a_node12"><a xlink:title="12 &#160;william &#160;yup">
<ellipse fill="black" stroke="black" cx="80" cy="-294.5" rx="3.5" ry="3.5"/>
</a>
</g>
</g>
<!-- pilot02_12_stac_1338507704&#45;&gt;pilot02_12_stac_1338517704 -->
<g id="edge23" class="edge">
<title>pilot02_12_stac_1338507704&#45;&gt;pilot02_12_stac_1338517704</title>
<g id="a_edge23"><a xlink:title="Correction">
<path fill="none" stroke="#ff174e" d="M80,-315.68C80,-312.58 80,-307.47 80,-303.16"/>
<polygon fill="#ff174e" stroke="#ff174e" points="81.75,-303.06 80,-298.06 78.25,-303.06 81.75,-303.06"/>
</a>
</g>
</g>
<!-- pilot02_12_stac_1338517704&#45;&gt;pilot02_12_stac_1463480862 -->
<!-- pilot02_12_stac_1463480862&#45;&gt;pilot02_12_stac_1463480865 -->
<!-- pilot02_12_stac_1463480868 -->
<g id="node15" class="node">
<title>pilot02_12_stac_1463480868</title>
<g id="a_node15"><a xlink:title="15 &#160;Markus &#160;Please remember to send me your questionnaires.">
<ellipse fill="black" stroke="black" cx="68" cy="-219.5" rx="3.5" ry="3.5"/>
</a>
</g>
</g>
<!-- pilot02_12_stac_1463480865&#45;&gt;pilot02_12_stac_1463480868 -->
<g id="edge30" class="edge">
<title>pilot02_12_stac_1463480865&#45;&gt;pilot02_12_stac_1463480868</title>
<g id="a_edge30"><a xlink:title="Continuation">
<path fill="none" stroke="#10491b" d="M68,-240.68C68,-237.58 68,-232.47 68,-228.16"/>
<polygon fill="#10491b" stroke="#10491b" points="69.75,-228.06 68,-223.06 66.25,-228.06 69.75,-228.06"/>
</a>
</g>
</g>
<!-- pilot02_12_stac_1338527704 -->
<g id="node16" class="node">
<title>pilot02_12_stac_1338527704</title>
<g id="a_node16"><a xlink:title="16 &#160;william &#160;k">
<ellipse fill="black" stroke="black" cx="45" cy="-194.5" rx="3.5" ry="3.5"/>
</a>
</g>
</g>
<!-- pilot02_12_stac_1463480868&#45;&gt;pilot02_12_stac_1338527704 -->
<g id="edge31" class="edge">
<title>pilot02_12_stac_1463480868&#45;&gt;pilot02_12_stac_1338527704</title>
<g id="a_edge31"><a xlink:title="Acknowledgement">
<path fill="none" stroke="#12ffff" d="M65.88,-216.38C62.54,-213.04 55.95,-206.45 51.06,-201.56"/>
<polygon fill="#12ffff" stroke="#12ffff" points="52.23,-200.26 47.46,-197.96 49.76,-202.73 52.23,-200.26"/>
</a>
</g>
</g>
<!-- pilot02_12_stac_1338537704 -->
<g id="node17" class="node">
<title>pilot02_12_stac_1338537704</title>
<g id="a_node17"><a xlink:title="17 &#160;Thomas &#160;ok">
<ellipse fill="black" stroke="black" cx="66" cy="-169.5" rx="3.5" ry="3.5"/>
</a>
</g>
</g>
<!-- pilot02_12_stac_1463480868&#45;&gt;pilot02_12_stac_1338537704 -->
<g id="edge32" class="edge">
<title>pilot02_12_stac_1463480868&#45;&gt;pilot02_12_stac_1338537704</title>
<g id="a_edge32"><a xlink:title="Acknowledgement">
<path fill="none" stroke="#12ffff" d="M67.89,-215.92C67.6,-208.95 66.79,-189.55 66.33,-178.49"/>
<polygon fill="#12ffff" stroke="#12ffff" points="68.07,-178.26 66.12,-173.33 64.58,-178.4 68.07,-178.26"/>
</a>
</g>
</g>
<!-- pilot02_12_stac_1338547704 -->
<g id="node18" class="node">
<title>pilot02_12_stac_1338547704</title>
<g id="a_node18"><a xlink:title="18 &#160;Cat &#160;ok">
<ellipse fill="black" stroke="black" cx="87" cy="-144.5" rx="3.5" ry="3.5"/>
</a>
</g>
</g>
<!-- pilot02_12_stac_1463480868&#45;&gt;pilot02_12_stac_1338547704 -->
<g id="edge33" class="edge">
<title>pilot02_12_stac_1463480868&#45;&gt;pilot02_12_stac_1338547704</title>
<g id="a_edge33"><a xlink:title="Acknowledgement">
<path fill="none" stroke="#12ffff" d="M68.72,-215.73C71.4,-205.43 80.85,-169.14 85.01,-153.15"/>
<polygon fill="#12ffff" stroke="#12ffff" points="86.79,-153.25 86.36,-147.97 83.4,-152.37 86.79,-153.25"/>
</a>
</g>
</g>
<!-- pilot02_12_stac_1338527704&#45;&gt;pilot02_12_stac_1338537704 -->
<!-- pilot02_12_stac_1338557704 -->
<g id="node19" class="node">
<title>pilot02_12_stac_1338557704</title>
<g id="a_node19"><a xlink:title="19 &#160;Cat &#160;bye then">
<ellipse fill="black" stroke="black" cx="64" cy="-119.5" rx="3.5" ry="3.5"/>
</a>
</g>
</g>
<!-- pilot02_12_stac_1338527704&#45;&gt;pilot02_12_stac_1338557704 -->
<g id="edge34" class="edge">
<title>pilot02_12_stac_1338527704&#45;&gt;pilot02_12_stac_1338557704</title>
<g id="a_edge34"><a xlink:title="Comment">
<path fill="none" stroke="#ff8200" d="M45.72,-190.73C48.4,-180.43 57.85,-144.14 62.01,-128.15"/>
<polygon fill="#ff8200" stroke="#ff8200" points="63.79,-128.25 63.36,-122.97 60.4,-127.37 63.79,-128.25"/>
</a>
</g>
</g>
<!-- pilot02_12_stac_1338537704&#45;&gt;pilot02_12_stac_1338547704 -->
<!-- pilot02_12_stac_1338537704&#45;&gt;pilot02_12_stac_1338557704 -->
<g id="edge35" class="edge">
<title>pilot02_12_stac_1338537704&#45;&gt;pilot02_12_stac_1338557704</title>
<g id="a_edge35"><a xlink:title="Comment">
<path fill="none" stroke="#ff8200" d="M65.89,-165.92C65.6,-158.95 64.79,-139.55 64.33,-128.49"/>
<polygon fill="#ff8200" stroke="#ff8200" points="66.07,-128.26 64.12,-123.33 62.58,-128.4 66.07,-128.26"/>
</a>
</g>
</g>
<!-- pilot02_12_stac_1338547704&#45;&gt;pilot02_12_stac_1338557704 -->
<g id="edge36" class="edge">
<title>pilot02_12_stac_1338547704&#45;&gt;pilot02_12_stac_1338557704</title>
<g id="a_edge36"><a xlink:title="Continuation">
<path fill="none" stroke="#10491b" d="M84.88,-141.38C81.54,-138.04 74.95,-131.45 70.06,-126.56"/>
<polygon fill="#10491b" stroke="#10491b" points="71.23,-125.26 66.46,-122.96 68.76,-127.73 71.23,-125.26"/>
</a>
</g>
</g>
<!-- pilot02_12_stac_1463480889 -->
<g id="node20" class="node">
<title>pilot02_12_stac_1463480889</title>
<g id="a_node20"><a xlink:title="20 &#160;Markus &#160;I&#39;m in IF 3.24.">
<ellipse fill="black" stroke="black" cx="64" cy="-94.5" rx="3.5" ry="3.5"/>
</a>
</g>
</g>
<!-- pilot02_12_stac_1338557704&#45;&gt;pilot02_12_stac_1463480889 -->
<!-- pilot02_12_stac_1463480892 -->
<g id="node21" class="node">
<title>pilot02_12_stac_1463480892</title>
<g id="a_node21"><a xlink:title="21 &#160;Markus &#160;Should be there most of the time this week.">
<ellipse fill="black" stroke="black" cx="41" cy="-69.5" rx="3.5" ry="3.5"/>
</a>
</g>
</g>
<!-- pilot02_12_stac_1463480889&#45;&gt;pilot02_12_stac_1463480892 -->
<g id="edge37" class="edge">
<title>pilot02_12_stac_1463480889&#45;&gt;pilot02_12_stac_1463480892</title>
<g id="a_edge37"><a xlink:title="Elaboration">
<path fill="none" stroke="#a621c7" d="M61.88,-91.38C58.54,-88.04 51.95,-81.45 47.06,-76.56"/>
<polygon fill="#a621c7" stroke="#a621c7" points="48.23,-75.26 43.46,-72.96 45.76,-77.73 48.23,-75.26"/>
</a>
</g>
</g>
<!-- pilot02_12_stac_1463480895 -->
<g id="node22" class="node">
<title>pilot02_12_stac_1463480895</title>
<g id="a_node22"><a xlink:title="22 &#160;Markus &#160;Thanks again!">
<ellipse fill="black" stroke="black" cx="61" cy="-44.5" rx="3.5" ry="3.5"/>
</a>
</g>
</g>
<!-- pilot02_12_stac_1463480889&#45;&gt;pilot02_12_stac_1463480895 -->
<g id="edge38" class="edge">
<title>pilot02_12_stac_1463480889&#45;&gt;pilot02_12_stac_1463480895</title>
<g id="a_edge38"><a xlink:title="Comment">
<path fill="none" stroke="#ff8200" d="M63.84,-90.92C63.4,-83.95 62.19,-64.55 61.5,-53.49"/>
<polygon fill="#ff8200" stroke="#ff8200" points="63.24,-53.21 61.18,-48.33 59.74,-53.43 63.24,-53.21"/>
</a>
</g>
</g>
<!-- pilot02_12_stac_1338577704 -->
<g id="node23" class="node">
<title>pilot02_12_stac_1338577704</title>
<g id="a_node23"><a xlink:title="23 &#160;Cat &#160;ok, I&#39;ll come by">
<ellipse fill="black" stroke="black" cx="72" cy="-19.5" rx="3.5" ry="3.5"/>
</a>
</g>
</g>
<!-- pilot02_12_stac_1463480889&#45;&gt;pilot02_12_stac_1338577704 -->
<g id="edge39" class="edge">
<title>pilot02_12_stac_1463480889&#45;&gt;pilot02_12_stac_1338577704</title>
<g id="a_edge39"><a xlink:title="Acknowledgement">
<path fill="none" stroke="#12ffff" d="M65.02,-90.69C67.75,-82.89 74.94,-60.28 74,-41 73.79,-36.78 73.35,-32.09 72.94,-28.26"/>
<polygon fill="#12ffff" stroke="#12ffff" points="74.66,-27.91 72.34,-23.15 71.18,-28.32 74.66,-27.91"/>
</a>
</g>
</g>
<!-- pilot02_12_stac_1463480892&#45;&gt;pilot02_12_stac_1463480895 -->
<!-- pilot02_12_stac_1463480895&#45;&gt;pilot02_12_stac_1338577704 -->
</g>
</svg>
