<?xml version="1.0" encoding="UTF-8" standalone="no"?>
<!DOCTYPE svg PUBLIC "-//W3C//DTD SVG 1.1//EN"
 "http://www.w3.org/Graphics/SVG/1.1/DTD/svg11.dtd">
<!-- Generated by graphviz version 3.0.0 (20220226.1711)
 -->
<!-- Title: 2_s2_leagueM_game4_1056 Pages: 1 -->
<svg width="68pt" height="170pt"
 viewBox="0.00 0.00 68.00 170.00" xmlns="http://www.w3.org/2000/svg" xmlns:xlink="http://www.w3.org/1999/xlink">
<g id="graph0" class="graph" transform="scale(1 1) rotate(0) translate(4 166)">
<title>2_s2_leagueM_game4_1056</title>
<polygon fill="white" stroke="transparent" points="-4,4 -4,-166 64,-166 64,4 -4,4"/>
<g id="clust1" class="cluster">
<title>cluster_2_s2_leagueM_game4_1056</title>
<polygon fill="none" stroke="black" points="8,-8 8,-154 52,-154 52,-8 8,-8"/>
<text text-anchor="middle" x="30" y="-138.8" font-family="Times,serif" font-size="14.00">1056</text>
</g>
<!-- s2_leagueM_game4_02_stac_1413791915 -->
<g id="node1" class="node">
<title>s2_leagueM_game4_02_stac_1413791915</title>
<g id="a_node1"><a xlink:title="1 &#160;CheshireCatGrin &#160;inca, are you still interested in wood for ore?">
<ellipse fill="black" stroke="black" cx="30" cy="-119.5" rx="3.5" ry="3.5"/>
</a>
</g>
</g>
<!-- s2_leagueM_game4_02_stac_1413791918 -->
<g id="node2" class="node">
<title>s2_leagueM_game4_02_stac_1413791918</title>
<g id="a_node2"><a xlink:title="2 &#160;inca &#160;yep i&#39;m up for that">
<ellipse fill="black" stroke="black" cx="20" cy="-94.5" rx="3.5" ry="3.5"/>
</a>
</g>
</g>
<!-- s2_leagueM_game4_02_stac_1413791915&#45;&gt;s2_leagueM_game4_02_stac_1413791918 -->
<g id="edge2" class="edge">
<title>s2_leagueM_game4_02_stac_1413791915&#45;&gt;s2_leagueM_game4_02_stac_1413791918</title>
<g id="a_edge2"><a xlink:title="Question_answer_pair">
<path fill="none" stroke="#12ffff" d="M28.93,-116.04C27.54,-112.84 25.05,-107.12 23.06,-102.53"/>
<polygon fill="#12ffff" stroke="#12ffff" points="24.63,-101.76 21.03,-97.87 21.42,-103.16 24.63,-101.76"/>
</a>
</g>
</g>
<!-- s2_leagueM_game4_02_stac_1413791921 -->
<g id="node3" class="node">
<title>s2_leagueM_game4_02_stac_1413791921</title>
<g id="a_node3"><a xlink:title="3 &#160;CheshireCatGrin &#160;i could do 1 for 1 or 2 for 2?">
<ellipse fill="black" stroke="black" cx="30" cy="-69.5" rx="3.5" ry="3.5"/>
</a>
</g>
</g>
<!-- s2_leagueM_game4_02_stac_1413791915&#45;&gt;s2_leagueM_game4_02_stac_1413791921 -->
<g id="edge3" class="edge">
<title>s2_leagueM_game4_02_stac_1413791915&#45;&gt;s2_leagueM_game4_02_stac_1413791921</title>
<g id="a_edge3"><a xlink:title="Q_Elab">
<path fill="none" stroke="#0d20ff" d="M30.59,-115.93C31.65,-111.07 33.67,-100.2 33,-91 32.69,-86.76 32.03,-82.07 31.4,-78.25"/>
<polygon fill="#0d20ff" stroke="#0d20ff" points="33.1,-77.76 30.51,-73.14 29.65,-78.37 33.1,-77.76"/>
</a>
</g>
</g>
<!-- s2_leagueM_game4_02_stac_1413791918&#45;&gt;s2_leagueM_game4_02_stac_1413791921 -->
<!-- s2_leagueM_game4_02_stac_1413791925 -->
<g id="node4" class="node">
<title>s2_leagueM_game4_02_stac_1413791925</title>
<g id="a_node4"><a xlink:title="4 &#160;inca &#160;if that&#39;s OK">
<ellipse fill="black" stroke="black" cx="30" cy="-44.5" rx="3.5" ry="3.5"/>
</a>
</g>
</g>
<!-- s2_leagueM_game4_02_stac_1413791921&#45;&gt;s2_leagueM_game4_02_stac_1413791925 -->
<g id="edge4" class="edge">
<title>s2_leagueM_game4_02_stac_1413791921&#45;&gt;s2_leagueM_game4_02_stac_1413791925</title>
<g id="a_edge4"><a xlink:title="Question_answer_pair">
<path fill="none" stroke="#12ffff" d="M30,-65.68C30,-62.58 30,-57.47 30,-53.16"/>
<polygon fill="#12ffff" stroke="#12ffff" points="31.75,-53.06 30,-48.06 28.25,-53.06 31.75,-53.06"/>
</a>
</g>
</g>
<!-- s2_leagueM_game4_02_stac_1413791928 -->
<g id="node5" class="node">
<title>s2_leagueM_game4_02_stac_1413791928</title>
<g id="a_node5"><a xlink:title="5 &#160;CheshireCatGrin &#160;cool">
<ellipse fill="black" stroke="black" cx="30" cy="-19.5" rx="3.5" ry="3.5"/>
</a>
</g>
</g>
<!-- s2_leagueM_game4_02_stac_1413791925&#45;&gt;s2_leagueM_game4_02_stac_1413791928 -->
<g id="edge5" class="edge">
<title>s2_leagueM_game4_02_stac_1413791925&#45;&gt;s2_leagueM_game4_02_stac_1413791928</title>
<g id="a_edge5"><a xlink:title="Acknowledgement">
<path fill="none" stroke="#12ffff" d="M30,-40.68C30,-37.58 30,-32.47 30,-28.16"/>
<polygon fill="#12ffff" stroke="#12ffff" points="31.75,-28.06 30,-23.06 28.25,-28.06 31.75,-28.06"/>
</a>
</g>
</g>
</g>
</svg>
