<?xml version="1.0" encoding="UTF-8" standalone="no"?>
<!DOCTYPE svg PUBLIC "-//W3C//DTD SVG 1.1//EN"
 "http://www.w3.org/Graphics/SVG/1.1/DTD/svg11.dtd">
<!-- Generated by graphviz version 3.0.0 (20220226.1711)
 -->
<!-- Title: 4_s2_league4_game2_763 Pages: 1 -->
<svg width="134pt" height="370pt"
 viewBox="0.00 0.00 134.00 370.00" xmlns="http://www.w3.org/2000/svg" xmlns:xlink="http://www.w3.org/1999/xlink">
<g id="graph0" class="graph" transform="scale(1 1) rotate(0) translate(4 366)">
<title>4_s2_league4_game2_763</title>
<polygon fill="white" stroke="transparent" points="-4,4 -4,-366 130,-366 130,4 -4,4"/>
<g id="clust1" class="cluster">
<title>cluster_4_s2_league4_game2_763</title>
<polygon fill="none" stroke="black" points="8,-8 8,-354 118,-354 118,-8 8,-8"/>
<text text-anchor="middle" x="26.5" y="-338.8" font-family="Times,serif" font-size="14.00">763</text>
</g>
<!-- s2_league4_game2_04_stac_1399316559 -->
<g id="node1" class="node">
<title>s2_league4_game2_04_stac_1399316559</title>
<g id="a_node1"><a xlink:title="1 &#160;ztime &#160;ahh 7 again.. sorry">
<ellipse fill="black" stroke="black" cx="63" cy="-319.5" rx="3.5" ry="3.5"/>
</a>
</g>
</g>
<!-- 1_0 -->
<!-- s2_league4_game2_04_stac_1399316559&#45;&gt;1_0 -->
<!-- s2_league4_game2_04_stac_1399316575 -->
<g id="node9" class="node">
<title>s2_league4_game2_04_stac_1399316575</title>
<g id="a_node9"><a xlink:title="6 &#160;ztime &#160;anyone have clay?">
<ellipse fill="black" stroke="black" cx="53" cy="-194.5" rx="3.5" ry="3.5"/>
</a>
</g>
</g>
<!-- s2_league4_game2_04_stac_1399316559&#45;&gt;s2_league4_game2_04_stac_1399316575 -->
<g id="edge22" class="edge">
<title>s2_league4_game2_04_stac_1399316559&#45;&gt;s2_league4_game2_04_stac_1399316575</title>
<g id="a_edge22"><a xlink:title="Continuation">
<path fill="none" stroke="#10491b" d="M64.11,-315.95C67.08,-308.89 75,-288.37 75,-270.5 75,-270.5 75,-270.5 75,-243.5 75,-227.41 64.66,-210.82 58.16,-201.98"/>
<polygon fill="#10491b" stroke="#10491b" points="59.47,-200.81 55.03,-197.92 56.69,-202.95 59.47,-200.81"/>
</a>
</g>
</g>
<!-- s2_league4_game2_04_stac_1399316562 -->
<g id="node25" class="node">
<title>s2_league4_game2_04_stac_1399316562</title>
<g id="a_node25"><a xlink:title="2 &#160;Shawnus &#160;really">
<ellipse fill="black" stroke="black" cx="52" cy="-294.5" rx="3.5" ry="3.5"/>
</a>
</g>
</g>
<!-- s2_league4_game2_04_stac_1399316559&#45;&gt;s2_league4_game2_04_stac_1399316562 -->
<g id="edge17" class="edge">
<title>s2_league4_game2_04_stac_1399316559&#45;&gt;s2_league4_game2_04_stac_1399316562</title>
<g id="a_edge17"><a xlink:title="Clarification_question">
<path fill="none" stroke="#ff40d1" d="M61.82,-316.04C60.29,-312.84 57.56,-307.12 55.36,-302.53"/>
<polygon fill="#ff40d1" stroke="#ff40d1" points="56.87,-301.63 53.14,-297.87 53.71,-303.14 56.87,-301.63"/>
</a>
</g>
</g>
<!-- s2_league4_game2_04_stac_1399316566 -->
<g id="node3" class="node">
<title>s2_league4_game2_04_stac_1399316566</title>
<g id="a_node3"><a xlink:title="3 &#160;ztime &#160;yer.... feel bad for you guys">
<ellipse fill="black" stroke="black" cx="27" cy="-269.5" rx="3.5" ry="3.5"/>
</a>
</g>
</g>
<!-- 3_0 -->
<!-- s2_league4_game2_04_stac_1399316566&#45;&gt;3_0 -->
<!-- s2_league4_game2_04_stac_1399316569 -->
<g id="node5" class="node">
<title>s2_league4_game2_04_stac_1399316569</title>
<g id="a_node5"><a xlink:title="4 &#160;ztime &#160;look NZ has to dump all his card....">
<ellipse fill="black" stroke="black" cx="27" cy="-244.5" rx="3.5" ry="3.5"/>
</a>
</g>
</g>
<!-- s2_league4_game2_04_stac_1399316566&#45;&gt;s2_league4_game2_04_stac_1399316569 -->
<g id="edge20" class="edge">
<title>s2_league4_game2_04_stac_1399316566&#45;&gt;s2_league4_game2_04_stac_1399316569</title>
<g id="a_edge20"><a xlink:title="Explanation">
<path fill="none" stroke="#a62139" d="M27,-265.68C27,-262.58 27,-257.47 27,-253.16"/>
<polygon fill="#a62139" stroke="#a62139" points="28.75,-253.06 27,-248.06 25.25,-253.06 28.75,-253.06"/>
</a>
</g>
</g>
<!-- 4_0 -->
<!-- s2_league4_game2_04_stac_1399316569&#45;&gt;4_0 -->
<!-- s2_league4_game2_04_stac_1399316572 -->
<g id="node7" class="node">
<title>s2_league4_game2_04_stac_1399316572</title>
<g id="a_node7"><a xlink:title="5 &#160;somdechn &#160;Nooo...">
<ellipse fill="black" stroke="black" cx="27" cy="-219.5" rx="3.5" ry="3.5"/>
</a>
</g>
</g>
<!-- s2_league4_game2_04_stac_1399316569&#45;&gt;s2_league4_game2_04_stac_1399316572 -->
<g id="edge21" class="edge">
<title>s2_league4_game2_04_stac_1399316569&#45;&gt;s2_league4_game2_04_stac_1399316572</title>
<g id="a_edge21"><a xlink:title="Comment">
<path fill="none" stroke="#ff8200" d="M27,-240.68C27,-237.58 27,-232.47 27,-228.16"/>
<polygon fill="#ff8200" stroke="#ff8200" points="28.75,-228.06 27,-223.06 25.25,-228.06 28.75,-228.06"/>
</a>
</g>
</g>
<!-- 5_0 -->
<!-- s2_league4_game2_04_stac_1399316572&#45;&gt;5_0 -->
<!-- s2_league4_game2_04_stac_1399316572&#45;&gt;s2_league4_game2_04_stac_1399316575 -->
<!-- 6_0 -->
<!-- s2_league4_game2_04_stac_1399316575&#45;&gt;6_0 -->
<!-- s2_league4_game2_04_stac_1399316578 -->
<g id="node11" class="node">
<title>s2_league4_game2_04_stac_1399316578</title>
<g id="a_node11"><a xlink:title="7 &#160;ztime &#160;I can give wood">
<ellipse fill="black" stroke="black" cx="20" cy="-169.5" rx="3.5" ry="3.5"/>
</a>
</g>
</g>
<!-- s2_league4_game2_04_stac_1399316575&#45;&gt;s2_league4_game2_04_stac_1399316578 -->
<g id="edge23" class="edge">
<title>s2_league4_game2_04_stac_1399316575&#45;&gt;s2_league4_game2_04_stac_1399316578</title>
<g id="a_edge23"><a xlink:title="Elaboration">
<path fill="none" stroke="#a621c7" d="M50.41,-191.7C45.37,-188.18 34.11,-180.33 26.8,-175.24"/>
<polygon fill="#a621c7" stroke="#a621c7" points="27.59,-173.66 22.49,-172.23 25.59,-176.53 27.59,-173.66"/>
</a>
</g>
</g>
<!-- s2_league4_game2_04_stac_1399316581 -->
<g id="node13" class="node">
<title>s2_league4_game2_04_stac_1399316581</title>
<g id="a_node13"><a xlink:title="8 &#160;somdechn &#160;No....">
<ellipse fill="black" stroke="black" cx="20" cy="-144.5" rx="3.5" ry="3.5"/>
</a>
</g>
</g>
<!-- s2_league4_game2_04_stac_1399316575&#45;&gt;s2_league4_game2_04_stac_1399316581 -->
<g id="edge24" class="edge">
<title>s2_league4_game2_04_stac_1399316575&#45;&gt;s2_league4_game2_04_stac_1399316581</title>
<g id="a_edge24"><a xlink:title="Question_answer_pair">
<path fill="none" stroke="#12ffff" d="M51.41,-191.18C46.59,-184.17 32.01,-162.96 24.53,-152.09"/>
<polygon fill="#12ffff" stroke="#12ffff" points="25.93,-151.03 21.65,-147.9 23.04,-153.02 25.93,-151.03"/>
</a>
</g>
</g>
<!-- s2_league4_game2_04_stac_1399316584 -->
<g id="node15" class="node">
<title>s2_league4_game2_04_stac_1399316584</title>
<g id="a_node15"><a xlink:title="9 &#160;Shawnus &#160;nope">
<ellipse fill="black" stroke="black" cx="40" cy="-119.5" rx="3.5" ry="3.5"/>
</a>
</g>
</g>
<!-- s2_league4_game2_04_stac_1399316575&#45;&gt;s2_league4_game2_04_stac_1399316584 -->
<g id="edge25" class="edge">
<title>s2_league4_game2_04_stac_1399316575&#45;&gt;s2_league4_game2_04_stac_1399316584</title>
<g id="a_edge25"><a xlink:title="Question_answer_pair">
<path fill="none" stroke="#12ffff" d="M54,-190.99C56.92,-183.25 64.84,-159.16 58,-141 55.69,-134.88 50.64,-129.4 46.47,-125.65"/>
<polygon fill="#12ffff" stroke="#12ffff" points="47.43,-124.17 42.47,-122.31 45.19,-126.85 47.43,-124.17"/>
</a>
</g>
</g>
<!-- s2_league4_game2_04_stac_1399316587 -->
<g id="node17" class="node">
<title>s2_league4_game2_04_stac_1399316587</title>
<g id="a_node17"><a xlink:title="10 &#160;ztime &#160;wheat">
<ellipse fill="black" stroke="black" cx="42" cy="-94.5" rx="3.5" ry="3.5"/>
</a>
</g>
</g>
<!-- s2_league4_game2_04_stac_1399316575&#45;&gt;s2_league4_game2_04_stac_1399316587 -->
<g id="edge26" class="edge">
<title>s2_league4_game2_04_stac_1399316575&#45;&gt;s2_league4_game2_04_stac_1399316587</title>
<g id="a_edge26"><a xlink:title="Q_Elab">
<path fill="none" stroke="#0d20ff" d="M54.82,-191.45C62.84,-182.18 93.92,-143.38 78,-116 72.13,-105.9 59.2,-100.36 50.55,-97.66"/>
<polygon fill="#0d20ff" stroke="#0d20ff" points="50.66,-95.88 45.38,-96.23 49.73,-99.25 50.66,-95.88"/>
</a>
</g>
</g>
<!-- 7_0 -->
<!-- s2_league4_game2_04_stac_1399316578&#45;&gt;7_0 -->
<!-- s2_league4_game2_04_stac_1399316578&#45;&gt;s2_league4_game2_04_stac_1399316581 -->
<!-- 8_0 -->
<!-- s2_league4_game2_04_stac_1399316581&#45;&gt;8_0 -->
<!-- s2_league4_game2_04_stac_1399316581&#45;&gt;s2_league4_game2_04_stac_1399316584 -->
<!-- s2_league4_game2_04_stac_1399316581&#45;&gt;s2_league4_game2_04_stac_1399316587 -->
<g id="edge27" class="edge">
<title>s2_league4_game2_04_stac_1399316581&#45;&gt;s2_league4_game2_04_stac_1399316587</title>
<g id="a_edge27"><a xlink:title="Result">
<path fill="none" stroke="#10ff0f" d="M20.49,-140.82C21.46,-135.79 23.92,-124.63 28,-116 30.38,-110.96 33.93,-105.78 36.86,-101.88"/>
<polygon fill="#10ff0f" stroke="#10ff0f" points="38.39,-102.76 40.1,-97.75 35.64,-100.6 38.39,-102.76"/>
</a>
</g>
</g>
<!-- 9_0 -->
<!-- s2_league4_game2_04_stac_1399316584&#45;&gt;9_0 -->
<!-- s2_league4_game2_04_stac_1399316584&#45;&gt;s2_league4_game2_04_stac_1399316587 -->
<g id="edge28" class="edge">
<title>s2_league4_game2_04_stac_1399316584&#45;&gt;s2_league4_game2_04_stac_1399316587</title>
<g id="a_edge28"><a xlink:title="Result">
<path fill="none" stroke="#10ff0f" d="M40.25,-115.68C40.51,-112.58 40.96,-107.47 41.33,-103.16"/>
<polygon fill="#10ff0f" stroke="#10ff0f" points="43.09,-103.19 41.78,-98.06 39.6,-102.89 43.09,-103.19"/>
</a>
</g>
</g>
<!-- 10_0 -->
<!-- s2_league4_game2_04_stac_1399316587&#45;&gt;10_0 -->
<!-- s2_league4_game2_04_stac_1399316590 -->
<g id="node19" class="node">
<title>s2_league4_game2_04_stac_1399316590</title>
<g id="a_node19"><a xlink:title="11 &#160;ztime &#160;I give wheat">
<ellipse fill="black" stroke="black" cx="42" cy="-69.5" rx="3.5" ry="3.5"/>
</a>
</g>
</g>
<!-- s2_league4_game2_04_stac_1399316587&#45;&gt;s2_league4_game2_04_stac_1399316590 -->
<g id="edge29" class="edge">
<title>s2_league4_game2_04_stac_1399316587&#45;&gt;s2_league4_game2_04_stac_1399316590</title>
<g id="a_edge29"><a xlink:title="Elaboration">
<path fill="none" stroke="#a621c7" d="M42,-90.68C42,-87.58 42,-82.47 42,-78.16"/>
<polygon fill="#a621c7" stroke="#a621c7" points="43.75,-78.06 42,-73.06 40.25,-78.06 43.75,-78.06"/>
</a>
</g>
</g>
<!-- s2_league4_game2_04_stac_1399316596 -->
<g id="node23" class="node">
<title>s2_league4_game2_04_stac_1399316596</title>
<g id="a_node23"><a xlink:title="13 &#160;somdechn &#160;Nop">
<ellipse fill="black" stroke="black" cx="44" cy="-19.5" rx="3.5" ry="3.5"/>
</a>
</g>
</g>
<!-- s2_league4_game2_04_stac_1399316587&#45;&gt;s2_league4_game2_04_stac_1399316596 -->
<g id="edge31" class="edge">
<title>s2_league4_game2_04_stac_1399316587&#45;&gt;s2_league4_game2_04_stac_1399316596</title>
<g id="a_edge31"><a xlink:title="Question_answer_pair">
<path fill="none" stroke="#12ffff" d="M43.89,-91.28C46.82,-87.7 52.4,-80.3 55,-73 59.79,-59.54 62.22,-54.65 58,-41 56.32,-35.55 52.64,-30.26 49.47,-26.42"/>
<polygon fill="#12ffff" stroke="#12ffff" points="50.77,-25.24 46.14,-22.65 48.14,-27.56 50.77,-25.24"/>
</a>
</g>
</g>
<!-- 11_0 -->
<!-- s2_league4_game2_04_stac_1399316590&#45;&gt;11_0 -->
<!-- s2_league4_game2_04_stac_1399316593 -->
<g id="node21" class="node">
<title>s2_league4_game2_04_stac_1399316593</title>
<g id="a_node21"><a xlink:title="12 &#160;ztime &#160;ok">
<ellipse fill="black" stroke="black" cx="20" cy="-44.5" rx="3.5" ry="3.5"/>
</a>
</g>
</g>
<!-- s2_league4_game2_04_stac_1399316590&#45;&gt;s2_league4_game2_04_stac_1399316593 -->
<g id="edge30" class="edge">
<title>s2_league4_game2_04_stac_1399316590&#45;&gt;s2_league4_game2_04_stac_1399316593</title>
<g id="a_edge30"><a xlink:title="Continuation">
<path fill="none" stroke="#10491b" d="M39.97,-66.38C36.84,-63.11 30.72,-56.71 26.08,-51.85"/>
<polygon fill="#10491b" stroke="#10491b" points="27.08,-50.36 22.35,-47.96 24.55,-52.78 27.08,-50.36"/>
</a>
</g>
</g>
<!-- 12_0 -->
<!-- s2_league4_game2_04_stac_1399316593&#45;&gt;12_0 -->
<!-- s2_league4_game2_04_stac_1399316593&#45;&gt;s2_league4_game2_04_stac_1399316596 -->
<!-- 13_0 -->
<!-- s2_league4_game2_04_stac_1399316596&#45;&gt;13_0 -->
<!-- s2_league4_game2_04_stac_1399316562&#45;&gt;s2_league4_game2_04_stac_1399316566 -->
<g id="edge19" class="edge">
<title>s2_league4_game2_04_stac_1399316562&#45;&gt;s2_league4_game2_04_stac_1399316566</title>
<g id="a_edge19"><a xlink:title="Question_answer_pair">
<path fill="none" stroke="#12ffff" d="M49.69,-291.38C45.92,-287.9 38.3,-280.89 32.93,-275.96"/>
<polygon fill="#12ffff" stroke="#12ffff" points="33.95,-274.52 29.09,-272.42 31.58,-277.09 33.95,-274.52"/>
</a>
</g>
</g>
<!-- s2_league4_game2_04_stac_1399316563 -->
<g id="node26" class="node">
<title>s2_league4_game2_04_stac_1399316563</title>
<g id="a_node26"><a xlink:title="2 &#160;Shawnus &#160;sorry?">
<ellipse fill="black" stroke="black" cx="98" cy="-294.5" rx="3.5" ry="3.5"/>
</a>
</g>
</g>
<!-- s2_league4_game2_04_stac_1399316562&#45;&gt;s2_league4_game2_04_stac_1399316563 -->
<g id="edge18" class="edge">
<title>s2_league4_game2_04_stac_1399316562&#45;&gt;s2_league4_game2_04_stac_1399316563</title>
<g id="a_edge18"><a xlink:title="Elaboration">
<path fill="none" stroke="#a621c7" d="M55.59,-294.5C66.8,-294.5 78,-294.5 89.21,-294.5"/>
<polygon fill="#a621c7" stroke="#a621c7" points="89.36,-296.25 94.36,-294.5 89.36,-292.75 89.36,-296.25"/>
</a>
</g>
</g>
</g>
</svg>
