<?xml version="1.0" encoding="UTF-8" standalone="no"?>
<!DOCTYPE svg PUBLIC "-//W3C//DTD SVG 1.1//EN"
 "http://www.w3.org/Graphics/SVG/1.1/DTD/svg11.dtd">
<!-- Generated by graphviz version 3.0.0 (20220226.1711)
 -->
<!-- Title: 1_s2_leagueM_game4_1049 Pages: 1 -->
<svg width="94pt" height="145pt"
 viewBox="0.00 0.00 94.00 145.00" xmlns="http://www.w3.org/2000/svg" xmlns:xlink="http://www.w3.org/1999/xlink">
<g id="graph0" class="graph" transform="scale(1 1) rotate(0) translate(4 141)">
<title>1_s2_leagueM_game4_1049</title>
<polygon fill="white" stroke="transparent" points="-4,4 -4,-141 90,-141 90,4 -4,4"/>
<g id="clust1" class="cluster">
<title>cluster_1_s2_leagueM_game4_1049</title>
<polygon fill="none" stroke="black" points="8,-8 8,-129 78,-129 78,-8 8,-8"/>
<text text-anchor="middle" x="30" y="-113.8" font-family="Times,serif" font-size="14.00">1049</text>
</g>
<!-- s2_leagueM_game4_01_stac_1413791930 -->
<g id="node1" class="node">
<title>s2_leagueM_game4_01_stac_1413791930</title>
<g id="a_node1"><a xlink:title="2 &#160;inca &#160;i&#39;ve got wheat but no sheep i&#39;m afraid">
<ellipse fill="black" stroke="black" cx="20" cy="-69.5" rx="3.5" ry="3.5"/>
</a>
</g>
</g>
<!-- 2_0 -->
<!-- s2_leagueM_game4_01_stac_1413791930&#45;&gt;2_0 -->
<!-- s2_leagueM_game4_01_stac_1413791933 -->
<g id="node3" class="node">
<title>s2_leagueM_game4_01_stac_1413791933</title>
<g id="a_node3"><a xlink:title="3 &#160;CheshireCatGrin &#160;i have no sheep, and only one wheat which I need">
<ellipse fill="black" stroke="black" cx="41" cy="-44.5" rx="3.5" ry="3.5"/>
</a>
</g>
</g>
<!-- s2_leagueM_game4_01_stac_1413791930&#45;&gt;s2_leagueM_game4_01_stac_1413791933 -->
<!-- s2_leagueM_game4_01_stac_1413791936 -->
<g id="node5" class="node">
<title>s2_leagueM_game4_01_stac_1413791936</title>
<g id="a_node5"><a xlink:title="4 &#160;dmm &#160;oh well">
<ellipse fill="black" stroke="black" cx="30" cy="-19.5" rx="3.5" ry="3.5"/>
</a>
</g>
</g>
<!-- s2_leagueM_game4_01_stac_1413791930&#45;&gt;s2_leagueM_game4_01_stac_1413791936 -->
<g id="edge8" class="edge">
<title>s2_leagueM_game4_01_stac_1413791930&#45;&gt;s2_leagueM_game4_01_stac_1413791936</title>
<g id="a_edge8"><a xlink:title="Acknowledgement">
<path fill="none" stroke="#12ffff" d="M20.54,-65.92C21.99,-58.95 26.03,-39.55 28.34,-28.49"/>
<polygon fill="#12ffff" stroke="#12ffff" points="30.1,-28.58 29.41,-23.33 26.68,-27.87 30.1,-28.58"/>
</a>
</g>
</g>
<!-- 3_0 -->
<!-- s2_leagueM_game4_01_stac_1413791933&#45;&gt;3_0 -->
<!-- s2_leagueM_game4_01_stac_1413791933&#45;&gt;s2_leagueM_game4_01_stac_1413791936 -->
<g id="edge9" class="edge">
<title>s2_leagueM_game4_01_stac_1413791933&#45;&gt;s2_leagueM_game4_01_stac_1413791936</title>
<g id="a_edge9"><a xlink:title="Acknowledgement">
<path fill="none" stroke="#12ffff" d="M39.82,-41.04C38.29,-37.84 35.56,-32.12 33.36,-27.53"/>
<polygon fill="#12ffff" stroke="#12ffff" points="34.87,-26.63 31.14,-22.87 31.71,-28.14 34.87,-26.63"/>
</a>
</g>
</g>
<!-- 4_0 -->
<!-- s2_leagueM_game4_01_stac_1413791936&#45;&gt;4_0 -->
<!-- s2_leagueM_game4_01_stac_1413791926 -->
<g id="node7" class="node">
<title>s2_leagueM_game4_01_stac_1413791926</title>
<g id="a_node7"><a xlink:title="1 &#160;dmm &#160;any chance of a sheep AND a wheat?">
<ellipse fill="black" stroke="black" cx="30" cy="-94.5" rx="3.5" ry="3.5"/>
</a>
</g>
</g>
<!-- s2_leagueM_game4_01_stac_1413791926&#45;&gt;s2_leagueM_game4_01_stac_1413791930 -->
<g id="edge6" class="edge">
<title>s2_leagueM_game4_01_stac_1413791926&#45;&gt;s2_leagueM_game4_01_stac_1413791930</title>
<g id="a_edge6"><a xlink:title="Question_answer_pair">
<path fill="none" stroke="#12ffff" d="M28.93,-91.04C27.54,-87.84 25.05,-82.12 23.06,-77.53"/>
<polygon fill="#12ffff" stroke="#12ffff" points="24.63,-76.76 21.03,-72.87 21.42,-78.16 24.63,-76.76"/>
</a>
</g>
</g>
<!-- s2_leagueM_game4_01_stac_1413791926&#45;&gt;s2_leagueM_game4_01_stac_1413791933 -->
<g id="edge7" class="edge">
<title>s2_leagueM_game4_01_stac_1413791926&#45;&gt;s2_leagueM_game4_01_stac_1413791933</title>
<g id="a_edge7"><a xlink:title="Question_answer_pair">
<path fill="none" stroke="#12ffff" d="M30.59,-90.92C32.19,-83.95 36.64,-64.55 39.17,-53.49"/>
<polygon fill="#12ffff" stroke="#12ffff" points="40.94,-53.6 40.35,-48.33 37.53,-52.81 40.94,-53.6"/>
</a>
</g>
</g>
<!-- s2_leagueM_game4_01_stac_1413791927 -->
<g id="node8" class="node">
<title>s2_leagueM_game4_01_stac_1413791927</title>
<g id="a_node8"><a xlink:title="1 &#160;dmm &#160;i can offer ores">
<ellipse fill="black" stroke="black" cx="55" cy="-94.5" rx="3.5" ry="3.5"/>
</a>
</g>
</g>
<!-- s2_leagueM_game4_01_stac_1413791926&#45;&gt;s2_leagueM_game4_01_stac_1413791927 -->
<g id="edge5" class="edge">
<title>s2_leagueM_game4_01_stac_1413791926&#45;&gt;s2_leagueM_game4_01_stac_1413791927</title>
<g id="a_edge5"><a xlink:title="Elaboration">
<path fill="none" stroke="#a621c7" d="M33.52,-94.5C37.78,-94.5 42.04,-94.5 46.3,-94.5"/>
<polygon fill="#a621c7" stroke="#a621c7" points="46.31,-96.25 51.31,-94.5 46.31,-92.75 46.31,-96.25"/>
</a>
</g>
</g>
</g>
</svg>
