<?xml version="1.0" encoding="UTF-8" standalone="no"?>
<!DOCTYPE svg PUBLIC "-//W3C//DTD SVG 1.1//EN"
 "http://www.w3.org/Graphics/SVG/1.1/DTD/svg11.dtd">
<!-- Generated by graphviz version 3.0.0 (20220226.1711)
 -->
<!-- Title: 4_s2_league4_game2_761 Pages: 1 -->
<svg width="113pt" height="220pt"
 viewBox="0.00 0.00 113.00 220.00" xmlns="http://www.w3.org/2000/svg" xmlns:xlink="http://www.w3.org/1999/xlink">
<g id="graph0" class="graph" transform="scale(1 1) rotate(0) translate(4 216)">
<title>4_s2_league4_game2_761</title>
<polygon fill="white" stroke="transparent" points="-4,4 -4,-216 109,-216 109,4 -4,4"/>
<g id="clust1" class="cluster">
<title>cluster_4_s2_league4_game2_761</title>
<polygon fill="none" stroke="black" points="8,-8 8,-204 97,-204 97,-8 8,-8"/>
<text text-anchor="middle" x="26.5" y="-188.8" font-family="Times,serif" font-size="14.00">761</text>
</g>
<!-- s2_league4_game2_04_stac_1399316495 -->
<g id="node1" class="node">
<title>s2_league4_game2_04_stac_1399316495</title>
<g id="a_node1"><a xlink:title="1 &#160;somdechn &#160;I can give wood for ore or wheat.">
<ellipse fill="black" stroke="black" cx="30" cy="-169.5" rx="3.5" ry="3.5"/>
</a>
</g>
</g>
<!-- 1_0 -->
<!-- s2_league4_game2_04_stac_1399316495&#45;&gt;1_0 -->
<!-- s2_league4_game2_04_stac_1399316502 -->
<g id="node3" class="node">
<title>s2_league4_game2_04_stac_1399316502</title>
<g id="a_node3"><a xlink:title="3 &#160;Shawnus &#160;1 for 1, ok">
<ellipse fill="black" stroke="black" cx="43" cy="-119.5" rx="3.5" ry="3.5"/>
</a>
</g>
</g>
<!-- s2_league4_game2_04_stac_1399316495&#45;&gt;s2_league4_game2_04_stac_1399316502 -->
<g id="edge11" class="edge">
<title>s2_league4_game2_04_stac_1399316495&#45;&gt;s2_league4_game2_04_stac_1399316502</title>
<g id="a_edge11"><a xlink:title="Question_answer_pair">
<path fill="none" stroke="#12ffff" d="M30.15,-165.87C30.47,-160.92 31.45,-149.9 34,-141 35.35,-136.27 37.57,-131.21 39.46,-127.3"/>
<polygon fill="#12ffff" stroke="#12ffff" points="41.03,-128.07 41.73,-122.82 37.91,-126.49 41.03,-128.07"/>
</a>
</g>
</g>
<!-- s2_league4_game2_04_stac_1399316498 -->
<g id="node13" class="node">
<title>s2_league4_game2_04_stac_1399316498</title>
<g id="a_node13"><a xlink:title="2 &#160;ztime &#160;sorry...">
<ellipse fill="black" stroke="black" cx="46" cy="-144.5" rx="3.5" ry="3.5"/>
</a>
</g>
</g>
<!-- s2_league4_game2_04_stac_1399316495&#45;&gt;s2_league4_game2_04_stac_1399316498 -->
<g id="edge9" class="edge">
<title>s2_league4_game2_04_stac_1399316495&#45;&gt;s2_league4_game2_04_stac_1399316498</title>
<g id="a_edge9"><a xlink:title="Question_answer_pair">
<path fill="none" stroke="#12ffff" d="M31.71,-166.04C33.99,-162.77 38.09,-156.87 41.32,-152.23"/>
<polygon fill="#12ffff" stroke="#12ffff" points="42.93,-152.98 44.35,-147.87 40.06,-150.98 42.93,-152.98"/>
</a>
</g>
</g>
<!-- 3_0 -->
<!-- s2_league4_game2_04_stac_1399316502&#45;&gt;3_0 -->
<!-- s2_league4_game2_04_stac_1399316505 -->
<g id="node5" class="node">
<title>s2_league4_game2_04_stac_1399316505</title>
<g id="a_node5"><a xlink:title="4 &#160;somdechn &#160;yep">
<ellipse fill="black" stroke="black" cx="40" cy="-94.5" rx="3.5" ry="3.5"/>
</a>
</g>
</g>
<!-- s2_league4_game2_04_stac_1399316502&#45;&gt;s2_league4_game2_04_stac_1399316505 -->
<g id="edge12" class="edge">
<title>s2_league4_game2_04_stac_1399316502&#45;&gt;s2_league4_game2_04_stac_1399316505</title>
<g id="a_edge12"><a xlink:title="Acknowledgement">
<path fill="none" stroke="#12ffff" d="M42.63,-115.68C42.23,-112.58 41.56,-107.47 41,-103.16"/>
<polygon fill="#12ffff" stroke="#12ffff" points="42.72,-102.79 40.33,-98.06 39.25,-103.24 42.72,-102.79"/>
</a>
</g>
</g>
<!-- s2_league4_game2_04_stac_1399316511 -->
<g id="node9" class="node">
<title>s2_league4_game2_04_stac_1399316511</title>
<g id="a_node9"><a xlink:title="6 &#160;somdechn &#160;What can you give?">
<ellipse fill="black" stroke="black" cx="60" cy="-44.5" rx="3.5" ry="3.5"/>
</a>
</g>
</g>
<!-- s2_league4_game2_04_stac_1399316502&#45;&gt;s2_league4_game2_04_stac_1399316511 -->
<g id="edge14" class="edge">
<title>s2_league4_game2_04_stac_1399316502&#45;&gt;s2_league4_game2_04_stac_1399316511</title>
<g id="a_edge14"><a xlink:title="Q_Elab">
<path fill="none" stroke="#0d20ff" d="M46.29,-117.74C53.57,-115.86 71,-110.22 78,-98 86.89,-82.48 73.43,-61.87 65.35,-51.7"/>
<polygon fill="#0d20ff" stroke="#0d20ff" points="66.49,-50.34 61.94,-47.62 63.8,-52.58 66.49,-50.34"/>
</a>
</g>
</g>
<!-- 4_0 -->
<!-- s2_league4_game2_04_stac_1399316505&#45;&gt;4_0 -->
<!-- s2_league4_game2_04_stac_1399316508 -->
<g id="node7" class="node">
<title>s2_league4_game2_04_stac_1399316508</title>
<g id="a_node7"><a xlink:title="5 &#160;Shawnus &#160;ok">
<ellipse fill="black" stroke="black" cx="20" cy="-69.5" rx="3.5" ry="3.5"/>
</a>
</g>
</g>
<!-- s2_league4_game2_04_stac_1399316505&#45;&gt;s2_league4_game2_04_stac_1399316508 -->
<g id="edge13" class="edge">
<title>s2_league4_game2_04_stac_1399316505&#45;&gt;s2_league4_game2_04_stac_1399316508</title>
<g id="a_edge13"><a xlink:title="Acknowledgement">
<path fill="none" stroke="#12ffff" d="M38.15,-91.38C35.31,-88.11 29.75,-81.71 25.52,-76.85"/>
<polygon fill="#12ffff" stroke="#12ffff" points="26.74,-75.59 22.14,-72.96 24.1,-77.88 26.74,-75.59"/>
</a>
</g>
</g>
<!-- s2_league4_game2_04_stac_1399316505&#45;&gt;s2_league4_game2_04_stac_1399316511 -->
<g id="edge15" class="edge">
<title>s2_league4_game2_04_stac_1399316505&#45;&gt;s2_league4_game2_04_stac_1399316511</title>
<g id="a_edge15"><a xlink:title="Continuation">
<path fill="none" stroke="#10491b" d="M42.41,-91.67C46.47,-88.42 54.56,-81.21 58,-73 60.61,-66.77 60.95,-59.06 60.73,-53.39"/>
<polygon fill="#10491b" stroke="#10491b" points="62.46,-53.07 60.35,-48.21 58.97,-53.32 62.46,-53.07"/>
</a>
</g>
</g>
<!-- 5_0 -->
<!-- s2_league4_game2_04_stac_1399316508&#45;&gt;5_0 -->
<!-- s2_league4_game2_04_stac_1399316508&#45;&gt;s2_league4_game2_04_stac_1399316511 -->
<!-- 6_0 -->
<!-- s2_league4_game2_04_stac_1399316511&#45;&gt;6_0 -->
<!-- s2_league4_game2_04_stac_1399316514 -->
<g id="node11" class="node">
<title>s2_league4_game2_04_stac_1399316514</title>
<g id="a_node11"><a xlink:title="7 &#160;Shawnus &#160;wheat">
<ellipse fill="black" stroke="black" cx="60" cy="-19.5" rx="3.5" ry="3.5"/>
</a>
</g>
</g>
<!-- s2_league4_game2_04_stac_1399316511&#45;&gt;s2_league4_game2_04_stac_1399316514 -->
<g id="edge16" class="edge">
<title>s2_league4_game2_04_stac_1399316511&#45;&gt;s2_league4_game2_04_stac_1399316514</title>
<g id="a_edge16"><a xlink:title="Question_answer_pair">
<path fill="none" stroke="#12ffff" d="M60,-40.68C60,-37.58 60,-32.47 60,-28.16"/>
<polygon fill="#12ffff" stroke="#12ffff" points="61.75,-28.06 60,-23.06 58.25,-28.06 61.75,-28.06"/>
</a>
</g>
</g>
<!-- 7_0 -->
<!-- s2_league4_game2_04_stac_1399316514&#45;&gt;7_0 -->
<!-- s2_league4_game2_04_stac_1399316498&#45;&gt;s2_league4_game2_04_stac_1399316502 -->
<!-- s2_league4_game2_04_stac_1399316499 -->
<g id="node14" class="node">
<title>s2_league4_game2_04_stac_1399316499</title>
<g id="a_node14"><a xlink:title="2 &#160;ztime &#160;trying to ship wood out..">
<ellipse fill="black" stroke="black" cx="71" cy="-144.5" rx="3.5" ry="3.5"/>
</a>
</g>
</g>
<!-- s2_league4_game2_04_stac_1399316498&#45;&gt;s2_league4_game2_04_stac_1399316499 -->
<g id="edge10" class="edge">
<title>s2_league4_game2_04_stac_1399316498&#45;&gt;s2_league4_game2_04_stac_1399316499</title>
<g id="a_edge10"><a xlink:title="Explanation">
<path fill="none" stroke="#a62139" d="M49.52,-144.5C53.78,-144.5 58.04,-144.5 62.3,-144.5"/>
<polygon fill="#a62139" stroke="#a62139" points="62.31,-146.25 67.31,-144.5 62.31,-142.75 62.31,-146.25"/>
</a>
</g>
</g>
</g>
</svg>
