<?xml version="1.0" encoding="UTF-8" standalone="no"?>
<!DOCTYPE svg PUBLIC "-//W3C//DTD SVG 1.1//EN"
 "http://www.w3.org/Graphics/SVG/1.1/DTD/svg11.dtd">
<!-- Generated by graphviz version 3.0.0 (20220226.1711)
 -->
<!-- Title: 4_s2_league4_game2_762 Pages: 1 -->
<svg width="134pt" height="370pt"
 viewBox="0.00 0.00 134.00 370.00" xmlns="http://www.w3.org/2000/svg" xmlns:xlink="http://www.w3.org/1999/xlink">
<g id="graph0" class="graph" transform="scale(1 1) rotate(0) translate(4 366)">
<title>4_s2_league4_game2_762</title>
<polygon fill="white" stroke="transparent" points="-4,4 -4,-366 130,-366 130,4 -4,4"/>
<g id="clust1" class="cluster">
<title>cluster_4_s2_league4_game2_762</title>
<polygon fill="none" stroke="black" points="8,-8 8,-354 118,-354 118,-8 8,-8"/>
<text text-anchor="middle" x="26.5" y="-338.8" font-family="Times,serif" font-size="14.00">762</text>
</g>
<!-- s2_league4_game2_04_stac_1399316518 -->
<g id="node1" class="node">
<title>s2_league4_game2_04_stac_1399316518</title>
<g id="a_node1"><a xlink:title="1 &#160;Shawnus &#160;want to trade a wood for sheep?">
<ellipse fill="black" stroke="black" cx="41" cy="-319.5" rx="3.5" ry="3.5"/>
</a>
</g>
</g>
<!-- 1_0 -->
<!-- s2_league4_game2_04_stac_1399316518&#45;&gt;1_0 -->
<!-- s2_league4_game2_04_stac_1399316525 -->
<g id="node3" class="node">
<title>s2_league4_game2_04_stac_1399316525</title>
<g id="a_node3"><a xlink:title="3 &#160;ztime &#160;sorry.. still no sheep here">
<ellipse fill="black" stroke="black" cx="30" cy="-269.5" rx="3.5" ry="3.5"/>
</a>
</g>
</g>
<!-- s2_league4_game2_04_stac_1399316518&#45;&gt;s2_league4_game2_04_stac_1399316525 -->
<g id="edge19" class="edge">
<title>s2_league4_game2_04_stac_1399316518&#45;&gt;s2_league4_game2_04_stac_1399316525</title>
<g id="a_edge19"><a xlink:title="Question_answer_pair">
<path fill="none" stroke="#12ffff" d="M39.16,-316.29C36.32,-312.71 30.99,-305.32 29,-298 27.24,-291.5 27.72,-283.82 28.51,-278.23"/>
<polygon fill="#12ffff" stroke="#12ffff" points="30.26,-278.36 29.39,-273.14 26.81,-277.76 30.26,-278.36"/>
</a>
</g>
</g>
<!-- s2_league4_game2_04_stac_1399316534 -->
<g id="node9" class="node">
<title>s2_league4_game2_04_stac_1399316534</title>
<g id="a_node9"><a xlink:title="6 &#160;Shawnus &#160;want some more wood?">
<ellipse fill="black" stroke="black" cx="70" cy="-194.5" rx="3.5" ry="3.5"/>
</a>
</g>
</g>
<!-- s2_league4_game2_04_stac_1399316518&#45;&gt;s2_league4_game2_04_stac_1399316534 -->
<g id="edge23" class="edge">
<title>s2_league4_game2_04_stac_1399316518&#45;&gt;s2_league4_game2_04_stac_1399316534</title>
<g id="a_edge23"><a xlink:title="Q_Elab">
<path fill="none" stroke="#0d20ff" d="M44.56,-317.83C52.45,-316.14 71.32,-310.87 79,-298 97.59,-266.85 81.03,-220.63 73.38,-202.84"/>
<polygon fill="#0d20ff" stroke="#0d20ff" points="74.84,-201.81 71.19,-197.96 71.64,-203.24 74.84,-201.81"/>
</a>
</g>
</g>
<!-- s2_league4_game2_04_stac_1399316521 -->
<g id="node23" class="node">
<title>s2_league4_game2_04_stac_1399316521</title>
<g id="a_node23"><a xlink:title="2 &#160;somdechn &#160;no">
<ellipse fill="black" stroke="black" cx="41" cy="-294.5" rx="3.5" ry="3.5"/>
</a>
</g>
</g>
<!-- s2_league4_game2_04_stac_1399316518&#45;&gt;s2_league4_game2_04_stac_1399316521 -->
<g id="edge17" class="edge">
<title>s2_league4_game2_04_stac_1399316518&#45;&gt;s2_league4_game2_04_stac_1399316521</title>
<g id="a_edge17"><a xlink:title="Question_answer_pair">
<path fill="none" stroke="#12ffff" d="M41,-315.68C41,-312.58 41,-307.47 41,-303.16"/>
<polygon fill="#12ffff" stroke="#12ffff" points="42.75,-303.06 41,-298.06 39.25,-303.06 42.75,-303.06"/>
</a>
</g>
</g>
<!-- 3_0 -->
<!-- s2_league4_game2_04_stac_1399316525&#45;&gt;3_0 -->
<!-- s2_league4_game2_04_stac_1399316528 -->
<g id="node5" class="node">
<title>s2_league4_game2_04_stac_1399316528</title>
<g id="a_node5"><a xlink:title="4 &#160;Shawnus &#160;haha you are same as me...">
<ellipse fill="black" stroke="black" cx="20" cy="-244.5" rx="3.5" ry="3.5"/>
</a>
</g>
</g>
<!-- s2_league4_game2_04_stac_1399316525&#45;&gt;s2_league4_game2_04_stac_1399316528 -->
<g id="edge20" class="edge">
<title>s2_league4_game2_04_stac_1399316525&#45;&gt;s2_league4_game2_04_stac_1399316528</title>
<g id="a_edge20"><a xlink:title="Comment">
<path fill="none" stroke="#ff8200" d="M28.93,-266.04C27.54,-262.84 25.05,-257.12 23.06,-252.53"/>
<polygon fill="#ff8200" stroke="#ff8200" points="24.63,-251.76 21.03,-247.87 21.42,-253.16 24.63,-251.76"/>
</a>
</g>
</g>
<!-- s2_league4_game2_04_stac_1399316531 -->
<g id="node7" class="node">
<title>s2_league4_game2_04_stac_1399316531</title>
<g id="a_node7"><a xlink:title="5 &#160;somdechn &#160;Nz got sheep.">
<ellipse fill="black" stroke="black" cx="51" cy="-219.5" rx="3.5" ry="3.5"/>
</a>
</g>
</g>
<!-- s2_league4_game2_04_stac_1399316525&#45;&gt;s2_league4_game2_04_stac_1399316531 -->
<g id="edge21" class="edge">
<title>s2_league4_game2_04_stac_1399316525&#45;&gt;s2_league4_game2_04_stac_1399316531</title>
<g id="a_edge21"><a xlink:title="Contrast">
<path fill="none" stroke="#ff7ecf" d="M31.13,-265.92C34.26,-258.76 43.15,-238.44 47.91,-227.57"/>
<polygon fill="#ff7ecf" stroke="#ff7ecf" points="49.56,-228.15 49.97,-222.86 46.36,-226.74 49.56,-228.15"/>
</a>
</g>
</g>
<!-- 4_0 -->
<!-- s2_league4_game2_04_stac_1399316528&#45;&gt;4_0 -->
<!-- s2_league4_game2_04_stac_1399316528&#45;&gt;s2_league4_game2_04_stac_1399316531 -->
<g id="edge22" class="edge">
<title>s2_league4_game2_04_stac_1399316528&#45;&gt;s2_league4_game2_04_stac_1399316531</title>
<g id="a_edge22"><a xlink:title="Contrast">
<path fill="none" stroke="#ff7ecf" d="M22.43,-241.7C27.16,-238.18 37.74,-230.33 44.62,-225.24"/>
<polygon fill="#ff7ecf" stroke="#ff7ecf" points="45.69,-226.62 48.66,-222.23 43.61,-223.81 45.69,-226.62"/>
</a>
</g>
</g>
<!-- 5_0 -->
<!-- s2_league4_game2_04_stac_1399316531&#45;&gt;5_0 -->
<!-- s2_league4_game2_04_stac_1399316531&#45;&gt;s2_league4_game2_04_stac_1399316534 -->
<g id="edge24" class="edge">
<title>s2_league4_game2_04_stac_1399316531&#45;&gt;s2_league4_game2_04_stac_1399316534</title>
<g id="a_edge24"><a xlink:title="Result">
<path fill="none" stroke="#10ff0f" d="M52.75,-216.38C55.45,-213.11 60.74,-206.71 64.75,-201.85"/>
<polygon fill="#10ff0f" stroke="#10ff0f" points="66.13,-202.93 67.97,-197.96 63.43,-200.7 66.13,-202.93"/>
</a>
</g>
</g>
<!-- 6_0 -->
<!-- s2_league4_game2_04_stac_1399316534&#45;&gt;6_0 -->
<!-- s2_league4_game2_04_stac_1399316537 -->
<g id="node11" class="node">
<title>s2_league4_game2_04_stac_1399316537</title>
<g id="a_node11"><a xlink:title="7 &#160;somdechn &#160;Need 2 wood for that though..">
<ellipse fill="black" stroke="black" cx="70" cy="-169.5" rx="3.5" ry="3.5"/>
</a>
</g>
</g>
<!-- s2_league4_game2_04_stac_1399316534&#45;&gt;s2_league4_game2_04_stac_1399316537 -->
<g id="edge25" class="edge">
<title>s2_league4_game2_04_stac_1399316534&#45;&gt;s2_league4_game2_04_stac_1399316537</title>
<g id="a_edge25"><a xlink:title="Question_answer_pair">
<path fill="none" stroke="#12ffff" d="M70,-190.68C70,-187.58 70,-182.47 70,-178.16"/>
<polygon fill="#12ffff" stroke="#12ffff" points="71.75,-178.06 70,-173.06 68.25,-178.06 71.75,-178.06"/>
</a>
</g>
</g>
<!-- 7_0 -->
<!-- s2_league4_game2_04_stac_1399316537&#45;&gt;7_0 -->
<!-- s2_league4_game2_04_stac_1399316540 -->
<g id="node13" class="node">
<title>s2_league4_game2_04_stac_1399316540</title>
<g id="a_node13"><a xlink:title="8 &#160;ztime &#160;hard trading.. nice...">
<ellipse fill="black" stroke="black" cx="35" cy="-144.5" rx="3.5" ry="3.5"/>
</a>
</g>
</g>
<!-- s2_league4_game2_04_stac_1399316537&#45;&gt;s2_league4_game2_04_stac_1399316540 -->
<g id="edge26" class="edge">
<title>s2_league4_game2_04_stac_1399316537&#45;&gt;s2_league4_game2_04_stac_1399316540</title>
<g id="a_edge26"><a xlink:title="Comment">
<path fill="none" stroke="#ff8200" d="M67.25,-166.7C61.91,-163.18 49.97,-155.33 42.21,-150.24"/>
<polygon fill="#ff8200" stroke="#ff8200" points="42.78,-148.52 37.64,-147.23 40.86,-151.44 42.78,-148.52"/>
</a>
</g>
</g>
<!-- s2_league4_game2_04_stac_1399316546 -->
<g id="node17" class="node">
<title>s2_league4_game2_04_stac_1399316546</title>
<g id="a_node17"><a xlink:title="10 &#160;Shawnus &#160;ok">
<ellipse fill="black" stroke="black" cx="60" cy="-94.5" rx="3.5" ry="3.5"/>
</a>
</g>
</g>
<!-- s2_league4_game2_04_stac_1399316537&#45;&gt;s2_league4_game2_04_stac_1399316546 -->
<g id="edge28" class="edge">
<title>s2_league4_game2_04_stac_1399316537&#45;&gt;s2_league4_game2_04_stac_1399316546</title>
<g id="a_edge28"><a xlink:title="Acknowledgement">
<path fill="none" stroke="#12ffff" d="M70.71,-166.03C72.8,-158.39 78.4,-134.59 73,-116 71.48,-110.76 68.18,-105.58 65.28,-101.74"/>
<polygon fill="#12ffff" stroke="#12ffff" points="66.5,-100.47 61.99,-97.69 63.78,-102.67 66.5,-100.47"/>
</a>
</g>
</g>
<!-- 8_0 -->
<!-- s2_league4_game2_04_stac_1399316540&#45;&gt;8_0 -->
<!-- s2_league4_game2_04_stac_1399316543 -->
<g id="node15" class="node">
<title>s2_league4_game2_04_stac_1399316543</title>
<g id="a_node15"><a xlink:title="9 &#160;Shawnus &#160;hahaha">
<ellipse fill="black" stroke="black" cx="60" cy="-119.5" rx="3.5" ry="3.5"/>
</a>
</g>
</g>
<!-- s2_league4_game2_04_stac_1399316540&#45;&gt;s2_league4_game2_04_stac_1399316543 -->
<g id="edge27" class="edge">
<title>s2_league4_game2_04_stac_1399316540&#45;&gt;s2_league4_game2_04_stac_1399316543</title>
<g id="a_edge27"><a xlink:title="Comment">
<path fill="none" stroke="#ff8200" d="M37.31,-141.38C41.08,-137.9 48.7,-130.89 54.07,-125.96"/>
<polygon fill="#ff8200" stroke="#ff8200" points="55.42,-127.09 57.91,-122.42 53.05,-124.52 55.42,-127.09"/>
</a>
</g>
</g>
<!-- s2_league4_game2_04_stac_1399316549 -->
<g id="node19" class="node">
<title>s2_league4_game2_04_stac_1399316549</title>
<g id="a_node19"><a xlink:title="11 &#160;ztime &#160;tough deals in the modern world..">
<ellipse fill="black" stroke="black" cx="40" cy="-69.5" rx="3.5" ry="3.5"/>
</a>
</g>
</g>
<!-- s2_league4_game2_04_stac_1399316540&#45;&gt;s2_league4_game2_04_stac_1399316549 -->
<g id="edge29" class="edge">
<title>s2_league4_game2_04_stac_1399316540&#45;&gt;s2_league4_game2_04_stac_1399316549</title>
<g id="a_edge29"><a xlink:title="Elaboration">
<path fill="none" stroke="#a621c7" d="M35.19,-140.73C35.89,-130.52 38.34,-94.78 39.45,-78.59"/>
<polygon fill="#a621c7" stroke="#a621c7" points="41.21,-78.38 39.81,-73.28 37.72,-78.14 41.21,-78.38"/>
</a>
</g>
</g>
<!-- s2_league4_game2_04_stacutil_1464010282 -->
<g id="node25" class="node">
<title>s2_league4_game2_04_stacutil_1464010282</title>
<g id="a_node25"><a xlink:title="12 &#160;Shawnus &#160;&#160;yeah..">
<ellipse fill="black" stroke="black" cx="20" cy="-44.5" rx="3.5" ry="3.5"/>
</a>
</g>
</g>
<!-- s2_league4_game2_04_stac_1399316540&#45;&gt;s2_league4_game2_04_stacutil_1464010282 -->
<g id="edge30" class="edge">
<title>s2_league4_game2_04_stac_1399316540&#45;&gt;s2_league4_game2_04_stacutil_1464010282</title>
<g id="a_edge30"><a xlink:title="Acknowledgement">
<path fill="none" stroke="#12ffff" d="M34.57,-140.67C32.58,-127.7 24.31,-73.67 21.2,-53.31"/>
<polygon fill="#12ffff" stroke="#12ffff" points="22.89,-52.83 20.41,-48.15 19.43,-53.36 22.89,-52.83"/>
</a>
</g>
</g>
<!-- 9_0 -->
<!-- s2_league4_game2_04_stac_1399316543&#45;&gt;9_0 -->
<!-- s2_league4_game2_04_stac_1399316543&#45;&gt;s2_league4_game2_04_stac_1399316546 -->
<!-- 10_0 -->
<!-- s2_league4_game2_04_stac_1399316546&#45;&gt;10_0 -->
<!-- s2_league4_game2_04_stac_1399316546&#45;&gt;s2_league4_game2_04_stac_1399316549 -->
<!-- 11_0 -->
<!-- s2_league4_game2_04_stac_1399316549&#45;&gt;11_0 -->
<!-- s2_league4_game2_04_stac_1399316549&#45;&gt;s2_league4_game2_04_stacutil_1464010282 -->
<!-- s2_league4_game2_04_stac_1399316555 -->
<g id="node21" class="node">
<title>s2_league4_game2_04_stac_1399316555</title>
<g id="a_node21"><a xlink:title="13 &#160;ztime &#160;:&#45;)">
<ellipse fill="black" stroke="black" cx="32" cy="-19.5" rx="3.5" ry="3.5"/>
</a>
</g>
</g>
<!-- 13_0 -->
<!-- s2_league4_game2_04_stac_1399316555&#45;&gt;13_0 -->
<!-- s2_league4_game2_04_stac_1399316521&#45;&gt;s2_league4_game2_04_stac_1399316525 -->
<!-- s2_league4_game2_04_stac_1399316522 -->
<g id="node24" class="node">
<title>s2_league4_game2_04_stac_1399316522</title>
<g id="a_node24"><a xlink:title="2 &#160;somdechn &#160;thanks.">
<ellipse fill="black" stroke="black" cx="66" cy="-294.5" rx="3.5" ry="3.5"/>
</a>
</g>
</g>
<!-- s2_league4_game2_04_stac_1399316521&#45;&gt;s2_league4_game2_04_stac_1399316522 -->
<g id="edge18" class="edge">
<title>s2_league4_game2_04_stac_1399316521&#45;&gt;s2_league4_game2_04_stac_1399316522</title>
<g id="a_edge18"><a xlink:title="Comment">
<path fill="none" stroke="#ff8200" d="M44.52,-294.5C48.78,-294.5 53.04,-294.5 57.3,-294.5"/>
<polygon fill="#ff8200" stroke="#ff8200" points="57.31,-296.25 62.31,-294.5 57.31,-292.75 57.31,-296.25"/>
</a>
</g>
</g>
<!-- s2_league4_game2_04_stacutil_1464010282&#45;&gt;s2_league4_game2_04_stac_1399316555 -->
<!-- s2_league4_game2_04_stacutil_1464010283 -->
<g id="node26" class="node">
<title>s2_league4_game2_04_stacutil_1464010283</title>
<g id="a_node26"><a xlink:title="12 &#160;Shawnus &#160;how much wood for a new laptop?">
<ellipse fill="black" stroke="black" cx="45" cy="-44.5" rx="3.5" ry="3.5"/>
</a>
</g>
</g>
<!-- s2_league4_game2_04_stacutil_1464010282&#45;&gt;s2_league4_game2_04_stacutil_1464010283 -->
<g id="edge31" class="edge">
<title>s2_league4_game2_04_stacutil_1464010282&#45;&gt;s2_league4_game2_04_stacutil_1464010283</title>
<g id="a_edge31"><a xlink:title="Comment">
<path fill="none" stroke="#ff8200" d="M23.52,-44.5C27.78,-44.5 32.04,-44.5 36.3,-44.5"/>
<polygon fill="#ff8200" stroke="#ff8200" points="36.31,-46.25 41.31,-44.5 36.31,-42.75 36.31,-46.25"/>
</a>
</g>
</g>
<!-- s2_league4_game2_04_stacutil_1464010283&#45;&gt;s2_league4_game2_04_stac_1399316555 -->
<g id="edge32" class="edge">
<title>s2_league4_game2_04_stacutil_1464010283&#45;&gt;s2_league4_game2_04_stac_1399316555</title>
<g id="a_edge32"><a xlink:title="Comment">
<path fill="none" stroke="#ff8200" d="M43.61,-41.04C41.76,-37.77 38.43,-31.87 35.8,-27.23"/>
<polygon fill="#ff8200" stroke="#ff8200" points="37.33,-26.37 33.34,-22.87 34.28,-28.09 37.33,-26.37"/>
</a>
</g>
</g>
</g>
</svg>
