<?xml version="1.0" encoding="UTF-8" standalone="no"?>
<!DOCTYPE svg PUBLIC "-//W3C//DTD SVG 1.1//EN"
 "http://www.w3.org/Graphics/SVG/1.1/DTD/svg11.dtd">
<!-- Generated by graphviz version 3.0.0 (20220226.1711)
 -->
<!-- Title: 5_s2_league4_game2_766 Pages: 1 -->
<svg width="61pt" height="120pt"
 viewBox="0.00 0.00 61.00 120.00" xmlns="http://www.w3.org/2000/svg" xmlns:xlink="http://www.w3.org/1999/xlink">
<g id="graph0" class="graph" transform="scale(1 1) rotate(0) translate(4 116)">
<title>5_s2_league4_game2_766</title>
<polygon fill="white" stroke="transparent" points="-4,4 -4,-116 57,-116 57,4 -4,4"/>
<g id="clust1" class="cluster">
<title>cluster_5_s2_league4_game2_766</title>
<polygon fill="none" stroke="black" points="8,-8 8,-104 45,-104 45,-8 8,-8"/>
<text text-anchor="middle" x="26.5" y="-88.8" font-family="Times,serif" font-size="14.00">766</text>
</g>
<!-- s2_league4_game2_05_stac_1399316542 -->
<g id="node1" class="node">
<title>s2_league4_game2_05_stac_1399316542</title>
<g id="a_node1"><a xlink:title="1 &#160;somdechn &#160;Doing well there Ztime....">
<ellipse fill="black" stroke="black" cx="26" cy="-69.5" rx="3.5" ry="3.5"/>
</a>
</g>
</g>
<!-- s2_league4_game2_05_stac_1399316545 -->
<g id="node2" class="node">
<title>s2_league4_game2_05_stac_1399316545</title>
<g id="a_node2"><a xlink:title="2 &#160;ztime &#160;lot of luck in this game...">
<ellipse fill="black" stroke="black" cx="26" cy="-44.5" rx="3.5" ry="3.5"/>
</a>
</g>
</g>
<!-- s2_league4_game2_05_stac_1399316542&#45;&gt;s2_league4_game2_05_stac_1399316545 -->
<g id="edge1" class="edge">
<title>s2_league4_game2_05_stac_1399316542&#45;&gt;s2_league4_game2_05_stac_1399316545</title>
<g id="a_edge1"><a xlink:title="Explanation">
<path fill="none" stroke="#a62139" d="M26,-65.68C26,-62.58 26,-57.47 26,-53.16"/>
<polygon fill="#a62139" stroke="#a62139" points="27.75,-53.06 26,-48.06 24.25,-53.06 27.75,-53.06"/>
</a>
</g>
</g>
<!-- s2_league4_game2_05_stac_1399316548 -->
<g id="node3" class="node">
<title>s2_league4_game2_05_stac_1399316548</title>
<g id="a_node3"><a xlink:title="3 &#160;ztime &#160;not like peurto rico">
<ellipse fill="black" stroke="black" cx="26" cy="-19.5" rx="3.5" ry="3.5"/>
</a>
</g>
</g>
<!-- s2_league4_game2_05_stac_1399316545&#45;&gt;s2_league4_game2_05_stac_1399316548 -->
<g id="edge2" class="edge">
<title>s2_league4_game2_05_stac_1399316545&#45;&gt;s2_league4_game2_05_stac_1399316548</title>
<g id="a_edge2"><a xlink:title="Contrast">
<path fill="none" stroke="#ff7ecf" d="M26,-40.68C26,-37.58 26,-32.47 26,-28.16"/>
<polygon fill="#ff7ecf" stroke="#ff7ecf" points="27.75,-28.06 26,-23.06 24.25,-28.06 27.75,-28.06"/>
</a>
</g>
</g>
</g>
</svg>
