<?xml version="1.0" encoding="UTF-8" standalone="no"?>
<!DOCTYPE svg PUBLIC "-//W3C//DTD SVG 1.1//EN"
 "http://www.w3.org/Graphics/SVG/1.1/DTD/svg11.dtd">
<!-- Generated by graphviz version 3.0.0 (20220226.1711)
 -->
<!-- Title: 6_s2_league4_game2_773 Pages: 1 -->
<svg width="113pt" height="245pt"
 viewBox="0.00 0.00 113.00 245.00" xmlns="http://www.w3.org/2000/svg" xmlns:xlink="http://www.w3.org/1999/xlink">
<g id="graph0" class="graph" transform="scale(1 1) rotate(0) translate(4 241)">
<title>6_s2_league4_game2_773</title>
<polygon fill="white" stroke="transparent" points="-4,4 -4,-241 109,-241 109,4 -4,4"/>
<g id="clust1" class="cluster">
<title>cluster_6_s2_league4_game2_773</title>
<polygon fill="none" stroke="black" points="8,-8 8,-229 97,-229 97,-8 8,-8"/>
<text text-anchor="middle" x="26.5" y="-213.8" font-family="Times,serif" font-size="14.00">773</text>
</g>
<!-- s2_league4_game2_06_stac_1399316539 -->
<g id="node1" class="node">
<title>s2_league4_game2_06_stac_1399316539</title>
<g id="a_node1"><a xlink:title="1 &#160;somdechn &#160;Wheat &#45;&gt; Ore??">
<ellipse fill="black" stroke="black" cx="60" cy="-194.5" rx="3.5" ry="3.5"/>
</a>
</g>
</g>
<!-- 1_0 -->
<!-- s2_league4_game2_06_stac_1399316539&#45;&gt;1_0 -->
<!-- s2_league4_game2_06_stac_1399316542 -->
<g id="node3" class="node">
<title>s2_league4_game2_06_stac_1399316542</title>
<g id="a_node3"><a xlink:title="2 &#160;ztime &#160;you want ore?">
<ellipse fill="black" stroke="black" cx="20" cy="-169.5" rx="3.5" ry="3.5"/>
</a>
</g>
</g>
<!-- s2_league4_game2_06_stac_1399316539&#45;&gt;s2_league4_game2_06_stac_1399316542 -->
<g id="edge11" class="edge">
<title>s2_league4_game2_06_stac_1399316539&#45;&gt;s2_league4_game2_06_stac_1399316542</title>
<g id="a_edge11"><a xlink:title="Clarification_question">
<path fill="none" stroke="#ff40d1" d="M57.38,-191.99C51.33,-188.52 36.26,-179.85 27.21,-174.64"/>
<polygon fill="#ff40d1" stroke="#ff40d1" points="27.89,-173.02 22.69,-172.04 26.15,-176.05 27.89,-173.02"/>
</a>
</g>
</g>
<!-- s2_league4_game2_06_stac_1399316548 -->
<g id="node7" class="node">
<title>s2_league4_game2_06_stac_1399316548</title>
<g id="a_node7"><a xlink:title="4 &#160;ztime &#160;sorry">
<ellipse fill="black" stroke="black" cx="40" cy="-119.5" rx="3.5" ry="3.5"/>
</a>
</g>
</g>
<!-- s2_league4_game2_06_stac_1399316539&#45;&gt;s2_league4_game2_06_stac_1399316548 -->
<g id="edge13" class="edge">
<title>s2_league4_game2_06_stac_1399316539&#45;&gt;s2_league4_game2_06_stac_1399316548</title>
<g id="a_edge13"><a xlink:title="Question_answer_pair">
<path fill="none" stroke="#12ffff" d="M60.48,-190.97C61.83,-183.18 65.16,-158.96 58,-141 55.58,-134.93 50.53,-129.44 46.4,-125.68"/>
<polygon fill="#12ffff" stroke="#12ffff" points="47.38,-124.22 42.44,-122.32 45.12,-126.89 47.38,-124.22"/>
</a>
</g>
</g>
<!-- s2_league4_game2_06_stac_1399316551 -->
<g id="node9" class="node">
<title>s2_league4_game2_06_stac_1399316551</title>
<g id="a_node9"><a xlink:title="5 &#160;somdechn &#160;Or clay?">
<ellipse fill="black" stroke="black" cx="41" cy="-94.5" rx="3.5" ry="3.5"/>
</a>
</g>
</g>
<!-- s2_league4_game2_06_stac_1399316539&#45;&gt;s2_league4_game2_06_stac_1399316551 -->
<g id="edge14" class="edge">
<title>s2_league4_game2_06_stac_1399316539&#45;&gt;s2_league4_game2_06_stac_1399316551</title>
<g id="a_edge14"><a xlink:title="Alternation">
<path fill="none" stroke="#10495e" d="M61.69,-191.16C68.6,-181.3 93.57,-142.42 78,-116 71.94,-105.72 58.67,-100.23 49.78,-97.59"/>
<polygon fill="#10495e" stroke="#10495e" points="49.75,-95.77 44.47,-96.2 48.86,-99.16 49.75,-95.77"/>
</a>
</g>
</g>
<!-- 2_0 -->
<!-- s2_league4_game2_06_stac_1399316542&#45;&gt;2_0 -->
<!-- s2_league4_game2_06_stac_1399316545 -->
<g id="node5" class="node">
<title>s2_league4_game2_06_stac_1399316545</title>
<g id="a_node5"><a xlink:title="3 &#160;somdechn &#160;Yep/...">
<ellipse fill="black" stroke="black" cx="20" cy="-144.5" rx="3.5" ry="3.5"/>
</a>
</g>
</g>
<!-- s2_league4_game2_06_stac_1399316542&#45;&gt;s2_league4_game2_06_stac_1399316545 -->
<g id="edge12" class="edge">
<title>s2_league4_game2_06_stac_1399316542&#45;&gt;s2_league4_game2_06_stac_1399316545</title>
<g id="a_edge12"><a xlink:title="Question_answer_pair">
<path fill="none" stroke="#12ffff" d="M20,-165.68C20,-162.58 20,-157.47 20,-153.16"/>
<polygon fill="#12ffff" stroke="#12ffff" points="21.75,-153.06 20,-148.06 18.25,-153.06 21.75,-153.06"/>
</a>
</g>
</g>
<!-- 3_0 -->
<!-- s2_league4_game2_06_stac_1399316545&#45;&gt;3_0 -->
<!-- s2_league4_game2_06_stac_1399316545&#45;&gt;s2_league4_game2_06_stac_1399316548 -->
<!-- 4_0 -->
<!-- s2_league4_game2_06_stac_1399316548&#45;&gt;4_0 -->
<!-- s2_league4_game2_06_stac_1399316548&#45;&gt;s2_league4_game2_06_stac_1399316551 -->
<!-- 5_0 -->
<!-- s2_league4_game2_06_stac_1399316551&#45;&gt;5_0 -->
<!-- s2_league4_game2_06_stac_1399316558 -->
<g id="node11" class="node">
<title>s2_league4_game2_06_stac_1399316558</title>
<g id="a_node11"><a xlink:title="7 &#160;ztime &#160;sorry">
<ellipse fill="black" stroke="black" cx="31" cy="-44.5" rx="3.5" ry="3.5"/>
</a>
</g>
</g>
<!-- s2_league4_game2_06_stac_1399316551&#45;&gt;s2_league4_game2_06_stac_1399316558 -->
<g id="edge17" class="edge">
<title>s2_league4_game2_06_stac_1399316551&#45;&gt;s2_league4_game2_06_stac_1399316558</title>
<g id="a_edge17"><a xlink:title="Question_answer_pair">
<path fill="none" stroke="#12ffff" d="M39.31,-91.26C36.7,-87.64 31.81,-80.21 30,-73 28.36,-66.47 28.83,-58.79 29.58,-53.21"/>
<polygon fill="#12ffff" stroke="#12ffff" points="31.33,-53.35 30.42,-48.13 27.88,-52.77 31.33,-53.35"/>
</a>
</g>
</g>
<!-- s2_league4_game2_06_stac_1399316554 -->
<g id="node15" class="node">
<title>s2_league4_game2_06_stac_1399316554</title>
<g id="a_node15"><a xlink:title="6 &#160;Shawnus &#160;none">
<ellipse fill="black" stroke="black" cx="42" cy="-69.5" rx="3.5" ry="3.5"/>
</a>
</g>
</g>
<!-- s2_league4_game2_06_stac_1399316551&#45;&gt;s2_league4_game2_06_stac_1399316554 -->
<g id="edge15" class="edge">
<title>s2_league4_game2_06_stac_1399316551&#45;&gt;s2_league4_game2_06_stac_1399316554</title>
<g id="a_edge15"><a xlink:title="Question_answer_pair">
<path fill="none" stroke="#12ffff" d="M41.12,-90.68C41.26,-87.58 41.48,-82.47 41.67,-78.16"/>
<polygon fill="#12ffff" stroke="#12ffff" points="43.42,-78.13 41.89,-73.06 39.92,-77.98 43.42,-78.13"/>
</a>
</g>
</g>
<!-- 7_0 -->
<!-- s2_league4_game2_06_stac_1399316558&#45;&gt;7_0 -->
<!-- s2_league4_game2_06_stac_1399316561 -->
<g id="node13" class="node">
<title>s2_league4_game2_06_stac_1399316561</title>
<g id="a_node13"><a xlink:title="8 &#160;ztime &#160;too much wheat">
<ellipse fill="black" stroke="black" cx="31" cy="-19.5" rx="3.5" ry="3.5"/>
</a>
</g>
</g>
<!-- s2_league4_game2_06_stac_1399316558&#45;&gt;s2_league4_game2_06_stac_1399316561 -->
<g id="edge18" class="edge">
<title>s2_league4_game2_06_stac_1399316558&#45;&gt;s2_league4_game2_06_stac_1399316561</title>
<g id="a_edge18"><a xlink:title="Explanation">
<path fill="none" stroke="#a62139" d="M31,-40.68C31,-37.58 31,-32.47 31,-28.16"/>
<polygon fill="#a62139" stroke="#a62139" points="32.75,-28.06 31,-23.06 29.25,-28.06 32.75,-28.06"/>
</a>
</g>
</g>
<!-- 8_0 -->
<!-- s2_league4_game2_06_stac_1399316561&#45;&gt;8_0 -->
<!-- s2_league4_game2_06_stac_1399316554&#45;&gt;s2_league4_game2_06_stac_1399316558 -->
<!-- s2_league4_game2_06_stac_1399316555 -->
<g id="node16" class="node">
<title>s2_league4_game2_06_stac_1399316555</title>
<g id="a_node16"><a xlink:title="6 &#160;Shawnus &#160;sorry">
<ellipse fill="black" stroke="black" cx="67" cy="-69.5" rx="3.5" ry="3.5"/>
</a>
</g>
</g>
<!-- s2_league4_game2_06_stac_1399316554&#45;&gt;s2_league4_game2_06_stac_1399316555 -->
<g id="edge16" class="edge">
<title>s2_league4_game2_06_stac_1399316554&#45;&gt;s2_league4_game2_06_stac_1399316555</title>
<g id="a_edge16"><a xlink:title="Comment">
<path fill="none" stroke="#ff8200" d="M45.52,-69.5C49.78,-69.5 54.04,-69.5 58.3,-69.5"/>
<polygon fill="#ff8200" stroke="#ff8200" points="58.31,-71.25 63.31,-69.5 58.31,-67.75 58.31,-71.25"/>
</a>
</g>
</g>
</g>
</svg>
