<?xml version="1.0" encoding="UTF-8" standalone="no"?>
<!DOCTYPE svg PUBLIC "-//W3C//DTD SVG 1.1//EN"
 "http://www.w3.org/Graphics/SVG/1.1/DTD/svg11.dtd">
<!-- Generated by graphviz version 3.0.0 (20220226.1711)
 -->
<!-- Title: 6_s2_league4_game2_775 Pages: 1 -->
<svg width="134pt" height="245pt"
 viewBox="0.00 0.00 134.00 245.00" xmlns="http://www.w3.org/2000/svg" xmlns:xlink="http://www.w3.org/1999/xlink">
<g id="graph0" class="graph" transform="scale(1 1) rotate(0) translate(4 241)">
<title>6_s2_league4_game2_775</title>
<polygon fill="white" stroke="transparent" points="-4,4 -4,-241 130,-241 130,4 -4,4"/>
<g id="clust1" class="cluster">
<title>cluster_6_s2_league4_game2_775</title>
<polygon fill="none" stroke="black" points="8,-8 8,-229 118,-229 118,-8 8,-8"/>
<text text-anchor="middle" x="26.5" y="-213.8" font-family="Times,serif" font-size="14.00">775</text>
</g>
<!-- s2_league4_game2_06_stac_1399316572 -->
<g id="node1" class="node">
<title>s2_league4_game2_06_stac_1399316572</title>
<g id="a_node1"><a xlink:title="1 &#160;Shawnus &#160;anyone have ore to trade?">
<ellipse fill="black" stroke="black" cx="60" cy="-194.5" rx="3.5" ry="3.5"/>
</a>
</g>
</g>
<!-- 1_0 -->
<!-- s2_league4_game2_06_stac_1399316572&#45;&gt;1_0 -->
<!-- s2_league4_game2_06_stac_1399316579 -->
<g id="node3" class="node">
<title>s2_league4_game2_06_stac_1399316579</title>
<g id="a_node3"><a xlink:title="3 &#160;somdechn &#160;No.,..">
<ellipse fill="black" stroke="black" cx="70" cy="-144.5" rx="3.5" ry="3.5"/>
</a>
</g>
</g>
<!-- s2_league4_game2_06_stac_1399316572&#45;&gt;s2_league4_game2_06_stac_1399316579 -->
<g id="edge14" class="edge">
<title>s2_league4_game2_06_stac_1399316572&#45;&gt;s2_league4_game2_06_stac_1399316579</title>
<g id="a_edge14"><a xlink:title="Question_answer_pair">
<path fill="none" stroke="#12ffff" d="M61.99,-191.31C65.07,-187.78 70.84,-180.45 73,-173 74.89,-166.5 73.79,-158.81 72.42,-153.23"/>
<polygon fill="#12ffff" stroke="#12ffff" points="74.02,-152.46 70.95,-148.14 70.65,-153.43 74.02,-152.46"/>
</a>
</g>
</g>
<!-- s2_league4_game2_06_stac_1399316582 -->
<g id="node5" class="node">
<title>s2_league4_game2_06_stac_1399316582</title>
<g id="a_node5"><a xlink:title="4 &#160;Shawnus &#160;or..a clay foy wheat or wood..">
<ellipse fill="black" stroke="black" cx="40" cy="-119.5" rx="3.5" ry="3.5"/>
</a>
</g>
</g>
<!-- s2_league4_game2_06_stac_1399316572&#45;&gt;s2_league4_game2_06_stac_1399316582 -->
<g id="edge15" class="edge">
<title>s2_league4_game2_06_stac_1399316572&#45;&gt;s2_league4_game2_06_stac_1399316582</title>
<g id="a_edge15"><a xlink:title="Alternation">
<path fill="none" stroke="#10495e" d="M58.29,-191.24C55.62,-187.61 50.53,-180.15 48,-173 42.65,-157.89 40.88,-139.09 40.29,-128.58"/>
<polygon fill="#10495e" stroke="#10495e" points="42.03,-128.36 40.06,-123.44 38.53,-128.51 42.03,-128.36"/>
</a>
</g>
</g>
<!-- s2_league4_game2_06_stac_1399316575 -->
<g id="node15" class="node">
<title>s2_league4_game2_06_stac_1399316575</title>
<g id="a_node15"><a xlink:title="2 &#160;ztime &#160;no">
<ellipse fill="black" stroke="black" cx="60" cy="-169.5" rx="3.5" ry="3.5"/>
</a>
</g>
</g>
<!-- s2_league4_game2_06_stac_1399316572&#45;&gt;s2_league4_game2_06_stac_1399316575 -->
<g id="edge12" class="edge">
<title>s2_league4_game2_06_stac_1399316572&#45;&gt;s2_league4_game2_06_stac_1399316575</title>
<g id="a_edge12"><a xlink:title="Question_answer_pair">
<path fill="none" stroke="#12ffff" d="M60,-190.68C60,-187.58 60,-182.47 60,-178.16"/>
<polygon fill="#12ffff" stroke="#12ffff" points="61.75,-178.06 60,-173.06 58.25,-178.06 61.75,-178.06"/>
</a>
</g>
</g>
<!-- 3_0 -->
<!-- s2_league4_game2_06_stac_1399316579&#45;&gt;3_0 -->
<!-- s2_league4_game2_06_stac_1399316579&#45;&gt;s2_league4_game2_06_stac_1399316582 -->
<!-- s2_league4_game2_06_stac_1399316588 -->
<g id="node9" class="node">
<title>s2_league4_game2_06_stac_1399316588</title>
<g id="a_node9"><a xlink:title="6 &#160;somdechn &#160;No clay here iether.">
<ellipse fill="black" stroke="black" cx="63" cy="-69.5" rx="3.5" ry="3.5"/>
</a>
</g>
</g>
<!-- s2_league4_game2_06_stac_1399316579&#45;&gt;s2_league4_game2_06_stac_1399316588 -->
<g id="edge17" class="edge">
<title>s2_league4_game2_06_stac_1399316579&#45;&gt;s2_league4_game2_06_stac_1399316588</title>
<g id="a_edge17"><a xlink:title="Parallel">
<path fill="none" stroke="#0ab046" d="M72.73,-141.48C81.89,-134.45 110.3,-110.44 99,-91 93.13,-80.9 80.2,-75.36 71.55,-72.66"/>
<polygon fill="#0ab046" stroke="#0ab046" points="71.66,-70.88 66.38,-71.23 70.73,-74.25 71.66,-70.88"/>
</a>
</g>
</g>
<!-- 4_0 -->
<!-- s2_league4_game2_06_stac_1399316582&#45;&gt;4_0 -->
<!-- s2_league4_game2_06_stac_1399316585 -->
<g id="node7" class="node">
<title>s2_league4_game2_06_stac_1399316585</title>
<g id="a_node7"><a xlink:title="5 &#160;ztime &#160;i can give wheat">
<ellipse fill="black" stroke="black" cx="40" cy="-94.5" rx="3.5" ry="3.5"/>
</a>
</g>
</g>
<!-- s2_league4_game2_06_stac_1399316582&#45;&gt;s2_league4_game2_06_stac_1399316585 -->
<g id="edge16" class="edge">
<title>s2_league4_game2_06_stac_1399316582&#45;&gt;s2_league4_game2_06_stac_1399316585</title>
<g id="a_edge16"><a xlink:title="Question_answer_pair">
<path fill="none" stroke="#12ffff" d="M40,-115.68C40,-112.58 40,-107.47 40,-103.16"/>
<polygon fill="#12ffff" stroke="#12ffff" points="41.75,-103.06 40,-98.06 38.25,-103.06 41.75,-103.06"/>
</a>
</g>
</g>
<!-- s2_league4_game2_06_stac_1399316582&#45;&gt;s2_league4_game2_06_stac_1399316588 -->
<g id="edge18" class="edge">
<title>s2_league4_game2_06_stac_1399316582&#45;&gt;s2_league4_game2_06_stac_1399316588</title>
<g id="a_edge18"><a xlink:title="Question_answer_pair">
<path fill="none" stroke="#12ffff" d="M41.69,-116.2C44.36,-112.5 49.58,-104.96 53,-98 56.16,-91.57 58.87,-83.88 60.67,-78.27"/>
<polygon fill="#12ffff" stroke="#12ffff" points="62.45,-78.45 62.24,-73.16 59.1,-77.42 62.45,-78.45"/>
</a>
</g>
</g>
<!-- s2_league4_game2_06_stac_1399316591 -->
<g id="node11" class="node">
<title>s2_league4_game2_06_stac_1399316591</title>
<g id="a_node11"><a xlink:title="7 &#160;ztime &#160;ahh sorry .. no clay">
<ellipse fill="black" stroke="black" cx="20" cy="-44.5" rx="3.5" ry="3.5"/>
</a>
</g>
</g>
<!-- s2_league4_game2_06_stac_1399316582&#45;&gt;s2_league4_game2_06_stac_1399316591 -->
<g id="edge19" class="edge">
<title>s2_league4_game2_06_stac_1399316582&#45;&gt;s2_league4_game2_06_stac_1399316591</title>
<g id="a_edge19"><a xlink:title="Question_answer_pair">
<path fill="none" stroke="#12ffff" d="M38.29,-116.24C35.64,-112.61 30.56,-105.14 28,-98 22.59,-82.91 20.84,-64.1 20.27,-53.58"/>
<polygon fill="#12ffff" stroke="#12ffff" points="22.01,-53.36 20.06,-48.44 18.52,-53.51 22.01,-53.36"/>
</a>
</g>
</g>
<!-- 5_0 -->
<!-- s2_league4_game2_06_stac_1399316585&#45;&gt;5_0 -->
<!-- s2_league4_game2_06_stac_1399316585&#45;&gt;s2_league4_game2_06_stac_1399316588 -->
<!-- s2_league4_game2_06_stac_1399316585&#45;&gt;s2_league4_game2_06_stac_1399316591 -->
<g id="edge20" class="edge">
<title>s2_league4_game2_06_stac_1399316585&#45;&gt;s2_league4_game2_06_stac_1399316591</title>
<g id="a_edge20"><a xlink:title="Correction">
<path fill="none" stroke="#ff174e" d="M38.92,-90.92C35.94,-83.76 27.47,-63.44 22.94,-52.57"/>
<polygon fill="#ff174e" stroke="#ff174e" points="24.52,-51.81 20.98,-47.86 21.29,-53.15 24.52,-51.81"/>
</a>
</g>
</g>
<!-- 6_0 -->
<!-- s2_league4_game2_06_stac_1399316588&#45;&gt;6_0 -->
<!-- s2_league4_game2_06_stac_1399316588&#45;&gt;s2_league4_game2_06_stac_1399316591 -->
<!-- s2_league4_game2_06_stac_1399316594 -->
<g id="node13" class="node">
<title>s2_league4_game2_06_stac_1399316594</title>
<g id="a_node13"><a xlink:title="8 &#160;Shawnus &#160;ok">
<ellipse fill="black" stroke="black" cx="44" cy="-19.5" rx="3.5" ry="3.5"/>
</a>
</g>
</g>
<!-- s2_league4_game2_06_stac_1399316588&#45;&gt;s2_league4_game2_06_stac_1399316594 -->
<g id="edge21" class="edge">
<title>s2_league4_game2_06_stac_1399316588&#45;&gt;s2_league4_game2_06_stac_1399316594</title>
<g id="a_edge21"><a xlink:title="Acknowledgement">
<path fill="none" stroke="#12ffff" d="M62.88,-65.82C62.58,-60.78 61.54,-49.62 58,-41 55.88,-35.84 52.33,-30.66 49.33,-26.8"/>
<polygon fill="#12ffff" stroke="#12ffff" points="50.51,-25.47 45.98,-22.71 47.8,-27.69 50.51,-25.47"/>
</a>
</g>
</g>
<!-- 7_0 -->
<!-- s2_league4_game2_06_stac_1399316591&#45;&gt;7_0 -->
<!-- s2_league4_game2_06_stac_1399316591&#45;&gt;s2_league4_game2_06_stac_1399316594 -->
<g id="edge22" class="edge">
<title>s2_league4_game2_06_stac_1399316591&#45;&gt;s2_league4_game2_06_stac_1399316594</title>
<g id="a_edge22"><a xlink:title="Acknowledgement">
<path fill="none" stroke="#12ffff" d="M22.21,-41.38C25.84,-37.9 33.16,-30.89 38.31,-25.96"/>
<polygon fill="#12ffff" stroke="#12ffff" points="39.6,-27.14 42,-22.42 37.17,-24.62 39.6,-27.14"/>
</a>
</g>
</g>
<!-- 8_0 -->
<!-- s2_league4_game2_06_stac_1399316594&#45;&gt;8_0 -->
<!-- s2_league4_game2_06_stac_1399316575&#45;&gt;s2_league4_game2_06_stac_1399316579 -->
<!-- s2_league4_game2_06_stac_1399316576 -->
<g id="node16" class="node">
<title>s2_league4_game2_06_stac_1399316576</title>
<g id="a_node16"><a xlink:title="2 &#160;ztime &#160;sorry">
<ellipse fill="black" stroke="black" cx="106" cy="-169.5" rx="3.5" ry="3.5"/>
</a>
</g>
</g>
<!-- s2_league4_game2_06_stac_1399316575&#45;&gt;s2_league4_game2_06_stac_1399316576 -->
<g id="edge13" class="edge">
<title>s2_league4_game2_06_stac_1399316575&#45;&gt;s2_league4_game2_06_stac_1399316576</title>
<g id="a_edge13"><a xlink:title="Comment">
<path fill="none" stroke="#ff8200" d="M63.59,-169.5C74.8,-169.5 86,-169.5 97.21,-169.5"/>
<polygon fill="#ff8200" stroke="#ff8200" points="97.36,-171.25 102.36,-169.5 97.36,-167.75 97.36,-171.25"/>
</a>
</g>
</g>
</g>
</svg>
