<?xml version="1.0" encoding="UTF-8" standalone="no"?>
<!DOCTYPE svg PUBLIC "-//W3C//DTD SVG 1.1//EN"
 "http://www.w3.org/Graphics/SVG/1.1/DTD/svg11.dtd">
<!-- Generated by graphviz version 3.0.0 (20220226.1711)
 -->
<!-- Title: 7_s2_league4_game2_780 Pages: 1 -->
<svg width="88pt" height="270pt"
 viewBox="0.00 0.00 88.00 270.00" xmlns="http://www.w3.org/2000/svg" xmlns:xlink="http://www.w3.org/1999/xlink">
<g id="graph0" class="graph" transform="scale(1 1) rotate(0) translate(4 266)">
<title>7_s2_league4_game2_780</title>
<polygon fill="white" stroke="transparent" points="-4,4 -4,-266 84,-266 84,4 -4,4"/>
<g id="clust1" class="cluster">
<title>cluster_7_s2_league4_game2_780</title>
<polygon fill="none" stroke="black" points="8,-8 8,-254 72,-254 72,-8 8,-8"/>
<text text-anchor="middle" x="26.5" y="-238.8" font-family="Times,serif" font-size="14.00">780</text>
</g>
<!-- s2_league4_game2_07_stac_1399316579 -->
<g id="node1" class="node">
<title>s2_league4_game2_07_stac_1399316579</title>
<g id="a_node1"><a xlink:title="1 &#160;Shawnus &#160;anyone want to give me wheat for sheep?">
<ellipse fill="black" stroke="black" cx="43" cy="-219.5" rx="3.5" ry="3.5"/>
</a>
</g>
</g>
<!-- s2_league4_game2_07_stac_1399316582 -->
<g id="node2" class="node">
<title>s2_league4_game2_07_stac_1399316582</title>
<g id="a_node2"><a xlink:title="2 &#160;ztime &#160;sorry">
<ellipse fill="black" stroke="black" cx="20" cy="-194.5" rx="3.5" ry="3.5"/>
</a>
</g>
</g>
<!-- s2_league4_game2_07_stac_1399316579&#45;&gt;s2_league4_game2_07_stac_1399316582 -->
<g id="edge5" class="edge">
<title>s2_league4_game2_07_stac_1399316579&#45;&gt;s2_league4_game2_07_stac_1399316582</title>
<g id="a_edge5"><a xlink:title="Question_answer_pair">
<path fill="none" stroke="#12ffff" d="M40.88,-216.38C37.54,-213.04 30.95,-206.45 26.06,-201.56"/>
<polygon fill="#12ffff" stroke="#12ffff" points="27.23,-200.26 22.46,-197.96 24.76,-202.73 27.23,-200.26"/>
</a>
</g>
</g>
<!-- s2_league4_game2_07_stac_1399316585 -->
<g id="node3" class="node">
<title>s2_league4_game2_07_stac_1399316585</title>
<g id="a_node3"><a xlink:title="3 &#160;somdechn &#160;I got sheep">
<ellipse fill="black" stroke="black" cx="40" cy="-169.5" rx="3.5" ry="3.5"/>
</a>
</g>
</g>
<!-- s2_league4_game2_07_stac_1399316579&#45;&gt;s2_league4_game2_07_stac_1399316585 -->
<g id="edge6" class="edge">
<title>s2_league4_game2_07_stac_1399316579&#45;&gt;s2_league4_game2_07_stac_1399316585</title>
<g id="a_edge6"><a xlink:title="Question_answer_pair">
<path fill="none" stroke="#12ffff" d="M42.84,-215.92C42.4,-208.95 41.19,-189.55 40.5,-178.49"/>
<polygon fill="#12ffff" stroke="#12ffff" points="42.24,-178.21 40.18,-173.33 38.74,-178.43 42.24,-178.21"/>
</a>
</g>
</g>
<!-- s2_league4_game2_07_stac_1399316595 -->
<g id="node5" class="node">
<title>s2_league4_game2_07_stac_1399316595</title>
<g id="a_node5"><a xlink:title="5 &#160;somdechn &#160;Shawnus I got Sheep.. still want to trand?">
<ellipse fill="black" stroke="black" cx="50" cy="-119.5" rx="3.5" ry="3.5"/>
</a>
</g>
</g>
<!-- s2_league4_game2_07_stac_1399316579&#45;&gt;s2_league4_game2_07_stac_1399316595 -->
<g id="edge9" class="edge">
<title>s2_league4_game2_07_stac_1399316579&#45;&gt;s2_league4_game2_07_stac_1399316595</title>
<g id="a_edge9"><a xlink:title="Continuation">
<path fill="none" stroke="#10491b" d="M43.73,-216.06C45.72,-209.31 51.18,-189.72 53,-173 54.54,-158.86 54.03,-155.18 53,-141 52.69,-136.76 52.03,-132.07 51.4,-128.25"/>
<polygon fill="#10491b" stroke="#10491b" points="53.1,-127.76 50.51,-123.14 49.65,-128.37 53.1,-127.76"/>
</a>
</g>
</g>
<!-- s2_league4_game2_07_stac_1399316582&#45;&gt;s2_league4_game2_07_stac_1399316585 -->
<!-- s2_league4_game2_07_stac_1399316588 -->
<g id="node4" class="node">
<title>s2_league4_game2_07_stac_1399316588</title>
<g id="a_node4"><a xlink:title="4 &#160;Shawnus &#160;oh well">
<ellipse fill="black" stroke="black" cx="40" cy="-144.5" rx="3.5" ry="3.5"/>
</a>
</g>
</g>
<!-- s2_league4_game2_07_stac_1399316582&#45;&gt;s2_league4_game2_07_stac_1399316588 -->
<g id="edge7" class="edge">
<title>s2_league4_game2_07_stac_1399316582&#45;&gt;s2_league4_game2_07_stac_1399316588</title>
<g id="a_edge7"><a xlink:title="Acknowledgement">
<path fill="none" stroke="#12ffff" d="M20.54,-190.85C21.61,-185.85 24.23,-174.77 28,-166 30.11,-161.1 33.15,-155.92 35.64,-151.99"/>
<polygon fill="#12ffff" stroke="#12ffff" points="37.11,-152.94 38.4,-147.8 34.19,-151.02 37.11,-152.94"/>
</a>
</g>
</g>
<!-- s2_league4_game2_07_stac_1399316585&#45;&gt;s2_league4_game2_07_stac_1399316588 -->
<g id="edge8" class="edge">
<title>s2_league4_game2_07_stac_1399316585&#45;&gt;s2_league4_game2_07_stac_1399316588</title>
<g id="a_edge8"><a xlink:title="Acknowledgement">
<path fill="none" stroke="#12ffff" d="M40,-165.68C40,-162.58 40,-157.47 40,-153.16"/>
<polygon fill="#12ffff" stroke="#12ffff" points="41.75,-153.06 40,-148.06 38.25,-153.06 41.75,-153.06"/>
</a>
</g>
</g>
<!-- s2_league4_game2_07_stac_1399316588&#45;&gt;s2_league4_game2_07_stac_1399316595 -->
<!-- s2_league4_game2_07_stac_1399316592 -->
<g id="node6" class="node">
<title>s2_league4_game2_07_stac_1399316592</title>
<g id="a_node6"><a xlink:title="6 &#160;ztime &#160;*shakes fist* at the robber...">
<ellipse fill="black" stroke="black" cx="34" cy="-94.5" rx="3.5" ry="3.5"/>
</a>
</g>
</g>
<!-- s2_league4_game2_07_stac_1399316595&#45;&gt;s2_league4_game2_07_stac_1399316592 -->
<!-- s2_league4_game2_07_stac_1399316601 -->
<g id="node8" class="node">
<title>s2_league4_game2_07_stac_1399316601</title>
<g id="a_node8"><a xlink:title="8 &#160;Shawnus &#160;i need wheat">
<ellipse fill="black" stroke="black" cx="44" cy="-44.5" rx="3.5" ry="3.5"/>
</a>
</g>
</g>
<!-- s2_league4_game2_07_stac_1399316595&#45;&gt;s2_league4_game2_07_stac_1399316601 -->
<g id="edge11" class="edge">
<title>s2_league4_game2_07_stac_1399316595&#45;&gt;s2_league4_game2_07_stac_1399316601</title>
<g id="a_edge11"><a xlink:title="Question_answer_pair">
<path fill="none" stroke="#12ffff" d="M49.93,-115.65C49.7,-107.74 48.92,-84.89 47,-66 46.57,-61.77 45.9,-57.08 45.3,-53.26"/>
<polygon fill="#12ffff" stroke="#12ffff" points="47,-52.8 44.46,-48.14 43.54,-53.36 47,-52.8"/>
</a>
</g>
</g>
<!-- s2_league4_game2_07_stac_1399316598 -->
<g id="node7" class="node">
<title>s2_league4_game2_07_stac_1399316598</title>
<g id="a_node7"><a xlink:title="7 &#160;Shawnus &#160;haha">
<ellipse fill="black" stroke="black" cx="34" cy="-69.5" rx="3.5" ry="3.5"/>
</a>
</g>
</g>
<!-- s2_league4_game2_07_stac_1399316592&#45;&gt;s2_league4_game2_07_stac_1399316598 -->
<g id="edge10" class="edge">
<title>s2_league4_game2_07_stac_1399316592&#45;&gt;s2_league4_game2_07_stac_1399316598</title>
<g id="a_edge10"><a xlink:title="Comment">
<path fill="none" stroke="#ff8200" d="M34,-90.68C34,-87.58 34,-82.47 34,-78.16"/>
<polygon fill="#ff8200" stroke="#ff8200" points="35.75,-78.06 34,-73.06 32.25,-78.06 35.75,-78.06"/>
</a>
</g>
</g>
<!-- s2_league4_game2_07_stac_1399316598&#45;&gt;s2_league4_game2_07_stac_1399316601 -->
<!-- s2_league4_game2_07_stac_1399316604 -->
<g id="node9" class="node">
<title>s2_league4_game2_07_stac_1399316604</title>
<g id="a_node9"><a xlink:title="9 &#160;somdechn &#160;Ohh I see..">
<ellipse fill="black" stroke="black" cx="44" cy="-19.5" rx="3.5" ry="3.5"/>
</a>
</g>
</g>
<!-- s2_league4_game2_07_stac_1399316601&#45;&gt;s2_league4_game2_07_stac_1399316604 -->
<g id="edge12" class="edge">
<title>s2_league4_game2_07_stac_1399316601&#45;&gt;s2_league4_game2_07_stac_1399316604</title>
<g id="a_edge12"><a xlink:title="Acknowledgement">
<path fill="none" stroke="#12ffff" d="M44,-40.68C44,-37.58 44,-32.47 44,-28.16"/>
<polygon fill="#12ffff" stroke="#12ffff" points="45.75,-28.06 44,-23.06 42.25,-28.06 45.75,-28.06"/>
</a>
</g>
</g>
</g>
</svg>
