<?xml version="1.0" encoding="UTF-8" standalone="no"?>
<!DOCTYPE svg PUBLIC "-//W3C//DTD SVG 1.1//EN"
 "http://www.w3.org/Graphics/SVG/1.1/DTD/svg11.dtd">
<!-- Generated by graphviz version 3.0.0 (20220226.1711)
 -->
<!-- Title: 8_s2_league4_game2_783 Pages: 1 -->
<svg width="73pt" height="120pt"
 viewBox="0.00 0.00 73.00 120.00" xmlns="http://www.w3.org/2000/svg" xmlns:xlink="http://www.w3.org/1999/xlink">
<g id="graph0" class="graph" transform="scale(1 1) rotate(0) translate(4 116)">
<title>8_s2_league4_game2_783</title>
<polygon fill="white" stroke="transparent" points="-4,4 -4,-116 69,-116 69,4 -4,4"/>
<g id="clust1" class="cluster">
<title>cluster_8_s2_league4_game2_783</title>
<polygon fill="none" stroke="black" points="8,-8 8,-104 57,-104 57,-8 8,-8"/>
<text text-anchor="middle" x="26.5" y="-88.8" font-family="Times,serif" font-size="14.00">783</text>
</g>
<!-- s2_league4_game2_08_stac_1399316519 -->
<g id="node1" class="node">
<title>s2_league4_game2_08_stac_1399316519</title>
<g id="a_node1"><a xlink:title="2 &#160;ztime &#160;yer.. man.. too much..">
<ellipse fill="black" stroke="black" cx="20" cy="-44.5" rx="3.5" ry="3.5"/>
</a>
</g>
</g>
<!-- 2_0 -->
<!-- s2_league4_game2_08_stac_1399316519&#45;&gt;2_0 -->
<!-- s2_league4_game2_08_stac_1399316523 -->
<g id="node3" class="node">
<title>s2_league4_game2_08_stac_1399316523</title>
<g id="a_node3"><a xlink:title="3 &#160;somdechn &#160;Pass it this way bro...">
<ellipse fill="black" stroke="black" cx="20" cy="-19.5" rx="3.5" ry="3.5"/>
</a>
</g>
</g>
<!-- s2_league4_game2_08_stac_1399316519&#45;&gt;s2_league4_game2_08_stac_1399316523 -->
<g id="edge5" class="edge">
<title>s2_league4_game2_08_stac_1399316519&#45;&gt;s2_league4_game2_08_stac_1399316523</title>
<g id="a_edge5"><a xlink:title="Result">
<path fill="none" stroke="#10ff0f" d="M20,-40.68C20,-37.58 20,-32.47 20,-28.16"/>
<polygon fill="#10ff0f" stroke="#10ff0f" points="21.75,-28.06 20,-23.06 18.25,-28.06 21.75,-28.06"/>
</a>
</g>
</g>
<!-- 3_0 -->
<!-- s2_league4_game2_08_stac_1399316523&#45;&gt;3_0 -->
<!-- s2_league4_game2_08_stac_1399316515 -->
<g id="node5" class="node">
<title>s2_league4_game2_08_stac_1399316515</title>
<g id="a_node5"><a xlink:title="1 &#160;somdechn &#160;3 wheats???">
<ellipse fill="black" stroke="black" cx="20" cy="-69.5" rx="3.5" ry="3.5"/>
</a>
</g>
</g>
<!-- s2_league4_game2_08_stac_1399316515&#45;&gt;s2_league4_game2_08_stac_1399316519 -->
<g id="edge4" class="edge">
<title>s2_league4_game2_08_stac_1399316515&#45;&gt;s2_league4_game2_08_stac_1399316519</title>
<g id="a_edge4"><a xlink:title="Question_answer_pair">
<path fill="none" stroke="#12ffff" d="M20,-65.68C20,-62.58 20,-57.47 20,-53.16"/>
<polygon fill="#12ffff" stroke="#12ffff" points="21.75,-53.06 20,-48.06 18.25,-53.06 21.75,-53.06"/>
</a>
</g>
</g>
<!-- s2_league4_game2_08_stac_1399316516 -->
<g id="node6" class="node">
<title>s2_league4_game2_08_stac_1399316516</title>
<g id="a_node6"><a xlink:title="1 &#160;somdechn &#160;really???">
<ellipse fill="black" stroke="black" cx="45" cy="-69.5" rx="3.5" ry="3.5"/>
</a>
</g>
</g>
<!-- s2_league4_game2_08_stac_1399316515&#45;&gt;s2_league4_game2_08_stac_1399316516 -->
<g id="edge3" class="edge">
<title>s2_league4_game2_08_stac_1399316515&#45;&gt;s2_league4_game2_08_stac_1399316516</title>
<g id="a_edge3"><a xlink:title="Continuation">
<path fill="none" stroke="#10491b" d="M23.52,-69.5C27.78,-69.5 32.04,-69.5 36.3,-69.5"/>
<polygon fill="#10491b" stroke="#10491b" points="36.31,-71.25 41.31,-69.5 36.31,-67.75 36.31,-71.25"/>
</a>
</g>
</g>
</g>
</svg>
