<?xml version="1.0" encoding="UTF-8" standalone="no"?>
<!DOCTYPE svg PUBLIC "-//W3C//DTD SVG 1.1//EN"
 "http://www.w3.org/Graphics/SVG/1.1/DTD/svg11.dtd">
<!-- Generated by graphviz version 3.0.0 (20220226.1711)
 -->
<!-- Title: 9_s2_league4_game2_785 Pages: 1 -->
<svg width="113pt" height="220pt"
 viewBox="0.00 0.00 113.00 220.00" xmlns="http://www.w3.org/2000/svg" xmlns:xlink="http://www.w3.org/1999/xlink">
<g id="graph0" class="graph" transform="scale(1 1) rotate(0) translate(4 216)">
<title>9_s2_league4_game2_785</title>
<polygon fill="white" stroke="transparent" points="-4,4 -4,-216 109,-216 109,4 -4,4"/>
<g id="clust1" class="cluster">
<title>cluster_9_s2_league4_game2_785</title>
<polygon fill="none" stroke="black" points="8,-8 8,-204 97,-204 97,-8 8,-8"/>
<text text-anchor="middle" x="26.5" y="-188.8" font-family="Times,serif" font-size="14.00">785</text>
</g>
<!-- s2_league4_game2_09_stac_1399316474 -->
<g id="node1" class="node">
<title>s2_league4_game2_09_stac_1399316474</title>
<g id="a_node1"><a xlink:title="1 &#160;Shawnus &#160;i need a wheat">
<ellipse fill="black" stroke="black" cx="60" cy="-169.5" rx="3.5" ry="3.5"/>
</a>
</g>
</g>
<!-- 1_0 -->
<!-- s2_league4_game2_09_stac_1399316474&#45;&gt;1_0 -->
<!-- s2_league4_game2_09_stac_1399316477 -->
<g id="node3" class="node">
<title>s2_league4_game2_09_stac_1399316477</title>
<g id="a_node3"><a xlink:title="2 &#160;Shawnus &#160;can give..wood or sheep">
<ellipse fill="black" stroke="black" cx="20" cy="-144.5" rx="3.5" ry="3.5"/>
</a>
</g>
</g>
<!-- s2_league4_game2_09_stac_1399316474&#45;&gt;s2_league4_game2_09_stac_1399316477 -->
<g id="edge10" class="edge">
<title>s2_league4_game2_09_stac_1399316474&#45;&gt;s2_league4_game2_09_stac_1399316477</title>
<g id="a_edge10"><a xlink:title="Elaboration">
<path fill="none" stroke="#a621c7" d="M57.38,-166.99C51.33,-163.52 36.26,-154.85 27.21,-149.64"/>
<polygon fill="#a621c7" stroke="#a621c7" points="27.89,-148.02 22.69,-147.04 26.15,-151.05 27.89,-148.02"/>
</a>
</g>
</g>
<!-- s2_league4_game2_09_stac_1399316480 -->
<g id="node5" class="node">
<title>s2_league4_game2_09_stac_1399316480</title>
<g id="a_node5"><a xlink:title="3 &#160;ztime &#160;sorry">
<ellipse fill="black" stroke="black" cx="40" cy="-119.5" rx="3.5" ry="3.5"/>
</a>
</g>
</g>
<!-- s2_league4_game2_09_stac_1399316474&#45;&gt;s2_league4_game2_09_stac_1399316480 -->
<g id="edge11" class="edge">
<title>s2_league4_game2_09_stac_1399316474&#45;&gt;s2_league4_game2_09_stac_1399316480</title>
<g id="a_edge11"><a xlink:title="Question_answer_pair">
<path fill="none" stroke="#12ffff" d="M60.35,-165.79C60.9,-160.71 61.55,-149.48 58,-141 55.47,-134.97 50.44,-129.48 46.33,-125.7"/>
<polygon fill="#12ffff" stroke="#12ffff" points="47.34,-124.26 42.41,-122.33 45.06,-126.92 47.34,-124.26"/>
</a>
</g>
</g>
<!-- s2_league4_game2_09_stac_1399316486 -->
<g id="node9" class="node">
<title>s2_league4_game2_09_stac_1399316486</title>
<g id="a_node9"><a xlink:title="5 &#160;somdechn &#160;Sore">
<ellipse fill="black" stroke="black" cx="50" cy="-69.5" rx="3.5" ry="3.5"/>
</a>
</g>
</g>
<!-- s2_league4_game2_09_stac_1399316474&#45;&gt;s2_league4_game2_09_stac_1399316486 -->
<g id="edge13" class="edge">
<title>s2_league4_game2_09_stac_1399316474&#45;&gt;s2_league4_game2_09_stac_1399316486</title>
<g id="a_edge13"><a xlink:title="Question_answer_pair">
<path fill="none" stroke="#12ffff" d="M61.6,-166.21C68.15,-156.55 91.87,-118.35 78,-91 73.83,-82.77 64.63,-77.05 57.91,-73.78"/>
<polygon fill="#12ffff" stroke="#12ffff" points="58.29,-72.04 53.01,-71.61 56.88,-75.24 58.29,-72.04"/>
</a>
</g>
</g>
<!-- 2_0 -->
<!-- s2_league4_game2_09_stac_1399316477&#45;&gt;2_0 -->
<!-- s2_league4_game2_09_stac_1399316477&#45;&gt;s2_league4_game2_09_stac_1399316480 -->
<!-- 3_0 -->
<!-- s2_league4_game2_09_stac_1399316480&#45;&gt;3_0 -->
<!-- s2_league4_game2_09_stac_1399316483 -->
<g id="node7" class="node">
<title>s2_league4_game2_09_stac_1399316483</title>
<g id="a_node7"><a xlink:title="4 &#160;ztime &#160;i spent it">
<ellipse fill="black" stroke="black" cx="40" cy="-94.5" rx="3.5" ry="3.5"/>
</a>
</g>
</g>
<!-- s2_league4_game2_09_stac_1399316480&#45;&gt;s2_league4_game2_09_stac_1399316483 -->
<g id="edge12" class="edge">
<title>s2_league4_game2_09_stac_1399316480&#45;&gt;s2_league4_game2_09_stac_1399316483</title>
<g id="a_edge12"><a xlink:title="Explanation">
<path fill="none" stroke="#a62139" d="M40,-115.68C40,-112.58 40,-107.47 40,-103.16"/>
<polygon fill="#a62139" stroke="#a62139" points="41.75,-103.06 40,-98.06 38.25,-103.06 41.75,-103.06"/>
</a>
</g>
</g>
<!-- 4_0 -->
<!-- s2_league4_game2_09_stac_1399316483&#45;&gt;4_0 -->
<!-- s2_league4_game2_09_stac_1399316483&#45;&gt;s2_league4_game2_09_stac_1399316486 -->
<!-- 5_0 -->
<!-- s2_league4_game2_09_stac_1399316486&#45;&gt;5_0 -->
<!-- s2_league4_game2_09_stac_1399316489 -->
<g id="node11" class="node">
<title>s2_league4_game2_09_stac_1399316489</title>
<g id="a_node11"><a xlink:title="6 &#160;somdechn &#160;ry..">
<ellipse fill="black" stroke="black" cx="30" cy="-44.5" rx="3.5" ry="3.5"/>
</a>
</g>
</g>
<!-- s2_league4_game2_09_stac_1399316486&#45;&gt;s2_league4_game2_09_stac_1399316489 -->
<g id="edge14" class="edge">
<title>s2_league4_game2_09_stac_1399316486&#45;&gt;s2_league4_game2_09_stac_1399316489</title>
<g id="a_edge14"><a xlink:title="Continuation">
<path fill="none" stroke="#10491b" d="M48.15,-66.38C45.31,-63.11 39.75,-56.71 35.52,-51.85"/>
<polygon fill="#10491b" stroke="#10491b" points="36.74,-50.59 32.14,-47.96 34.1,-52.88 36.74,-50.59"/>
</a>
</g>
</g>
<!-- s2_league4_game2_09_stac_1399316492 -->
<g id="node13" class="node">
<title>s2_league4_game2_09_stac_1399316492</title>
<g id="a_node13"><a xlink:title="7 &#160;Shawnus &#160;haha wasnt sury if that was">
<ellipse fill="black" stroke="black" cx="40" cy="-19.5" rx="3.5" ry="3.5"/>
</a>
</g>
</g>
<!-- s2_league4_game2_09_stac_1399316486&#45;&gt;s2_league4_game2_09_stac_1399316492 -->
<g id="edge15" class="edge">
<title>s2_league4_game2_09_stac_1399316486&#45;&gt;s2_league4_game2_09_stac_1399316492</title>
<g id="a_edge15"><a xlink:title="Comment">
<path fill="none" stroke="#ff8200" d="M52.58,-66.84C58.71,-62.68 73.27,-51.38 68,-41 63.83,-32.77 54.63,-27.05 47.91,-23.78"/>
<polygon fill="#ff8200" stroke="#ff8200" points="48.29,-22.04 43.01,-21.61 46.88,-25.24 48.29,-22.04"/>
</a>
</g>
</g>
<!-- 6_0 -->
<!-- s2_league4_game2_09_stac_1399316489&#45;&gt;6_0 -->
<!-- s2_league4_game2_09_stac_1399316489&#45;&gt;s2_league4_game2_09_stac_1399316492 -->
<!-- s2_league4_game2_09_stac_1399316493 -->
<g id="node14" class="node">
<title>s2_league4_game2_09_stac_1399316493</title>
<g id="a_node14"><a xlink:title="7 &#160;Shawnus &#160;sorry or sure">
<ellipse fill="black" stroke="black" cx="65" cy="-19.5" rx="3.5" ry="3.5"/>
</a>
</g>
</g>
<!-- s2_league4_game2_09_stac_1399316492&#45;&gt;s2_league4_game2_09_stac_1399316493 -->
<g id="edge16" class="edge">
<title>s2_league4_game2_09_stac_1399316492&#45;&gt;s2_league4_game2_09_stac_1399316493</title>
<g id="a_edge16"><a xlink:title="Elaboration">
<path fill="none" stroke="#a621c7" d="M43.52,-19.5C47.78,-19.5 52.04,-19.5 56.3,-19.5"/>
<polygon fill="#a621c7" stroke="#a621c7" points="56.31,-21.25 61.31,-19.5 56.31,-17.75 56.31,-21.25"/>
</a>
</g>
</g>
</g>
</svg>
