<?xml version="1.0" encoding="UTF-8" standalone="no"?>
<!DOCTYPE svg PUBLIC "-//W3C//DTD SVG 1.1//EN"
 "http://www.w3.org/Graphics/SVG/1.1/DTD/svg11.dtd">
<!-- Generated by graphviz version 3.0.0 (20220226.1711)
 -->
<!-- Title: 5_pilot02_56 Pages: 1 -->
<svg width="134pt" height="570pt"
 viewBox="0.00 0.00 134.00 570.00" xmlns="http://www.w3.org/2000/svg" xmlns:xlink="http://www.w3.org/1999/xlink">
<g id="graph0" class="graph" transform="scale(1 1) rotate(0) translate(4 566)">
<title>5_pilot02_56</title>
<polygon fill="white" stroke="transparent" points="-4,4 -4,-566 130,-566 130,4 -4,4"/>
<g id="clust1" class="cluster">
<title>cluster_5_pilot02_56</title>
<polygon fill="none" stroke="black" points="8,-8 8,-554 118,-554 118,-8 8,-8"/>
<text text-anchor="middle" x="23" y="-538.8" font-family="Times,serif" font-size="14.00">56</text>
</g>
<!-- pilot02_05_stac_1338397685 -->
<g id="node1" class="node">
<title>pilot02_05_stac_1338397685</title>
<g id="a_node1"><a xlink:title="2 &#160;Cat &#160;i can offer ore for sheep or clay">
<ellipse fill="black" stroke="black" cx="52" cy="-494.5" rx="3.5" ry="3.5"/>
</a>
</g>
</g>
<!-- 2_0 -->
<!-- pilot02_05_stac_1338397685&#45;&gt;2_0 -->
<!-- pilot02_05_stac_1338407685 -->
<g id="node3" class="node">
<title>pilot02_05_stac_1338407685</title>
<g id="a_node3"><a xlink:title="3 &#160;Cat &#160;or wheet for the same">
<ellipse fill="black" stroke="black" cx="29" cy="-469.5" rx="3.5" ry="3.5"/>
</a>
</g>
</g>
<!-- pilot02_05_stac_1338397685&#45;&gt;pilot02_05_stac_1338407685 -->
<g id="edge29" class="edge">
<title>pilot02_05_stac_1338397685&#45;&gt;pilot02_05_stac_1338407685</title>
<g id="a_edge29"><a xlink:title="Alternation">
<path fill="none" stroke="#10495e" d="M49.88,-491.38C46.54,-488.04 39.95,-481.45 35.06,-476.56"/>
<polygon fill="#10495e" stroke="#10495e" points="36.23,-475.26 31.46,-472.96 33.76,-477.73 36.23,-475.26"/>
</a>
</g>
</g>
<!-- pilot02_05_stac_1338417685 -->
<g id="node5" class="node">
<title>pilot02_05_stac_1338417685</title>
<g id="a_node5"><a xlink:title="4 &#160;william &#160;thomas, can you continue from where you left the game?">
<ellipse fill="black" stroke="black" cx="27" cy="-444.5" rx="3.5" ry="3.5"/>
</a>
</g>
</g>
<!-- pilot02_05_stac_1338397685&#45;&gt;pilot02_05_stac_1338417685 -->
<g id="edge30" class="edge">
<title>pilot02_05_stac_1338397685&#45;&gt;pilot02_05_stac_1338417685</title>
<g id="a_edge30"><a xlink:title="ParallNarrContinuationbackground">
<path fill="none" stroke="#0ab046" d="M51.3,-490.82C49.92,-485.77 46.59,-474.61 42,-466 39.25,-460.85 35.34,-455.55 32.2,-451.63"/>
<polygon fill="#0ab046" stroke="#0ab046" points="33.52,-450.49 28.99,-447.75 30.83,-452.72 33.52,-450.49"/>
</a>
</g>
</g>
<!-- pilot02_05_stac_1338467685 -->
<g id="node15" class="node">
<title>pilot02_05_stac_1338467685</title>
<g id="a_node15"><a xlink:title="9 &#160;Cat &#160;anyone for ore or what?">
<ellipse fill="black" stroke="black" cx="53" cy="-319.5" rx="3.5" ry="3.5"/>
</a>
</g>
</g>
<!-- pilot02_05_stac_1338397685&#45;&gt;pilot02_05_stac_1338467685 -->
<g id="edge31" class="edge">
<title>pilot02_05_stac_1338397685&#45;&gt;pilot02_05_stac_1338467685</title>
<g id="a_edge31"><a xlink:title="ParallNarrContinuationbackground">
<path fill="none" stroke="#0ab046" d="M53.8,-491.47C59.23,-485.15 75,-465.09 75,-445.5 75,-445.5 75,-445.5 75,-368.5 75,-352.41 64.66,-335.82 58.16,-326.98"/>
<polygon fill="#0ab046" stroke="#0ab046" points="59.47,-325.81 55.03,-322.92 56.69,-327.95 59.47,-325.81"/>
</a>
</g>
</g>
<!-- 3_0 -->
<!-- pilot02_05_stac_1338407685&#45;&gt;3_0 -->
<!-- pilot02_05_stac_1338407685&#45;&gt;pilot02_05_stac_1338417685 -->
<!-- 4_0 -->
<!-- pilot02_05_stac_1338417685&#45;&gt;4_0 -->
<!-- pilot02_05_stac_1338427685 -->
<g id="node7" class="node">
<title>pilot02_05_stac_1338427685</title>
<g id="a_node7"><a xlink:title="5 &#160;Thomas &#160;yes">
<ellipse fill="black" stroke="black" cx="27" cy="-419.5" rx="3.5" ry="3.5"/>
</a>
</g>
</g>
<!-- pilot02_05_stac_1338417685&#45;&gt;pilot02_05_stac_1338427685 -->
<g id="edge32" class="edge">
<title>pilot02_05_stac_1338417685&#45;&gt;pilot02_05_stac_1338427685</title>
<g id="a_edge32"><a xlink:title="Question_answer_pair">
<path fill="none" stroke="#12ffff" d="M27,-440.68C27,-437.58 27,-432.47 27,-428.16"/>
<polygon fill="#12ffff" stroke="#12ffff" points="28.75,-428.06 27,-423.06 25.25,-428.06 28.75,-428.06"/>
</a>
</g>
</g>
<!-- 5_0 -->
<!-- pilot02_05_stac_1338427685&#45;&gt;5_0 -->
<!-- pilot02_05_stac_1338437685 -->
<g id="node9" class="node">
<title>pilot02_05_stac_1338437685</title>
<g id="a_node9"><a xlink:title="6 &#160;Thomas &#160;sorry about that">
<ellipse fill="black" stroke="black" cx="27" cy="-394.5" rx="3.5" ry="3.5"/>
</a>
</g>
</g>
<!-- pilot02_05_stac_1338427685&#45;&gt;pilot02_05_stac_1338437685 -->
<g id="edge33" class="edge">
<title>pilot02_05_stac_1338427685&#45;&gt;pilot02_05_stac_1338437685</title>
<g id="a_edge33"><a xlink:title="Comment">
<path fill="none" stroke="#ff8200" d="M27,-415.68C27,-412.58 27,-407.47 27,-403.16"/>
<polygon fill="#ff8200" stroke="#ff8200" points="28.75,-403.06 27,-398.06 25.25,-403.06 28.75,-403.06"/>
</a>
</g>
</g>
<!-- 6_0 -->
<!-- pilot02_05_stac_1338437685&#45;&gt;6_0 -->
<!-- pilot02_05_stac_1338447685 -->
<g id="node11" class="node">
<title>pilot02_05_stac_1338447685</title>
<g id="a_node11"><a xlink:title="7 &#160;Thomas &#160;but it&#39;s working now">
<ellipse fill="black" stroke="black" cx="27" cy="-369.5" rx="3.5" ry="3.5"/>
</a>
</g>
</g>
<!-- pilot02_05_stac_1338437685&#45;&gt;pilot02_05_stac_1338447685 -->
<g id="edge34" class="edge">
<title>pilot02_05_stac_1338437685&#45;&gt;pilot02_05_stac_1338447685</title>
<g id="a_edge34"><a xlink:title="ContrastCorrection">
<path fill="none" stroke="#ff7ecf" d="M27,-390.68C27,-387.58 27,-382.47 27,-378.16"/>
<polygon fill="#ff7ecf" stroke="#ff7ecf" points="28.75,-378.06 27,-373.06 25.25,-378.06 28.75,-378.06"/>
</a>
</g>
</g>
<!-- 7_0 -->
<!-- pilot02_05_stac_1338447685&#45;&gt;7_0 -->
<!-- pilot02_05_stac_1338457685 -->
<g id="node13" class="node">
<title>pilot02_05_stac_1338457685</title>
<g id="a_node13"><a xlink:title="8 &#160;Cat &#160;np">
<ellipse fill="black" stroke="black" cx="27" cy="-344.5" rx="3.5" ry="3.5"/>
</a>
</g>
</g>
<!-- pilot02_05_stac_1338447685&#45;&gt;pilot02_05_stac_1338457685 -->
<g id="edge35" class="edge">
<title>pilot02_05_stac_1338447685&#45;&gt;pilot02_05_stac_1338457685</title>
<g id="a_edge35"><a xlink:title="Comment">
<path fill="none" stroke="#ff8200" d="M27,-365.68C27,-362.58 27,-357.47 27,-353.16"/>
<polygon fill="#ff8200" stroke="#ff8200" points="28.75,-353.06 27,-348.06 25.25,-353.06 28.75,-353.06"/>
</a>
</g>
</g>
<!-- 8_0 -->
<!-- pilot02_05_stac_1338457685&#45;&gt;8_0 -->
<!-- pilot02_05_stac_1338457685&#45;&gt;pilot02_05_stac_1338467685 -->
<!-- 9_0 -->
<!-- pilot02_05_stac_1338467685&#45;&gt;9_0 -->
<!-- pilot02_05_stac_1338477685 -->
<g id="node17" class="node">
<title>pilot02_05_stac_1338477685</title>
<g id="a_node17"><a xlink:title="10 &#160;william &#160;no">
<ellipse fill="black" stroke="black" cx="20" cy="-294.5" rx="3.5" ry="3.5"/>
</a>
</g>
</g>
<!-- pilot02_05_stac_1338467685&#45;&gt;pilot02_05_stac_1338477685 -->
<g id="edge36" class="edge">
<title>pilot02_05_stac_1338467685&#45;&gt;pilot02_05_stac_1338477685</title>
<g id="a_edge36"><a xlink:title="Question_answer_pair">
<path fill="none" stroke="#12ffff" d="M50.41,-316.7C45.37,-313.18 34.11,-305.33 26.8,-300.24"/>
<polygon fill="#12ffff" stroke="#12ffff" points="27.59,-298.66 22.49,-297.23 25.59,-301.53 27.59,-298.66"/>
</a>
</g>
</g>
<!-- pilot02_05_stac_1338487685 -->
<g id="node19" class="node">
<title>pilot02_05_stac_1338487685</title>
<g id="a_node19"><a xlink:title="11 &#160;Thomas &#160;i have ore">
<ellipse fill="black" stroke="black" cx="20" cy="-269.5" rx="3.5" ry="3.5"/>
</a>
</g>
</g>
<!-- pilot02_05_stac_1338467685&#45;&gt;pilot02_05_stac_1338487685 -->
<g id="edge37" class="edge">
<title>pilot02_05_stac_1338467685&#45;&gt;pilot02_05_stac_1338487685</title>
<g id="a_edge37"><a xlink:title="Question_answer_pair">
<path fill="none" stroke="#12ffff" d="M51.41,-316.18C46.59,-309.17 32.01,-287.96 24.53,-277.09"/>
<polygon fill="#12ffff" stroke="#12ffff" points="25.93,-276.03 21.65,-272.9 23.04,-278.02 25.93,-276.03"/>
</a>
</g>
</g>
<!-- pilot02_05_stac_1338517685 -->
<g id="node25" class="node">
<title>pilot02_05_stac_1338517685</title>
<g id="a_node25"><a xlink:title="14 &#160;Cat &#160;I mean I have those to offer">
<ellipse fill="black" stroke="black" cx="30" cy="-194.5" rx="3.5" ry="3.5"/>
</a>
</g>
</g>
<!-- pilot02_05_stac_1338467685&#45;&gt;pilot02_05_stac_1338517685 -->
<g id="edge38" class="edge">
<title>pilot02_05_stac_1338467685&#45;&gt;pilot02_05_stac_1338517685</title>
<g id="a_edge38"><a xlink:title="Elaboration">
<path fill="none" stroke="#a621c7" d="M53.94,-316.09C58.37,-304.3 76.21,-251.91 58,-216 53.83,-207.77 44.63,-202.05 37.91,-198.78"/>
<polygon fill="#a621c7" stroke="#a621c7" points="38.29,-197.04 33.01,-196.61 36.88,-200.24 38.29,-197.04"/>
</a>
</g>
</g>
<!-- pilot02_05_stac_1338547685 -->
<g id="node41" class="node">
<title>pilot02_05_stac_1338547685</title>
<g id="a_node41"><a xlink:title="17 &#160;Thomas &#160;no ">
<ellipse fill="black" stroke="black" cx="54" cy="-119.5" rx="3.5" ry="3.5"/>
</a>
</g>
</g>
<!-- pilot02_05_stac_1338467685&#45;&gt;pilot02_05_stac_1338547685 -->
<g id="edge39" class="edge">
<title>pilot02_05_stac_1338467685&#45;&gt;pilot02_05_stac_1338547685</title>
<g id="a_edge39"><a xlink:title="Question_answer_pair">
<path fill="none" stroke="#12ffff" d="M54.88,-316.41C62.15,-308.11 88,-276.42 88,-245.5 88,-245.5 88,-245.5 88,-168.5 88,-155.49 85.41,-151.69 78,-141 73.41,-134.38 66.18,-128.6 60.85,-124.88"/>
<polygon fill="#12ffff" stroke="#12ffff" points="61.76,-123.39 56.63,-122.08 59.83,-126.3 61.76,-123.39"/>
</a>
</g>
</g>
<!-- 10_0 -->
<!-- pilot02_05_stac_1338477685&#45;&gt;10_0 -->
<!-- pilot02_05_stac_1338477685&#45;&gt;pilot02_05_stac_1338487685 -->
<!-- 11_0 -->
<!-- pilot02_05_stac_1338487685&#45;&gt;11_0 -->
<!-- pilot02_05_stac_1338497685 -->
<g id="node21" class="node">
<title>pilot02_05_stac_1338497685</title>
<g id="a_node21"><a xlink:title="12 &#160;Thomas &#160;I need sheep">
<ellipse fill="black" stroke="black" cx="20" cy="-244.5" rx="3.5" ry="3.5"/>
</a>
</g>
</g>
<!-- pilot02_05_stac_1338487685&#45;&gt;pilot02_05_stac_1338497685 -->
<g id="edge40" class="edge">
<title>pilot02_05_stac_1338487685&#45;&gt;pilot02_05_stac_1338497685</title>
<g id="a_edge40"><a xlink:title="ContrastCorrection">
<path fill="none" stroke="#ff7ecf" d="M20,-265.68C20,-262.58 20,-257.47 20,-253.16"/>
<polygon fill="#ff7ecf" stroke="#ff7ecf" points="21.75,-253.06 20,-248.06 18.25,-253.06 21.75,-253.06"/>
</a>
</g>
</g>
<!-- 12_0 -->
<!-- pilot02_05_stac_1338497685&#45;&gt;12_0 -->
<!-- pilot02_05_stac_1338507685 -->
<g id="node23" class="node">
<title>pilot02_05_stac_1338507685</title>
<g id="a_node23"><a xlink:title="13 &#160;Thomas &#160;or clay">
<ellipse fill="black" stroke="black" cx="20" cy="-219.5" rx="3.5" ry="3.5"/>
</a>
</g>
</g>
<!-- pilot02_05_stac_1338497685&#45;&gt;pilot02_05_stac_1338507685 -->
<g id="edge41" class="edge">
<title>pilot02_05_stac_1338497685&#45;&gt;pilot02_05_stac_1338507685</title>
<g id="a_edge41"><a xlink:title="Alternation">
<path fill="none" stroke="#10495e" d="M20,-240.68C20,-237.58 20,-232.47 20,-228.16"/>
<polygon fill="#10495e" stroke="#10495e" points="21.75,-228.06 20,-223.06 18.25,-228.06 21.75,-228.06"/>
</a>
</g>
</g>
<!-- 13_0 -->
<!-- pilot02_05_stac_1338507685&#45;&gt;13_0 -->
<!-- pilot02_05_stac_1338507685&#45;&gt;pilot02_05_stac_1338517685 -->
<!-- 14_0 -->
<!-- pilot02_05_stac_1338517685&#45;&gt;14_0 -->
<!-- pilot02_05_stac_1338527685 -->
<g id="node27" class="node">
<title>pilot02_05_stac_1338527685</title>
<g id="a_node27"><a xlink:title="15 &#160;Cat &#160;I need sheep">
<ellipse fill="black" stroke="black" cx="30" cy="-169.5" rx="3.5" ry="3.5"/>
</a>
</g>
</g>
<!-- pilot02_05_stac_1338517685&#45;&gt;pilot02_05_stac_1338527685 -->
<g id="edge42" class="edge">
<title>pilot02_05_stac_1338517685&#45;&gt;pilot02_05_stac_1338527685</title>
<g id="a_edge42"><a xlink:title="ParallNarrContinuationbackground">
<path fill="none" stroke="#0ab046" d="M30,-190.68C30,-187.58 30,-182.47 30,-178.16"/>
<polygon fill="#0ab046" stroke="#0ab046" points="31.75,-178.06 30,-173.06 28.25,-178.06 31.75,-178.06"/>
</a>
</g>
</g>
<!-- 15_0 -->
<!-- pilot02_05_stac_1338527685&#45;&gt;15_0 -->
<!-- pilot02_05_stac_1338537685 -->
<g id="node29" class="node">
<title>pilot02_05_stac_1338537685</title>
<g id="a_node29"><a xlink:title="16 &#160;Cat &#160;or clary">
<ellipse fill="black" stroke="black" cx="40" cy="-144.5" rx="3.5" ry="3.5"/>
</a>
</g>
</g>
<!-- pilot02_05_stac_1338527685&#45;&gt;pilot02_05_stac_1338537685 -->
<g id="edge43" class="edge">
<title>pilot02_05_stac_1338527685&#45;&gt;pilot02_05_stac_1338537685</title>
<g id="a_edge43"><a xlink:title="Alternation">
<path fill="none" stroke="#10495e" d="M31.07,-166.04C32.46,-162.84 34.95,-157.12 36.94,-152.53"/>
<polygon fill="#10495e" stroke="#10495e" points="38.58,-153.16 38.97,-147.87 35.37,-151.76 38.58,-153.16"/>
</a>
</g>
</g>
<!-- pilot02_05_stac_1338557685 -->
<g id="node31" class="node">
<title>pilot02_05_stac_1338557685</title>
<g id="a_node31"><a xlink:title="18 &#160;Cat &#160;clay">
<ellipse fill="black" stroke="black" cx="20" cy="-94.5" rx="3.5" ry="3.5"/>
</a>
</g>
</g>
<!-- pilot02_05_stac_1338527685&#45;&gt;pilot02_05_stac_1338557685 -->
<g id="edge44" class="edge">
<title>pilot02_05_stac_1338527685&#45;&gt;pilot02_05_stac_1338557685</title>
<g id="a_edge44"><a xlink:title="ContrastCorrection">
<path fill="none" stroke="#ff7ecf" d="M29.62,-165.73C28.22,-155.52 23.33,-119.78 21.11,-103.59"/>
<polygon fill="#ff7ecf" stroke="#ff7ecf" points="22.79,-102.99 20.38,-98.28 19.33,-103.47 22.79,-102.99"/>
</a>
</g>
</g>
<!-- 16_0 -->
<!-- pilot02_05_stac_1338537685&#45;&gt;16_0 -->
<!-- pilot02_05_stac_1338537685&#45;&gt;pilot02_05_stac_1338547685 -->
<!-- 18_0 -->
<!-- pilot02_05_stac_1338557685&#45;&gt;18_0 -->
<!-- pilot02_05_stac_1338567685 -->
<g id="node33" class="node">
<title>pilot02_05_stac_1338567685</title>
<g id="a_node33"><a xlink:title="19 &#160;Cat &#160;then anyone wants a wood for an ore?">
<ellipse fill="black" stroke="black" cx="44" cy="-69.5" rx="3.5" ry="3.5"/>
</a>
</g>
</g>
<!-- pilot02_05_stac_1338557685&#45;&gt;pilot02_05_stac_1338567685 -->
<!-- 19_0 -->
<!-- pilot02_05_stac_1338567685&#45;&gt;19_0 -->
<!-- pilot02_05_stac_1338577685 -->
<g id="node35" class="node">
<title>pilot02_05_stac_1338577685</title>
<g id="a_node35"><a xlink:title="20 &#160;william &#160;no">
<ellipse fill="black" stroke="black" cx="44" cy="-44.5" rx="3.5" ry="3.5"/>
</a>
</g>
</g>
<!-- pilot02_05_stac_1338567685&#45;&gt;pilot02_05_stac_1338577685 -->
<g id="edge47" class="edge">
<title>pilot02_05_stac_1338567685&#45;&gt;pilot02_05_stac_1338577685</title>
<g id="a_edge47"><a xlink:title="Question_answer_pair">
<path fill="none" stroke="#12ffff" d="M44,-65.68C44,-62.58 44,-57.47 44,-53.16"/>
<polygon fill="#12ffff" stroke="#12ffff" points="45.75,-53.06 44,-48.06 42.25,-53.06 45.75,-53.06"/>
</a>
</g>
</g>
<!-- 20_0 -->
<!-- pilot02_05_stac_1338577685&#45;&gt;20_0 -->
<!-- pilot02_05_stac_1338587685 -->
<g id="node37" class="node">
<title>pilot02_05_stac_1338587685</title>
<g id="a_node37"><a xlink:title="21 &#160;Cat &#160;okay">
<ellipse fill="black" stroke="black" cx="44" cy="-19.5" rx="3.5" ry="3.5"/>
</a>
</g>
</g>
<!-- pilot02_05_stac_1338577685&#45;&gt;pilot02_05_stac_1338587685 -->
<g id="edge48" class="edge">
<title>pilot02_05_stac_1338577685&#45;&gt;pilot02_05_stac_1338587685</title>
<g id="a_edge48"><a xlink:title="Acknowledgement">
<path fill="none" stroke="#12ffff" d="M44,-40.68C44,-37.58 44,-32.47 44,-28.16"/>
<polygon fill="#12ffff" stroke="#12ffff" points="45.75,-28.06 44,-23.06 42.25,-28.06 45.75,-28.06"/>
</a>
</g>
</g>
<!-- 21_0 -->
<!-- pilot02_05_stac_1338587685&#45;&gt;21_0 -->
<!-- pilot02_05_stac_1338387685 -->
<g id="node39" class="node">
<title>pilot02_05_stac_1338387685</title>
<g id="a_node39"><a xlink:title="1 &#160;Cat &#160;so to move the robber ">
<ellipse fill="black" stroke="black" cx="52" cy="-519.5" rx="3.5" ry="3.5"/>
</a>
</g>
</g>
<!-- pilot02_05_stac_1338387685&#45;&gt;pilot02_05_stac_1338397685 -->
<g id="edge28" class="edge">
<title>pilot02_05_stac_1338387685&#45;&gt;pilot02_05_stac_1338397685</title>
<g id="a_edge28"><a xlink:title="ParallNarrContinuationbackground">
<path fill="none" stroke="#0ab046" d="M52,-515.68C52,-512.58 52,-507.47 52,-503.16"/>
<polygon fill="#0ab046" stroke="#0ab046" points="53.75,-503.06 52,-498.06 50.25,-503.06 53.75,-503.06"/>
</a>
</g>
</g>
<!-- pilot02_05_stac_1338387686 -->
<g id="node40" class="node">
<title>pilot02_05_stac_1338387686</title>
<g id="a_node40"><a xlink:title="1 &#160;Cat &#160;i need to roll the dice?">
<ellipse fill="black" stroke="black" cx="77" cy="-519.5" rx="3.5" ry="3.5"/>
</a>
</g>
</g>
<!-- pilot02_05_stac_1338387685&#45;&gt;pilot02_05_stac_1338387686 -->
<g id="edge27" class="edge">
<title>pilot02_05_stac_1338387685&#45;&gt;pilot02_05_stac_1338387686</title>
<g id="a_edge27"><a xlink:title="Conditional">
<path fill="none" stroke="#1c931a" d="M55.52,-519.5C59.78,-519.5 64.04,-519.5 68.3,-519.5"/>
<polygon fill="#1c931a" stroke="#1c931a" points="68.31,-521.25 73.31,-519.5 68.31,-517.75 68.31,-521.25"/>
</a>
</g>
</g>
<!-- pilot02_05_stac_1338547685&#45;&gt;pilot02_05_stac_1338557685 -->
<!-- pilot02_05_stac_1338547685&#45;&gt;pilot02_05_stac_1338567685 -->
<g id="edge46" class="edge">
<title>pilot02_05_stac_1338547685&#45;&gt;pilot02_05_stac_1338567685</title>
<g id="a_edge46"><a xlink:title="ExplanationResult">
<path fill="none" stroke="#a62139" d="M55.14,-115.86C57.12,-110.89 60.73,-99.85 58,-91 56.32,-85.55 52.64,-80.26 49.47,-76.42"/>
<polygon fill="#a62139" stroke="#a62139" points="50.77,-75.24 46.14,-72.65 48.14,-77.56 50.77,-75.24"/>
</a>
</g>
</g>
<!-- pilot02_05_stac_1338547686 -->
<g id="node42" class="node">
<title>pilot02_05_stac_1338547686</title>
<g id="a_node42"><a xlink:title="17 &#160;Thomas &#160;thanks">
<ellipse fill="black" stroke="black" cx="79" cy="-119.5" rx="3.5" ry="3.5"/>
</a>
</g>
</g>
<!-- pilot02_05_stac_1338547685&#45;&gt;pilot02_05_stac_1338547686 -->
<g id="edge45" class="edge">
<title>pilot02_05_stac_1338547685&#45;&gt;pilot02_05_stac_1338547686</title>
<g id="a_edge45"><a xlink:title="Comment">
<path fill="none" stroke="#ff8200" d="M57.52,-119.5C61.78,-119.5 66.04,-119.5 70.3,-119.5"/>
<polygon fill="#ff8200" stroke="#ff8200" points="70.31,-121.25 75.31,-119.5 70.31,-117.75 70.31,-121.25"/>
</a>
</g>
</g>
</g>
</svg>
