<?xml version="1.0" encoding="UTF-8" standalone="no"?>
<!DOCTYPE svg PUBLIC "-//W3C//DTD SVG 1.1//EN"
 "http://www.w3.org/Graphics/SVG/1.1/DTD/svg11.dtd">
<!-- Generated by graphviz version 3.0.0 (20220226.1711)
 -->
<!-- Title: 6_pilot02_58 Pages: 1 -->
<svg width="133pt" height="245pt"
 viewBox="0.00 0.00 133.00 245.00" xmlns="http://www.w3.org/2000/svg" xmlns:xlink="http://www.w3.org/1999/xlink">
<g id="graph0" class="graph" transform="scale(1 1) rotate(0) translate(4 241)">
<title>6_pilot02_58</title>
<polygon fill="white" stroke="transparent" points="-4,4 -4,-241 129,-241 129,4 -4,4"/>
<g id="clust1" class="cluster">
<title>cluster_6_pilot02_58</title>
<polygon fill="none" stroke="black" points="8,-8 8,-229 117,-229 117,-8 8,-8"/>
<text text-anchor="middle" x="23" y="-213.8" font-family="Times,serif" font-size="14.00">58</text>
</g>
<!-- pilot02_06_stac_1338387688 -->
<g id="node1" class="node">
<title>pilot02_06_stac_1338387688</title>
<g id="a_node1"><a xlink:title="1 &#160;Cat &#160;anyone would like to give me an ore?">
<ellipse fill="black" stroke="black" cx="60" cy="-194.5" rx="3.5" ry="3.5"/>
</a>
</g>
</g>
<!-- 1_0 -->
<!-- pilot02_06_stac_1338387688&#45;&gt;1_0 -->
<!-- pilot02_06_stac_1338397688 -->
<g id="node3" class="node">
<title>pilot02_06_stac_1338397688</title>
<g id="a_node3"><a xlink:title="2 &#160;william &#160;cant">
<ellipse fill="black" stroke="black" cx="40" cy="-169.5" rx="3.5" ry="3.5"/>
</a>
</g>
</g>
<!-- pilot02_06_stac_1338387688&#45;&gt;pilot02_06_stac_1338397688 -->
<g id="edge9" class="edge">
<title>pilot02_06_stac_1338387688&#45;&gt;pilot02_06_stac_1338397688</title>
<g id="a_edge9"><a xlink:title="Question_answer_pair">
<path fill="none" stroke="#12ffff" d="M58.15,-191.38C55.31,-188.11 49.75,-181.71 45.52,-176.85"/>
<polygon fill="#12ffff" stroke="#12ffff" points="46.74,-175.59 42.14,-172.96 44.1,-177.88 46.74,-175.59"/>
</a>
</g>
</g>
<!-- pilot02_06_stac_1338407688 -->
<g id="node5" class="node">
<title>pilot02_06_stac_1338407688</title>
<g id="a_node5"><a xlink:title="3 &#160;Thomas &#160;what for?">
<ellipse fill="black" stroke="black" cx="39" cy="-144.5" rx="3.5" ry="3.5"/>
</a>
</g>
</g>
<!-- pilot02_06_stac_1338387688&#45;&gt;pilot02_06_stac_1338407688 -->
<g id="edge10" class="edge">
<title>pilot02_06_stac_1338387688&#45;&gt;pilot02_06_stac_1338407688</title>
<g id="a_edge10"><a xlink:title="Q_Elab">
<path fill="none" stroke="#0d20ff" d="M56.99,-192.65C50.3,-190.58 34.33,-184.58 28,-173 24.14,-165.95 29.09,-157.26 33.54,-151.56"/>
<polygon fill="#0d20ff" stroke="#0d20ff" points="35.02,-152.51 36.94,-147.58 32.36,-150.24 35.02,-152.51"/>
</a>
</g>
</g>
<!-- pilot02_06_stac_1338457688 -->
<g id="node9" class="node">
<title>pilot02_06_stac_1338457688</title>
<g id="a_node9"><a xlink:title="6 &#160;william &#160;well?">
<ellipse fill="black" stroke="black" cx="69" cy="-69.5" rx="3.5" ry="3.5"/>
</a>
</g>
</g>
<!-- pilot02_06_stac_1338387688&#45;&gt;pilot02_06_stac_1338457688 -->
<g id="edge12" class="edge">
<title>pilot02_06_stac_1338387688&#45;&gt;pilot02_06_stac_1338457688</title>
<g id="a_edge12"><a xlink:title="Clarification_question">
<path fill="none" stroke="#ff40d1" d="M62.56,-191.92C67.3,-188.86 77.48,-181.66 83,-173 95.46,-153.43 94.63,-145.95 98,-123 100.81,-103.88 84.3,-84.88 75.01,-75.89"/>
<polygon fill="#ff40d1" stroke="#ff40d1" points="76,-74.42 71.14,-72.31 73.63,-76.99 76,-74.42"/>
</a>
</g>
</g>
<!-- pilot02_06_stac_1338427688 -->
<g id="node13" class="node">
<title>pilot02_06_stac_1338427688</title>
<g id="a_node13"><a xlink:title="5 &#160;Thomas &#160;no ">
<ellipse fill="black" stroke="black" cx="59" cy="-94.5" rx="3.5" ry="3.5"/>
</a>
</g>
</g>
<!-- pilot02_06_stac_1338387688&#45;&gt;pilot02_06_stac_1338427688 -->
<g id="edge11" class="edge">
<title>pilot02_06_stac_1338387688&#45;&gt;pilot02_06_stac_1338427688</title>
<g id="a_edge11"><a xlink:title="Question_answer_pair">
<path fill="none" stroke="#12ffff" d="M62.47,-191.69C66.62,-188.48 74.86,-181.33 78,-173 79.65,-168.62 81.44,-162.01 77,-141 74.03,-126.95 67.14,-111.62 62.79,-102.83"/>
<polygon fill="#12ffff" stroke="#12ffff" points="64.1,-101.54 60.28,-97.88 60.98,-103.13 64.1,-101.54"/>
</a>
</g>
</g>
<!-- 2_0 -->
<!-- pilot02_06_stac_1338397688&#45;&gt;2_0 -->
<!-- pilot02_06_stac_1338397688&#45;&gt;pilot02_06_stac_1338407688 -->
<!-- 3_0 -->
<!-- pilot02_06_stac_1338407688&#45;&gt;3_0 -->
<!-- pilot02_06_stac_1338417688 -->
<g id="node7" class="node">
<title>pilot02_06_stac_1338417688</title>
<g id="a_node7"><a xlink:title="4 &#160;Cat &#160;wood?">
<ellipse fill="black" stroke="black" cx="39" cy="-119.5" rx="3.5" ry="3.5"/>
</a>
</g>
</g>
<!-- pilot02_06_stac_1338407688&#45;&gt;pilot02_06_stac_1338417688 -->
<g id="edge13" class="edge">
<title>pilot02_06_stac_1338407688&#45;&gt;pilot02_06_stac_1338417688</title>
<g id="a_edge13"><a xlink:title="Q_Elab">
<path fill="none" stroke="#0d20ff" d="M39,-140.68C39,-137.58 39,-132.47 39,-128.16"/>
<polygon fill="#0d20ff" stroke="#0d20ff" points="40.75,-128.06 39,-123.06 37.25,-128.06 40.75,-128.06"/>
</a>
</g>
</g>
<!-- 4_0 -->
<!-- pilot02_06_stac_1338417688&#45;&gt;4_0 -->
<!-- pilot02_06_stac_1338417688&#45;&gt;pilot02_06_stac_1338427688 -->
<g id="edge14" class="edge">
<title>pilot02_06_stac_1338417688&#45;&gt;pilot02_06_stac_1338427688</title>
<g id="a_edge14"><a xlink:title="Question_answer_pair">
<path fill="none" stroke="#12ffff" d="M40.85,-116.38C43.69,-113.11 49.25,-106.71 53.48,-101.85"/>
<polygon fill="#12ffff" stroke="#12ffff" points="54.9,-102.88 56.86,-97.96 52.26,-100.59 54.9,-102.88"/>
</a>
</g>
</g>
<!-- 6_0 -->
<!-- pilot02_06_stac_1338457688&#45;&gt;6_0 -->
<!-- pilot02_06_stac_1338517688 -->
<g id="node15" class="node">
<title>pilot02_06_stac_1338517688</title>
<g id="a_node15"><a xlink:title="7 &#160;Cat &#160;anyone can give me ore? ">
<ellipse fill="black" stroke="black" cx="69" cy="-44.5" rx="3.5" ry="3.5"/>
</a>
</g>
</g>
<!-- pilot02_06_stac_1338457688&#45;&gt;pilot02_06_stac_1338517688 -->
<g id="edge16" class="edge">
<title>pilot02_06_stac_1338457688&#45;&gt;pilot02_06_stac_1338517688</title>
<g id="a_edge16"><a xlink:title="ExplanationResult">
<path fill="none" stroke="#a62139" d="M69,-65.68C69,-62.58 69,-57.47 69,-53.16"/>
<polygon fill="#a62139" stroke="#a62139" points="70.75,-53.06 69,-48.06 67.25,-53.06 70.75,-53.06"/>
</a>
</g>
</g>
<!-- pilot02_06_stac_1338527688 -->
<g id="node11" class="node">
<title>pilot02_06_stac_1338527688</title>
<g id="a_node11"><a xlink:title="8 &#160;Thomas &#160;no">
<ellipse fill="black" stroke="black" cx="69" cy="-19.5" rx="3.5" ry="3.5"/>
</a>
</g>
</g>
<!-- 8_0 -->
<!-- pilot02_06_stac_1338527688&#45;&gt;8_0 -->
<!-- pilot02_06_stac_1338427688&#45;&gt;pilot02_06_stac_1338457688 -->
<!-- pilot02_06_stac_1338427689 -->
<g id="node14" class="node">
<title>pilot02_06_stac_1338427689</title>
<g id="a_node14"><a xlink:title="5 &#160;Thomas &#160;thanks">
<ellipse fill="black" stroke="black" cx="105" cy="-94.5" rx="3.5" ry="3.5"/>
</a>
</g>
</g>
<!-- pilot02_06_stac_1338427688&#45;&gt;pilot02_06_stac_1338427689 -->
<g id="edge15" class="edge">
<title>pilot02_06_stac_1338427688&#45;&gt;pilot02_06_stac_1338427689</title>
<g id="a_edge15"><a xlink:title="Comment">
<path fill="none" stroke="#ff8200" d="M62.59,-94.5C73.8,-94.5 85,-94.5 96.21,-94.5"/>
<polygon fill="#ff8200" stroke="#ff8200" points="96.36,-96.25 101.36,-94.5 96.36,-92.75 96.36,-96.25"/>
</a>
</g>
</g>
<!-- pilot02_06_stac_1338517688&#45;&gt;pilot02_06_stac_1338527688 -->
<g id="edge18" class="edge">
<title>pilot02_06_stac_1338517688&#45;&gt;pilot02_06_stac_1338527688</title>
<g id="a_edge18"><a xlink:title="Question_answer_pair">
<path fill="none" stroke="#12ffff" d="M69,-40.68C69,-37.58 69,-32.47 69,-28.16"/>
<polygon fill="#12ffff" stroke="#12ffff" points="70.75,-28.06 69,-23.06 67.25,-28.06 70.75,-28.06"/>
</a>
</g>
</g>
<!-- pilot02_06_stac_1338517689 -->
<g id="node16" class="node">
<title>pilot02_06_stac_1338517689</title>
<g id="a_node16"><a xlink:title="7 &#160;Cat &#160;(for wood)">
<ellipse fill="black" stroke="black" cx="94" cy="-44.5" rx="3.5" ry="3.5"/>
</a>
</g>
</g>
<!-- pilot02_06_stac_1338517688&#45;&gt;pilot02_06_stac_1338517689 -->
<g id="edge17" class="edge">
<title>pilot02_06_stac_1338517688&#45;&gt;pilot02_06_stac_1338517689</title>
<g id="a_edge17"><a xlink:title="Elaboration">
<path fill="none" stroke="#a621c7" d="M72.52,-44.5C76.78,-44.5 81.04,-44.5 85.3,-44.5"/>
<polygon fill="#a621c7" stroke="#a621c7" points="85.31,-46.25 90.31,-44.5 85.31,-42.75 85.31,-46.25"/>
</a>
</g>
</g>
</g>
</svg>
