<?xml version="1.0" encoding="UTF-8" standalone="no"?>
<!DOCTYPE svg PUBLIC "-//W3C//DTD SVG 1.1//EN"
 "http://www.w3.org/Graphics/SVG/1.1/DTD/svg11.dtd">
<!-- Generated by graphviz version 3.0.0 (20220226.1711)
 -->
<!-- Title: 9_pilot02_65 Pages: 1 -->
<svg width="108pt" height="245pt"
 viewBox="0.00 0.00 108.00 245.00" xmlns="http://www.w3.org/2000/svg" xmlns:xlink="http://www.w3.org/1999/xlink">
<g id="graph0" class="graph" transform="scale(1 1) rotate(0) translate(4 241)">
<title>9_pilot02_65</title>
<polygon fill="white" stroke="transparent" points="-4,4 -4,-241 104,-241 104,4 -4,4"/>
<g id="clust1" class="cluster">
<title>cluster_9_pilot02_65</title>
<polygon fill="none" stroke="black" points="8,-8 8,-229 92,-229 92,-8 8,-8"/>
<text text-anchor="middle" x="23" y="-213.8" font-family="Times,serif" font-size="14.00">65</text>
</g>
<!-- pilot02_09_stac_1338587696 -->
<g id="node1" class="node">
<title>pilot02_09_stac_1338587696</title>
<g id="a_node1"><a xlink:title="1 &#160;Cat &#160;i need clay">
<ellipse fill="black" stroke="black" cx="53" cy="-194.5" rx="3.5" ry="3.5"/>
</a>
</g>
</g>
<!-- pilot02_09_stac_1338597696 -->
<g id="node2" class="node">
<title>pilot02_09_stac_1338597696</title>
<g id="a_node2"><a xlink:title="2 &#160;Cat &#160;I can give wheat">
<ellipse fill="black" stroke="black" cx="20" cy="-169.5" rx="3.5" ry="3.5"/>
</a>
</g>
</g>
<!-- pilot02_09_stac_1338587696&#45;&gt;pilot02_09_stac_1338597696 -->
<g id="edge5" class="edge">
<title>pilot02_09_stac_1338587696&#45;&gt;pilot02_09_stac_1338597696</title>
<g id="a_edge5"><a xlink:title="ParallNarrContinuationbackground">
<path fill="none" stroke="#0ab046" d="M50.41,-191.7C45.37,-188.18 34.11,-180.33 26.8,-175.24"/>
<polygon fill="#0ab046" stroke="#0ab046" points="27.59,-173.66 22.49,-172.23 25.59,-176.53 27.59,-173.66"/>
</a>
</g>
</g>
<!-- pilot02_09_stac_1338607696 -->
<g id="node3" class="node">
<title>pilot02_09_stac_1338607696</title>
<g id="a_node3"><a xlink:title="3 &#160;william &#160;na">
<ellipse fill="black" stroke="black" cx="40" cy="-144.5" rx="3.5" ry="3.5"/>
</a>
</g>
</g>
<!-- pilot02_09_stac_1338587696&#45;&gt;pilot02_09_stac_1338607696 -->
<g id="edge6" class="edge">
<title>pilot02_09_stac_1338587696&#45;&gt;pilot02_09_stac_1338607696</title>
<g id="a_edge6"><a xlink:title="Question_answer_pair">
<path fill="none" stroke="#12ffff" d="M52.3,-190.92C50.4,-183.89 45.06,-164.19 42.08,-153.18"/>
<polygon fill="#12ffff" stroke="#12ffff" points="43.76,-152.7 40.77,-148.33 40.39,-153.62 43.76,-152.7"/>
</a>
</g>
</g>
<!-- pilot02_09_stac_1338617696 -->
<g id="node4" class="node">
<title>pilot02_09_stac_1338617696</title>
<g id="a_node4"><a xlink:title="4 &#160;Thomas &#160;sorry nope">
<ellipse fill="black" stroke="black" cx="60" cy="-119.5" rx="3.5" ry="3.5"/>
</a>
</g>
</g>
<!-- pilot02_09_stac_1338587696&#45;&gt;pilot02_09_stac_1338617696 -->
<g id="edge7" class="edge">
<title>pilot02_09_stac_1338587696&#45;&gt;pilot02_09_stac_1338617696</title>
<g id="a_edge7"><a xlink:title="Question_answer_pair">
<path fill="none" stroke="#12ffff" d="M53.27,-190.73C54.24,-180.52 57.67,-144.78 59.22,-128.59"/>
<polygon fill="#12ffff" stroke="#12ffff" points="61,-128.42 59.73,-123.28 57.51,-128.09 61,-128.42"/>
</a>
</g>
</g>
<!-- pilot02_09_stac_1338627696 -->
<g id="node5" class="node">
<title>pilot02_09_stac_1338627696</title>
<g id="a_node5"><a xlink:title="5 &#160;Cat &#160;can someone give me a sheep?">
<ellipse fill="black" stroke="black" cx="65" cy="-94.5" rx="3.5" ry="3.5"/>
</a>
</g>
</g>
<!-- pilot02_09_stac_1338587696&#45;&gt;pilot02_09_stac_1338627696 -->
<g id="edge8" class="edge">
<title>pilot02_09_stac_1338587696&#45;&gt;pilot02_09_stac_1338627696</title>
<g id="a_edge8"><a xlink:title="ParallNarrContinuationbackground">
<path fill="none" stroke="#0ab046" d="M54.06,-190.87C57.67,-181.71 69.51,-150.26 73,-123 73.39,-119.91 73.58,-119.06 73,-116 72.13,-111.36 70.23,-106.42 68.5,-102.55"/>
<polygon fill="#0ab046" stroke="#0ab046" points="69.97,-101.57 66.23,-97.81 66.82,-103.08 69.97,-101.57"/>
</a>
</g>
</g>
<!-- pilot02_09_stac_1338597696&#45;&gt;pilot02_09_stac_1338607696 -->
<!-- pilot02_09_stac_1338607696&#45;&gt;pilot02_09_stac_1338617696 -->
<!-- pilot02_09_stac_1338617696&#45;&gt;pilot02_09_stac_1338627696 -->
<!-- pilot02_09_stac_1338637696 -->
<g id="node6" class="node">
<title>pilot02_09_stac_1338637696</title>
<g id="a_node6"><a xlink:title="6 &#160;william &#160;nope">
<ellipse fill="black" stroke="black" cx="52" cy="-69.5" rx="3.5" ry="3.5"/>
</a>
</g>
</g>
<!-- pilot02_09_stac_1338627696&#45;&gt;pilot02_09_stac_1338637696 -->
<g id="edge9" class="edge">
<title>pilot02_09_stac_1338627696&#45;&gt;pilot02_09_stac_1338637696</title>
<g id="a_edge9"><a xlink:title="Question_answer_pair">
<path fill="none" stroke="#12ffff" d="M63.61,-91.04C61.76,-87.77 58.43,-81.87 55.8,-77.23"/>
<polygon fill="#12ffff" stroke="#12ffff" points="57.33,-76.37 53.34,-72.87 54.28,-78.09 57.33,-76.37"/>
</a>
</g>
</g>
<!-- pilot02_09_stac_1338647696 -->
<g id="node7" class="node">
<title>pilot02_09_stac_1338647696</title>
<g id="a_node7"><a xlink:title="7 &#160;Thomas &#160;n">
<ellipse fill="black" stroke="black" cx="75" cy="-44.5" rx="3.5" ry="3.5"/>
</a>
</g>
</g>
<!-- pilot02_09_stac_1338627696&#45;&gt;pilot02_09_stac_1338647696 -->
<g id="edge10" class="edge">
<title>pilot02_09_stac_1338627696&#45;&gt;pilot02_09_stac_1338647696</title>
<g id="a_edge10"><a xlink:title="Question_answer_pair">
<path fill="none" stroke="#12ffff" d="M65.54,-90.92C66.99,-83.95 71.03,-64.55 73.34,-53.49"/>
<polygon fill="#12ffff" stroke="#12ffff" points="75.1,-53.58 74.41,-48.33 71.68,-52.87 75.1,-53.58"/>
</a>
</g>
</g>
<!-- pilot02_09_stac_1338637696&#45;&gt;pilot02_09_stac_1338647696 -->
<!-- pilot02_09_stac_1338667696 -->
<g id="node8" class="node">
<title>pilot02_09_stac_1338667696</title>
<g id="a_node8"><a xlink:title="8 &#160;william &#160;there is just no market for sheep...">
<ellipse fill="black" stroke="black" cx="63" cy="-19.5" rx="3.5" ry="3.5"/>
</a>
</g>
</g>
<!-- pilot02_09_stac_1338637696&#45;&gt;pilot02_09_stac_1338667696 -->
<g id="edge11" class="edge">
<title>pilot02_09_stac_1338637696&#45;&gt;pilot02_09_stac_1338667696</title>
<g id="a_edge11"><a xlink:title="ExplanationResult">
<path fill="none" stroke="#a62139" d="M52.59,-65.92C54.19,-58.95 58.64,-39.55 61.17,-28.49"/>
<polygon fill="#a62139" stroke="#a62139" points="62.94,-28.6 62.35,-23.33 59.53,-27.81 62.94,-28.6"/>
</a>
</g>
</g>
<!-- pilot02_09_stac_1338647696&#45;&gt;pilot02_09_stac_1338667696 -->
<g id="edge12" class="edge">
<title>pilot02_09_stac_1338647696&#45;&gt;pilot02_09_stac_1338667696</title>
<g id="a_edge12"><a xlink:title="ExplanationResult">
<path fill="none" stroke="#a62139" d="M73.72,-41.04C72.05,-37.84 69.06,-32.12 66.67,-27.53"/>
<polygon fill="#a62139" stroke="#a62139" points="68.1,-26.5 64.24,-22.87 65,-28.12 68.1,-26.5"/>
</a>
</g>
</g>
</g>
</svg>
