<?xml version="1.0" encoding="UTF-8" standalone="no"?>
<!DOCTYPE svg PUBLIC "-//W3C//DTD SVG 1.1//EN"
 "http://www.w3.org/Graphics/SVG/1.1/DTD/svg11.dtd">
<!-- Generated by graphviz version 3.0.0 (20220226.1711)
 -->
<!-- Title: 12_pilot02_70 Pages: 1 -->
<svg width="168pt" height="695pt"
 viewBox="0.00 0.00 168.00 695.00" xmlns="http://www.w3.org/2000/svg" xmlns:xlink="http://www.w3.org/1999/xlink">
<g id="graph0" class="graph" transform="scale(1 1) rotate(0) translate(4 691)">
<title>12_pilot02_70</title>
<polygon fill="white" stroke="transparent" points="-4,4 -4,-691 164,-691 164,4 -4,4"/>
<g id="clust1" class="cluster">
<title>cluster_12_pilot02_70</title>
<polygon fill="none" stroke="black" points="8,-8 8,-679 152,-679 152,-8 8,-8"/>
<text text-anchor="middle" x="23" y="-663.8" font-family="Times,serif" font-size="14.00">70</text>
</g>
<!-- pilot02_12_stac_1338387704 -->
<g id="node1" class="node">
<title>pilot02_12_stac_1338387704</title>
<g id="a_node1"><a xlink:title="1 &#160;Cat &#160;so if i want to put a settlement down">
<ellipse fill="black" stroke="black" cx="93" cy="-644.5" rx="3.5" ry="3.5"/>
</a>
</g>
</g>
<!-- pilot02_12_stac_1338397704 -->
<g id="node2" class="node">
<title>pilot02_12_stac_1338397704</title>
<g id="a_node2"><a xlink:title="2 &#160;Cat &#160;where can i do so?">
<ellipse fill="black" stroke="black" cx="70" cy="-619.5" rx="3.5" ry="3.5"/>
</a>
</g>
</g>
<!-- pilot02_12_stac_1338387704&#45;&gt;pilot02_12_stac_1338397704 -->
<g id="edge14" class="edge">
<title>pilot02_12_stac_1338387704&#45;&gt;pilot02_12_stac_1338397704</title>
<g id="a_edge14"><a xlink:title="Conditional">
<path fill="none" stroke="#1c931a" d="M90.88,-641.38C87.54,-638.04 80.95,-631.45 76.06,-626.56"/>
<polygon fill="#1c931a" stroke="#1c931a" points="77.23,-625.26 72.46,-622.96 74.76,-627.73 77.23,-625.26"/>
</a>
</g>
</g>
<!-- pilot02_12_stac_1338407704 -->
<g id="node3" class="node">
<title>pilot02_12_stac_1338407704</title>
<g id="a_node3"><a xlink:title="3 &#160;Thomas &#160;on one of your roads">
<ellipse fill="black" stroke="black" cx="90" cy="-594.5" rx="3.5" ry="3.5"/>
</a>
</g>
</g>
<!-- pilot02_12_stac_1338387704&#45;&gt;pilot02_12_stac_1338407704 -->
<g id="edge15" class="edge">
<title>pilot02_12_stac_1338387704&#45;&gt;pilot02_12_stac_1338407704</title>
<g id="a_edge15"><a xlink:title="Question_answer_pair">
<path fill="none" stroke="#12ffff" d="M92.84,-640.92C92.4,-633.95 91.19,-614.55 90.5,-603.49"/>
<polygon fill="#12ffff" stroke="#12ffff" points="92.24,-603.21 90.18,-598.33 88.74,-603.43 92.24,-603.21"/>
</a>
</g>
</g>
<!-- pilot02_12_stac_1338417704 -->
<g id="node4" class="node">
<title>pilot02_12_stac_1338417704</title>
<g id="a_node4"><a xlink:title="4 &#160;william &#160;on any corner that has distance at least two to all other settlements">
<ellipse fill="black" stroke="black" cx="113" cy="-569.5" rx="3.5" ry="3.5"/>
</a>
</g>
</g>
<!-- pilot02_12_stac_1338387704&#45;&gt;pilot02_12_stac_1338417704 -->
<g id="edge16" class="edge">
<title>pilot02_12_stac_1338387704&#45;&gt;pilot02_12_stac_1338417704</title>
<g id="a_edge16"><a xlink:title="Question_answer_pair">
<path fill="none" stroke="#12ffff" d="M93.76,-640.73C96.58,-630.43 106.52,-594.14 110.9,-578.15"/>
<polygon fill="#12ffff" stroke="#12ffff" points="112.69,-578.26 112.32,-572.97 109.31,-577.33 112.69,-578.26"/>
</a>
</g>
</g>
<!-- pilot02_12_stac_1338397704&#45;&gt;pilot02_12_stac_1338407704 -->
<!-- pilot02_12_stac_1338407704&#45;&gt;pilot02_12_stac_1338417704 -->
<!-- pilot02_12_stac_1338457704 -->
<g id="node6" class="node">
<title>pilot02_12_stac_1338457704</title>
<g id="a_node6"><a xlink:title="6 &#160;Cat &#160;thx">
<ellipse fill="black" stroke="black" cx="110" cy="-519.5" rx="3.5" ry="3.5"/>
</a>
</g>
</g>
<!-- pilot02_12_stac_1338407704&#45;&gt;pilot02_12_stac_1338457704 -->
<g id="edge17" class="edge">
<title>pilot02_12_stac_1338407704&#45;&gt;pilot02_12_stac_1338457704</title>
<g id="a_edge17"><a xlink:title="Acknowledgement">
<path fill="none" stroke="#12ffff" d="M90.76,-590.73C93.58,-580.43 103.52,-544.14 107.9,-528.15"/>
<polygon fill="#12ffff" stroke="#12ffff" points="109.69,-528.26 109.32,-522.97 106.31,-527.33 109.69,-528.26"/>
</a>
</g>
</g>
<!-- pilot02_12_stac_1338427704 -->
<g id="node5" class="node">
<title>pilot02_12_stac_1338427704</title>
<g id="a_node5"><a xlink:title="5 &#160;william &#160;connected yes">
<ellipse fill="black" stroke="black" cx="133" cy="-544.5" rx="3.5" ry="3.5"/>
</a>
</g>
</g>
<!-- pilot02_12_stac_1338417704&#45;&gt;pilot02_12_stac_1338427704 -->
<g id="edge18" class="edge">
<title>pilot02_12_stac_1338417704&#45;&gt;pilot02_12_stac_1338427704</title>
<g id="a_edge18"><a xlink:title="ParallNarrContinuationbackground">
<path fill="none" stroke="#0ab046" d="M114.85,-566.38C117.69,-563.11 123.25,-556.71 127.48,-551.85"/>
<polygon fill="#0ab046" stroke="#0ab046" points="128.9,-552.88 130.86,-547.96 126.26,-550.59 128.9,-552.88"/>
</a>
</g>
</g>
<!-- pilot02_12_stac_1338417704&#45;&gt;pilot02_12_stac_1338457704 -->
<g id="edge19" class="edge">
<title>pilot02_12_stac_1338417704&#45;&gt;pilot02_12_stac_1338457704</title>
<g id="a_edge19"><a xlink:title="Acknowledgement">
<path fill="none" stroke="#12ffff" d="M112.84,-565.92C112.4,-558.95 111.19,-539.55 110.5,-528.49"/>
<polygon fill="#12ffff" stroke="#12ffff" points="112.24,-528.21 110.18,-523.33 108.74,-528.43 112.24,-528.21"/>
</a>
</g>
</g>
<!-- pilot02_12_stac_1338427704&#45;&gt;pilot02_12_stac_1338457704 -->
<!-- pilot02_12_stac_1338467704 -->
<g id="node7" class="node">
<title>pilot02_12_stac_1338467704</title>
<g id="a_node7"><a xlink:title="7 &#160;Cat &#160;well done">
<ellipse fill="black" stroke="black" cx="110" cy="-494.5" rx="3.5" ry="3.5"/>
</a>
</g>
</g>
<!-- pilot02_12_stac_1338457704&#45;&gt;pilot02_12_stac_1338467704 -->
<g id="edge20" class="edge">
<title>pilot02_12_stac_1338457704&#45;&gt;pilot02_12_stac_1338467704</title>
<g id="a_edge20"><a xlink:title="Comment">
<path fill="none" stroke="#ff8200" d="M110,-515.68C110,-512.58 110,-507.47 110,-503.16"/>
<polygon fill="#ff8200" stroke="#ff8200" points="111.75,-503.06 110,-498.06 108.25,-503.06 111.75,-503.06"/>
</a>
</g>
</g>
<!-- pilot02_12_stac_1338477704 -->
<g id="node8" class="node">
<title>pilot02_12_stac_1338477704</title>
<g id="a_node8"><a xlink:title="8 &#160;Thomas &#160;3 knights?">
<ellipse fill="black" stroke="black" cx="80" cy="-469.5" rx="3.5" ry="3.5"/>
</a>
</g>
</g>
<!-- pilot02_12_stac_1338467704&#45;&gt;pilot02_12_stac_1338477704 -->
<g id="edge21" class="edge">
<title>pilot02_12_stac_1338467704&#45;&gt;pilot02_12_stac_1338477704</title>
<g id="a_edge21"><a xlink:title="Clarification_question">
<path fill="none" stroke="#ff40d1" d="M107.65,-491.7C103.16,-488.25 93.22,-480.64 86.57,-475.53"/>
<polygon fill="#ff40d1" stroke="#ff40d1" points="87.29,-473.89 82.26,-472.23 85.16,-476.66 87.29,-473.89"/>
</a>
</g>
</g>
<!-- pilot02_12_stac_1338487704 -->
<g id="node9" class="node">
<title>pilot02_12_stac_1338487704</title>
<g id="a_node9"><a xlink:title="9 &#160;william &#160;thanks for playing">
<ellipse fill="black" stroke="black" cx="80" cy="-444.5" rx="3.5" ry="3.5"/>
</a>
</g>
</g>
<!-- pilot02_12_stac_1338467704&#45;&gt;pilot02_12_stac_1338487704 -->
<g id="edge22" class="edge">
<title>pilot02_12_stac_1338467704&#45;&gt;pilot02_12_stac_1338487704</title>
<g id="a_edge22"><a xlink:title="Acknowledgement">
<path fill="none" stroke="#12ffff" d="M108.6,-491.21C105.7,-486.49 98.84,-475.32 93,-466 90.11,-461.38 86.82,-456.19 84.27,-452.19"/>
<polygon fill="#12ffff" stroke="#12ffff" points="85.69,-451.17 81.53,-447.89 82.74,-453.05 85.69,-451.17"/>
</a>
</g>
</g>
<!-- pilot02_12_stac_1463480862 -->
<g id="node13" class="node">
<title>pilot02_12_stac_1463480862</title>
<g id="a_node13"><a xlink:title="13 &#160;Markus &#160;Wow, that was fast.">
<ellipse fill="black" stroke="black" cx="80" cy="-344.5" rx="3.5" ry="3.5"/>
</a>
</g>
</g>
<!-- pilot02_12_stac_1338467704&#45;&gt;pilot02_12_stac_1463480862 -->
<g id="edge23" class="edge">
<title>pilot02_12_stac_1338467704&#45;&gt;pilot02_12_stac_1463480862</title>
<g id="a_edge23"><a xlink:title="Comment">
<path fill="none" stroke="#ff8200" d="M111.2,-490.96C114.42,-483.92 123,-463.46 123,-445.5 123,-445.5 123,-445.5 123,-393.5 123,-372.35 99.56,-356.27 87.29,-349.3"/>
<polygon fill="#ff8200" stroke="#ff8200" points="88.05,-347.72 82.82,-346.88 86.39,-350.8 88.05,-347.72"/>
</a>
</g>
</g>
<!-- pilot02_12_stac_1463480865 -->
<g id="node14" class="node">
<title>pilot02_12_stac_1463480865</title>
<g id="a_node14"><a xlink:title="14 &#160;Markus &#160;Well done.">
<ellipse fill="black" stroke="black" cx="68" cy="-319.5" rx="3.5" ry="3.5"/>
</a>
</g>
</g>
<!-- pilot02_12_stac_1338467704&#45;&gt;pilot02_12_stac_1463480865 -->
<g id="edge24" class="edge">
<title>pilot02_12_stac_1338467704&#45;&gt;pilot02_12_stac_1463480865</title>
<g id="a_edge24"><a xlink:title="Comment">
<path fill="none" stroke="#ff8200" d="M112.59,-491.63C120.37,-485.79 143,-466.94 143,-445.5 143,-445.5 143,-445.5 143,-368.5 143,-337.12 95.84,-325.32 76.31,-321.78"/>
<polygon fill="#ff8200" stroke="#ff8200" points="76.44,-320.03 71.22,-320.94 75.87,-323.49 76.44,-320.03"/>
</a>
</g>
</g>
<!-- pilot02_12_stac_1338477704&#45;&gt;pilot02_12_stac_1338487704 -->
<!-- pilot02_12_stac_1338497704 -->
<g id="node10" class="node">
<title>pilot02_12_stac_1338497704</title>
<g id="a_node10"><a xlink:title="10 &#160;Thomas &#160;gg">
<ellipse fill="black" stroke="black" cx="69" cy="-419.5" rx="3.5" ry="3.5"/>
</a>
</g>
</g>
<!-- pilot02_12_stac_1338487704&#45;&gt;pilot02_12_stac_1338497704 -->
<g id="edge25" class="edge">
<title>pilot02_12_stac_1338487704&#45;&gt;pilot02_12_stac_1338497704</title>
<g id="a_edge25"><a xlink:title="Comment">
<path fill="none" stroke="#ff8200" d="M78.82,-441.04C77.29,-437.84 74.56,-432.12 72.36,-427.53"/>
<polygon fill="#ff8200" stroke="#ff8200" points="73.87,-426.63 70.14,-422.87 70.71,-428.14 73.87,-426.63"/>
</a>
</g>
</g>
<!-- pilot02_12_stac_1338487704&#45;&gt;pilot02_12_stac_1463480862 -->
<g id="edge26" class="edge">
<title>pilot02_12_stac_1338487704&#45;&gt;pilot02_12_stac_1463480862</title>
<g id="a_edge26"><a xlink:title="Comment">
<path fill="none" stroke="#ff8200" d="M81.2,-441.04C85.75,-431.34 101.37,-394.82 93,-366 91.48,-360.76 88.18,-355.58 85.28,-351.74"/>
<polygon fill="#ff8200" stroke="#ff8200" points="86.5,-350.47 81.99,-347.69 83.78,-352.67 86.5,-350.47"/>
</a>
</g>
</g>
<!-- pilot02_12_stac_1338487704&#45;&gt;pilot02_12_stac_1463480865 -->
<g id="edge27" class="edge">
<title>pilot02_12_stac_1338487704&#45;&gt;pilot02_12_stac_1463480865</title>
<g id="a_edge27"><a xlink:title="Comment">
<path fill="none" stroke="#ff8200" d="M76.61,-442.71C63.53,-439.46 17,-425.75 17,-395.5 17,-395.5 17,-395.5 17,-368.5 17,-345.1 45.82,-329.76 60.13,-323.58"/>
<polygon fill="#ff8200" stroke="#ff8200" points="61,-325.12 64.96,-321.61 59.67,-321.88 61,-325.12"/>
</a>
</g>
</g>
<!-- pilot02_12_stac_1338507704 -->
<g id="node11" class="node">
<title>pilot02_12_stac_1338507704</title>
<g id="a_node11"><a xlink:title="11 &#160;william &#160;yiu">
<ellipse fill="black" stroke="black" cx="80" cy="-394.5" rx="3.5" ry="3.5"/>
</a>
</g>
</g>
<!-- pilot02_12_stac_1338497704&#45;&gt;pilot02_12_stac_1338507704 -->
<g id="edge28" class="edge">
<title>pilot02_12_stac_1338497704&#45;&gt;pilot02_12_stac_1338507704</title>
<g id="a_edge28"><a xlink:title="Acknowledgement">
<path fill="none" stroke="#12ffff" d="M70.18,-416.04C71.71,-412.84 74.44,-407.12 76.64,-402.53"/>
<polygon fill="#12ffff" stroke="#12ffff" points="78.29,-403.14 78.86,-397.87 75.13,-401.63 78.29,-403.14"/>
</a>
</g>
</g>
<!-- pilot02_12_stac_1338497704&#45;&gt;pilot02_12_stac_1463480862 -->
<g id="edge29" class="edge">
<title>pilot02_12_stac_1338497704&#45;&gt;pilot02_12_stac_1463480862</title>
<g id="a_edge29"><a xlink:title="Comment">
<path fill="none" stroke="#ff8200" d="M68.47,-416.03C66.95,-408.42 62.94,-384.65 68,-366 69.4,-360.85 72.45,-355.67 75.12,-351.81"/>
<polygon fill="#ff8200" stroke="#ff8200" points="76.58,-352.77 78.16,-347.71 73.77,-350.69 76.58,-352.77"/>
</a>
</g>
</g>
<!-- pilot02_12_stac_1338497704&#45;&gt;pilot02_12_stac_1463480865 -->
<g id="edge30" class="edge">
<title>pilot02_12_stac_1338497704&#45;&gt;pilot02_12_stac_1463480865</title>
<g id="a_edge30"><a xlink:title="Comment">
<path fill="none" stroke="#ff8200" d="M68.83,-415.85C68.59,-411.94 68.16,-404.41 68,-398 67.38,-372.57 67.68,-342.44 67.87,-328.41"/>
<polygon fill="#ff8200" stroke="#ff8200" points="69.63,-328.2 67.95,-323.18 66.13,-328.15 69.63,-328.2"/>
</a>
</g>
</g>
<!-- pilot02_12_stac_1338517704 -->
<g id="node12" class="node">
<title>pilot02_12_stac_1338517704</title>
<g id="a_node12"><a xlink:title="12 &#160;william &#160;yup">
<ellipse fill="black" stroke="black" cx="80" cy="-369.5" rx="3.5" ry="3.5"/>
</a>
</g>
</g>
<!-- pilot02_12_stac_1338507704&#45;&gt;pilot02_12_stac_1338517704 -->
<g id="edge31" class="edge">
<title>pilot02_12_stac_1338507704&#45;&gt;pilot02_12_stac_1338517704</title>
<g id="a_edge31"><a xlink:title="ContrastCorrection">
<path fill="none" stroke="#ff7ecf" d="M80,-390.68C80,-387.58 80,-382.47 80,-378.16"/>
<polygon fill="#ff7ecf" stroke="#ff7ecf" points="81.75,-378.06 80,-373.06 78.25,-378.06 81.75,-378.06"/>
</a>
</g>
</g>
<!-- pilot02_12_stac_1338517704&#45;&gt;pilot02_12_stac_1463480862 -->
<!-- pilot02_12_stac_1463480862&#45;&gt;pilot02_12_stac_1463480865 -->
<!-- pilot02_12_stac_1463480868 -->
<g id="node15" class="node">
<title>pilot02_12_stac_1463480868</title>
<g id="a_node15"><a xlink:title="15 &#160;Markus &#160;Please remember to send me your questionnaires.">
<ellipse fill="black" stroke="black" cx="68" cy="-294.5" rx="3.5" ry="3.5"/>
</a>
</g>
</g>
<!-- pilot02_12_stac_1463480865&#45;&gt;pilot02_12_stac_1463480868 -->
<g id="edge32" class="edge">
<title>pilot02_12_stac_1463480865&#45;&gt;pilot02_12_stac_1463480868</title>
<g id="a_edge32"><a xlink:title="ParallNarrContinuationbackground">
<path fill="none" stroke="#0ab046" d="M68,-315.68C68,-312.58 68,-307.47 68,-303.16"/>
<polygon fill="#0ab046" stroke="#0ab046" points="69.75,-303.06 68,-298.06 66.25,-303.06 69.75,-303.06"/>
</a>
</g>
</g>
<!-- pilot02_12_stac_1338527704 -->
<g id="node16" class="node">
<title>pilot02_12_stac_1338527704</title>
<g id="a_node16"><a xlink:title="16 &#160;william &#160;k">
<ellipse fill="black" stroke="black" cx="39" cy="-269.5" rx="3.5" ry="3.5"/>
</a>
</g>
</g>
<!-- pilot02_12_stac_1463480868&#45;&gt;pilot02_12_stac_1338527704 -->
<g id="edge33" class="edge">
<title>pilot02_12_stac_1463480868&#45;&gt;pilot02_12_stac_1338527704</title>
<g id="a_edge33"><a xlink:title="Acknowledgement">
<path fill="none" stroke="#12ffff" d="M65.72,-291.7C61.47,-288.32 52.15,-280.93 45.73,-275.84"/>
<polygon fill="#12ffff" stroke="#12ffff" points="46.52,-274.23 41.51,-272.49 44.34,-276.97 46.52,-274.23"/>
</a>
</g>
</g>
<!-- pilot02_12_stac_1338537704 -->
<g id="node17" class="node">
<title>pilot02_12_stac_1338537704</title>
<g id="a_node17"><a xlink:title="17 &#160;Thomas &#160;ok">
<ellipse fill="black" stroke="black" cx="59" cy="-244.5" rx="3.5" ry="3.5"/>
</a>
</g>
</g>
<!-- pilot02_12_stac_1463480868&#45;&gt;pilot02_12_stac_1338537704 -->
<g id="edge34" class="edge">
<title>pilot02_12_stac_1463480868&#45;&gt;pilot02_12_stac_1338537704</title>
<g id="a_edge34"><a xlink:title="Acknowledgement">
<path fill="none" stroke="#12ffff" d="M67.52,-290.92C66.21,-283.95 62.57,-264.55 60.5,-253.49"/>
<polygon fill="#12ffff" stroke="#12ffff" points="62.17,-252.92 59.53,-248.33 58.73,-253.57 62.17,-252.92"/>
</a>
</g>
</g>
<!-- pilot02_12_stac_1338547704 -->
<g id="node18" class="node">
<title>pilot02_12_stac_1338547704</title>
<g id="a_node18"><a xlink:title="18 &#160;Cat &#160;ok">
<ellipse fill="black" stroke="black" cx="79" cy="-219.5" rx="3.5" ry="3.5"/>
</a>
</g>
</g>
<!-- pilot02_12_stac_1463480868&#45;&gt;pilot02_12_stac_1338547704 -->
<g id="edge35" class="edge">
<title>pilot02_12_stac_1463480868&#45;&gt;pilot02_12_stac_1338547704</title>
<g id="a_edge35"><a xlink:title="Acknowledgement">
<path fill="none" stroke="#12ffff" d="M68.42,-290.73C69.96,-280.52 75.34,-244.78 77.78,-228.59"/>
<polygon fill="#12ffff" stroke="#12ffff" points="79.57,-228.48 78.58,-223.28 76.11,-227.96 79.57,-228.48"/>
</a>
</g>
</g>
<!-- pilot02_12_stac_1463480883 -->
<g id="node20" class="node">
<title>pilot02_12_stac_1463480883</title>
<g id="a_node20"><a xlink:title="20 &#160;Markus &#160;For your £5 you&#39;ll have to sign a receipt.">
<ellipse fill="black" stroke="black" cx="79" cy="-169.5" rx="3.5" ry="3.5"/>
</a>
</g>
</g>
<!-- pilot02_12_stac_1463480868&#45;&gt;pilot02_12_stac_1463480883 -->
<g id="edge36" class="edge">
<title>pilot02_12_stac_1463480868&#45;&gt;pilot02_12_stac_1463480883</title>
<g id="a_edge36"><a xlink:title="ParallNarrContinuationbackground">
<path fill="none" stroke="#0ab046" d="M70.67,-291.65C78.68,-285.86 102,-267.15 102,-245.5 102,-245.5 102,-245.5 102,-218.5 102,-201.97 90.77,-185.11 84,-176.44"/>
<polygon fill="#0ab046" stroke="#0ab046" points="85.32,-175.29 80.8,-172.53 82.61,-177.51 85.32,-175.29"/>
</a>
</g>
</g>
<!-- pilot02_12_stac_1338527704&#45;&gt;pilot02_12_stac_1338537704 -->
<!-- pilot02_12_stac_1338557704 -->
<g id="node19" class="node">
<title>pilot02_12_stac_1338557704</title>
<g id="a_node19"><a xlink:title="19 &#160;Cat &#160;bye then">
<ellipse fill="black" stroke="black" cx="68" cy="-194.5" rx="3.5" ry="3.5"/>
</a>
</g>
</g>
<!-- pilot02_12_stac_1338527704&#45;&gt;pilot02_12_stac_1338557704 -->
<g id="edge37" class="edge">
<title>pilot02_12_stac_1338527704&#45;&gt;pilot02_12_stac_1338557704</title>
<g id="a_edge37"><a xlink:title="Comment">
<path fill="none" stroke="#ff8200" d="M39.64,-265.89C40.87,-260.95 43.74,-249.97 47,-241 51.15,-229.59 52.89,-227.01 58,-216 60.11,-211.46 62.57,-206.4 64.53,-202.44"/>
<polygon fill="#ff8200" stroke="#ff8200" points="66.14,-203.14 66.8,-197.88 63,-201.58 66.14,-203.14"/>
</a>
</g>
</g>
<!-- pilot02_12_stac_1338537704&#45;&gt;pilot02_12_stac_1338547704 -->
<!-- pilot02_12_stac_1338537704&#45;&gt;pilot02_12_stac_1338557704 -->
<g id="edge38" class="edge">
<title>pilot02_12_stac_1338537704&#45;&gt;pilot02_12_stac_1338557704</title>
<g id="a_edge38"><a xlink:title="Comment">
<path fill="none" stroke="#ff8200" d="M59.48,-240.92C60.79,-233.95 64.43,-214.55 66.5,-203.49"/>
<polygon fill="#ff8200" stroke="#ff8200" points="68.27,-203.57 67.47,-198.33 64.83,-202.92 68.27,-203.57"/>
</a>
</g>
</g>
<!-- pilot02_12_stac_1338547704&#45;&gt;pilot02_12_stac_1338557704 -->
<g id="edge39" class="edge">
<title>pilot02_12_stac_1338547704&#45;&gt;pilot02_12_stac_1338557704</title>
<g id="a_edge39"><a xlink:title="ParallNarrContinuationbackground">
<path fill="none" stroke="#0ab046" d="M77.82,-216.04C76.29,-212.84 73.56,-207.12 71.36,-202.53"/>
<polygon fill="#0ab046" stroke="#0ab046" points="72.87,-201.63 69.14,-197.87 69.71,-203.14 72.87,-201.63"/>
</a>
</g>
</g>
<!-- pilot02_12_stac_1338557704&#45;&gt;pilot02_12_stac_1463480883 -->
<!-- pilot02_12_stac_1338567704 -->
<g id="node21" class="node">
<title>pilot02_12_stac_1338567704</title>
<g id="a_node21"><a xlink:title="21 &#160;Cat &#160;ok">
<ellipse fill="black" stroke="black" cx="56" cy="-144.5" rx="3.5" ry="3.5"/>
</a>
</g>
</g>
<!-- pilot02_12_stac_1463480883&#45;&gt;pilot02_12_stac_1338567704 -->
<g id="edge40" class="edge">
<title>pilot02_12_stac_1463480883&#45;&gt;pilot02_12_stac_1338567704</title>
<g id="a_edge40"><a xlink:title="Acknowledgement">
<path fill="none" stroke="#12ffff" d="M76.88,-166.38C73.54,-163.04 66.95,-156.45 62.06,-151.56"/>
<polygon fill="#12ffff" stroke="#12ffff" points="63.23,-150.26 58.46,-147.96 60.76,-152.73 63.23,-150.26"/>
</a>
</g>
</g>
<!-- pilot02_12_stac_1463480889 -->
<g id="node22" class="node">
<title>pilot02_12_stac_1463480889</title>
<g id="a_node22"><a xlink:title="22 &#160;Markus &#160;I&#39;m in IF 3.24.">
<ellipse fill="black" stroke="black" cx="56" cy="-119.5" rx="3.5" ry="3.5"/>
</a>
</g>
</g>
<!-- pilot02_12_stac_1463480883&#45;&gt;pilot02_12_stac_1463480889 -->
<g id="edge41" class="edge">
<title>pilot02_12_stac_1463480883&#45;&gt;pilot02_12_stac_1463480889</title>
<g id="a_edge41"><a xlink:title="ParallNarrContinuationbackground">
<path fill="none" stroke="#0ab046" d="M78.24,-165.84C76.78,-160.85 73.3,-149.75 69,-141 66.59,-136.11 63.3,-130.92 60.63,-126.99"/>
<polygon fill="#0ab046" stroke="#0ab046" points="62,-125.89 57.69,-122.8 59.13,-127.9 62,-125.89"/>
</a>
</g>
</g>
<!-- pilot02_12_stac_1338587704 -->
<g id="node26" class="node">
<title>pilot02_12_stac_1338587704</title>
<g id="a_node26"><a xlink:title="26 &#160;Thomas &#160;ok, thanks">
<ellipse fill="black" stroke="black" cx="83" cy="-19.5" rx="3.5" ry="3.5"/>
</a>
</g>
</g>
<!-- pilot02_12_stac_1463480883&#45;&gt;pilot02_12_stac_1338587704 -->
<g id="edge42" class="edge">
<title>pilot02_12_stac_1463480883&#45;&gt;pilot02_12_stac_1338587704</title>
<g id="a_edge42"><a xlink:title="Acknowledgement">
<path fill="none" stroke="#12ffff" d="M80.94,-166.07C86.14,-159.28 100,-139.42 100,-120.5 100,-120.5 100,-120.5 100,-68.5 100,-53.13 92.16,-36.49 87.13,-27.4"/>
<polygon fill="#12ffff" stroke="#12ffff" points="88.59,-26.44 84.57,-22.99 85.56,-28.19 88.59,-26.44"/>
</a>
</g>
</g>
<!-- pilot02_12_stac_1338567704&#45;&gt;pilot02_12_stac_1463480889 -->
<!-- pilot02_12_stac_1463480892 -->
<g id="node23" class="node">
<title>pilot02_12_stac_1463480892</title>
<g id="a_node23"><a xlink:title="23 &#160;Markus &#160;Should be there most of the time this week.">
<ellipse fill="black" stroke="black" cx="77" cy="-94.5" rx="3.5" ry="3.5"/>
</a>
</g>
</g>
<!-- pilot02_12_stac_1463480889&#45;&gt;pilot02_12_stac_1463480892 -->
<g id="edge43" class="edge">
<title>pilot02_12_stac_1463480889&#45;&gt;pilot02_12_stac_1463480892</title>
<g id="a_edge43"><a xlink:title="Elaboration">
<path fill="none" stroke="#a621c7" d="M57.94,-116.38C60.92,-113.11 66.77,-106.71 71.2,-101.85"/>
<polygon fill="#a621c7" stroke="#a621c7" points="72.67,-102.83 74.75,-97.96 70.09,-100.47 72.67,-102.83"/>
</a>
</g>
</g>
<!-- pilot02_12_stac_1463480895 -->
<g id="node24" class="node">
<title>pilot02_12_stac_1463480895</title>
<g id="a_node24"><a xlink:title="24 &#160;Markus &#160;Thanks again!">
<ellipse fill="black" stroke="black" cx="67" cy="-69.5" rx="3.5" ry="3.5"/>
</a>
</g>
</g>
<!-- pilot02_12_stac_1463480889&#45;&gt;pilot02_12_stac_1463480895 -->
<g id="edge44" class="edge">
<title>pilot02_12_stac_1463480889&#45;&gt;pilot02_12_stac_1463480895</title>
<g id="a_edge44"><a xlink:title="Comment">
<path fill="none" stroke="#ff8200" d="M56.59,-115.92C58.19,-108.95 62.64,-89.55 65.17,-78.49"/>
<polygon fill="#ff8200" stroke="#ff8200" points="66.94,-78.6 66.35,-73.33 63.53,-77.81 66.94,-78.6"/>
</a>
</g>
</g>
<!-- pilot02_12_stac_1338577704 -->
<g id="node25" class="node">
<title>pilot02_12_stac_1338577704</title>
<g id="a_node25"><a xlink:title="25 &#160;Cat &#160;ok, I&#39;ll come by">
<ellipse fill="black" stroke="black" cx="67" cy="-44.5" rx="3.5" ry="3.5"/>
</a>
</g>
</g>
<!-- pilot02_12_stac_1463480889&#45;&gt;pilot02_12_stac_1338577704 -->
<g id="edge45" class="edge">
<title>pilot02_12_stac_1463480889&#45;&gt;pilot02_12_stac_1338577704</title>
<g id="a_edge45"><a xlink:title="Acknowledgement">
<path fill="none" stroke="#12ffff" d="M55.47,-116.03C53.95,-108.42 49.94,-84.65 55,-66 56.4,-60.85 59.45,-55.67 62.12,-51.81"/>
<polygon fill="#12ffff" stroke="#12ffff" points="63.58,-52.77 65.16,-47.71 60.77,-50.69 63.58,-52.77"/>
</a>
</g>
</g>
<!-- pilot02_12_stac_1463480892&#45;&gt;pilot02_12_stac_1463480895 -->
<!-- pilot02_12_stac_1463480895&#45;&gt;pilot02_12_stac_1338577704 -->
<!-- pilot02_12_stac_1338577704&#45;&gt;pilot02_12_stac_1338587704 -->
</g>
</svg>
