<?xml version="1.0" encoding="UTF-8" standalone="no"?>
<!DOCTYPE svg PUBLIC "-//W3C//DTD SVG 1.1//EN"
 "http://www.w3.org/Graphics/SVG/1.1/DTD/svg11.dtd">
<!-- Generated by graphviz version 3.0.0 (20220226.1711)
 -->
<!-- Title: 2_pilot02_50 Pages: 1 -->
<svg width="93pt" height="170pt"
 viewBox="0.00 0.00 93.00 170.00" xmlns="http://www.w3.org/2000/svg" xmlns:xlink="http://www.w3.org/1999/xlink">
<g id="graph0" class="graph" transform="scale(1 1) rotate(0) translate(4 166)">
<title>2_pilot02_50</title>
<polygon fill="white" stroke="transparent" points="-4,4 -4,-166 89,-166 89,4 -4,4"/>
<g id="clust1" class="cluster">
<title>cluster_2_pilot02_50</title>
<polygon fill="none" stroke="black" points="8,-8 8,-154 77,-154 77,-8 8,-8"/>
<text text-anchor="middle" x="23" y="-138.8" font-family="Times,serif" font-size="14.00">50</text>
</g>
<!-- pilot02_02_stac_1338627675 -->
<g id="node1" class="node">
<title>pilot02_02_stac_1338627675</title>
<g id="a_node1"><a xlink:title="2 &#160;william &#160;no, you need a settlement">
<ellipse fill="black" stroke="black" cx="30" cy="-94.5" rx="3.5" ry="3.5"/>
</a>
</g>
</g>
<!-- 2_0 -->
<!-- pilot02_02_stac_1338627675&#45;&gt;2_0 -->
<!-- pilot02_02_stac_1338637675 -->
<g id="node3" class="node">
<title>pilot02_02_stac_1338637675</title>
<g id="a_node3"><a xlink:title="3 &#160;william &#160;roads lead to settlements">
<ellipse fill="black" stroke="black" cx="20" cy="-69.5" rx="3.5" ry="3.5"/>
</a>
</g>
</g>
<!-- pilot02_02_stac_1338627675&#45;&gt;pilot02_02_stac_1338637675 -->
<g id="edge8" class="edge">
<title>pilot02_02_stac_1338627675&#45;&gt;pilot02_02_stac_1338637675</title>
<g id="a_edge8"><a xlink:title="ParallNarrContinuationbackground">
<path fill="none" stroke="#0ab046" d="M28.93,-91.04C27.54,-87.84 25.05,-82.12 23.06,-77.53"/>
<polygon fill="#0ab046" stroke="#0ab046" points="24.63,-76.76 21.03,-72.87 21.42,-78.16 24.63,-76.76"/>
</a>
</g>
</g>
<!-- pilot02_02_stac_1338657675 -->
<g id="node7" class="node">
<title>pilot02_02_stac_1338657675</title>
<g id="a_node7"><a xlink:title="5 &#160;Cat &#160;okay">
<ellipse fill="black" stroke="black" cx="30" cy="-19.5" rx="3.5" ry="3.5"/>
</a>
</g>
</g>
<!-- pilot02_02_stac_1338627675&#45;&gt;pilot02_02_stac_1338657675 -->
<g id="edge9" class="edge">
<title>pilot02_02_stac_1338627675&#45;&gt;pilot02_02_stac_1338657675</title>
<g id="a_edge9"><a xlink:title="Acknowledgement">
<path fill="none" stroke="#12ffff" d="M33.01,-92.39C39.08,-89.95 52.66,-83.53 58,-73 64.43,-60.32 64.43,-53.68 58,-41 53.83,-32.77 44.63,-27.05 37.91,-23.78"/>
<polygon fill="#12ffff" stroke="#12ffff" points="38.29,-22.04 33.01,-21.61 36.88,-25.24 38.29,-22.04"/>
</a>
</g>
</g>
<!-- 3_0 -->
<!-- pilot02_02_stac_1338637675&#45;&gt;3_0 -->
<!-- pilot02_02_stac_1338647675 -->
<g id="node5" class="node">
<title>pilot02_02_stac_1338647675</title>
<g id="a_node5"><a xlink:title="4 &#160;william &#160;all settlements must have a min distance of 2">
<ellipse fill="black" stroke="black" cx="20" cy="-44.5" rx="3.5" ry="3.5"/>
</a>
</g>
</g>
<!-- pilot02_02_stac_1338637675&#45;&gt;pilot02_02_stac_1338647675 -->
<g id="edge10" class="edge">
<title>pilot02_02_stac_1338637675&#45;&gt;pilot02_02_stac_1338647675</title>
<g id="a_edge10"><a xlink:title="ParallNarrContinuationbackground">
<path fill="none" stroke="#0ab046" d="M20,-65.68C20,-62.58 20,-57.47 20,-53.16"/>
<polygon fill="#0ab046" stroke="#0ab046" points="21.75,-53.06 20,-48.06 18.25,-53.06 21.75,-53.06"/>
</a>
</g>
</g>
<!-- 4_0 -->
<!-- pilot02_02_stac_1338647675&#45;&gt;4_0 -->
<!-- pilot02_02_stac_1338647675&#45;&gt;pilot02_02_stac_1338657675 -->
<!-- 5_0 -->
<!-- pilot02_02_stac_1338657675&#45;&gt;5_0 -->
<!-- pilot02_02_stac_1338617675 -->
<g id="node9" class="node">
<title>pilot02_02_stac_1338617675</title>
<g id="a_node9"><a xlink:title="1 &#160;Cat &#160;so if I build a road ">
<ellipse fill="black" stroke="black" cx="30" cy="-119.5" rx="3.5" ry="3.5"/>
</a>
</g>
</g>
<!-- pilot02_02_stac_1338617675&#45;&gt;pilot02_02_stac_1338627675 -->
<g id="edge7" class="edge">
<title>pilot02_02_stac_1338617675&#45;&gt;pilot02_02_stac_1338627675</title>
<g id="a_edge7"><a xlink:title="Question_answer_pair">
<path fill="none" stroke="#12ffff" d="M30,-115.68C30,-112.58 30,-107.47 30,-103.16"/>
<polygon fill="#12ffff" stroke="#12ffff" points="31.75,-103.06 30,-98.06 28.25,-103.06 31.75,-103.06"/>
</a>
</g>
</g>
<!-- pilot02_02_stac_1338617676 -->
<g id="node10" class="node">
<title>pilot02_02_stac_1338617676</title>
<g id="a_node10"><a xlink:title="1 &#160;Cat &#160;do i get the resources next to it?">
<ellipse fill="black" stroke="black" cx="55" cy="-119.5" rx="3.5" ry="3.5"/>
</a>
</g>
</g>
<!-- pilot02_02_stac_1338617675&#45;&gt;pilot02_02_stac_1338617676 -->
<g id="edge6" class="edge">
<title>pilot02_02_stac_1338617675&#45;&gt;pilot02_02_stac_1338617676</title>
<g id="a_edge6"><a xlink:title="Conditional">
<path fill="none" stroke="#1c931a" d="M33.52,-119.5C37.78,-119.5 42.04,-119.5 46.3,-119.5"/>
<polygon fill="#1c931a" stroke="#1c931a" points="46.31,-121.25 51.31,-119.5 46.31,-117.75 46.31,-121.25"/>
</a>
</g>
</g>
</g>
</svg>
