<?xml version="1.0" encoding="UTF-8" standalone="no"?>
<!DOCTYPE svg PUBLIC "-//W3C//DTD SVG 1.1//EN"
 "http://www.w3.org/Graphics/SVG/1.1/DTD/svg11.dtd">
<!-- Generated by graphviz version 3.0.0 (20220226.1711)
 -->
<!-- Title: 3_pilot02_52 Pages: 1 -->
<svg width="114pt" height="520pt"
 viewBox="0.00 0.00 114.00 520.00" xmlns="http://www.w3.org/2000/svg" xmlns:xlink="http://www.w3.org/1999/xlink">
<g id="graph0" class="graph" transform="scale(1 1) rotate(0) translate(4 516)">
<title>3_pilot02_52</title>
<polygon fill="white" stroke="transparent" points="-4,4 -4,-516 110,-516 110,4 -4,4"/>
<g id="clust1" class="cluster">
<title>cluster_3_pilot02_52</title>
<polygon fill="none" stroke="black" points="8,-8 8,-504 98,-504 98,-8 8,-8"/>
<text text-anchor="middle" x="23" y="-488.8" font-family="Times,serif" font-size="14.00">52</text>
</g>
<!-- pilot02_03_stac_1338547679 -->
<g id="node1" class="node">
<title>pilot02_03_stac_1338547679</title>
<g id="a_node1"><a xlink:title="1 &#160;william &#160;does someone have clay?">
<ellipse fill="black" stroke="black" cx="30" cy="-469.5" rx="3.5" ry="3.5"/>
</a>
</g>
</g>
<!-- 1_0 -->
<!-- pilot02_03_stac_1338547679&#45;&gt;1_0 -->
<!-- pilot02_03_stac_1338557679 -->
<g id="node3" class="node">
<title>pilot02_03_stac_1338557679</title>
<g id="a_node3"><a xlink:title="2 &#160;Thomas &#160;none">
<ellipse fill="black" stroke="black" cx="41" cy="-444.5" rx="3.5" ry="3.5"/>
</a>
</g>
</g>
<!-- pilot02_03_stac_1338547679&#45;&gt;pilot02_03_stac_1338557679 -->
<g id="edge24" class="edge">
<title>pilot02_03_stac_1338547679&#45;&gt;pilot02_03_stac_1338557679</title>
<g id="a_edge24"><a xlink:title="Question_answer_pair">
<path fill="none" stroke="#12ffff" d="M31.18,-466.04C32.71,-462.84 35.44,-457.12 37.64,-452.53"/>
<polygon fill="#12ffff" stroke="#12ffff" points="39.29,-453.14 39.86,-447.87 36.13,-451.63 39.29,-453.14"/>
</a>
</g>
</g>
<!-- pilot02_03_stac_1338567679 -->
<g id="node5" class="node">
<title>pilot02_03_stac_1338567679</title>
<g id="a_node5"><a xlink:title="3 &#160;Cat &#160;yes">
<ellipse fill="black" stroke="black" cx="30" cy="-419.5" rx="3.5" ry="3.5"/>
</a>
</g>
</g>
<!-- pilot02_03_stac_1338547679&#45;&gt;pilot02_03_stac_1338567679 -->
<g id="edge25" class="edge">
<title>pilot02_03_stac_1338547679&#45;&gt;pilot02_03_stac_1338567679</title>
<g id="a_edge25"><a xlink:title="Question_answer_pair">
<path fill="none" stroke="#12ffff" d="M29.83,-465.85C29.59,-461.94 29.16,-454.41 29,-448 28.84,-441.27 29.16,-433.61 29.48,-428.09"/>
<polygon fill="#12ffff" stroke="#12ffff" points="31.22,-428.18 29.8,-423.08 27.73,-427.95 31.22,-428.18"/>
</a>
</g>
</g>
<!-- 2_0 -->
<!-- pilot02_03_stac_1338557679&#45;&gt;2_0 -->
<!-- pilot02_03_stac_1338557679&#45;&gt;pilot02_03_stac_1338567679 -->
<!-- 3_0 -->
<!-- pilot02_03_stac_1338567679&#45;&gt;3_0 -->
<!-- pilot02_03_stac_1338597679 -->
<g id="node7" class="node">
<title>pilot02_03_stac_1338597679</title>
<g id="a_node7"><a xlink:title="4 &#160;william &#160;what do you want for it?">
<ellipse fill="black" stroke="black" cx="30" cy="-394.5" rx="3.5" ry="3.5"/>
</a>
</g>
</g>
<!-- pilot02_03_stac_1338567679&#45;&gt;pilot02_03_stac_1338597679 -->
<g id="edge26" class="edge">
<title>pilot02_03_stac_1338567679&#45;&gt;pilot02_03_stac_1338597679</title>
<g id="a_edge26"><a xlink:title="Q_Elab">
<path fill="none" stroke="#0d20ff" d="M30,-415.68C30,-412.58 30,-407.47 30,-403.16"/>
<polygon fill="#0d20ff" stroke="#0d20ff" points="31.75,-403.06 30,-398.06 28.25,-403.06 31.75,-403.06"/>
</a>
</g>
</g>
<!-- 4_0 -->
<!-- pilot02_03_stac_1338597679&#45;&gt;4_0 -->
<!-- pilot02_03_stac_1338607679 -->
<g id="node9" class="node">
<title>pilot02_03_stac_1338607679</title>
<g id="a_node9"><a xlink:title="5 &#160;Cat &#160;hmm, not sure...">
<ellipse fill="black" stroke="black" cx="41" cy="-369.5" rx="3.5" ry="3.5"/>
</a>
</g>
</g>
<!-- pilot02_03_stac_1338597679&#45;&gt;pilot02_03_stac_1338607679 -->
<g id="edge27" class="edge">
<title>pilot02_03_stac_1338597679&#45;&gt;pilot02_03_stac_1338607679</title>
<g id="a_edge27"><a xlink:title="Question_answer_pair">
<path fill="none" stroke="#12ffff" d="M31.18,-391.04C32.71,-387.84 35.44,-382.12 37.64,-377.53"/>
<polygon fill="#12ffff" stroke="#12ffff" points="39.29,-378.14 39.86,-372.87 36.13,-376.63 39.29,-378.14"/>
</a>
</g>
</g>
<!-- pilot02_03_stac_1338617679 -->
<g id="node33" class="node">
<title>pilot02_03_stac_1338617679</title>
<g id="a_node33"><a xlink:title="6 &#160;Cat &#160;I&#39;d like wood, ">
<ellipse fill="black" stroke="black" cx="30" cy="-344.5" rx="3.5" ry="3.5"/>
</a>
</g>
</g>
<!-- pilot02_03_stac_1338597679&#45;&gt;pilot02_03_stac_1338617679 -->
<g id="edge28" class="edge">
<title>pilot02_03_stac_1338597679&#45;&gt;pilot02_03_stac_1338617679</title>
<g id="a_edge28"><a xlink:title="Question_answer_pair">
<path fill="none" stroke="#12ffff" d="M29.83,-390.85C29.59,-386.94 29.16,-379.41 29,-373 28.84,-366.27 29.16,-358.61 29.48,-353.09"/>
<polygon fill="#12ffff" stroke="#12ffff" points="31.22,-353.18 29.8,-348.08 27.73,-352.95 31.22,-353.18"/>
</a>
</g>
</g>
<!-- 5_0 -->
<!-- pilot02_03_stac_1338607679&#45;&gt;5_0 -->
<!-- pilot02_03_stac_1338607679&#45;&gt;pilot02_03_stac_1338617679 -->
<!-- pilot02_03_stac_1338627679 -->
<g id="node11" class="node">
<title>pilot02_03_stac_1338627679</title>
<g id="a_node11"><a xlink:title="7 &#160;william &#160;i can give you wood!">
<ellipse fill="black" stroke="black" cx="30" cy="-319.5" rx="3.5" ry="3.5"/>
</a>
</g>
</g>
<!-- 7_0 -->
<!-- pilot02_03_stac_1338627679&#45;&gt;7_0 -->
<!-- pilot02_03_stac_1338637679 -->
<g id="node13" class="node">
<title>pilot02_03_stac_1338637679</title>
<g id="a_node13"><a xlink:title="8 &#160;Cat &#160;I can echange ore for wood though">
<ellipse fill="black" stroke="black" cx="30" cy="-294.5" rx="3.5" ry="3.5"/>
</a>
</g>
</g>
<!-- pilot02_03_stac_1338627679&#45;&gt;pilot02_03_stac_1338637679 -->
<g id="edge31" class="edge">
<title>pilot02_03_stac_1338627679&#45;&gt;pilot02_03_stac_1338637679</title>
<g id="a_edge31"><a xlink:title="ContrastCorrection">
<path fill="none" stroke="#ff7ecf" d="M30,-315.68C30,-312.58 30,-307.47 30,-303.16"/>
<polygon fill="#ff7ecf" stroke="#ff7ecf" points="31.75,-303.06 30,-298.06 28.25,-303.06 31.75,-303.06"/>
</a>
</g>
</g>
<!-- 8_0 -->
<!-- pilot02_03_stac_1338637679&#45;&gt;8_0 -->
<!-- pilot02_03_stac_1338647679 -->
<g id="node15" class="node">
<title>pilot02_03_stac_1338647679</title>
<g id="a_node15"><a xlink:title="9 &#160;william &#160;give or want ore?">
<ellipse fill="black" stroke="black" cx="20" cy="-269.5" rx="3.5" ry="3.5"/>
</a>
</g>
</g>
<!-- pilot02_03_stac_1338637679&#45;&gt;pilot02_03_stac_1338647679 -->
<g id="edge32" class="edge">
<title>pilot02_03_stac_1338637679&#45;&gt;pilot02_03_stac_1338647679</title>
<g id="a_edge32"><a xlink:title="Clarification_question">
<path fill="none" stroke="#ff40d1" d="M28.93,-291.04C27.54,-287.84 25.05,-282.12 23.06,-277.53"/>
<polygon fill="#ff40d1" stroke="#ff40d1" points="24.63,-276.76 21.03,-272.87 21.42,-278.16 24.63,-276.76"/>
</a>
</g>
</g>
<!-- pilot02_03_stac_1338667679 -->
<g id="node19" class="node">
<title>pilot02_03_stac_1338667679</title>
<g id="a_node19"><a xlink:title="11 &#160;william &#160;i&#39;m in">
<ellipse fill="black" stroke="black" cx="50" cy="-219.5" rx="3.5" ry="3.5"/>
</a>
</g>
</g>
<!-- pilot02_03_stac_1338637679&#45;&gt;pilot02_03_stac_1338667679 -->
<g id="edge33" class="edge">
<title>pilot02_03_stac_1338637679&#45;&gt;pilot02_03_stac_1338667679</title>
<g id="a_edge33"><a xlink:title="Acknowledgement">
<path fill="none" stroke="#12ffff" d="M33.01,-292.39C39.08,-289.95 52.66,-283.53 58,-273 65.53,-258.16 58.46,-238.14 53.64,-227.63"/>
<polygon fill="#12ffff" stroke="#12ffff" points="55.18,-226.8 51.41,-223.07 52.04,-228.34 55.18,-226.8"/>
</a>
</g>
</g>
<!-- 9_0 -->
<!-- pilot02_03_stac_1338647679&#45;&gt;9_0 -->
<!-- pilot02_03_stac_1338657679 -->
<g id="node17" class="node">
<title>pilot02_03_stac_1338657679</title>
<g id="a_node17"><a xlink:title="10 &#160;Cat &#160;give ore, receive wood">
<ellipse fill="black" stroke="black" cx="20" cy="-244.5" rx="3.5" ry="3.5"/>
</a>
</g>
</g>
<!-- pilot02_03_stac_1338647679&#45;&gt;pilot02_03_stac_1338657679 -->
<g id="edge34" class="edge">
<title>pilot02_03_stac_1338647679&#45;&gt;pilot02_03_stac_1338657679</title>
<g id="a_edge34"><a xlink:title="Question_answer_pair">
<path fill="none" stroke="#12ffff" d="M20,-265.68C20,-262.58 20,-257.47 20,-253.16"/>
<polygon fill="#12ffff" stroke="#12ffff" points="21.75,-253.06 20,-248.06 18.25,-253.06 21.75,-253.06"/>
</a>
</g>
</g>
<!-- 10_0 -->
<!-- pilot02_03_stac_1338657679&#45;&gt;10_0 -->
<!-- pilot02_03_stac_1338657679&#45;&gt;pilot02_03_stac_1338667679 -->
<g id="edge35" class="edge">
<title>pilot02_03_stac_1338657679&#45;&gt;pilot02_03_stac_1338667679</title>
<g id="a_edge35"><a xlink:title="Acknowledgement">
<path fill="none" stroke="#12ffff" d="M22.35,-241.7C26.84,-238.25 36.78,-230.64 43.43,-225.53"/>
<polygon fill="#12ffff" stroke="#12ffff" points="44.84,-226.66 47.74,-222.23 42.71,-223.89 44.84,-226.66"/>
</a>
</g>
</g>
<!-- pilot02_03_stac_1338737679 -->
<g id="node27" class="node">
<title>pilot02_03_stac_1338737679</title>
<g id="a_node27"><a xlink:title="16 &#160;Cat &#160;if you can give me wood">
<ellipse fill="black" stroke="black" cx="30" cy="-94.5" rx="3.5" ry="3.5"/>
</a>
</g>
</g>
<!-- pilot02_03_stac_1338657679&#45;&gt;pilot02_03_stac_1338737679 -->
<g id="edge36" class="edge">
<title>pilot02_03_stac_1338657679&#45;&gt;pilot02_03_stac_1338737679</title>
<g id="a_edge36"><a xlink:title="Elaboration">
<path fill="none" stroke="#a621c7" d="M19.72,-240.9C18.98,-233.7 17,-212.87 17,-195.5 17,-195.5 17,-195.5 17,-143.5 17,-128.63 22.89,-112.04 26.74,-102.78"/>
<polygon fill="#a621c7" stroke="#a621c7" points="28.41,-103.32 28.8,-98.04 25.2,-101.92 28.41,-103.32"/>
</a>
</g>
</g>
<!-- 11_0 -->
<!-- pilot02_03_stac_1338667679&#45;&gt;11_0 -->
<!-- pilot02_03_stac_1338677679 -->
<g id="node21" class="node">
<title>pilot02_03_stac_1338677679</title>
<g id="a_node21"><a xlink:title="12 &#160;Cat &#160;great">
<ellipse fill="black" stroke="black" cx="60" cy="-194.5" rx="3.5" ry="3.5"/>
</a>
</g>
</g>
<!-- pilot02_03_stac_1338667679&#45;&gt;pilot02_03_stac_1338677679 -->
<g id="edge37" class="edge">
<title>pilot02_03_stac_1338667679&#45;&gt;pilot02_03_stac_1338677679</title>
<g id="a_edge37"><a xlink:title="Acknowledgement">
<path fill="none" stroke="#12ffff" d="M51.07,-216.04C52.46,-212.84 54.95,-207.12 56.94,-202.53"/>
<polygon fill="#12ffff" stroke="#12ffff" points="58.58,-203.16 58.97,-197.87 55.37,-201.76 58.58,-203.16"/>
</a>
</g>
</g>
<!-- pilot02_03_stac_1338697679 -->
<g id="node35" class="node">
<title>pilot02_03_stac_1338697679</title>
<g id="a_node35"><a xlink:title="13 &#160;william &#160;oh, sorry. ">
<ellipse fill="black" stroke="black" cx="40" cy="-169.5" rx="3.5" ry="3.5"/>
</a>
</g>
</g>
<!-- pilot02_03_stac_1338667679&#45;&gt;pilot02_03_stac_1338697679 -->
<g id="edge38" class="edge">
<title>pilot02_03_stac_1338667679&#45;&gt;pilot02_03_stac_1338697679</title>
<g id="a_edge38"><a xlink:title="ContrastCorrection">
<path fill="none" stroke="#ff7ecf" d="M49.46,-215.92C48.01,-208.95 43.97,-189.55 41.66,-178.49"/>
<polygon fill="#ff7ecf" stroke="#ff7ecf" points="43.32,-177.87 40.59,-173.33 39.9,-178.58 43.32,-177.87"/>
</a>
</g>
</g>
<!-- 12_0 -->
<!-- pilot02_03_stac_1338677679&#45;&gt;12_0 -->
<!-- pilot02_03_stac_1338677679&#45;&gt;pilot02_03_stac_1338697679 -->
<!-- pilot02_03_stac_1338707679 -->
<g id="node23" class="node">
<title>pilot02_03_stac_1338707679</title>
<g id="a_node23"><a xlink:title="14 &#160;Cat &#160;I mean I can offer ore">
<ellipse fill="black" stroke="black" cx="40" cy="-144.5" rx="3.5" ry="3.5"/>
</a>
</g>
</g>
<!-- 14_0 -->
<!-- pilot02_03_stac_1338707679&#45;&gt;14_0 -->
<!-- pilot02_03_stac_1338717679 -->
<g id="node25" class="node">
<title>pilot02_03_stac_1338717679</title>
<g id="a_node25"><a xlink:title="15 &#160;william &#160;? i &#160;am confused">
<ellipse fill="black" stroke="black" cx="41" cy="-119.5" rx="3.5" ry="3.5"/>
</a>
</g>
</g>
<!-- pilot02_03_stac_1338707679&#45;&gt;pilot02_03_stac_1338717679 -->
<!-- 15_0 -->
<!-- pilot02_03_stac_1338717679&#45;&gt;15_0 -->
<!-- pilot02_03_stac_1338717679&#45;&gt;pilot02_03_stac_1338737679 -->
<!-- pilot02_03_stac_1338747680 -->
<g id="node38" class="node">
<title>pilot02_03_stac_1338747680</title>
<g id="a_node38"><a xlink:title="17 &#160;william &#160;i just got the speech bubble message wrong...">
<ellipse fill="black" stroke="black" cx="66" cy="-69.5" rx="3.5" ry="3.5"/>
</a>
</g>
</g>
<!-- pilot02_03_stac_1338717679&#45;&gt;pilot02_03_stac_1338747680 -->
<g id="edge41" class="edge">
<title>pilot02_03_stac_1338717679&#45;&gt;pilot02_03_stac_1338747680</title>
<g id="a_edge41"><a xlink:title="ExplanationResult">
<path fill="none" stroke="#a62139" d="M42.21,-116.18C45.83,-109.23 56.71,-88.34 62.42,-77.38"/>
<polygon fill="#a62139" stroke="#a62139" points="63.99,-78.15 64.75,-72.9 60.89,-76.53 63.99,-78.15"/>
</a>
</g>
</g>
<!-- 16_0 -->
<!-- pilot02_03_stac_1338737679&#45;&gt;16_0 -->
<!-- pilot02_03_stac_1338757679 -->
<g id="node29" class="node">
<title>pilot02_03_stac_1338757679</title>
<g id="a_node29"><a xlink:title="18 &#160;william &#160;done">
<ellipse fill="black" stroke="black" cx="31" cy="-44.5" rx="3.5" ry="3.5"/>
</a>
</g>
</g>
<!-- pilot02_03_stac_1338737679&#45;&gt;pilot02_03_stac_1338757679 -->
<g id="edge43" class="edge">
<title>pilot02_03_stac_1338737679&#45;&gt;pilot02_03_stac_1338757679</title>
<g id="a_edge43"><a xlink:title="Acknowledgement">
<path fill="none" stroke="#12ffff" d="M30.51,-90.86C31.24,-86.97 32.53,-79.46 33,-73 33.49,-66.27 32.83,-58.61 32.14,-53.09"/>
<polygon fill="#12ffff" stroke="#12ffff" points="33.87,-52.78 31.44,-48.08 30.4,-53.27 33.87,-52.78"/>
</a>
</g>
</g>
<!-- pilot02_03_stac_1338747679 -->
<g id="node37" class="node">
<title>pilot02_03_stac_1338747679</title>
<g id="a_node37"><a xlink:title="17 &#160;william &#160;ok. ">
<ellipse fill="black" stroke="black" cx="20" cy="-69.5" rx="3.5" ry="3.5"/>
</a>
</g>
</g>
<!-- pilot02_03_stac_1338737679&#45;&gt;pilot02_03_stac_1338747679 -->
<g id="edge42" class="edge">
<title>pilot02_03_stac_1338737679&#45;&gt;pilot02_03_stac_1338747679</title>
<g id="a_edge42"><a xlink:title="Acknowledgement">
<path fill="none" stroke="#12ffff" d="M28.93,-91.04C27.54,-87.84 25.05,-82.12 23.06,-77.53"/>
<polygon fill="#12ffff" stroke="#12ffff" points="24.63,-76.76 21.03,-72.87 21.42,-78.16 24.63,-76.76"/>
</a>
</g>
</g>
<!-- 18_0 -->
<!-- pilot02_03_stac_1338757679&#45;&gt;18_0 -->
<!-- pilot02_03_stac_1338767679 -->
<g id="node31" class="node">
<title>pilot02_03_stac_1338767679</title>
<g id="a_node31"><a xlink:title="19 &#160;Cat &#160;thanks">
<ellipse fill="black" stroke="black" cx="31" cy="-19.5" rx="3.5" ry="3.5"/>
</a>
</g>
</g>
<!-- pilot02_03_stac_1338757679&#45;&gt;pilot02_03_stac_1338767679 -->
<g id="edge45" class="edge">
<title>pilot02_03_stac_1338757679&#45;&gt;pilot02_03_stac_1338767679</title>
<g id="a_edge45"><a xlink:title="Acknowledgement">
<path fill="none" stroke="#12ffff" d="M31,-40.68C31,-37.58 31,-32.47 31,-28.16"/>
<polygon fill="#12ffff" stroke="#12ffff" points="32.75,-28.06 31,-23.06 29.25,-28.06 32.75,-28.06"/>
</a>
</g>
</g>
<!-- 19_0 -->
<!-- pilot02_03_stac_1338767679&#45;&gt;19_0 -->
<!-- pilot02_03_stac_1338617679&#45;&gt;pilot02_03_stac_1338627679 -->
<g id="edge30" class="edge">
<title>pilot02_03_stac_1338617679&#45;&gt;pilot02_03_stac_1338627679</title>
<g id="a_edge30"><a xlink:title="Question_answer_pair">
<path fill="none" stroke="#12ffff" d="M30,-340.68C30,-337.58 30,-332.47 30,-328.16"/>
<polygon fill="#12ffff" stroke="#12ffff" points="31.75,-328.06 30,-323.06 28.25,-328.06 31.75,-328.06"/>
</a>
</g>
</g>
<!-- pilot02_03_stac_1338617680 -->
<g id="node34" class="node">
<title>pilot02_03_stac_1338617680</title>
<g id="a_node34"><a xlink:title="6 &#160;Cat &#160;but I need clay too">
<ellipse fill="black" stroke="black" cx="55" cy="-344.5" rx="3.5" ry="3.5"/>
</a>
</g>
</g>
<!-- pilot02_03_stac_1338617679&#45;&gt;pilot02_03_stac_1338617680 -->
<g id="edge29" class="edge">
<title>pilot02_03_stac_1338617679&#45;&gt;pilot02_03_stac_1338617680</title>
<g id="a_edge29"><a xlink:title="ContrastCorrection">
<path fill="none" stroke="#ff7ecf" d="M33.52,-344.5C37.78,-344.5 42.04,-344.5 46.3,-344.5"/>
<polygon fill="#ff7ecf" stroke="#ff7ecf" points="46.31,-346.25 51.31,-344.5 46.31,-342.75 46.31,-346.25"/>
</a>
</g>
</g>
<!-- pilot02_03_stac_1338697679&#45;&gt;pilot02_03_stac_1338707679 -->
<!-- pilot02_03_stac_1338697680 -->
<g id="node36" class="node">
<title>pilot02_03_stac_1338697680</title>
<g id="a_node36"><a xlink:title="13 &#160;william &#160;i thought you were talking about yourself when you said give ore">
<ellipse fill="black" stroke="black" cx="65" cy="-169.5" rx="3.5" ry="3.5"/>
</a>
</g>
</g>
<!-- pilot02_03_stac_1338697679&#45;&gt;pilot02_03_stac_1338697680 -->
<g id="edge39" class="edge">
<title>pilot02_03_stac_1338697679&#45;&gt;pilot02_03_stac_1338697680</title>
<g id="a_edge39"><a xlink:title="ExplanationResult">
<path fill="none" stroke="#a62139" d="M43.52,-169.5C47.78,-169.5 52.04,-169.5 56.3,-169.5"/>
<polygon fill="#a62139" stroke="#a62139" points="56.31,-171.25 61.31,-169.5 56.31,-167.75 56.31,-171.25"/>
</a>
</g>
</g>
<!-- pilot02_03_stac_1338697680&#45;&gt;pilot02_03_stac_1338717679 -->
<g id="edge40" class="edge">
<title>pilot02_03_stac_1338697680&#45;&gt;pilot02_03_stac_1338717679</title>
<g id="a_edge40"><a xlink:title="Elaboration">
<path fill="none" stroke="#a621c7" d="M63.98,-165.87C62.02,-160.93 57.53,-149.91 53,-141 50.63,-136.35 47.68,-131.29 45.29,-127.36"/>
<polygon fill="#a621c7" stroke="#a621c7" points="46.62,-126.18 42.5,-122.85 43.64,-128.02 46.62,-126.18"/>
</a>
</g>
</g>
<!-- pilot02_03_stac_1338747679&#45;&gt;pilot02_03_stac_1338757679 -->
<!-- pilot02_03_stac_1338747679&#45;&gt;pilot02_03_stac_1338747680 -->
<g id="edge44" class="edge">
<title>pilot02_03_stac_1338747679&#45;&gt;pilot02_03_stac_1338747680</title>
<g id="a_edge44"><a xlink:title="ExplanationResult">
<path fill="none" stroke="#a62139" d="M23.59,-69.5C34.8,-69.5 46,-69.5 57.21,-69.5"/>
<polygon fill="#a62139" stroke="#a62139" points="57.36,-71.25 62.36,-69.5 57.36,-67.75 57.36,-71.25"/>
</a>
</g>
</g>
</g>
</svg>
