<?xml version="1.0" encoding="UTF-8" standalone="no"?>
<!DOCTYPE svg PUBLIC "-//W3C//DTD SVG 1.1//EN"
 "http://www.w3.org/Graphics/SVG/1.1/DTD/svg11.dtd">
<!-- Generated by graphviz version 3.0.0 (20220226.1711)
 -->
<!-- Title: 1_s1_league3_game3_543 Pages: 1 -->
<svg width="93pt" height="520pt"
 viewBox="0.00 0.00 93.00 520.00" xmlns="http://www.w3.org/2000/svg" xmlns:xlink="http://www.w3.org/1999/xlink">
<g id="graph0" class="graph" transform="scale(1 1) rotate(0) translate(4 516)">
<title>1_s1_league3_game3_543</title>
<polygon fill="white" stroke="transparent" points="-4,4 -4,-516 89,-516 89,4 -4,4"/>
<g id="clust1" class="cluster">
<title>cluster_1_s1_league3_game3_543</title>
<polygon fill="none" stroke="black" points="8,-8 8,-504 77,-504 77,-8 8,-8"/>
<text text-anchor="middle" x="26.5" y="-488.8" font-family="Times,serif" font-size="14.00">543</text>
</g>
<!-- s1_league3_game3_01_stac_1463674458 -->
<g id="node1" class="node">
<title>s1_league3_game3_01_stac_1463674458</title>
<g id="a_node1"><a xlink:title="1 &#160;inca &#160;Hey">
<ellipse fill="black" stroke="black" cx="30" cy="-469.5" rx="3.5" ry="3.5"/>
</a>
</g>
</g>
<!-- 1_0 -->
<!-- s1_league3_game3_01_stac_1463674458&#45;&gt;1_0 -->
<!-- s1_league3_game3_01_stac_1463674461 -->
<g id="node3" class="node">
<title>s1_league3_game3_01_stac_1463674461</title>
<g id="a_node3"><a xlink:title="2 &#160;nareik15 &#160;hi">
<ellipse fill="black" stroke="black" cx="30" cy="-444.5" rx="3.5" ry="3.5"/>
</a>
</g>
</g>
<!-- s1_league3_game3_01_stac_1463674458&#45;&gt;s1_league3_game3_01_stac_1463674461 -->
<g id="edge23" class="edge">
<title>s1_league3_game3_01_stac_1463674458&#45;&gt;s1_league3_game3_01_stac_1463674461</title>
<g id="a_edge23"><a xlink:title="Acknowledgement">
<path fill="none" stroke="#12ffff" d="M30,-465.68C30,-462.58 30,-457.47 30,-453.16"/>
<polygon fill="#12ffff" stroke="#12ffff" points="31.75,-453.06 30,-448.06 28.25,-453.06 31.75,-453.06"/>
</a>
</g>
</g>
<!-- 2_0 -->
<!-- s1_league3_game3_01_stac_1463674461&#45;&gt;2_0 -->
<!-- s1_league3_game3_01_stac_1368708031 -->
<g id="node5" class="node">
<title>s1_league3_game3_01_stac_1368708031</title>
<g id="a_node5"><a xlink:title="3 &#160;Gaeilgeoir &#160;evening">
<ellipse fill="black" stroke="black" cx="20" cy="-419.5" rx="3.5" ry="3.5"/>
</a>
</g>
</g>
<!-- s1_league3_game3_01_stac_1463674461&#45;&gt;s1_league3_game3_01_stac_1368708031 -->
<g id="edge24" class="edge">
<title>s1_league3_game3_01_stac_1463674461&#45;&gt;s1_league3_game3_01_stac_1368708031</title>
<g id="a_edge24"><a xlink:title="Acknowledgement">
<path fill="none" stroke="#12ffff" d="M28.93,-441.04C27.54,-437.84 25.05,-432.12 23.06,-427.53"/>
<polygon fill="#12ffff" stroke="#12ffff" points="24.63,-426.76 21.03,-422.87 21.42,-428.16 24.63,-426.76"/>
</a>
</g>
</g>
<!-- s1_league3_game3_01_stac_1368708034 -->
<g id="node7" class="node">
<title>s1_league3_game3_01_stac_1368708034</title>
<g id="a_node7"><a xlink:title="4 &#160;inca &#160;Hey">
<ellipse fill="black" stroke="black" cx="30" cy="-394.5" rx="3.5" ry="3.5"/>
</a>
</g>
</g>
<!-- s1_league3_game3_01_stac_1463674461&#45;&gt;s1_league3_game3_01_stac_1368708034 -->
<g id="edge25" class="edge">
<title>s1_league3_game3_01_stac_1463674461&#45;&gt;s1_league3_game3_01_stac_1368708034</title>
<g id="a_edge25"><a xlink:title="Acknowledgement">
<path fill="none" stroke="#12ffff" d="M33.26,-442.3C41.92,-438.89 64.41,-428.64 58,-416 53.83,-407.77 44.63,-402.05 37.91,-398.78"/>
<polygon fill="#12ffff" stroke="#12ffff" points="38.29,-397.04 33.01,-396.61 36.88,-400.24 38.29,-397.04"/>
</a>
</g>
</g>
<!-- 3_0 -->
<!-- s1_league3_game3_01_stac_1368708031&#45;&gt;3_0 -->
<!-- s1_league3_game3_01_stac_1368708031&#45;&gt;s1_league3_game3_01_stac_1368708034 -->
<!-- 4_0 -->
<!-- s1_league3_game3_01_stac_1368708034&#45;&gt;4_0 -->
<!-- s1_league3_game3_01_stac_1368708037 -->
<g id="node9" class="node">
<title>s1_league3_game3_01_stac_1368708037</title>
<g id="a_node9"><a xlink:title="5 &#160;Gaeilgeoir &#160;How are you today?">
<ellipse fill="black" stroke="black" cx="30" cy="-369.5" rx="3.5" ry="3.5"/>
</a>
</g>
</g>
<!-- s1_league3_game3_01_stac_1368708034&#45;&gt;s1_league3_game3_01_stac_1368708037 -->
<g id="edge26" class="edge">
<title>s1_league3_game3_01_stac_1368708034&#45;&gt;s1_league3_game3_01_stac_1368708037</title>
<g id="a_edge26"><a xlink:title="Clarification_question">
<path fill="none" stroke="#ff40d1" d="M30,-390.68C30,-387.58 30,-382.47 30,-378.16"/>
<polygon fill="#ff40d1" stroke="#ff40d1" points="31.75,-378.06 30,-373.06 28.25,-378.06 31.75,-378.06"/>
</a>
</g>
</g>
<!-- 5_0 -->
<!-- s1_league3_game3_01_stac_1368708037&#45;&gt;5_0 -->
<!-- s1_league3_game3_01_stac_1368708040 -->
<g id="node11" class="node">
<title>s1_league3_game3_01_stac_1368708040</title>
<g id="a_node11"><a xlink:title="6 &#160;nareik15 &#160;hi">
<ellipse fill="black" stroke="black" cx="20" cy="-344.5" rx="3.5" ry="3.5"/>
</a>
</g>
</g>
<!-- s1_league3_game3_01_stac_1368708037&#45;&gt;s1_league3_game3_01_stac_1368708040 -->
<g id="edge27" class="edge">
<title>s1_league3_game3_01_stac_1368708037&#45;&gt;s1_league3_game3_01_stac_1368708040</title>
<g id="a_edge27"><a xlink:title="Acknowledgement">
<path fill="none" stroke="#12ffff" d="M28.93,-366.04C27.54,-362.84 25.05,-357.12 23.06,-352.53"/>
<polygon fill="#12ffff" stroke="#12ffff" points="24.63,-351.76 21.03,-347.87 21.42,-353.16 24.63,-351.76"/>
</a>
</g>
</g>
<!-- s1_league3_game3_01_stac_1368708043 -->
<g id="node37" class="node">
<title>s1_league3_game3_01_stac_1368708043</title>
<g id="a_node37"><a xlink:title="7 &#160;inca &#160;Not bad thanks,">
<ellipse fill="black" stroke="black" cx="30" cy="-319.5" rx="3.5" ry="3.5"/>
</a>
</g>
</g>
<!-- s1_league3_game3_01_stac_1368708037&#45;&gt;s1_league3_game3_01_stac_1368708043 -->
<g id="edge28" class="edge">
<title>s1_league3_game3_01_stac_1368708037&#45;&gt;s1_league3_game3_01_stac_1368708043</title>
<g id="a_edge28"><a xlink:title="Question_answer_pair">
<path fill="none" stroke="#12ffff" d="M33.26,-367.3C41.92,-363.89 64.41,-353.64 58,-341 53.83,-332.77 44.63,-327.05 37.91,-323.78"/>
<polygon fill="#12ffff" stroke="#12ffff" points="38.29,-322.04 33.01,-321.61 36.88,-325.24 38.29,-322.04"/>
</a>
</g>
</g>
<!-- 6_0 -->
<!-- s1_league3_game3_01_stac_1368708040&#45;&gt;6_0 -->
<!-- s1_league3_game3_01_stac_1368708040&#45;&gt;s1_league3_game3_01_stac_1368708043 -->
<!-- s1_league3_game3_01_stac_1368708047 -->
<g id="node13" class="node">
<title>s1_league3_game3_01_stac_1368708047</title>
<g id="a_node13"><a xlink:title="8 &#160;Gaeilgeoir &#160;Yeah, pretty good">
<ellipse fill="black" stroke="black" cx="20" cy="-294.5" rx="3.5" ry="3.5"/>
</a>
</g>
</g>
<!-- 8_0 -->
<!-- s1_league3_game3_01_stac_1368708047&#45;&gt;8_0 -->
<!-- s1_league3_game3_01_stac_1368708050 -->
<g id="node15" class="node">
<title>s1_league3_game3_01_stac_1368708050</title>
<g id="a_node15"><a xlink:title="9 &#160;Gaeilgeoir &#160;:)">
<ellipse fill="black" stroke="black" cx="20" cy="-269.5" rx="3.5" ry="3.5"/>
</a>
</g>
</g>
<!-- s1_league3_game3_01_stac_1368708047&#45;&gt;s1_league3_game3_01_stac_1368708050 -->
<g id="edge31" class="edge">
<title>s1_league3_game3_01_stac_1368708047&#45;&gt;s1_league3_game3_01_stac_1368708050</title>
<g id="a_edge31"><a xlink:title="Comment">
<path fill="none" stroke="#ff8200" d="M20,-290.68C20,-287.58 20,-282.47 20,-278.16"/>
<polygon fill="#ff8200" stroke="#ff8200" points="21.75,-278.06 20,-273.06 18.25,-278.06 21.75,-278.06"/>
</a>
</g>
</g>
<!-- 9_0 -->
<!-- s1_league3_game3_01_stac_1368708050&#45;&gt;9_0 -->
<!-- s1_league3_game3_01_stac_1368708053 -->
<g id="node17" class="node">
<title>s1_league3_game3_01_stac_1368708053</title>
<g id="a_node17"><a xlink:title="10 &#160;inca &#160;Getting a bit of a deja vu here...">
<ellipse fill="black" stroke="black" cx="30" cy="-244.5" rx="3.5" ry="3.5"/>
</a>
</g>
</g>
<!-- s1_league3_game3_01_stac_1368708050&#45;&gt;s1_league3_game3_01_stac_1368708053 -->
<!-- 10_0 -->
<!-- s1_league3_game3_01_stac_1368708053&#45;&gt;10_0 -->
<!-- s1_league3_game3_01_stac_1368708056 -->
<g id="node19" class="node">
<title>s1_league3_game3_01_stac_1368708056</title>
<g id="a_node19"><a xlink:title="11 &#160;Gaeilgeoir &#160;Yin we&#39;re waiting for, I suppose...">
<ellipse fill="black" stroke="black" cx="30" cy="-219.5" rx="3.5" ry="3.5"/>
</a>
</g>
</g>
<!-- s1_league3_game3_01_stac_1368708053&#45;&gt;s1_league3_game3_01_stac_1368708056 -->
<g id="edge33" class="edge">
<title>s1_league3_game3_01_stac_1368708053&#45;&gt;s1_league3_game3_01_stac_1368708056</title>
<g id="a_edge33"><a xlink:title="Comment">
<path fill="none" stroke="#ff8200" d="M30,-240.68C30,-237.58 30,-232.47 30,-228.16"/>
<polygon fill="#ff8200" stroke="#ff8200" points="31.75,-228.06 30,-223.06 28.25,-228.06 31.75,-228.06"/>
</a>
</g>
</g>
<!-- 11_0 -->
<!-- s1_league3_game3_01_stac_1368708056&#45;&gt;11_0 -->
<!-- s1_league3_game3_01_stac_1368708059 -->
<g id="node21" class="node">
<title>s1_league3_game3_01_stac_1368708059</title>
<g id="a_node21"><a xlink:title="12 &#160;inca &#160;Indeed">
<ellipse fill="black" stroke="black" cx="20" cy="-194.5" rx="3.5" ry="3.5"/>
</a>
</g>
</g>
<!-- s1_league3_game3_01_stac_1368708056&#45;&gt;s1_league3_game3_01_stac_1368708059 -->
<g id="edge34" class="edge">
<title>s1_league3_game3_01_stac_1368708056&#45;&gt;s1_league3_game3_01_stac_1368708059</title>
<g id="a_edge34"><a xlink:title="Acknowledgement">
<path fill="none" stroke="#12ffff" d="M28.93,-216.04C27.54,-212.84 25.05,-207.12 23.06,-202.53"/>
<polygon fill="#12ffff" stroke="#12ffff" points="24.63,-201.76 21.03,-197.87 21.42,-203.16 24.63,-201.76"/>
</a>
</g>
</g>
<!-- s1_league3_game3_01_stac_1368708065 -->
<g id="node25" class="node">
<title>s1_league3_game3_01_stac_1368708065</title>
<g id="a_node25"><a xlink:title="14 &#160;inca &#160;Ah he says he&#39;s coming">
<ellipse fill="black" stroke="black" cx="30" cy="-144.5" rx="3.5" ry="3.5"/>
</a>
</g>
</g>
<!-- s1_league3_game3_01_stac_1368708056&#45;&gt;s1_league3_game3_01_stac_1368708065 -->
<g id="edge36" class="edge">
<title>s1_league3_game3_01_stac_1368708056&#45;&gt;s1_league3_game3_01_stac_1368708065</title>
<g id="a_edge36"><a xlink:title="Acknowledgement">
<path fill="none" stroke="#12ffff" d="M33.01,-217.39C39.08,-214.95 52.66,-208.53 58,-198 64.43,-185.32 64.43,-178.68 58,-166 53.83,-157.77 44.63,-152.05 37.91,-148.78"/>
<polygon fill="#12ffff" stroke="#12ffff" points="38.29,-147.04 33.01,-146.61 36.88,-150.24 38.29,-147.04"/>
</a>
</g>
</g>
<!-- 12_0 -->
<!-- s1_league3_game3_01_stac_1368708059&#45;&gt;12_0 -->
<!-- s1_league3_game3_01_stac_1368708062 -->
<g id="node23" class="node">
<title>s1_league3_game3_01_stac_1368708062</title>
<g id="a_node23"><a xlink:title="13 &#160;Gaeilgeoir &#160;great minds, inca...">
<ellipse fill="black" stroke="black" cx="20" cy="-169.5" rx="3.5" ry="3.5"/>
</a>
</g>
</g>
<!-- s1_league3_game3_01_stac_1368708059&#45;&gt;s1_league3_game3_01_stac_1368708062 -->
<g id="edge35" class="edge">
<title>s1_league3_game3_01_stac_1368708059&#45;&gt;s1_league3_game3_01_stac_1368708062</title>
<g id="a_edge35"><a xlink:title="Comment">
<path fill="none" stroke="#ff8200" d="M20,-190.68C20,-187.58 20,-182.47 20,-178.16"/>
<polygon fill="#ff8200" stroke="#ff8200" points="21.75,-178.06 20,-173.06 18.25,-178.06 21.75,-178.06"/>
</a>
</g>
</g>
<!-- 13_0 -->
<!-- s1_league3_game3_01_stac_1368708062&#45;&gt;13_0 -->
<!-- s1_league3_game3_01_stac_1368708062&#45;&gt;s1_league3_game3_01_stac_1368708065 -->
<!-- 14_0 -->
<!-- s1_league3_game3_01_stac_1368708065&#45;&gt;14_0 -->
<!-- s1_league3_game3_01_stac_1368708068 -->
<g id="node27" class="node">
<title>s1_league3_game3_01_stac_1368708068</title>
<g id="a_node27"><a xlink:title="15 &#160;inca &#160;Hey">
<ellipse fill="black" stroke="black" cx="30" cy="-119.5" rx="3.5" ry="3.5"/>
</a>
</g>
</g>
<!-- s1_league3_game3_01_stac_1368708065&#45;&gt;s1_league3_game3_01_stac_1368708068 -->
<g id="edge37" class="edge">
<title>s1_league3_game3_01_stac_1368708065&#45;&gt;s1_league3_game3_01_stac_1368708068</title>
<g id="a_edge37"><a xlink:title="ParallNarrContinuationbackground">
<path fill="none" stroke="#0ab046" d="M30,-140.68C30,-137.58 30,-132.47 30,-128.16"/>
<polygon fill="#0ab046" stroke="#0ab046" points="31.75,-128.06 30,-123.06 28.25,-128.06 31.75,-128.06"/>
</a>
</g>
</g>
<!-- 15_0 -->
<!-- s1_league3_game3_01_stac_1368708068&#45;&gt;15_0 -->
<!-- s1_league3_game3_01_stac_1463674504 -->
<g id="node29" class="node">
<title>s1_league3_game3_01_stac_1463674504</title>
<g id="a_node29"><a xlink:title="16 &#160;yiin &#160;yes">
<ellipse fill="black" stroke="black" cx="30" cy="-94.5" rx="3.5" ry="3.5"/>
</a>
</g>
</g>
<!-- s1_league3_game3_01_stac_1368708068&#45;&gt;s1_league3_game3_01_stac_1463674504 -->
<g id="edge38" class="edge">
<title>s1_league3_game3_01_stac_1368708068&#45;&gt;s1_league3_game3_01_stac_1463674504</title>
<g id="a_edge38"><a xlink:title="Question_answer_pair">
<path fill="none" stroke="#12ffff" d="M30,-115.68C30,-112.58 30,-107.47 30,-103.16"/>
<polygon fill="#12ffff" stroke="#12ffff" points="31.75,-103.06 30,-98.06 28.25,-103.06 31.75,-103.06"/>
</a>
</g>
</g>
<!-- 16_0 -->
<!-- s1_league3_game3_01_stac_1463674504&#45;&gt;16_0 -->
<!-- s1_league3_game3_01_stac_1463674507 -->
<g id="node31" class="node">
<title>s1_league3_game3_01_stac_1463674507</title>
<g id="a_node31"><a xlink:title="17 &#160;yiin &#160;finally">
<ellipse fill="black" stroke="black" cx="30" cy="-69.5" rx="3.5" ry="3.5"/>
</a>
</g>
</g>
<!-- s1_league3_game3_01_stac_1463674504&#45;&gt;s1_league3_game3_01_stac_1463674507 -->
<g id="edge39" class="edge">
<title>s1_league3_game3_01_stac_1463674504&#45;&gt;s1_league3_game3_01_stac_1463674507</title>
<g id="a_edge39"><a xlink:title="Comment">
<path fill="none" stroke="#ff8200" d="M30,-90.68C30,-87.58 30,-82.47 30,-78.16"/>
<polygon fill="#ff8200" stroke="#ff8200" points="31.75,-78.06 30,-73.06 28.25,-78.06 31.75,-78.06"/>
</a>
</g>
</g>
<!-- 17_0 -->
<!-- s1_league3_game3_01_stac_1463674507&#45;&gt;17_0 -->
<!-- s1_league3_game3_01_stac_1368708071 -->
<g id="node33" class="node">
<title>s1_league3_game3_01_stac_1368708071</title>
<g id="a_node33"><a xlink:title="18 &#160;inca &#160;Good luck all">
<ellipse fill="black" stroke="black" cx="30" cy="-44.5" rx="3.5" ry="3.5"/>
</a>
</g>
</g>
<!-- s1_league3_game3_01_stac_1463674507&#45;&gt;s1_league3_game3_01_stac_1368708071 -->
<g id="edge40" class="edge">
<title>s1_league3_game3_01_stac_1463674507&#45;&gt;s1_league3_game3_01_stac_1368708071</title>
<g id="a_edge40"><a xlink:title="Acknowledgement">
<path fill="none" stroke="#12ffff" d="M30,-65.68C30,-62.58 30,-57.47 30,-53.16"/>
<polygon fill="#12ffff" stroke="#12ffff" points="31.75,-53.06 30,-48.06 28.25,-53.06 31.75,-53.06"/>
</a>
</g>
</g>
<!-- 18_0 -->
<!-- s1_league3_game3_01_stac_1368708071&#45;&gt;18_0 -->
<!-- s1_league3_game3_01_stac_1368708074 -->
<g id="node35" class="node">
<title>s1_league3_game3_01_stac_1368708074</title>
<g id="a_node35"><a xlink:title="19 &#160;Gaeilgeoir &#160;you too">
<ellipse fill="black" stroke="black" cx="30" cy="-19.5" rx="3.5" ry="3.5"/>
</a>
</g>
</g>
<!-- s1_league3_game3_01_stac_1368708071&#45;&gt;s1_league3_game3_01_stac_1368708074 -->
<g id="edge41" class="edge">
<title>s1_league3_game3_01_stac_1368708071&#45;&gt;s1_league3_game3_01_stac_1368708074</title>
<g id="a_edge41"><a xlink:title="ParallNarrContinuationbackground">
<path fill="none" stroke="#0ab046" d="M30,-40.68C30,-37.58 30,-32.47 30,-28.16"/>
<polygon fill="#0ab046" stroke="#0ab046" points="31.75,-28.06 30,-23.06 28.25,-28.06 31.75,-28.06"/>
</a>
</g>
</g>
<!-- 19_0 -->
<!-- s1_league3_game3_01_stac_1368708074&#45;&gt;19_0 -->
<!-- s1_league3_game3_01_stac_1368708043&#45;&gt;s1_league3_game3_01_stac_1368708047 -->
<g id="edge30" class="edge">
<title>s1_league3_game3_01_stac_1368708043&#45;&gt;s1_league3_game3_01_stac_1368708047</title>
<g id="a_edge30"><a xlink:title="Acknowledgement">
<path fill="none" stroke="#12ffff" d="M28.93,-316.04C27.54,-312.84 25.05,-307.12 23.06,-302.53"/>
<polygon fill="#12ffff" stroke="#12ffff" points="24.63,-301.76 21.03,-297.87 21.42,-303.16 24.63,-301.76"/>
</a>
</g>
</g>
<!-- s1_league3_game3_01_stac_1368708043&#45;&gt;s1_league3_game3_01_stac_1368708053 -->
<g id="edge32" class="edge">
<title>s1_league3_game3_01_stac_1368708043&#45;&gt;s1_league3_game3_01_stac_1368708053</title>
<g id="a_edge32"><a xlink:title="ParallNarrContinuationbackground">
<path fill="none" stroke="#0ab046" d="M33.01,-317.39C39.08,-314.95 52.66,-308.53 58,-298 64.43,-285.32 64.43,-278.68 58,-266 53.83,-257.77 44.63,-252.05 37.91,-248.78"/>
<polygon fill="#0ab046" stroke="#0ab046" points="38.29,-247.04 33.01,-246.61 36.88,-250.24 38.29,-247.04"/>
</a>
</g>
</g>
<!-- s1_league3_game3_01_stac_1368708044 -->
<g id="node38" class="node">
<title>s1_league3_game3_01_stac_1368708044</title>
<g id="a_node38"><a xlink:title="7 &#160;inca &#160;you?">
<ellipse fill="black" stroke="black" cx="55" cy="-319.5" rx="3.5" ry="3.5"/>
</a>
</g>
</g>
<!-- s1_league3_game3_01_stac_1368708043&#45;&gt;s1_league3_game3_01_stac_1368708044 -->
<g id="edge29" class="edge">
<title>s1_league3_game3_01_stac_1368708043&#45;&gt;s1_league3_game3_01_stac_1368708044</title>
<g id="a_edge29"><a xlink:title="ParallNarrContinuationbackground">
<path fill="none" stroke="#0ab046" d="M33.52,-319.5C37.78,-319.5 42.04,-319.5 46.3,-319.5"/>
<polygon fill="#0ab046" stroke="#0ab046" points="46.31,-321.25 51.31,-319.5 46.31,-317.75 46.31,-321.25"/>
</a>
</g>
</g>
</g>
</svg>
