<?xml version="1.0" encoding="UTF-8" standalone="no"?>
<!DOCTYPE svg PUBLIC "-//W3C//DTD SVG 1.1//EN"
 "http://www.w3.org/Graphics/SVG/1.1/DTD/svg11.dtd">
<!-- Generated by graphviz version 3.0.0 (20220226.1711)
 -->
<!-- Title: 4_s1_league3_game3_553 Pages: 1 -->
<svg width="73pt" height="220pt"
 viewBox="0.00 0.00 73.00 220.00" xmlns="http://www.w3.org/2000/svg" xmlns:xlink="http://www.w3.org/1999/xlink">
<g id="graph0" class="graph" transform="scale(1 1) rotate(0) translate(4 216)">
<title>4_s1_league3_game3_553</title>
<polygon fill="white" stroke="transparent" points="-4,4 -4,-216 69,-216 69,4 -4,4"/>
<g id="clust1" class="cluster">
<title>cluster_4_s1_league3_game3_553</title>
<polygon fill="none" stroke="black" points="8,-8 8,-204 57,-204 57,-8 8,-8"/>
<text text-anchor="middle" x="26.5" y="-188.8" font-family="Times,serif" font-size="14.00">553</text>
</g>
<!-- s1_league3_game3_04_stac_1368708059 -->
<g id="node1" class="node">
<title>s1_league3_game3_04_stac_1368708059</title>
<g id="a_node1"><a xlink:title="2 &#160;inca &#160;i&#39;ll trade sheep for wheat">
<ellipse fill="black" stroke="black" cx="20" cy="-144.5" rx="3.5" ry="3.5"/>
</a>
</g>
</g>
<!-- 2_0 -->
<!-- s1_league3_game3_04_stac_1368708059&#45;&gt;2_0 -->
<!-- s1_league3_game3_04_stac_1368708062 -->
<g id="node3" class="node">
<title>s1_league3_game3_04_stac_1368708062</title>
<g id="a_node3"><a xlink:title="3 &#160;nareik15 &#160;me too">
<ellipse fill="black" stroke="black" cx="20" cy="-119.5" rx="3.5" ry="3.5"/>
</a>
</g>
</g>
<!-- s1_league3_game3_04_stac_1368708059&#45;&gt;s1_league3_game3_04_stac_1368708062 -->
<g id="edge9" class="edge">
<title>s1_league3_game3_04_stac_1368708059&#45;&gt;s1_league3_game3_04_stac_1368708062</title>
<g id="a_edge9"><a xlink:title="ParallNarrContinuationbackground">
<path fill="none" stroke="#0ab046" d="M20,-140.68C20,-137.58 20,-132.47 20,-128.16"/>
<polygon fill="#0ab046" stroke="#0ab046" points="21.75,-128.06 20,-123.06 18.25,-128.06 21.75,-128.06"/>
</a>
</g>
</g>
<!-- 3_0 -->
<!-- s1_league3_game3_04_stac_1368708062&#45;&gt;3_0 -->
<!-- s1_league3_game3_04_stac_1368708065 -->
<g id="node5" class="node">
<title>s1_league3_game3_04_stac_1368708065</title>
<g id="a_node5"><a xlink:title="4 &#160;Gaeilgeoir &#160;deal">
<ellipse fill="black" stroke="black" cx="20" cy="-94.5" rx="3.5" ry="3.5"/>
</a>
</g>
</g>
<!-- s1_league3_game3_04_stac_1368708062&#45;&gt;s1_league3_game3_04_stac_1368708065 -->
<g id="edge10" class="edge">
<title>s1_league3_game3_04_stac_1368708062&#45;&gt;s1_league3_game3_04_stac_1368708065</title>
<g id="a_edge10"><a xlink:title="Acknowledgement">
<path fill="none" stroke="#12ffff" d="M20,-115.68C20,-112.58 20,-107.47 20,-103.16"/>
<polygon fill="#12ffff" stroke="#12ffff" points="21.75,-103.06 20,-98.06 18.25,-103.06 21.75,-103.06"/>
</a>
</g>
</g>
<!-- 4_0 -->
<!-- s1_league3_game3_04_stac_1368708065&#45;&gt;4_0 -->
<!-- s1_league3_game3_04_stac_1368708068 -->
<g id="node7" class="node">
<title>s1_league3_game3_04_stac_1368708068</title>
<g id="a_node7"><a xlink:title="5 &#160;nareik15 &#160;...">
<ellipse fill="black" stroke="black" cx="20" cy="-69.5" rx="3.5" ry="3.5"/>
</a>
</g>
</g>
<!-- s1_league3_game3_04_stac_1368708065&#45;&gt;s1_league3_game3_04_stac_1368708068 -->
<g id="edge11" class="edge">
<title>s1_league3_game3_04_stac_1368708065&#45;&gt;s1_league3_game3_04_stac_1368708068</title>
<g id="a_edge11"><a xlink:title="Comment">
<path fill="none" stroke="#ff8200" d="M20,-90.68C20,-87.58 20,-82.47 20,-78.16"/>
<polygon fill="#ff8200" stroke="#ff8200" points="21.75,-78.06 20,-73.06 18.25,-78.06 21.75,-78.06"/>
</a>
</g>
</g>
<!-- 5_0 -->
<!-- s1_league3_game3_04_stac_1368708068&#45;&gt;5_0 -->
<!-- s1_league3_game3_04_stac_1368708071 -->
<g id="node9" class="node">
<title>s1_league3_game3_04_stac_1368708071</title>
<g id="a_node9"><a xlink:title="6 &#160;Gaeilgeoir &#160;sorry!">
<ellipse fill="black" stroke="black" cx="20" cy="-44.5" rx="3.5" ry="3.5"/>
</a>
</g>
</g>
<!-- s1_league3_game3_04_stac_1368708068&#45;&gt;s1_league3_game3_04_stac_1368708071 -->
<g id="edge12" class="edge">
<title>s1_league3_game3_04_stac_1368708068&#45;&gt;s1_league3_game3_04_stac_1368708071</title>
<g id="a_edge12"><a xlink:title="Comment">
<path fill="none" stroke="#ff8200" d="M20,-65.68C20,-62.58 20,-57.47 20,-53.16"/>
<polygon fill="#ff8200" stroke="#ff8200" points="21.75,-53.06 20,-48.06 18.25,-53.06 21.75,-53.06"/>
</a>
</g>
</g>
<!-- 6_0 -->
<!-- s1_league3_game3_04_stac_1368708071&#45;&gt;6_0 -->
<!-- s1_league3_game3_04_stac_1368708074 -->
<g id="node11" class="node">
<title>s1_league3_game3_04_stac_1368708074</title>
<g id="a_node11"><a xlink:title="7 &#160;nareik15 &#160;:)">
<ellipse fill="black" stroke="black" cx="20" cy="-19.5" rx="3.5" ry="3.5"/>
</a>
</g>
</g>
<!-- s1_league3_game3_04_stac_1368708071&#45;&gt;s1_league3_game3_04_stac_1368708074 -->
<g id="edge13" class="edge">
<title>s1_league3_game3_04_stac_1368708071&#45;&gt;s1_league3_game3_04_stac_1368708074</title>
<g id="a_edge13"><a xlink:title="Comment">
<path fill="none" stroke="#ff8200" d="M20,-40.68C20,-37.58 20,-32.47 20,-28.16"/>
<polygon fill="#ff8200" stroke="#ff8200" points="21.75,-28.06 20,-23.06 18.25,-28.06 21.75,-28.06"/>
</a>
</g>
</g>
<!-- 7_0 -->
<!-- s1_league3_game3_04_stac_1368708074&#45;&gt;7_0 -->
<!-- s1_league3_game3_04_stac_1368708055 -->
<g id="node13" class="node">
<title>s1_league3_game3_04_stac_1368708055</title>
<g id="a_node13"><a xlink:title="1 &#160;Gaeilgeoir &#160;anyone have clay or sheep?">
<ellipse fill="black" stroke="black" cx="20" cy="-169.5" rx="3.5" ry="3.5"/>
</a>
</g>
</g>
<!-- s1_league3_game3_04_stac_1368708055&#45;&gt;s1_league3_game3_04_stac_1368708059 -->
<g id="edge8" class="edge">
<title>s1_league3_game3_04_stac_1368708055&#45;&gt;s1_league3_game3_04_stac_1368708059</title>
<g id="a_edge8"><a xlink:title="Question_answer_pair">
<path fill="none" stroke="#12ffff" d="M20,-165.68C20,-162.58 20,-157.47 20,-153.16"/>
<polygon fill="#12ffff" stroke="#12ffff" points="21.75,-153.06 20,-148.06 18.25,-153.06 21.75,-153.06"/>
</a>
</g>
</g>
<!-- s1_league3_game3_04_stac_1368708056 -->
<g id="node14" class="node">
<title>s1_league3_game3_04_stac_1368708056</title>
<g id="a_node14"><a xlink:title="1 &#160;Gaeilgeoir &#160;I can give wheat.">
<ellipse fill="black" stroke="black" cx="45" cy="-169.5" rx="3.5" ry="3.5"/>
</a>
</g>
</g>
<!-- s1_league3_game3_04_stac_1368708055&#45;&gt;s1_league3_game3_04_stac_1368708056 -->
<g id="edge7" class="edge">
<title>s1_league3_game3_04_stac_1368708055&#45;&gt;s1_league3_game3_04_stac_1368708056</title>
<g id="a_edge7"><a xlink:title="Elaboration">
<path fill="none" stroke="#a621c7" d="M23.52,-169.5C27.78,-169.5 32.04,-169.5 36.3,-169.5"/>
<polygon fill="#a621c7" stroke="#a621c7" points="36.31,-171.25 41.31,-169.5 36.31,-167.75 36.31,-171.25"/>
</a>
</g>
</g>
</g>
</svg>
