<?xml version="1.0" encoding="UTF-8" standalone="no"?>
<!DOCTYPE svg PUBLIC "-//W3C//DTD SVG 1.1//EN"
 "http://www.w3.org/Graphics/SVG/1.1/DTD/svg11.dtd">
<!-- Generated by graphviz version 3.0.0 (20220226.1711)
 -->
<!-- Title: 5_s1_league3_game3_554 Pages: 1 -->
<svg width="154pt" height="195pt"
 viewBox="0.00 0.00 154.00 195.00" xmlns="http://www.w3.org/2000/svg" xmlns:xlink="http://www.w3.org/1999/xlink">
<g id="graph0" class="graph" transform="scale(1 1) rotate(0) translate(4 191)">
<title>5_s1_league3_game3_554</title>
<polygon fill="white" stroke="transparent" points="-4,4 -4,-191 150,-191 150,4 -4,4"/>
<g id="clust1" class="cluster">
<title>cluster_5_s1_league3_game3_554</title>
<polygon fill="none" stroke="black" points="8,-8 8,-179 138,-179 138,-8 8,-8"/>
<text text-anchor="middle" x="26.5" y="-163.8" font-family="Times,serif" font-size="14.00">554</text>
</g>
<!-- s1_league3_game3_05_stac_1368708031 -->
<g id="node1" class="node">
<title>s1_league3_game3_05_stac_1368708031</title>
<g id="a_node1"><a xlink:title="1 &#160;Gaeilgeoir &#160;anyone have clay? :)">
<ellipse fill="black" stroke="black" cx="60" cy="-144.5" rx="3.5" ry="3.5"/>
</a>
</g>
</g>
<!-- 1_0 -->
<!-- s1_league3_game3_05_stac_1368708031&#45;&gt;1_0 -->
<!-- s1_league3_game3_05_stac_1368708034 -->
<g id="node3" class="node">
<title>s1_league3_game3_05_stac_1368708034</title>
<g id="a_node3"><a xlink:title="2 &#160;Gaeilgeoir &#160;I have wheat and wood">
<ellipse fill="black" stroke="black" cx="60" cy="-119.5" rx="3.5" ry="3.5"/>
</a>
</g>
</g>
<!-- s1_league3_game3_05_stac_1368708031&#45;&gt;s1_league3_game3_05_stac_1368708034 -->
<g id="edge9" class="edge">
<title>s1_league3_game3_05_stac_1368708031&#45;&gt;s1_league3_game3_05_stac_1368708034</title>
<g id="a_edge9"><a xlink:title="Elaboration">
<path fill="none" stroke="#a621c7" d="M60,-140.68C60,-137.58 60,-132.47 60,-128.16"/>
<polygon fill="#a621c7" stroke="#a621c7" points="61.75,-128.06 60,-123.06 58.25,-128.06 61.75,-128.06"/>
</a>
</g>
</g>
<!-- s1_league3_game3_05_stac_1368708037 -->
<g id="node5" class="node">
<title>s1_league3_game3_05_stac_1368708037</title>
<g id="a_node5"><a xlink:title="3 &#160;yiin &#160;no sorry">
<ellipse fill="black" stroke="black" cx="60" cy="-94.5" rx="3.5" ry="3.5"/>
</a>
</g>
</g>
<!-- s1_league3_game3_05_stac_1368708031&#45;&gt;s1_league3_game3_05_stac_1368708037 -->
<g id="edge10" class="edge">
<title>s1_league3_game3_05_stac_1368708031&#45;&gt;s1_league3_game3_05_stac_1368708037</title>
<g id="a_edge10"><a xlink:title="Question_answer_pair">
<path fill="none" stroke="#12ffff" d="M61.99,-141.31C65.07,-137.78 70.84,-130.45 73,-123 75.3,-115.08 69.95,-106.58 65.43,-101.16"/>
<polygon fill="#12ffff" stroke="#12ffff" points="66.68,-99.93 62.02,-97.42 64.09,-102.29 66.68,-99.93"/>
</a>
</g>
</g>
<!-- s1_league3_game3_05_stac_1368708044 -->
<g id="node7" class="node">
<title>s1_league3_game3_05_stac_1368708044</title>
<g id="a_node7"><a xlink:title="5 &#160;nareik15 &#160;nope,">
<ellipse fill="black" stroke="black" cx="29" cy="-44.5" rx="3.5" ry="3.5"/>
</a>
</g>
</g>
<!-- s1_league3_game3_05_stac_1368708031&#45;&gt;s1_league3_game3_05_stac_1368708044 -->
<g id="edge13" class="edge">
<title>s1_league3_game3_05_stac_1368708031&#45;&gt;s1_league3_game3_05_stac_1368708044</title>
<g id="a_edge13"><a xlink:title="Question_answer_pair">
<path fill="none" stroke="#12ffff" d="M57.67,-141.63C53.74,-138.33 45.82,-131.04 42,-123 30.73,-99.28 29.06,-67.41 28.92,-53.06"/>
<polygon fill="#12ffff" stroke="#12ffff" points="30.67,-53.06 28.94,-48.06 27.17,-53.05 30.67,-53.06"/>
</a>
</g>
</g>
<!-- s1_league3_game3_05_stac_1368708045 -->
<g id="node8" class="node">
<title>s1_league3_game3_05_stac_1368708045</title>
<g id="a_node8"><a xlink:title="5 &#160;nareik15 &#160;no clay">
<ellipse fill="black" stroke="black" cx="75" cy="-44.5" rx="3.5" ry="3.5"/>
</a>
</g>
</g>
<!-- s1_league3_game3_05_stac_1368708031&#45;&gt;s1_league3_game3_05_stac_1368708045 -->
<g id="edge14" class="edge">
<title>s1_league3_game3_05_stac_1368708031&#45;&gt;s1_league3_game3_05_stac_1368708045</title>
<g id="a_edge14"><a xlink:title="Question_answer_pair">
<path fill="none" stroke="#12ffff" d="M63.37,-142.85C74.88,-140.58 112.21,-132.54 119,-123 137.37,-97.18 98.18,-63.07 81.78,-50.46"/>
<polygon fill="#12ffff" stroke="#12ffff" points="82.56,-48.86 77.51,-47.27 80.46,-51.66 82.56,-48.86"/>
</a>
</g>
</g>
<!-- s1_league3_game3_05_stac_1368708040 -->
<g id="node11" class="node">
<title>s1_league3_game3_05_stac_1368708040</title>
<g id="a_node11"><a xlink:title="4 &#160;inca &#160;not any more,">
<ellipse fill="black" stroke="black" cx="51" cy="-69.5" rx="3.5" ry="3.5"/>
</a>
</g>
</g>
<!-- s1_league3_game3_05_stac_1368708031&#45;&gt;s1_league3_game3_05_stac_1368708040 -->
<g id="edge11" class="edge">
<title>s1_league3_game3_05_stac_1368708031&#45;&gt;s1_league3_game3_05_stac_1368708040</title>
<g id="a_edge11"><a xlink:title="Question_answer_pair">
<path fill="none" stroke="#12ffff" d="M58.16,-141.29C55.32,-137.71 49.99,-130.32 48,-123 43.77,-107.38 46.83,-88.23 49.12,-77.92"/>
<polygon fill="#12ffff" stroke="#12ffff" points="50.84,-78.24 50.32,-72.96 47.44,-77.41 50.84,-78.24"/>
</a>
</g>
</g>
<!-- 2_0 -->
<!-- s1_league3_game3_05_stac_1368708034&#45;&gt;2_0 -->
<!-- s1_league3_game3_05_stac_1368708034&#45;&gt;s1_league3_game3_05_stac_1368708037 -->
<!-- 3_0 -->
<!-- s1_league3_game3_05_stac_1368708037&#45;&gt;3_0 -->
<!-- s1_league3_game3_05_stac_1368708037&#45;&gt;s1_league3_game3_05_stac_1368708040 -->
<!-- s1_league3_game3_05_stac_1368708044&#45;&gt;s1_league3_game3_05_stac_1368708045 -->
<!-- s1_league3_game3_05_stac_1368708048 -->
<g id="node9" class="node">
<title>s1_league3_game3_05_stac_1368708048</title>
<g id="a_node9"><a xlink:title="6 &#160;Gaeilgeoir &#160;oh well">
<ellipse fill="black" stroke="black" cx="52" cy="-19.5" rx="3.5" ry="3.5"/>
</a>
</g>
</g>
<!-- s1_league3_game3_05_stac_1368708044&#45;&gt;s1_league3_game3_05_stac_1368708048 -->
<g id="edge16" class="edge">
<title>s1_league3_game3_05_stac_1368708044&#45;&gt;s1_league3_game3_05_stac_1368708048</title>
<g id="a_edge16"><a xlink:title="Acknowledgement">
<path fill="none" stroke="#12ffff" d="M31.12,-41.38C34.46,-38.04 41.05,-31.45 45.94,-26.56"/>
<polygon fill="#12ffff" stroke="#12ffff" points="47.24,-27.73 49.54,-22.96 44.77,-25.26 47.24,-27.73"/>
</a>
</g>
</g>
<!-- s1_league3_game3_05_stac_1368708045&#45;&gt;s1_league3_game3_05_stac_1368708048 -->
<g id="edge17" class="edge">
<title>s1_league3_game3_05_stac_1368708045&#45;&gt;s1_league3_game3_05_stac_1368708048</title>
<g id="a_edge17"><a xlink:title="Acknowledgement">
<path fill="none" stroke="#12ffff" d="M72.88,-41.38C69.54,-38.04 62.95,-31.45 58.06,-26.56"/>
<polygon fill="#12ffff" stroke="#12ffff" points="59.23,-25.26 54.46,-22.96 56.76,-27.73 59.23,-25.26"/>
</a>
</g>
</g>
<!-- 6_0 -->
<!-- s1_league3_game3_05_stac_1368708048&#45;&gt;6_0 -->
<!-- s1_league3_game3_05_stac_1368708040&#45;&gt;s1_league3_game3_05_stac_1368708044 -->
<!-- s1_league3_game3_05_stac_1368708040&#45;&gt;s1_league3_game3_05_stac_1368708048 -->
<g id="edge15" class="edge">
<title>s1_league3_game3_05_stac_1368708040&#45;&gt;s1_league3_game3_05_stac_1368708048</title>
<g id="a_edge15"><a xlink:title="Acknowledgement">
<path fill="none" stroke="#12ffff" d="M51.05,-65.92C51.2,-58.95 51.6,-39.55 51.83,-28.49"/>
<polygon fill="#12ffff" stroke="#12ffff" points="53.59,-28.37 51.94,-23.33 50.09,-28.29 53.59,-28.37"/>
</a>
</g>
</g>
<!-- s1_league3_game3_05_stac_1368708041 -->
<g id="node12" class="node">
<title>s1_league3_game3_05_stac_1368708041</title>
<g id="a_node12"><a xlink:title="4 &#160;inca &#160;sorry">
<ellipse fill="black" stroke="black" cx="76" cy="-69.5" rx="3.5" ry="3.5"/>
</a>
</g>
</g>
<!-- s1_league3_game3_05_stac_1368708040&#45;&gt;s1_league3_game3_05_stac_1368708041 -->
<g id="edge12" class="edge">
<title>s1_league3_game3_05_stac_1368708040&#45;&gt;s1_league3_game3_05_stac_1368708041</title>
<g id="a_edge12"><a xlink:title="Comment">
<path fill="none" stroke="#ff8200" d="M54.52,-69.5C58.78,-69.5 63.04,-69.5 67.3,-69.5"/>
<polygon fill="#ff8200" stroke="#ff8200" points="67.31,-71.25 72.31,-69.5 67.31,-67.75 67.31,-71.25"/>
</a>
</g>
</g>
</g>
</svg>
