<?xml version="1.0" encoding="UTF-8" standalone="no"?>
<!DOCTYPE svg PUBLIC "-//W3C//DTD SVG 1.1//EN"
 "http://www.w3.org/Graphics/SVG/1.1/DTD/svg11.dtd">
<!-- Generated by graphviz version 3.0.0 (20220226.1711)
 -->
<!-- Title: 5_s1_league3_game3_555 Pages: 1 -->
<svg width="134pt" height="495pt"
 viewBox="0.00 0.00 134.00 495.00" xmlns="http://www.w3.org/2000/svg" xmlns:xlink="http://www.w3.org/1999/xlink">
<g id="graph0" class="graph" transform="scale(1 1) rotate(0) translate(4 491)">
<title>5_s1_league3_game3_555</title>
<polygon fill="white" stroke="transparent" points="-4,4 -4,-491 130,-491 130,4 -4,4"/>
<g id="clust1" class="cluster">
<title>cluster_5_s1_league3_game3_555</title>
<polygon fill="none" stroke="black" points="8,-8 8,-479 118,-479 118,-8 8,-8"/>
<text text-anchor="middle" x="26.5" y="-463.8" font-family="Times,serif" font-size="14.00">555</text>
</g>
<!-- s1_league3_game3_05_stac_1368708052 -->
<g id="node1" class="node">
<title>s1_league3_game3_05_stac_1368708052</title>
<g id="a_node1"><a xlink:title="1 &#160;yiin &#160;if only someone can roll a 3">
<ellipse fill="black" stroke="black" cx="53" cy="-444.5" rx="3.5" ry="3.5"/>
</a>
</g>
</g>
<!-- 1_0 -->
<!-- s1_league3_game3_05_stac_1368708052&#45;&gt;1_0 -->
<!-- s1_league3_game3_05_stac_1368708055 -->
<g id="node3" class="node">
<title>s1_league3_game3_05_stac_1368708055</title>
<g id="a_node3"><a xlink:title="2 &#160;Gaeilgeoir &#160;so true">
<ellipse fill="black" stroke="black" cx="20" cy="-419.5" rx="3.5" ry="3.5"/>
</a>
</g>
</g>
<!-- s1_league3_game3_05_stac_1368708052&#45;&gt;s1_league3_game3_05_stac_1368708055 -->
<g id="edge24" class="edge">
<title>s1_league3_game3_05_stac_1368708052&#45;&gt;s1_league3_game3_05_stac_1368708055</title>
<g id="a_edge24"><a xlink:title="Acknowledgement">
<path fill="none" stroke="#12ffff" d="M50.41,-441.7C45.37,-438.18 34.11,-430.33 26.8,-425.24"/>
<polygon fill="#12ffff" stroke="#12ffff" points="27.59,-423.66 22.49,-422.23 25.59,-426.53 27.59,-423.66"/>
</a>
</g>
</g>
<!-- s1_league3_game3_05_stac_1368708059 -->
<g id="node5" class="node">
<title>s1_league3_game3_05_stac_1368708059</title>
<g id="a_node5"><a xlink:title="3 &#160;yiin &#160;oop">
<ellipse fill="black" stroke="black" cx="20" cy="-394.5" rx="3.5" ry="3.5"/>
</a>
</g>
</g>
<!-- s1_league3_game3_05_stac_1368708052&#45;&gt;s1_league3_game3_05_stac_1368708059 -->
<g id="edge25" class="edge">
<title>s1_league3_game3_05_stac_1368708052&#45;&gt;s1_league3_game3_05_stac_1368708059</title>
<g id="a_edge25"><a xlink:title="Comment">
<path fill="none" stroke="#ff8200" d="M51.41,-441.18C46.59,-434.17 32.01,-412.96 24.53,-402.09"/>
<polygon fill="#ff8200" stroke="#ff8200" points="25.93,-401.03 21.65,-397.9 23.04,-403.02 25.93,-401.03"/>
</a>
</g>
</g>
<!-- s1_league3_game3_05_stac_1368708062 -->
<g id="node7" class="node">
<title>s1_league3_game3_05_stac_1368708062</title>
<g id="a_node7"><a xlink:title="4 &#160;Gaeilgeoir &#160;I&#39;ve made that mistake numerous times. :P">
<ellipse fill="black" stroke="black" cx="40" cy="-369.5" rx="3.5" ry="3.5"/>
</a>
</g>
</g>
<!-- s1_league3_game3_05_stac_1368708052&#45;&gt;s1_league3_game3_05_stac_1368708062 -->
<g id="edge26" class="edge">
<title>s1_league3_game3_05_stac_1368708052&#45;&gt;s1_league3_game3_05_stac_1368708062</title>
<g id="a_edge26"><a xlink:title="Comment">
<path fill="none" stroke="#ff8200" d="M54,-440.99C56.92,-433.25 64.84,-409.16 58,-391 55.69,-384.88 50.64,-379.4 46.47,-375.65"/>
<polygon fill="#ff8200" stroke="#ff8200" points="47.43,-374.17 42.47,-372.31 45.19,-376.85 47.43,-374.17"/>
</a>
</g>
</g>
<!-- s1_league3_game3_05_stac_1368708066 -->
<g id="node9" class="node">
<title>s1_league3_game3_05_stac_1368708066</title>
<g id="a_node9"><a xlink:title="5 &#160;nareik15 &#160;i&#39;m guessing nobody has any clay?">
<ellipse fill="black" stroke="black" cx="54" cy="-344.5" rx="3.5" ry="3.5"/>
</a>
</g>
</g>
<!-- s1_league3_game3_05_stac_1368708052&#45;&gt;s1_league3_game3_05_stac_1368708066 -->
<g id="edge27" class="edge">
<title>s1_league3_game3_05_stac_1368708052&#45;&gt;s1_league3_game3_05_stac_1368708066</title>
<g id="a_edge27"><a xlink:title="Clarification_question">
<path fill="none" stroke="#ff40d1" d="M54.46,-441.18C56.76,-437.47 61.22,-429.89 64,-423 72.62,-401.59 74.86,-395.86 78,-373 78.42,-369.92 79.3,-368.83 78,-366 74.63,-358.68 67.21,-353.01 61.51,-349.51"/>
<polygon fill="#ff40d1" stroke="#ff40d1" points="62.14,-347.85 56.92,-346.91 60.42,-350.9 62.14,-347.85"/>
</a>
</g>
</g>
<!-- 2_0 -->
<!-- s1_league3_game3_05_stac_1368708055&#45;&gt;2_0 -->
<!-- s1_league3_game3_05_stac_1368708055&#45;&gt;s1_league3_game3_05_stac_1368708059 -->
<!-- 3_0 -->
<!-- s1_league3_game3_05_stac_1368708059&#45;&gt;3_0 -->
<!-- s1_league3_game3_05_stac_1368708059&#45;&gt;s1_league3_game3_05_stac_1368708062 -->
<!-- 4_0 -->
<!-- s1_league3_game3_05_stac_1368708062&#45;&gt;4_0 -->
<!-- s1_league3_game3_05_stac_1368708062&#45;&gt;s1_league3_game3_05_stac_1368708066 -->
<!-- 5_0 -->
<!-- s1_league3_game3_05_stac_1368708066&#45;&gt;5_0 -->
<!-- s1_league3_game3_05_stac_1368708069 -->
<g id="node11" class="node">
<title>s1_league3_game3_05_stac_1368708069</title>
<g id="a_node11"><a xlink:title="6 &#160;Gaeilgeoir &#160;Not me anyway">
<ellipse fill="black" stroke="black" cx="31" cy="-319.5" rx="3.5" ry="3.5"/>
</a>
</g>
</g>
<!-- s1_league3_game3_05_stac_1368708066&#45;&gt;s1_league3_game3_05_stac_1368708069 -->
<g id="edge28" class="edge">
<title>s1_league3_game3_05_stac_1368708066&#45;&gt;s1_league3_game3_05_stac_1368708069</title>
<g id="a_edge28"><a xlink:title="Question_answer_pair">
<path fill="none" stroke="#12ffff" d="M51.88,-341.38C48.54,-338.04 41.95,-331.45 37.06,-326.56"/>
<polygon fill="#12ffff" stroke="#12ffff" points="38.23,-325.26 33.46,-322.96 35.76,-327.73 38.23,-325.26"/>
</a>
</g>
</g>
<!-- s1_league3_game3_05_stac_1368708073 -->
<g id="node14" class="node">
<title>s1_league3_game3_05_stac_1368708073</title>
<g id="a_node14"><a xlink:title="7 &#160;inca &#160;nope">
<ellipse fill="black" stroke="black" cx="52" cy="-294.5" rx="3.5" ry="3.5"/>
</a>
</g>
</g>
<!-- s1_league3_game3_05_stac_1368708066&#45;&gt;s1_league3_game3_05_stac_1368708073 -->
<g id="edge30" class="edge">
<title>s1_league3_game3_05_stac_1368708066&#45;&gt;s1_league3_game3_05_stac_1368708073</title>
<g id="a_edge30"><a xlink:title="Question_answer_pair">
<path fill="none" stroke="#12ffff" d="M53.89,-340.92C53.6,-333.95 52.79,-314.55 52.33,-303.49"/>
<polygon fill="#12ffff" stroke="#12ffff" points="54.07,-303.26 52.12,-298.33 50.58,-303.4 54.07,-303.26"/>
</a>
</g>
</g>
<!-- s1_league3_game3_05_stac_1368708076 -->
<g id="node15" class="node">
<title>s1_league3_game3_05_stac_1368708076</title>
<g id="a_node15"><a xlink:title="8 &#160;yiin &#160;i think this is the problem with the game">
<ellipse fill="black" stroke="black" cx="61" cy="-269.5" rx="3.5" ry="3.5"/>
</a>
</g>
</g>
<!-- s1_league3_game3_05_stac_1368708066&#45;&gt;s1_league3_game3_05_stac_1368708076 -->
<g id="edge31" class="edge">
<title>s1_league3_game3_05_stac_1368708066&#45;&gt;s1_league3_game3_05_stac_1368708076</title>
<g id="a_edge31"><a xlink:title="Question_answer_pair">
<path fill="none" stroke="#12ffff" d="M55.03,-341.12C58.11,-333.76 66.9,-310.65 65,-291 64.59,-286.74 63.7,-282.04 62.87,-278.22"/>
<polygon fill="#12ffff" stroke="#12ffff" points="64.52,-277.6 61.68,-273.13 61.12,-278.4 64.52,-277.6"/>
</a>
</g>
</g>
<!-- 6_0 -->
<!-- s1_league3_game3_05_stac_1368708069&#45;&gt;6_0 -->
<!-- s1_league3_game3_05_stac_1368708072 -->
<g id="node13" class="node">
<title>s1_league3_game3_05_stac_1368708072</title>
<g id="a_node13"><a xlink:title="7 &#160;inca &#160;sorry,">
<ellipse fill="black" stroke="black" cx="27" cy="-294.5" rx="3.5" ry="3.5"/>
</a>
</g>
</g>
<!-- s1_league3_game3_05_stac_1368708069&#45;&gt;s1_league3_game3_05_stac_1368708072 -->
<g id="edge29" class="edge">
<title>s1_league3_game3_05_stac_1368708069&#45;&gt;s1_league3_game3_05_stac_1368708072</title>
<g id="a_edge29"><a xlink:title="Acknowledgement">
<path fill="none" stroke="#12ffff" d="M30.51,-315.68C29.97,-312.58 29.08,-307.47 28.33,-303.16"/>
<polygon fill="#12ffff" stroke="#12ffff" points="30.03,-302.69 27.45,-298.06 26.58,-303.29 30.03,-302.69"/>
</a>
</g>
</g>
<!-- s1_league3_game3_05_stac_1368708072&#45;&gt;s1_league3_game3_05_stac_1368708073 -->
<!-- s1_league3_game3_05_stac_1368708072&#45;&gt;s1_league3_game3_05_stac_1368708076 -->
<!-- 8_0 -->
<!-- s1_league3_game3_05_stac_1368708076&#45;&gt;8_0 -->
<!-- s1_league3_game3_05_stac_1368708080 -->
<g id="node17" class="node">
<title>s1_league3_game3_05_stac_1368708080</title>
<g id="a_node17"><a xlink:title="9 &#160;Gaeilgeoir &#160;why can&#39;t a 3 be rolled?? :(">
<ellipse fill="black" stroke="black" cx="61" cy="-244.5" rx="3.5" ry="3.5"/>
</a>
</g>
</g>
<!-- s1_league3_game3_05_stac_1368708076&#45;&gt;s1_league3_game3_05_stac_1368708080 -->
<g id="edge32" class="edge">
<title>s1_league3_game3_05_stac_1368708076&#45;&gt;s1_league3_game3_05_stac_1368708080</title>
<g id="a_edge32"><a xlink:title="Clarification_question">
<path fill="none" stroke="#ff40d1" d="M61,-265.68C61,-262.58 61,-257.47 61,-253.16"/>
<polygon fill="#ff40d1" stroke="#ff40d1" points="62.75,-253.06 61,-248.06 59.25,-253.06 62.75,-253.06"/>
</a>
</g>
</g>
<!-- 9_0 -->
<!-- s1_league3_game3_05_stac_1368708080&#45;&gt;9_0 -->
<!-- s1_league3_game3_05_stac_1368708084 -->
<g id="node31" class="node">
<title>s1_league3_game3_05_stac_1368708084</title>
<g id="a_node31"><a xlink:title="10 &#160;inca &#160;anyone got sheep?">
<ellipse fill="black" stroke="black" cx="61" cy="-219.5" rx="3.5" ry="3.5"/>
</a>
</g>
</g>
<!-- s1_league3_game3_05_stac_1368708080&#45;&gt;s1_league3_game3_05_stac_1368708084 -->
<g id="edge33" class="edge">
<title>s1_league3_game3_05_stac_1368708080&#45;&gt;s1_league3_game3_05_stac_1368708084</title>
<g id="a_edge33"><a xlink:title="ParallNarrContinuationbackground">
<path fill="none" stroke="#0ab046" d="M61,-240.68C61,-237.58 61,-232.47 61,-228.16"/>
<polygon fill="#0ab046" stroke="#0ab046" points="62.75,-228.06 61,-223.06 59.25,-228.06 62.75,-228.06"/>
</a>
</g>
</g>
<!-- s1_league3_game3_05_stac_1368708092 -->
<g id="node19" class="node">
<title>s1_league3_game3_05_stac_1368708092</title>
<g id="a_node19"><a xlink:title="12 &#160;nareik15 &#160;sorry">
<ellipse fill="black" stroke="black" cx="50" cy="-169.5" rx="3.5" ry="3.5"/>
</a>
</g>
</g>
<!-- 12_0 -->
<!-- s1_league3_game3_05_stac_1368708092&#45;&gt;12_0 -->
<!-- s1_league3_game3_05_stac_1368708096 -->
<g id="node21" class="node">
<title>s1_league3_game3_05_stac_1368708096</title>
<g id="a_node21"><a xlink:title="13 &#160;yiin &#160;i got one">
<ellipse fill="black" stroke="black" cx="55" cy="-144.5" rx="3.5" ry="3.5"/>
</a>
</g>
</g>
<!-- s1_league3_game3_05_stac_1368708092&#45;&gt;s1_league3_game3_05_stac_1368708096 -->
<!-- 13_0 -->
<!-- s1_league3_game3_05_stac_1368708096&#45;&gt;13_0 -->
<!-- s1_league3_game3_05_stac_1368708099 -->
<g id="node23" class="node">
<title>s1_league3_game3_05_stac_1368708099</title>
<g id="a_node23"><a xlink:title="14 &#160;yiin &#160;i can give you">
<ellipse fill="black" stroke="black" cx="55" cy="-119.5" rx="3.5" ry="3.5"/>
</a>
</g>
</g>
<!-- s1_league3_game3_05_stac_1368708096&#45;&gt;s1_league3_game3_05_stac_1368708099 -->
<g id="edge40" class="edge">
<title>s1_league3_game3_05_stac_1368708096&#45;&gt;s1_league3_game3_05_stac_1368708099</title>
<g id="a_edge40"><a xlink:title="Elaboration">
<path fill="none" stroke="#a621c7" d="M55,-140.68C55,-137.58 55,-132.47 55,-128.16"/>
<polygon fill="#a621c7" stroke="#a621c7" points="56.75,-128.06 55,-123.06 53.25,-128.06 56.75,-128.06"/>
</a>
</g>
</g>
<!-- 14_0 -->
<!-- s1_league3_game3_05_stac_1368708099&#45;&gt;14_0 -->
<!-- s1_league3_game3_05_stac_1368708102 -->
<g id="node25" class="node">
<title>s1_league3_game3_05_stac_1368708102</title>
<g id="a_node25"><a xlink:title="15 &#160;yiin &#160;but i need wheat">
<ellipse fill="black" stroke="black" cx="44" cy="-94.5" rx="3.5" ry="3.5"/>
</a>
</g>
</g>
<!-- s1_league3_game3_05_stac_1368708099&#45;&gt;s1_league3_game3_05_stac_1368708102 -->
<g id="edge41" class="edge">
<title>s1_league3_game3_05_stac_1368708099&#45;&gt;s1_league3_game3_05_stac_1368708102</title>
<g id="a_edge41"><a xlink:title="ContrastCorrection">
<path fill="none" stroke="#ff7ecf" d="M53.82,-116.04C52.29,-112.84 49.56,-107.12 47.36,-102.53"/>
<polygon fill="#ff7ecf" stroke="#ff7ecf" points="48.87,-101.63 45.14,-97.87 45.71,-103.14 48.87,-101.63"/>
</a>
</g>
</g>
<!-- s1_league3_game3_05_stac_1368708105 -->
<g id="node35" class="node">
<title>s1_league3_game3_05_stac_1368708105</title>
<g id="a_node35"><a xlink:title="16 &#160;inca &#160;too late now,">
<ellipse fill="black" stroke="black" cx="55" cy="-69.5" rx="3.5" ry="3.5"/>
</a>
</g>
</g>
<!-- s1_league3_game3_05_stac_1368708099&#45;&gt;s1_league3_game3_05_stac_1368708105 -->
<g id="edge42" class="edge">
<title>s1_league3_game3_05_stac_1368708099&#45;&gt;s1_league3_game3_05_stac_1368708105</title>
<g id="a_edge42"><a xlink:title="Comment">
<path fill="none" stroke="#ff8200" d="M55.4,-115.92C56.1,-111.06 57.45,-100.18 57,-91 56.79,-86.78 56.35,-82.09 55.94,-78.26"/>
<polygon fill="#ff8200" stroke="#ff8200" points="57.66,-77.91 55.34,-73.15 54.18,-78.32 57.66,-77.91"/>
</a>
</g>
</g>
<!-- 15_0 -->
<!-- s1_league3_game3_05_stac_1368708102&#45;&gt;15_0 -->
<!-- s1_league3_game3_05_stac_1368708102&#45;&gt;s1_league3_game3_05_stac_1368708105 -->
<!-- s1_league3_game3_05_stac_1368708110 -->
<g id="node27" class="node">
<title>s1_league3_game3_05_stac_1368708110</title>
<g id="a_node27"><a xlink:title="17 &#160;yiin &#160;finally">
<ellipse fill="black" stroke="black" cx="62" cy="-44.5" rx="3.5" ry="3.5"/>
</a>
</g>
</g>
<!-- 17_0 -->
<!-- s1_league3_game3_05_stac_1368708110&#45;&gt;17_0 -->
<!-- s1_league3_game3_05_stac_1368708113 -->
<g id="node29" class="node">
<title>s1_league3_game3_05_stac_1368708113</title>
<g id="a_node29"><a xlink:title="18 &#160;Gaeilgeoir &#160;haha">
<ellipse fill="black" stroke="black" cx="62" cy="-19.5" rx="3.5" ry="3.5"/>
</a>
</g>
</g>
<!-- s1_league3_game3_05_stac_1368708110&#45;&gt;s1_league3_game3_05_stac_1368708113 -->
<g id="edge45" class="edge">
<title>s1_league3_game3_05_stac_1368708110&#45;&gt;s1_league3_game3_05_stac_1368708113</title>
<g id="a_edge45"><a xlink:title="Comment">
<path fill="none" stroke="#ff8200" d="M62,-40.68C62,-37.58 62,-32.47 62,-28.16"/>
<polygon fill="#ff8200" stroke="#ff8200" points="63.75,-28.06 62,-23.06 60.25,-28.06 63.75,-28.06"/>
</a>
</g>
</g>
<!-- 18_0 -->
<!-- s1_league3_game3_05_stac_1368708113&#45;&gt;18_0 -->
<!-- s1_league3_game3_05_stac_1368708084&#45;&gt;s1_league3_game3_05_stac_1368708092 -->
<g id="edge38" class="edge">
<title>s1_league3_game3_05_stac_1368708084&#45;&gt;s1_league3_game3_05_stac_1368708092</title>
<g id="a_edge38"><a xlink:title="Question_answer_pair">
<path fill="none" stroke="#12ffff" d="M58.19,-217.05C53.04,-214.22 42.2,-207.37 38,-198 34.67,-190.57 39.88,-181.97 44.44,-176.39"/>
<polygon fill="#12ffff" stroke="#12ffff" points="45.88,-177.4 47.92,-172.51 43.28,-175.06 45.88,-177.4"/>
</a>
</g>
</g>
<!-- s1_league3_game3_05_stac_1368708084&#45;&gt;s1_league3_game3_05_stac_1368708096 -->
<g id="edge39" class="edge">
<title>s1_league3_game3_05_stac_1368708084&#45;&gt;s1_league3_game3_05_stac_1368708096</title>
<g id="a_edge39"><a xlink:title="Question_answer_pair">
<path fill="none" stroke="#12ffff" d="M61.55,-215.62C63,-207.65 66.51,-184.64 63,-166 62.13,-161.36 60.23,-156.42 58.5,-152.55"/>
<polygon fill="#12ffff" stroke="#12ffff" points="59.97,-151.57 56.23,-147.81 56.82,-153.08 59.97,-151.57"/>
</a>
</g>
</g>
<!-- s1_league3_game3_05_stac_1368708085 -->
<g id="node32" class="node">
<title>s1_league3_game3_05_stac_1368708085</title>
<g id="a_node32"><a xlink:title="10 &#160;inca &#160;I can give anything but clay">
<ellipse fill="black" stroke="black" cx="86" cy="-219.5" rx="3.5" ry="3.5"/>
</a>
</g>
</g>
<!-- s1_league3_game3_05_stac_1368708084&#45;&gt;s1_league3_game3_05_stac_1368708085 -->
<g id="edge34" class="edge">
<title>s1_league3_game3_05_stac_1368708084&#45;&gt;s1_league3_game3_05_stac_1368708085</title>
<g id="a_edge34"><a xlink:title="Elaboration">
<path fill="none" stroke="#a621c7" d="M64.52,-219.5C68.78,-219.5 73.04,-219.5 77.3,-219.5"/>
<polygon fill="#a621c7" stroke="#a621c7" points="77.31,-221.25 82.31,-219.5 77.31,-217.75 77.31,-221.25"/>
</a>
</g>
</g>
<!-- s1_league3_game3_05_stac_1368708088 -->
<g id="node33" class="node">
<title>s1_league3_game3_05_stac_1368708088</title>
<g id="a_node33"><a xlink:title="11 &#160;Gaeilgeoir &#160;sorry,">
<ellipse fill="black" stroke="black" cx="50" cy="-194.5" rx="3.5" ry="3.5"/>
</a>
</g>
</g>
<!-- s1_league3_game3_05_stac_1368708084&#45;&gt;s1_league3_game3_05_stac_1368708088 -->
<g id="edge35" class="edge">
<title>s1_league3_game3_05_stac_1368708084&#45;&gt;s1_league3_game3_05_stac_1368708088</title>
<g id="a_edge35"><a xlink:title="Question_answer_pair">
<path fill="none" stroke="#12ffff" d="M59.82,-216.04C58.29,-212.84 55.56,-207.12 53.36,-202.53"/>
<polygon fill="#12ffff" stroke="#12ffff" points="54.87,-201.63 51.14,-197.87 51.71,-203.14 54.87,-201.63"/>
</a>
</g>
</g>
<!-- s1_league3_game3_05_stac_1368708089 -->
<g id="node34" class="node">
<title>s1_league3_game3_05_stac_1368708089</title>
<g id="a_node34"><a xlink:title="11 &#160;Gaeilgeoir &#160;I don&#39;t.">
<ellipse fill="black" stroke="black" cx="96" cy="-194.5" rx="3.5" ry="3.5"/>
</a>
</g>
</g>
<!-- s1_league3_game3_05_stac_1368708084&#45;&gt;s1_league3_game3_05_stac_1368708089 -->
<g id="edge36" class="edge">
<title>s1_league3_game3_05_stac_1368708084&#45;&gt;s1_league3_game3_05_stac_1368708089</title>
<g id="a_edge36"><a xlink:title="Question_answer_pair">
<path fill="none" stroke="#12ffff" d="M63.75,-216.7C69.09,-213.18 81.03,-205.33 88.79,-200.24"/>
<polygon fill="#12ffff" stroke="#12ffff" points="90.14,-201.44 93.36,-197.23 88.22,-198.52 90.14,-201.44"/>
</a>
</g>
</g>
<!-- s1_league3_game3_05_stac_1368708088&#45;&gt;s1_league3_game3_05_stac_1368708092 -->
<!-- s1_league3_game3_05_stac_1368708088&#45;&gt;s1_league3_game3_05_stac_1368708089 -->
<g id="edge37" class="edge">
<title>s1_league3_game3_05_stac_1368708088&#45;&gt;s1_league3_game3_05_stac_1368708089</title>
<g id="a_edge37"><a xlink:title="ExplanationResult">
<path fill="none" stroke="#a62139" d="M53.59,-194.5C64.8,-194.5 76,-194.5 87.21,-194.5"/>
<polygon fill="#a62139" stroke="#a62139" points="87.36,-196.25 92.36,-194.5 87.36,-192.75 87.36,-196.25"/>
</a>
</g>
</g>
<!-- s1_league3_game3_05_stac_1368708105&#45;&gt;s1_league3_game3_05_stac_1368708110 -->
<!-- s1_league3_game3_05_stac_1368708106 -->
<g id="node36" class="node">
<title>s1_league3_game3_05_stac_1368708106</title>
<g id="a_node36"><a xlink:title="16 &#160;inca &#160;cheers anyway">
<ellipse fill="black" stroke="black" cx="80" cy="-69.5" rx="3.5" ry="3.5"/>
</a>
</g>
</g>
<!-- s1_league3_game3_05_stac_1368708105&#45;&gt;s1_league3_game3_05_stac_1368708106 -->
<g id="edge43" class="edge">
<title>s1_league3_game3_05_stac_1368708105&#45;&gt;s1_league3_game3_05_stac_1368708106</title>
<g id="a_edge43"><a xlink:title="ParallNarrContinuationbackground">
<path fill="none" stroke="#0ab046" d="M58.52,-69.5C62.78,-69.5 67.04,-69.5 71.3,-69.5"/>
<polygon fill="#0ab046" stroke="#0ab046" points="71.31,-71.25 76.31,-69.5 71.31,-67.75 71.31,-71.25"/>
</a>
</g>
</g>
<!-- s1_league3_game3_05_stac_1368708106&#45;&gt;s1_league3_game3_05_stac_1368708110 -->
<g id="edge44" class="edge">
<title>s1_league3_game3_05_stac_1368708106&#45;&gt;s1_league3_game3_05_stac_1368708110</title>
<g id="a_edge44"><a xlink:title="Acknowledgement">
<path fill="none" stroke="#12ffff" d="M78.34,-66.38C75.83,-63.17 70.98,-56.97 67.21,-52.15"/>
<polygon fill="#12ffff" stroke="#12ffff" points="68.39,-50.82 63.93,-47.96 65.63,-52.98 68.39,-50.82"/>
</a>
</g>
</g>
</g>
</svg>
