<?xml version="1.0" encoding="UTF-8" standalone="no"?>
<!DOCTYPE svg PUBLIC "-//W3C//DTD SVG 1.1//EN"
 "http://www.w3.org/Graphics/SVG/1.1/DTD/svg11.dtd">
<!-- Generated by graphviz version 3.0.0 (20220226.1711)
 -->
<!-- Title: 6_s1_league3_game3_558 Pages: 1 -->
<svg width="113pt" height="145pt"
 viewBox="0.00 0.00 113.00 145.00" xmlns="http://www.w3.org/2000/svg" xmlns:xlink="http://www.w3.org/1999/xlink">
<g id="graph0" class="graph" transform="scale(1 1) rotate(0) translate(4 141)">
<title>6_s1_league3_game3_558</title>
<polygon fill="white" stroke="transparent" points="-4,4 -4,-141 109,-141 109,4 -4,4"/>
<g id="clust1" class="cluster">
<title>cluster_6_s1_league3_game3_558</title>
<polygon fill="none" stroke="black" points="8,-8 8,-129 97,-129 97,-8 8,-8"/>
<text text-anchor="middle" x="26.5" y="-113.8" font-family="Times,serif" font-size="14.00">558</text>
</g>
<!-- s1_league3_game3_06_stac_1368708035 -->
<g id="node1" class="node">
<title>s1_league3_game3_06_stac_1368708035</title>
<g id="a_node1"><a xlink:title="2 &#160;inca &#160;nope, sorry">
<ellipse fill="black" stroke="black" cx="20" cy="-69.5" rx="3.5" ry="3.5"/>
</a>
</g>
</g>
<!-- 2_0 -->
<!-- s1_league3_game3_06_stac_1368708035&#45;&gt;2_0 -->
<!-- s1_league3_game3_06_stac_1368708038 -->
<g id="node5" class="node">
<title>s1_league3_game3_06_stac_1368708038</title>
<g id="a_node5"><a xlink:title="3 &#160;yiin &#160;yes">
<ellipse fill="black" stroke="black" cx="60" cy="-44.5" rx="3.5" ry="3.5"/>
</a>
</g>
</g>
<!-- s1_league3_game3_06_stac_1368708035&#45;&gt;s1_league3_game3_06_stac_1368708038 -->
<!-- s1_league3_game3_06_stac_1368708031 -->
<g id="node3" class="node">
<title>s1_league3_game3_06_stac_1368708031</title>
<g id="a_node3"><a xlink:title="1 &#160;Gaeilgeoir &#160;anyone have sheep?">
<ellipse fill="black" stroke="black" cx="60" cy="-94.5" rx="3.5" ry="3.5"/>
</a>
</g>
</g>
<!-- s1_league3_game3_06_stac_1368708031&#45;&gt;s1_league3_game3_06_stac_1368708035 -->
<g id="edge4" class="edge">
<title>s1_league3_game3_06_stac_1368708031&#45;&gt;s1_league3_game3_06_stac_1368708035</title>
<g id="a_edge4"><a xlink:title="Question_answer_pair">
<path fill="none" stroke="#12ffff" d="M57.38,-91.99C51.33,-88.52 36.26,-79.85 27.21,-74.64"/>
<polygon fill="#12ffff" stroke="#12ffff" points="27.89,-73.02 22.69,-72.04 26.15,-76.05 27.89,-73.02"/>
</a>
</g>
</g>
<!-- s1_league3_game3_06_stac_1368708032 -->
<g id="node4" class="node">
<title>s1_league3_game3_06_stac_1368708032</title>
<g id="a_node4"><a xlink:title="1 &#160;Gaeilgeoir &#160;I have wood and ore.">
<ellipse fill="black" stroke="black" cx="85" cy="-94.5" rx="3.5" ry="3.5"/>
</a>
</g>
</g>
<!-- s1_league3_game3_06_stac_1368708031&#45;&gt;s1_league3_game3_06_stac_1368708032 -->
<g id="edge3" class="edge">
<title>s1_league3_game3_06_stac_1368708031&#45;&gt;s1_league3_game3_06_stac_1368708032</title>
<g id="a_edge3"><a xlink:title="Elaboration">
<path fill="none" stroke="#a621c7" d="M63.52,-94.5C67.78,-94.5 72.04,-94.5 76.3,-94.5"/>
<polygon fill="#a621c7" stroke="#a621c7" points="76.31,-96.25 81.31,-94.5 76.31,-92.75 76.31,-96.25"/>
</a>
</g>
</g>
<!-- s1_league3_game3_06_stac_1368708031&#45;&gt;s1_league3_game3_06_stac_1368708038 -->
<g id="edge5" class="edge">
<title>s1_league3_game3_06_stac_1368708031&#45;&gt;s1_league3_game3_06_stac_1368708038</title>
<g id="a_edge5"><a xlink:title="Question_answer_pair">
<path fill="none" stroke="#12ffff" d="M60,-90.92C60,-83.95 60,-64.55 60,-53.49"/>
<polygon fill="#12ffff" stroke="#12ffff" points="61.75,-53.33 60,-48.33 58.25,-53.33 61.75,-53.33"/>
</a>
</g>
</g>
<!-- s1_league3_game3_06_stac_1368708039 -->
<g id="node6" class="node">
<title>s1_league3_game3_06_stac_1368708039</title>
<g id="a_node6"><a xlink:title="3 &#160;yiin &#160;i have lot of sheeps">
<ellipse fill="black" stroke="black" cx="85" cy="-44.5" rx="3.5" ry="3.5"/>
</a>
</g>
</g>
<!-- s1_league3_game3_06_stac_1368708031&#45;&gt;s1_league3_game3_06_stac_1368708039 -->
<g id="edge6" class="edge">
<title>s1_league3_game3_06_stac_1368708031&#45;&gt;s1_league3_game3_06_stac_1368708039</title>
<g id="a_edge6"><a xlink:title="Question_answer_pair">
<path fill="none" stroke="#12ffff" d="M61.21,-91.18C64.83,-84.23 75.71,-63.34 81.42,-52.38"/>
<polygon fill="#12ffff" stroke="#12ffff" points="82.99,-53.15 83.75,-47.9 79.89,-51.53 82.99,-53.15"/>
</a>
</g>
</g>
<!-- s1_league3_game3_06_stac_1368708038&#45;&gt;s1_league3_game3_06_stac_1368708039 -->
<g id="edge7" class="edge">
<title>s1_league3_game3_06_stac_1368708038&#45;&gt;s1_league3_game3_06_stac_1368708039</title>
<g id="a_edge7"><a xlink:title="Elaboration">
<path fill="none" stroke="#a621c7" d="M63.52,-44.5C67.78,-44.5 72.04,-44.5 76.3,-44.5"/>
<polygon fill="#a621c7" stroke="#a621c7" points="76.31,-46.25 81.31,-44.5 76.31,-42.75 76.31,-46.25"/>
</a>
</g>
</g>
<!-- s1_league3_game3_06_stac_1368708042 -->
<g id="node7" class="node">
<title>s1_league3_game3_06_stac_1368708042</title>
<g id="a_node7"><a xlink:title="4 &#160;nareik15 &#160;yeah">
<ellipse fill="black" stroke="black" cx="60" cy="-19.5" rx="3.5" ry="3.5"/>
</a>
</g>
</g>
<!-- s1_league3_game3_06_stac_1368708038&#45;&gt;s1_league3_game3_06_stac_1368708042 -->
<g id="edge8" class="edge">
<title>s1_league3_game3_06_stac_1368708038&#45;&gt;s1_league3_game3_06_stac_1368708042</title>
<g id="a_edge8"><a xlink:title="Acknowledgement">
<path fill="none" stroke="#12ffff" d="M60,-40.68C60,-37.58 60,-32.47 60,-28.16"/>
<polygon fill="#12ffff" stroke="#12ffff" points="61.75,-28.06 60,-23.06 58.25,-28.06 61.75,-28.06"/>
</a>
</g>
</g>
<!-- s1_league3_game3_06_stac_1368708043 -->
<g id="node8" class="node">
<title>s1_league3_game3_06_stac_1368708043</title>
<g id="a_node8"><a xlink:title="4 &#160;nareik15 &#160;can do that">
<ellipse fill="black" stroke="black" cx="85" cy="-19.5" rx="3.5" ry="3.5"/>
</a>
</g>
</g>
<!-- s1_league3_game3_06_stac_1368708042&#45;&gt;s1_league3_game3_06_stac_1368708043 -->
<g id="edge9" class="edge">
<title>s1_league3_game3_06_stac_1368708042&#45;&gt;s1_league3_game3_06_stac_1368708043</title>
<g id="a_edge9"><a xlink:title="Elaboration">
<path fill="none" stroke="#a621c7" d="M63.52,-19.5C67.78,-19.5 72.04,-19.5 76.3,-19.5"/>
<polygon fill="#a621c7" stroke="#a621c7" points="76.31,-21.25 81.31,-19.5 76.31,-17.75 76.31,-21.25"/>
</a>
</g>
</g>
</g>
</svg>
