<?xml version="1.0" encoding="UTF-8" standalone="no"?>
<!DOCTYPE svg PUBLIC "-//W3C//DTD SVG 1.1//EN"
 "http://www.w3.org/Graphics/SVG/1.1/DTD/svg11.dtd">
<!-- Generated by graphviz version 3.0.0 (20220226.1711)
 -->
<!-- Title: 6_s1_league3_game3_559 Pages: 1 -->
<svg width="133pt" height="320pt"
 viewBox="0.00 0.00 133.00 320.00" xmlns="http://www.w3.org/2000/svg" xmlns:xlink="http://www.w3.org/1999/xlink">
<g id="graph0" class="graph" transform="scale(1 1) rotate(0) translate(4 316)">
<title>6_s1_league3_game3_559</title>
<polygon fill="white" stroke="transparent" points="-4,4 -4,-316 129,-316 129,4 -4,4"/>
<g id="clust1" class="cluster">
<title>cluster_6_s1_league3_game3_559</title>
<polygon fill="none" stroke="black" points="8,-8 8,-304 117,-304 117,-8 8,-8"/>
<text text-anchor="middle" x="26.5" y="-288.8" font-family="Times,serif" font-size="14.00">559</text>
</g>
<!-- s1_league3_game3_06_stac_1368708047 -->
<g id="node1" class="node">
<title>s1_league3_game3_06_stac_1368708047</title>
<g id="a_node1"><a xlink:title="1 &#160;Gaeilgeoir &#160;ADDTIME">
<ellipse fill="black" stroke="black" cx="74" cy="-269.5" rx="3.5" ry="3.5"/>
</a>
</g>
</g>
<!-- 1_0 -->
<!-- s1_league3_game3_06_stac_1368708047&#45;&gt;1_0 -->
<!-- s1_league3_game3_06_stac_1490530466 -->
<g id="node3" class="node">
<title>s1_league3_game3_06_stac_1490530466</title>
<g id="a_node3"><a xlink:title="2 &#160;inca &#160;hallelujah">
<ellipse fill="black" stroke="black" cx="74" cy="-244.5" rx="3.5" ry="3.5"/>
</a>
</g>
</g>
<!-- s1_league3_game3_06_stac_1368708047&#45;&gt;s1_league3_game3_06_stac_1490530466 -->
<g id="edge13" class="edge">
<title>s1_league3_game3_06_stac_1368708047&#45;&gt;s1_league3_game3_06_stac_1490530466</title>
<g id="a_edge13"><a xlink:title="Comment">
<path fill="none" stroke="#ff8200" d="M74,-265.68C74,-262.58 74,-257.47 74,-253.16"/>
<polygon fill="#ff8200" stroke="#ff8200" points="75.75,-253.06 74,-248.06 72.25,-253.06 75.75,-253.06"/>
</a>
</g>
</g>
<!-- 2_0 -->
<!-- s1_league3_game3_06_stac_1490530466&#45;&gt;2_0 -->
<!-- s1_league3_game3_06_stac_1490530469 -->
<g id="node5" class="node">
<title>s1_league3_game3_06_stac_1490530469</title>
<g id="a_node5"><a xlink:title="3 &#160;nareik15 &#160;hehe">
<ellipse fill="black" stroke="black" cx="74" cy="-219.5" rx="3.5" ry="3.5"/>
</a>
</g>
</g>
<!-- s1_league3_game3_06_stac_1490530466&#45;&gt;s1_league3_game3_06_stac_1490530469 -->
<g id="edge14" class="edge">
<title>s1_league3_game3_06_stac_1490530466&#45;&gt;s1_league3_game3_06_stac_1490530469</title>
<g id="a_edge14"><a xlink:title="Comment">
<path fill="none" stroke="#ff8200" d="M74,-240.68C74,-237.58 74,-232.47 74,-228.16"/>
<polygon fill="#ff8200" stroke="#ff8200" points="75.75,-228.06 74,-223.06 72.25,-228.06 75.75,-228.06"/>
</a>
</g>
</g>
<!-- 3_0 -->
<!-- s1_league3_game3_06_stac_1490530469&#45;&gt;3_0 -->
<!-- s1_league3_game3_06_stac_1490530472 -->
<g id="node7" class="node">
<title>s1_league3_game3_06_stac_1490530472</title>
<g id="a_node7"><a xlink:title="4 &#160;nareik15 &#160;anyone got some ore to trade?">
<ellipse fill="black" stroke="black" cx="74" cy="-194.5" rx="3.5" ry="3.5"/>
</a>
</g>
</g>
<!-- s1_league3_game3_06_stac_1490530469&#45;&gt;s1_league3_game3_06_stac_1490530472 -->
<g id="edge15" class="edge">
<title>s1_league3_game3_06_stac_1490530469&#45;&gt;s1_league3_game3_06_stac_1490530472</title>
<g id="a_edge15"><a xlink:title="ParallNarrContinuationbackground">
<path fill="none" stroke="#0ab046" d="M74,-215.68C74,-212.58 74,-207.47 74,-203.16"/>
<polygon fill="#0ab046" stroke="#0ab046" points="75.75,-203.06 74,-198.06 72.25,-203.06 75.75,-203.06"/>
</a>
</g>
</g>
<!-- 4_0 -->
<!-- s1_league3_game3_06_stac_1490530472&#45;&gt;4_0 -->
<!-- s1_league3_game3_06_stac_1490530475 -->
<g id="node9" class="node">
<title>s1_league3_game3_06_stac_1490530475</title>
<g id="a_node9"><a xlink:title="5 &#160;inca &#160;sorry, nope">
<ellipse fill="black" stroke="black" cx="20" cy="-169.5" rx="3.5" ry="3.5"/>
</a>
</g>
</g>
<!-- s1_league3_game3_06_stac_1490530472&#45;&gt;s1_league3_game3_06_stac_1490530475 -->
<g id="edge16" class="edge">
<title>s1_league3_game3_06_stac_1490530472&#45;&gt;s1_league3_game3_06_stac_1490530475</title>
<g id="a_edge16"><a xlink:title="Question_answer_pair">
<path fill="none" stroke="#12ffff" d="M71.1,-192.26C62.97,-188.8 39.77,-178.92 27.63,-173.75"/>
<polygon fill="#12ffff" stroke="#12ffff" points="28.2,-172.09 22.92,-171.74 26.83,-175.31 28.2,-172.09"/>
</a>
</g>
</g>
<!-- s1_league3_game3_06_stac_1490530478 -->
<g id="node11" class="node">
<title>s1_league3_game3_06_stac_1490530478</title>
<g id="a_node11"><a xlink:title="6 &#160;yiin &#160;yes i have...">
<ellipse fill="black" stroke="black" cx="45" cy="-144.5" rx="3.5" ry="3.5"/>
</a>
</g>
</g>
<!-- s1_league3_game3_06_stac_1490530472&#45;&gt;s1_league3_game3_06_stac_1490530478 -->
<g id="edge17" class="edge">
<title>s1_league3_game3_06_stac_1490530472&#45;&gt;s1_league3_game3_06_stac_1490530478</title>
<g id="a_edge17"><a xlink:title="Question_answer_pair">
<path fill="none" stroke="#12ffff" d="M72.7,-191.2C70.01,-186.46 63.62,-175.25 58,-166 55.17,-161.34 51.88,-156.15 49.32,-152.16"/>
<polygon fill="#12ffff" stroke="#12ffff" points="50.73,-151.13 46.55,-147.88 47.79,-153.03 50.73,-151.13"/>
</a>
</g>
</g>
<!-- s1_league3_game3_06_stac_1490530479 -->
<g id="node12" class="node">
<title>s1_league3_game3_06_stac_1490530479</title>
<g id="a_node12"><a xlink:title="6 &#160;yiin &#160;you got clay??">
<ellipse fill="black" stroke="black" cx="75" cy="-144.5" rx="3.5" ry="3.5"/>
</a>
</g>
</g>
<!-- s1_league3_game3_06_stac_1490530472&#45;&gt;s1_league3_game3_06_stac_1490530479 -->
<g id="edge18" class="edge">
<title>s1_league3_game3_06_stac_1490530472&#45;&gt;s1_league3_game3_06_stac_1490530479</title>
<g id="a_edge18"><a xlink:title="Q_Elab">
<path fill="none" stroke="#0d20ff" d="M74.05,-190.92C74.2,-183.95 74.6,-164.55 74.83,-153.49"/>
<polygon fill="#0d20ff" stroke="#0d20ff" points="76.59,-153.37 74.94,-148.33 73.09,-153.29 76.59,-153.37"/>
</a>
</g>
</g>
<!-- s1_league3_game3_06_stac_1490530493 -->
<g id="node15" class="node">
<title>s1_league3_game3_06_stac_1490530493</title>
<g id="a_node15"><a xlink:title="10 &#160;nareik15 &#160;Gaeilgeoir, feel like trading that ore?">
<ellipse fill="black" stroke="black" cx="70" cy="-44.5" rx="3.5" ry="3.5"/>
</a>
</g>
</g>
<!-- s1_league3_game3_06_stac_1490530472&#45;&gt;s1_league3_game3_06_stac_1490530493 -->
<g id="edge24" class="edge">
<title>s1_league3_game3_06_stac_1490530472&#45;&gt;s1_league3_game3_06_stac_1490530493</title>
<g id="a_edge24"><a xlink:title="ParallNarrContinuationbackground">
<path fill="none" stroke="#0ab046" d="M76.67,-191.65C84.68,-185.86 108,-167.15 108,-145.5 108,-145.5 108,-145.5 108,-93.5 108,-80.49 105.81,-76.4 98,-66 92.46,-58.62 83.53,-52.74 77.25,-49.2"/>
<polygon fill="#0ab046" stroke="#0ab046" points="77.96,-47.59 72.73,-46.79 76.32,-50.68 77.96,-47.59"/>
</a>
</g>
</g>
<!-- 5_0 -->
<!-- s1_league3_game3_06_stac_1490530475&#45;&gt;5_0 -->
<!-- s1_league3_game3_06_stac_1490530475&#45;&gt;s1_league3_game3_06_stac_1490530478 -->
<!-- s1_league3_game3_06_stac_1490530478&#45;&gt;s1_league3_game3_06_stac_1490530479 -->
<!-- s1_league3_game3_06_stac_1490530482 -->
<g id="node13" class="node">
<title>s1_league3_game3_06_stac_1490530482</title>
<g id="a_node13"><a xlink:title="7 &#160;yiin &#160;or wheat??">
<ellipse fill="black" stroke="black" cx="40" cy="-119.5" rx="3.5" ry="3.5"/>
</a>
</g>
</g>
<!-- s1_league3_game3_06_stac_1490530478&#45;&gt;s1_league3_game3_06_stac_1490530482 -->
<!-- s1_league3_game3_06_stac_1490530479&#45;&gt;s1_league3_game3_06_stac_1490530482 -->
<g id="edge19" class="edge">
<title>s1_league3_game3_06_stac_1490530479&#45;&gt;s1_league3_game3_06_stac_1490530482</title>
<g id="a_edge19"><a xlink:title="Alternation">
<path fill="none" stroke="#10495e" d="M72.25,-141.7C66.91,-138.18 54.97,-130.33 47.21,-125.24"/>
<polygon fill="#10495e" stroke="#10495e" points="47.78,-123.52 42.64,-122.23 45.86,-126.44 47.78,-123.52"/>
</a>
</g>
</g>
<!-- s1_league3_game3_06_stac_1490530485 -->
<g id="node17" class="node">
<title>s1_league3_game3_06_stac_1490530485</title>
<g id="a_node17"><a xlink:title="8 &#160;nareik15 &#160;nope don&#39;t have either unfortunately,">
<ellipse fill="black" stroke="black" cx="60" cy="-94.5" rx="3.5" ry="3.5"/>
</a>
</g>
</g>
<!-- s1_league3_game3_06_stac_1490530479&#45;&gt;s1_league3_game3_06_stac_1490530485 -->
<g id="edge20" class="edge">
<title>s1_league3_game3_06_stac_1490530479&#45;&gt;s1_league3_game3_06_stac_1490530485</title>
<g id="a_edge20"><a xlink:title="Question_answer_pair">
<path fill="none" stroke="#12ffff" d="M75.96,-141.13C77.8,-136.25 81.32,-124.81 78,-116 75.69,-109.88 70.64,-104.4 66.47,-100.65"/>
<polygon fill="#12ffff" stroke="#12ffff" points="67.43,-99.17 62.47,-97.31 65.19,-101.85 67.43,-99.17"/>
</a>
</g>
</g>
<!-- 7_0 -->
<!-- s1_league3_game3_06_stac_1490530482&#45;&gt;7_0 -->
<!-- s1_league3_game3_06_stac_1490530482&#45;&gt;s1_league3_game3_06_stac_1490530485 -->
<!-- 10_0 -->
<!-- s1_league3_game3_06_stac_1490530493&#45;&gt;10_0 -->
<!-- s1_league3_game3_06_stac_1490530496 -->
<g id="node21" class="node">
<title>s1_league3_game3_06_stac_1490530496</title>
<g id="a_node21"><a xlink:title="11 &#160;Gaeilgeoir &#160;If you have sheep,">
<ellipse fill="black" stroke="black" cx="70" cy="-19.5" rx="3.5" ry="3.5"/>
</a>
</g>
</g>
<!-- s1_league3_game3_06_stac_1490530493&#45;&gt;s1_league3_game3_06_stac_1490530496 -->
<g id="edge25" class="edge">
<title>s1_league3_game3_06_stac_1490530493&#45;&gt;s1_league3_game3_06_stac_1490530496</title>
<g id="a_edge25"><a xlink:title="Question_answer_pair">
<path fill="none" stroke="#12ffff" d="M70,-40.68C70,-37.58 70,-32.47 70,-28.16"/>
<polygon fill="#12ffff" stroke="#12ffff" points="71.75,-28.06 70,-23.06 68.25,-28.06 71.75,-28.06"/>
</a>
</g>
</g>
<!-- s1_league3_game3_06_stac_1490530486 -->
<g id="node18" class="node">
<title>s1_league3_game3_06_stac_1490530486</title>
<g id="a_node18"><a xlink:title="8 &#160;nareik15 &#160;plenty of wood though">
<ellipse fill="black" stroke="black" cx="85" cy="-94.5" rx="3.5" ry="3.5"/>
</a>
</g>
</g>
<!-- s1_league3_game3_06_stac_1490530485&#45;&gt;s1_league3_game3_06_stac_1490530486 -->
<g id="edge21" class="edge">
<title>s1_league3_game3_06_stac_1490530485&#45;&gt;s1_league3_game3_06_stac_1490530486</title>
<g id="a_edge21"><a xlink:title="ContrastCorrection">
<path fill="none" stroke="#ff7ecf" d="M63.52,-94.5C67.78,-94.5 72.04,-94.5 76.3,-94.5"/>
<polygon fill="#ff7ecf" stroke="#ff7ecf" points="76.31,-96.25 81.31,-94.5 76.31,-92.75 76.31,-96.25"/>
</a>
</g>
</g>
<!-- s1_league3_game3_06_stac_1490530489 -->
<g id="node19" class="node">
<title>s1_league3_game3_06_stac_1490530489</title>
<g id="a_node19"><a xlink:title="9 &#160;yiin &#160;oh ok">
<ellipse fill="black" stroke="black" cx="60" cy="-69.5" rx="3.5" ry="3.5"/>
</a>
</g>
</g>
<!-- s1_league3_game3_06_stac_1490530485&#45;&gt;s1_league3_game3_06_stac_1490530489 -->
<g id="edge22" class="edge">
<title>s1_league3_game3_06_stac_1490530485&#45;&gt;s1_league3_game3_06_stac_1490530489</title>
<g id="a_edge22"><a xlink:title="Acknowledgement">
<path fill="none" stroke="#12ffff" d="M60,-90.68C60,-87.58 60,-82.47 60,-78.16"/>
<polygon fill="#12ffff" stroke="#12ffff" points="61.75,-78.06 60,-73.06 58.25,-78.06 61.75,-78.06"/>
</a>
</g>
</g>
<!-- s1_league3_game3_06_stac_1490530489&#45;&gt;s1_league3_game3_06_stac_1490530493 -->
<!-- s1_league3_game3_06_stac_1490530490 -->
<g id="node20" class="node">
<title>s1_league3_game3_06_stac_1490530490</title>
<g id="a_node20"><a xlink:title="9 &#160;yiin &#160;then nvm">
<ellipse fill="black" stroke="black" cx="85" cy="-69.5" rx="3.5" ry="3.5"/>
</a>
</g>
</g>
<!-- s1_league3_game3_06_stac_1490530489&#45;&gt;s1_league3_game3_06_stac_1490530490 -->
<g id="edge23" class="edge">
<title>s1_league3_game3_06_stac_1490530489&#45;&gt;s1_league3_game3_06_stac_1490530490</title>
<g id="a_edge23"><a xlink:title="ExplanationResult">
<path fill="none" stroke="#a62139" d="M63.52,-69.5C67.78,-69.5 72.04,-69.5 76.3,-69.5"/>
<polygon fill="#a62139" stroke="#a62139" points="76.31,-71.25 81.31,-69.5 76.31,-67.75 76.31,-71.25"/>
</a>
</g>
</g>
<!-- s1_league3_game3_06_stac_1490530497 -->
<g id="node22" class="node">
<title>s1_league3_game3_06_stac_1490530497</title>
<g id="a_node22"><a xlink:title="11 &#160;Gaeilgeoir &#160;I can.">
<ellipse fill="black" stroke="black" cx="95" cy="-19.5" rx="3.5" ry="3.5"/>
</a>
</g>
</g>
<!-- s1_league3_game3_06_stac_1490530496&#45;&gt;s1_league3_game3_06_stac_1490530497 -->
<g id="edge26" class="edge">
<title>s1_league3_game3_06_stac_1490530496&#45;&gt;s1_league3_game3_06_stac_1490530497</title>
<g id="a_edge26"><a xlink:title="Conditional">
<path fill="none" stroke="#1c931a" d="M73.52,-19.5C77.78,-19.5 82.04,-19.5 86.3,-19.5"/>
<polygon fill="#1c931a" stroke="#1c931a" points="86.31,-21.25 91.31,-19.5 86.31,-17.75 86.31,-21.25"/>
</a>
</g>
</g>
</g>
</svg>
