<?xml version="1.0" encoding="UTF-8" standalone="no"?>
<!DOCTYPE svg PUBLIC "-//W3C//DTD SVG 1.1//EN"
 "http://www.w3.org/Graphics/SVG/1.1/DTD/svg11.dtd">
<!-- Generated by graphviz version 3.0.0 (20220226.1711)
 -->
<!-- Title: 7_s1_league3_game3_560 Pages: 1 -->
<svg width="113pt" height="545pt"
 viewBox="0.00 0.00 113.00 545.00" xmlns="http://www.w3.org/2000/svg" xmlns:xlink="http://www.w3.org/1999/xlink">
<g id="graph0" class="graph" transform="scale(1 1) rotate(0) translate(4 541)">
<title>7_s1_league3_game3_560</title>
<polygon fill="white" stroke="transparent" points="-4,4 -4,-541 109,-541 109,4 -4,4"/>
<g id="clust1" class="cluster">
<title>cluster_7_s1_league3_game3_560</title>
<polygon fill="none" stroke="black" points="8,-8 8,-529 97,-529 97,-8 8,-8"/>
<text text-anchor="middle" x="26.5" y="-513.8" font-family="Times,serif" font-size="14.00">560</text>
</g>
<!-- s1_league3_game3_07_stac_1368708031 -->
<g id="node1" class="node">
<title>s1_league3_game3_07_stac_1368708031</title>
<g id="a_node1"><a xlink:title="1 &#160;nareik15 &#160;thanks">
<ellipse fill="black" stroke="black" cx="45" cy="-494.5" rx="3.5" ry="3.5"/>
</a>
</g>
</g>
<!-- 1_0 -->
<!-- s1_league3_game3_07_stac_1368708031&#45;&gt;1_0 -->
<!-- s1_league3_game3_07_stac_1368708034 -->
<g id="node3" class="node">
<title>s1_league3_game3_07_stac_1368708034</title>
<g id="a_node3"><a xlink:title="2 &#160;Gaeilgeoir &#160;no prob mate">
<ellipse fill="black" stroke="black" cx="30" cy="-469.5" rx="3.5" ry="3.5"/>
</a>
</g>
</g>
<!-- s1_league3_game3_07_stac_1368708031&#45;&gt;s1_league3_game3_07_stac_1368708034 -->
<g id="edge26" class="edge">
<title>s1_league3_game3_07_stac_1368708031&#45;&gt;s1_league3_game3_07_stac_1368708034</title>
<g id="a_edge26"><a xlink:title="Comment">
<path fill="none" stroke="#ff8200" d="M43.39,-491.04C41.26,-487.77 37.42,-481.87 34.39,-477.23"/>
<polygon fill="#ff8200" stroke="#ff8200" points="35.75,-476.11 31.55,-472.87 32.81,-478.02 35.75,-476.11"/>
</a>
</g>
</g>
<!-- s1_league3_game3_07_stac_1368708037 -->
<g id="node5" class="node">
<title>s1_league3_game3_07_stac_1368708037</title>
<g id="a_node5"><a xlink:title="3 &#160;yiin &#160;anyone got clay or wheat">
<ellipse fill="black" stroke="black" cx="60" cy="-444.5" rx="3.5" ry="3.5"/>
</a>
</g>
</g>
<!-- s1_league3_game3_07_stac_1368708031&#45;&gt;s1_league3_game3_07_stac_1368708037 -->
<g id="edge27" class="edge">
<title>s1_league3_game3_07_stac_1368708031&#45;&gt;s1_league3_game3_07_stac_1368708037</title>
<g id="a_edge27"><a xlink:title="ParallNarrContinuationbackground">
<path fill="none" stroke="#0ab046" d="M47.81,-492.05C52.96,-489.22 63.8,-482.37 68,-473 71.05,-466.19 67.78,-457.92 64.54,-452.23"/>
<polygon fill="#0ab046" stroke="#0ab046" points="65.93,-451.14 61.77,-447.86 62.97,-453.02 65.93,-451.14"/>
</a>
</g>
</g>
<!-- 2_0 -->
<!-- s1_league3_game3_07_stac_1368708034&#45;&gt;2_0 -->
<!-- s1_league3_game3_07_stac_1368708034&#45;&gt;s1_league3_game3_07_stac_1368708037 -->
<!-- 3_0 -->
<!-- s1_league3_game3_07_stac_1368708037&#45;&gt;3_0 -->
<!-- s1_league3_game3_07_stac_1368708040 -->
<g id="node7" class="node">
<title>s1_league3_game3_07_stac_1368708040</title>
<g id="a_node7"><a xlink:title="4 &#160;nareik15 &#160;wow inca.. must be bathing in clay now">
<ellipse fill="black" stroke="black" cx="60" cy="-419.5" rx="3.5" ry="3.5"/>
</a>
</g>
</g>
<!-- s1_league3_game3_07_stac_1368708037&#45;&gt;s1_league3_game3_07_stac_1368708040 -->
<g id="edge28" class="edge">
<title>s1_league3_game3_07_stac_1368708037&#45;&gt;s1_league3_game3_07_stac_1368708040</title>
<g id="a_edge28"><a xlink:title="Comment">
<path fill="none" stroke="#ff8200" d="M60,-440.68C60,-437.58 60,-432.47 60,-428.16"/>
<polygon fill="#ff8200" stroke="#ff8200" points="61.75,-428.06 60,-423.06 58.25,-428.06 61.75,-428.06"/>
</a>
</g>
</g>
<!-- 4_0 -->
<!-- s1_league3_game3_07_stac_1368708040&#45;&gt;4_0 -->
<!-- s1_league3_game3_07_stac_1368708043 -->
<g id="node9" class="node">
<title>s1_league3_game3_07_stac_1368708043</title>
<g id="a_node9"><a xlink:title="5 &#160;inca &#160;haha, yep">
<ellipse fill="black" stroke="black" cx="60" cy="-394.5" rx="3.5" ry="3.5"/>
</a>
</g>
</g>
<!-- s1_league3_game3_07_stac_1368708040&#45;&gt;s1_league3_game3_07_stac_1368708043 -->
<g id="edge29" class="edge">
<title>s1_league3_game3_07_stac_1368708040&#45;&gt;s1_league3_game3_07_stac_1368708043</title>
<g id="a_edge29"><a xlink:title="Comment">
<path fill="none" stroke="#ff8200" d="M60,-415.68C60,-412.58 60,-407.47 60,-403.16"/>
<polygon fill="#ff8200" stroke="#ff8200" points="61.75,-403.06 60,-398.06 58.25,-403.06 61.75,-403.06"/>
</a>
</g>
</g>
<!-- 5_0 -->
<!-- s1_league3_game3_07_stac_1368708043&#45;&gt;5_0 -->
<!-- s1_league3_game3_07_stac_1368708046 -->
<g id="node11" class="node">
<title>s1_league3_game3_07_stac_1368708046</title>
<g id="a_node11"><a xlink:title="6 &#160;yiin &#160;what do you need">
<ellipse fill="black" stroke="black" cx="60" cy="-369.5" rx="3.5" ry="3.5"/>
</a>
</g>
</g>
<!-- s1_league3_game3_07_stac_1368708043&#45;&gt;s1_league3_game3_07_stac_1368708046 -->
<g id="edge30" class="edge">
<title>s1_league3_game3_07_stac_1368708043&#45;&gt;s1_league3_game3_07_stac_1368708046</title>
<g id="a_edge30"><a xlink:title="Q_Elab">
<path fill="none" stroke="#0d20ff" d="M60,-390.68C60,-387.58 60,-382.47 60,-378.16"/>
<polygon fill="#0d20ff" stroke="#0d20ff" points="61.75,-378.06 60,-373.06 58.25,-378.06 61.75,-378.06"/>
</a>
</g>
</g>
<!-- 6_0 -->
<!-- s1_league3_game3_07_stac_1368708046&#45;&gt;6_0 -->
<!-- s1_league3_game3_07_stac_1368708049 -->
<g id="node13" class="node">
<title>s1_league3_game3_07_stac_1368708049</title>
<g id="a_node13"><a xlink:title="7 &#160;Gaeilgeoir &#160;want some ore for clay, inca?">
<ellipse fill="black" stroke="black" cx="60" cy="-344.5" rx="3.5" ry="3.5"/>
</a>
</g>
</g>
<!-- s1_league3_game3_07_stac_1368708046&#45;&gt;s1_league3_game3_07_stac_1368708049 -->
<g id="edge31" class="edge">
<title>s1_league3_game3_07_stac_1368708046&#45;&gt;s1_league3_game3_07_stac_1368708049</title>
<g id="a_edge31"><a xlink:title="Q_Elab">
<path fill="none" stroke="#0d20ff" d="M60,-365.68C60,-362.58 60,-357.47 60,-353.16"/>
<polygon fill="#0d20ff" stroke="#0d20ff" points="61.75,-353.06 60,-348.06 58.25,-353.06 61.75,-353.06"/>
</a>
</g>
</g>
<!-- 7_0 -->
<!-- s1_league3_game3_07_stac_1368708049&#45;&gt;7_0 -->
<!-- s1_league3_game3_07_stac_1368708052 -->
<g id="node15" class="node">
<title>s1_league3_game3_07_stac_1368708052</title>
<g id="a_node15"><a xlink:title="8 &#160;Gaeilgeoir &#160;:P">
<ellipse fill="black" stroke="black" cx="20" cy="-319.5" rx="3.5" ry="3.5"/>
</a>
</g>
</g>
<!-- s1_league3_game3_07_stac_1368708049&#45;&gt;s1_league3_game3_07_stac_1368708052 -->
<g id="edge32" class="edge">
<title>s1_league3_game3_07_stac_1368708049&#45;&gt;s1_league3_game3_07_stac_1368708052</title>
<g id="a_edge32"><a xlink:title="Comment">
<path fill="none" stroke="#ff8200" d="M57.38,-341.99C51.33,-338.52 36.26,-329.85 27.21,-324.64"/>
<polygon fill="#ff8200" stroke="#ff8200" points="27.89,-323.02 22.69,-322.04 26.15,-326.05 27.89,-323.02"/>
</a>
</g>
</g>
<!-- s1_league3_game3_07_stac_1368708055 -->
<g id="node17" class="node">
<title>s1_league3_game3_07_stac_1368708055</title>
<g id="a_node17"><a xlink:title="9 &#160;inca &#160;do you have sheep yiin?">
<ellipse fill="black" stroke="black" cx="40" cy="-294.5" rx="3.5" ry="3.5"/>
</a>
</g>
</g>
<!-- s1_league3_game3_07_stac_1368708049&#45;&gt;s1_league3_game3_07_stac_1368708055 -->
<g id="edge33" class="edge">
<title>s1_league3_game3_07_stac_1368708049&#45;&gt;s1_league3_game3_07_stac_1368708055</title>
<g id="a_edge33"><a xlink:title="Q_Elab">
<path fill="none" stroke="#0d20ff" d="M60.35,-340.79C60.9,-335.71 61.55,-324.48 58,-316 55.47,-309.97 50.44,-304.48 46.33,-300.7"/>
<polygon fill="#0d20ff" stroke="#0d20ff" points="47.34,-299.26 42.41,-297.33 45.06,-301.92 47.34,-299.26"/>
</a>
</g>
</g>
<!-- s1_league3_game3_07_stac_1368708061 -->
<g id="node39" class="node">
<title>s1_league3_game3_07_stac_1368708061</title>
<g id="a_node39"><a xlink:title="11 &#160;inca &#160;i&#39;ll trad with both of you">
<ellipse fill="black" stroke="black" cx="50" cy="-244.5" rx="3.5" ry="3.5"/>
</a>
</g>
</g>
<!-- s1_league3_game3_07_stac_1368708049&#45;&gt;s1_league3_game3_07_stac_1368708061 -->
<g id="edge35" class="edge">
<title>s1_league3_game3_07_stac_1368708049&#45;&gt;s1_league3_game3_07_stac_1368708061</title>
<g id="a_edge35"><a xlink:title="Question_answer_pair">
<path fill="none" stroke="#12ffff" d="M61.6,-341.21C68.15,-331.55 91.87,-293.35 78,-266 73.83,-257.77 64.63,-252.05 57.91,-248.78"/>
<polygon fill="#12ffff" stroke="#12ffff" points="58.29,-247.04 53.01,-246.61 56.88,-250.24 58.29,-247.04"/>
</a>
</g>
</g>
<!-- 8_0 -->
<!-- s1_league3_game3_07_stac_1368708052&#45;&gt;8_0 -->
<!-- s1_league3_game3_07_stac_1368708052&#45;&gt;s1_league3_game3_07_stac_1368708055 -->
<!-- 9_0 -->
<!-- s1_league3_game3_07_stac_1368708055&#45;&gt;9_0 -->
<!-- s1_league3_game3_07_stac_1368708058 -->
<g id="node19" class="node">
<title>s1_league3_game3_07_stac_1368708058</title>
<g id="a_node19"><a xlink:title="10 &#160;Gaeilgeoir &#160;I do!">
<ellipse fill="black" stroke="black" cx="40" cy="-269.5" rx="3.5" ry="3.5"/>
</a>
</g>
</g>
<!-- s1_league3_game3_07_stac_1368708055&#45;&gt;s1_league3_game3_07_stac_1368708058 -->
<g id="edge34" class="edge">
<title>s1_league3_game3_07_stac_1368708055&#45;&gt;s1_league3_game3_07_stac_1368708058</title>
<g id="a_edge34"><a xlink:title="Question_answer_pair">
<path fill="none" stroke="#12ffff" d="M40,-290.68C40,-287.58 40,-282.47 40,-278.16"/>
<polygon fill="#12ffff" stroke="#12ffff" points="41.75,-278.06 40,-273.06 38.25,-278.06 41.75,-278.06"/>
</a>
</g>
</g>
<!-- 10_0 -->
<!-- s1_league3_game3_07_stac_1368708058&#45;&gt;10_0 -->
<!-- s1_league3_game3_07_stac_1368708058&#45;&gt;s1_league3_game3_07_stac_1368708061 -->
<!-- s1_league3_game3_07_stac_1368708065 -->
<g id="node21" class="node">
<title>s1_league3_game3_07_stac_1368708065</title>
<g id="a_node21"><a xlink:title="12 &#160;inca &#160;sorry, gaeil offered ore first i guess">
<ellipse fill="black" stroke="black" cx="55" cy="-219.5" rx="3.5" ry="3.5"/>
</a>
</g>
</g>
<!-- 12_0 -->
<!-- s1_league3_game3_07_stac_1368708065&#45;&gt;12_0 -->
<!-- s1_league3_game3_07_stac_1368708068 -->
<g id="node23" class="node">
<title>s1_league3_game3_07_stac_1368708068</title>
<g id="a_node23"><a xlink:title="13 &#160;Gaeilgeoir &#160;it&#39;s ok">
<ellipse fill="black" stroke="black" cx="30" cy="-194.5" rx="3.5" ry="3.5"/>
</a>
</g>
</g>
<!-- s1_league3_game3_07_stac_1368708065&#45;&gt;s1_league3_game3_07_stac_1368708068 -->
<g id="edge38" class="edge">
<title>s1_league3_game3_07_stac_1368708065&#45;&gt;s1_league3_game3_07_stac_1368708068</title>
<g id="a_edge38"><a xlink:title="Acknowledgement">
<path fill="none" stroke="#12ffff" d="M52.69,-216.38C48.92,-212.9 41.3,-205.89 35.93,-200.96"/>
<polygon fill="#12ffff" stroke="#12ffff" points="36.95,-199.52 32.09,-197.42 34.58,-202.09 36.95,-199.52"/>
</a>
</g>
</g>
<!-- s1_league3_game3_07_stac_1368708071 -->
<g id="node25" class="node">
<title>s1_league3_game3_07_stac_1368708071</title>
<g id="a_node25"><a xlink:title="14 &#160;inca &#160;got sheep?">
<ellipse fill="black" stroke="black" cx="40" cy="-169.5" rx="3.5" ry="3.5"/>
</a>
</g>
</g>
<!-- s1_league3_game3_07_stac_1368708065&#45;&gt;s1_league3_game3_07_stac_1368708071 -->
<g id="edge39" class="edge">
<title>s1_league3_game3_07_stac_1368708065&#45;&gt;s1_league3_game3_07_stac_1368708071</title>
<g id="a_edge39"><a xlink:title="ParallNarrContinuationbackground">
<path fill="none" stroke="#0ab046" d="M57.28,-216.48C62.16,-211.91 72.78,-200.42 68,-191 63.83,-182.77 54.63,-177.05 47.91,-173.78"/>
<polygon fill="#0ab046" stroke="#0ab046" points="48.29,-172.04 43.01,-171.61 46.88,-175.24 48.29,-172.04"/>
</a>
</g>
</g>
<!-- 13_0 -->
<!-- s1_league3_game3_07_stac_1368708068&#45;&gt;13_0 -->
<!-- s1_league3_game3_07_stac_1368708068&#45;&gt;s1_league3_game3_07_stac_1368708071 -->
<!-- 14_0 -->
<!-- s1_league3_game3_07_stac_1368708071&#45;&gt;14_0 -->
<!-- s1_league3_game3_07_stac_1368708074 -->
<g id="node27" class="node">
<title>s1_league3_game3_07_stac_1368708074</title>
<g id="a_node27"><a xlink:title="15 &#160;Gaeilgeoir &#160;I have sheep too">
<ellipse fill="black" stroke="black" cx="30" cy="-144.5" rx="3.5" ry="3.5"/>
</a>
</g>
</g>
<!-- s1_league3_game3_07_stac_1368708071&#45;&gt;s1_league3_game3_07_stac_1368708074 -->
<g id="edge40" class="edge">
<title>s1_league3_game3_07_stac_1368708071&#45;&gt;s1_league3_game3_07_stac_1368708074</title>
<g id="a_edge40"><a xlink:title="Question_answer_pair">
<path fill="none" stroke="#12ffff" d="M38.93,-166.04C37.54,-162.84 35.05,-157.12 33.06,-152.53"/>
<polygon fill="#12ffff" stroke="#12ffff" points="34.63,-151.76 31.03,-147.87 31.42,-153.16 34.63,-151.76"/>
</a>
</g>
</g>
<!-- s1_league3_game3_07_stac_1368708080 -->
<g id="node31" class="node">
<title>s1_league3_game3_07_stac_1368708080</title>
<g id="a_node31"><a xlink:title="17 &#160;yiin &#160;i got sheep">
<ellipse fill="black" stroke="black" cx="40" cy="-94.5" rx="3.5" ry="3.5"/>
</a>
</g>
</g>
<!-- s1_league3_game3_07_stac_1368708071&#45;&gt;s1_league3_game3_07_stac_1368708080 -->
<g id="edge42" class="edge">
<title>s1_league3_game3_07_stac_1368708071&#45;&gt;s1_league3_game3_07_stac_1368708080</title>
<g id="a_edge42"><a xlink:title="Question_answer_pair">
<path fill="none" stroke="#12ffff" d="M43.01,-167.39C49.08,-164.95 62.66,-158.53 68,-148 74.43,-135.32 74.43,-128.68 68,-116 63.83,-107.77 54.63,-102.05 47.91,-98.78"/>
<polygon fill="#12ffff" stroke="#12ffff" points="48.29,-97.04 43.01,-96.61 46.88,-100.24 48.29,-97.04"/>
</a>
</g>
</g>
<!-- 15_0 -->
<!-- s1_league3_game3_07_stac_1368708074&#45;&gt;15_0 -->
<!-- s1_league3_game3_07_stac_1368708077 -->
<g id="node29" class="node">
<title>s1_league3_game3_07_stac_1368708077</title>
<g id="a_node29"><a xlink:title="16 &#160;Gaeilgeoir &#160;take his trade">
<ellipse fill="black" stroke="black" cx="30" cy="-119.5" rx="3.5" ry="3.5"/>
</a>
</g>
</g>
<!-- s1_league3_game3_07_stac_1368708074&#45;&gt;s1_league3_game3_07_stac_1368708077 -->
<g id="edge41" class="edge">
<title>s1_league3_game3_07_stac_1368708074&#45;&gt;s1_league3_game3_07_stac_1368708077</title>
<g id="a_edge41"><a xlink:title="Elaboration">
<path fill="none" stroke="#a621c7" d="M30,-140.68C30,-137.58 30,-132.47 30,-128.16"/>
<polygon fill="#a621c7" stroke="#a621c7" points="31.75,-128.06 30,-123.06 28.25,-128.06 31.75,-128.06"/>
</a>
</g>
</g>
<!-- 16_0 -->
<!-- s1_league3_game3_07_stac_1368708077&#45;&gt;16_0 -->
<!-- s1_league3_game3_07_stac_1368708077&#45;&gt;s1_league3_game3_07_stac_1368708080 -->
<!-- 17_0 -->
<!-- s1_league3_game3_07_stac_1368708080&#45;&gt;17_0 -->
<!-- s1_league3_game3_07_stac_1368708083 -->
<g id="node33" class="node">
<title>s1_league3_game3_07_stac_1368708083</title>
<g id="a_node33"><a xlink:title="18 &#160;inca &#160;ok, i&#39;ll trade with you for sheep briain">
<ellipse fill="black" stroke="black" cx="40" cy="-69.5" rx="3.5" ry="3.5"/>
</a>
</g>
</g>
<!-- s1_league3_game3_07_stac_1368708080&#45;&gt;s1_league3_game3_07_stac_1368708083 -->
<g id="edge43" class="edge">
<title>s1_league3_game3_07_stac_1368708080&#45;&gt;s1_league3_game3_07_stac_1368708083</title>
<g id="a_edge43"><a xlink:title="Acknowledgement">
<path fill="none" stroke="#12ffff" d="M40,-90.68C40,-87.58 40,-82.47 40,-78.16"/>
<polygon fill="#12ffff" stroke="#12ffff" points="41.75,-78.06 40,-73.06 38.25,-78.06 41.75,-78.06"/>
</a>
</g>
</g>
<!-- 18_0 -->
<!-- s1_league3_game3_07_stac_1368708083&#45;&gt;18_0 -->
<!-- s1_league3_game3_07_stac_1368708086 -->
<g id="node35" class="node">
<title>s1_league3_game3_07_stac_1368708086</title>
<g id="a_node35"><a xlink:title="19 &#160;inca &#160;cheers">
<ellipse fill="black" stroke="black" cx="40" cy="-44.5" rx="3.5" ry="3.5"/>
</a>
</g>
</g>
<!-- s1_league3_game3_07_stac_1368708083&#45;&gt;s1_league3_game3_07_stac_1368708086 -->
<g id="edge44" class="edge">
<title>s1_league3_game3_07_stac_1368708083&#45;&gt;s1_league3_game3_07_stac_1368708086</title>
<g id="a_edge44"><a xlink:title="Comment">
<path fill="none" stroke="#ff8200" d="M40,-65.68C40,-62.58 40,-57.47 40,-53.16"/>
<polygon fill="#ff8200" stroke="#ff8200" points="41.75,-53.06 40,-48.06 38.25,-53.06 41.75,-53.06"/>
</a>
</g>
</g>
<!-- 19_0 -->
<!-- s1_league3_game3_07_stac_1368708086&#45;&gt;19_0 -->
<!-- s1_league3_game3_07_stac_1368708090 -->
<g id="node37" class="node">
<title>s1_league3_game3_07_stac_1368708090</title>
<g id="a_node37"><a xlink:title="20 &#160;Gaeilgeoir &#160;cheers">
<ellipse fill="black" stroke="black" cx="40" cy="-19.5" rx="3.5" ry="3.5"/>
</a>
</g>
</g>
<!-- s1_league3_game3_07_stac_1368708086&#45;&gt;s1_league3_game3_07_stac_1368708090 -->
<g id="edge45" class="edge">
<title>s1_league3_game3_07_stac_1368708086&#45;&gt;s1_league3_game3_07_stac_1368708090</title>
<g id="a_edge45"><a xlink:title="Acknowledgement">
<path fill="none" stroke="#12ffff" d="M40,-40.68C40,-37.58 40,-32.47 40,-28.16"/>
<polygon fill="#12ffff" stroke="#12ffff" points="41.75,-28.06 40,-23.06 38.25,-28.06 41.75,-28.06"/>
</a>
</g>
</g>
<!-- 20_0 -->
<!-- s1_league3_game3_07_stac_1368708090&#45;&gt;20_0 -->
<!-- s1_league3_game3_07_stac_1368708061&#45;&gt;s1_league3_game3_07_stac_1368708065 -->
<!-- s1_league3_game3_07_stac_1368708062 -->
<g id="node40" class="node">
<title>s1_league3_game3_07_stac_1368708062</title>
<g id="a_node40"><a xlink:title="11 &#160;inca &#160;if so">
<ellipse fill="black" stroke="black" cx="75" cy="-244.5" rx="3.5" ry="3.5"/>
</a>
</g>
</g>
<!-- s1_league3_game3_07_stac_1368708061&#45;&gt;s1_league3_game3_07_stac_1368708062 -->
<g id="edge36" class="edge">
<title>s1_league3_game3_07_stac_1368708061&#45;&gt;s1_league3_game3_07_stac_1368708062</title>
<g id="a_edge36"><a xlink:title="Comment">
<path fill="none" stroke="#ff8200" d="M53.52,-244.5C57.78,-244.5 62.04,-244.5 66.3,-244.5"/>
<polygon fill="#ff8200" stroke="#ff8200" points="66.31,-246.25 71.31,-244.5 66.31,-242.75 66.31,-246.25"/>
</a>
</g>
</g>
<!-- s1_league3_game3_07_stac_1368708062&#45;&gt;s1_league3_game3_07_stac_1368708065 -->
<g id="edge37" class="edge">
<title>s1_league3_game3_07_stac_1368708062&#45;&gt;s1_league3_game3_07_stac_1368708065</title>
<g id="a_edge37"><a xlink:title="Comment">
<path fill="none" stroke="#ff8200" d="M73.15,-241.38C70.31,-238.11 64.75,-231.71 60.52,-226.85"/>
<polygon fill="#ff8200" stroke="#ff8200" points="61.74,-225.59 57.14,-222.96 59.1,-227.88 61.74,-225.59"/>
</a>
</g>
</g>
</g>
</svg>
