<?xml version="1.0" encoding="UTF-8" standalone="no"?>
<!DOCTYPE svg PUBLIC "-//W3C//DTD SVG 1.1//EN"
 "http://www.w3.org/Graphics/SVG/1.1/DTD/svg11.dtd">
<!-- Generated by graphviz version 3.0.0 (20220226.1711)
 -->
<!-- Title: 8_s1_league3_game3_564 Pages: 1 -->
<svg width="133pt" height="195pt"
 viewBox="0.00 0.00 133.00 195.00" xmlns="http://www.w3.org/2000/svg" xmlns:xlink="http://www.w3.org/1999/xlink">
<g id="graph0" class="graph" transform="scale(1 1) rotate(0) translate(4 191)">
<title>8_s1_league3_game3_564</title>
<polygon fill="white" stroke="transparent" points="-4,4 -4,-191 129,-191 129,4 -4,4"/>
<g id="clust1" class="cluster">
<title>cluster_8_s1_league3_game3_564</title>
<polygon fill="none" stroke="black" points="8,-8 8,-179 117,-179 117,-8 8,-8"/>
<text text-anchor="middle" x="26.5" y="-163.8" font-family="Times,serif" font-size="14.00">564</text>
</g>
<!-- s1_league3_game3_08_stac_1368708060 -->
<g id="node1" class="node">
<title>s1_league3_game3_08_stac_1368708060</title>
<g id="a_node1"><a xlink:title="1 &#160;nareik15 &#160;any one have any ore?">
<ellipse fill="black" stroke="black" cx="60" cy="-144.5" rx="3.5" ry="3.5"/>
</a>
</g>
</g>
<!-- 1_0 -->
<!-- s1_league3_game3_08_stac_1368708060&#45;&gt;1_0 -->
<!-- s1_league3_game3_08_stac_1368708063 -->
<g id="node3" class="node">
<title>s1_league3_game3_08_stac_1368708063</title>
<g id="a_node3"><a xlink:title="2 &#160;inca &#160;nope, sorry">
<ellipse fill="black" stroke="black" cx="40" cy="-119.5" rx="3.5" ry="3.5"/>
</a>
</g>
</g>
<!-- s1_league3_game3_08_stac_1368708060&#45;&gt;s1_league3_game3_08_stac_1368708063 -->
<g id="edge9" class="edge">
<title>s1_league3_game3_08_stac_1368708060&#45;&gt;s1_league3_game3_08_stac_1368708063</title>
<g id="a_edge9"><a xlink:title="Question_answer_pair">
<path fill="none" stroke="#12ffff" d="M58.15,-141.38C55.31,-138.11 49.75,-131.71 45.52,-126.85"/>
<polygon fill="#12ffff" stroke="#12ffff" points="46.74,-125.59 42.14,-122.96 44.1,-127.88 46.74,-125.59"/>
</a>
</g>
</g>
<!-- s1_league3_game3_08_stac_1368708066 -->
<g id="node5" class="node">
<title>s1_league3_game3_08_stac_1368708066</title>
<g id="a_node5"><a xlink:title="3 &#160;Gaeilgeoir &#160;I have nothing at the moment :)">
<ellipse fill="black" stroke="black" cx="39" cy="-94.5" rx="3.5" ry="3.5"/>
</a>
</g>
</g>
<!-- s1_league3_game3_08_stac_1368708060&#45;&gt;s1_league3_game3_08_stac_1368708066 -->
<g id="edge10" class="edge">
<title>s1_league3_game3_08_stac_1368708060&#45;&gt;s1_league3_game3_08_stac_1368708066</title>
<g id="a_edge10"><a xlink:title="Question_answer_pair">
<path fill="none" stroke="#12ffff" d="M56.99,-142.65C50.3,-140.58 34.33,-134.58 28,-123 24.14,-115.95 29.09,-107.26 33.54,-101.56"/>
<polygon fill="#12ffff" stroke="#12ffff" points="35.02,-102.51 36.94,-97.58 32.36,-100.24 35.02,-102.51"/>
</a>
</g>
</g>
<!-- s1_league3_game3_08_stac_1368708073 -->
<g id="node7" class="node">
<title>s1_league3_game3_08_stac_1368708073</title>
<g id="a_node7"><a xlink:title="5 &#160;yiin &#160;have">
<ellipse fill="black" stroke="black" cx="69" cy="-44.5" rx="3.5" ry="3.5"/>
</a>
</g>
</g>
<!-- s1_league3_game3_08_stac_1368708060&#45;&gt;s1_league3_game3_08_stac_1368708073 -->
<g id="edge13" class="edge">
<title>s1_league3_game3_08_stac_1368708060&#45;&gt;s1_league3_game3_08_stac_1368708073</title>
<g id="a_edge13"><a xlink:title="Question_answer_pair">
<path fill="none" stroke="#12ffff" d="M62.47,-141.79C69.94,-136.43 92.18,-119.03 98,-98 98.83,-95 98.87,-93.99 98,-91 93.4,-75.22 81.48,-59.69 74.43,-51.49"/>
<polygon fill="#12ffff" stroke="#12ffff" points="75.73,-50.31 71.1,-47.73 73.11,-52.63 75.73,-50.31"/>
</a>
</g>
</g>
<!-- s1_league3_game3_08_stac_1368708069 -->
<g id="node11" class="node">
<title>s1_league3_game3_08_stac_1368708069</title>
<g id="a_node11"><a xlink:title="4 &#160;yiin &#160;i ahve">
<ellipse fill="black" stroke="black" cx="59" cy="-69.5" rx="3.5" ry="3.5"/>
</a>
</g>
</g>
<!-- s1_league3_game3_08_stac_1368708060&#45;&gt;s1_league3_game3_08_stac_1368708069 -->
<g id="edge11" class="edge">
<title>s1_league3_game3_08_stac_1368708060&#45;&gt;s1_league3_game3_08_stac_1368708069</title>
<g id="a_edge11"><a xlink:title="Question_answer_pair">
<path fill="none" stroke="#12ffff" d="M62.47,-141.69C66.62,-138.48 74.86,-131.33 78,-123 81.23,-114.43 69.33,-89.9 62.89,-77.64"/>
<polygon fill="#12ffff" stroke="#12ffff" points="64.42,-76.81 60.52,-73.23 61.34,-78.46 64.42,-76.81"/>
</a>
</g>
</g>
<!-- 2_0 -->
<!-- s1_league3_game3_08_stac_1368708063&#45;&gt;2_0 -->
<!-- s1_league3_game3_08_stac_1368708063&#45;&gt;s1_league3_game3_08_stac_1368708066 -->
<!-- 3_0 -->
<!-- s1_league3_game3_08_stac_1368708066&#45;&gt;3_0 -->
<!-- s1_league3_game3_08_stac_1368708066&#45;&gt;s1_league3_game3_08_stac_1368708069 -->
<!-- 5_0 -->
<!-- s1_league3_game3_08_stac_1368708073&#45;&gt;5_0 -->
<!-- s1_league3_game3_08_stac_1368708076 -->
<g id="node9" class="node">
<title>s1_league3_game3_08_stac_1368708076</title>
<g id="a_node9"><a xlink:title="6 &#160;nareik15 &#160;ok">
<ellipse fill="black" stroke="black" cx="69" cy="-19.5" rx="3.5" ry="3.5"/>
</a>
</g>
</g>
<!-- s1_league3_game3_08_stac_1368708073&#45;&gt;s1_league3_game3_08_stac_1368708076 -->
<g id="edge14" class="edge">
<title>s1_league3_game3_08_stac_1368708073&#45;&gt;s1_league3_game3_08_stac_1368708076</title>
<g id="a_edge14"><a xlink:title="Acknowledgement">
<path fill="none" stroke="#12ffff" d="M69,-40.68C69,-37.58 69,-32.47 69,-28.16"/>
<polygon fill="#12ffff" stroke="#12ffff" points="70.75,-28.06 69,-23.06 67.25,-28.06 70.75,-28.06"/>
</a>
</g>
</g>
<!-- 6_0 -->
<!-- s1_league3_game3_08_stac_1368708076&#45;&gt;6_0 -->
<!-- s1_league3_game3_08_stac_1368708069&#45;&gt;s1_league3_game3_08_stac_1368708073 -->
<!-- s1_league3_game3_08_stac_1368708070 -->
<g id="node12" class="node">
<title>s1_league3_game3_08_stac_1368708070</title>
<g id="a_node12"><a xlink:title="4 &#160;yiin &#160;but i need wheat">
<ellipse fill="black" stroke="black" cx="105" cy="-69.5" rx="3.5" ry="3.5"/>
</a>
</g>
</g>
<!-- s1_league3_game3_08_stac_1368708069&#45;&gt;s1_league3_game3_08_stac_1368708070 -->
<g id="edge12" class="edge">
<title>s1_league3_game3_08_stac_1368708069&#45;&gt;s1_league3_game3_08_stac_1368708070</title>
<g id="a_edge12"><a xlink:title="ContrastCorrection">
<path fill="none" stroke="#ff7ecf" d="M62.59,-69.5C73.8,-69.5 85,-69.5 96.21,-69.5"/>
<polygon fill="#ff7ecf" stroke="#ff7ecf" points="96.36,-71.25 101.36,-69.5 96.36,-67.75 96.36,-71.25"/>
</a>
</g>
</g>
</g>
</svg>
