<?xml version="1.0" encoding="UTF-8" standalone="no"?>
<!DOCTYPE svg PUBLIC "-//W3C//DTD SVG 1.1//EN"
 "http://www.w3.org/Graphics/SVG/1.1/DTD/svg11.dtd">
<!-- Generated by graphviz version 3.0.0 (20220226.1711)
 -->
<!-- Title: 9_s1_league3_game3_565 Pages: 1 -->
<svg width="88pt" height="270pt"
 viewBox="0.00 0.00 88.00 270.00" xmlns="http://www.w3.org/2000/svg" xmlns:xlink="http://www.w3.org/1999/xlink">
<g id="graph0" class="graph" transform="scale(1 1) rotate(0) translate(4 266)">
<title>9_s1_league3_game3_565</title>
<polygon fill="white" stroke="transparent" points="-4,4 -4,-266 84,-266 84,4 -4,4"/>
<g id="clust1" class="cluster">
<title>cluster_9_s1_league3_game3_565</title>
<polygon fill="none" stroke="black" points="8,-8 8,-254 72,-254 72,-8 8,-8"/>
<text text-anchor="middle" x="26.5" y="-238.8" font-family="Times,serif" font-size="14.00">565</text>
</g>
<!-- s1_league3_game3_09_stac_1368708032 -->
<g id="node1" class="node">
<title>s1_league3_game3_09_stac_1368708032</title>
<g id="a_node1"><a xlink:title="1 &#160;inca &#160;anyone got any wood? i can give clay or wheat">
<ellipse fill="black" stroke="black" cx="43" cy="-219.5" rx="3.5" ry="3.5"/>
</a>
</g>
</g>
<!-- s1_league3_game3_09_stac_1368708035 -->
<g id="node2" class="node">
<title>s1_league3_game3_09_stac_1368708035</title>
<g id="a_node2"><a xlink:title="2 &#160;nareik15 &#160;yep plenty">
<ellipse fill="black" stroke="black" cx="20" cy="-194.5" rx="3.5" ry="3.5"/>
</a>
</g>
</g>
<!-- s1_league3_game3_09_stac_1368708032&#45;&gt;s1_league3_game3_09_stac_1368708035 -->
<g id="edge3" class="edge">
<title>s1_league3_game3_09_stac_1368708032&#45;&gt;s1_league3_game3_09_stac_1368708035</title>
<g id="a_edge3"><a xlink:title="Question_answer_pair">
<path fill="none" stroke="#12ffff" d="M40.88,-216.38C37.54,-213.04 30.95,-206.45 26.06,-201.56"/>
<polygon fill="#12ffff" stroke="#12ffff" points="27.23,-200.26 22.46,-197.96 24.76,-202.73 27.23,-200.26"/>
</a>
</g>
</g>
<!-- s1_league3_game3_09_stac_1368708038 -->
<g id="node3" class="node">
<title>s1_league3_game3_09_stac_1368708038</title>
<g id="a_node3"><a xlink:title="3 &#160;yiin &#160;i got wood">
<ellipse fill="black" stroke="black" cx="40" cy="-169.5" rx="3.5" ry="3.5"/>
</a>
</g>
</g>
<!-- s1_league3_game3_09_stac_1368708032&#45;&gt;s1_league3_game3_09_stac_1368708038 -->
<g id="edge4" class="edge">
<title>s1_league3_game3_09_stac_1368708032&#45;&gt;s1_league3_game3_09_stac_1368708038</title>
<g id="a_edge4"><a xlink:title="Question_answer_pair">
<path fill="none" stroke="#12ffff" d="M42.84,-215.92C42.4,-208.95 41.19,-189.55 40.5,-178.49"/>
<polygon fill="#12ffff" stroke="#12ffff" points="42.24,-178.21 40.18,-173.33 38.74,-178.43 42.24,-178.21"/>
</a>
</g>
</g>
<!-- s1_league3_game3_09_stac_1368708041 -->
<g id="node4" class="node">
<title>s1_league3_game3_09_stac_1368708041</title>
<g id="a_node4"><a xlink:title="4 &#160;inca &#160;would you prefer clay or wheat kieran?">
<ellipse fill="black" stroke="black" cx="50" cy="-144.5" rx="3.5" ry="3.5"/>
</a>
</g>
</g>
<!-- s1_league3_game3_09_stac_1368708032&#45;&gt;s1_league3_game3_09_stac_1368708041 -->
<g id="edge5" class="edge">
<title>s1_league3_game3_09_stac_1368708032&#45;&gt;s1_league3_game3_09_stac_1368708041</title>
<g id="a_edge5"><a xlink:title="Q_Elab">
<path fill="none" stroke="#0d20ff" d="M43.91,-216.12C46.63,-208.75 54.43,-185.62 53,-166 52.69,-161.76 52.03,-157.07 51.4,-153.25"/>
<polygon fill="#0d20ff" stroke="#0d20ff" points="53.1,-152.76 50.51,-148.14 49.65,-153.37 53.1,-152.76"/>
</a>
</g>
</g>
<!-- s1_league3_game3_09_stac_1368708035&#45;&gt;s1_league3_game3_09_stac_1368708038 -->
<!-- s1_league3_game3_09_stac_1368708038&#45;&gt;s1_league3_game3_09_stac_1368708041 -->
<!-- s1_league3_game3_09_stac_1368708044 -->
<g id="node5" class="node">
<title>s1_league3_game3_09_stac_1368708044</title>
<g id="a_node5"><a xlink:title="5 &#160;nareik15 &#160;can give you 2 wood for one of each">
<ellipse fill="black" stroke="black" cx="50" cy="-119.5" rx="3.5" ry="3.5"/>
</a>
</g>
</g>
<!-- s1_league3_game3_09_stac_1368708041&#45;&gt;s1_league3_game3_09_stac_1368708044 -->
<g id="edge6" class="edge">
<title>s1_league3_game3_09_stac_1368708041&#45;&gt;s1_league3_game3_09_stac_1368708044</title>
<g id="a_edge6"><a xlink:title="Question_answer_pair">
<path fill="none" stroke="#12ffff" d="M50,-140.68C50,-137.58 50,-132.47 50,-128.16"/>
<polygon fill="#12ffff" stroke="#12ffff" points="51.75,-128.06 50,-123.06 48.25,-128.06 51.75,-128.06"/>
</a>
</g>
</g>
<!-- s1_league3_game3_09_stac_1368708047 -->
<g id="node6" class="node">
<title>s1_league3_game3_09_stac_1368708047</title>
<g id="a_node6"><a xlink:title="6 &#160;yiin &#160;clay">
<ellipse fill="black" stroke="black" cx="50" cy="-94.5" rx="3.5" ry="3.5"/>
</a>
</g>
</g>
<!-- s1_league3_game3_09_stac_1368708044&#45;&gt;s1_league3_game3_09_stac_1368708047 -->
<g id="edge7" class="edge">
<title>s1_league3_game3_09_stac_1368708044&#45;&gt;s1_league3_game3_09_stac_1368708047</title>
<g id="a_edge7"><a xlink:title="Question_answer_pair">
<path fill="none" stroke="#12ffff" d="M50,-115.68C50,-112.58 50,-107.47 50,-103.16"/>
<polygon fill="#12ffff" stroke="#12ffff" points="51.75,-103.06 50,-98.06 48.25,-103.06 51.75,-103.06"/>
</a>
</g>
</g>
<!-- s1_league3_game3_09_stac_1368708050 -->
<g id="node7" class="node">
<title>s1_league3_game3_09_stac_1368708050</title>
<g id="a_node7"><a xlink:title="7 &#160;inca &#160;deal kieran">
<ellipse fill="black" stroke="black" cx="50" cy="-69.5" rx="3.5" ry="3.5"/>
</a>
</g>
</g>
<!-- s1_league3_game3_09_stac_1368708047&#45;&gt;s1_league3_game3_09_stac_1368708050 -->
<g id="edge8" class="edge">
<title>s1_league3_game3_09_stac_1368708047&#45;&gt;s1_league3_game3_09_stac_1368708050</title>
<g id="a_edge8"><a xlink:title="Question_answer_pair">
<path fill="none" stroke="#12ffff" d="M50,-90.68C50,-87.58 50,-82.47 50,-78.16"/>
<polygon fill="#12ffff" stroke="#12ffff" points="51.75,-78.06 50,-73.06 48.25,-78.06 51.75,-78.06"/>
</a>
</g>
</g>
<!-- s1_league3_game3_09_stac_1368708053 -->
<g id="node8" class="node">
<title>s1_league3_game3_09_stac_1368708053</title>
<g id="a_node8"><a xlink:title="8 &#160;inca &#160;sorry yin">
<ellipse fill="black" stroke="black" cx="50" cy="-44.5" rx="3.5" ry="3.5"/>
</a>
</g>
</g>
<!-- s1_league3_game3_09_stac_1368708050&#45;&gt;s1_league3_game3_09_stac_1368708053 -->
<g id="edge9" class="edge">
<title>s1_league3_game3_09_stac_1368708050&#45;&gt;s1_league3_game3_09_stac_1368708053</title>
<g id="a_edge9"><a xlink:title="Comment">
<path fill="none" stroke="#ff8200" d="M50,-65.68C50,-62.58 50,-57.47 50,-53.16"/>
<polygon fill="#ff8200" stroke="#ff8200" points="51.75,-53.06 50,-48.06 48.25,-53.06 51.75,-53.06"/>
</a>
</g>
</g>
<!-- s1_league3_game3_09_stac_1368708056 -->
<g id="node9" class="node">
<title>s1_league3_game3_09_stac_1368708056</title>
<g id="a_node9"><a xlink:title="9 &#160;yiin &#160;no problem">
<ellipse fill="black" stroke="black" cx="50" cy="-19.5" rx="3.5" ry="3.5"/>
</a>
</g>
</g>
<!-- s1_league3_game3_09_stac_1368708053&#45;&gt;s1_league3_game3_09_stac_1368708056 -->
<g id="edge10" class="edge">
<title>s1_league3_game3_09_stac_1368708053&#45;&gt;s1_league3_game3_09_stac_1368708056</title>
<g id="a_edge10"><a xlink:title="Comment">
<path fill="none" stroke="#ff8200" d="M50,-40.68C50,-37.58 50,-32.47 50,-28.16"/>
<polygon fill="#ff8200" stroke="#ff8200" points="51.75,-28.06 50,-23.06 48.25,-28.06 51.75,-28.06"/>
</a>
</g>
</g>
</g>
</svg>
