<?xml version="1.0" encoding="UTF-8" standalone="no"?>
<!DOCTYPE svg PUBLIC "-//W3C//DTD SVG 1.1//EN"
 "http://www.w3.org/Graphics/SVG/1.1/DTD/svg11.dtd">
<!-- Generated by graphviz version 3.0.0 (20220226.1711)
 -->
<!-- Title: 9_s1_league3_game3_566 Pages: 1 -->
<svg width="93pt" height="120pt"
 viewBox="0.00 0.00 93.00 120.00" xmlns="http://www.w3.org/2000/svg" xmlns:xlink="http://www.w3.org/1999/xlink">
<g id="graph0" class="graph" transform="scale(1 1) rotate(0) translate(4 116)">
<title>9_s1_league3_game3_566</title>
<polygon fill="white" stroke="transparent" points="-4,4 -4,-116 89,-116 89,4 -4,4"/>
<g id="clust1" class="cluster">
<title>cluster_9_s1_league3_game3_566</title>
<polygon fill="none" stroke="black" points="8,-8 8,-104 77,-104 77,-8 8,-8"/>
<text text-anchor="middle" x="26.5" y="-88.8" font-family="Times,serif" font-size="14.00">566</text>
</g>
<!-- s1_league3_game3_09_stac_1368708060 -->
<g id="node1" class="node">
<title>s1_league3_game3_09_stac_1368708060</title>
<g id="a_node1"><a xlink:title="1 &#160;yiin &#160;anyone got clay">
<ellipse fill="black" stroke="black" cx="30" cy="-69.5" rx="3.5" ry="3.5"/>
</a>
</g>
</g>
<!-- 1_0 -->
<!-- s1_league3_game3_09_stac_1368708060&#45;&gt;1_0 -->
<!-- s1_league3_game3_09_stac_1368708063 -->
<g id="node3" class="node">
<title>s1_league3_game3_09_stac_1368708063</title>
<g id="a_node3"><a xlink:title="2 &#160;inca &#160;not any more, sorry">
<ellipse fill="black" stroke="black" cx="20" cy="-44.5" rx="3.5" ry="3.5"/>
</a>
</g>
</g>
<!-- s1_league3_game3_09_stac_1368708060&#45;&gt;s1_league3_game3_09_stac_1368708063 -->
<g id="edge4" class="edge">
<title>s1_league3_game3_09_stac_1368708060&#45;&gt;s1_league3_game3_09_stac_1368708063</title>
<g id="a_edge4"><a xlink:title="Question_answer_pair">
<path fill="none" stroke="#12ffff" d="M28.93,-66.04C27.54,-62.84 25.05,-57.12 23.06,-52.53"/>
<polygon fill="#12ffff" stroke="#12ffff" points="24.63,-51.76 21.03,-47.87 21.42,-53.16 24.63,-51.76"/>
</a>
</g>
</g>
<!-- s1_league3_game3_09_stac_1368708066 -->
<g id="node5" class="node">
<title>s1_league3_game3_09_stac_1368708066</title>
<g id="a_node5"><a xlink:title="3 &#160;nareik15 &#160;i have some,">
<ellipse fill="black" stroke="black" cx="30" cy="-19.5" rx="3.5" ry="3.5"/>
</a>
</g>
</g>
<!-- s1_league3_game3_09_stac_1368708060&#45;&gt;s1_league3_game3_09_stac_1368708066 -->
<g id="edge5" class="edge">
<title>s1_league3_game3_09_stac_1368708060&#45;&gt;s1_league3_game3_09_stac_1368708066</title>
<g id="a_edge5"><a xlink:title="Question_answer_pair">
<path fill="none" stroke="#12ffff" d="M33.01,-67.39C39.08,-64.95 52.66,-58.53 58,-48 63.46,-37.24 47.96,-28.2 37.89,-23.66"/>
<polygon fill="#12ffff" stroke="#12ffff" points="38.55,-22.04 33.26,-21.7 37.19,-25.26 38.55,-22.04"/>
</a>
</g>
</g>
<!-- 2_0 -->
<!-- s1_league3_game3_09_stac_1368708063&#45;&gt;2_0 -->
<!-- s1_league3_game3_09_stac_1368708063&#45;&gt;s1_league3_game3_09_stac_1368708066 -->
<!-- s1_league3_game3_09_stac_1368708067 -->
<g id="node6" class="node">
<title>s1_league3_game3_09_stac_1368708067</title>
<g id="a_node6"><a xlink:title="3 &#160;nareik15 &#160;do you have any ore">
<ellipse fill="black" stroke="black" cx="55" cy="-19.5" rx="3.5" ry="3.5"/>
</a>
</g>
</g>
<!-- s1_league3_game3_09_stac_1368708066&#45;&gt;s1_league3_game3_09_stac_1368708067 -->
<g id="edge6" class="edge">
<title>s1_league3_game3_09_stac_1368708066&#45;&gt;s1_league3_game3_09_stac_1368708067</title>
<g id="a_edge6"><a xlink:title="ParallNarrContinuationbackground">
<path fill="none" stroke="#0ab046" d="M33.52,-19.5C37.78,-19.5 42.04,-19.5 46.3,-19.5"/>
<polygon fill="#0ab046" stroke="#0ab046" points="46.31,-21.25 51.31,-19.5 46.31,-17.75 46.31,-21.25"/>
</a>
</g>
</g>
</g>
</svg>
