<?xml version="1.0" encoding="UTF-8" standalone="no"?>
<!DOCTYPE svg PUBLIC "-//W3C//DTD SVG 1.1//EN"
 "http://www.w3.org/Graphics/SVG/1.1/DTD/svg11.dtd">
<!-- Generated by graphviz version 3.0.0 (20220226.1711)
 -->
<!-- Title: 9_s1_league3_game3_568 Pages: 1 -->
<svg width="68pt" height="320pt"
 viewBox="0.00 0.00 68.00 320.00" xmlns="http://www.w3.org/2000/svg" xmlns:xlink="http://www.w3.org/1999/xlink">
<g id="graph0" class="graph" transform="scale(1 1) rotate(0) translate(4 316)">
<title>9_s1_league3_game3_568</title>
<polygon fill="white" stroke="transparent" points="-4,4 -4,-316 64,-316 64,4 -4,4"/>
<g id="clust1" class="cluster">
<title>cluster_9_s1_league3_game3_568</title>
<polygon fill="none" stroke="black" points="8,-8 8,-304 52,-304 52,-8 8,-8"/>
<text text-anchor="middle" x="26.5" y="-288.8" font-family="Times,serif" font-size="14.00">568</text>
</g>
<!-- s1_league3_game3_09_stac_1368708087 -->
<g id="node1" class="node">
<title>s1_league3_game3_09_stac_1368708087</title>
<g id="a_node1"><a xlink:title="1 &#160;Gaeilgeoir &#160;well played">
<ellipse fill="black" stroke="black" cx="30" cy="-269.5" rx="3.5" ry="3.5"/>
</a>
</g>
</g>
<!-- s1_league3_game3_09_stac_1368708090 -->
<g id="node2" class="node">
<title>s1_league3_game3_09_stac_1368708090</title>
<g id="a_node2"><a xlink:title="2 &#160;inca &#160;cheers, good game">
<ellipse fill="black" stroke="black" cx="20" cy="-244.5" rx="3.5" ry="3.5"/>
</a>
</g>
</g>
<!-- s1_league3_game3_09_stac_1368708087&#45;&gt;s1_league3_game3_09_stac_1368708090 -->
<g id="edge1" class="edge">
<title>s1_league3_game3_09_stac_1368708087&#45;&gt;s1_league3_game3_09_stac_1368708090</title>
<g id="a_edge1"><a xlink:title="Acknowledgement">
<path fill="none" stroke="#12ffff" d="M28.93,-266.04C27.54,-262.84 25.05,-257.12 23.06,-252.53"/>
<polygon fill="#12ffff" stroke="#12ffff" points="24.63,-251.76 21.03,-247.87 21.42,-253.16 24.63,-251.76"/>
</a>
</g>
</g>
<!-- s1_league3_game3_09_stac_1368708093 -->
<g id="node3" class="node">
<title>s1_league3_game3_09_stac_1368708093</title>
<g id="a_node3"><a xlink:title="3 &#160;nareik15 &#160;nice. good game">
<ellipse fill="black" stroke="black" cx="30" cy="-219.5" rx="3.5" ry="3.5"/>
</a>
</g>
</g>
<!-- s1_league3_game3_09_stac_1368708087&#45;&gt;s1_league3_game3_09_stac_1368708093 -->
<g id="edge2" class="edge">
<title>s1_league3_game3_09_stac_1368708087&#45;&gt;s1_league3_game3_09_stac_1368708093</title>
<g id="a_edge2"><a xlink:title="Comment">
<path fill="none" stroke="#ff8200" d="M30.59,-265.93C31.65,-261.07 33.67,-250.2 33,-241 32.69,-236.76 32.03,-232.07 31.4,-228.25"/>
<polygon fill="#ff8200" stroke="#ff8200" points="33.1,-227.76 30.51,-223.14 29.65,-228.37 33.1,-227.76"/>
</a>
</g>
</g>
<!-- s1_league3_game3_09_stac_1368708090&#45;&gt;s1_league3_game3_09_stac_1368708093 -->
<g id="edge3" class="edge">
<title>s1_league3_game3_09_stac_1368708090&#45;&gt;s1_league3_game3_09_stac_1368708093</title>
<g id="a_edge3"><a xlink:title="Acknowledgement">
<path fill="none" stroke="#12ffff" d="M21.07,-241.04C22.46,-237.84 24.95,-232.12 26.94,-227.53"/>
<polygon fill="#12ffff" stroke="#12ffff" points="28.58,-228.16 28.97,-222.87 25.37,-226.76 28.58,-228.16"/>
</a>
</g>
</g>
<!-- s1_league3_game3_09_stac_1368708096 -->
<g id="node4" class="node">
<title>s1_league3_game3_09_stac_1368708096</title>
<g id="a_node4"><a xlink:title="4 &#160;Gaeilgeoir &#160;talk soon">
<ellipse fill="black" stroke="black" cx="30" cy="-194.5" rx="3.5" ry="3.5"/>
</a>
</g>
</g>
<!-- s1_league3_game3_09_stac_1368708093&#45;&gt;s1_league3_game3_09_stac_1368708096 -->
<g id="edge4" class="edge">
<title>s1_league3_game3_09_stac_1368708093&#45;&gt;s1_league3_game3_09_stac_1368708096</title>
<g id="a_edge4"><a xlink:title="Acknowledgement">
<path fill="none" stroke="#12ffff" d="M30,-215.68C30,-212.58 30,-207.47 30,-203.16"/>
<polygon fill="#12ffff" stroke="#12ffff" points="31.75,-203.06 30,-198.06 28.25,-203.06 31.75,-203.06"/>
</a>
</g>
</g>
<!-- s1_league3_game3_09_stac_1368708099 -->
<g id="node5" class="node">
<title>s1_league3_game3_09_stac_1368708099</title>
<g id="a_node5"><a xlink:title="5 &#160;inca &#160;shall we say wednesday for the one without kieran?">
<ellipse fill="black" stroke="black" cx="30" cy="-169.5" rx="3.5" ry="3.5"/>
</a>
</g>
</g>
<!-- s1_league3_game3_09_stac_1368708096&#45;&gt;s1_league3_game3_09_stac_1368708099 -->
<g id="edge5" class="edge">
<title>s1_league3_game3_09_stac_1368708096&#45;&gt;s1_league3_game3_09_stac_1368708099</title>
<g id="a_edge5"><a xlink:title="Clarification_question">
<path fill="none" stroke="#ff40d1" d="M30,-190.68C30,-187.58 30,-182.47 30,-178.16"/>
<polygon fill="#ff40d1" stroke="#ff40d1" points="31.75,-178.06 30,-173.06 28.25,-178.06 31.75,-178.06"/>
</a>
</g>
</g>
<!-- s1_league3_game3_09_stac_1368708102 -->
<g id="node6" class="node">
<title>s1_league3_game3_09_stac_1368708102</title>
<g id="a_node6"><a xlink:title="6 &#160;Gaeilgeoir &#160;sounds fine to me">
<ellipse fill="black" stroke="black" cx="30" cy="-144.5" rx="3.5" ry="3.5"/>
</a>
</g>
</g>
<!-- s1_league3_game3_09_stac_1368708099&#45;&gt;s1_league3_game3_09_stac_1368708102 -->
<g id="edge6" class="edge">
<title>s1_league3_game3_09_stac_1368708099&#45;&gt;s1_league3_game3_09_stac_1368708102</title>
<g id="a_edge6"><a xlink:title="Question_answer_pair">
<path fill="none" stroke="#12ffff" d="M30,-165.68C30,-162.58 30,-157.47 30,-153.16"/>
<polygon fill="#12ffff" stroke="#12ffff" points="31.75,-153.06 30,-148.06 28.25,-153.06 31.75,-153.06"/>
</a>
</g>
</g>
<!-- s1_league3_game3_09_stac_1368708105 -->
<g id="node7" class="node">
<title>s1_league3_game3_09_stac_1368708105</title>
<g id="a_node7"><a xlink:title="7 &#160;Gaeilgeoir &#160;time?">
<ellipse fill="black" stroke="black" cx="20" cy="-119.5" rx="3.5" ry="3.5"/>
</a>
</g>
</g>
<!-- s1_league3_game3_09_stac_1368708102&#45;&gt;s1_league3_game3_09_stac_1368708105 -->
<g id="edge7" class="edge">
<title>s1_league3_game3_09_stac_1368708102&#45;&gt;s1_league3_game3_09_stac_1368708105</title>
<g id="a_edge7"><a xlink:title="ParallNarrContinuationbackground">
<path fill="none" stroke="#0ab046" d="M28.93,-141.04C27.54,-137.84 25.05,-132.12 23.06,-127.53"/>
<polygon fill="#0ab046" stroke="#0ab046" points="24.63,-126.76 21.03,-122.87 21.42,-128.16 24.63,-126.76"/>
</a>
</g>
</g>
<!-- s1_league3_game3_09_stac_1368708108 -->
<g id="node8" class="node">
<title>s1_league3_game3_09_stac_1368708108</title>
<g id="a_node8"><a xlink:title="8 &#160;inca &#160;cool, any time&#39;s fine for me, 8 again?">
<ellipse fill="black" stroke="black" cx="30" cy="-94.5" rx="3.5" ry="3.5"/>
</a>
</g>
</g>
<!-- s1_league3_game3_09_stac_1368708102&#45;&gt;s1_league3_game3_09_stac_1368708108 -->
<g id="edge8" class="edge">
<title>s1_league3_game3_09_stac_1368708102&#45;&gt;s1_league3_game3_09_stac_1368708108</title>
<g id="a_edge8"><a xlink:title="Clarification_question">
<path fill="none" stroke="#ff40d1" d="M30.59,-140.93C31.65,-136.07 33.67,-125.2 33,-116 32.69,-111.76 32.03,-107.07 31.4,-103.25"/>
<polygon fill="#ff40d1" stroke="#ff40d1" points="33.1,-102.76 30.51,-98.14 29.65,-103.37 33.1,-102.76"/>
</a>
</g>
</g>
<!-- s1_league3_game3_09_stac_1368708105&#45;&gt;s1_league3_game3_09_stac_1368708108 -->
<g id="edge9" class="edge">
<title>s1_league3_game3_09_stac_1368708105&#45;&gt;s1_league3_game3_09_stac_1368708108</title>
<g id="a_edge9"><a xlink:title="Clarification_question">
<path fill="none" stroke="#ff40d1" d="M21.07,-116.04C22.46,-112.84 24.95,-107.12 26.94,-102.53"/>
<polygon fill="#ff40d1" stroke="#ff40d1" points="28.58,-103.16 28.97,-97.87 25.37,-101.76 28.58,-103.16"/>
</a>
</g>
</g>
<!-- s1_league3_game3_09_stac_1368708111 -->
<g id="node9" class="node">
<title>s1_league3_game3_09_stac_1368708111</title>
<g id="a_node9"><a xlink:title="9 &#160;Gaeilgeoir &#160;yay">
<ellipse fill="black" stroke="black" cx="30" cy="-69.5" rx="3.5" ry="3.5"/>
</a>
</g>
</g>
<!-- s1_league3_game3_09_stac_1368708108&#45;&gt;s1_league3_game3_09_stac_1368708111 -->
<g id="edge10" class="edge">
<title>s1_league3_game3_09_stac_1368708108&#45;&gt;s1_league3_game3_09_stac_1368708111</title>
<g id="a_edge10"><a xlink:title="Question_answer_pair">
<path fill="none" stroke="#12ffff" d="M30,-90.68C30,-87.58 30,-82.47 30,-78.16"/>
<polygon fill="#12ffff" stroke="#12ffff" points="31.75,-78.06 30,-73.06 28.25,-78.06 31.75,-78.06"/>
</a>
</g>
</g>
<!-- s1_league3_game3_09_stac_1368708114 -->
<g id="node10" class="node">
<title>s1_league3_game3_09_stac_1368708114</title>
<g id="a_node10"><a xlink:title="10 &#160;Gaeilgeoir &#160;can&#39;t wait">
<ellipse fill="black" stroke="black" cx="30" cy="-44.5" rx="3.5" ry="3.5"/>
</a>
</g>
</g>
<!-- s1_league3_game3_09_stac_1368708111&#45;&gt;s1_league3_game3_09_stac_1368708114 -->
<g id="edge11" class="edge">
<title>s1_league3_game3_09_stac_1368708111&#45;&gt;s1_league3_game3_09_stac_1368708114</title>
<g id="a_edge11"><a xlink:title="ParallNarrContinuationbackground">
<path fill="none" stroke="#0ab046" d="M30,-65.68C30,-62.58 30,-57.47 30,-53.16"/>
<polygon fill="#0ab046" stroke="#0ab046" points="31.75,-53.06 30,-48.06 28.25,-53.06 31.75,-53.06"/>
</a>
</g>
</g>
<!-- s1_league3_game3_09_stac_1368708117 -->
<g id="node11" class="node">
<title>s1_league3_game3_09_stac_1368708117</title>
<g id="a_node11"><a xlink:title="11 &#160;inca &#160;cool, see you then!">
<ellipse fill="black" stroke="black" cx="30" cy="-19.5" rx="3.5" ry="3.5"/>
</a>
</g>
</g>
<!-- s1_league3_game3_09_stac_1368708114&#45;&gt;s1_league3_game3_09_stac_1368708117 -->
<g id="edge12" class="edge">
<title>s1_league3_game3_09_stac_1368708114&#45;&gt;s1_league3_game3_09_stac_1368708117</title>
<g id="a_edge12"><a xlink:title="Acknowledgement">
<path fill="none" stroke="#12ffff" d="M30,-40.68C30,-37.58 30,-32.47 30,-28.16"/>
<polygon fill="#12ffff" stroke="#12ffff" points="31.75,-28.06 30,-23.06 28.25,-28.06 31.75,-28.06"/>
</a>
</g>
</g>
</g>
</svg>
