<?xml version="1.0" encoding="UTF-8" standalone="no"?>
<!DOCTYPE svg PUBLIC "-//W3C//DTD SVG 1.1//EN"
 "http://www.w3.org/Graphics/SVG/1.1/DTD/svg11.dtd">
<!-- Generated by graphviz version 3.0.0 (20220226.1711)
 -->
<!-- Title: 1_s1_league3_game3_546 Pages: 1 -->
<svg width="73pt" height="145pt"
 viewBox="0.00 0.00 73.00 145.00" xmlns="http://www.w3.org/2000/svg" xmlns:xlink="http://www.w3.org/1999/xlink">
<g id="graph0" class="graph" transform="scale(1 1) rotate(0) translate(4 141)">
<title>1_s1_league3_game3_546</title>
<polygon fill="white" stroke="transparent" points="-4,4 -4,-141 69,-141 69,4 -4,4"/>
<g id="clust1" class="cluster">
<title>cluster_1_s1_league3_game3_546</title>
<polygon fill="none" stroke="black" points="8,-8 8,-129 57,-129 57,-8 8,-8"/>
<text text-anchor="middle" x="26.5" y="-113.8" font-family="Times,serif" font-size="14.00">546</text>
</g>
<!-- s1_league3_game3_01_stac_1368708120 -->
<g id="node1" class="node">
<title>s1_league3_game3_01_stac_1368708120</title>
<g id="a_node1"><a xlink:title="3 &#160;yiin &#160;nope sry">
<ellipse fill="black" stroke="black" cx="20" cy="-44.5" rx="3.5" ry="3.5"/>
</a>
</g>
</g>
<!-- 3_0 -->
<!-- s1_league3_game3_01_stac_1368708120&#45;&gt;3_0 -->
<!-- s1_league3_game3_01_stac_1368708123 -->
<g id="node3" class="node">
<title>s1_league3_game3_01_stac_1368708123</title>
<g id="a_node3"><a xlink:title="4 &#160;Gaeilgeoir &#160;deal">
<ellipse fill="black" stroke="black" cx="20" cy="-19.5" rx="3.5" ry="3.5"/>
</a>
</g>
</g>
<!-- s1_league3_game3_01_stac_1368708120&#45;&gt;s1_league3_game3_01_stac_1368708123 -->
<g id="edge8" class="edge">
<title>s1_league3_game3_01_stac_1368708120&#45;&gt;s1_league3_game3_01_stac_1368708123</title>
<g id="a_edge8"><a xlink:title="Acknowledgement">
<path fill="none" stroke="#12ffff" d="M20,-40.68C20,-37.58 20,-32.47 20,-28.16"/>
<polygon fill="#12ffff" stroke="#12ffff" points="21.75,-28.06 20,-23.06 18.25,-28.06 21.75,-28.06"/>
</a>
</g>
</g>
<!-- 4_0 -->
<!-- s1_league3_game3_01_stac_1368708123&#45;&gt;4_0 -->
<!-- s1_league3_game3_01_stac_1368708112 -->
<g id="node5" class="node">
<title>s1_league3_game3_01_stac_1368708112</title>
<g id="a_node5"><a xlink:title="1 &#160;Gaeilgeoir &#160;anyone have wood?">
<ellipse fill="black" stroke="black" cx="20" cy="-94.5" rx="3.5" ry="3.5"/>
</a>
</g>
</g>
<!-- s1_league3_game3_01_stac_1368708113 -->
<g id="node6" class="node">
<title>s1_league3_game3_01_stac_1368708113</title>
<g id="a_node6"><a xlink:title="1 &#160;Gaeilgeoir &#160;I can spare sheep, ore or wheat?">
<ellipse fill="black" stroke="black" cx="45" cy="-94.5" rx="3.5" ry="3.5"/>
</a>
</g>
</g>
<!-- s1_league3_game3_01_stac_1368708112&#45;&gt;s1_league3_game3_01_stac_1368708113 -->
<g id="edge4" class="edge">
<title>s1_league3_game3_01_stac_1368708112&#45;&gt;s1_league3_game3_01_stac_1368708113</title>
<g id="a_edge4"><a xlink:title="Elaboration">
<path fill="none" stroke="#a621c7" d="M23.52,-94.5C27.78,-94.5 32.04,-94.5 36.3,-94.5"/>
<polygon fill="#a621c7" stroke="#a621c7" points="36.31,-96.25 41.31,-94.5 36.31,-92.75 36.31,-96.25"/>
</a>
</g>
</g>
<!-- s1_league3_game3_01_stac_1368708116 -->
<g id="node7" class="node">
<title>s1_league3_game3_01_stac_1368708116</title>
<g id="a_node7"><a xlink:title="2 &#160;inca &#160;i&#39;ve got wood,">
<ellipse fill="black" stroke="black" cx="20" cy="-69.5" rx="3.5" ry="3.5"/>
</a>
</g>
</g>
<!-- s1_league3_game3_01_stac_1368708112&#45;&gt;s1_league3_game3_01_stac_1368708116 -->
<g id="edge5" class="edge">
<title>s1_league3_game3_01_stac_1368708112&#45;&gt;s1_league3_game3_01_stac_1368708116</title>
<g id="a_edge5"><a xlink:title="Question_answer_pair">
<path fill="none" stroke="#12ffff" d="M20,-90.68C20,-87.58 20,-82.47 20,-78.16"/>
<polygon fill="#12ffff" stroke="#12ffff" points="21.75,-78.06 20,-73.06 18.25,-78.06 21.75,-78.06"/>
</a>
</g>
</g>
<!-- s1_league3_game3_01_stac_1368708116&#45;&gt;s1_league3_game3_01_stac_1368708120 -->
<!-- s1_league3_game3_01_stac_1368708117 -->
<g id="node8" class="node">
<title>s1_league3_game3_01_stac_1368708117</title>
<g id="a_node8"><a xlink:title="2 &#160;inca &#160;trade for ore?">
<ellipse fill="black" stroke="black" cx="45" cy="-69.5" rx="3.5" ry="3.5"/>
</a>
</g>
</g>
<!-- s1_league3_game3_01_stac_1368708116&#45;&gt;s1_league3_game3_01_stac_1368708117 -->
<g id="edge6" class="edge">
<title>s1_league3_game3_01_stac_1368708116&#45;&gt;s1_league3_game3_01_stac_1368708117</title>
<g id="a_edge6"><a xlink:title="Elaboration">
<path fill="none" stroke="#a621c7" d="M23.52,-69.5C27.78,-69.5 32.04,-69.5 36.3,-69.5"/>
<polygon fill="#a621c7" stroke="#a621c7" points="36.31,-71.25 41.31,-69.5 36.31,-67.75 36.31,-71.25"/>
</a>
</g>
</g>
<!-- s1_league3_game3_01_stac_1368708117&#45;&gt;s1_league3_game3_01_stac_1368708120 -->
<g id="edge7" class="edge">
<title>s1_league3_game3_01_stac_1368708117&#45;&gt;s1_league3_game3_01_stac_1368708120</title>
<g id="a_edge7"><a xlink:title="Question_answer_pair">
<path fill="none" stroke="#12ffff" d="M42.69,-66.38C38.92,-62.9 31.3,-55.89 25.93,-50.96"/>
<polygon fill="#12ffff" stroke="#12ffff" points="26.95,-49.52 22.09,-47.42 24.58,-52.09 26.95,-49.52"/>
</a>
</g>
</g>
</g>
</svg>
