<?xml version="1.0" encoding="UTF-8" standalone="no"?>
<!DOCTYPE svg PUBLIC "-//W3C//DTD SVG 1.1//EN"
 "http://www.w3.org/Graphics/SVG/1.1/DTD/svg11.dtd">
<!-- Generated by graphviz version 3.0.0 (20220226.1711)
 -->
<!-- Title: 1_s1_league3_game3_548 Pages: 1 -->
<svg width="139pt" height="247pt"
 viewBox="0.00 0.00 139.00 247.19" xmlns="http://www.w3.org/2000/svg" xmlns:xlink="http://www.w3.org/1999/xlink">
<g id="graph0" class="graph" transform="scale(1 1) rotate(0) translate(4 243.19)">
<title>1_s1_league3_game3_548</title>
<polygon fill="white" stroke="transparent" points="-4,4 -4,-243.19 135,-243.19 135,4 -4,4"/>
<g id="clust1" class="cluster">
<title>cluster_1_s1_league3_game3_548</title>
<polygon fill="none" stroke="black" points="8,-8 8,-229 123,-229 123,-8 8,-8"/>
<text text-anchor="middle" x="26.5" y="-213.8" font-family="Times,serif" font-size="14.00">548</text>
</g>
<!-- s1_league3_game3_01_stac_1368708140 -->
<g id="node1" class="node">
<title>s1_league3_game3_01_stac_1368708140</title>
<g id="a_node1"><a xlink:title="1 &#160;yiin &#160;do anyone need ore">
<ellipse fill="black" stroke="black" cx="61" cy="-194.5" rx="3.5" ry="3.5"/>
</a>
</g>
</g>
<!-- 1_0 -->
<!-- s1_league3_game3_01_stac_1368708140&#45;&gt;1_0 -->
<!-- 1_1 -->
<!-- s1_league3_game3_01_stac_1368708140&#45;&gt;1_1 -->
<!-- s1_league3_game3_01_stac_1368708143 -->
<g id="node4" class="node">
<title>s1_league3_game3_01_stac_1368708143</title>
<g id="a_node4"><a xlink:title="2 &#160;inca &#160;i&#39;ll trade for sheep?">
<ellipse fill="black" stroke="black" cx="20" cy="-169.5" rx="3.5" ry="3.5"/>
</a>
</g>
</g>
<!-- s1_league3_game3_01_stac_1368708140&#45;&gt;s1_league3_game3_01_stac_1368708143 -->
<g id="edge19" class="edge">
<title>s1_league3_game3_01_stac_1368708140&#45;&gt;s1_league3_game3_01_stac_1368708143</title>
<g id="a_edge19"><a xlink:title="Q_Elab">
<path fill="none" stroke="#0d20ff" d="M58.31,-191.99C52.06,-188.48 36.37,-179.68 27.13,-174.5"/>
<polygon fill="#0d20ff" stroke="#0d20ff" points="27.97,-172.96 22.75,-172.04 26.26,-176.02 27.97,-172.96"/>
</a>
</g>
</g>
<!-- s1_league3_game3_01_stac_1368708154 -->
<g id="node14" class="node">
<title>s1_league3_game3_01_stac_1368708154</title>
<g id="a_node14"><a xlink:title="5 &#160;nareik15 &#160;if anyone has any">
<ellipse fill="black" stroke="black" cx="70" cy="-94.5" rx="3.5" ry="3.5"/>
</a>
</g>
</g>
<!-- s1_league3_game3_01_stac_1368708140&#45;&gt;s1_league3_game3_01_stac_1368708154 -->
<g id="edge24" class="edge">
<title>s1_league3_game3_01_stac_1368708140&#45;&gt;s1_league3_game3_01_stac_1368708154</title>
<g id="a_edge24"><a xlink:title="Question_answer_pair">
<path fill="none" stroke="#12ffff" d="M64.36,-192.74C71.83,-190.84 89.8,-185.19 98,-173 110.49,-154.43 102.66,-145.34 104,-123 104.19,-119.89 105.53,-118.71 104,-116 98.49,-106.25 86.28,-100.62 78.09,-97.8"/>
<polygon fill="#12ffff" stroke="#12ffff" points="78.49,-96.1 73.2,-96.29 77.46,-99.44 78.49,-96.1"/>
</a>
</g>
</g>
<!-- s1_league3_game3_01_stac_1368708152 -->
<g id="node23" class="node">
<title>s1_league3_game3_01_stac_1368708152</title>
<g id="a_node23"><a xlink:title="5 &#160;nareik15 &#160;i&#39;m ok for ore at the mo.">
<ellipse fill="black" stroke="black" cx="20" cy="-94.5" rx="3.5" ry="3.5"/>
</a>
</g>
</g>
<!-- s1_league3_game3_01_stac_1368708140&#45;&gt;s1_league3_game3_01_stac_1368708152 -->
<g id="edge22" class="edge">
<title>s1_league3_game3_01_stac_1368708140&#45;&gt;s1_league3_game3_01_stac_1368708152</title>
<g id="a_edge22"><a xlink:title="Question_answer_pair">
<path fill="none" stroke="#12ffff" d="M63.69,-192.02C68.63,-189.13 79,-182.19 83,-173 88.67,-159.96 89.91,-153.43 83,-141 75.63,-127.74 66.37,-131.79 54,-123 43.74,-115.71 32.51,-106.33 25.87,-100.63"/>
<polygon fill="#12ffff" stroke="#12ffff" points="27,-99.29 22.08,-97.33 24.71,-101.93 27,-99.29"/>
</a>
</g>
</g>
<!-- 2_0 -->
<!-- s1_league3_game3_01_stac_1368708143&#45;&gt;2_0 -->
<!-- 2_1 -->
<!-- s1_league3_game3_01_stac_1368708143&#45;&gt;2_1 -->
<!-- s1_league3_game3_01_stac_1368708146 -->
<g id="node7" class="node">
<title>s1_league3_game3_01_stac_1368708146</title>
<g id="a_node7"><a xlink:title="3 &#160;yiin &#160;yes thank you">
<ellipse fill="black" stroke="black" cx="20" cy="-144.5" rx="3.5" ry="3.5"/>
</a>
</g>
</g>
<!-- s1_league3_game3_01_stac_1368708143&#45;&gt;s1_league3_game3_01_stac_1368708146 -->
<g id="edge20" class="edge">
<title>s1_league3_game3_01_stac_1368708143&#45;&gt;s1_league3_game3_01_stac_1368708146</title>
<g id="a_edge20"><a xlink:title="Question_answer_pair">
<path fill="none" stroke="#12ffff" d="M20,-165.68C20,-162.58 20,-157.47 20,-153.16"/>
<polygon fill="#12ffff" stroke="#12ffff" points="21.75,-153.06 20,-148.06 18.25,-153.06 21.75,-153.06"/>
</a>
</g>
</g>
<!-- 3_0 -->
<!-- s1_league3_game3_01_stac_1368708146&#45;&gt;3_0 -->
<!-- 3_1 -->
<!-- s1_league3_game3_01_stac_1368708146&#45;&gt;3_1 -->
<!-- s1_league3_game3_01_stac_1368708149 -->
<g id="node10" class="node">
<title>s1_league3_game3_01_stac_1368708149</title>
<g id="a_node10"><a xlink:title="4 &#160;inca &#160;cool">
<ellipse fill="black" stroke="black" cx="20" cy="-119.5" rx="3.5" ry="3.5"/>
</a>
</g>
</g>
<!-- s1_league3_game3_01_stac_1368708146&#45;&gt;s1_league3_game3_01_stac_1368708149 -->
<g id="edge21" class="edge">
<title>s1_league3_game3_01_stac_1368708146&#45;&gt;s1_league3_game3_01_stac_1368708149</title>
<g id="a_edge21"><a xlink:title="Acknowledgement">
<path fill="none" stroke="#12ffff" d="M20,-140.68C20,-137.58 20,-132.47 20,-128.16"/>
<polygon fill="#12ffff" stroke="#12ffff" points="21.75,-128.06 20,-123.06 18.25,-128.06 21.75,-128.06"/>
</a>
</g>
</g>
<!-- 4_0 -->
<!-- s1_league3_game3_01_stac_1368708149&#45;&gt;4_0 -->
<!-- 4_1 -->
<!-- s1_league3_game3_01_stac_1368708149&#45;&gt;4_1 -->
<!-- s1_league3_game3_01_stac_1368708149&#45;&gt;s1_league3_game3_01_stac_1368708152 -->
<!-- s1_league3_game3_01_stac_1368708153 -->
<g id="node13" class="node">
<title>s1_league3_game3_01_stac_1368708153</title>
<g id="a_node13"><a xlink:title="5 &#160;nareik15 &#160;could do with some wheat though">
<ellipse fill="black" stroke="black" cx="45" cy="-94.5" rx="3.5" ry="3.5"/>
</a>
</g>
</g>
<!-- s1_league3_game3_01_stac_1368708153&#45;&gt;s1_league3_game3_01_stac_1368708154 -->
<!-- s1_league3_game3_01_stac_1368708157 -->
<g id="node15" class="node">
<title>s1_league3_game3_01_stac_1368708157</title>
<g id="a_node15"><a xlink:title="6 &#160;Gaeilgeoir &#160;sorry, I&#39;m no help">
<ellipse fill="black" stroke="black" cx="20" cy="-69.5" rx="3.5" ry="3.5"/>
</a>
</g>
</g>
<!-- s1_league3_game3_01_stac_1368708154&#45;&gt;s1_league3_game3_01_stac_1368708157 -->
<g id="edge25" class="edge">
<title>s1_league3_game3_01_stac_1368708154&#45;&gt;s1_league3_game3_01_stac_1368708157</title>
<g id="a_edge25"><a xlink:title="Question_answer_pair">
<path fill="none" stroke="#12ffff" d="M67.02,-92.13C59.36,-88.61 38.79,-79.14 27.56,-73.98"/>
<polygon fill="#12ffff" stroke="#12ffff" points="28.17,-72.33 22.9,-71.83 26.71,-75.51 28.17,-72.33"/>
</a>
</g>
</g>
<!-- s1_league3_game3_01_stac_1368708164 -->
<g id="node20" class="node">
<title>s1_league3_game3_01_stac_1368708164</title>
<g id="a_node20"><a xlink:title="8 &#160;inca &#160;no wheat here, sorry">
<ellipse fill="black" stroke="black" cx="50" cy="-19.5" rx="3.5" ry="3.5"/>
</a>
</g>
</g>
<!-- s1_league3_game3_01_stac_1368708154&#45;&gt;s1_league3_game3_01_stac_1368708164 -->
<g id="edge28" class="edge">
<title>s1_league3_game3_01_stac_1368708154&#45;&gt;s1_league3_game3_01_stac_1368708164</title>
<g id="a_edge28"><a xlink:title="Question_answer_pair">
<path fill="none" stroke="#12ffff" d="M73.09,-92.66C82.87,-89.86 112,-80.14 104,-66 96.34,-52.47 85.92,-57.98 74,-48 66.41,-41.65 59.14,-32.8 54.63,-26.88"/>
<polygon fill="#12ffff" stroke="#12ffff" points="55.93,-25.68 51.55,-22.7 53.11,-27.77 55.93,-25.68"/>
</a>
</g>
</g>
<!-- s1_league3_game3_01_stac_1368708160 -->
<g id="node24" class="node">
<title>s1_league3_game3_01_stac_1368708160</title>
<g id="a_node24"><a xlink:title="7 &#160;yiin &#160;yes">
<ellipse fill="black" stroke="black" cx="40" cy="-44.5" rx="3.5" ry="3.5"/>
</a>
</g>
</g>
<!-- s1_league3_game3_01_stac_1368708154&#45;&gt;s1_league3_game3_01_stac_1368708160 -->
<g id="edge26" class="edge">
<title>s1_league3_game3_01_stac_1368708154&#45;&gt;s1_league3_game3_01_stac_1368708160</title>
<g id="a_edge26"><a xlink:title="Question_answer_pair">
<path fill="none" stroke="#12ffff" d="M68.18,-91.44C65.05,-87.86 58.56,-80.16 54,-73 49.77,-66.36 45.78,-58.27 43.15,-52.6"/>
<polygon fill="#12ffff" stroke="#12ffff" points="44.67,-51.7 41.02,-47.86 41.48,-53.14 44.67,-51.7"/>
</a>
</g>
</g>
<!-- 6_0 -->
<!-- s1_league3_game3_01_stac_1368708157&#45;&gt;6_0 -->
<!-- 6_1 -->
<!-- s1_league3_game3_01_stac_1368708157&#45;&gt;6_1 -->
<!-- s1_league3_game3_01_stac_1368708157&#45;&gt;s1_league3_game3_01_stac_1368708160 -->
<!-- s1_league3_game3_01_stac_1368708161 -->
<g id="node18" class="node">
<title>s1_league3_game3_01_stac_1368708161</title>
<g id="a_node18"><a xlink:title="7 &#160;yiin &#160;i also need wheat :)">
<ellipse fill="black" stroke="black" cx="86" cy="-44.5" rx="3.5" ry="3.5"/>
</a>
</g>
</g>
<!-- 7_0 -->
<!-- s1_league3_game3_01_stac_1368708161&#45;&gt;7_0 -->
<!-- 8_0 -->
<!-- s1_league3_game3_01_stac_1368708164&#45;&gt;8_0 -->
<!-- 8_1 -->
<!-- s1_league3_game3_01_stac_1368708164&#45;&gt;8_1 -->
<!-- s1_league3_game3_01_stac_1368708152&#45;&gt;s1_league3_game3_01_stac_1368708153 -->
<g id="edge23" class="edge">
<title>s1_league3_game3_01_stac_1368708152&#45;&gt;s1_league3_game3_01_stac_1368708153</title>
<g id="a_edge23"><a xlink:title="ContrastCorrection">
<path fill="none" stroke="#ff7ecf" d="M23.52,-94.5C27.78,-94.5 32.04,-94.5 36.3,-94.5"/>
<polygon fill="#ff7ecf" stroke="#ff7ecf" points="36.31,-96.25 41.31,-94.5 36.31,-92.75 36.31,-96.25"/>
</a>
</g>
</g>
<!-- s1_league3_game3_01_stac_1368708152&#45;&gt;s1_league3_game3_01_stac_1368708157 -->
<!-- s1_league3_game3_01_stac_1368708160&#45;&gt;s1_league3_game3_01_stac_1368708161 -->
<g id="edge27" class="edge">
<title>s1_league3_game3_01_stac_1368708160&#45;&gt;s1_league3_game3_01_stac_1368708161</title>
<g id="a_edge27"><a xlink:title="ParallNarrContinuationbackground">
<path fill="none" stroke="#0ab046" d="M43.59,-44.5C54.8,-44.5 66,-44.5 77.21,-44.5"/>
<polygon fill="#0ab046" stroke="#0ab046" points="77.36,-46.25 82.36,-44.5 77.36,-42.75 77.36,-46.25"/>
</a>
</g>
</g>
<!-- s1_league3_game3_01_stac_1368708160&#45;&gt;s1_league3_game3_01_stac_1368708164 -->
</g>
</svg>
