<?xml version="1.0" encoding="UTF-8" standalone="no"?>
<!DOCTYPE svg PUBLIC "-//W3C//DTD SVG 1.1//EN"
 "http://www.w3.org/Graphics/SVG/1.1/DTD/svg11.dtd">
<!-- Generated by graphviz version 3.0.0 (20220226.1711)
 -->
<!-- Title: 2_s1_league3_game3_550 Pages: 1 -->
<svg width="68pt" height="470pt"
 viewBox="0.00 0.00 68.00 470.00" xmlns="http://www.w3.org/2000/svg" xmlns:xlink="http://www.w3.org/1999/xlink">
<g id="graph0" class="graph" transform="scale(1 1) rotate(0) translate(4 466)">
<title>2_s1_league3_game3_550</title>
<polygon fill="white" stroke="transparent" points="-4,4 -4,-466 64,-466 64,4 -4,4"/>
<g id="clust1" class="cluster">
<title>cluster_2_s1_league3_game3_550</title>
<polygon fill="none" stroke="black" points="8,-8 8,-454 52,-454 52,-8 8,-8"/>
<text text-anchor="middle" x="26.5" y="-438.8" font-family="Times,serif" font-size="14.00">550</text>
</g>
<!-- s1_league3_game3_02_stac_1368708082 -->
<g id="node1" class="node">
<title>s1_league3_game3_02_stac_1368708082</title>
<g id="a_node1"><a xlink:title="1 &#160;Gaeilgeoir &#160;Can anyone spare ore?">
<ellipse fill="black" stroke="black" cx="30" cy="-419.5" rx="3.5" ry="3.5"/>
</a>
</g>
</g>
<!-- s1_league3_game3_02_stac_1368708085 -->
<g id="node2" class="node">
<title>s1_league3_game3_02_stac_1368708085</title>
<g id="a_node2"><a xlink:title="2 &#160;nareik15 &#160;yeah">
<ellipse fill="black" stroke="black" cx="20" cy="-394.5" rx="3.5" ry="3.5"/>
</a>
</g>
</g>
<!-- s1_league3_game3_02_stac_1368708082&#45;&gt;s1_league3_game3_02_stac_1368708085 -->
<g id="edge6" class="edge">
<title>s1_league3_game3_02_stac_1368708082&#45;&gt;s1_league3_game3_02_stac_1368708085</title>
<g id="a_edge6"><a xlink:title="Question_answer_pair">
<path fill="none" stroke="#12ffff" d="M28.93,-416.04C27.54,-412.84 25.05,-407.12 23.06,-402.53"/>
<polygon fill="#12ffff" stroke="#12ffff" points="24.63,-401.76 21.03,-397.87 21.42,-403.16 24.63,-401.76"/>
</a>
</g>
</g>
<!-- s1_league3_game3_02_stac_1368708091 -->
<g id="node4" class="node">
<title>s1_league3_game3_02_stac_1368708091</title>
<g id="a_node4"><a xlink:title="4 &#160;yiin &#160;i got ore">
<ellipse fill="black" stroke="black" cx="40" cy="-344.5" rx="3.5" ry="3.5"/>
</a>
</g>
</g>
<!-- s1_league3_game3_02_stac_1368708082&#45;&gt;s1_league3_game3_02_stac_1368708091 -->
<g id="edge8" class="edge">
<title>s1_league3_game3_02_stac_1368708082&#45;&gt;s1_league3_game3_02_stac_1368708091</title>
<g id="a_edge8"><a xlink:title="Question_answer_pair">
<path fill="none" stroke="#12ffff" d="M30.4,-415.85C30.98,-411.94 32.1,-404.41 33,-398 35.21,-382.17 37.65,-363.62 38.98,-353.35"/>
<polygon fill="#12ffff" stroke="#12ffff" points="40.73,-353.53 39.63,-348.35 37.26,-353.08 40.73,-353.53"/>
</a>
</g>
</g>
<!-- s1_league3_game3_02_stac_1368708088 -->
<g id="node3" class="node">
<title>s1_league3_game3_02_stac_1368708088</title>
<g id="a_node3"><a xlink:title="3 &#160;Gaeilgeoir &#160;Sorry, sheep">
<ellipse fill="black" stroke="black" cx="20" cy="-369.5" rx="3.5" ry="3.5"/>
</a>
</g>
</g>
<!-- s1_league3_game3_02_stac_1368708085&#45;&gt;s1_league3_game3_02_stac_1368708088 -->
<g id="edge7" class="edge">
<title>s1_league3_game3_02_stac_1368708085&#45;&gt;s1_league3_game3_02_stac_1368708088</title>
<g id="a_edge7"><a xlink:title="Comment">
<path fill="none" stroke="#ff8200" d="M20,-390.68C20,-387.58 20,-382.47 20,-378.16"/>
<polygon fill="#ff8200" stroke="#ff8200" points="21.75,-378.06 20,-373.06 18.25,-378.06 21.75,-378.06"/>
</a>
</g>
</g>
<!-- s1_league3_game3_02_stac_1368708088&#45;&gt;s1_league3_game3_02_stac_1368708091 -->
<!-- s1_league3_game3_02_stac_1368708094 -->
<g id="node5" class="node">
<title>s1_league3_game3_02_stac_1368708094</title>
<g id="a_node5"><a xlink:title="5 &#160;Gaeilgeoir &#160;Anyone have sheep?">
<ellipse fill="black" stroke="black" cx="30" cy="-319.5" rx="3.5" ry="3.5"/>
</a>
</g>
</g>
<!-- s1_league3_game3_02_stac_1368708088&#45;&gt;s1_league3_game3_02_stac_1368708094 -->
<g id="edge9" class="edge">
<title>s1_league3_game3_02_stac_1368708088&#45;&gt;s1_league3_game3_02_stac_1368708094</title>
<g id="a_edge9"><a xlink:title="ParallNarrContinuationbackground">
<path fill="none" stroke="#0ab046" d="M20.54,-365.92C21.99,-358.95 26.03,-339.55 28.34,-328.49"/>
<polygon fill="#0ab046" stroke="#0ab046" points="30.1,-328.58 29.41,-323.33 26.68,-327.87 30.1,-328.58"/>
</a>
</g>
</g>
<!-- s1_league3_game3_02_stac_1368708091&#45;&gt;s1_league3_game3_02_stac_1368708094 -->
<!-- s1_league3_game3_02_stac_1368708097 -->
<g id="node6" class="node">
<title>s1_league3_game3_02_stac_1368708097</title>
<g id="a_node6"><a xlink:title="6 &#160;Gaeilgeoir &#160;I can give ore or wheat">
<ellipse fill="black" stroke="black" cx="20" cy="-294.5" rx="3.5" ry="3.5"/>
</a>
</g>
</g>
<!-- s1_league3_game3_02_stac_1368708094&#45;&gt;s1_league3_game3_02_stac_1368708097 -->
<g id="edge10" class="edge">
<title>s1_league3_game3_02_stac_1368708094&#45;&gt;s1_league3_game3_02_stac_1368708097</title>
<g id="a_edge10"><a xlink:title="Elaboration">
<path fill="none" stroke="#a621c7" d="M28.93,-316.04C27.54,-312.84 25.05,-307.12 23.06,-302.53"/>
<polygon fill="#a621c7" stroke="#a621c7" points="24.63,-301.76 21.03,-297.87 21.42,-303.16 24.63,-301.76"/>
</a>
</g>
</g>
<!-- s1_league3_game3_02_stac_1368708100 -->
<g id="node7" class="node">
<title>s1_league3_game3_02_stac_1368708100</title>
<g id="a_node7"><a xlink:title="7 &#160;nareik15 &#160;i&#39;ve got sheep aswell">
<ellipse fill="black" stroke="black" cx="30" cy="-269.5" rx="3.5" ry="3.5"/>
</a>
</g>
</g>
<!-- s1_league3_game3_02_stac_1368708094&#45;&gt;s1_league3_game3_02_stac_1368708100 -->
<g id="edge11" class="edge">
<title>s1_league3_game3_02_stac_1368708094&#45;&gt;s1_league3_game3_02_stac_1368708100</title>
<g id="a_edge11"><a xlink:title="Question_answer_pair">
<path fill="none" stroke="#12ffff" d="M30.51,-315.86C31.24,-311.97 32.53,-304.46 33,-298 33.49,-291.25 32.53,-283.59 31.57,-278.07"/>
<polygon fill="#12ffff" stroke="#12ffff" points="33.27,-277.64 30.59,-273.07 29.83,-278.32 33.27,-277.64"/>
</a>
</g>
</g>
<!-- s1_league3_game3_02_stac_1368708097&#45;&gt;s1_league3_game3_02_stac_1368708100 -->
<!-- s1_league3_game3_02_stac_1368708103 -->
<g id="node8" class="node">
<title>s1_league3_game3_02_stac_1368708103</title>
<g id="a_node8"><a xlink:title="8 &#160;Gaeilgeoir &#160;need ore or wheat?">
<ellipse fill="black" stroke="black" cx="30" cy="-244.5" rx="3.5" ry="3.5"/>
</a>
</g>
</g>
<!-- s1_league3_game3_02_stac_1368708100&#45;&gt;s1_league3_game3_02_stac_1368708103 -->
<g id="edge12" class="edge">
<title>s1_league3_game3_02_stac_1368708100&#45;&gt;s1_league3_game3_02_stac_1368708103</title>
<g id="a_edge12"><a xlink:title="Q_Elab">
<path fill="none" stroke="#0d20ff" d="M30,-265.68C30,-262.58 30,-257.47 30,-253.16"/>
<polygon fill="#0d20ff" stroke="#0d20ff" points="31.75,-253.06 30,-248.06 28.25,-253.06 31.75,-253.06"/>
</a>
</g>
</g>
<!-- s1_league3_game3_02_stac_1368708106 -->
<g id="node9" class="node">
<title>s1_league3_game3_02_stac_1368708106</title>
<g id="a_node9"><a xlink:title="9 &#160;yiin &#160;i need wheat">
<ellipse fill="black" stroke="black" cx="30" cy="-219.5" rx="3.5" ry="3.5"/>
</a>
</g>
</g>
<!-- s1_league3_game3_02_stac_1368708103&#45;&gt;s1_league3_game3_02_stac_1368708106 -->
<g id="edge13" class="edge">
<title>s1_league3_game3_02_stac_1368708103&#45;&gt;s1_league3_game3_02_stac_1368708106</title>
<g id="a_edge13"><a xlink:title="Question_answer_pair">
<path fill="none" stroke="#12ffff" d="M30,-240.68C30,-237.58 30,-232.47 30,-228.16"/>
<polygon fill="#12ffff" stroke="#12ffff" points="31.75,-228.06 30,-223.06 28.25,-228.06 31.75,-228.06"/>
</a>
</g>
</g>
<!-- s1_league3_game3_02_stac_1368708109 -->
<g id="node10" class="node">
<title>s1_league3_game3_02_stac_1368708109</title>
<g id="a_node10"><a xlink:title="10 &#160;nareik15 &#160;wheat">
<ellipse fill="black" stroke="black" cx="20" cy="-194.5" rx="3.5" ry="3.5"/>
</a>
</g>
</g>
<!-- s1_league3_game3_02_stac_1368708106&#45;&gt;s1_league3_game3_02_stac_1368708109 -->
<g id="edge14" class="edge">
<title>s1_league3_game3_02_stac_1368708106&#45;&gt;s1_league3_game3_02_stac_1368708109</title>
<g id="a_edge14"><a xlink:title="ContrastCorrection">
<path fill="none" stroke="#ff7ecf" d="M28.93,-216.04C27.54,-212.84 25.05,-207.12 23.06,-202.53"/>
<polygon fill="#ff7ecf" stroke="#ff7ecf" points="24.63,-201.76 21.03,-197.87 21.42,-203.16 24.63,-201.76"/>
</a>
</g>
</g>
<!-- s1_league3_game3_02_stac_1368708112 -->
<g id="node11" class="node">
<title>s1_league3_game3_02_stac_1368708112</title>
<g id="a_node11"><a xlink:title="11 &#160;Gaeilgeoir &#160;no trade?">
<ellipse fill="black" stroke="black" cx="30" cy="-169.5" rx="3.5" ry="3.5"/>
</a>
</g>
</g>
<!-- s1_league3_game3_02_stac_1368708106&#45;&gt;s1_league3_game3_02_stac_1368708112 -->
<g id="edge15" class="edge">
<title>s1_league3_game3_02_stac_1368708106&#45;&gt;s1_league3_game3_02_stac_1368708112</title>
<g id="a_edge15"><a xlink:title="Q_Elab">
<path fill="none" stroke="#0d20ff" d="M30.59,-215.93C31.65,-211.07 33.67,-200.2 33,-191 32.69,-186.76 32.03,-182.07 31.4,-178.25"/>
<polygon fill="#0d20ff" stroke="#0d20ff" points="33.1,-177.76 30.51,-173.14 29.65,-178.37 33.1,-177.76"/>
</a>
</g>
</g>
<!-- s1_league3_game3_02_stac_1368708109&#45;&gt;s1_league3_game3_02_stac_1368708112 -->
<!-- s1_league3_game3_02_stac_1368708115 -->
<g id="node12" class="node">
<title>s1_league3_game3_02_stac_1368708115</title>
<g id="a_node12"><a xlink:title="12 &#160;yiin &#160;you have the highest point">
<ellipse fill="black" stroke="black" cx="30" cy="-144.5" rx="3.5" ry="3.5"/>
</a>
</g>
</g>
<!-- s1_league3_game3_02_stac_1368708112&#45;&gt;s1_league3_game3_02_stac_1368708115 -->
<g id="edge16" class="edge">
<title>s1_league3_game3_02_stac_1368708112&#45;&gt;s1_league3_game3_02_stac_1368708115</title>
<g id="a_edge16"><a xlink:title="Question_answer_pair">
<path fill="none" stroke="#12ffff" d="M30,-165.68C30,-162.58 30,-157.47 30,-153.16"/>
<polygon fill="#12ffff" stroke="#12ffff" points="31.75,-153.06 30,-148.06 28.25,-153.06 31.75,-153.06"/>
</a>
</g>
</g>
<!-- s1_league3_game3_02_stac_1368708118 -->
<g id="node13" class="node">
<title>s1_league3_game3_02_stac_1368708118</title>
<g id="a_node13"><a xlink:title="13 &#160;nareik15 &#160;i think the resources were backwards( me getting ore) might be wrong">
<ellipse fill="black" stroke="black" cx="30" cy="-119.5" rx="3.5" ry="3.5"/>
</a>
</g>
</g>
<!-- s1_league3_game3_02_stac_1368708115&#45;&gt;s1_league3_game3_02_stac_1368708118 -->
<g id="edge17" class="edge">
<title>s1_league3_game3_02_stac_1368708115&#45;&gt;s1_league3_game3_02_stac_1368708118</title>
<g id="a_edge17"><a xlink:title="ContrastCorrection">
<path fill="none" stroke="#ff7ecf" d="M30,-140.68C30,-137.58 30,-132.47 30,-128.16"/>
<polygon fill="#ff7ecf" stroke="#ff7ecf" points="31.75,-128.06 30,-123.06 28.25,-128.06 31.75,-128.06"/>
</a>
</g>
</g>
<!-- s1_league3_game3_02_stac_1368708121 -->
<g id="node14" class="node">
<title>s1_league3_game3_02_stac_1368708121</title>
<g id="a_node14"><a xlink:title="14 &#160;Gaeilgeoir &#160;I&#39;ll try again">
<ellipse fill="black" stroke="black" cx="30" cy="-94.5" rx="3.5" ry="3.5"/>
</a>
</g>
</g>
<!-- s1_league3_game3_02_stac_1368708118&#45;&gt;s1_league3_game3_02_stac_1368708121 -->
<g id="edge18" class="edge">
<title>s1_league3_game3_02_stac_1368708118&#45;&gt;s1_league3_game3_02_stac_1368708121</title>
<g id="a_edge18"><a xlink:title="ExplanationResult">
<path fill="none" stroke="#a62139" d="M30,-115.68C30,-112.58 30,-107.47 30,-103.16"/>
<polygon fill="#a62139" stroke="#a62139" points="31.75,-103.06 30,-98.06 28.25,-103.06 31.75,-103.06"/>
</a>
</g>
</g>
<!-- s1_league3_game3_02_stac_1368708124 -->
<g id="node15" class="node">
<title>s1_league3_game3_02_stac_1368708124</title>
<g id="a_node15"><a xlink:title="15 &#160;nareik15 &#160;cool :)">
<ellipse fill="black" stroke="black" cx="30" cy="-69.5" rx="3.5" ry="3.5"/>
</a>
</g>
</g>
<!-- s1_league3_game3_02_stac_1368708121&#45;&gt;s1_league3_game3_02_stac_1368708124 -->
<g id="edge19" class="edge">
<title>s1_league3_game3_02_stac_1368708121&#45;&gt;s1_league3_game3_02_stac_1368708124</title>
<g id="a_edge19"><a xlink:title="Acknowledgement">
<path fill="none" stroke="#12ffff" d="M30,-90.68C30,-87.58 30,-82.47 30,-78.16"/>
<polygon fill="#12ffff" stroke="#12ffff" points="31.75,-78.06 30,-73.06 28.25,-78.06 31.75,-78.06"/>
</a>
</g>
</g>
<!-- s1_league3_game3_02_stac_1368708127 -->
<g id="node16" class="node">
<title>s1_league3_game3_02_stac_1368708127</title>
<g id="a_node16"><a xlink:title="16 &#160;Gaeilgeoir &#160;I&#39;m definitely giving wheat">
<ellipse fill="black" stroke="black" cx="30" cy="-44.5" rx="3.5" ry="3.5"/>
</a>
</g>
</g>
<!-- s1_league3_game3_02_stac_1368708124&#45;&gt;s1_league3_game3_02_stac_1368708127 -->
<!-- s1_league3_game3_02_stac_1368708130 -->
<g id="node17" class="node">
<title>s1_league3_game3_02_stac_1368708130</title>
<g id="a_node17"><a xlink:title="17 &#160;Gaeilgeoir &#160;I have no sheep :)">
<ellipse fill="black" stroke="black" cx="30" cy="-19.5" rx="3.5" ry="3.5"/>
</a>
</g>
</g>
<!-- s1_league3_game3_02_stac_1368708127&#45;&gt;s1_league3_game3_02_stac_1368708130 -->
<g id="edge20" class="edge">
<title>s1_league3_game3_02_stac_1368708127&#45;&gt;s1_league3_game3_02_stac_1368708130</title>
<g id="a_edge20"><a xlink:title="Elaboration">
<path fill="none" stroke="#a621c7" d="M30,-40.68C30,-37.58 30,-32.47 30,-28.16"/>
<polygon fill="#a621c7" stroke="#a621c7" points="31.75,-28.06 30,-23.06 28.25,-28.06 31.75,-28.06"/>
</a>
</g>
</g>
</g>
</svg>
