<?xml version="1.0" encoding="UTF-8" standalone="no"?>
<!DOCTYPE svg PUBLIC "-//W3C//DTD SVG 1.1//EN"
 "http://www.w3.org/Graphics/SVG/1.1/DTD/svg11.dtd">
<!-- Generated by graphviz version 3.0.0 (20220226.1711)
 -->
<!-- Title: 1_s1_league3_game3_543 Pages: 1 -->
<svg width="114pt" height="520pt"
 viewBox="0.00 0.00 114.00 520.00" xmlns="http://www.w3.org/2000/svg" xmlns:xlink="http://www.w3.org/1999/xlink">
<g id="graph0" class="graph" transform="scale(1 1) rotate(0) translate(4 516)">
<title>1_s1_league3_game3_543</title>
<polygon fill="white" stroke="transparent" points="-4,4 -4,-516 110,-516 110,4 -4,4"/>
<g id="clust1" class="cluster">
<title>cluster_1_s1_league3_game3_543</title>
<polygon fill="none" stroke="black" points="8,-8 8,-504 98,-504 98,-8 8,-8"/>
<text text-anchor="middle" x="26.5" y="-488.8" font-family="Times,serif" font-size="14.00">543</text>
</g>
<!-- s1_league3_game3_01_stac_1463674458 -->
<g id="node1" class="node">
<title>s1_league3_game3_01_stac_1463674458</title>
<g id="a_node1"><a xlink:title="1 &#160;inca &#160;Hey">
<ellipse fill="black" stroke="black" cx="30" cy="-469.5" rx="3.5" ry="3.5"/>
</a>
</g>
</g>
<!-- 1_0 -->
<!-- s1_league3_game3_01_stac_1463674458&#45;&gt;1_0 -->
<!-- s1_league3_game3_01_stac_1463674461 -->
<g id="node3" class="node">
<title>s1_league3_game3_01_stac_1463674461</title>
<g id="a_node3"><a xlink:title="2 &#160;nareik15 &#160;hi">
<ellipse fill="black" stroke="black" cx="46" cy="-444.5" rx="3.5" ry="3.5"/>
</a>
</g>
</g>
<!-- s1_league3_game3_01_stac_1463674458&#45;&gt;s1_league3_game3_01_stac_1463674461 -->
<g id="edge25" class="edge">
<title>s1_league3_game3_01_stac_1463674458&#45;&gt;s1_league3_game3_01_stac_1463674461</title>
<g id="a_edge25"><a xlink:title="Acknowledgement">
<path fill="none" stroke="#12ffff" d="M31.71,-466.04C33.99,-462.77 38.09,-456.87 41.32,-452.23"/>
<polygon fill="#12ffff" stroke="#12ffff" points="42.93,-452.98 44.35,-447.87 40.06,-450.98 42.93,-452.98"/>
</a>
</g>
</g>
<!-- s1_league3_game3_01_stac_1368708031 -->
<g id="node5" class="node">
<title>s1_league3_game3_01_stac_1368708031</title>
<g id="a_node5"><a xlink:title="3 &#160;Gaeilgeoir &#160;evening">
<ellipse fill="black" stroke="black" cx="43" cy="-419.5" rx="3.5" ry="3.5"/>
</a>
</g>
</g>
<!-- s1_league3_game3_01_stac_1463674458&#45;&gt;s1_league3_game3_01_stac_1368708031 -->
<g id="edge26" class="edge">
<title>s1_league3_game3_01_stac_1463674458&#45;&gt;s1_league3_game3_01_stac_1368708031</title>
<g id="a_edge26"><a xlink:title="Acknowledgement">
<path fill="none" stroke="#12ffff" d="M30.15,-465.87C30.47,-460.92 31.45,-449.9 34,-441 35.35,-436.27 37.57,-431.21 39.46,-427.3"/>
<polygon fill="#12ffff" stroke="#12ffff" points="41.03,-428.07 41.73,-422.82 37.91,-426.49 41.03,-428.07"/>
</a>
</g>
</g>
<!-- 2_0 -->
<!-- s1_league3_game3_01_stac_1463674461&#45;&gt;2_0 -->
<!-- s1_league3_game3_01_stac_1463674461&#45;&gt;s1_league3_game3_01_stac_1368708031 -->
<g id="edge27" class="edge">
<title>s1_league3_game3_01_stac_1463674461&#45;&gt;s1_league3_game3_01_stac_1368708031</title>
<g id="a_edge27"><a xlink:title="Acknowledgement">
<path fill="none" stroke="#12ffff" d="M45.63,-440.68C45.23,-437.58 44.56,-432.47 44,-428.16"/>
<polygon fill="#12ffff" stroke="#12ffff" points="45.72,-427.79 43.33,-423.06 42.25,-428.24 45.72,-427.79"/>
</a>
</g>
</g>
<!-- 3_0 -->
<!-- s1_league3_game3_01_stac_1368708031&#45;&gt;3_0 -->
<!-- s1_league3_game3_01_stac_1368708034 -->
<g id="node7" class="node">
<title>s1_league3_game3_01_stac_1368708034</title>
<g id="a_node7"><a xlink:title="4 &#160;inca &#160;Hey">
<ellipse fill="black" stroke="black" cx="40" cy="-394.5" rx="3.5" ry="3.5"/>
</a>
</g>
</g>
<!-- s1_league3_game3_01_stac_1368708031&#45;&gt;s1_league3_game3_01_stac_1368708034 -->
<g id="edge28" class="edge">
<title>s1_league3_game3_01_stac_1368708031&#45;&gt;s1_league3_game3_01_stac_1368708034</title>
<g id="a_edge28"><a xlink:title="ParallNarrContinuationbackground">
<path fill="none" stroke="#0ab046" d="M42.63,-415.68C42.23,-412.58 41.56,-407.47 41,-403.16"/>
<polygon fill="#0ab046" stroke="#0ab046" points="42.72,-402.79 40.33,-398.06 39.25,-403.24 42.72,-402.79"/>
</a>
</g>
</g>
<!-- s1_league3_game3_01_stac_1368708040 -->
<g id="node11" class="node">
<title>s1_league3_game3_01_stac_1368708040</title>
<g id="a_node11"><a xlink:title="6 &#160;nareik15 &#160;hi">
<ellipse fill="black" stroke="black" cx="43" cy="-344.5" rx="3.5" ry="3.5"/>
</a>
</g>
</g>
<!-- s1_league3_game3_01_stac_1368708031&#45;&gt;s1_league3_game3_01_stac_1368708040 -->
<g id="edge29" class="edge">
<title>s1_league3_game3_01_stac_1368708031&#45;&gt;s1_league3_game3_01_stac_1368708040</title>
<g id="a_edge29"><a xlink:title="Acknowledgement">
<path fill="none" stroke="#12ffff" d="M45.2,-416.72C51.9,-411.14 71.99,-393.17 79,-373 83.71,-359.47 63.48,-351.27 51.43,-347.66"/>
<polygon fill="#12ffff" stroke="#12ffff" points="51.6,-345.9 46.31,-346.26 50.67,-349.27 51.6,-345.9"/>
</a>
</g>
</g>
<!-- 4_0 -->
<!-- s1_league3_game3_01_stac_1368708034&#45;&gt;4_0 -->
<!-- s1_league3_game3_01_stac_1368708037 -->
<g id="node9" class="node">
<title>s1_league3_game3_01_stac_1368708037</title>
<g id="a_node9"><a xlink:title="5 &#160;Gaeilgeoir &#160;How are you today?">
<ellipse fill="black" stroke="black" cx="20" cy="-369.5" rx="3.5" ry="3.5"/>
</a>
</g>
</g>
<!-- s1_league3_game3_01_stac_1368708034&#45;&gt;s1_league3_game3_01_stac_1368708037 -->
<g id="edge30" class="edge">
<title>s1_league3_game3_01_stac_1368708034&#45;&gt;s1_league3_game3_01_stac_1368708037</title>
<g id="a_edge30"><a xlink:title="Clarification_question">
<path fill="none" stroke="#ff40d1" d="M38.15,-391.38C35.31,-388.11 29.75,-381.71 25.52,-376.85"/>
<polygon fill="#ff40d1" stroke="#ff40d1" points="26.74,-375.59 22.14,-372.96 24.1,-377.88 26.74,-375.59"/>
</a>
</g>
</g>
<!-- s1_league3_game3_01_stac_1368708034&#45;&gt;s1_league3_game3_01_stac_1368708040 -->
<g id="edge31" class="edge">
<title>s1_league3_game3_01_stac_1368708034&#45;&gt;s1_league3_game3_01_stac_1368708040</title>
<g id="a_edge31"><a xlink:title="Acknowledgement">
<path fill="none" stroke="#12ffff" d="M40.16,-390.92C40.6,-383.95 41.81,-364.55 42.5,-353.49"/>
<polygon fill="#12ffff" stroke="#12ffff" points="44.26,-353.43 42.82,-348.33 40.76,-353.21 44.26,-353.43"/>
</a>
</g>
</g>
<!-- 5_0 -->
<!-- s1_league3_game3_01_stac_1368708037&#45;&gt;5_0 -->
<!-- s1_league3_game3_01_stac_1368708037&#45;&gt;s1_league3_game3_01_stac_1368708040 -->
<!-- s1_league3_game3_01_stac_1368708043 -->
<g id="node37" class="node">
<title>s1_league3_game3_01_stac_1368708043</title>
<g id="a_node37"><a xlink:title="7 &#160;inca &#160;Not bad thanks,">
<ellipse fill="black" stroke="black" cx="29" cy="-319.5" rx="3.5" ry="3.5"/>
</a>
</g>
</g>
<!-- s1_league3_game3_01_stac_1368708037&#45;&gt;s1_league3_game3_01_stac_1368708043 -->
<g id="edge32" class="edge">
<title>s1_league3_game3_01_stac_1368708037&#45;&gt;s1_league3_game3_01_stac_1368708043</title>
<g id="a_edge32"><a xlink:title="Question_answer_pair">
<path fill="none" stroke="#12ffff" d="M20.48,-365.92C21.79,-358.95 25.43,-339.55 27.5,-328.49"/>
<polygon fill="#12ffff" stroke="#12ffff" points="29.27,-328.57 28.47,-323.33 25.83,-327.92 29.27,-328.57"/>
</a>
</g>
</g>
<!-- 6_0 -->
<!-- s1_league3_game3_01_stac_1368708040&#45;&gt;6_0 -->
<!-- s1_league3_game3_01_stac_1368708040&#45;&gt;s1_league3_game3_01_stac_1368708043 -->
<!-- s1_league3_game3_01_stac_1368708047 -->
<g id="node13" class="node">
<title>s1_league3_game3_01_stac_1368708047</title>
<g id="a_node13"><a xlink:title="8 &#160;Gaeilgeoir &#160;Yeah, pretty good">
<ellipse fill="black" stroke="black" cx="52" cy="-294.5" rx="3.5" ry="3.5"/>
</a>
</g>
</g>
<!-- 8_0 -->
<!-- s1_league3_game3_01_stac_1368708047&#45;&gt;8_0 -->
<!-- s1_league3_game3_01_stac_1368708050 -->
<g id="node15" class="node">
<title>s1_league3_game3_01_stac_1368708050</title>
<g id="a_node15"><a xlink:title="9 &#160;Gaeilgeoir &#160;:)">
<ellipse fill="black" stroke="black" cx="52" cy="-269.5" rx="3.5" ry="3.5"/>
</a>
</g>
</g>
<!-- s1_league3_game3_01_stac_1368708047&#45;&gt;s1_league3_game3_01_stac_1368708050 -->
<g id="edge36" class="edge">
<title>s1_league3_game3_01_stac_1368708047&#45;&gt;s1_league3_game3_01_stac_1368708050</title>
<g id="a_edge36"><a xlink:title="ParallNarrContinuationbackground">
<path fill="none" stroke="#0ab046" d="M52,-290.68C52,-287.58 52,-282.47 52,-278.16"/>
<polygon fill="#0ab046" stroke="#0ab046" points="53.75,-278.06 52,-273.06 50.25,-278.06 53.75,-278.06"/>
</a>
</g>
</g>
<!-- 9_0 -->
<!-- s1_league3_game3_01_stac_1368708050&#45;&gt;9_0 -->
<!-- s1_league3_game3_01_stac_1368708053 -->
<g id="node17" class="node">
<title>s1_league3_game3_01_stac_1368708053</title>
<g id="a_node17"><a xlink:title="10 &#160;inca &#160;Getting a bit of a deja vu here...">
<ellipse fill="black" stroke="black" cx="34" cy="-244.5" rx="3.5" ry="3.5"/>
</a>
</g>
</g>
<!-- s1_league3_game3_01_stac_1368708050&#45;&gt;s1_league3_game3_01_stac_1368708053 -->
<!-- 10_0 -->
<!-- s1_league3_game3_01_stac_1368708053&#45;&gt;10_0 -->
<!-- s1_league3_game3_01_stac_1368708056 -->
<g id="node19" class="node">
<title>s1_league3_game3_01_stac_1368708056</title>
<g id="a_node19"><a xlink:title="11 &#160;Gaeilgeoir &#160;Yin we&#39;re waiting for, I suppose...">
<ellipse fill="black" stroke="black" cx="34" cy="-219.5" rx="3.5" ry="3.5"/>
</a>
</g>
</g>
<!-- s1_league3_game3_01_stac_1368708053&#45;&gt;s1_league3_game3_01_stac_1368708056 -->
<g id="edge37" class="edge">
<title>s1_league3_game3_01_stac_1368708053&#45;&gt;s1_league3_game3_01_stac_1368708056</title>
<g id="a_edge37"><a xlink:title="Elaboration">
<path fill="none" stroke="#a621c7" d="M34,-240.68C34,-237.58 34,-232.47 34,-228.16"/>
<polygon fill="#a621c7" stroke="#a621c7" points="35.75,-228.06 34,-223.06 32.25,-228.06 35.75,-228.06"/>
</a>
</g>
</g>
<!-- 11_0 -->
<!-- s1_league3_game3_01_stac_1368708056&#45;&gt;11_0 -->
<!-- s1_league3_game3_01_stac_1368708059 -->
<g id="node21" class="node">
<title>s1_league3_game3_01_stac_1368708059</title>
<g id="a_node21"><a xlink:title="12 &#160;inca &#160;Indeed">
<ellipse fill="black" stroke="black" cx="34" cy="-194.5" rx="3.5" ry="3.5"/>
</a>
</g>
</g>
<!-- s1_league3_game3_01_stac_1368708056&#45;&gt;s1_league3_game3_01_stac_1368708059 -->
<g id="edge38" class="edge">
<title>s1_league3_game3_01_stac_1368708056&#45;&gt;s1_league3_game3_01_stac_1368708059</title>
<g id="a_edge38"><a xlink:title="Acknowledgement">
<path fill="none" stroke="#12ffff" d="M34,-215.68C34,-212.58 34,-207.47 34,-203.16"/>
<polygon fill="#12ffff" stroke="#12ffff" points="35.75,-203.06 34,-198.06 32.25,-203.06 35.75,-203.06"/>
</a>
</g>
</g>
<!-- 12_0 -->
<!-- s1_league3_game3_01_stac_1368708059&#45;&gt;12_0 -->
<!-- s1_league3_game3_01_stac_1368708062 -->
<g id="node23" class="node">
<title>s1_league3_game3_01_stac_1368708062</title>
<g id="a_node23"><a xlink:title="13 &#160;Gaeilgeoir &#160;great minds, inca...">
<ellipse fill="black" stroke="black" cx="48" cy="-169.5" rx="3.5" ry="3.5"/>
</a>
</g>
</g>
<!-- s1_league3_game3_01_stac_1368708059&#45;&gt;s1_league3_game3_01_stac_1368708062 -->
<g id="edge39" class="edge">
<title>s1_league3_game3_01_stac_1368708059&#45;&gt;s1_league3_game3_01_stac_1368708062</title>
<g id="a_edge39"><a xlink:title="Comment">
<path fill="none" stroke="#ff8200" d="M35.5,-191.04C37.49,-187.77 41.08,-181.87 43.9,-177.23"/>
<polygon fill="#ff8200" stroke="#ff8200" points="45.45,-178.06 46.55,-172.87 42.46,-176.24 45.45,-178.06"/>
</a>
</g>
</g>
<!-- s1_league3_game3_01_stac_1368708065 -->
<g id="node25" class="node">
<title>s1_league3_game3_01_stac_1368708065</title>
<g id="a_node25"><a xlink:title="14 &#160;inca &#160;Ah he says he&#39;s coming">
<ellipse fill="black" stroke="black" cx="44" cy="-144.5" rx="3.5" ry="3.5"/>
</a>
</g>
</g>
<!-- s1_league3_game3_01_stac_1368708059&#45;&gt;s1_league3_game3_01_stac_1368708065 -->
<g id="edge40" class="edge">
<title>s1_league3_game3_01_stac_1368708059&#45;&gt;s1_league3_game3_01_stac_1368708065</title>
<g id="a_edge40"><a xlink:title="ParallNarrContinuationbackground">
<path fill="none" stroke="#0ab046" d="M33.93,-190.88C33.86,-185.95 33.97,-174.96 36,-166 37.04,-161.39 38.94,-156.46 40.63,-152.58"/>
<polygon fill="#0ab046" stroke="#0ab046" points="42.32,-153.1 42.83,-147.83 39.14,-151.63 42.32,-153.1"/>
</a>
</g>
</g>
<!-- 13_0 -->
<!-- s1_league3_game3_01_stac_1368708062&#45;&gt;13_0 -->
<!-- s1_league3_game3_01_stac_1368708062&#45;&gt;s1_league3_game3_01_stac_1368708065 -->
<!-- 14_0 -->
<!-- s1_league3_game3_01_stac_1368708065&#45;&gt;14_0 -->
<!-- s1_league3_game3_01_stac_1368708068 -->
<g id="node27" class="node">
<title>s1_league3_game3_01_stac_1368708068</title>
<g id="a_node27"><a xlink:title="15 &#160;inca &#160;Hey">
<ellipse fill="black" stroke="black" cx="40" cy="-119.5" rx="3.5" ry="3.5"/>
</a>
</g>
</g>
<!-- s1_league3_game3_01_stac_1368708065&#45;&gt;s1_league3_game3_01_stac_1368708068 -->
<g id="edge41" class="edge">
<title>s1_league3_game3_01_stac_1368708065&#45;&gt;s1_league3_game3_01_stac_1368708068</title>
<g id="a_edge41"><a xlink:title="ParallNarrContinuationbackground">
<path fill="none" stroke="#0ab046" d="M43.51,-140.68C42.97,-137.58 42.08,-132.47 41.33,-128.16"/>
<polygon fill="#0ab046" stroke="#0ab046" points="43.03,-127.69 40.45,-123.06 39.58,-128.29 43.03,-127.69"/>
</a>
</g>
</g>
<!-- s1_league3_game3_01_stac_1368708071 -->
<g id="node33" class="node">
<title>s1_league3_game3_01_stac_1368708071</title>
<g id="a_node33"><a xlink:title="18 &#160;inca &#160;Good luck all">
<ellipse fill="black" stroke="black" cx="40" cy="-44.5" rx="3.5" ry="3.5"/>
</a>
</g>
</g>
<!-- s1_league3_game3_01_stac_1368708065&#45;&gt;s1_league3_game3_01_stac_1368708071 -->
<g id="edge42" class="edge">
<title>s1_league3_game3_01_stac_1368708065&#45;&gt;s1_league3_game3_01_stac_1368708071</title>
<g id="a_edge42"><a xlink:title="ParallNarrContinuationbackground">
<path fill="none" stroke="#0ab046" d="M45.38,-141C50.64,-131.15 68.6,-94.15 58,-66 55.69,-59.88 50.64,-54.4 46.47,-50.65"/>
<polygon fill="#0ab046" stroke="#0ab046" points="47.43,-49.17 42.47,-47.31 45.19,-51.85 47.43,-49.17"/>
</a>
</g>
</g>
<!-- 15_0 -->
<!-- s1_league3_game3_01_stac_1368708068&#45;&gt;15_0 -->
<!-- s1_league3_game3_01_stac_1463674504 -->
<g id="node29" class="node">
<title>s1_league3_game3_01_stac_1463674504</title>
<g id="a_node29"><a xlink:title="16 &#160;yiin &#160;yes">
<ellipse fill="black" stroke="black" cx="20" cy="-94.5" rx="3.5" ry="3.5"/>
</a>
</g>
</g>
<!-- s1_league3_game3_01_stac_1368708068&#45;&gt;s1_league3_game3_01_stac_1463674504 -->
<g id="edge43" class="edge">
<title>s1_league3_game3_01_stac_1368708068&#45;&gt;s1_league3_game3_01_stac_1463674504</title>
<g id="a_edge43"><a xlink:title="Acknowledgement">
<path fill="none" stroke="#12ffff" d="M38.15,-116.38C35.31,-113.11 29.75,-106.71 25.52,-101.85"/>
<polygon fill="#12ffff" stroke="#12ffff" points="26.74,-100.59 22.14,-97.96 24.1,-102.88 26.74,-100.59"/>
</a>
</g>
</g>
<!-- 16_0 -->
<!-- s1_league3_game3_01_stac_1463674504&#45;&gt;16_0 -->
<!-- s1_league3_game3_01_stac_1463674507 -->
<g id="node31" class="node">
<title>s1_league3_game3_01_stac_1463674507</title>
<g id="a_node31"><a xlink:title="17 &#160;yiin &#160;finally">
<ellipse fill="black" stroke="black" cx="20" cy="-69.5" rx="3.5" ry="3.5"/>
</a>
</g>
</g>
<!-- s1_league3_game3_01_stac_1463674504&#45;&gt;s1_league3_game3_01_stac_1463674507 -->
<g id="edge44" class="edge">
<title>s1_league3_game3_01_stac_1463674504&#45;&gt;s1_league3_game3_01_stac_1463674507</title>
<g id="a_edge44"><a xlink:title="Elaboration">
<path fill="none" stroke="#a621c7" d="M20,-90.68C20,-87.58 20,-82.47 20,-78.16"/>
<polygon fill="#a621c7" stroke="#a621c7" points="21.75,-78.06 20,-73.06 18.25,-78.06 21.75,-78.06"/>
</a>
</g>
</g>
<!-- 17_0 -->
<!-- s1_league3_game3_01_stac_1463674507&#45;&gt;17_0 -->
<!-- s1_league3_game3_01_stac_1463674507&#45;&gt;s1_league3_game3_01_stac_1368708071 -->
<!-- 18_0 -->
<!-- s1_league3_game3_01_stac_1368708071&#45;&gt;18_0 -->
<!-- s1_league3_game3_01_stac_1368708074 -->
<g id="node35" class="node">
<title>s1_league3_game3_01_stac_1368708074</title>
<g id="a_node35"><a xlink:title="19 &#160;Gaeilgeoir &#160;you too">
<ellipse fill="black" stroke="black" cx="40" cy="-19.5" rx="3.5" ry="3.5"/>
</a>
</g>
</g>
<!-- s1_league3_game3_01_stac_1368708071&#45;&gt;s1_league3_game3_01_stac_1368708074 -->
<g id="edge45" class="edge">
<title>s1_league3_game3_01_stac_1368708071&#45;&gt;s1_league3_game3_01_stac_1368708074</title>
<g id="a_edge45"><a xlink:title="ParallNarrContinuationbackground">
<path fill="none" stroke="#0ab046" d="M40,-40.68C40,-37.58 40,-32.47 40,-28.16"/>
<polygon fill="#0ab046" stroke="#0ab046" points="41.75,-28.06 40,-23.06 38.25,-28.06 41.75,-28.06"/>
</a>
</g>
</g>
<!-- 19_0 -->
<!-- s1_league3_game3_01_stac_1368708074&#45;&gt;19_0 -->
<!-- s1_league3_game3_01_stac_1368708043&#45;&gt;s1_league3_game3_01_stac_1368708047 -->
<!-- s1_league3_game3_01_stac_1368708043&#45;&gt;s1_league3_game3_01_stac_1368708053 -->
<g id="edge34" class="edge">
<title>s1_league3_game3_01_stac_1368708043&#45;&gt;s1_league3_game3_01_stac_1368708053</title>
<g id="a_edge34"><a xlink:title="Comment">
<path fill="none" stroke="#ff8200" d="M29.19,-315.73C29.89,-305.52 32.34,-269.78 33.45,-253.59"/>
<polygon fill="#ff8200" stroke="#ff8200" points="35.21,-253.38 33.81,-248.28 31.72,-253.14 35.21,-253.38"/>
</a>
</g>
</g>
<!-- s1_league3_game3_01_stac_1368708044 -->
<g id="node38" class="node">
<title>s1_league3_game3_01_stac_1368708044</title>
<g id="a_node38"><a xlink:title="7 &#160;inca &#160;you?">
<ellipse fill="black" stroke="black" cx="54" cy="-319.5" rx="3.5" ry="3.5"/>
</a>
</g>
</g>
<!-- s1_league3_game3_01_stac_1368708043&#45;&gt;s1_league3_game3_01_stac_1368708044 -->
<g id="edge33" class="edge">
<title>s1_league3_game3_01_stac_1368708043&#45;&gt;s1_league3_game3_01_stac_1368708044</title>
<g id="a_edge33"><a xlink:title="Clarification_question">
<path fill="none" stroke="#ff40d1" d="M32.52,-319.5C36.78,-319.5 41.04,-319.5 45.3,-319.5"/>
<polygon fill="#ff40d1" stroke="#ff40d1" points="45.31,-321.25 50.31,-319.5 45.31,-317.75 45.31,-321.25"/>
</a>
</g>
</g>
<!-- s1_league3_game3_01_stac_1368708044&#45;&gt;s1_league3_game3_01_stac_1368708047 -->
<g id="edge35" class="edge">
<title>s1_league3_game3_01_stac_1368708044&#45;&gt;s1_league3_game3_01_stac_1368708047</title>
<g id="a_edge35"><a xlink:title="Question_answer_pair">
<path fill="none" stroke="#12ffff" d="M53.75,-315.68C53.49,-312.58 53.04,-307.47 52.67,-303.16"/>
<polygon fill="#12ffff" stroke="#12ffff" points="54.4,-302.89 52.22,-298.06 50.91,-303.19 54.4,-302.89"/>
</a>
</g>
</g>
</g>
</svg>
