<?xml version="1.0" encoding="UTF-8" standalone="no"?>
<!DOCTYPE svg PUBLIC "-//W3C//DTD SVG 1.1//EN"
 "http://www.w3.org/Graphics/SVG/1.1/DTD/svg11.dtd">
<!-- Generated by graphviz version 3.0.0 (20220226.1711)
 -->
<!-- Title: 5_s1_league3_game3_555 Pages: 1 -->
<svg width="133pt" height="495pt"
 viewBox="0.00 0.00 133.00 495.00" xmlns="http://www.w3.org/2000/svg" xmlns:xlink="http://www.w3.org/1999/xlink">
<g id="graph0" class="graph" transform="scale(1 1) rotate(0) translate(4 491)">
<title>5_s1_league3_game3_555</title>
<polygon fill="white" stroke="transparent" points="-4,4 -4,-491 129,-491 129,4 -4,4"/>
<g id="clust1" class="cluster">
<title>cluster_5_s1_league3_game3_555</title>
<polygon fill="none" stroke="black" points="8,-8 8,-479 117,-479 117,-8 8,-8"/>
<text text-anchor="middle" x="26.5" y="-463.8" font-family="Times,serif" font-size="14.00">555</text>
</g>
<!-- s1_league3_game3_05_stac_1368708052 -->
<g id="node1" class="node">
<title>s1_league3_game3_05_stac_1368708052</title>
<g id="a_node1"><a xlink:title="1 &#160;yiin &#160;if only someone can roll a 3">
<ellipse fill="black" stroke="black" cx="51" cy="-444.5" rx="3.5" ry="3.5"/>
</a>
</g>
</g>
<!-- 1_0 -->
<!-- s1_league3_game3_05_stac_1368708052&#45;&gt;1_0 -->
<!-- s1_league3_game3_05_stac_1368708055 -->
<g id="node3" class="node">
<title>s1_league3_game3_05_stac_1368708055</title>
<g id="a_node3"><a xlink:title="2 &#160;Gaeilgeoir &#160;so true">
<ellipse fill="black" stroke="black" cx="27" cy="-419.5" rx="3.5" ry="3.5"/>
</a>
</g>
</g>
<!-- s1_league3_game3_05_stac_1368708052&#45;&gt;s1_league3_game3_05_stac_1368708055 -->
<g id="edge26" class="edge">
<title>s1_league3_game3_05_stac_1368708052&#45;&gt;s1_league3_game3_05_stac_1368708055</title>
<g id="a_edge26"><a xlink:title="Acknowledgement">
<path fill="none" stroke="#12ffff" d="M48.79,-441.38C45.16,-437.9 37.84,-430.89 32.69,-425.96"/>
<polygon fill="#12ffff" stroke="#12ffff" points="33.83,-424.62 29,-422.42 31.4,-427.14 33.83,-424.62"/>
</a>
</g>
</g>
<!-- s1_league3_game3_05_stac_1368708066 -->
<g id="node9" class="node">
<title>s1_league3_game3_05_stac_1368708066</title>
<g id="a_node9"><a xlink:title="5 &#160;nareik15 &#160;i&#39;m guessing nobody has any clay?">
<ellipse fill="black" stroke="black" cx="63" cy="-344.5" rx="3.5" ry="3.5"/>
</a>
</g>
</g>
<!-- s1_league3_game3_05_stac_1368708052&#45;&gt;s1_league3_game3_05_stac_1368708066 -->
<g id="edge27" class="edge">
<title>s1_league3_game3_05_stac_1368708052&#45;&gt;s1_league3_game3_05_stac_1368708066</title>
<g id="a_edge27"><a xlink:title="ParallNarrContinuationbackground">
<path fill="none" stroke="#0ab046" d="M53.14,-441.35C56.45,-437.85 62.66,-430.58 65,-423 72.65,-398.24 67.66,-366.9 64.72,-352.87"/>
<polygon fill="#0ab046" stroke="#0ab046" points="66.43,-352.48 63.63,-347.99 63.01,-353.25 66.43,-352.48"/>
</a>
</g>
</g>
<!-- 2_0 -->
<!-- s1_league3_game3_05_stac_1368708055&#45;&gt;2_0 -->
<!-- s1_league3_game3_05_stac_1368708059 -->
<g id="node5" class="node">
<title>s1_league3_game3_05_stac_1368708059</title>
<g id="a_node5"><a xlink:title="3 &#160;yiin &#160;oop">
<ellipse fill="black" stroke="black" cx="27" cy="-394.5" rx="3.5" ry="3.5"/>
</a>
</g>
</g>
<!-- s1_league3_game3_05_stac_1368708055&#45;&gt;s1_league3_game3_05_stac_1368708059 -->
<!-- 3_0 -->
<!-- s1_league3_game3_05_stac_1368708059&#45;&gt;3_0 -->
<!-- s1_league3_game3_05_stac_1368708062 -->
<g id="node7" class="node">
<title>s1_league3_game3_05_stac_1368708062</title>
<g id="a_node7"><a xlink:title="4 &#160;Gaeilgeoir &#160;I&#39;ve made that mistake numerous times. :P">
<ellipse fill="black" stroke="black" cx="52" cy="-369.5" rx="3.5" ry="3.5"/>
</a>
</g>
</g>
<!-- s1_league3_game3_05_stac_1368708059&#45;&gt;s1_league3_game3_05_stac_1368708062 -->
<g id="edge28" class="edge">
<title>s1_league3_game3_05_stac_1368708059&#45;&gt;s1_league3_game3_05_stac_1368708062</title>
<g id="a_edge28"><a xlink:title="Comment">
<path fill="none" stroke="#ff8200" d="M29.31,-391.38C33.08,-387.9 40.7,-380.89 46.07,-375.96"/>
<polygon fill="#ff8200" stroke="#ff8200" points="47.42,-377.09 49.91,-372.42 45.05,-374.52 47.42,-377.09"/>
</a>
</g>
</g>
<!-- 4_0 -->
<!-- s1_league3_game3_05_stac_1368708062&#45;&gt;4_0 -->
<!-- s1_league3_game3_05_stac_1368708062&#45;&gt;s1_league3_game3_05_stac_1368708066 -->
<!-- 5_0 -->
<!-- s1_league3_game3_05_stac_1368708066&#45;&gt;5_0 -->
<!-- s1_league3_game3_05_stac_1368708069 -->
<g id="node11" class="node">
<title>s1_league3_game3_05_stac_1368708069</title>
<g id="a_node11"><a xlink:title="6 &#160;Gaeilgeoir &#160;Not me anyway">
<ellipse fill="black" stroke="black" cx="40" cy="-319.5" rx="3.5" ry="3.5"/>
</a>
</g>
</g>
<!-- s1_league3_game3_05_stac_1368708066&#45;&gt;s1_league3_game3_05_stac_1368708069 -->
<g id="edge29" class="edge">
<title>s1_league3_game3_05_stac_1368708066&#45;&gt;s1_league3_game3_05_stac_1368708069</title>
<g id="a_edge29"><a xlink:title="Question_answer_pair">
<path fill="none" stroke="#12ffff" d="M60.88,-341.38C57.54,-338.04 50.95,-331.45 46.06,-326.56"/>
<polygon fill="#12ffff" stroke="#12ffff" points="47.23,-325.26 42.46,-322.96 44.76,-327.73 47.23,-325.26"/>
</a>
</g>
</g>
<!-- s1_league3_game3_05_stac_1368708073 -->
<g id="node14" class="node">
<title>s1_league3_game3_05_stac_1368708073</title>
<g id="a_node14"><a xlink:title="7 &#160;inca &#160;nope">
<ellipse fill="black" stroke="black" cx="88" cy="-294.5" rx="3.5" ry="3.5"/>
</a>
</g>
</g>
<!-- s1_league3_game3_05_stac_1368708066&#45;&gt;s1_league3_game3_05_stac_1368708073 -->
<g id="edge30" class="edge">
<title>s1_league3_game3_05_stac_1368708066&#45;&gt;s1_league3_game3_05_stac_1368708073</title>
<g id="a_edge30"><a xlink:title="Question_answer_pair">
<path fill="none" stroke="#12ffff" d="M66.22,-342.45C72.71,-340.14 87.23,-333.93 93,-323 96.33,-316.69 94.19,-308.56 91.76,-302.78"/>
<polygon fill="#12ffff" stroke="#12ffff" points="93.17,-301.68 89.43,-297.94 90.02,-303.2 93.17,-301.68"/>
</a>
</g>
</g>
<!-- s1_league3_game3_05_stac_1368708076 -->
<g id="node15" class="node">
<title>s1_league3_game3_05_stac_1368708076</title>
<g id="a_node15"><a xlink:title="8 &#160;yiin &#160;i think this is the problem with the game">
<ellipse fill="black" stroke="black" cx="28" cy="-269.5" rx="3.5" ry="3.5"/>
</a>
</g>
</g>
<!-- s1_league3_game3_05_stac_1368708066&#45;&gt;s1_league3_game3_05_stac_1368708076 -->
<g id="edge31" class="edge">
<title>s1_league3_game3_05_stac_1368708066&#45;&gt;s1_league3_game3_05_stac_1368708076</title>
<g id="a_edge31"><a xlink:title="Comment">
<path fill="none" stroke="#ff8200" d="M59.71,-342.74C52.43,-340.86 35,-335.22 28,-323 19.89,-308.86 23.11,-288.85 25.79,-278.07"/>
<polygon fill="#ff8200" stroke="#ff8200" points="27.51,-278.42 27.15,-273.13 24.14,-277.49 27.51,-278.42"/>
</a>
</g>
</g>
<!-- s1_league3_game3_05_stac_1368708080 -->
<g id="node17" class="node">
<title>s1_league3_game3_05_stac_1368708080</title>
<g id="a_node17"><a xlink:title="9 &#160;Gaeilgeoir &#160;why can&#39;t a 3 be rolled?? :(">
<ellipse fill="black" stroke="black" cx="51" cy="-244.5" rx="3.5" ry="3.5"/>
</a>
</g>
</g>
<!-- s1_league3_game3_05_stac_1368708066&#45;&gt;s1_league3_game3_05_stac_1368708080 -->
<g id="edge32" class="edge">
<title>s1_league3_game3_05_stac_1368708066&#45;&gt;s1_league3_game3_05_stac_1368708080</title>
<g id="a_edge32"><a xlink:title="ParallNarrContinuationbackground">
<path fill="none" stroke="#0ab046" d="M65.29,-341.38C68.83,-337.93 75.48,-330.71 78,-323 78.97,-320.04 78.57,-319.06 78,-316 77.4,-312.73 60.76,-270.3 53.91,-252.88"/>
<polygon fill="#0ab046" stroke="#0ab046" points="55.46,-252.04 52,-248.03 52.2,-253.32 55.46,-252.04"/>
</a>
</g>
</g>
<!-- 6_0 -->
<!-- s1_league3_game3_05_stac_1368708069&#45;&gt;6_0 -->
<!-- s1_league3_game3_05_stac_1368708072 -->
<g id="node13" class="node">
<title>s1_league3_game3_05_stac_1368708072</title>
<g id="a_node13"><a xlink:title="7 &#160;inca &#160;sorry,">
<ellipse fill="black" stroke="black" cx="41" cy="-294.5" rx="3.5" ry="3.5"/>
</a>
</g>
</g>
<!-- s1_league3_game3_05_stac_1368708069&#45;&gt;s1_league3_game3_05_stac_1368708072 -->
<!-- s1_league3_game3_05_stac_1368708072&#45;&gt;s1_league3_game3_05_stac_1368708073 -->
<!-- s1_league3_game3_05_stac_1368708072&#45;&gt;s1_league3_game3_05_stac_1368708076 -->
<!-- s1_league3_game3_05_stac_1368708073&#45;&gt;s1_league3_game3_05_stac_1368708072 -->
<g id="edge33" class="edge">
<title>s1_league3_game3_05_stac_1368708073&#45;&gt;s1_league3_game3_05_stac_1368708072</title>
<g id="a_edge33"><a xlink:title="ExplanationResult">
<path fill="none" stroke="#a62139" d="M84.28,-295.27C72.73,-297.44 61.17,-297.71 49.62,-296.07"/>
<polygon fill="#a62139" stroke="#a62139" points="49.89,-294.34 44.67,-295.26 49.32,-297.8 49.89,-294.34"/>
</a>
</g>
</g>
<!-- s1_league3_game3_05_stac_1368708084 -->
<g id="node31" class="node">
<title>s1_league3_game3_05_stac_1368708084</title>
<g id="a_node31"><a xlink:title="10 &#160;inca &#160;anyone got sheep?">
<ellipse fill="black" stroke="black" cx="51" cy="-219.5" rx="3.5" ry="3.5"/>
</a>
</g>
</g>
<!-- s1_league3_game3_05_stac_1368708073&#45;&gt;s1_league3_game3_05_stac_1368708084 -->
<g id="edge34" class="edge">
<title>s1_league3_game3_05_stac_1368708073&#45;&gt;s1_league3_game3_05_stac_1368708084</title>
<g id="a_edge34"><a xlink:title="ParallNarrContinuationbackground">
<path fill="none" stroke="#0ab046" d="M88.44,-290.82C89.15,-285.77 90.17,-274.61 87,-266 80.77,-249.09 65.67,-233.6 57.14,-225.8"/>
<polygon fill="#0ab046" stroke="#0ab046" points="58.08,-224.29 53.17,-222.29 55.76,-226.92 58.08,-224.29"/>
</a>
</g>
</g>
<!-- 8_0 -->
<!-- s1_league3_game3_05_stac_1368708076&#45;&gt;8_0 -->
<!-- s1_league3_game3_05_stac_1368708076&#45;&gt;s1_league3_game3_05_stac_1368708080 -->
<!-- 9_0 -->
<!-- s1_league3_game3_05_stac_1368708080&#45;&gt;9_0 -->
<!-- s1_league3_game3_05_stac_1368708080&#45;&gt;s1_league3_game3_05_stac_1368708084 -->
<!-- s1_league3_game3_05_stac_1368708092 -->
<g id="node19" class="node">
<title>s1_league3_game3_05_stac_1368708092</title>
<g id="a_node19"><a xlink:title="12 &#160;nareik15 &#160;sorry">
<ellipse fill="black" stroke="black" cx="45" cy="-169.5" rx="3.5" ry="3.5"/>
</a>
</g>
</g>
<!-- 12_0 -->
<!-- s1_league3_game3_05_stac_1368708092&#45;&gt;12_0 -->
<!-- s1_league3_game3_05_stac_1368708096 -->
<g id="node21" class="node">
<title>s1_league3_game3_05_stac_1368708096</title>
<g id="a_node21"><a xlink:title="13 &#160;yiin &#160;i got one">
<ellipse fill="black" stroke="black" cx="55" cy="-144.5" rx="3.5" ry="3.5"/>
</a>
</g>
</g>
<!-- s1_league3_game3_05_stac_1368708092&#45;&gt;s1_league3_game3_05_stac_1368708096 -->
<!-- 13_0 -->
<!-- s1_league3_game3_05_stac_1368708096&#45;&gt;13_0 -->
<!-- s1_league3_game3_05_stac_1368708099 -->
<g id="node23" class="node">
<title>s1_league3_game3_05_stac_1368708099</title>
<g id="a_node23"><a xlink:title="14 &#160;yiin &#160;i can give you">
<ellipse fill="black" stroke="black" cx="55" cy="-119.5" rx="3.5" ry="3.5"/>
</a>
</g>
</g>
<!-- s1_league3_game3_05_stac_1368708096&#45;&gt;s1_league3_game3_05_stac_1368708099 -->
<g id="edge40" class="edge">
<title>s1_league3_game3_05_stac_1368708096&#45;&gt;s1_league3_game3_05_stac_1368708099</title>
<g id="a_edge40"><a xlink:title="Elaboration">
<path fill="none" stroke="#a621c7" d="M55,-140.68C55,-137.58 55,-132.47 55,-128.16"/>
<polygon fill="#a621c7" stroke="#a621c7" points="56.75,-128.06 55,-123.06 53.25,-128.06 56.75,-128.06"/>
</a>
</g>
</g>
<!-- s1_league3_game3_05_stac_1368708105 -->
<g id="node35" class="node">
<title>s1_league3_game3_05_stac_1368708105</title>
<g id="a_node35"><a xlink:title="16 &#160;inca &#160;too late now,">
<ellipse fill="black" stroke="black" cx="55" cy="-69.5" rx="3.5" ry="3.5"/>
</a>
</g>
</g>
<!-- s1_league3_game3_05_stac_1368708096&#45;&gt;s1_league3_game3_05_stac_1368708105 -->
<g id="edge41" class="edge">
<title>s1_league3_game3_05_stac_1368708096&#45;&gt;s1_league3_game3_05_stac_1368708105</title>
<g id="a_edge41"><a xlink:title="Question_answer_pair">
<path fill="none" stroke="#12ffff" d="M53.16,-141.29C50.32,-137.71 44.99,-130.32 43,-123 39.28,-109.27 39.28,-104.73 43,-91 44.4,-85.85 47.45,-80.67 50.12,-76.81"/>
<polygon fill="#12ffff" stroke="#12ffff" points="51.58,-77.77 53.16,-72.71 48.77,-75.69 51.58,-77.77"/>
</a>
</g>
</g>
<!-- s1_league3_game3_05_stac_1368708106 -->
<g id="node36" class="node">
<title>s1_league3_game3_05_stac_1368708106</title>
<g id="a_node36"><a xlink:title="16 &#160;inca &#160;cheers anyway">
<ellipse fill="black" stroke="black" cx="91" cy="-69.5" rx="3.5" ry="3.5"/>
</a>
</g>
</g>
<!-- s1_league3_game3_05_stac_1368708096&#45;&gt;s1_league3_game3_05_stac_1368708106 -->
<g id="edge42" class="edge">
<title>s1_league3_game3_05_stac_1368708096&#45;&gt;s1_league3_game3_05_stac_1368708106</title>
<g id="a_edge42"><a xlink:title="Comment">
<path fill="none" stroke="#ff8200" d="M58.56,-142.83C66.45,-141.14 85.32,-135.87 93,-123 101.36,-108.99 97.06,-88.93 93.71,-78.11"/>
<polygon fill="#ff8200" stroke="#ff8200" points="95.29,-77.32 92.04,-73.15 91.98,-78.45 95.29,-77.32"/>
</a>
</g>
</g>
<!-- 14_0 -->
<!-- s1_league3_game3_05_stac_1368708099&#45;&gt;14_0 -->
<!-- s1_league3_game3_05_stac_1368708102 -->
<g id="node25" class="node">
<title>s1_league3_game3_05_stac_1368708102</title>
<g id="a_node25"><a xlink:title="15 &#160;yiin &#160;but i need wheat">
<ellipse fill="black" stroke="black" cx="55" cy="-94.5" rx="3.5" ry="3.5"/>
</a>
</g>
</g>
<!-- s1_league3_game3_05_stac_1368708099&#45;&gt;s1_league3_game3_05_stac_1368708102 -->
<g id="edge43" class="edge">
<title>s1_league3_game3_05_stac_1368708099&#45;&gt;s1_league3_game3_05_stac_1368708102</title>
<g id="a_edge43"><a xlink:title="Elaboration">
<path fill="none" stroke="#a621c7" d="M55,-115.68C55,-112.58 55,-107.47 55,-103.16"/>
<polygon fill="#a621c7" stroke="#a621c7" points="56.75,-103.06 55,-98.06 53.25,-103.06 56.75,-103.06"/>
</a>
</g>
</g>
<!-- 15_0 -->
<!-- s1_league3_game3_05_stac_1368708102&#45;&gt;15_0 -->
<!-- s1_league3_game3_05_stac_1368708102&#45;&gt;s1_league3_game3_05_stac_1368708105 -->
<!-- s1_league3_game3_05_stac_1368708110 -->
<g id="node27" class="node">
<title>s1_league3_game3_05_stac_1368708110</title>
<g id="a_node27"><a xlink:title="17 &#160;yiin &#160;finally">
<ellipse fill="black" stroke="black" cx="55" cy="-44.5" rx="3.5" ry="3.5"/>
</a>
</g>
</g>
<!-- 17_0 -->
<!-- s1_league3_game3_05_stac_1368708110&#45;&gt;17_0 -->
<!-- s1_league3_game3_05_stac_1368708113 -->
<g id="node29" class="node">
<title>s1_league3_game3_05_stac_1368708113</title>
<g id="a_node29"><a xlink:title="18 &#160;Gaeilgeoir &#160;haha">
<ellipse fill="black" stroke="black" cx="55" cy="-19.5" rx="3.5" ry="3.5"/>
</a>
</g>
</g>
<!-- s1_league3_game3_05_stac_1368708110&#45;&gt;s1_league3_game3_05_stac_1368708113 -->
<g id="edge45" class="edge">
<title>s1_league3_game3_05_stac_1368708110&#45;&gt;s1_league3_game3_05_stac_1368708113</title>
<g id="a_edge45"><a xlink:title="Comment">
<path fill="none" stroke="#ff8200" d="M55,-40.68C55,-37.58 55,-32.47 55,-28.16"/>
<polygon fill="#ff8200" stroke="#ff8200" points="56.75,-28.06 55,-23.06 53.25,-28.06 56.75,-28.06"/>
</a>
</g>
</g>
<!-- 18_0 -->
<!-- s1_league3_game3_05_stac_1368708113&#45;&gt;18_0 -->
<!-- s1_league3_game3_05_stac_1368708084&#45;&gt;s1_league3_game3_05_stac_1368708092 -->
<g id="edge37" class="edge">
<title>s1_league3_game3_05_stac_1368708084&#45;&gt;s1_league3_game3_05_stac_1368708092</title>
<g id="a_edge37"><a xlink:title="Question_answer_pair">
<path fill="none" stroke="#12ffff" d="M48.19,-217.05C43.04,-214.22 32.2,-207.37 28,-198 24.27,-189.67 32.13,-180.83 38.37,-175.49"/>
<polygon fill="#12ffff" stroke="#12ffff" points="39.76,-176.62 42.6,-172.15 37.59,-173.87 39.76,-176.62"/>
</a>
</g>
</g>
<!-- s1_league3_game3_05_stac_1368708084&#45;&gt;s1_league3_game3_05_stac_1368708096 -->
<g id="edge38" class="edge">
<title>s1_league3_game3_05_stac_1368708084&#45;&gt;s1_league3_game3_05_stac_1368708096</title>
<g id="a_edge38"><a xlink:title="Question_answer_pair">
<path fill="none" stroke="#12ffff" d="M53.91,-217.35C59.77,-214.86 72.87,-208.33 78,-198 86.29,-181.3 70.13,-160.93 60.87,-151.2"/>
<polygon fill="#12ffff" stroke="#12ffff" points="61.98,-149.84 57.21,-147.53 59.5,-152.31 61.98,-149.84"/>
</a>
</g>
</g>
<!-- s1_league3_game3_05_stac_1368708085 -->
<g id="node32" class="node">
<title>s1_league3_game3_05_stac_1368708085</title>
<g id="a_node32"><a xlink:title="10 &#160;inca &#160;I can give anything but clay">
<ellipse fill="black" stroke="black" cx="76" cy="-219.5" rx="3.5" ry="3.5"/>
</a>
</g>
</g>
<!-- s1_league3_game3_05_stac_1368708084&#45;&gt;s1_league3_game3_05_stac_1368708085 -->
<g id="edge35" class="edge">
<title>s1_league3_game3_05_stac_1368708084&#45;&gt;s1_league3_game3_05_stac_1368708085</title>
<g id="a_edge35"><a xlink:title="Elaboration">
<path fill="none" stroke="#a621c7" d="M54.52,-219.5C58.78,-219.5 63.04,-219.5 67.3,-219.5"/>
<polygon fill="#a621c7" stroke="#a621c7" points="67.31,-221.25 72.31,-219.5 67.31,-217.75 67.31,-221.25"/>
</a>
</g>
</g>
<!-- s1_league3_game3_05_stac_1368708088 -->
<g id="node33" class="node">
<title>s1_league3_game3_05_stac_1368708088</title>
<g id="a_node33"><a xlink:title="11 &#160;Gaeilgeoir &#160;sorry,">
<ellipse fill="black" stroke="black" cx="40" cy="-194.5" rx="3.5" ry="3.5"/>
</a>
</g>
</g>
<!-- s1_league3_game3_05_stac_1368708084&#45;&gt;s1_league3_game3_05_stac_1368708088 -->
<g id="edge36" class="edge">
<title>s1_league3_game3_05_stac_1368708084&#45;&gt;s1_league3_game3_05_stac_1368708088</title>
<g id="a_edge36"><a xlink:title="Question_answer_pair">
<path fill="none" stroke="#12ffff" d="M49.82,-216.04C48.29,-212.84 45.56,-207.12 43.36,-202.53"/>
<polygon fill="#12ffff" stroke="#12ffff" points="44.87,-201.63 41.14,-197.87 41.71,-203.14 44.87,-201.63"/>
</a>
</g>
</g>
<!-- s1_league3_game3_05_stac_1368708088&#45;&gt;s1_league3_game3_05_stac_1368708092 -->
<!-- s1_league3_game3_05_stac_1368708089 -->
<g id="node34" class="node">
<title>s1_league3_game3_05_stac_1368708089</title>
<g id="a_node34"><a xlink:title="11 &#160;Gaeilgeoir &#160;I don&#39;t.">
<ellipse fill="black" stroke="black" cx="65" cy="-194.5" rx="3.5" ry="3.5"/>
</a>
</g>
</g>
<!-- s1_league3_game3_05_stac_1368708088&#45;&gt;s1_league3_game3_05_stac_1368708089 -->
<g id="edge39" class="edge">
<title>s1_league3_game3_05_stac_1368708088&#45;&gt;s1_league3_game3_05_stac_1368708089</title>
<g id="a_edge39"><a xlink:title="ExplanationResult">
<path fill="none" stroke="#a62139" d="M43.52,-194.5C47.78,-194.5 52.04,-194.5 56.3,-194.5"/>
<polygon fill="#a62139" stroke="#a62139" points="56.31,-196.25 61.31,-194.5 56.31,-192.75 56.31,-196.25"/>
</a>
</g>
</g>
<!-- s1_league3_game3_05_stac_1368708105&#45;&gt;s1_league3_game3_05_stac_1368708110 -->
<!-- s1_league3_game3_05_stac_1368708105&#45;&gt;s1_league3_game3_05_stac_1368708106 -->
<g id="edge44" class="edge">
<title>s1_league3_game3_05_stac_1368708105&#45;&gt;s1_league3_game3_05_stac_1368708106</title>
<g id="a_edge44"><a xlink:title="ContrastCorrection">
<path fill="none" stroke="#ff7ecf" d="M58.66,-69.5C66.46,-69.5 74.26,-69.5 82.06,-69.5"/>
<polygon fill="#ff7ecf" stroke="#ff7ecf" points="82.46,-71.25 87.46,-69.5 82.46,-67.75 82.46,-71.25"/>
</a>
</g>
</g>
</g>
</svg>
