<?xml version="1.0" encoding="UTF-8" standalone="no"?>
<!DOCTYPE svg PUBLIC "-//W3C//DTD SVG 1.1//EN"
 "http://www.w3.org/Graphics/SVG/1.1/DTD/svg11.dtd">
<!-- Generated by graphviz version 3.0.0 (20220226.1711)
 -->
<!-- Title: 6_s1_league3_game3_558 Pages: 1 -->
<svg width="113pt" height="145pt"
 viewBox="0.00 0.00 113.00 145.00" xmlns="http://www.w3.org/2000/svg" xmlns:xlink="http://www.w3.org/1999/xlink">
<g id="graph0" class="graph" transform="scale(1 1) rotate(0) translate(4 141)">
<title>6_s1_league3_game3_558</title>
<polygon fill="white" stroke="transparent" points="-4,4 -4,-141 109,-141 109,4 -4,4"/>
<g id="clust1" class="cluster">
<title>cluster_6_s1_league3_game3_558</title>
<polygon fill="none" stroke="black" points="8,-8 8,-129 97,-129 97,-8 8,-8"/>
<text text-anchor="middle" x="26.5" y="-113.8" font-family="Times,serif" font-size="14.00">558</text>
</g>
<!-- s1_league3_game3_06_stac_1368708035 -->
<g id="node1" class="node">
<title>s1_league3_game3_06_stac_1368708035</title>
<g id="a_node1"><a xlink:title="2 &#160;inca &#160;nope, sorry">
<ellipse fill="black" stroke="black" cx="20" cy="-69.5" rx="3.5" ry="3.5"/>
</a>
</g>
</g>
<!-- 2_0 -->
<!-- s1_league3_game3_06_stac_1368708035&#45;&gt;2_0 -->
<!-- s1_league3_game3_06_stac_1368708038 -->
<g id="node5" class="node">
<title>s1_league3_game3_06_stac_1368708038</title>
<g id="a_node5"><a xlink:title="3 &#160;yiin &#160;yes">
<ellipse fill="black" stroke="black" cx="40" cy="-44.5" rx="3.5" ry="3.5"/>
</a>
</g>
</g>
<!-- s1_league3_game3_06_stac_1368708035&#45;&gt;s1_league3_game3_06_stac_1368708038 -->
<!-- s1_league3_game3_06_stac_1368708031 -->
<g id="node3" class="node">
<title>s1_league3_game3_06_stac_1368708031</title>
<g id="a_node3"><a xlink:title="1 &#160;Gaeilgeoir &#160;anyone have sheep?">
<ellipse fill="black" stroke="black" cx="60" cy="-94.5" rx="3.5" ry="3.5"/>
</a>
</g>
</g>
<!-- s1_league3_game3_06_stac_1368708031&#45;&gt;s1_league3_game3_06_stac_1368708035 -->
<g id="edge5" class="edge">
<title>s1_league3_game3_06_stac_1368708031&#45;&gt;s1_league3_game3_06_stac_1368708035</title>
<g id="a_edge5"><a xlink:title="Question_answer_pair">
<path fill="none" stroke="#12ffff" d="M57.38,-91.99C51.33,-88.52 36.26,-79.85 27.21,-74.64"/>
<polygon fill="#12ffff" stroke="#12ffff" points="27.89,-73.02 22.69,-72.04 26.15,-76.05 27.89,-73.02"/>
</a>
</g>
</g>
<!-- s1_league3_game3_06_stac_1368708032 -->
<g id="node4" class="node">
<title>s1_league3_game3_06_stac_1368708032</title>
<g id="a_node4"><a xlink:title="1 &#160;Gaeilgeoir &#160;I have wood and ore.">
<ellipse fill="black" stroke="black" cx="85" cy="-94.5" rx="3.5" ry="3.5"/>
</a>
</g>
</g>
<!-- s1_league3_game3_06_stac_1368708031&#45;&gt;s1_league3_game3_06_stac_1368708032 -->
<g id="edge4" class="edge">
<title>s1_league3_game3_06_stac_1368708031&#45;&gt;s1_league3_game3_06_stac_1368708032</title>
<g id="a_edge4"><a xlink:title="Elaboration">
<path fill="none" stroke="#a621c7" d="M63.52,-94.5C67.78,-94.5 72.04,-94.5 76.3,-94.5"/>
<polygon fill="#a621c7" stroke="#a621c7" points="76.31,-96.25 81.31,-94.5 76.31,-92.75 76.31,-96.25"/>
</a>
</g>
</g>
<!-- s1_league3_game3_06_stac_1368708031&#45;&gt;s1_league3_game3_06_stac_1368708038 -->
<g id="edge6" class="edge">
<title>s1_league3_game3_06_stac_1368708031&#45;&gt;s1_league3_game3_06_stac_1368708038</title>
<g id="a_edge6"><a xlink:title="Question_answer_pair">
<path fill="none" stroke="#12ffff" d="M60.35,-90.79C60.9,-85.71 61.55,-74.48 58,-66 55.47,-59.97 50.44,-54.48 46.33,-50.7"/>
<polygon fill="#12ffff" stroke="#12ffff" points="47.34,-49.26 42.41,-47.33 45.06,-51.92 47.34,-49.26"/>
</a>
</g>
</g>
<!-- s1_league3_game3_06_stac_1368708042 -->
<g id="node7" class="node">
<title>s1_league3_game3_06_stac_1368708042</title>
<g id="a_node7"><a xlink:title="4 &#160;nareik15 &#160;yeah">
<ellipse fill="black" stroke="black" cx="50" cy="-19.5" rx="3.5" ry="3.5"/>
</a>
</g>
</g>
<!-- s1_league3_game3_06_stac_1368708031&#45;&gt;s1_league3_game3_06_stac_1368708042 -->
<g id="edge7" class="edge">
<title>s1_league3_game3_06_stac_1368708031&#45;&gt;s1_league3_game3_06_stac_1368708042</title>
<g id="a_edge7"><a xlink:title="Question_answer_pair">
<path fill="none" stroke="#12ffff" d="M61.87,-91.41C68.13,-84.18 87.41,-59.56 78,-41 73.83,-32.77 64.63,-27.05 57.91,-23.78"/>
<polygon fill="#12ffff" stroke="#12ffff" points="58.29,-22.04 53.01,-21.61 56.88,-25.24 58.29,-22.04"/>
</a>
</g>
</g>
<!-- s1_league3_game3_06_stac_1368708039 -->
<g id="node6" class="node">
<title>s1_league3_game3_06_stac_1368708039</title>
<g id="a_node6"><a xlink:title="3 &#160;yiin &#160;i have lot of sheeps">
<ellipse fill="black" stroke="black" cx="65" cy="-44.5" rx="3.5" ry="3.5"/>
</a>
</g>
</g>
<!-- s1_league3_game3_06_stac_1368708038&#45;&gt;s1_league3_game3_06_stac_1368708039 -->
<g id="edge8" class="edge">
<title>s1_league3_game3_06_stac_1368708038&#45;&gt;s1_league3_game3_06_stac_1368708039</title>
<g id="a_edge8"><a xlink:title="Elaboration">
<path fill="none" stroke="#a621c7" d="M43.52,-44.5C47.78,-44.5 52.04,-44.5 56.3,-44.5"/>
<polygon fill="#a621c7" stroke="#a621c7" points="56.31,-46.25 61.31,-44.5 56.31,-42.75 56.31,-46.25"/>
</a>
</g>
</g>
<!-- s1_league3_game3_06_stac_1368708038&#45;&gt;s1_league3_game3_06_stac_1368708042 -->
<!-- s1_league3_game3_06_stac_1368708043 -->
<g id="node8" class="node">
<title>s1_league3_game3_06_stac_1368708043</title>
<g id="a_node8"><a xlink:title="4 &#160;nareik15 &#160;can do that">
<ellipse fill="black" stroke="black" cx="75" cy="-19.5" rx="3.5" ry="3.5"/>
</a>
</g>
</g>
<!-- s1_league3_game3_06_stac_1368708042&#45;&gt;s1_league3_game3_06_stac_1368708043 -->
<g id="edge9" class="edge">
<title>s1_league3_game3_06_stac_1368708042&#45;&gt;s1_league3_game3_06_stac_1368708043</title>
<g id="a_edge9"><a xlink:title="Elaboration">
<path fill="none" stroke="#a621c7" d="M53.52,-19.5C57.78,-19.5 62.04,-19.5 66.3,-19.5"/>
<polygon fill="#a621c7" stroke="#a621c7" points="66.31,-21.25 71.31,-19.5 66.31,-17.75 66.31,-21.25"/>
</a>
</g>
</g>
</g>
</svg>
