<?xml version="1.0" encoding="UTF-8" standalone="no"?>
<!DOCTYPE svg PUBLIC "-//W3C//DTD SVG 1.1//EN"
 "http://www.w3.org/Graphics/SVG/1.1/DTD/svg11.dtd">
<!-- Generated by graphviz version 3.0.0 (20220226.1711)
 -->
<!-- Title: 6_s1_league3_game3_559 Pages: 1 -->
<svg width="133pt" height="320pt"
 viewBox="0.00 0.00 133.00 320.00" xmlns="http://www.w3.org/2000/svg" xmlns:xlink="http://www.w3.org/1999/xlink">
<g id="graph0" class="graph" transform="scale(1 1) rotate(0) translate(4 316)">
<title>6_s1_league3_game3_559</title>
<polygon fill="white" stroke="transparent" points="-4,4 -4,-316 129,-316 129,4 -4,4"/>
<g id="clust1" class="cluster">
<title>cluster_6_s1_league3_game3_559</title>
<polygon fill="none" stroke="black" points="8,-8 8,-304 117,-304 117,-8 8,-8"/>
<text text-anchor="middle" x="26.5" y="-288.8" font-family="Times,serif" font-size="14.00">559</text>
</g>
<!-- s1_league3_game3_06_stac_1368708047 -->
<g id="node1" class="node">
<title>s1_league3_game3_06_stac_1368708047</title>
<g id="a_node1"><a xlink:title="1 &#160;Gaeilgeoir &#160;ADDTIME">
<ellipse fill="black" stroke="black" cx="60" cy="-269.5" rx="3.5" ry="3.5"/>
</a>
</g>
</g>
<!-- 1_0 -->
<!-- s1_league3_game3_06_stac_1368708047&#45;&gt;1_0 -->
<!-- s1_league3_game3_06_stac_1490530466 -->
<g id="node3" class="node">
<title>s1_league3_game3_06_stac_1490530466</title>
<g id="a_node3"><a xlink:title="2 &#160;inca &#160;hallelujah">
<ellipse fill="black" stroke="black" cx="60" cy="-244.5" rx="3.5" ry="3.5"/>
</a>
</g>
</g>
<!-- s1_league3_game3_06_stac_1368708047&#45;&gt;s1_league3_game3_06_stac_1490530466 -->
<g id="edge12" class="edge">
<title>s1_league3_game3_06_stac_1368708047&#45;&gt;s1_league3_game3_06_stac_1490530466</title>
<g id="a_edge12"><a xlink:title="Comment">
<path fill="none" stroke="#ff8200" d="M60,-265.68C60,-262.58 60,-257.47 60,-253.16"/>
<polygon fill="#ff8200" stroke="#ff8200" points="61.75,-253.06 60,-248.06 58.25,-253.06 61.75,-253.06"/>
</a>
</g>
</g>
<!-- 2_0 -->
<!-- s1_league3_game3_06_stac_1490530466&#45;&gt;2_0 -->
<!-- s1_league3_game3_06_stac_1490530469 -->
<g id="node5" class="node">
<title>s1_league3_game3_06_stac_1490530469</title>
<g id="a_node5"><a xlink:title="3 &#160;nareik15 &#160;hehe">
<ellipse fill="black" stroke="black" cx="60" cy="-219.5" rx="3.5" ry="3.5"/>
</a>
</g>
</g>
<!-- s1_league3_game3_06_stac_1490530466&#45;&gt;s1_league3_game3_06_stac_1490530469 -->
<g id="edge13" class="edge">
<title>s1_league3_game3_06_stac_1490530466&#45;&gt;s1_league3_game3_06_stac_1490530469</title>
<g id="a_edge13"><a xlink:title="Comment">
<path fill="none" stroke="#ff8200" d="M60,-240.68C60,-237.58 60,-232.47 60,-228.16"/>
<polygon fill="#ff8200" stroke="#ff8200" points="61.75,-228.06 60,-223.06 58.25,-228.06 61.75,-228.06"/>
</a>
</g>
</g>
<!-- 3_0 -->
<!-- s1_league3_game3_06_stac_1490530469&#45;&gt;3_0 -->
<!-- s1_league3_game3_06_stac_1490530472 -->
<g id="node7" class="node">
<title>s1_league3_game3_06_stac_1490530472</title>
<g id="a_node7"><a xlink:title="4 &#160;nareik15 &#160;anyone got some ore to trade?">
<ellipse fill="black" stroke="black" cx="60" cy="-194.5" rx="3.5" ry="3.5"/>
</a>
</g>
</g>
<!-- s1_league3_game3_06_stac_1490530469&#45;&gt;s1_league3_game3_06_stac_1490530472 -->
<g id="edge14" class="edge">
<title>s1_league3_game3_06_stac_1490530469&#45;&gt;s1_league3_game3_06_stac_1490530472</title>
<g id="a_edge14"><a xlink:title="ParallNarrContinuationbackground">
<path fill="none" stroke="#0ab046" d="M60,-215.68C60,-212.58 60,-207.47 60,-203.16"/>
<polygon fill="#0ab046" stroke="#0ab046" points="61.75,-203.06 60,-198.06 58.25,-203.06 61.75,-203.06"/>
</a>
</g>
</g>
<!-- 4_0 -->
<!-- s1_league3_game3_06_stac_1490530472&#45;&gt;4_0 -->
<!-- s1_league3_game3_06_stac_1490530475 -->
<g id="node9" class="node">
<title>s1_league3_game3_06_stac_1490530475</title>
<g id="a_node9"><a xlink:title="5 &#160;inca &#160;sorry, nope">
<ellipse fill="black" stroke="black" cx="40" cy="-169.5" rx="3.5" ry="3.5"/>
</a>
</g>
</g>
<!-- s1_league3_game3_06_stac_1490530472&#45;&gt;s1_league3_game3_06_stac_1490530475 -->
<g id="edge15" class="edge">
<title>s1_league3_game3_06_stac_1490530472&#45;&gt;s1_league3_game3_06_stac_1490530475</title>
<g id="a_edge15"><a xlink:title="Question_answer_pair">
<path fill="none" stroke="#12ffff" d="M58.15,-191.38C55.31,-188.11 49.75,-181.71 45.52,-176.85"/>
<polygon fill="#12ffff" stroke="#12ffff" points="46.74,-175.59 42.14,-172.96 44.1,-177.88 46.74,-175.59"/>
</a>
</g>
</g>
<!-- s1_league3_game3_06_stac_1490530493 -->
<g id="node13" class="node">
<title>s1_league3_game3_06_stac_1490530493</title>
<g id="a_node13"><a xlink:title="10 &#160;nareik15 &#160;Gaeilgeoir, feel like trading that ore?">
<ellipse fill="black" stroke="black" cx="69" cy="-44.5" rx="3.5" ry="3.5"/>
</a>
</g>
</g>
<!-- s1_league3_game3_06_stac_1490530472&#45;&gt;s1_league3_game3_06_stac_1490530493 -->
<g id="edge18" class="edge">
<title>s1_league3_game3_06_stac_1490530472&#45;&gt;s1_league3_game3_06_stac_1490530493</title>
<g id="a_edge18"><a xlink:title="Q_Elab">
<path fill="none" stroke="#0d20ff" d="M62.56,-191.92C67.3,-188.86 77.48,-181.66 83,-173 95.46,-153.43 94.63,-145.95 98,-123 99.15,-115.17 99.65,-99.69 97,-91 92.34,-75.72 81.28,-60.4 74.53,-52.02"/>
<polygon fill="#0d20ff" stroke="#0d20ff" points="75.53,-50.48 70.99,-47.75 72.84,-52.72 75.53,-50.48"/>
</a>
</g>
</g>
<!-- s1_league3_game3_06_stac_1490530478 -->
<g id="node15" class="node">
<title>s1_league3_game3_06_stac_1490530478</title>
<g id="a_node15"><a xlink:title="6 &#160;yiin &#160;yes i have...">
<ellipse fill="black" stroke="black" cx="38" cy="-144.5" rx="3.5" ry="3.5"/>
</a>
</g>
</g>
<!-- s1_league3_game3_06_stac_1490530472&#45;&gt;s1_league3_game3_06_stac_1490530478 -->
<g id="edge16" class="edge">
<title>s1_league3_game3_06_stac_1490530472&#45;&gt;s1_league3_game3_06_stac_1490530478</title>
<g id="a_edge16"><a xlink:title="Question_answer_pair">
<path fill="none" stroke="#12ffff" d="M56.99,-192.65C50.3,-190.58 34.33,-184.58 28,-173 24.19,-166.04 28.76,-157.33 32.89,-151.6"/>
<polygon fill="#12ffff" stroke="#12ffff" points="34.34,-152.6 36.07,-147.59 31.59,-150.42 34.34,-152.6"/>
</a>
</g>
</g>
<!-- s1_league3_game3_06_stac_1490530479 -->
<g id="node16" class="node">
<title>s1_league3_game3_06_stac_1490530479</title>
<g id="a_node16"><a xlink:title="6 &#160;yiin &#160;you got clay??">
<ellipse fill="black" stroke="black" cx="63" cy="-144.5" rx="3.5" ry="3.5"/>
</a>
</g>
</g>
<!-- s1_league3_game3_06_stac_1490530472&#45;&gt;s1_league3_game3_06_stac_1490530479 -->
<g id="edge17" class="edge">
<title>s1_league3_game3_06_stac_1490530472&#45;&gt;s1_league3_game3_06_stac_1490530479</title>
<g id="a_edge17"><a xlink:title="Q_Elab">
<path fill="none" stroke="#0d20ff" d="M62.47,-191.69C66.62,-188.48 74.86,-181.33 78,-173 81.06,-164.89 74.49,-156.22 69.1,-150.83"/>
<polygon fill="#0d20ff" stroke="#0d20ff" points="70.25,-149.51 65.39,-147.41 67.88,-152.08 70.25,-149.51"/>
</a>
</g>
</g>
<!-- 5_0 -->
<!-- s1_league3_game3_06_stac_1490530475&#45;&gt;5_0 -->
<!-- s1_league3_game3_06_stac_1490530475&#45;&gt;s1_league3_game3_06_stac_1490530478 -->
<!-- s1_league3_game3_06_stac_1490530482 -->
<g id="node11" class="node">
<title>s1_league3_game3_06_stac_1490530482</title>
<g id="a_node11"><a xlink:title="7 &#160;yiin &#160;or wheat??">
<ellipse fill="black" stroke="black" cx="39" cy="-119.5" rx="3.5" ry="3.5"/>
</a>
</g>
</g>
<!-- 7_0 -->
<!-- s1_league3_game3_06_stac_1490530482&#45;&gt;7_0 -->
<!-- s1_league3_game3_06_stac_1490530485 -->
<g id="node17" class="node">
<title>s1_league3_game3_06_stac_1490530485</title>
<g id="a_node17"><a xlink:title="8 &#160;nareik15 &#160;nope don&#39;t have either unfortunately,">
<ellipse fill="black" stroke="black" cx="59" cy="-94.5" rx="3.5" ry="3.5"/>
</a>
</g>
</g>
<!-- s1_league3_game3_06_stac_1490530482&#45;&gt;s1_league3_game3_06_stac_1490530485 -->
<!-- 10_0 -->
<!-- s1_league3_game3_06_stac_1490530493&#45;&gt;10_0 -->
<!-- s1_league3_game3_06_stac_1490530496 -->
<g id="node21" class="node">
<title>s1_league3_game3_06_stac_1490530496</title>
<g id="a_node21"><a xlink:title="11 &#160;Gaeilgeoir &#160;If you have sheep,">
<ellipse fill="black" stroke="black" cx="69" cy="-19.5" rx="3.5" ry="3.5"/>
</a>
</g>
</g>
<!-- s1_league3_game3_06_stac_1490530493&#45;&gt;s1_league3_game3_06_stac_1490530496 -->
<g id="edge25" class="edge">
<title>s1_league3_game3_06_stac_1490530493&#45;&gt;s1_league3_game3_06_stac_1490530496</title>
<g id="a_edge25"><a xlink:title="Question_answer_pair">
<path fill="none" stroke="#12ffff" d="M69,-40.68C69,-37.58 69,-32.47 69,-28.16"/>
<polygon fill="#12ffff" stroke="#12ffff" points="70.75,-28.06 69,-23.06 67.25,-28.06 70.75,-28.06"/>
</a>
</g>
</g>
<!-- s1_league3_game3_06_stac_1490530478&#45;&gt;s1_league3_game3_06_stac_1490530482 -->
<!-- s1_league3_game3_06_stac_1490530478&#45;&gt;s1_league3_game3_06_stac_1490530479 -->
<g id="edge19" class="edge">
<title>s1_league3_game3_06_stac_1490530478&#45;&gt;s1_league3_game3_06_stac_1490530479</title>
<g id="a_edge19"><a xlink:title="ParallNarrContinuationbackground">
<path fill="none" stroke="#0ab046" d="M41.52,-144.5C45.78,-144.5 50.04,-144.5 54.3,-144.5"/>
<polygon fill="#0ab046" stroke="#0ab046" points="54.31,-146.25 59.31,-144.5 54.31,-142.75 54.31,-146.25"/>
</a>
</g>
</g>
<!-- s1_league3_game3_06_stac_1490530479&#45;&gt;s1_league3_game3_06_stac_1490530482 -->
<g id="edge20" class="edge">
<title>s1_league3_game3_06_stac_1490530479&#45;&gt;s1_league3_game3_06_stac_1490530482</title>
<g id="a_edge20"><a xlink:title="Alternation">
<path fill="none" stroke="#10495e" d="M60.79,-141.38C57.16,-137.9 49.84,-130.89 44.69,-125.96"/>
<polygon fill="#10495e" stroke="#10495e" points="45.83,-124.62 41,-122.42 43.4,-127.14 45.83,-124.62"/>
</a>
</g>
</g>
<!-- s1_league3_game3_06_stac_1490530479&#45;&gt;s1_league3_game3_06_stac_1490530485 -->
<g id="edge21" class="edge">
<title>s1_league3_game3_06_stac_1490530479&#45;&gt;s1_league3_game3_06_stac_1490530485</title>
<g id="a_edge21"><a xlink:title="Question_answer_pair">
<path fill="none" stroke="#12ffff" d="M62.78,-140.92C62.2,-133.95 60.59,-114.55 59.67,-103.49"/>
<polygon fill="#12ffff" stroke="#12ffff" points="61.4,-103.17 59.24,-98.33 57.91,-103.46 61.4,-103.17"/>
</a>
</g>
</g>
<!-- s1_league3_game3_06_stac_1490530486 -->
<g id="node18" class="node">
<title>s1_league3_game3_06_stac_1490530486</title>
<g id="a_node18"><a xlink:title="8 &#160;nareik15 &#160;plenty of wood though">
<ellipse fill="black" stroke="black" cx="84" cy="-94.5" rx="3.5" ry="3.5"/>
</a>
</g>
</g>
<!-- s1_league3_game3_06_stac_1490530485&#45;&gt;s1_league3_game3_06_stac_1490530486 -->
<g id="edge22" class="edge">
<title>s1_league3_game3_06_stac_1490530485&#45;&gt;s1_league3_game3_06_stac_1490530486</title>
<g id="a_edge22"><a xlink:title="ContrastCorrection">
<path fill="none" stroke="#ff7ecf" d="M62.52,-94.5C66.78,-94.5 71.04,-94.5 75.3,-94.5"/>
<polygon fill="#ff7ecf" stroke="#ff7ecf" points="75.31,-96.25 80.31,-94.5 75.31,-92.75 75.31,-96.25"/>
</a>
</g>
</g>
<!-- s1_league3_game3_06_stac_1490530489 -->
<g id="node19" class="node">
<title>s1_league3_game3_06_stac_1490530489</title>
<g id="a_node19"><a xlink:title="9 &#160;yiin &#160;oh ok">
<ellipse fill="black" stroke="black" cx="59" cy="-69.5" rx="3.5" ry="3.5"/>
</a>
</g>
</g>
<!-- s1_league3_game3_06_stac_1490530485&#45;&gt;s1_league3_game3_06_stac_1490530489 -->
<g id="edge23" class="edge">
<title>s1_league3_game3_06_stac_1490530485&#45;&gt;s1_league3_game3_06_stac_1490530489</title>
<g id="a_edge23"><a xlink:title="Acknowledgement">
<path fill="none" stroke="#12ffff" d="M59,-90.68C59,-87.58 59,-82.47 59,-78.16"/>
<polygon fill="#12ffff" stroke="#12ffff" points="60.75,-78.06 59,-73.06 57.25,-78.06 60.75,-78.06"/>
</a>
</g>
</g>
<!-- s1_league3_game3_06_stac_1490530489&#45;&gt;s1_league3_game3_06_stac_1490530493 -->
<!-- s1_league3_game3_06_stac_1490530490 -->
<g id="node20" class="node">
<title>s1_league3_game3_06_stac_1490530490</title>
<g id="a_node20"><a xlink:title="9 &#160;yiin &#160;then nvm">
<ellipse fill="black" stroke="black" cx="105" cy="-69.5" rx="3.5" ry="3.5"/>
</a>
</g>
</g>
<!-- s1_league3_game3_06_stac_1490530489&#45;&gt;s1_league3_game3_06_stac_1490530490 -->
<g id="edge24" class="edge">
<title>s1_league3_game3_06_stac_1490530489&#45;&gt;s1_league3_game3_06_stac_1490530490</title>
<g id="a_edge24"><a xlink:title="ExplanationResult">
<path fill="none" stroke="#a62139" d="M62.59,-69.5C73.8,-69.5 85,-69.5 96.21,-69.5"/>
<polygon fill="#a62139" stroke="#a62139" points="96.36,-71.25 101.36,-69.5 96.36,-67.75 96.36,-71.25"/>
</a>
</g>
</g>
<!-- s1_league3_game3_06_stac_1490530497 -->
<g id="node22" class="node">
<title>s1_league3_game3_06_stac_1490530497</title>
<g id="a_node22"><a xlink:title="11 &#160;Gaeilgeoir &#160;I can.">
<ellipse fill="black" stroke="black" cx="94" cy="-19.5" rx="3.5" ry="3.5"/>
</a>
</g>
</g>
<!-- s1_league3_game3_06_stac_1490530496&#45;&gt;s1_league3_game3_06_stac_1490530497 -->
<g id="edge26" class="edge">
<title>s1_league3_game3_06_stac_1490530496&#45;&gt;s1_league3_game3_06_stac_1490530497</title>
<g id="a_edge26"><a xlink:title="Conditional">
<path fill="none" stroke="#1c931a" d="M72.52,-19.5C76.78,-19.5 81.04,-19.5 85.3,-19.5"/>
<polygon fill="#1c931a" stroke="#1c931a" points="85.31,-21.25 90.31,-19.5 85.31,-17.75 85.31,-21.25"/>
</a>
</g>
</g>
</g>
</svg>
