<?xml version="1.0" encoding="UTF-8" standalone="no"?>
<!DOCTYPE svg PUBLIC "-//W3C//DTD SVG 1.1//EN"
 "http://www.w3.org/Graphics/SVG/1.1/DTD/svg11.dtd">
<!-- Generated by graphviz version 3.0.0 (20220226.1711)
 -->
<!-- Title: 7_s1_league3_game3_562 Pages: 1 -->
<svg width="93pt" height="220pt"
 viewBox="0.00 0.00 93.00 220.00" xmlns="http://www.w3.org/2000/svg" xmlns:xlink="http://www.w3.org/1999/xlink">
<g id="graph0" class="graph" transform="scale(1 1) rotate(0) translate(4 216)">
<title>7_s1_league3_game3_562</title>
<polygon fill="white" stroke="transparent" points="-4,4 -4,-216 89,-216 89,4 -4,4"/>
<g id="clust1" class="cluster">
<title>cluster_7_s1_league3_game3_562</title>
<polygon fill="none" stroke="black" points="8,-8 8,-204 77,-204 77,-8 8,-8"/>
<text text-anchor="middle" x="26.5" y="-188.8" font-family="Times,serif" font-size="14.00">562</text>
</g>
<!-- s1_league3_game3_07_stac_1368708114 -->
<g id="node1" class="node">
<title>s1_league3_game3_07_stac_1368708114</title>
<g id="a_node1"><a xlink:title="1 &#160;nareik15 &#160;can anyone trade ore. I have more wood to trade">
<ellipse fill="black" stroke="black" cx="30" cy="-169.5" rx="3.5" ry="3.5"/>
</a>
</g>
</g>
<!-- 1_0 -->
<!-- s1_league3_game3_07_stac_1368708114&#45;&gt;1_0 -->
<!-- s1_league3_game3_07_stac_1368708117 -->
<g id="node3" class="node">
<title>s1_league3_game3_07_stac_1368708117</title>
<g id="a_node3"><a xlink:title="2 &#160;Gaeilgeoir &#160;do you have clay, by any chance?">
<ellipse fill="black" stroke="black" cx="20" cy="-144.5" rx="3.5" ry="3.5"/>
</a>
</g>
</g>
<!-- s1_league3_game3_07_stac_1368708114&#45;&gt;s1_league3_game3_07_stac_1368708117 -->
<g id="edge8" class="edge">
<title>s1_league3_game3_07_stac_1368708114&#45;&gt;s1_league3_game3_07_stac_1368708117</title>
<g id="a_edge8"><a xlink:title="Q_Elab">
<path fill="none" stroke="#0d20ff" d="M28.93,-166.04C27.54,-162.84 25.05,-157.12 23.06,-152.53"/>
<polygon fill="#0d20ff" stroke="#0d20ff" points="24.63,-151.76 21.03,-147.87 21.42,-153.16 24.63,-151.76"/>
</a>
</g>
</g>
<!-- s1_league3_game3_07_stac_1368708123 -->
<g id="node7" class="node">
<title>s1_league3_game3_07_stac_1368708123</title>
<g id="a_node7"><a xlink:title="4 &#160;inca &#160;i can do that kieran">
<ellipse fill="black" stroke="black" cx="30" cy="-94.5" rx="3.5" ry="3.5"/>
</a>
</g>
</g>
<!-- s1_league3_game3_07_stac_1368708114&#45;&gt;s1_league3_game3_07_stac_1368708123 -->
<g id="edge9" class="edge">
<title>s1_league3_game3_07_stac_1368708114&#45;&gt;s1_league3_game3_07_stac_1368708123</title>
<g id="a_edge9"><a xlink:title="Question_answer_pair">
<path fill="none" stroke="#12ffff" d="M33.01,-167.39C39.08,-164.95 52.66,-158.53 58,-148 64.43,-135.32 64.43,-128.68 58,-116 53.83,-107.77 44.63,-102.05 37.91,-98.78"/>
<polygon fill="#12ffff" stroke="#12ffff" points="38.29,-97.04 33.01,-96.61 36.88,-100.24 38.29,-97.04"/>
</a>
</g>
</g>
<!-- 2_0 -->
<!-- s1_league3_game3_07_stac_1368708117&#45;&gt;2_0 -->
<!-- s1_league3_game3_07_stac_1368708120 -->
<g id="node5" class="node">
<title>s1_league3_game3_07_stac_1368708120</title>
<g id="a_node5"><a xlink:title="3 &#160;nareik15 &#160;sorry, no">
<ellipse fill="black" stroke="black" cx="20" cy="-119.5" rx="3.5" ry="3.5"/>
</a>
</g>
</g>
<!-- s1_league3_game3_07_stac_1368708117&#45;&gt;s1_league3_game3_07_stac_1368708120 -->
<g id="edge10" class="edge">
<title>s1_league3_game3_07_stac_1368708117&#45;&gt;s1_league3_game3_07_stac_1368708120</title>
<g id="a_edge10"><a xlink:title="Question_answer_pair">
<path fill="none" stroke="#12ffff" d="M20,-140.68C20,-137.58 20,-132.47 20,-128.16"/>
<polygon fill="#12ffff" stroke="#12ffff" points="21.75,-128.06 20,-123.06 18.25,-128.06 21.75,-128.06"/>
</a>
</g>
</g>
<!-- 3_0 -->
<!-- s1_league3_game3_07_stac_1368708120&#45;&gt;3_0 -->
<!-- s1_league3_game3_07_stac_1368708120&#45;&gt;s1_league3_game3_07_stac_1368708123 -->
<!-- 4_0 -->
<!-- s1_league3_game3_07_stac_1368708123&#45;&gt;4_0 -->
<!-- s1_league3_game3_07_stac_1368708126 -->
<g id="node13" class="node">
<title>s1_league3_game3_07_stac_1368708126</title>
<g id="a_node13"><a xlink:title="5 &#160;nareik15 &#160;how many can you trade.">
<ellipse fill="black" stroke="black" cx="30" cy="-69.5" rx="3.5" ry="3.5"/>
</a>
</g>
</g>
<!-- s1_league3_game3_07_stac_1368708123&#45;&gt;s1_league3_game3_07_stac_1368708126 -->
<g id="edge11" class="edge">
<title>s1_league3_game3_07_stac_1368708123&#45;&gt;s1_league3_game3_07_stac_1368708126</title>
<g id="a_edge11"><a xlink:title="Q_Elab">
<path fill="none" stroke="#0d20ff" d="M30,-90.68C30,-87.58 30,-82.47 30,-78.16"/>
<polygon fill="#0d20ff" stroke="#0d20ff" points="31.75,-78.06 30,-73.06 28.25,-78.06 31.75,-78.06"/>
</a>
</g>
</g>
<!-- s1_league3_game3_07_stac_1368708130 -->
<g id="node9" class="node">
<title>s1_league3_game3_07_stac_1368708130</title>
<g id="a_node9"><a xlink:title="6 &#160;inca &#160;just got one, sorry">
<ellipse fill="black" stroke="black" cx="30" cy="-44.5" rx="3.5" ry="3.5"/>
</a>
</g>
</g>
<!-- 6_0 -->
<!-- s1_league3_game3_07_stac_1368708130&#45;&gt;6_0 -->
<!-- s1_league3_game3_07_stac_1368708133 -->
<g id="node11" class="node">
<title>s1_league3_game3_07_stac_1368708133</title>
<g id="a_node11"><a xlink:title="7 &#160;nareik15 &#160;ok cool">
<ellipse fill="black" stroke="black" cx="30" cy="-19.5" rx="3.5" ry="3.5"/>
</a>
</g>
</g>
<!-- s1_league3_game3_07_stac_1368708130&#45;&gt;s1_league3_game3_07_stac_1368708133 -->
<g id="edge14" class="edge">
<title>s1_league3_game3_07_stac_1368708130&#45;&gt;s1_league3_game3_07_stac_1368708133</title>
<g id="a_edge14"><a xlink:title="Acknowledgement">
<path fill="none" stroke="#12ffff" d="M30,-40.68C30,-37.58 30,-32.47 30,-28.16"/>
<polygon fill="#12ffff" stroke="#12ffff" points="31.75,-28.06 30,-23.06 28.25,-28.06 31.75,-28.06"/>
</a>
</g>
</g>
<!-- 7_0 -->
<!-- s1_league3_game3_07_stac_1368708133&#45;&gt;7_0 -->
<!-- s1_league3_game3_07_stac_1368708126&#45;&gt;s1_league3_game3_07_stac_1368708130 -->
<g id="edge13" class="edge">
<title>s1_league3_game3_07_stac_1368708126&#45;&gt;s1_league3_game3_07_stac_1368708130</title>
<g id="a_edge13"><a xlink:title="Question_answer_pair">
<path fill="none" stroke="#12ffff" d="M30,-65.68C30,-62.58 30,-57.47 30,-53.16"/>
<polygon fill="#12ffff" stroke="#12ffff" points="31.75,-53.06 30,-48.06 28.25,-53.06 31.75,-53.06"/>
</a>
</g>
</g>
<!-- s1_league3_game3_07_stac_1368708127 -->
<g id="node14" class="node">
<title>s1_league3_game3_07_stac_1368708127</title>
<g id="a_node14"><a xlink:title="5 &#160;nareik15 &#160;2 for 2?">
<ellipse fill="black" stroke="black" cx="55" cy="-69.5" rx="3.5" ry="3.5"/>
</a>
</g>
</g>
<!-- s1_league3_game3_07_stac_1368708126&#45;&gt;s1_league3_game3_07_stac_1368708127 -->
<g id="edge12" class="edge">
<title>s1_league3_game3_07_stac_1368708126&#45;&gt;s1_league3_game3_07_stac_1368708127</title>
<g id="a_edge12"><a xlink:title="ParallNarrContinuationbackground">
<path fill="none" stroke="#0ab046" d="M33.52,-69.5C37.78,-69.5 42.04,-69.5 46.3,-69.5"/>
<polygon fill="#0ab046" stroke="#0ab046" points="46.31,-71.25 51.31,-69.5 46.31,-67.75 46.31,-71.25"/>
</a>
</g>
</g>
</g>
</svg>
