<?xml version="1.0" encoding="UTF-8" standalone="no"?>
<!DOCTYPE svg PUBLIC "-//W3C//DTD SVG 1.1//EN"
 "http://www.w3.org/Graphics/SVG/1.1/DTD/svg11.dtd">
<!-- Generated by graphviz version 3.0.0 (20220226.1711)
 -->
<!-- Title: 1_s1_league3_game3_544 Pages: 1 -->
<svg width="93pt" height="195pt"
 viewBox="0.00 0.00 93.00 195.00" xmlns="http://www.w3.org/2000/svg" xmlns:xlink="http://www.w3.org/1999/xlink">
<g id="graph0" class="graph" transform="scale(1 1) rotate(0) translate(4 191)">
<title>1_s1_league3_game3_544</title>
<polygon fill="white" stroke="transparent" points="-4,4 -4,-191 89,-191 89,4 -4,4"/>
<g id="clust1" class="cluster">
<title>cluster_1_s1_league3_game3_544</title>
<polygon fill="none" stroke="black" points="8,-8 8,-179 77,-179 77,-8 8,-8"/>
<text text-anchor="middle" x="26.5" y="-163.8" font-family="Times,serif" font-size="14.00">544</text>
</g>
<!-- s1_league3_game3_01_stac_1368708078 -->
<g id="node1" class="node">
<title>s1_league3_game3_01_stac_1368708078</title>
<g id="a_node1"><a xlink:title="1 &#160;Gaeilgeoir &#160;?">
<ellipse fill="black" stroke="black" cx="40" cy="-144.5" rx="3.5" ry="3.5"/>
</a>
</g>
</g>
<!-- 1_0 -->
<!-- s1_league3_game3_01_stac_1368708078&#45;&gt;1_0 -->
<!-- s1_league3_game3_01_stac_1368708081 -->
<g id="node3" class="node">
<title>s1_league3_game3_01_stac_1368708081</title>
<g id="a_node3"><a xlink:title="2 &#160;yiin &#160;build road">
<ellipse fill="black" stroke="black" cx="40" cy="-119.5" rx="3.5" ry="3.5"/>
</a>
</g>
</g>
<!-- s1_league3_game3_01_stac_1368708078&#45;&gt;s1_league3_game3_01_stac_1368708081 -->
<g id="edge8" class="edge">
<title>s1_league3_game3_01_stac_1368708078&#45;&gt;s1_league3_game3_01_stac_1368708081</title>
<g id="a_edge8"><a xlink:title="Question_answer_pair">
<path fill="none" stroke="#12ffff" d="M40,-140.68C40,-137.58 40,-132.47 40,-128.16"/>
<polygon fill="#12ffff" stroke="#12ffff" points="41.75,-128.06 40,-123.06 38.25,-128.06 41.75,-128.06"/>
</a>
</g>
</g>
<!-- 2_0 -->
<!-- s1_league3_game3_01_stac_1368708081&#45;&gt;2_0 -->
<!-- s1_league3_game3_01_stac_1368708084 -->
<g id="node5" class="node">
<title>s1_league3_game3_01_stac_1368708084</title>
<g id="a_node5"><a xlink:title="3 &#160;inca &#160;think we&#39;re meant to negotiate trades in the chat before offering">
<ellipse fill="black" stroke="black" cx="40" cy="-94.5" rx="3.5" ry="3.5"/>
</a>
</g>
</g>
<!-- s1_league3_game3_01_stac_1368708081&#45;&gt;s1_league3_game3_01_stac_1368708084 -->
<g id="edge9" class="edge">
<title>s1_league3_game3_01_stac_1368708081&#45;&gt;s1_league3_game3_01_stac_1368708084</title>
<g id="a_edge9"><a xlink:title="ContrastCorrection">
<path fill="none" stroke="#ff7ecf" d="M40,-115.68C40,-112.58 40,-107.47 40,-103.16"/>
<polygon fill="#ff7ecf" stroke="#ff7ecf" points="41.75,-103.06 40,-98.06 38.25,-103.06 41.75,-103.06"/>
</a>
</g>
</g>
<!-- 3_0 -->
<!-- s1_league3_game3_01_stac_1368708084&#45;&gt;3_0 -->
<!-- s1_league3_game3_01_stac_1368708087 -->
<g id="node7" class="node">
<title>s1_league3_game3_01_stac_1368708087</title>
<g id="a_node7"><a xlink:title="4 &#160;yiin &#160;oop">
<ellipse fill="black" stroke="black" cx="20" cy="-69.5" rx="3.5" ry="3.5"/>
</a>
</g>
</g>
<!-- s1_league3_game3_01_stac_1368708084&#45;&gt;s1_league3_game3_01_stac_1368708087 -->
<g id="edge10" class="edge">
<title>s1_league3_game3_01_stac_1368708084&#45;&gt;s1_league3_game3_01_stac_1368708087</title>
<g id="a_edge10"><a xlink:title="Comment">
<path fill="none" stroke="#ff8200" d="M38.15,-91.38C35.31,-88.11 29.75,-81.71 25.52,-76.85"/>
<polygon fill="#ff8200" stroke="#ff8200" points="26.74,-75.59 22.14,-72.96 24.1,-77.88 26.74,-75.59"/>
</a>
</g>
</g>
<!-- s1_league3_game3_01_stac_1368708088 -->
<g id="node8" class="node">
<title>s1_league3_game3_01_stac_1368708088</title>
<g id="a_node8"><a xlink:title="4 &#160;yiin &#160;ok then">
<ellipse fill="black" stroke="black" cx="45" cy="-69.5" rx="3.5" ry="3.5"/>
</a>
</g>
</g>
<!-- s1_league3_game3_01_stac_1368708084&#45;&gt;s1_league3_game3_01_stac_1368708088 -->
<g id="edge11" class="edge">
<title>s1_league3_game3_01_stac_1368708084&#45;&gt;s1_league3_game3_01_stac_1368708088</title>
<g id="a_edge11"><a xlink:title="Acknowledgement">
<path fill="none" stroke="#12ffff" d="M40.54,-91.04C41.2,-87.97 42.37,-82.6 43.34,-78.12"/>
<polygon fill="#12ffff" stroke="#12ffff" points="45.07,-78.41 44.42,-73.16 41.65,-77.67 45.07,-78.41"/>
</a>
</g>
</g>
<!-- s1_league3_game3_01_stac_1368708091 -->
<g id="node9" class="node">
<title>s1_league3_game3_01_stac_1368708091</title>
<g id="a_node9"><a xlink:title="5 &#160;inca &#160;part of the guys&#39; experiment">
<ellipse fill="black" stroke="black" cx="30" cy="-44.5" rx="3.5" ry="3.5"/>
</a>
</g>
</g>
<!-- s1_league3_game3_01_stac_1368708084&#45;&gt;s1_league3_game3_01_stac_1368708091 -->
<g id="edge12" class="edge">
<title>s1_league3_game3_01_stac_1368708084&#45;&gt;s1_league3_game3_01_stac_1368708091</title>
<g id="a_edge12"><a xlink:title="Elaboration">
<path fill="none" stroke="#a621c7" d="M42.58,-91.84C48.71,-87.68 63.27,-76.38 58,-66 53.83,-57.77 44.63,-52.05 37.91,-48.78"/>
<polygon fill="#a621c7" stroke="#a621c7" points="38.29,-47.04 33.01,-46.61 36.88,-50.24 38.29,-47.04"/>
</a>
</g>
</g>
<!-- s1_league3_game3_01_stac_1368708087&#45;&gt;s1_league3_game3_01_stac_1368708088 -->
<!-- s1_league3_game3_01_stac_1368708087&#45;&gt;s1_league3_game3_01_stac_1368708091 -->
<!-- 5_0 -->
<!-- s1_league3_game3_01_stac_1368708091&#45;&gt;5_0 -->
<!-- s1_league3_game3_01_stac_1368708094 -->
<g id="node11" class="node">
<title>s1_league3_game3_01_stac_1368708094</title>
<g id="a_node11"><a xlink:title="6 &#160;yiin &#160;oh i see">
<ellipse fill="black" stroke="black" cx="30" cy="-19.5" rx="3.5" ry="3.5"/>
</a>
</g>
</g>
<!-- s1_league3_game3_01_stac_1368708091&#45;&gt;s1_league3_game3_01_stac_1368708094 -->
<g id="edge13" class="edge">
<title>s1_league3_game3_01_stac_1368708091&#45;&gt;s1_league3_game3_01_stac_1368708094</title>
<g id="a_edge13"><a xlink:title="Acknowledgement">
<path fill="none" stroke="#12ffff" d="M30,-40.68C30,-37.58 30,-32.47 30,-28.16"/>
<polygon fill="#12ffff" stroke="#12ffff" points="31.75,-28.06 30,-23.06 28.25,-28.06 31.75,-28.06"/>
</a>
</g>
</g>
<!-- 6_0 -->
<!-- s1_league3_game3_01_stac_1368708094&#45;&gt;6_0 -->
</g>
</svg>
