<?xml version="1.0" encoding="UTF-8" standalone="no"?>
<!DOCTYPE svg PUBLIC "-//W3C//DTD SVG 1.1//EN"
 "http://www.w3.org/Graphics/SVG/1.1/DTD/svg11.dtd">
<!-- Generated by graphviz version 3.0.0 (20220226.1711)
 -->
<!-- Title: 8_s1_league3_game3_564 Pages: 1 -->
<svg width="113pt" height="195pt"
 viewBox="0.00 0.00 113.00 195.00" xmlns="http://www.w3.org/2000/svg" xmlns:xlink="http://www.w3.org/1999/xlink">
<g id="graph0" class="graph" transform="scale(1 1) rotate(0) translate(4 191)">
<title>8_s1_league3_game3_564</title>
<polygon fill="white" stroke="transparent" points="-4,4 -4,-191 109,-191 109,4 -4,4"/>
<g id="clust1" class="cluster">
<title>cluster_8_s1_league3_game3_564</title>
<polygon fill="none" stroke="black" points="8,-8 8,-179 97,-179 97,-8 8,-8"/>
<text text-anchor="middle" x="26.5" y="-163.8" font-family="Times,serif" font-size="14.00">564</text>
</g>
<!-- s1_league3_game3_08_stac_1368708060 -->
<g id="node1" class="node">
<title>s1_league3_game3_08_stac_1368708060</title>
<g id="a_node1"><a xlink:title="1 &#160;nareik15 &#160;any one have any ore?">
<ellipse fill="black" stroke="black" cx="60" cy="-144.5" rx="3.5" ry="3.5"/>
</a>
</g>
</g>
<!-- 1_0 -->
<!-- s1_league3_game3_08_stac_1368708060&#45;&gt;1_0 -->
<!-- s1_league3_game3_08_stac_1368708063 -->
<g id="node3" class="node">
<title>s1_league3_game3_08_stac_1368708063</title>
<g id="a_node3"><a xlink:title="2 &#160;inca &#160;nope, sorry">
<ellipse fill="black" stroke="black" cx="20" cy="-119.5" rx="3.5" ry="3.5"/>
</a>
</g>
</g>
<!-- s1_league3_game3_08_stac_1368708060&#45;&gt;s1_league3_game3_08_stac_1368708063 -->
<g id="edge9" class="edge">
<title>s1_league3_game3_08_stac_1368708060&#45;&gt;s1_league3_game3_08_stac_1368708063</title>
<g id="a_edge9"><a xlink:title="Question_answer_pair">
<path fill="none" stroke="#12ffff" d="M57.38,-141.99C51.33,-138.52 36.26,-129.85 27.21,-124.64"/>
<polygon fill="#12ffff" stroke="#12ffff" points="27.89,-123.02 22.69,-122.04 26.15,-126.05 27.89,-123.02"/>
</a>
</g>
</g>
<!-- s1_league3_game3_08_stac_1368708066 -->
<g id="node5" class="node">
<title>s1_league3_game3_08_stac_1368708066</title>
<g id="a_node5"><a xlink:title="3 &#160;Gaeilgeoir &#160;I have nothing at the moment :)">
<ellipse fill="black" stroke="black" cx="40" cy="-94.5" rx="3.5" ry="3.5"/>
</a>
</g>
</g>
<!-- s1_league3_game3_08_stac_1368708060&#45;&gt;s1_league3_game3_08_stac_1368708066 -->
<g id="edge10" class="edge">
<title>s1_league3_game3_08_stac_1368708060&#45;&gt;s1_league3_game3_08_stac_1368708066</title>
<g id="a_edge10"><a xlink:title="Question_answer_pair">
<path fill="none" stroke="#12ffff" d="M60.35,-140.79C60.9,-135.71 61.55,-124.48 58,-116 55.47,-109.97 50.44,-104.48 46.33,-100.7"/>
<polygon fill="#12ffff" stroke="#12ffff" points="47.34,-99.26 42.41,-97.33 45.06,-101.92 47.34,-99.26"/>
</a>
</g>
</g>
<!-- s1_league3_game3_08_stac_1368708069 -->
<g id="node11" class="node">
<title>s1_league3_game3_08_stac_1368708069</title>
<g id="a_node11"><a xlink:title="4 &#160;yiin &#160;i ahve">
<ellipse fill="black" stroke="black" cx="50" cy="-69.5" rx="3.5" ry="3.5"/>
</a>
</g>
</g>
<!-- s1_league3_game3_08_stac_1368708060&#45;&gt;s1_league3_game3_08_stac_1368708069 -->
<g id="edge11" class="edge">
<title>s1_league3_game3_08_stac_1368708060&#45;&gt;s1_league3_game3_08_stac_1368708069</title>
<g id="a_edge11"><a xlink:title="Question_answer_pair">
<path fill="none" stroke="#12ffff" d="M61.87,-141.41C68.13,-134.18 87.41,-109.56 78,-91 73.83,-82.77 64.63,-77.05 57.91,-73.78"/>
<polygon fill="#12ffff" stroke="#12ffff" points="58.29,-72.04 53.01,-71.61 56.88,-75.24 58.29,-72.04"/>
</a>
</g>
</g>
<!-- 2_0 -->
<!-- s1_league3_game3_08_stac_1368708063&#45;&gt;2_0 -->
<!-- s1_league3_game3_08_stac_1368708063&#45;&gt;s1_league3_game3_08_stac_1368708066 -->
<!-- 3_0 -->
<!-- s1_league3_game3_08_stac_1368708066&#45;&gt;3_0 -->
<!-- s1_league3_game3_08_stac_1368708066&#45;&gt;s1_league3_game3_08_stac_1368708069 -->
<!-- s1_league3_game3_08_stac_1368708073 -->
<g id="node7" class="node">
<title>s1_league3_game3_08_stac_1368708073</title>
<g id="a_node7"><a xlink:title="5 &#160;yiin &#160;have">
<ellipse fill="black" stroke="black" cx="30" cy="-44.5" rx="3.5" ry="3.5"/>
</a>
</g>
</g>
<!-- 5_0 -->
<!-- s1_league3_game3_08_stac_1368708073&#45;&gt;5_0 -->
<!-- s1_league3_game3_08_stac_1368708076 -->
<g id="node9" class="node">
<title>s1_league3_game3_08_stac_1368708076</title>
<g id="a_node9"><a xlink:title="6 &#160;nareik15 &#160;ok">
<ellipse fill="black" stroke="black" cx="40" cy="-19.5" rx="3.5" ry="3.5"/>
</a>
</g>
</g>
<!-- s1_league3_game3_08_stac_1368708073&#45;&gt;s1_league3_game3_08_stac_1368708076 -->
<!-- 6_0 -->
<!-- s1_league3_game3_08_stac_1368708076&#45;&gt;6_0 -->
<!-- s1_league3_game3_08_stac_1368708069&#45;&gt;s1_league3_game3_08_stac_1368708073 -->
<g id="edge13" class="edge">
<title>s1_league3_game3_08_stac_1368708069&#45;&gt;s1_league3_game3_08_stac_1368708073</title>
<g id="a_edge13"><a xlink:title="ContrastCorrection">
<path fill="none" stroke="#ff7ecf" d="M48.15,-66.38C45.31,-63.11 39.75,-56.71 35.52,-51.85"/>
<polygon fill="#ff7ecf" stroke="#ff7ecf" points="36.74,-50.59 32.14,-47.96 34.1,-52.88 36.74,-50.59"/>
</a>
</g>
</g>
<!-- s1_league3_game3_08_stac_1368708069&#45;&gt;s1_league3_game3_08_stac_1368708076 -->
<g id="edge14" class="edge">
<title>s1_league3_game3_08_stac_1368708069&#45;&gt;s1_league3_game3_08_stac_1368708076</title>
<g id="a_edge14"><a xlink:title="Acknowledgement">
<path fill="none" stroke="#12ffff" d="M52.58,-66.84C58.71,-62.68 73.27,-51.38 68,-41 63.83,-32.77 54.63,-27.05 47.91,-23.78"/>
<polygon fill="#12ffff" stroke="#12ffff" points="48.29,-22.04 43.01,-21.61 46.88,-25.24 48.29,-22.04"/>
</a>
</g>
</g>
<!-- s1_league3_game3_08_stac_1368708070 -->
<g id="node12" class="node">
<title>s1_league3_game3_08_stac_1368708070</title>
<g id="a_node12"><a xlink:title="4 &#160;yiin &#160;but i need wheat">
<ellipse fill="black" stroke="black" cx="75" cy="-69.5" rx="3.5" ry="3.5"/>
</a>
</g>
</g>
<!-- s1_league3_game3_08_stac_1368708069&#45;&gt;s1_league3_game3_08_stac_1368708070 -->
<g id="edge12" class="edge">
<title>s1_league3_game3_08_stac_1368708069&#45;&gt;s1_league3_game3_08_stac_1368708070</title>
<g id="a_edge12"><a xlink:title="ContrastCorrection">
<path fill="none" stroke="#ff7ecf" d="M53.52,-69.5C57.78,-69.5 62.04,-69.5 66.3,-69.5"/>
<polygon fill="#ff7ecf" stroke="#ff7ecf" points="66.31,-71.25 71.31,-69.5 66.31,-67.75 66.31,-71.25"/>
</a>
</g>
</g>
</g>
</svg>
