<?xml version="1.0" encoding="UTF-8" standalone="no"?>
<!DOCTYPE svg PUBLIC "-//W3C//DTD SVG 1.1//EN"
 "http://www.w3.org/Graphics/SVG/1.1/DTD/svg11.dtd">
<!-- Generated by graphviz version 3.0.0 (20220226.1711)
 -->
<!-- Title: 9_s1_league3_game3_567 Pages: 1 -->
<svg width="68pt" height="170pt"
 viewBox="0.00 0.00 68.00 170.00" xmlns="http://www.w3.org/2000/svg" xmlns:xlink="http://www.w3.org/1999/xlink">
<g id="graph0" class="graph" transform="scale(1 1) rotate(0) translate(4 166)">
<title>9_s1_league3_game3_567</title>
<polygon fill="white" stroke="transparent" points="-4,4 -4,-166 64,-166 64,4 -4,4"/>
<g id="clust1" class="cluster">
<title>cluster_9_s1_league3_game3_567</title>
<polygon fill="none" stroke="black" points="8,-8 8,-154 52,-154 52,-8 8,-8"/>
<text text-anchor="middle" x="26.5" y="-138.8" font-family="Times,serif" font-size="14.00">567</text>
</g>
<!-- s1_league3_game3_09_stac_1368708071 -->
<g id="node1" class="node">
<title>s1_league3_game3_09_stac_1368708071</title>
<g id="a_node1"><a xlink:title="1 &#160;Gaeilgeoir &#160;anyone have ore or sheep?">
<ellipse fill="black" stroke="black" cx="30" cy="-119.5" rx="3.5" ry="3.5"/>
</a>
</g>
</g>
<!-- s1_league3_game3_09_stac_1368708074 -->
<g id="node2" class="node">
<title>s1_league3_game3_09_stac_1368708074</title>
<g id="a_node2"><a xlink:title="2 &#160;Gaeilgeoir &#160;I can borrow wheat and wood">
<ellipse fill="black" stroke="black" cx="20" cy="-94.5" rx="3.5" ry="3.5"/>
</a>
</g>
</g>
<!-- s1_league3_game3_09_stac_1368708071&#45;&gt;s1_league3_game3_09_stac_1368708074 -->
<g id="edge2" class="edge">
<title>s1_league3_game3_09_stac_1368708071&#45;&gt;s1_league3_game3_09_stac_1368708074</title>
<g id="a_edge2"><a xlink:title="Elaboration">
<path fill="none" stroke="#a621c7" d="M28.93,-116.04C27.54,-112.84 25.05,-107.12 23.06,-102.53"/>
<polygon fill="#a621c7" stroke="#a621c7" points="24.63,-101.76 21.03,-97.87 21.42,-103.16 24.63,-101.76"/>
</a>
</g>
</g>
<!-- s1_league3_game3_09_stac_1368708080 -->
<g id="node4" class="node">
<title>s1_league3_game3_09_stac_1368708080</title>
<g id="a_node4"><a xlink:title="4 &#160;inca &#160;I&#39;ve got ore, trade for wheat?">
<ellipse fill="black" stroke="black" cx="30" cy="-44.5" rx="3.5" ry="3.5"/>
</a>
</g>
</g>
<!-- s1_league3_game3_09_stac_1368708071&#45;&gt;s1_league3_game3_09_stac_1368708080 -->
<g id="edge3" class="edge">
<title>s1_league3_game3_09_stac_1368708071&#45;&gt;s1_league3_game3_09_stac_1368708080</title>
<g id="a_edge3"><a xlink:title="Q_Elab">
<path fill="none" stroke="#0d20ff" d="M30.51,-115.86C31.24,-111.97 32.53,-104.46 33,-98 34.03,-83.82 34.03,-80.18 33,-66 32.69,-61.76 32.03,-57.07 31.4,-53.25"/>
<polygon fill="#0d20ff" stroke="#0d20ff" points="33.1,-52.76 30.51,-48.14 29.65,-53.37 33.1,-52.76"/>
</a>
</g>
</g>
<!-- s1_league3_game3_09_stac_1368708077 -->
<g id="node3" class="node">
<title>s1_league3_game3_09_stac_1368708077</title>
<g id="a_node3"><a xlink:title="3 &#160;Gaeilgeoir &#160;spare wheat and wood*">
<ellipse fill="black" stroke="black" cx="20" cy="-69.5" rx="3.5" ry="3.5"/>
</a>
</g>
</g>
<!-- s1_league3_game3_09_stac_1368708074&#45;&gt;s1_league3_game3_09_stac_1368708077 -->
<g id="edge4" class="edge">
<title>s1_league3_game3_09_stac_1368708074&#45;&gt;s1_league3_game3_09_stac_1368708077</title>
<g id="a_edge4"><a xlink:title="ContrastCorrection">
<path fill="none" stroke="#ff7ecf" d="M20,-90.68C20,-87.58 20,-82.47 20,-78.16"/>
<polygon fill="#ff7ecf" stroke="#ff7ecf" points="21.75,-78.06 20,-73.06 18.25,-78.06 21.75,-78.06"/>
</a>
</g>
</g>
<!-- s1_league3_game3_09_stac_1368708077&#45;&gt;s1_league3_game3_09_stac_1368708080 -->
<!-- s1_league3_game3_09_stac_1368708083 -->
<g id="node5" class="node">
<title>s1_league3_game3_09_stac_1368708083</title>
<g id="a_node5"><a xlink:title="5 &#160;Gaeilgeoir &#160;deal">
<ellipse fill="black" stroke="black" cx="30" cy="-19.5" rx="3.5" ry="3.5"/>
</a>
</g>
</g>
<!-- s1_league3_game3_09_stac_1368708080&#45;&gt;s1_league3_game3_09_stac_1368708083 -->
<g id="edge5" class="edge">
<title>s1_league3_game3_09_stac_1368708080&#45;&gt;s1_league3_game3_09_stac_1368708083</title>
<g id="a_edge5"><a xlink:title="Question_answer_pair">
<path fill="none" stroke="#12ffff" d="M30,-40.68C30,-37.58 30,-32.47 30,-28.16"/>
<polygon fill="#12ffff" stroke="#12ffff" points="31.75,-28.06 30,-23.06 28.25,-28.06 31.75,-28.06"/>
</a>
</g>
</g>
</g>
</svg>
