<?xml version="1.0" encoding="UTF-8" standalone="no"?>
<!DOCTYPE svg PUBLIC "-//W3C//DTD SVG 1.1//EN"
 "http://www.w3.org/Graphics/SVG/1.1/DTD/svg11.dtd">
<!-- Generated by graphviz version 3.0.0 (20220226.1711)
 -->
<!-- Title: 1_s1_league3_game3_545 Pages: 1 -->
<svg width="88pt" height="145pt"
 viewBox="0.00 0.00 88.00 145.00" xmlns="http://www.w3.org/2000/svg" xmlns:xlink="http://www.w3.org/1999/xlink">
<g id="graph0" class="graph" transform="scale(1 1) rotate(0) translate(4 141)">
<title>1_s1_league3_game3_545</title>
<polygon fill="white" stroke="transparent" points="-4,4 -4,-141 84,-141 84,4 -4,4"/>
<g id="clust1" class="cluster">
<title>cluster_1_s1_league3_game3_545</title>
<polygon fill="none" stroke="black" points="8,-8 8,-129 72,-129 72,-8 8,-8"/>
<text text-anchor="middle" x="26.5" y="-113.8" font-family="Times,serif" font-size="14.00">545</text>
</g>
<!-- s1_league3_game3_01_stac_1368708098 -->
<g id="node1" class="node">
<title>s1_league3_game3_01_stac_1368708098</title>
<g id="a_node1"><a xlink:title="1 &#160;yiin &#160;do anyone have clay or wheat">
<ellipse fill="black" stroke="black" cx="43" cy="-94.5" rx="3.5" ry="3.5"/>
</a>
</g>
</g>
<!-- s1_league3_game3_01_stac_1368708101 -->
<g id="node2" class="node">
<title>s1_league3_game3_01_stac_1368708101</title>
<g id="a_node2"><a xlink:title="2 &#160;Gaeilgeoir &#160;nope">
<ellipse fill="black" stroke="black" cx="20" cy="-69.5" rx="3.5" ry="3.5"/>
</a>
</g>
</g>
<!-- s1_league3_game3_01_stac_1368708098&#45;&gt;s1_league3_game3_01_stac_1368708101 -->
<g id="edge3" class="edge">
<title>s1_league3_game3_01_stac_1368708098&#45;&gt;s1_league3_game3_01_stac_1368708101</title>
<g id="a_edge3"><a xlink:title="Question_answer_pair">
<path fill="none" stroke="#12ffff" d="M40.88,-91.38C37.54,-88.04 30.95,-81.45 26.06,-76.56"/>
<polygon fill="#12ffff" stroke="#12ffff" points="27.23,-75.26 22.46,-72.96 24.76,-77.73 27.23,-75.26"/>
</a>
</g>
</g>
<!-- s1_league3_game3_01_stac_1368708104 -->
<g id="node3" class="node">
<title>s1_league3_game3_01_stac_1368708104</title>
<g id="a_node3"><a xlink:title="3 &#160;inca &#160;sorry, nope">
<ellipse fill="black" stroke="black" cx="40" cy="-44.5" rx="3.5" ry="3.5"/>
</a>
</g>
</g>
<!-- s1_league3_game3_01_stac_1368708098&#45;&gt;s1_league3_game3_01_stac_1368708104 -->
<g id="edge4" class="edge">
<title>s1_league3_game3_01_stac_1368708098&#45;&gt;s1_league3_game3_01_stac_1368708104</title>
<g id="a_edge4"><a xlink:title="Question_answer_pair">
<path fill="none" stroke="#12ffff" d="M42.84,-90.92C42.4,-83.95 41.19,-64.55 40.5,-53.49"/>
<polygon fill="#12ffff" stroke="#12ffff" points="42.24,-53.21 40.18,-48.33 38.74,-53.43 42.24,-53.21"/>
</a>
</g>
</g>
<!-- s1_league3_game3_01_stac_1368708108 -->
<g id="node4" class="node">
<title>s1_league3_game3_01_stac_1368708108</title>
<g id="a_node4"><a xlink:title="4 &#160;nareik15 &#160;nope sorry">
<ellipse fill="black" stroke="black" cx="50" cy="-19.5" rx="3.5" ry="3.5"/>
</a>
</g>
</g>
<!-- s1_league3_game3_01_stac_1368708098&#45;&gt;s1_league3_game3_01_stac_1368708108 -->
<g id="edge5" class="edge">
<title>s1_league3_game3_01_stac_1368708098&#45;&gt;s1_league3_game3_01_stac_1368708108</title>
<g id="a_edge5"><a xlink:title="Question_answer_pair">
<path fill="none" stroke="#12ffff" d="M43.91,-91.12C46.63,-83.75 54.43,-60.62 53,-41 52.69,-36.76 52.03,-32.07 51.4,-28.25"/>
<polygon fill="#12ffff" stroke="#12ffff" points="53.1,-27.76 50.51,-23.14 49.65,-28.37 53.1,-27.76"/>
</a>
</g>
</g>
<!-- s1_league3_game3_01_stac_1368708101&#45;&gt;s1_league3_game3_01_stac_1368708104 -->
<!-- s1_league3_game3_01_stac_1368708104&#45;&gt;s1_league3_game3_01_stac_1368708108 -->
</g>
</svg>
