<?xml version="1.0" encoding="UTF-8" standalone="no"?>
<!DOCTYPE svg PUBLIC "-//W3C//DTD SVG 1.1//EN"
 "http://www.w3.org/Graphics/SVG/1.1/DTD/svg11.dtd">
<!-- Generated by graphviz version 3.0.0 (20220226.1711)
 -->
<!-- Title: 1_s1_league3_game3_548 Pages: 1 -->
<svg width="159pt" height="247pt"
 viewBox="0.00 0.00 159.00 247.19" xmlns="http://www.w3.org/2000/svg" xmlns:xlink="http://www.w3.org/1999/xlink">
<g id="graph0" class="graph" transform="scale(1 1) rotate(0) translate(4 243.19)">
<title>1_s1_league3_game3_548</title>
<polygon fill="white" stroke="transparent" points="-4,4 -4,-243.19 155,-243.19 155,4 -4,4"/>
<g id="clust1" class="cluster">
<title>cluster_1_s1_league3_game3_548</title>
<polygon fill="none" stroke="black" points="8,-8 8,-229 143,-229 143,-8 8,-8"/>
<text text-anchor="middle" x="26.5" y="-213.8" font-family="Times,serif" font-size="14.00">548</text>
</g>
<!-- s1_league3_game3_01_stac_1368708140 -->
<g id="node1" class="node">
<title>s1_league3_game3_01_stac_1368708140</title>
<g id="a_node1"><a xlink:title="1 &#160;yiin &#160;do anyone need ore">
<ellipse fill="black" stroke="black" cx="40" cy="-194.5" rx="3.5" ry="3.5"/>
</a>
</g>
</g>
<!-- 1_0 -->
<!-- s1_league3_game3_01_stac_1368708140&#45;&gt;1_0 -->
<!-- 1_1 -->
<!-- s1_league3_game3_01_stac_1368708140&#45;&gt;1_1 -->
<!-- s1_league3_game3_01_stac_1368708143 -->
<g id="node4" class="node">
<title>s1_league3_game3_01_stac_1368708143</title>
<g id="a_node4"><a xlink:title="2 &#160;inca &#160;i&#39;ll trade for sheep?">
<ellipse fill="black" stroke="black" cx="40" cy="-169.5" rx="3.5" ry="3.5"/>
</a>
</g>
</g>
<!-- s1_league3_game3_01_stac_1368708140&#45;&gt;s1_league3_game3_01_stac_1368708143 -->
<g id="edge20" class="edge">
<title>s1_league3_game3_01_stac_1368708140&#45;&gt;s1_league3_game3_01_stac_1368708143</title>
<g id="a_edge20"><a xlink:title="Q_Elab">
<path fill="none" stroke="#0d20ff" d="M40,-190.68C40,-187.58 40,-182.47 40,-178.16"/>
<polygon fill="#0d20ff" stroke="#0d20ff" points="41.75,-178.06 40,-173.06 38.25,-178.06 41.75,-178.06"/>
</a>
</g>
</g>
<!-- s1_league3_game3_01_stac_1368708152 -->
<g id="node13" class="node">
<title>s1_league3_game3_01_stac_1368708152</title>
<g id="a_node13"><a xlink:title="5 &#160;nareik15 &#160;i&#39;m ok for ore at the mo.">
<ellipse fill="black" stroke="black" cx="40" cy="-94.5" rx="3.5" ry="3.5"/>
</a>
</g>
</g>
<!-- s1_league3_game3_01_stac_1368708140&#45;&gt;s1_league3_game3_01_stac_1368708152 -->
<g id="edge21" class="edge">
<title>s1_league3_game3_01_stac_1368708140&#45;&gt;s1_league3_game3_01_stac_1368708152</title>
<g id="a_edge21"><a xlink:title="Question_answer_pair">
<path fill="none" stroke="#12ffff" d="M38.16,-191.29C35.32,-187.71 29.99,-180.32 28,-173 21.37,-148.55 21.37,-140.45 28,-116 29.4,-110.85 32.45,-105.67 35.12,-101.81"/>
<polygon fill="#12ffff" stroke="#12ffff" points="36.58,-102.77 38.16,-97.71 33.77,-100.69 36.58,-102.77"/>
</a>
</g>
</g>
<!-- s1_league3_game3_01_stac_1368708157 -->
<g id="node16" class="node">
<title>s1_league3_game3_01_stac_1368708157</title>
<g id="a_node16"><a xlink:title="6 &#160;Gaeilgeoir &#160;sorry, I&#39;m no help">
<ellipse fill="black" stroke="black" cx="20" cy="-69.5" rx="3.5" ry="3.5"/>
</a>
</g>
</g>
<!-- s1_league3_game3_01_stac_1368708140&#45;&gt;s1_league3_game3_01_stac_1368708157 -->
<g id="edge22" class="edge">
<title>s1_league3_game3_01_stac_1368708140&#45;&gt;s1_league3_game3_01_stac_1368708157</title>
<g id="a_edge22"><a xlink:title="Question_answer_pair">
<path fill="none" stroke="#12ffff" d="M43.17,-192.7C55.43,-189.58 99.28,-178.12 103,-173 117.89,-152.5 115.91,-137.8 103,-116 94.5,-101.65 47.29,-81.45 28.11,-73.7"/>
<polygon fill="#12ffff" stroke="#12ffff" points="28.42,-71.94 23.13,-71.71 27.12,-75.19 28.42,-71.94"/>
</a>
</g>
</g>
<!-- 2_0 -->
<!-- s1_league3_game3_01_stac_1368708143&#45;&gt;2_0 -->
<!-- 2_1 -->
<!-- s1_league3_game3_01_stac_1368708143&#45;&gt;2_1 -->
<!-- s1_league3_game3_01_stac_1368708146 -->
<g id="node7" class="node">
<title>s1_league3_game3_01_stac_1368708146</title>
<g id="a_node7"><a xlink:title="3 &#160;yiin &#160;yes thank you">
<ellipse fill="black" stroke="black" cx="40" cy="-144.5" rx="3.5" ry="3.5"/>
</a>
</g>
</g>
<!-- s1_league3_game3_01_stac_1368708143&#45;&gt;s1_league3_game3_01_stac_1368708146 -->
<g id="edge23" class="edge">
<title>s1_league3_game3_01_stac_1368708143&#45;&gt;s1_league3_game3_01_stac_1368708146</title>
<g id="a_edge23"><a xlink:title="Question_answer_pair">
<path fill="none" stroke="#12ffff" d="M40,-165.68C40,-162.58 40,-157.47 40,-153.16"/>
<polygon fill="#12ffff" stroke="#12ffff" points="41.75,-153.06 40,-148.06 38.25,-153.06 41.75,-153.06"/>
</a>
</g>
</g>
<!-- 3_0 -->
<!-- s1_league3_game3_01_stac_1368708146&#45;&gt;3_0 -->
<!-- 3_1 -->
<!-- s1_league3_game3_01_stac_1368708146&#45;&gt;3_1 -->
<!-- s1_league3_game3_01_stac_1368708149 -->
<g id="node10" class="node">
<title>s1_league3_game3_01_stac_1368708149</title>
<g id="a_node10"><a xlink:title="4 &#160;inca &#160;cool">
<ellipse fill="black" stroke="black" cx="40" cy="-119.5" rx="3.5" ry="3.5"/>
</a>
</g>
</g>
<!-- s1_league3_game3_01_stac_1368708146&#45;&gt;s1_league3_game3_01_stac_1368708149 -->
<g id="edge24" class="edge">
<title>s1_league3_game3_01_stac_1368708146&#45;&gt;s1_league3_game3_01_stac_1368708149</title>
<g id="a_edge24"><a xlink:title="Acknowledgement">
<path fill="none" stroke="#12ffff" d="M40,-140.68C40,-137.58 40,-132.47 40,-128.16"/>
<polygon fill="#12ffff" stroke="#12ffff" points="41.75,-128.06 40,-123.06 38.25,-128.06 41.75,-128.06"/>
</a>
</g>
</g>
<!-- 4_0 -->
<!-- s1_league3_game3_01_stac_1368708149&#45;&gt;4_0 -->
<!-- 4_1 -->
<!-- s1_league3_game3_01_stac_1368708149&#45;&gt;4_1 -->
<!-- s1_league3_game3_01_stac_1368708149&#45;&gt;s1_league3_game3_01_stac_1368708152 -->
<!-- s1_league3_game3_01_stac_1368708153 -->
<g id="node14" class="node">
<title>s1_league3_game3_01_stac_1368708153</title>
<g id="a_node14"><a xlink:title="5 &#160;nareik15 &#160;could do with some wheat though">
<ellipse fill="black" stroke="black" cx="121" cy="-94.5" rx="3.5" ry="3.5"/>
</a>
</g>
</g>
<!-- s1_league3_game3_01_stac_1368708152&#45;&gt;s1_league3_game3_01_stac_1368708153 -->
<!-- s1_league3_game3_01_stac_1368708154 -->
<g id="node15" class="node">
<title>s1_league3_game3_01_stac_1368708154</title>
<g id="a_node15"><a xlink:title="5 &#160;nareik15 &#160;if anyone has any">
<ellipse fill="black" stroke="black" cx="96" cy="-94.5" rx="3.5" ry="3.5"/>
</a>
</g>
</g>
<!-- s1_league3_game3_01_stac_1368708152&#45;&gt;s1_league3_game3_01_stac_1368708154 -->
<g id="edge25" class="edge">
<title>s1_league3_game3_01_stac_1368708152&#45;&gt;s1_league3_game3_01_stac_1368708154</title>
<g id="a_edge25"><a xlink:title="ContrastCorrection">
<path fill="none" stroke="#ff7ecf" d="M43.94,-94.5C58.31,-94.5 72.68,-94.5 87.05,-94.5"/>
<polygon fill="#ff7ecf" stroke="#ff7ecf" points="87.34,-96.25 92.34,-94.5 87.34,-92.75 87.34,-96.25"/>
</a>
</g>
</g>
<!-- s1_league3_game3_01_stac_1368708152&#45;&gt;s1_league3_game3_01_stac_1368708157 -->
<!-- s1_league3_game3_01_stac_1368708153&#45;&gt;s1_league3_game3_01_stac_1368708154 -->
<!-- s1_league3_game3_01_stac_1368708154&#45;&gt;s1_league3_game3_01_stac_1368708153 -->
<g id="edge26" class="edge">
<title>s1_league3_game3_01_stac_1368708154&#45;&gt;s1_league3_game3_01_stac_1368708153</title>
<g id="a_edge26"><a xlink:title="Conditional">
<path fill="none" stroke="#1c931a" d="M99.52,-95.77C103.86,-97.08 108.2,-97.44 112.54,-96.85"/>
<polygon fill="#1c931a" stroke="#1c931a" points="113.14,-98.51 117.64,-95.72 112.38,-95.09 113.14,-98.51"/>
</a>
</g>
</g>
<!-- s1_league3_game3_01_stac_1368708161 -->
<g id="node19" class="node">
<title>s1_league3_game3_01_stac_1368708161</title>
<g id="a_node19"><a xlink:title="7 &#160;yiin &#160;i also need wheat :)">
<ellipse fill="black" stroke="black" cx="96" cy="-44.5" rx="3.5" ry="3.5"/>
</a>
</g>
</g>
<!-- s1_league3_game3_01_stac_1368708154&#45;&gt;s1_league3_game3_01_stac_1368708161 -->
<g id="edge28" class="edge">
<title>s1_league3_game3_01_stac_1368708154&#45;&gt;s1_league3_game3_01_stac_1368708161</title>
<g id="a_edge28"><a xlink:title="ParallNarrContinuationbackground">
<path fill="none" stroke="#0ab046" d="M99.26,-92.3C107.92,-88.89 130.41,-78.64 124,-66 119.83,-57.77 110.63,-52.05 103.91,-48.78"/>
<polygon fill="#0ab046" stroke="#0ab046" points="104.29,-47.04 99.01,-46.61 102.88,-50.24 104.29,-47.04"/>
</a>
</g>
</g>
<!-- s1_league3_game3_01_stac_1368708164 -->
<g id="node21" class="node">
<title>s1_league3_game3_01_stac_1368708164</title>
<g id="a_node21"><a xlink:title="8 &#160;inca &#160;no wheat here, sorry">
<ellipse fill="black" stroke="black" cx="51" cy="-19.5" rx="3.5" ry="3.5"/>
</a>
</g>
</g>
<!-- s1_league3_game3_01_stac_1368708154&#45;&gt;s1_league3_game3_01_stac_1368708164 -->
<g id="edge29" class="edge">
<title>s1_league3_game3_01_stac_1368708154&#45;&gt;s1_league3_game3_01_stac_1368708164</title>
<g id="a_edge29"><a xlink:title="Question_answer_pair">
<path fill="none" stroke="#12ffff" d="M93.65,-91.83C89.27,-88.62 79.8,-81.18 74,-73 63.7,-58.48 56.57,-38.62 53.2,-27.97"/>
<polygon fill="#12ffff" stroke="#12ffff" points="54.85,-27.37 51.72,-23.09 51.5,-28.39 54.85,-27.37"/>
</a>
</g>
</g>
<!-- s1_league3_game3_01_stac_1368708160 -->
<g id="node24" class="node">
<title>s1_league3_game3_01_stac_1368708160</title>
<g id="a_node24"><a xlink:title="7 &#160;yiin &#160;yes">
<ellipse fill="black" stroke="black" cx="40" cy="-44.5" rx="3.5" ry="3.5"/>
</a>
</g>
</g>
<!-- s1_league3_game3_01_stac_1368708154&#45;&gt;s1_league3_game3_01_stac_1368708160 -->
<g id="edge27" class="edge">
<title>s1_league3_game3_01_stac_1368708154&#45;&gt;s1_league3_game3_01_stac_1368708160</title>
<g id="a_edge27"><a xlink:title="Acknowledgement">
<path fill="none" stroke="#12ffff" d="M92.93,-92.44C86.02,-89.95 69.04,-83.14 58,-73 51.69,-67.21 46.6,-58.76 43.46,-52.75"/>
<polygon fill="#12ffff" stroke="#12ffff" points="44.93,-51.78 41.15,-48.08 41.79,-53.33 44.93,-51.78"/>
</a>
</g>
</g>
<!-- 6_0 -->
<!-- s1_league3_game3_01_stac_1368708157&#45;&gt;6_0 -->
<!-- 6_1 -->
<!-- s1_league3_game3_01_stac_1368708157&#45;&gt;6_1 -->
<!-- s1_league3_game3_01_stac_1368708157&#45;&gt;s1_league3_game3_01_stac_1368708160 -->
<!-- 7_0 -->
<!-- s1_league3_game3_01_stac_1368708161&#45;&gt;7_0 -->
<!-- 8_0 -->
<!-- s1_league3_game3_01_stac_1368708164&#45;&gt;8_0 -->
<!-- 8_1 -->
<!-- s1_league3_game3_01_stac_1368708164&#45;&gt;8_1 -->
<!-- s1_league3_game3_01_stac_1368708160&#45;&gt;s1_league3_game3_01_stac_1368708161 -->
<g id="edge30" class="edge">
<title>s1_league3_game3_01_stac_1368708160&#45;&gt;s1_league3_game3_01_stac_1368708161</title>
<g id="a_edge30"><a xlink:title="Elaboration">
<path fill="none" stroke="#a621c7" d="M43.94,-44.5C58.31,-44.5 72.68,-44.5 87.05,-44.5"/>
<polygon fill="#a621c7" stroke="#a621c7" points="87.34,-46.25 92.34,-44.5 87.34,-42.75 87.34,-46.25"/>
</a>
</g>
</g>
<!-- s1_league3_game3_01_stac_1368708160&#45;&gt;s1_league3_game3_01_stac_1368708164 -->
</g>
</svg>
