<?xml version="1.0" encoding="UTF-8" standalone="no"?>
<!DOCTYPE svg PUBLIC "-//W3C//DTD SVG 1.1//EN"
 "http://www.w3.org/Graphics/SVG/1.1/DTD/svg11.dtd">
<!-- Generated by graphviz version 3.0.0 (20220226.1711)
 -->
<!-- Title: 4_s1_league3_game3_552 Pages: 1 -->
<svg width="139pt" height="197pt"
 viewBox="0.00 0.00 139.00 197.19" xmlns="http://www.w3.org/2000/svg" xmlns:xlink="http://www.w3.org/1999/xlink">
<g id="graph0" class="graph" transform="scale(1 1) rotate(0) translate(4 193.19)">
<title>4_s1_league3_game3_552</title>
<polygon fill="white" stroke="transparent" points="-4,4 -4,-193.19 135,-193.19 135,4 -4,4"/>
<g id="clust1" class="cluster">
<title>cluster_4_s1_league3_game3_552</title>
<polygon fill="none" stroke="black" points="8,-8 8,-179 123,-179 123,-8 8,-8"/>
<text text-anchor="middle" x="26.5" y="-163.8" font-family="Times,serif" font-size="14.00">552</text>
</g>
<!-- s1_league3_game3_04_stac_1368708031 -->
<g id="node1" class="node">
<title>s1_league3_game3_04_stac_1368708031</title>
<g id="a_node1"><a xlink:title="1 &#160;nareik15 &#160;anyone have wood to trade. I have sheep">
<ellipse fill="black" stroke="black" cx="43" cy="-144.5" rx="3.5" ry="3.5"/>
</a>
</g>
</g>
<!-- 1_0 -->
<!-- s1_league3_game3_04_stac_1368708031&#45;&gt;1_0 -->
<!-- 1_1 -->
<!-- s1_league3_game3_04_stac_1368708031&#45;&gt;1_1 -->
<!-- s1_league3_game3_04_stac_1368708034 -->
<g id="node4" class="node">
<title>s1_league3_game3_04_stac_1368708034</title>
<g id="a_node4"><a xlink:title="2 &#160;yiin &#160;no">
<ellipse fill="black" stroke="black" cx="20" cy="-119.5" rx="3.5" ry="3.5"/>
</a>
</g>
</g>
<!-- s1_league3_game3_04_stac_1368708031&#45;&gt;s1_league3_game3_04_stac_1368708034 -->
<g id="edge12" class="edge">
<title>s1_league3_game3_04_stac_1368708031&#45;&gt;s1_league3_game3_04_stac_1368708034</title>
<g id="a_edge12"><a xlink:title="Question_answer_pair">
<path fill="none" stroke="#12ffff" d="M40.88,-141.38C37.54,-138.04 30.95,-131.45 26.06,-126.56"/>
<polygon fill="#12ffff" stroke="#12ffff" points="27.23,-125.26 22.46,-122.96 24.76,-127.73 27.23,-125.26"/>
</a>
</g>
</g>
<!-- s1_league3_game3_04_stac_1368708037 -->
<g id="node14" class="node">
<title>s1_league3_game3_04_stac_1368708037</title>
<g id="a_node14"><a xlink:title="3 &#160;Gaeilgeoir &#160;Sorry,">
<ellipse fill="black" stroke="black" cx="20" cy="-94.5" rx="3.5" ry="3.5"/>
</a>
</g>
</g>
<!-- s1_league3_game3_04_stac_1368708031&#45;&gt;s1_league3_game3_04_stac_1368708037 -->
<g id="edge13" class="edge">
<title>s1_league3_game3_04_stac_1368708031&#45;&gt;s1_league3_game3_04_stac_1368708037</title>
<g id="a_edge13"><a xlink:title="Question_answer_pair">
<path fill="none" stroke="#12ffff" d="M42.24,-140.84C40.78,-135.85 37.3,-124.75 33,-116 30.59,-111.11 27.3,-105.92 24.63,-101.99"/>
<polygon fill="#12ffff" stroke="#12ffff" points="26,-100.89 21.69,-97.8 23.13,-102.9 26,-100.89"/>
</a>
</g>
</g>
<!-- s1_league3_game3_04_stac_1368708045 -->
<g id="node15" class="node">
<title>s1_league3_game3_04_stac_1368708045</title>
<g id="a_node15"><a xlink:title="5 &#160;inca &#160;do you have wheat kieran?">
<ellipse fill="black" stroke="black" cx="40" cy="-44.5" rx="3.5" ry="3.5"/>
</a>
</g>
</g>
<!-- s1_league3_game3_04_stac_1368708031&#45;&gt;s1_league3_game3_04_stac_1368708045 -->
<g id="edge14" class="edge">
<title>s1_league3_game3_04_stac_1368708031&#45;&gt;s1_league3_game3_04_stac_1368708045</title>
<g id="a_edge14"><a xlink:title="Q_Elab">
<path fill="none" stroke="#0d20ff" d="M45.27,-141.75C56.11,-133.18 101.26,-94.94 83,-66 79.02,-59.69 59.27,-52.08 47.97,-48.15"/>
<polygon fill="#0d20ff" stroke="#0d20ff" points="48.26,-46.4 42.96,-46.45 47.13,-49.71 48.26,-46.4"/>
</a>
</g>
</g>
<!-- 2_0 -->
<!-- s1_league3_game3_04_stac_1368708034&#45;&gt;2_0 -->
<!-- 2_1 -->
<!-- s1_league3_game3_04_stac_1368708034&#45;&gt;2_1 -->
<!-- s1_league3_game3_04_stac_1368708034&#45;&gt;s1_league3_game3_04_stac_1368708037 -->
<!-- s1_league3_game3_04_stac_1368708038 -->
<g id="node7" class="node">
<title>s1_league3_game3_04_stac_1368708038</title>
<g id="a_node7"><a xlink:title="3 &#160;Gaeilgeoir &#160;I need wood too">
<ellipse fill="black" stroke="black" cx="45" cy="-94.5" rx="3.5" ry="3.5"/>
</a>
</g>
</g>
<!-- 3_0 -->
<!-- s1_league3_game3_04_stac_1368708038&#45;&gt;3_0 -->
<!-- s1_league3_game3_04_stac_1368708042 -->
<g id="node10" class="node">
<title>s1_league3_game3_04_stac_1368708042</title>
<g id="a_node10"><a xlink:title="4 &#160;Gaeilgeoir &#160;if you want">
<ellipse fill="black" stroke="black" cx="45" cy="-69.5" rx="3.5" ry="3.5"/>
</a>
</g>
</g>
<!-- s1_league3_game3_04_stac_1368708038&#45;&gt;s1_league3_game3_04_stac_1368708042 -->
<g id="edge16" class="edge">
<title>s1_league3_game3_04_stac_1368708038&#45;&gt;s1_league3_game3_04_stac_1368708042</title>
<g id="a_edge16"><a xlink:title="ContrastCorrection">
<path fill="none" stroke="#ff7ecf" d="M45,-90.68C45,-87.58 45,-82.47 45,-78.16"/>
<polygon fill="#ff7ecf" stroke="#ff7ecf" points="46.75,-78.06 45,-73.06 43.25,-78.06 46.75,-78.06"/>
</a>
</g>
</g>
<!-- s1_league3_game3_04_stac_1368708041 -->
<g id="node9" class="node">
<title>s1_league3_game3_04_stac_1368708041</title>
<g id="a_node9"><a xlink:title="4 &#160;Gaeilgeoir &#160;I have wheat">
<ellipse fill="black" stroke="black" cx="20" cy="-69.5" rx="3.5" ry="3.5"/>
</a>
</g>
</g>
<!-- s1_league3_game3_04_stac_1368708041&#45;&gt;s1_league3_game3_04_stac_1368708042 -->
<!-- s1_league3_game3_04_stac_1368708041&#45;&gt;s1_league3_game3_04_stac_1368708045 -->
<!-- s1_league3_game3_04_stac_1368708042&#45;&gt;s1_league3_game3_04_stac_1368708041 -->
<g id="edge17" class="edge">
<title>s1_league3_game3_04_stac_1368708042&#45;&gt;s1_league3_game3_04_stac_1368708041</title>
<g id="a_edge17"><a xlink:title="Conditional">
<path fill="none" stroke="#1c931a" d="M41.64,-70.72C37.3,-72.05 32.96,-72.44 28.61,-71.87"/>
<polygon fill="#1c931a" stroke="#1c931a" points="28.77,-70.12 23.52,-70.77 28.03,-73.54 28.77,-70.12"/>
</a>
</g>
</g>
<!-- 4_0 -->
<!-- s1_league3_game3_04_stac_1368708042&#45;&gt;4_0 -->
<!-- s1_league3_game3_04_stac_1368708051 -->
<g id="node12" class="node">
<title>s1_league3_game3_04_stac_1368708051</title>
<g id="a_node12"><a xlink:title="6 &#160;nareik15 &#160;plenty of sheep though :)">
<ellipse fill="black" stroke="black" cx="65" cy="-19.5" rx="3.5" ry="3.5"/>
</a>
</g>
</g>
<!-- 6_0 -->
<!-- s1_league3_game3_04_stac_1368708051&#45;&gt;6_0 -->
<!-- s1_league3_game3_04_stac_1368708037&#45;&gt;s1_league3_game3_04_stac_1368708038 -->
<g id="edge15" class="edge">
<title>s1_league3_game3_04_stac_1368708037&#45;&gt;s1_league3_game3_04_stac_1368708038</title>
<g id="a_edge15"><a xlink:title="Comment">
<path fill="none" stroke="#ff8200" d="M23.52,-94.5C27.78,-94.5 32.04,-94.5 36.3,-94.5"/>
<polygon fill="#ff8200" stroke="#ff8200" points="36.31,-96.25 41.31,-94.5 36.31,-92.75 36.31,-96.25"/>
</a>
</g>
</g>
<!-- s1_league3_game3_04_stac_1368708037&#45;&gt;s1_league3_game3_04_stac_1368708041 -->
<!-- s1_league3_game3_04_stac_1368708046 -->
<g id="node16" class="node">
<title>s1_league3_game3_04_stac_1368708046</title>
<g id="a_node16"><a xlink:title="5 &#160;inca &#160;if so">
<ellipse fill="black" stroke="black" cx="65" cy="-44.5" rx="3.5" ry="3.5"/>
</a>
</g>
</g>
<!-- s1_league3_game3_04_stac_1368708045&#45;&gt;s1_league3_game3_04_stac_1368708046 -->
<g id="edge18" class="edge">
<title>s1_league3_game3_04_stac_1368708045&#45;&gt;s1_league3_game3_04_stac_1368708046</title>
<g id="a_edge18"><a xlink:title="ExplanationResult">
<path fill="none" stroke="#a62139" d="M43.52,-44.5C47.78,-44.5 52.04,-44.5 56.3,-44.5"/>
<polygon fill="#a62139" stroke="#a62139" points="56.31,-46.25 61.31,-44.5 56.31,-42.75 56.31,-46.25"/>
</a>
</g>
</g>
<!-- s1_league3_game3_04_stac_1368708050 -->
<g id="node18" class="node">
<title>s1_league3_game3_04_stac_1368708050</title>
<g id="a_node18"><a xlink:title="6 &#160;nareik15 &#160;sorry,">
<ellipse fill="black" stroke="black" cx="40" cy="-19.5" rx="3.5" ry="3.5"/>
</a>
</g>
</g>
<!-- s1_league3_game3_04_stac_1368708045&#45;&gt;s1_league3_game3_04_stac_1368708050 -->
<g id="edge19" class="edge">
<title>s1_league3_game3_04_stac_1368708045&#45;&gt;s1_league3_game3_04_stac_1368708050</title>
<g id="a_edge19"><a xlink:title="Question_answer_pair">
<path fill="none" stroke="#12ffff" d="M40,-40.68C40,-37.58 40,-32.47 40,-28.16"/>
<polygon fill="#12ffff" stroke="#12ffff" points="41.75,-28.06 40,-23.06 38.25,-28.06 41.75,-28.06"/>
</a>
</g>
</g>
<!-- s1_league3_game3_04_stac_1368708047 -->
<g id="node17" class="node">
<title>s1_league3_game3_04_stac_1368708047</title>
<g id="a_node17"><a xlink:title="5 &#160;inca &#160;i can trade wood">
<ellipse fill="black" stroke="black" cx="90" cy="-44.5" rx="3.5" ry="3.5"/>
</a>
</g>
</g>
<!-- s1_league3_game3_04_stac_1368708046&#45;&gt;s1_league3_game3_04_stac_1368708047 -->
<g id="edge20" class="edge">
<title>s1_league3_game3_04_stac_1368708046&#45;&gt;s1_league3_game3_04_stac_1368708047</title>
<g id="a_edge20"><a xlink:title="Conditional">
<path fill="none" stroke="#1c931a" d="M68.52,-44.5C72.78,-44.5 77.04,-44.5 81.3,-44.5"/>
<polygon fill="#1c931a" stroke="#1c931a" points="81.31,-46.25 86.31,-44.5 81.31,-42.75 81.31,-46.25"/>
</a>
</g>
</g>
<!-- s1_league3_game3_04_stac_1368708050&#45;&gt;s1_league3_game3_04_stac_1368708051 -->
<g id="edge21" class="edge">
<title>s1_league3_game3_04_stac_1368708050&#45;&gt;s1_league3_game3_04_stac_1368708051</title>
<g id="a_edge21"><a xlink:title="ContrastCorrection">
<path fill="none" stroke="#ff7ecf" d="M43.52,-19.5C47.78,-19.5 52.04,-19.5 56.3,-19.5"/>
<polygon fill="#ff7ecf" stroke="#ff7ecf" points="56.31,-21.25 61.31,-19.5 56.31,-17.75 56.31,-21.25"/>
</a>
</g>
</g>
</g>
</svg>
