<?xml version="1.0" encoding="UTF-8" standalone="no"?>
<!DOCTYPE svg PUBLIC "-//W3C//DTD SVG 1.1//EN"
 "http://www.w3.org/Graphics/SVG/1.1/DTD/svg11.dtd">
<!-- Generated by graphviz version 3.0.0 (20220226.1711)
 -->
<!-- Title: 2_s2_leagueM_game4_1055 Pages: 1 -->
<svg width="93pt" height="195pt"
 viewBox="0.00 0.00 93.00 195.00" xmlns="http://www.w3.org/2000/svg" xmlns:xlink="http://www.w3.org/1999/xlink">
<g id="graph0" class="graph" transform="scale(1 1) rotate(0) translate(4 191)">
<title>2_s2_leagueM_game4_1055</title>
<polygon fill="white" stroke="transparent" points="-4,4 -4,-191 89,-191 89,4 -4,4"/>
<g id="clust1" class="cluster">
<title>cluster_2_s2_leagueM_game4_1055</title>
<polygon fill="none" stroke="black" points="8,-8 8,-179 77,-179 77,-8 8,-8"/>
<text text-anchor="middle" x="30" y="-163.8" font-family="Times,serif" font-size="14.00">1055</text>
</g>
<!-- s2_leagueM_game4_02_stac_1413791894 -->
<g id="node1" class="node">
<title>s2_leagueM_game4_02_stac_1413791894</title>
<g id="a_node1"><a xlink:title="1 &#160;inca &#160;what were you offering again dmm?">
<ellipse fill="black" stroke="black" cx="30" cy="-144.5" rx="3.5" ry="3.5"/>
</a>
</g>
</g>
<!-- 1_0 -->
<!-- s2_leagueM_game4_02_stac_1413791894&#45;&gt;1_0 -->
<!-- s2_leagueM_game4_02_stac_1413791897 -->
<g id="node3" class="node">
<title>s2_leagueM_game4_02_stac_1413791897</title>
<g id="a_node3"><a xlink:title="2 &#160;inca &#160;i have clay now">
<ellipse fill="black" stroke="black" cx="20" cy="-119.5" rx="3.5" ry="3.5"/>
</a>
</g>
</g>
<!-- s2_leagueM_game4_02_stac_1413791894&#45;&gt;s2_leagueM_game4_02_stac_1413791897 -->
<g id="edge8" class="edge">
<title>s2_leagueM_game4_02_stac_1413791894&#45;&gt;s2_leagueM_game4_02_stac_1413791897</title>
<g id="a_edge8"><a xlink:title="ExplanationResult">
<path fill="none" stroke="#a62139" d="M28.93,-141.04C27.54,-137.84 25.05,-132.12 23.06,-127.53"/>
<polygon fill="#a62139" stroke="#a62139" points="24.63,-126.76 21.03,-122.87 21.42,-128.16 24.63,-126.76"/>
</a>
</g>
</g>
<!-- s2_leagueM_game4_02_stac_1413791903 -->
<g id="node9" class="node">
<title>s2_leagueM_game4_02_stac_1413791903</title>
<g id="a_node9"><a xlink:title="4 &#160;dmm &#160;i don&#39;t need ore now...">
<ellipse fill="black" stroke="black" cx="20" cy="-69.5" rx="3.5" ry="3.5"/>
</a>
</g>
</g>
<!-- s2_leagueM_game4_02_stac_1413791894&#45;&gt;s2_leagueM_game4_02_stac_1413791903 -->
<g id="edge9" class="edge">
<title>s2_leagueM_game4_02_stac_1413791894&#45;&gt;s2_leagueM_game4_02_stac_1413791903</title>
<g id="a_edge9"><a xlink:title="Question_answer_pair">
<path fill="none" stroke="#12ffff" d="M33.01,-142.39C39.08,-139.95 52.66,-133.53 58,-123 64.43,-110.32 65.29,-103.21 58,-91 51.64,-80.34 37.6,-74.89 28.49,-72.37"/>
<polygon fill="#12ffff" stroke="#12ffff" points="28.83,-70.66 23.56,-71.17 28,-74.06 28.83,-70.66"/>
</a>
</g>
</g>
<!-- 2_0 -->
<!-- s2_leagueM_game4_02_stac_1413791897&#45;&gt;2_0 -->
<!-- s2_leagueM_game4_02_stac_1413791900 -->
<g id="node5" class="node">
<title>s2_leagueM_game4_02_stac_1413791900</title>
<g id="a_node5"><a xlink:title="3 &#160;inca &#160;and tons of ore">
<ellipse fill="black" stroke="black" cx="20" cy="-94.5" rx="3.5" ry="3.5"/>
</a>
</g>
</g>
<!-- s2_leagueM_game4_02_stac_1413791897&#45;&gt;s2_leagueM_game4_02_stac_1413791900 -->
<g id="edge10" class="edge">
<title>s2_leagueM_game4_02_stac_1413791897&#45;&gt;s2_leagueM_game4_02_stac_1413791900</title>
<g id="a_edge10"><a xlink:title="ParallNarrContinuationbackground">
<path fill="none" stroke="#0ab046" d="M20,-115.68C20,-112.58 20,-107.47 20,-103.16"/>
<polygon fill="#0ab046" stroke="#0ab046" points="21.75,-103.06 20,-98.06 18.25,-103.06 21.75,-103.06"/>
</a>
</g>
</g>
<!-- 3_0 -->
<!-- s2_leagueM_game4_02_stac_1413791900&#45;&gt;3_0 -->
<!-- s2_leagueM_game4_02_stac_1413791900&#45;&gt;s2_leagueM_game4_02_stac_1413791903 -->
<!-- s2_leagueM_game4_02_stac_1413791911 -->
<g id="node7" class="node">
<title>s2_leagueM_game4_02_stac_1413791911</title>
<g id="a_node7"><a xlink:title="6 &#160;dmm &#160;alright">
<ellipse fill="black" stroke="black" cx="30" cy="-19.5" rx="3.5" ry="3.5"/>
</a>
</g>
</g>
<!-- 6_0 -->
<!-- s2_leagueM_game4_02_stac_1413791911&#45;&gt;6_0 -->
<!-- s2_leagueM_game4_02_stac_1413791904 -->
<g id="node10" class="node">
<title>s2_leagueM_game4_02_stac_1413791904</title>
<g id="a_node10"><a xlink:title="4 &#160;dmm &#160;i could offer wood">
<ellipse fill="black" stroke="black" cx="45" cy="-69.5" rx="3.5" ry="3.5"/>
</a>
</g>
</g>
<!-- s2_leagueM_game4_02_stac_1413791903&#45;&gt;s2_leagueM_game4_02_stac_1413791904 -->
<g id="edge11" class="edge">
<title>s2_leagueM_game4_02_stac_1413791903&#45;&gt;s2_leagueM_game4_02_stac_1413791904</title>
<g id="a_edge11"><a xlink:title="ContrastCorrection">
<path fill="none" stroke="#ff7ecf" d="M23.52,-69.5C27.78,-69.5 32.04,-69.5 36.3,-69.5"/>
<polygon fill="#ff7ecf" stroke="#ff7ecf" points="36.31,-71.25 41.31,-69.5 36.31,-67.75 36.31,-71.25"/>
</a>
</g>
</g>
<!-- s2_leagueM_game4_02_stac_1413791907 -->
<g id="node11" class="node">
<title>s2_leagueM_game4_02_stac_1413791907</title>
<g id="a_node11"><a xlink:title="5 &#160;inca &#160;that would be good,">
<ellipse fill="black" stroke="black" cx="20" cy="-44.5" rx="3.5" ry="3.5"/>
</a>
</g>
</g>
<!-- s2_leagueM_game4_02_stac_1413791903&#45;&gt;s2_leagueM_game4_02_stac_1413791907 -->
<!-- s2_leagueM_game4_02_stac_1413791904&#45;&gt;s2_leagueM_game4_02_stac_1413791907 -->
<g id="edge12" class="edge">
<title>s2_leagueM_game4_02_stac_1413791904&#45;&gt;s2_leagueM_game4_02_stac_1413791907</title>
<g id="a_edge12"><a xlink:title="Question_answer_pair">
<path fill="none" stroke="#12ffff" d="M42.69,-66.38C38.92,-62.9 31.3,-55.89 25.93,-50.96"/>
<polygon fill="#12ffff" stroke="#12ffff" points="26.95,-49.52 22.09,-47.42 24.58,-52.09 26.95,-49.52"/>
</a>
</g>
</g>
<!-- s2_leagueM_game4_02_stac_1413791908 -->
<g id="node12" class="node">
<title>s2_leagueM_game4_02_stac_1413791908</title>
<g id="a_node12"><a xlink:title="5 &#160;inca &#160;1 clay for 1 wood?">
<ellipse fill="black" stroke="black" cx="45" cy="-44.5" rx="3.5" ry="3.5"/>
</a>
</g>
</g>
<!-- s2_leagueM_game4_02_stac_1413791904&#45;&gt;s2_leagueM_game4_02_stac_1413791908 -->
<g id="edge13" class="edge">
<title>s2_leagueM_game4_02_stac_1413791904&#45;&gt;s2_leagueM_game4_02_stac_1413791908</title>
<g id="a_edge13"><a xlink:title="Q_Elab">
<path fill="none" stroke="#0d20ff" d="M45,-65.68C45,-62.58 45,-57.47 45,-53.16"/>
<polygon fill="#0d20ff" stroke="#0d20ff" points="46.75,-53.06 45,-48.06 43.25,-53.06 46.75,-53.06"/>
</a>
</g>
</g>
<!-- s2_leagueM_game4_02_stac_1413791907&#45;&gt;s2_leagueM_game4_02_stac_1413791911 -->
<!-- s2_leagueM_game4_02_stac_1413791907&#45;&gt;s2_leagueM_game4_02_stac_1413791908 -->
<g id="edge14" class="edge">
<title>s2_leagueM_game4_02_stac_1413791907&#45;&gt;s2_leagueM_game4_02_stac_1413791908</title>
<g id="a_edge14"><a xlink:title="ParallNarrContinuationbackground">
<path fill="none" stroke="#0ab046" d="M23.52,-44.5C27.78,-44.5 32.04,-44.5 36.3,-44.5"/>
<polygon fill="#0ab046" stroke="#0ab046" points="36.31,-46.25 41.31,-44.5 36.31,-42.75 36.31,-46.25"/>
</a>
</g>
</g>
<!-- s2_leagueM_game4_02_stac_1413791908&#45;&gt;s2_leagueM_game4_02_stac_1413791911 -->
<g id="edge15" class="edge">
<title>s2_leagueM_game4_02_stac_1413791908&#45;&gt;s2_leagueM_game4_02_stac_1413791911</title>
<g id="a_edge15"><a xlink:title="Question_answer_pair">
<path fill="none" stroke="#12ffff" d="M43.39,-41.04C41.26,-37.77 37.42,-31.87 34.39,-27.23"/>
<polygon fill="#12ffff" stroke="#12ffff" points="35.75,-26.11 31.55,-22.87 32.81,-28.02 35.75,-26.11"/>
</a>
</g>
</g>
</g>
</svg>
