<?xml version="1.0" encoding="UTF-8" standalone="no"?>
<!DOCTYPE svg PUBLIC "-//W3C//DTD SVG 1.1//EN"
 "http://www.w3.org/Graphics/SVG/1.1/DTD/svg11.dtd">
<!-- Generated by graphviz version 3.0.0 (20220226.1711)
 -->
<!-- Title: 7_s2_league4_game2_780 Pages: 1 -->
<svg width="88pt" height="270pt"
 viewBox="0.00 0.00 88.00 270.00" xmlns="http://www.w3.org/2000/svg" xmlns:xlink="http://www.w3.org/1999/xlink">
<g id="graph0" class="graph" transform="scale(1 1) rotate(0) translate(4 266)">
<title>7_s2_league4_game2_780</title>
<polygon fill="white" stroke="transparent" points="-4,4 -4,-266 84,-266 84,4 -4,4"/>
<g id="clust1" class="cluster">
<title>cluster_7_s2_league4_game2_780</title>
<polygon fill="none" stroke="black" points="8,-8 8,-254 72,-254 72,-8 8,-8"/>
<text text-anchor="middle" x="26.5" y="-238.8" font-family="Times,serif" font-size="14.00">780</text>
</g>
<!-- s2_league4_game2_07_stac_1399316579 -->
<g id="node1" class="node">
<title>s2_league4_game2_07_stac_1399316579</title>
<g id="a_node1"><a xlink:title="1 &#160;Shawnus &#160;anyone want to give me wheat for sheep?">
<ellipse fill="black" stroke="black" cx="43" cy="-219.5" rx="3.5" ry="3.5"/>
</a>
</g>
</g>
<!-- s2_league4_game2_07_stac_1399316582 -->
<g id="node2" class="node">
<title>s2_league4_game2_07_stac_1399316582</title>
<g id="a_node2"><a xlink:title="2 &#160;ztime &#160;sorry">
<ellipse fill="black" stroke="black" cx="20" cy="-194.5" rx="3.5" ry="3.5"/>
</a>
</g>
</g>
<!-- s2_league4_game2_07_stac_1399316579&#45;&gt;s2_league4_game2_07_stac_1399316582 -->
<g id="edge4" class="edge">
<title>s2_league4_game2_07_stac_1399316579&#45;&gt;s2_league4_game2_07_stac_1399316582</title>
<g id="a_edge4"><a xlink:title="Question_answer_pair">
<path fill="none" stroke="#12ffff" d="M40.88,-216.38C37.54,-213.04 30.95,-206.45 26.06,-201.56"/>
<polygon fill="#12ffff" stroke="#12ffff" points="27.23,-200.26 22.46,-197.96 24.76,-202.73 27.23,-200.26"/>
</a>
</g>
</g>
<!-- s2_league4_game2_07_stac_1399316585 -->
<g id="node3" class="node">
<title>s2_league4_game2_07_stac_1399316585</title>
<g id="a_node3"><a xlink:title="3 &#160;somdechn &#160;I got sheep">
<ellipse fill="black" stroke="black" cx="30" cy="-169.5" rx="3.5" ry="3.5"/>
</a>
</g>
</g>
<!-- s2_league4_game2_07_stac_1399316579&#45;&gt;s2_league4_game2_07_stac_1399316585 -->
<g id="edge5" class="edge">
<title>s2_league4_game2_07_stac_1399316579&#45;&gt;s2_league4_game2_07_stac_1399316585</title>
<g id="a_edge5"><a xlink:title="Question_answer_pair">
<path fill="none" stroke="#12ffff" d="M42.3,-215.92C40.4,-208.89 35.06,-189.19 32.08,-178.18"/>
<polygon fill="#12ffff" stroke="#12ffff" points="33.76,-177.7 30.77,-173.33 30.39,-178.62 33.76,-177.7"/>
</a>
</g>
</g>
<!-- s2_league4_game2_07_stac_1399316595 -->
<g id="node6" class="node">
<title>s2_league4_game2_07_stac_1399316595</title>
<g id="a_node6"><a xlink:title="6 &#160;somdechn &#160;Shawnus I got Sheep.. still want to trand?">
<ellipse fill="black" stroke="black" cx="50" cy="-94.5" rx="3.5" ry="3.5"/>
</a>
</g>
</g>
<!-- s2_league4_game2_07_stac_1399316579&#45;&gt;s2_league4_game2_07_stac_1399316595 -->
<g id="edge8" class="edge">
<title>s2_league4_game2_07_stac_1399316579&#45;&gt;s2_league4_game2_07_stac_1399316595</title>
<g id="a_edge8"><a xlink:title="Q_Elab">
<path fill="none" stroke="#0d20ff" d="M44.85,-216.05C49.8,-209.23 63,-189.28 63,-170.5 63,-170.5 63,-170.5 63,-143.5 63,-128.63 57.11,-112.04 53.26,-102.78"/>
<polygon fill="#0d20ff" stroke="#0d20ff" points="54.8,-101.92 51.2,-98.04 51.59,-103.32 54.8,-101.92"/>
</a>
</g>
</g>
<!-- s2_league4_game2_07_stac_1399316582&#45;&gt;s2_league4_game2_07_stac_1399316585 -->
<!-- s2_league4_game2_07_stac_1399316588 -->
<g id="node4" class="node">
<title>s2_league4_game2_07_stac_1399316588</title>
<g id="a_node4"><a xlink:title="4 &#160;Shawnus &#160;oh well">
<ellipse fill="black" stroke="black" cx="20" cy="-144.5" rx="3.5" ry="3.5"/>
</a>
</g>
</g>
<!-- s2_league4_game2_07_stac_1399316585&#45;&gt;s2_league4_game2_07_stac_1399316588 -->
<g id="edge6" class="edge">
<title>s2_league4_game2_07_stac_1399316585&#45;&gt;s2_league4_game2_07_stac_1399316588</title>
<g id="a_edge6"><a xlink:title="Acknowledgement">
<path fill="none" stroke="#12ffff" d="M28.93,-166.04C27.54,-162.84 25.05,-157.12 23.06,-152.53"/>
<polygon fill="#12ffff" stroke="#12ffff" points="24.63,-151.76 21.03,-147.87 21.42,-153.16 24.63,-151.76"/>
</a>
</g>
</g>
<!-- s2_league4_game2_07_stac_1399316592 -->
<g id="node5" class="node">
<title>s2_league4_game2_07_stac_1399316592</title>
<g id="a_node5"><a xlink:title="5 &#160;ztime &#160;*shakes fist* at the robber...">
<ellipse fill="black" stroke="black" cx="40" cy="-119.5" rx="3.5" ry="3.5"/>
</a>
</g>
</g>
<!-- s2_league4_game2_07_stac_1399316585&#45;&gt;s2_league4_game2_07_stac_1399316592 -->
<g id="edge7" class="edge">
<title>s2_league4_game2_07_stac_1399316585&#45;&gt;s2_league4_game2_07_stac_1399316592</title>
<g id="a_edge7"><a xlink:title="Comment">
<path fill="none" stroke="#ff8200" d="M30.54,-165.92C31.99,-158.95 36.03,-139.55 38.34,-128.49"/>
<polygon fill="#ff8200" stroke="#ff8200" points="40.1,-128.58 39.41,-123.33 36.68,-127.87 40.1,-128.58"/>
</a>
</g>
</g>
<!-- s2_league4_game2_07_stac_1399316588&#45;&gt;s2_league4_game2_07_stac_1399316592 -->
<!-- s2_league4_game2_07_stac_1399316592&#45;&gt;s2_league4_game2_07_stac_1399316595 -->
<!-- s2_league4_game2_07_stac_1399316598 -->
<g id="node7" class="node">
<title>s2_league4_game2_07_stac_1399316598</title>
<g id="a_node7"><a xlink:title="7 &#160;Shawnus &#160;haha">
<ellipse fill="black" stroke="black" cx="50" cy="-69.5" rx="3.5" ry="3.5"/>
</a>
</g>
</g>
<!-- s2_league4_game2_07_stac_1399316595&#45;&gt;s2_league4_game2_07_stac_1399316598 -->
<g id="edge9" class="edge">
<title>s2_league4_game2_07_stac_1399316595&#45;&gt;s2_league4_game2_07_stac_1399316598</title>
<g id="a_edge9"><a xlink:title="Comment">
<path fill="none" stroke="#ff8200" d="M50,-90.68C50,-87.58 50,-82.47 50,-78.16"/>
<polygon fill="#ff8200" stroke="#ff8200" points="51.75,-78.06 50,-73.06 48.25,-78.06 51.75,-78.06"/>
</a>
</g>
</g>
<!-- s2_league4_game2_07_stac_1399316601 -->
<g id="node8" class="node">
<title>s2_league4_game2_07_stac_1399316601</title>
<g id="a_node8"><a xlink:title="8 &#160;Shawnus &#160;i need wheat">
<ellipse fill="black" stroke="black" cx="50" cy="-44.5" rx="3.5" ry="3.5"/>
</a>
</g>
</g>
<!-- s2_league4_game2_07_stac_1399316598&#45;&gt;s2_league4_game2_07_stac_1399316601 -->
<g id="edge10" class="edge">
<title>s2_league4_game2_07_stac_1399316598&#45;&gt;s2_league4_game2_07_stac_1399316601</title>
<g id="a_edge10"><a xlink:title="Elaboration">
<path fill="none" stroke="#a621c7" d="M50,-65.68C50,-62.58 50,-57.47 50,-53.16"/>
<polygon fill="#a621c7" stroke="#a621c7" points="51.75,-53.06 50,-48.06 48.25,-53.06 51.75,-53.06"/>
</a>
</g>
</g>
<!-- s2_league4_game2_07_stac_1399316604 -->
<g id="node9" class="node">
<title>s2_league4_game2_07_stac_1399316604</title>
<g id="a_node9"><a xlink:title="9 &#160;somdechn &#160;Ohh I see..">
<ellipse fill="black" stroke="black" cx="50" cy="-19.5" rx="3.5" ry="3.5"/>
</a>
</g>
</g>
<!-- s2_league4_game2_07_stac_1399316601&#45;&gt;s2_league4_game2_07_stac_1399316604 -->
<g id="edge11" class="edge">
<title>s2_league4_game2_07_stac_1399316601&#45;&gt;s2_league4_game2_07_stac_1399316604</title>
<g id="a_edge11"><a xlink:title="Acknowledgement">
<path fill="none" stroke="#12ffff" d="M50,-40.68C50,-37.58 50,-32.47 50,-28.16"/>
<polygon fill="#12ffff" stroke="#12ffff" points="51.75,-28.06 50,-23.06 48.25,-28.06 51.75,-28.06"/>
</a>
</g>
</g>
</g>
</svg>
