<?xml version="1.0" encoding="UTF-8" standalone="no"?>
<!DOCTYPE svg PUBLIC "-//W3C//DTD SVG 1.1//EN"
 "http://www.w3.org/Graphics/SVG/1.1/DTD/svg11.dtd">
<!-- Generated by graphviz version 3.0.0 (20220226.1711)
 -->
<!-- Title: 8_s2_league4_game2_782 Pages: 1 -->
<svg width="68pt" height="195pt"
 viewBox="0.00 0.00 68.00 195.00" xmlns="http://www.w3.org/2000/svg" xmlns:xlink="http://www.w3.org/1999/xlink">
<g id="graph0" class="graph" transform="scale(1 1) rotate(0) translate(4 191)">
<title>8_s2_league4_game2_782</title>
<polygon fill="white" stroke="transparent" points="-4,4 -4,-191 64,-191 64,4 -4,4"/>
<g id="clust1" class="cluster">
<title>cluster_8_s2_league4_game2_782</title>
<polygon fill="none" stroke="black" points="8,-8 8,-179 52,-179 52,-8 8,-8"/>
<text text-anchor="middle" x="26.5" y="-163.8" font-family="Times,serif" font-size="14.00">782</text>
</g>
<!-- s2_league4_game2_08_stac_1399316496 -->
<g id="node1" class="node">
<title>s2_league4_game2_08_stac_1399316496</title>
<g id="a_node1"><a xlink:title="1 &#160;ztime &#160;ha.. luck 7">
<ellipse fill="black" stroke="black" cx="30" cy="-144.5" rx="3.5" ry="3.5"/>
</a>
</g>
</g>
<!-- s2_league4_game2_08_stac_1399316499 -->
<g id="node2" class="node">
<title>s2_league4_game2_08_stac_1399316499</title>
<g id="a_node2"><a xlink:title="2 &#160;somdechn &#160;Not again...">
<ellipse fill="black" stroke="black" cx="30" cy="-119.5" rx="3.5" ry="3.5"/>
</a>
</g>
</g>
<!-- s2_league4_game2_08_stac_1399316496&#45;&gt;s2_league4_game2_08_stac_1399316499 -->
<g id="edge2" class="edge">
<title>s2_league4_game2_08_stac_1399316496&#45;&gt;s2_league4_game2_08_stac_1399316499</title>
<g id="a_edge2"><a xlink:title="Comment">
<path fill="none" stroke="#ff8200" d="M30,-140.68C30,-137.58 30,-132.47 30,-128.16"/>
<polygon fill="#ff8200" stroke="#ff8200" points="31.75,-128.06 30,-123.06 28.25,-128.06 31.75,-128.06"/>
</a>
</g>
</g>
<!-- s2_league4_game2_08_stac_1399316502 -->
<g id="node3" class="node">
<title>s2_league4_game2_08_stac_1399316502</title>
<g id="a_node3"><a xlink:title="3 &#160;Shawnus &#160;*shakes fist*">
<ellipse fill="black" stroke="black" cx="20" cy="-94.5" rx="3.5" ry="3.5"/>
</a>
</g>
</g>
<!-- s2_league4_game2_08_stac_1399316499&#45;&gt;s2_league4_game2_08_stac_1399316502 -->
<g id="edge3" class="edge">
<title>s2_league4_game2_08_stac_1399316499&#45;&gt;s2_league4_game2_08_stac_1399316502</title>
<g id="a_edge3"><a xlink:title="Comment">
<path fill="none" stroke="#ff8200" d="M28.93,-116.04C27.54,-112.84 25.05,-107.12 23.06,-102.53"/>
<polygon fill="#ff8200" stroke="#ff8200" points="24.63,-101.76 21.03,-97.87 21.42,-103.16 24.63,-101.76"/>
</a>
</g>
</g>
<!-- s2_league4_game2_08_stac_1399316505 -->
<g id="node4" class="node">
<title>s2_league4_game2_08_stac_1399316505</title>
<g id="a_node4"><a xlink:title="4 &#160;ztime &#160;dog eat dog world...">
<ellipse fill="black" stroke="black" cx="30" cy="-69.5" rx="3.5" ry="3.5"/>
</a>
</g>
</g>
<!-- s2_league4_game2_08_stac_1399316499&#45;&gt;s2_league4_game2_08_stac_1399316505 -->
<g id="edge4" class="edge">
<title>s2_league4_game2_08_stac_1399316499&#45;&gt;s2_league4_game2_08_stac_1399316505</title>
<g id="a_edge4"><a xlink:title="Comment">
<path fill="none" stroke="#ff8200" d="M30.59,-115.93C31.65,-111.07 33.67,-100.2 33,-91 32.69,-86.76 32.03,-82.07 31.4,-78.25"/>
<polygon fill="#ff8200" stroke="#ff8200" points="33.1,-77.76 30.51,-73.14 29.65,-78.37 33.1,-77.76"/>
</a>
</g>
</g>
<!-- s2_league4_game2_08_stac_1399316502&#45;&gt;s2_league4_game2_08_stac_1399316505 -->
<!-- s2_league4_game2_08_stac_1399316508 -->
<g id="node5" class="node">
<title>s2_league4_game2_08_stac_1399316508</title>
<g id="a_node5"><a xlink:title="5 &#160;Shawnus &#160;literally took bread from my mouth there">
<ellipse fill="black" stroke="black" cx="30" cy="-44.5" rx="3.5" ry="3.5"/>
</a>
</g>
</g>
<!-- s2_league4_game2_08_stac_1399316505&#45;&gt;s2_league4_game2_08_stac_1399316508 -->
<g id="edge5" class="edge">
<title>s2_league4_game2_08_stac_1399316505&#45;&gt;s2_league4_game2_08_stac_1399316508</title>
<g id="a_edge5"><a xlink:title="Comment">
<path fill="none" stroke="#ff8200" d="M30,-65.68C30,-62.58 30,-57.47 30,-53.16"/>
<polygon fill="#ff8200" stroke="#ff8200" points="31.75,-53.06 30,-48.06 28.25,-53.06 31.75,-53.06"/>
</a>
</g>
</g>
<!-- s2_league4_game2_08_stac_1399316511 -->
<g id="node6" class="node">
<title>s2_league4_game2_08_stac_1399316511</title>
<g id="a_node6"><a xlink:title="6 &#160;ztime &#160;hmm.. what to do..">
<ellipse fill="black" stroke="black" cx="30" cy="-19.5" rx="3.5" ry="3.5"/>
</a>
</g>
</g>
<!-- s2_league4_game2_08_stac_1399316508&#45;&gt;s2_league4_game2_08_stac_1399316511 -->
<g id="edge6" class="edge">
<title>s2_league4_game2_08_stac_1399316508&#45;&gt;s2_league4_game2_08_stac_1399316511</title>
<g id="a_edge6"><a xlink:title="Acknowledgement">
<path fill="none" stroke="#12ffff" d="M30,-40.68C30,-37.58 30,-32.47 30,-28.16"/>
<polygon fill="#12ffff" stroke="#12ffff" points="31.75,-28.06 30,-23.06 28.25,-28.06 31.75,-28.06"/>
</a>
</g>
</g>
</g>
</svg>
