<?xml version="1.0" encoding="UTF-8" standalone="no"?>
<!DOCTYPE svg PUBLIC "-//W3C//DTD SVG 1.1//EN"
 "http://www.w3.org/Graphics/SVG/1.1/DTD/svg11.dtd">
<!-- Generated by graphviz version 3.0.0 (20220226.1711)
 -->
<!-- Title: 9_s2_league4_game2_785 Pages: 1 -->
<svg width="93pt" height="220pt"
 viewBox="0.00 0.00 93.00 220.00" xmlns="http://www.w3.org/2000/svg" xmlns:xlink="http://www.w3.org/1999/xlink">
<g id="graph0" class="graph" transform="scale(1 1) rotate(0) translate(4 216)">
<title>9_s2_league4_game2_785</title>
<polygon fill="white" stroke="transparent" points="-4,4 -4,-216 89,-216 89,4 -4,4"/>
<g id="clust1" class="cluster">
<title>cluster_9_s2_league4_game2_785</title>
<polygon fill="none" stroke="black" points="8,-8 8,-204 77,-204 77,-8 8,-8"/>
<text text-anchor="middle" x="26.5" y="-188.8" font-family="Times,serif" font-size="14.00">785</text>
</g>
<!-- s2_league4_game2_09_stac_1399316474 -->
<g id="node1" class="node">
<title>s2_league4_game2_09_stac_1399316474</title>
<g id="a_node1"><a xlink:title="1 &#160;Shawnus &#160;i need a wheat">
<ellipse fill="black" stroke="black" cx="30" cy="-169.5" rx="3.5" ry="3.5"/>
</a>
</g>
</g>
<!-- 1_0 -->
<!-- s2_league4_game2_09_stac_1399316474&#45;&gt;1_0 -->
<!-- s2_league4_game2_09_stac_1399316477 -->
<g id="node3" class="node">
<title>s2_league4_game2_09_stac_1399316477</title>
<g id="a_node3"><a xlink:title="2 &#160;Shawnus &#160;can give..wood or sheep">
<ellipse fill="black" stroke="black" cx="20" cy="-144.5" rx="3.5" ry="3.5"/>
</a>
</g>
</g>
<!-- s2_league4_game2_09_stac_1399316474&#45;&gt;s2_league4_game2_09_stac_1399316477 -->
<g id="edge9" class="edge">
<title>s2_league4_game2_09_stac_1399316474&#45;&gt;s2_league4_game2_09_stac_1399316477</title>
<g id="a_edge9"><a xlink:title="Elaboration">
<path fill="none" stroke="#a621c7" d="M28.93,-166.04C27.54,-162.84 25.05,-157.12 23.06,-152.53"/>
<polygon fill="#a621c7" stroke="#a621c7" points="24.63,-151.76 21.03,-147.87 21.42,-153.16 24.63,-151.76"/>
</a>
</g>
</g>
<!-- s2_league4_game2_09_stac_1399316480 -->
<g id="node5" class="node">
<title>s2_league4_game2_09_stac_1399316480</title>
<g id="a_node5"><a xlink:title="3 &#160;ztime &#160;sorry">
<ellipse fill="black" stroke="black" cx="30" cy="-119.5" rx="3.5" ry="3.5"/>
</a>
</g>
</g>
<!-- s2_league4_game2_09_stac_1399316474&#45;&gt;s2_league4_game2_09_stac_1399316480 -->
<g id="edge10" class="edge">
<title>s2_league4_game2_09_stac_1399316474&#45;&gt;s2_league4_game2_09_stac_1399316480</title>
<g id="a_edge10"><a xlink:title="Question_answer_pair">
<path fill="none" stroke="#12ffff" d="M33.01,-167.39C39.08,-164.95 52.66,-158.53 58,-148 63.46,-137.24 47.96,-128.2 37.89,-123.66"/>
<polygon fill="#12ffff" stroke="#12ffff" points="38.55,-122.04 33.26,-121.7 37.19,-125.26 38.55,-122.04"/>
</a>
</g>
</g>
<!-- 2_0 -->
<!-- s2_league4_game2_09_stac_1399316477&#45;&gt;2_0 -->
<!-- s2_league4_game2_09_stac_1399316477&#45;&gt;s2_league4_game2_09_stac_1399316480 -->
<!-- 3_0 -->
<!-- s2_league4_game2_09_stac_1399316480&#45;&gt;3_0 -->
<!-- s2_league4_game2_09_stac_1399316483 -->
<g id="node7" class="node">
<title>s2_league4_game2_09_stac_1399316483</title>
<g id="a_node7"><a xlink:title="4 &#160;ztime &#160;i spent it">
<ellipse fill="black" stroke="black" cx="30" cy="-94.5" rx="3.5" ry="3.5"/>
</a>
</g>
</g>
<!-- s2_league4_game2_09_stac_1399316480&#45;&gt;s2_league4_game2_09_stac_1399316483 -->
<g id="edge11" class="edge">
<title>s2_league4_game2_09_stac_1399316480&#45;&gt;s2_league4_game2_09_stac_1399316483</title>
<g id="a_edge11"><a xlink:title="Elaboration">
<path fill="none" stroke="#a621c7" d="M30,-115.68C30,-112.58 30,-107.47 30,-103.16"/>
<polygon fill="#a621c7" stroke="#a621c7" points="31.75,-103.06 30,-98.06 28.25,-103.06 31.75,-103.06"/>
</a>
</g>
</g>
<!-- 4_0 -->
<!-- s2_league4_game2_09_stac_1399316483&#45;&gt;4_0 -->
<!-- s2_league4_game2_09_stac_1399316486 -->
<g id="node9" class="node">
<title>s2_league4_game2_09_stac_1399316486</title>
<g id="a_node9"><a xlink:title="5 &#160;somdechn &#160;Sore">
<ellipse fill="black" stroke="black" cx="20" cy="-69.5" rx="3.5" ry="3.5"/>
</a>
</g>
</g>
<!-- s2_league4_game2_09_stac_1399316483&#45;&gt;s2_league4_game2_09_stac_1399316486 -->
<g id="edge12" class="edge">
<title>s2_league4_game2_09_stac_1399316483&#45;&gt;s2_league4_game2_09_stac_1399316486</title>
<g id="a_edge12"><a xlink:title="Comment">
<path fill="none" stroke="#ff8200" d="M28.93,-91.04C27.54,-87.84 25.05,-82.12 23.06,-77.53"/>
<polygon fill="#ff8200" stroke="#ff8200" points="24.63,-76.76 21.03,-72.87 21.42,-78.16 24.63,-76.76"/>
</a>
</g>
</g>
<!-- s2_league4_game2_09_stac_1399316492 -->
<g id="node13" class="node">
<title>s2_league4_game2_09_stac_1399316492</title>
<g id="a_node13"><a xlink:title="7 &#160;Shawnus &#160;haha wasnt sury if that was">
<ellipse fill="black" stroke="black" cx="30" cy="-19.5" rx="3.5" ry="3.5"/>
</a>
</g>
</g>
<!-- s2_league4_game2_09_stac_1399316483&#45;&gt;s2_league4_game2_09_stac_1399316492 -->
<g id="edge14" class="edge">
<title>s2_league4_game2_09_stac_1399316483&#45;&gt;s2_league4_game2_09_stac_1399316492</title>
<g id="a_edge14"><a xlink:title="Comment">
<path fill="none" stroke="#ff8200" d="M33.01,-92.39C39.08,-89.95 52.66,-83.53 58,-73 64.43,-60.32 64.43,-53.68 58,-41 53.83,-32.77 44.63,-27.05 37.91,-23.78"/>
<polygon fill="#ff8200" stroke="#ff8200" points="38.29,-22.04 33.01,-21.61 36.88,-25.24 38.29,-22.04"/>
</a>
</g>
</g>
<!-- 5_0 -->
<!-- s2_league4_game2_09_stac_1399316486&#45;&gt;5_0 -->
<!-- s2_league4_game2_09_stac_1399316489 -->
<g id="node11" class="node">
<title>s2_league4_game2_09_stac_1399316489</title>
<g id="a_node11"><a xlink:title="6 &#160;somdechn &#160;ry..">
<ellipse fill="black" stroke="black" cx="20" cy="-44.5" rx="3.5" ry="3.5"/>
</a>
</g>
</g>
<!-- s2_league4_game2_09_stac_1399316486&#45;&gt;s2_league4_game2_09_stac_1399316489 -->
<g id="edge13" class="edge">
<title>s2_league4_game2_09_stac_1399316486&#45;&gt;s2_league4_game2_09_stac_1399316489</title>
<g id="a_edge13"><a xlink:title="ParallNarrContinuationbackground">
<path fill="none" stroke="#0ab046" d="M20,-65.68C20,-62.58 20,-57.47 20,-53.16"/>
<polygon fill="#0ab046" stroke="#0ab046" points="21.75,-53.06 20,-48.06 18.25,-53.06 21.75,-53.06"/>
</a>
</g>
</g>
<!-- 6_0 -->
<!-- s2_league4_game2_09_stac_1399316489&#45;&gt;6_0 -->
<!-- s2_league4_game2_09_stac_1399316489&#45;&gt;s2_league4_game2_09_stac_1399316492 -->
<!-- s2_league4_game2_09_stac_1399316493 -->
<g id="node14" class="node">
<title>s2_league4_game2_09_stac_1399316493</title>
<g id="a_node14"><a xlink:title="7 &#160;Shawnus &#160;sorry or sure">
<ellipse fill="black" stroke="black" cx="55" cy="-19.5" rx="3.5" ry="3.5"/>
</a>
</g>
</g>
<!-- s2_league4_game2_09_stac_1399316492&#45;&gt;s2_league4_game2_09_stac_1399316493 -->
<g id="edge15" class="edge">
<title>s2_league4_game2_09_stac_1399316492&#45;&gt;s2_league4_game2_09_stac_1399316493</title>
<g id="a_edge15"><a xlink:title="ContrastCorrection">
<path fill="none" stroke="#ff7ecf" d="M33.52,-19.5C37.78,-19.5 42.04,-19.5 46.3,-19.5"/>
<polygon fill="#ff7ecf" stroke="#ff7ecf" points="46.31,-21.25 51.31,-19.5 46.31,-17.75 46.31,-21.25"/>
</a>
</g>
</g>
</g>
</svg>
