<?xml version="1.0" encoding="UTF-8" standalone="no"?>
<!DOCTYPE svg PUBLIC "-//W3C//DTD SVG 1.1//EN"
 "http://www.w3.org/Graphics/SVG/1.1/DTD/svg11.dtd">
<!-- Generated by graphviz version 3.0.0 (20220226.1711)
 -->
<!-- Title: 9_s2_league4_game2_787 Pages: 1 -->
<svg width="134pt" height="770pt"
 viewBox="0.00 0.00 134.00 770.00" xmlns="http://www.w3.org/2000/svg" xmlns:xlink="http://www.w3.org/1999/xlink">
<g id="graph0" class="graph" transform="scale(1 1) rotate(0) translate(4 766)">
<title>9_s2_league4_game2_787</title>
<polygon fill="white" stroke="transparent" points="-4,4 -4,-766 130,-766 130,4 -4,4"/>
<g id="clust1" class="cluster">
<title>cluster_9_s2_league4_game2_787</title>
<polygon fill="none" stroke="black" points="8,-8 8,-754 118,-754 118,-8 8,-8"/>
<text text-anchor="middle" x="26.5" y="-738.8" font-family="Times,serif" font-size="14.00">787</text>
</g>
<!-- s2_league4_game2_09_stac_1399316507 -->
<g id="node1" class="node">
<title>s2_league4_game2_09_stac_1399316507</title>
<g id="a_node1"><a xlink:title="1 &#160;somdechn &#160;I have give wood for wheat.">
<ellipse fill="black" stroke="black" cx="61" cy="-719.5" rx="3.5" ry="3.5"/>
</a>
</g>
</g>
<!-- 1_0 -->
<!-- s2_league4_game2_09_stac_1399316507&#45;&gt;1_0 -->
<!-- s2_league4_game2_09_stac_1399316510 -->
<g id="node3" class="node">
<title>s2_league4_game2_09_stac_1399316510</title>
<g id="a_node3"><a xlink:title="2 &#160;ztime &#160;have none">
<ellipse fill="black" stroke="black" cx="50" cy="-694.5" rx="3.5" ry="3.5"/>
</a>
</g>
</g>
<!-- s2_league4_game2_09_stac_1399316507&#45;&gt;s2_league4_game2_09_stac_1399316510 -->
<g id="edge38" class="edge">
<title>s2_league4_game2_09_stac_1399316507&#45;&gt;s2_league4_game2_09_stac_1399316510</title>
<g id="a_edge38"><a xlink:title="Question_answer_pair">
<path fill="none" stroke="#12ffff" d="M59.82,-716.04C58.29,-712.84 55.56,-707.12 53.36,-702.53"/>
<polygon fill="#12ffff" stroke="#12ffff" points="54.87,-701.63 51.14,-697.87 51.71,-703.14 54.87,-701.63"/>
</a>
</g>
</g>
<!-- s2_league4_game2_09_stac_1399316513 -->
<g id="node5" class="node">
<title>s2_league4_game2_09_stac_1399316513</title>
<g id="a_node5"><a xlink:title="3 &#160;Shawnus &#160;need wheat">
<ellipse fill="black" stroke="black" cx="62" cy="-669.5" rx="3.5" ry="3.5"/>
</a>
</g>
</g>
<!-- s2_league4_game2_09_stac_1399316507&#45;&gt;s2_league4_game2_09_stac_1399316513 -->
<g id="edge39" class="edge">
<title>s2_league4_game2_09_stac_1399316507&#45;&gt;s2_league4_game2_09_stac_1399316513</title>
<g id="a_edge39"><a xlink:title="Question_answer_pair">
<path fill="none" stroke="#12ffff" d="M61.34,-715.85C61.83,-711.95 62.69,-704.43 63,-698 63.33,-691.27 62.99,-683.61 62.62,-678.09"/>
<polygon fill="#12ffff" stroke="#12ffff" points="64.37,-677.93 62.24,-673.08 60.88,-678.2 64.37,-677.93"/>
</a>
</g>
</g>
<!-- 2_0 -->
<!-- s2_league4_game2_09_stac_1399316510&#45;&gt;2_0 -->
<!-- s2_league4_game2_09_stac_1399316510&#45;&gt;s2_league4_game2_09_stac_1399316513 -->
<!-- 3_0 -->
<!-- s2_league4_game2_09_stac_1399316513&#45;&gt;3_0 -->
<!-- s2_league4_game2_09_stac_1399316516 -->
<g id="node7" class="node">
<title>s2_league4_game2_09_stac_1399316516</title>
<g id="a_node7"><a xlink:title="4 &#160;somdechn &#160;So do I.">
<ellipse fill="black" stroke="black" cx="52" cy="-644.5" rx="3.5" ry="3.5"/>
</a>
</g>
</g>
<!-- s2_league4_game2_09_stac_1399316513&#45;&gt;s2_league4_game2_09_stac_1399316516 -->
<g id="edge40" class="edge">
<title>s2_league4_game2_09_stac_1399316513&#45;&gt;s2_league4_game2_09_stac_1399316516</title>
<g id="a_edge40"><a xlink:title="Question_answer_pair">
<path fill="none" stroke="#12ffff" d="M60.93,-666.04C59.54,-662.84 57.05,-657.12 55.06,-652.53"/>
<polygon fill="#12ffff" stroke="#12ffff" points="56.63,-651.76 53.03,-647.87 53.42,-653.16 56.63,-651.76"/>
</a>
</g>
</g>
<!-- s2_league4_game2_09_stac_1399316522 -->
<g id="node11" class="node">
<title>s2_league4_game2_09_stac_1399316522</title>
<g id="a_node11"><a xlink:title="6 &#160;Shawnus &#160;we should cut down some forests and plant crops..">
<ellipse fill="black" stroke="black" cx="52" cy="-594.5" rx="3.5" ry="3.5"/>
</a>
</g>
</g>
<!-- s2_league4_game2_09_stac_1399316513&#45;&gt;s2_league4_game2_09_stac_1399316522 -->
<g id="edge42" class="edge">
<title>s2_league4_game2_09_stac_1399316513&#45;&gt;s2_league4_game2_09_stac_1399316522</title>
<g id="a_edge42"><a xlink:title="ExplanationResult">
<path fill="none" stroke="#a62139" d="M62.71,-666.03C64.8,-658.39 70.4,-634.59 65,-616 63.48,-610.76 60.18,-605.58 57.28,-601.74"/>
<polygon fill="#a62139" stroke="#a62139" points="58.5,-600.47 53.99,-597.69 55.78,-602.67 58.5,-600.47"/>
</a>
</g>
</g>
<!-- 4_0 -->
<!-- s2_league4_game2_09_stac_1399316516&#45;&gt;4_0 -->
<!-- s2_league4_game2_09_stac_1399316519 -->
<g id="node9" class="node">
<title>s2_league4_game2_09_stac_1399316519</title>
<g id="a_node9"><a xlink:title="5 &#160;ztime &#160;so do i">
<ellipse fill="black" stroke="black" cx="27" cy="-619.5" rx="3.5" ry="3.5"/>
</a>
</g>
</g>
<!-- s2_league4_game2_09_stac_1399316516&#45;&gt;s2_league4_game2_09_stac_1399316519 -->
<g id="edge41" class="edge">
<title>s2_league4_game2_09_stac_1399316516&#45;&gt;s2_league4_game2_09_stac_1399316519</title>
<g id="a_edge41"><a xlink:title="ParallNarrContinuationbackground">
<path fill="none" stroke="#0ab046" d="M49.69,-641.38C45.92,-637.9 38.3,-630.89 32.93,-625.96"/>
<polygon fill="#0ab046" stroke="#0ab046" points="33.95,-624.52 29.09,-622.42 31.58,-627.09 33.95,-624.52"/>
</a>
</g>
</g>
<!-- 5_0 -->
<!-- s2_league4_game2_09_stac_1399316519&#45;&gt;5_0 -->
<!-- s2_league4_game2_09_stac_1399316519&#45;&gt;s2_league4_game2_09_stac_1399316522 -->
<!-- 6_0 -->
<!-- s2_league4_game2_09_stac_1399316522&#45;&gt;6_0 -->
<!-- s2_league4_game2_09_stac_1399316525 -->
<g id="node13" class="node">
<title>s2_league4_game2_09_stac_1399316525</title>
<g id="a_node13"><a xlink:title="7 &#160;ztime &#160;yer...">
<ellipse fill="black" stroke="black" cx="52" cy="-569.5" rx="3.5" ry="3.5"/>
</a>
</g>
</g>
<!-- s2_league4_game2_09_stac_1399316522&#45;&gt;s2_league4_game2_09_stac_1399316525 -->
<g id="edge43" class="edge">
<title>s2_league4_game2_09_stac_1399316522&#45;&gt;s2_league4_game2_09_stac_1399316525</title>
<g id="a_edge43"><a xlink:title="Acknowledgement">
<path fill="none" stroke="#12ffff" d="M52,-590.68C52,-587.58 52,-582.47 52,-578.16"/>
<polygon fill="#12ffff" stroke="#12ffff" points="53.75,-578.06 52,-573.06 50.25,-578.06 53.75,-578.06"/>
</a>
</g>
</g>
<!-- 7_0 -->
<!-- s2_league4_game2_09_stac_1399316525&#45;&gt;7_0 -->
<!-- s2_league4_game2_09_stac_1399316528 -->
<g id="node15" class="node">
<title>s2_league4_game2_09_stac_1399316528</title>
<g id="a_node15"><a xlink:title="8 &#160;ztime &#160;the bank always wins...">
<ellipse fill="black" stroke="black" cx="52" cy="-544.5" rx="3.5" ry="3.5"/>
</a>
</g>
</g>
<!-- s2_league4_game2_09_stac_1399316525&#45;&gt;s2_league4_game2_09_stac_1399316528 -->
<g id="edge44" class="edge">
<title>s2_league4_game2_09_stac_1399316525&#45;&gt;s2_league4_game2_09_stac_1399316528</title>
<g id="a_edge44"><a xlink:title="Elaboration">
<path fill="none" stroke="#a621c7" d="M52,-565.68C52,-562.58 52,-557.47 52,-553.16"/>
<polygon fill="#a621c7" stroke="#a621c7" points="53.75,-553.06 52,-548.06 50.25,-553.06 53.75,-553.06"/>
</a>
</g>
</g>
<!-- 8_0 -->
<!-- s2_league4_game2_09_stac_1399316528&#45;&gt;8_0 -->
<!-- s2_league4_game2_09_stac_1399316532 -->
<g id="node17" class="node">
<title>s2_league4_game2_09_stac_1399316532</title>
<g id="a_node17"><a xlink:title="9 &#160;somdechn &#160;Yep... Bank always win.">
<ellipse fill="black" stroke="black" cx="52" cy="-519.5" rx="3.5" ry="3.5"/>
</a>
</g>
</g>
<!-- s2_league4_game2_09_stac_1399316528&#45;&gt;s2_league4_game2_09_stac_1399316532 -->
<g id="edge45" class="edge">
<title>s2_league4_game2_09_stac_1399316528&#45;&gt;s2_league4_game2_09_stac_1399316532</title>
<g id="a_edge45"><a xlink:title="Acknowledgement">
<path fill="none" stroke="#12ffff" d="M52,-540.68C52,-537.58 52,-532.47 52,-528.16"/>
<polygon fill="#12ffff" stroke="#12ffff" points="53.75,-528.06 52,-523.06 50.25,-528.06 53.75,-528.06"/>
</a>
</g>
</g>
<!-- 9_0 -->
<!-- s2_league4_game2_09_stac_1399316532&#45;&gt;9_0 -->
<!-- s2_league4_game2_09_stac_1399316535 -->
<g id="node19" class="node">
<title>s2_league4_game2_09_stac_1399316535</title>
<g id="a_node19"><a xlink:title="10 &#160;ztime &#160;ha well done..">
<ellipse fill="black" stroke="black" cx="52" cy="-494.5" rx="3.5" ry="3.5"/>
</a>
</g>
</g>
<!-- s2_league4_game2_09_stac_1399316532&#45;&gt;s2_league4_game2_09_stac_1399316535 -->
<g id="edge46" class="edge">
<title>s2_league4_game2_09_stac_1399316532&#45;&gt;s2_league4_game2_09_stac_1399316535</title>
<g id="a_edge46"><a xlink:title="Acknowledgement">
<path fill="none" stroke="#12ffff" d="M52,-515.68C52,-512.58 52,-507.47 52,-503.16"/>
<polygon fill="#12ffff" stroke="#12ffff" points="53.75,-503.06 52,-498.06 50.25,-503.06 53.75,-503.06"/>
</a>
</g>
</g>
<!-- 10_0 -->
<!-- s2_league4_game2_09_stac_1399316535&#45;&gt;10_0 -->
<!-- s2_league4_game2_09_stac_1399316538 -->
<g id="node21" class="node">
<title>s2_league4_game2_09_stac_1399316538</title>
<g id="a_node21"><a xlink:title="11 &#160;ztime &#160;I enjoyed it for a while...">
<ellipse fill="black" stroke="black" cx="52" cy="-469.5" rx="3.5" ry="3.5"/>
</a>
</g>
</g>
<!-- s2_league4_game2_09_stac_1399316535&#45;&gt;s2_league4_game2_09_stac_1399316538 -->
<g id="edge47" class="edge">
<title>s2_league4_game2_09_stac_1399316535&#45;&gt;s2_league4_game2_09_stac_1399316538</title>
<g id="a_edge47"><a xlink:title="ParallNarrContinuationbackground">
<path fill="none" stroke="#0ab046" d="M52,-490.68C52,-487.58 52,-482.47 52,-478.16"/>
<polygon fill="#0ab046" stroke="#0ab046" points="53.75,-478.06 52,-473.06 50.25,-478.06 53.75,-478.06"/>
</a>
</g>
</g>
<!-- 11_0 -->
<!-- s2_league4_game2_09_stac_1399316538&#45;&gt;11_0 -->
<!-- s2_league4_game2_09_stac_1399316542 -->
<g id="node23" class="node">
<title>s2_league4_game2_09_stac_1399316542</title>
<g id="a_node23"><a xlink:title="12 &#160;Shawnus &#160;haha">
<ellipse fill="black" stroke="black" cx="29" cy="-444.5" rx="3.5" ry="3.5"/>
</a>
</g>
</g>
<!-- s2_league4_game2_09_stac_1399316538&#45;&gt;s2_league4_game2_09_stac_1399316542 -->
<g id="edge48" class="edge">
<title>s2_league4_game2_09_stac_1399316538&#45;&gt;s2_league4_game2_09_stac_1399316542</title>
<g id="a_edge48"><a xlink:title="Comment">
<path fill="none" stroke="#ff8200" d="M49.88,-466.38C46.54,-463.04 39.95,-456.45 35.06,-451.56"/>
<polygon fill="#ff8200" stroke="#ff8200" points="36.23,-450.26 31.46,-447.96 33.76,-452.73 36.23,-450.26"/>
</a>
</g>
</g>
<!-- s2_league4_game2_09_stac_1399316545 -->
<g id="node25" class="node">
<title>s2_league4_game2_09_stac_1399316545</title>
<g id="a_node25"><a xlink:title="13 &#160;ztime &#160;just seem to be stuck here...">
<ellipse fill="black" stroke="black" cx="27" cy="-419.5" rx="3.5" ry="3.5"/>
</a>
</g>
</g>
<!-- s2_league4_game2_09_stac_1399316538&#45;&gt;s2_league4_game2_09_stac_1399316545 -->
<g id="edge49" class="edge">
<title>s2_league4_game2_09_stac_1399316538&#45;&gt;s2_league4_game2_09_stac_1399316545</title>
<g id="a_edge49"><a xlink:title="ContrastCorrection">
<path fill="none" stroke="#ff7ecf" d="M51.3,-465.82C49.92,-460.77 46.59,-449.61 42,-441 39.25,-435.85 35.34,-430.55 32.2,-426.63"/>
<polygon fill="#ff7ecf" stroke="#ff7ecf" points="33.52,-425.49 28.99,-422.75 30.83,-427.72 33.52,-425.49"/>
</a>
</g>
</g>
<!-- s2_league4_game2_09_stac_1399316548 -->
<g id="node27" class="node">
<title>s2_league4_game2_09_stac_1399316548</title>
<g id="a_node27"><a xlink:title="14 &#160;somdechn &#160;That&#39;s good fo us...">
<ellipse fill="black" stroke="black" cx="53" cy="-394.5" rx="3.5" ry="3.5"/>
</a>
</g>
</g>
<!-- s2_league4_game2_09_stac_1399316538&#45;&gt;s2_league4_game2_09_stac_1399316548 -->
<g id="edge50" class="edge">
<title>s2_league4_game2_09_stac_1399316538&#45;&gt;s2_league4_game2_09_stac_1399316548</title>
<g id="a_edge50"><a xlink:title="Comment">
<path fill="none" stroke="#ff8200" d="M53.48,-466.08C57.88,-458.61 70.21,-435.21 65,-416 63.6,-410.85 60.55,-405.67 57.88,-401.81"/>
<polygon fill="#ff8200" stroke="#ff8200" points="59.23,-400.69 54.84,-397.71 56.42,-402.77 59.23,-400.69"/>
</a>
</g>
</g>
<!-- 12_0 -->
<!-- s2_league4_game2_09_stac_1399316542&#45;&gt;12_0 -->
<!-- s2_league4_game2_09_stac_1399316542&#45;&gt;s2_league4_game2_09_stac_1399316545 -->
<!-- 13_0 -->
<!-- s2_league4_game2_09_stac_1399316545&#45;&gt;13_0 -->
<!-- s2_league4_game2_09_stac_1399316545&#45;&gt;s2_league4_game2_09_stac_1399316548 -->
<g id="edge51" class="edge">
<title>s2_league4_game2_09_stac_1399316545&#45;&gt;s2_league4_game2_09_stac_1399316548</title>
<g id="a_edge51"><a xlink:title="Comment">
<path fill="none" stroke="#ff8200" d="M29.4,-416.38C33.33,-412.9 41.25,-405.89 46.83,-400.96"/>
<polygon fill="#ff8200" stroke="#ff8200" points="48.24,-402.05 50.83,-397.42 45.92,-399.42 48.24,-402.05"/>
</a>
</g>
</g>
<!-- 14_0 -->
<!-- s2_league4_game2_09_stac_1399316548&#45;&gt;14_0 -->
<!-- s2_league4_game2_09_stac_1399316551 -->
<g id="node29" class="node">
<title>s2_league4_game2_09_stac_1399316551</title>
<g id="a_node29"><a xlink:title="15 &#160;ztime &#160;anyone want wood?">
<ellipse fill="black" stroke="black" cx="53" cy="-369.5" rx="3.5" ry="3.5"/>
</a>
</g>
</g>
<!-- s2_league4_game2_09_stac_1399316548&#45;&gt;s2_league4_game2_09_stac_1399316551 -->
<!-- 15_0 -->
<!-- s2_league4_game2_09_stac_1399316551&#45;&gt;15_0 -->
<!-- s2_league4_game2_09_stac_1399316554 -->
<g id="node31" class="node">
<title>s2_league4_game2_09_stac_1399316554</title>
<g id="a_node31"><a xlink:title="16 &#160;Shawnus &#160;it&#39;s a long close game">
<ellipse fill="black" stroke="black" cx="20" cy="-344.5" rx="3.5" ry="3.5"/>
</a>
</g>
</g>
<!-- s2_league4_game2_09_stac_1399316551&#45;&gt;s2_league4_game2_09_stac_1399316554 -->
<g id="edge52" class="edge">
<title>s2_league4_game2_09_stac_1399316551&#45;&gt;s2_league4_game2_09_stac_1399316554</title>
<g id="a_edge52"><a xlink:title="Comment">
<path fill="none" stroke="#ff8200" d="M50.41,-366.7C45.37,-363.18 34.11,-355.33 26.8,-350.24"/>
<polygon fill="#ff8200" stroke="#ff8200" points="27.59,-348.66 22.49,-347.23 25.59,-351.53 27.59,-348.66"/>
</a>
</g>
</g>
<!-- s2_league4_game2_09_stac_1399316557 -->
<g id="node33" class="node">
<title>s2_league4_game2_09_stac_1399316557</title>
<g id="a_node33"><a xlink:title="17 &#160;Shawnus &#160;nope">
<ellipse fill="black" stroke="black" cx="40" cy="-319.5" rx="3.5" ry="3.5"/>
</a>
</g>
</g>
<!-- s2_league4_game2_09_stac_1399316551&#45;&gt;s2_league4_game2_09_stac_1399316557 -->
<g id="edge53" class="edge">
<title>s2_league4_game2_09_stac_1399316551&#45;&gt;s2_league4_game2_09_stac_1399316557</title>
<g id="a_edge53"><a xlink:title="Question_answer_pair">
<path fill="none" stroke="#12ffff" d="M52.3,-365.92C50.4,-358.89 45.06,-339.19 42.08,-328.18"/>
<polygon fill="#12ffff" stroke="#12ffff" points="43.76,-327.7 40.77,-323.33 40.39,-328.62 43.76,-327.7"/>
</a>
</g>
</g>
<!-- s2_league4_game2_09_stac_1399316560 -->
<g id="node35" class="node">
<title>s2_league4_game2_09_stac_1399316560</title>
<g id="a_node35"><a xlink:title="18 &#160;somdechn &#160;nop">
<ellipse fill="black" stroke="black" cx="50" cy="-294.5" rx="3.5" ry="3.5"/>
</a>
</g>
</g>
<!-- s2_league4_game2_09_stac_1399316551&#45;&gt;s2_league4_game2_09_stac_1399316560 -->
<g id="edge54" class="edge">
<title>s2_league4_game2_09_stac_1399316551&#45;&gt;s2_league4_game2_09_stac_1399316560</title>
<g id="a_edge54"><a xlink:title="Question_answer_pair">
<path fill="none" stroke="#12ffff" d="M55.36,-366.48C63.28,-359.45 87.86,-335.45 78,-316 73.83,-307.77 64.63,-302.05 57.91,-298.78"/>
<polygon fill="#12ffff" stroke="#12ffff" points="58.29,-297.04 53.01,-296.61 56.88,-300.24 58.29,-297.04"/>
</a>
</g>
</g>
<!-- s2_league4_game2_09_stac_1399316582 -->
<g id="node49" class="node">
<title>s2_league4_game2_09_stac_1399316582</title>
<g id="a_node49"><a xlink:title="25 &#160;somdechn &#160;I can give wood for Wheat.">
<ellipse fill="black" stroke="black" cx="70" cy="-119.5" rx="3.5" ry="3.5"/>
</a>
</g>
</g>
<!-- s2_league4_game2_09_stac_1399316551&#45;&gt;s2_league4_game2_09_stac_1399316582 -->
<g id="edge62" class="edge">
<title>s2_league4_game2_09_stac_1399316551&#45;&gt;s2_league4_game2_09_stac_1399316582</title>
<g id="a_edge62"><a xlink:title="Question_answer_pair">
<path fill="none" stroke="#12ffff" d="M55.65,-366.84C66.64,-359.75 108,-330.73 108,-295.5 108,-295.5 108,-295.5 108,-168.5 108,-155.49 105.81,-151.4 98,-141 92.46,-133.62 83.53,-127.74 77.25,-124.2"/>
<polygon fill="#12ffff" stroke="#12ffff" points="77.96,-122.59 72.73,-121.79 76.32,-125.68 77.96,-122.59"/>
</a>
</g>
</g>
<!-- 16_0 -->
<!-- s2_league4_game2_09_stac_1399316554&#45;&gt;16_0 -->
<!-- s2_league4_game2_09_stac_1399316554&#45;&gt;s2_league4_game2_09_stac_1399316557 -->
<!-- s2_league4_game2_09_stac_1399316563 -->
<g id="node37" class="node">
<title>s2_league4_game2_09_stac_1399316563</title>
<g id="a_node37"><a xlink:title="19 &#160;ztime &#160;yer.... it&#39;s close..">
<ellipse fill="black" stroke="black" cx="20" cy="-269.5" rx="3.5" ry="3.5"/>
</a>
</g>
</g>
<!-- s2_league4_game2_09_stac_1399316554&#45;&gt;s2_league4_game2_09_stac_1399316563 -->
<g id="edge55" class="edge">
<title>s2_league4_game2_09_stac_1399316554&#45;&gt;s2_league4_game2_09_stac_1399316563</title>
<g id="a_edge55"><a xlink:title="Comment">
<path fill="none" stroke="#ff8200" d="M20,-340.73C20,-330.52 20,-294.78 20,-278.59"/>
<polygon fill="#ff8200" stroke="#ff8200" points="21.75,-278.28 20,-273.28 18.25,-278.28 21.75,-278.28"/>
</a>
</g>
</g>
<!-- 17_0 -->
<!-- s2_league4_game2_09_stac_1399316557&#45;&gt;17_0 -->
<!-- s2_league4_game2_09_stac_1399316557&#45;&gt;s2_league4_game2_09_stac_1399316560 -->
<!-- 18_0 -->
<!-- s2_league4_game2_09_stac_1399316560&#45;&gt;18_0 -->
<!-- s2_league4_game2_09_stac_1399316560&#45;&gt;s2_league4_game2_09_stac_1399316563 -->
<!-- s2_league4_game2_09_stac_1399316566 -->
<g id="node39" class="node">
<title>s2_league4_game2_09_stac_1399316566</title>
<g id="a_node39"><a xlink:title="20 &#160;ztime &#160;ok..">
<ellipse fill="black" stroke="black" cx="60" cy="-244.5" rx="3.5" ry="3.5"/>
</a>
</g>
</g>
<!-- s2_league4_game2_09_stac_1399316560&#45;&gt;s2_league4_game2_09_stac_1399316566 -->
<g id="edge56" class="edge">
<title>s2_league4_game2_09_stac_1399316560&#45;&gt;s2_league4_game2_09_stac_1399316566</title>
<g id="a_edge56"><a xlink:title="Acknowledgement">
<path fill="none" stroke="#12ffff" d="M51.17,-291.17C53,-287.45 56.45,-279.86 58,-273 59.49,-266.42 59.94,-258.74 60.05,-253.18"/>
<polygon fill="#12ffff" stroke="#12ffff" points="61.8,-253.12 60.07,-248.12 58.3,-253.11 61.8,-253.12"/>
</a>
</g>
</g>
<!-- 19_0 -->
<!-- s2_league4_game2_09_stac_1399316563&#45;&gt;19_0 -->
<!-- s2_league4_game2_09_stac_1399316563&#45;&gt;s2_league4_game2_09_stac_1399316566 -->
<g id="edge57" class="edge">
<title>s2_league4_game2_09_stac_1399316563&#45;&gt;s2_league4_game2_09_stac_1399316566</title>
<g id="a_edge57"><a xlink:title="ParallNarrContinuationbackground">
<path fill="none" stroke="#0ab046" d="M22.62,-266.99C28.67,-263.52 43.74,-254.85 52.79,-249.64"/>
<polygon fill="#0ab046" stroke="#0ab046" points="53.85,-251.05 57.31,-247.04 52.11,-248.02 53.85,-251.05"/>
</a>
</g>
</g>
<!-- 20_0 -->
<!-- s2_league4_game2_09_stac_1399316566&#45;&gt;20_0 -->
<!-- s2_league4_game2_09_stac_1399316569 -->
<g id="node41" class="node">
<title>s2_league4_game2_09_stac_1399316569</title>
<g id="a_node41"><a xlink:title="21 &#160;somdechn &#160;Hey ehey...">
<ellipse fill="black" stroke="black" cx="60" cy="-219.5" rx="3.5" ry="3.5"/>
</a>
</g>
</g>
<!-- s2_league4_game2_09_stac_1399316566&#45;&gt;s2_league4_game2_09_stac_1399316569 -->
<g id="edge58" class="edge">
<title>s2_league4_game2_09_stac_1399316566&#45;&gt;s2_league4_game2_09_stac_1399316569</title>
<g id="a_edge58"><a xlink:title="Acknowledgement">
<path fill="none" stroke="#12ffff" d="M60,-240.68C60,-237.58 60,-232.47 60,-228.16"/>
<polygon fill="#12ffff" stroke="#12ffff" points="61.75,-228.06 60,-223.06 58.25,-228.06 61.75,-228.06"/>
</a>
</g>
</g>
<!-- 21_0 -->
<!-- s2_league4_game2_09_stac_1399316569&#45;&gt;21_0 -->
<!-- s2_league4_game2_09_stac_1399316573 -->
<g id="node43" class="node">
<title>s2_league4_game2_09_stac_1399316573</title>
<g id="a_node43"><a xlink:title="22 &#160;ztime &#160;I&#39;m helping you out..">
<ellipse fill="black" stroke="black" cx="60" cy="-194.5" rx="3.5" ry="3.5"/>
</a>
</g>
</g>
<!-- s2_league4_game2_09_stac_1399316569&#45;&gt;s2_league4_game2_09_stac_1399316573 -->
<g id="edge59" class="edge">
<title>s2_league4_game2_09_stac_1399316569&#45;&gt;s2_league4_game2_09_stac_1399316573</title>
<g id="a_edge59"><a xlink:title="ParallNarrContinuationbackground">
<path fill="none" stroke="#0ab046" d="M60,-215.68C60,-212.58 60,-207.47 60,-203.16"/>
<polygon fill="#0ab046" stroke="#0ab046" points="61.75,-203.06 60,-198.06 58.25,-203.06 61.75,-203.06"/>
</a>
</g>
</g>
<!-- 22_0 -->
<!-- s2_league4_game2_09_stac_1399316573&#45;&gt;22_0 -->
<!-- s2_league4_game2_09_stac_1399316576 -->
<g id="node45" class="node">
<title>s2_league4_game2_09_stac_1399316576</title>
<g id="a_node45"><a xlink:title="23 &#160;ztime &#160;trying to get you under 7 cards...">
<ellipse fill="black" stroke="black" cx="60" cy="-169.5" rx="3.5" ry="3.5"/>
</a>
</g>
</g>
<!-- s2_league4_game2_09_stac_1399316573&#45;&gt;s2_league4_game2_09_stac_1399316576 -->
<g id="edge60" class="edge">
<title>s2_league4_game2_09_stac_1399316573&#45;&gt;s2_league4_game2_09_stac_1399316576</title>
<g id="a_edge60"><a xlink:title="Elaboration">
<path fill="none" stroke="#a621c7" d="M60,-190.68C60,-187.58 60,-182.47 60,-178.16"/>
<polygon fill="#a621c7" stroke="#a621c7" points="61.75,-178.06 60,-173.06 58.25,-178.06 61.75,-178.06"/>
</a>
</g>
</g>
<!-- 23_0 -->
<!-- s2_league4_game2_09_stac_1399316576&#45;&gt;23_0 -->
<!-- s2_league4_game2_09_stac_1399316579 -->
<g id="node47" class="node">
<title>s2_league4_game2_09_stac_1399316579</title>
<g id="a_node47"><a xlink:title="24 &#160;Shawnus &#160;hahaha">
<ellipse fill="black" stroke="black" cx="60" cy="-144.5" rx="3.5" ry="3.5"/>
</a>
</g>
</g>
<!-- s2_league4_game2_09_stac_1399316576&#45;&gt;s2_league4_game2_09_stac_1399316579 -->
<g id="edge61" class="edge">
<title>s2_league4_game2_09_stac_1399316576&#45;&gt;s2_league4_game2_09_stac_1399316579</title>
<g id="a_edge61"><a xlink:title="Comment">
<path fill="none" stroke="#ff8200" d="M60,-165.68C60,-162.58 60,-157.47 60,-153.16"/>
<polygon fill="#ff8200" stroke="#ff8200" points="61.75,-153.06 60,-148.06 58.25,-153.06 61.75,-153.06"/>
</a>
</g>
</g>
<!-- 24_0 -->
<!-- s2_league4_game2_09_stac_1399316579&#45;&gt;24_0 -->
<!-- s2_league4_game2_09_stac_1399316579&#45;&gt;s2_league4_game2_09_stac_1399316582 -->
<!-- 25_0 -->
<!-- s2_league4_game2_09_stac_1399316582&#45;&gt;25_0 -->
<!-- s2_league4_game2_09_stac_1399316585 -->
<g id="node51" class="node">
<title>s2_league4_game2_09_stac_1399316585</title>
<g id="a_node51"><a xlink:title="26 &#160;somdechn &#160;or clay">
<ellipse fill="black" stroke="black" cx="54" cy="-94.5" rx="3.5" ry="3.5"/>
</a>
</g>
</g>
<!-- s2_league4_game2_09_stac_1399316582&#45;&gt;s2_league4_game2_09_stac_1399316585 -->
<g id="edge63" class="edge">
<title>s2_league4_game2_09_stac_1399316582&#45;&gt;s2_league4_game2_09_stac_1399316585</title>
<g id="a_edge63"><a xlink:title="Alternation">
<path fill="none" stroke="#10495e" d="M68.29,-116.04C66.01,-112.77 61.91,-106.87 58.68,-102.23"/>
<polygon fill="#10495e" stroke="#10495e" points="59.94,-100.98 55.65,-97.87 57.07,-102.98 59.94,-100.98"/>
</a>
</g>
</g>
<!-- s2_league4_game2_09_stac_1399316591 -->
<g id="node57" class="node">
<title>s2_league4_game2_09_stac_1399316591</title>
<g id="a_node57"><a xlink:title="28 &#160;ztime &#160;unless it&#39;s wood..">
<ellipse fill="black" stroke="black" cx="52" cy="-44.5" rx="3.5" ry="3.5"/>
</a>
</g>
</g>
<!-- s2_league4_game2_09_stac_1399316582&#45;&gt;s2_league4_game2_09_stac_1399316591 -->
<g id="edge65" class="edge">
<title>s2_league4_game2_09_stac_1399316582&#45;&gt;s2_league4_game2_09_stac_1399316591</title>
<g id="a_edge65"><a xlink:title="Question_answer_pair">
<path fill="none" stroke="#12ffff" d="M70.34,-115.99C71.3,-108.27 73.53,-84.22 67,-66 65.03,-60.51 61.09,-55.22 57.75,-51.39"/>
<polygon fill="#12ffff" stroke="#12ffff" points="58.93,-50.1 54.24,-47.64 56.38,-52.49 58.93,-50.1"/>
</a>
</g>
</g>
<!-- 26_0 -->
<!-- s2_league4_game2_09_stac_1399316585&#45;&gt;26_0 -->
<!-- s2_league4_game2_09_stac_1399316588 -->
<g id="node53" class="node">
<title>s2_league4_game2_09_stac_1399316588</title>
<g id="a_node53"><a xlink:title="27 &#160;somdechn &#160;Clay would be better.">
<ellipse fill="black" stroke="black" cx="29" cy="-69.5" rx="3.5" ry="3.5"/>
</a>
</g>
</g>
<!-- s2_league4_game2_09_stac_1399316585&#45;&gt;s2_league4_game2_09_stac_1399316588 -->
<g id="edge64" class="edge">
<title>s2_league4_game2_09_stac_1399316585&#45;&gt;s2_league4_game2_09_stac_1399316588</title>
<g id="a_edge64"><a xlink:title="Elaboration">
<path fill="none" stroke="#a621c7" d="M51.69,-91.38C47.92,-87.9 40.3,-80.89 34.93,-75.96"/>
<polygon fill="#a621c7" stroke="#a621c7" points="35.95,-74.52 31.09,-72.42 33.58,-77.09 35.95,-74.52"/>
</a>
</g>
</g>
<!-- 27_0 -->
<!-- s2_league4_game2_09_stac_1399316588&#45;&gt;27_0 -->
<!-- s2_league4_game2_09_stac_1399316588&#45;&gt;s2_league4_game2_09_stac_1399316591 -->
<!-- s2_league4_game2_09_stac_1399316595 -->
<g id="node55" class="node">
<title>s2_league4_game2_09_stac_1399316595</title>
<g id="a_node55"><a xlink:title="29 &#160;somdechn &#160;Nooo.">
<ellipse fill="black" stroke="black" cx="52" cy="-19.5" rx="3.5" ry="3.5"/>
</a>
</g>
</g>
<!-- 29_0 -->
<!-- s2_league4_game2_09_stac_1399316595&#45;&gt;29_0 -->
<!-- s2_league4_game2_09_stac_1399316591&#45;&gt;s2_league4_game2_09_stac_1399316595 -->
<g id="edge67" class="edge">
<title>s2_league4_game2_09_stac_1399316591&#45;&gt;s2_league4_game2_09_stac_1399316595</title>
<g id="a_edge67"><a xlink:title="Comment">
<path fill="none" stroke="#ff8200" d="M52,-40.68C52,-37.58 52,-32.47 52,-28.16"/>
<polygon fill="#ff8200" stroke="#ff8200" points="53.75,-28.06 52,-23.06 50.25,-28.06 53.75,-28.06"/>
</a>
</g>
</g>
<!-- s2_league4_game2_09_stac_1399316592 -->
<g id="node58" class="node">
<title>s2_league4_game2_09_stac_1399316592</title>
<g id="a_node58"><a xlink:title="28 &#160;ztime &#160;I can&#39;t help">
<ellipse fill="black" stroke="black" cx="77" cy="-44.5" rx="3.5" ry="3.5"/>
</a>
</g>
</g>
<!-- s2_league4_game2_09_stac_1399316591&#45;&gt;s2_league4_game2_09_stac_1399316592 -->
<g id="edge66" class="edge">
<title>s2_league4_game2_09_stac_1399316591&#45;&gt;s2_league4_game2_09_stac_1399316592</title>
<g id="a_edge66"><a xlink:title="ContrastCorrection">
<path fill="none" stroke="#ff7ecf" d="M55.52,-44.5C59.78,-44.5 64.04,-44.5 68.3,-44.5"/>
<polygon fill="#ff7ecf" stroke="#ff7ecf" points="68.31,-46.25 73.31,-44.5 68.31,-42.75 68.31,-46.25"/>
</a>
</g>
</g>
</g>
</svg>
