<?xml version="1.0" encoding="UTF-8" standalone="no"?>
<!DOCTYPE svg PUBLIC "-//W3C//DTD SVG 1.1//EN"
 "http://www.w3.org/Graphics/SVG/1.1/DTD/svg11.dtd">
<!-- Generated by graphviz version 3.0.0 (20220226.1711)
 -->
<!-- Title: 9_s2_league4_game2_789 Pages: 1 -->
<svg width="68pt" height="170pt"
 viewBox="0.00 0.00 68.00 170.00" xmlns="http://www.w3.org/2000/svg" xmlns:xlink="http://www.w3.org/1999/xlink">
<g id="graph0" class="graph" transform="scale(1 1) rotate(0) translate(4 166)">
<title>9_s2_league4_game2_789</title>
<polygon fill="white" stroke="transparent" points="-4,4 -4,-166 64,-166 64,4 -4,4"/>
<g id="clust1" class="cluster">
<title>cluster_9_s2_league4_game2_789</title>
<polygon fill="none" stroke="black" points="8,-8 8,-154 52,-154 52,-8 8,-8"/>
<text text-anchor="middle" x="26.5" y="-138.8" font-family="Times,serif" font-size="14.00">789</text>
</g>
<!-- s2_league4_game2_09_stac_1399316609 -->
<g id="node1" class="node">
<title>s2_league4_game2_09_stac_1399316609</title>
<g id="a_node1"><a xlink:title="1 &#160;somdechn &#160;Awwwhhhh..">
<ellipse fill="black" stroke="black" cx="30" cy="-119.5" rx="3.5" ry="3.5"/>
</a>
</g>
</g>
<!-- s2_league4_game2_09_stac_1399316612 -->
<g id="node2" class="node">
<title>s2_league4_game2_09_stac_1399316612</title>
<g id="a_node2"><a xlink:title="2 &#160;ztime &#160;ahhhh... noooo. my woodpile isn&#39;t so big now...">
<ellipse fill="black" stroke="black" cx="30" cy="-94.5" rx="3.5" ry="3.5"/>
</a>
</g>
</g>
<!-- s2_league4_game2_09_stac_1399316609&#45;&gt;s2_league4_game2_09_stac_1399316612 -->
<g id="edge2" class="edge">
<title>s2_league4_game2_09_stac_1399316609&#45;&gt;s2_league4_game2_09_stac_1399316612</title>
<g id="a_edge2"><a xlink:title="Comment">
<path fill="none" stroke="#ff8200" d="M30,-115.68C30,-112.58 30,-107.47 30,-103.16"/>
<polygon fill="#ff8200" stroke="#ff8200" points="31.75,-103.06 30,-98.06 28.25,-103.06 31.75,-103.06"/>
</a>
</g>
</g>
<!-- s2_league4_game2_09_stac_1399316615 -->
<g id="node3" class="node">
<title>s2_league4_game2_09_stac_1399316615</title>
<g id="a_node3"><a xlink:title="3 &#160;Shawnus &#160;hahaha">
<ellipse fill="black" stroke="black" cx="20" cy="-69.5" rx="3.5" ry="3.5"/>
</a>
</g>
</g>
<!-- s2_league4_game2_09_stac_1399316612&#45;&gt;s2_league4_game2_09_stac_1399316615 -->
<g id="edge3" class="edge">
<title>s2_league4_game2_09_stac_1399316612&#45;&gt;s2_league4_game2_09_stac_1399316615</title>
<g id="a_edge3"><a xlink:title="Comment">
<path fill="none" stroke="#ff8200" d="M28.93,-91.04C27.54,-87.84 25.05,-82.12 23.06,-77.53"/>
<polygon fill="#ff8200" stroke="#ff8200" points="24.63,-76.76 21.03,-72.87 21.42,-78.16 24.63,-76.76"/>
</a>
</g>
</g>
<!-- s2_league4_game2_09_stac_1399316618 -->
<g id="node4" class="node">
<title>s2_league4_game2_09_stac_1399316618</title>
<g id="a_node4"><a xlink:title="4 &#160;somdechn &#160;How about the laptop">
<ellipse fill="black" stroke="black" cx="30" cy="-44.5" rx="3.5" ry="3.5"/>
</a>
</g>
</g>
<!-- s2_league4_game2_09_stac_1399316612&#45;&gt;s2_league4_game2_09_stac_1399316618 -->
<g id="edge4" class="edge">
<title>s2_league4_game2_09_stac_1399316612&#45;&gt;s2_league4_game2_09_stac_1399316618</title>
<g id="a_edge4"><a xlink:title="Q_Elab">
<path fill="none" stroke="#0d20ff" d="M30.59,-90.93C31.65,-86.07 33.67,-75.2 33,-66 32.69,-61.76 32.03,-57.07 31.4,-53.25"/>
<polygon fill="#0d20ff" stroke="#0d20ff" points="33.1,-52.76 30.51,-48.14 29.65,-53.37 33.1,-52.76"/>
</a>
</g>
</g>
<!-- s2_league4_game2_09_stac_1399316615&#45;&gt;s2_league4_game2_09_stac_1399316618 -->
<!-- s2_league4_game2_09_stac_1399316621 -->
<g id="node5" class="node">
<title>s2_league4_game2_09_stac_1399316621</title>
<g id="a_node5"><a xlink:title="5 &#160;Shawnus &#160;thought you were going to open an ikea">
<ellipse fill="black" stroke="black" cx="30" cy="-19.5" rx="3.5" ry="3.5"/>
</a>
</g>
</g>
<!-- s2_league4_game2_09_stac_1399316618&#45;&gt;s2_league4_game2_09_stac_1399316621 -->
<g id="edge5" class="edge">
<title>s2_league4_game2_09_stac_1399316618&#45;&gt;s2_league4_game2_09_stac_1399316621</title>
<g id="a_edge5"><a xlink:title="Comment">
<path fill="none" stroke="#ff8200" d="M30,-40.68C30,-37.58 30,-32.47 30,-28.16"/>
<polygon fill="#ff8200" stroke="#ff8200" points="31.75,-28.06 30,-23.06 28.25,-28.06 31.75,-28.06"/>
</a>
</g>
</g>
</g>
</svg>
