<?xml version="1.0" encoding="UTF-8" standalone="no"?>
<!DOCTYPE svg PUBLIC "-//W3C//DTD SVG 1.1//EN"
 "http://www.w3.org/Graphics/SVG/1.1/DTD/svg11.dtd">
<!-- Generated by graphviz version 3.0.0 (20220226.1711)
 -->
<!-- Title: 9_s2_league4_game2_790 Pages: 1 -->
<svg width="61pt" height="195pt"
 viewBox="0.00 0.00 61.00 195.00" xmlns="http://www.w3.org/2000/svg" xmlns:xlink="http://www.w3.org/1999/xlink">
<g id="graph0" class="graph" transform="scale(1 1) rotate(0) translate(4 191)">
<title>9_s2_league4_game2_790</title>
<polygon fill="white" stroke="transparent" points="-4,4 -4,-191 57,-191 57,4 -4,4"/>
<g id="clust1" class="cluster">
<title>cluster_9_s2_league4_game2_790</title>
<polygon fill="none" stroke="black" points="8,-8 8,-179 45,-179 45,-8 8,-8"/>
<text text-anchor="middle" x="26.5" y="-163.8" font-family="Times,serif" font-size="14.00">790</text>
</g>
<!-- s2_league4_game2_09_stac_1399316625 -->
<g id="node1" class="node">
<title>s2_league4_game2_09_stac_1399316625</title>
<g id="a_node1"><a xlink:title="1 &#160;ztime &#160;random 7">
<ellipse fill="black" stroke="black" cx="26" cy="-144.5" rx="3.5" ry="3.5"/>
</a>
</g>
</g>
<!-- s2_league4_game2_09_stac_1399316628 -->
<g id="node2" class="node">
<title>s2_league4_game2_09_stac_1399316628</title>
<g id="a_node2"><a xlink:title="2 &#160;Shawnus &#160;damn">
<ellipse fill="black" stroke="black" cx="26" cy="-119.5" rx="3.5" ry="3.5"/>
</a>
</g>
</g>
<!-- s2_league4_game2_09_stac_1399316625&#45;&gt;s2_league4_game2_09_stac_1399316628 -->
<g id="edge1" class="edge">
<title>s2_league4_game2_09_stac_1399316625&#45;&gt;s2_league4_game2_09_stac_1399316628</title>
<g id="a_edge1"><a xlink:title="Comment">
<path fill="none" stroke="#ff8200" d="M26,-140.68C26,-137.58 26,-132.47 26,-128.16"/>
<polygon fill="#ff8200" stroke="#ff8200" points="27.75,-128.06 26,-123.06 24.25,-128.06 27.75,-128.06"/>
</a>
</g>
</g>
<!-- s2_league4_game2_09_stac_1399316631 -->
<g id="node3" class="node">
<title>s2_league4_game2_09_stac_1399316631</title>
<g id="a_node3"><a xlink:title="3 &#160;ztime &#160;doesn&#39;t happen like this in the real game does it...?">
<ellipse fill="black" stroke="black" cx="26" cy="-94.5" rx="3.5" ry="3.5"/>
</a>
</g>
</g>
<!-- s2_league4_game2_09_stac_1399316628&#45;&gt;s2_league4_game2_09_stac_1399316631 -->
<g id="edge2" class="edge">
<title>s2_league4_game2_09_stac_1399316628&#45;&gt;s2_league4_game2_09_stac_1399316631</title>
<g id="a_edge2"><a xlink:title="Clarification_question">
<path fill="none" stroke="#ff40d1" d="M26,-115.68C26,-112.58 26,-107.47 26,-103.16"/>
<polygon fill="#ff40d1" stroke="#ff40d1" points="27.75,-103.06 26,-98.06 24.25,-103.06 27.75,-103.06"/>
</a>
</g>
</g>
<!-- s2_league4_game2_09_stac_1399316634 -->
<g id="node4" class="node">
<title>s2_league4_game2_09_stac_1399316634</title>
<g id="a_node4"><a xlink:title="4 &#160;somdechn &#160;Wood for clay?">
<ellipse fill="black" stroke="black" cx="26" cy="-69.5" rx="3.5" ry="3.5"/>
</a>
</g>
</g>
<!-- s2_league4_game2_09_stac_1399316631&#45;&gt;s2_league4_game2_09_stac_1399316634 -->
<g id="edge3" class="edge">
<title>s2_league4_game2_09_stac_1399316631&#45;&gt;s2_league4_game2_09_stac_1399316634</title>
<g id="a_edge3"><a xlink:title="Q_Elab">
<path fill="none" stroke="#0d20ff" d="M26,-90.68C26,-87.58 26,-82.47 26,-78.16"/>
<polygon fill="#0d20ff" stroke="#0d20ff" points="27.75,-78.06 26,-73.06 24.25,-78.06 27.75,-78.06"/>
</a>
</g>
</g>
<!-- s2_league4_game2_09_stac_1399316637 -->
<g id="node5" class="node">
<title>s2_league4_game2_09_stac_1399316637</title>
<g id="a_node5"><a xlink:title="5 &#160;Shawnus &#160;two resources stolen!">
<ellipse fill="black" stroke="black" cx="26" cy="-44.5" rx="3.5" ry="3.5"/>
</a>
</g>
</g>
<!-- s2_league4_game2_09_stac_1399316634&#45;&gt;s2_league4_game2_09_stac_1399316637 -->
<g id="edge4" class="edge">
<title>s2_league4_game2_09_stac_1399316634&#45;&gt;s2_league4_game2_09_stac_1399316637</title>
<g id="a_edge4"><a xlink:title="Comment">
<path fill="none" stroke="#ff8200" d="M26,-65.68C26,-62.58 26,-57.47 26,-53.16"/>
<polygon fill="#ff8200" stroke="#ff8200" points="27.75,-53.06 26,-48.06 24.25,-53.06 27.75,-53.06"/>
</a>
</g>
</g>
<!-- s2_league4_game2_09_stac_1399316640 -->
<g id="node6" class="node">
<title>s2_league4_game2_09_stac_1399316640</title>
<g id="a_node6"><a xlink:title="6 &#160;ztime &#160;sorry...">
<ellipse fill="black" stroke="black" cx="26" cy="-19.5" rx="3.5" ry="3.5"/>
</a>
</g>
</g>
<!-- s2_league4_game2_09_stac_1399316637&#45;&gt;s2_league4_game2_09_stac_1399316640 -->
<g id="edge5" class="edge">
<title>s2_league4_game2_09_stac_1399316637&#45;&gt;s2_league4_game2_09_stac_1399316640</title>
<g id="a_edge5"><a xlink:title="Comment">
<path fill="none" stroke="#ff8200" d="M26,-40.68C26,-37.58 26,-32.47 26,-28.16"/>
<polygon fill="#ff8200" stroke="#ff8200" points="27.75,-28.06 26,-23.06 24.25,-28.06 27.75,-28.06"/>
</a>
</g>
</g>
</g>
</svg>
