<?xml version="1.0" encoding="UTF-8" standalone="no"?>
<!DOCTYPE svg PUBLIC "-//W3C//DTD SVG 1.1//EN"
 "http://www.w3.org/Graphics/SVG/1.1/DTD/svg11.dtd">
<!-- Generated by graphviz version 3.0.0 (20220226.1711)
 -->
<!-- Title: 10_s2_league4_game2_791 Pages: 1 -->
<svg width="108pt" height="320pt"
 viewBox="0.00 0.00 108.00 320.00" xmlns="http://www.w3.org/2000/svg" xmlns:xlink="http://www.w3.org/1999/xlink">
<g id="graph0" class="graph" transform="scale(1 1) rotate(0) translate(4 316)">
<title>10_s2_league4_game2_791</title>
<polygon fill="white" stroke="transparent" points="-4,4 -4,-316 104,-316 104,4 -4,4"/>
<g id="clust1" class="cluster">
<title>cluster_10_s2_league4_game2_791</title>
<polygon fill="none" stroke="black" points="8,-8 8,-304 92,-304 92,-8 8,-8"/>
<text text-anchor="middle" x="26.5" y="-288.8" font-family="Times,serif" font-size="14.00">791</text>
</g>
<!-- s2_league4_game2_10_stac_1399316474 -->
<g id="node1" class="node">
<title>s2_league4_game2_10_stac_1399316474</title>
<g id="a_node1"><a xlink:title="1 &#160;ztime &#160;anyone want to give me clay...">
<ellipse fill="black" stroke="black" cx="53" cy="-269.5" rx="3.5" ry="3.5"/>
</a>
</g>
</g>
<!-- s2_league4_game2_10_stac_1399316477 -->
<g id="node2" class="node">
<title>s2_league4_game2_10_stac_1399316477</title>
<g id="a_node2"><a xlink:title="2 &#160;Shawnus &#160;for?">
<ellipse fill="black" stroke="black" cx="20" cy="-244.5" rx="3.5" ry="3.5"/>
</a>
</g>
</g>
<!-- s2_league4_game2_10_stac_1399316474&#45;&gt;s2_league4_game2_10_stac_1399316477 -->
<g id="edge5" class="edge">
<title>s2_league4_game2_10_stac_1399316474&#45;&gt;s2_league4_game2_10_stac_1399316477</title>
<g id="a_edge5"><a xlink:title="Q_Elab">
<path fill="none" stroke="#0d20ff" d="M50.41,-266.7C45.37,-263.18 34.11,-255.33 26.8,-250.24"/>
<polygon fill="#0d20ff" stroke="#0d20ff" points="27.59,-248.66 22.49,-247.23 25.59,-251.53 27.59,-248.66"/>
</a>
</g>
</g>
<!-- s2_league4_game2_10_stac_1399316480 -->
<g id="node3" class="node">
<title>s2_league4_game2_10_stac_1399316480</title>
<g id="a_node3"><a xlink:title="3 &#160;somdechn &#160;Got none..">
<ellipse fill="black" stroke="black" cx="40" cy="-219.5" rx="3.5" ry="3.5"/>
</a>
</g>
</g>
<!-- s2_league4_game2_10_stac_1399316474&#45;&gt;s2_league4_game2_10_stac_1399316480 -->
<g id="edge6" class="edge">
<title>s2_league4_game2_10_stac_1399316474&#45;&gt;s2_league4_game2_10_stac_1399316480</title>
<g id="a_edge6"><a xlink:title="Question_answer_pair">
<path fill="none" stroke="#12ffff" d="M52.3,-265.92C50.4,-258.89 45.06,-239.19 42.08,-228.18"/>
<polygon fill="#12ffff" stroke="#12ffff" points="43.76,-227.7 40.77,-223.33 40.39,-228.62 43.76,-227.7"/>
</a>
</g>
</g>
<!-- s2_league4_game2_10_stac_1399316486 -->
<g id="node5" class="node">
<title>s2_league4_game2_10_stac_1399316486</title>
<g id="a_node5"><a xlink:title="5 &#160;Shawnus &#160;no">
<ellipse fill="black" stroke="black" cx="50" cy="-169.5" rx="3.5" ry="3.5"/>
</a>
</g>
</g>
<!-- s2_league4_game2_10_stac_1399316474&#45;&gt;s2_league4_game2_10_stac_1399316486 -->
<g id="edge8" class="edge">
<title>s2_league4_game2_10_stac_1399316474&#45;&gt;s2_league4_game2_10_stac_1399316486</title>
<g id="a_edge8"><a xlink:title="Question_answer_pair">
<path fill="none" stroke="#12ffff" d="M53.14,-265.82C53.63,-255.88 55.13,-220.25 53,-191 52.69,-186.76 52.03,-182.07 51.4,-178.25"/>
<polygon fill="#12ffff" stroke="#12ffff" points="53.1,-177.76 50.51,-173.14 49.65,-178.37 53.1,-177.76"/>
</a>
</g>
</g>
<!-- s2_league4_game2_10_stac_1399316498 -->
<g id="node9" class="node">
<title>s2_league4_game2_10_stac_1399316498</title>
<g id="a_node9"><a xlink:title="9 &#160;Shawnus &#160;not got any wood">
<ellipse fill="black" stroke="black" cx="60" cy="-69.5" rx="3.5" ry="3.5"/>
</a>
</g>
</g>
<!-- s2_league4_game2_10_stac_1399316474&#45;&gt;s2_league4_game2_10_stac_1399316498 -->
<g id="edge12" class="edge">
<title>s2_league4_game2_10_stac_1399316474&#45;&gt;s2_league4_game2_10_stac_1399316498</title>
<g id="a_edge12"><a xlink:title="Question_answer_pair">
<path fill="none" stroke="#12ffff" d="M55.35,-266.58C62.43,-260.58 83,-241.33 83,-220.5 83,-220.5 83,-220.5 83,-118.5 83,-101.97 71.77,-85.11 65,-76.44"/>
<polygon fill="#12ffff" stroke="#12ffff" points="66.32,-75.29 61.8,-72.53 63.61,-77.51 66.32,-75.29"/>
</a>
</g>
</g>
<!-- s2_league4_game2_10_stac_1399316477&#45;&gt;s2_league4_game2_10_stac_1399316480 -->
<!-- s2_league4_game2_10_stac_1399316483 -->
<g id="node4" class="node">
<title>s2_league4_game2_10_stac_1399316483</title>
<g id="a_node4"><a xlink:title="4 &#160;Shawnus &#160;oh wait">
<ellipse fill="black" stroke="black" cx="40" cy="-194.5" rx="3.5" ry="3.5"/>
</a>
</g>
</g>
<!-- s2_league4_game2_10_stac_1399316480&#45;&gt;s2_league4_game2_10_stac_1399316483 -->
<g id="edge7" class="edge">
<title>s2_league4_game2_10_stac_1399316480&#45;&gt;s2_league4_game2_10_stac_1399316483</title>
<g id="a_edge7"><a xlink:title="ContrastCorrection">
<path fill="none" stroke="#ff7ecf" d="M40,-215.68C40,-212.58 40,-207.47 40,-203.16"/>
<polygon fill="#ff7ecf" stroke="#ff7ecf" points="41.75,-203.06 40,-198.06 38.25,-203.06 41.75,-203.06"/>
</a>
</g>
</g>
<!-- s2_league4_game2_10_stac_1399316483&#45;&gt;s2_league4_game2_10_stac_1399316486 -->
<!-- s2_league4_game2_10_stac_1399316489 -->
<g id="node6" class="node">
<title>s2_league4_game2_10_stac_1399316489</title>
<g id="a_node6"><a xlink:title="6 &#160;ztime &#160;wood">
<ellipse fill="black" stroke="black" cx="50" cy="-144.5" rx="3.5" ry="3.5"/>
</a>
</g>
</g>
<!-- s2_league4_game2_10_stac_1399316486&#45;&gt;s2_league4_game2_10_stac_1399316489 -->
<g id="edge9" class="edge">
<title>s2_league4_game2_10_stac_1399316486&#45;&gt;s2_league4_game2_10_stac_1399316489</title>
<g id="a_edge9"><a xlink:title="Acknowledgement">
<path fill="none" stroke="#12ffff" d="M50,-165.68C50,-162.58 50,-157.47 50,-153.16"/>
<polygon fill="#12ffff" stroke="#12ffff" points="51.75,-153.06 50,-148.06 48.25,-153.06 51.75,-153.06"/>
</a>
</g>
</g>
<!-- s2_league4_game2_10_stac_1399316492 -->
<g id="node7" class="node">
<title>s2_league4_game2_10_stac_1399316492</title>
<g id="a_node7"><a xlink:title="7 &#160;Shawnus &#160;haha">
<ellipse fill="black" stroke="black" cx="39" cy="-119.5" rx="3.5" ry="3.5"/>
</a>
</g>
</g>
<!-- s2_league4_game2_10_stac_1399316489&#45;&gt;s2_league4_game2_10_stac_1399316492 -->
<g id="edge10" class="edge">
<title>s2_league4_game2_10_stac_1399316489&#45;&gt;s2_league4_game2_10_stac_1399316492</title>
<g id="a_edge10"><a xlink:title="Comment">
<path fill="none" stroke="#ff8200" d="M48.82,-141.04C47.29,-137.84 44.56,-132.12 42.36,-127.53"/>
<polygon fill="#ff8200" stroke="#ff8200" points="43.87,-126.63 40.14,-122.87 40.71,-128.14 43.87,-126.63"/>
</a>
</g>
</g>
<!-- s2_league4_game2_10_stac_1399316495 -->
<g id="node8" class="node">
<title>s2_league4_game2_10_stac_1399316495</title>
<g id="a_node8"><a xlink:title="8 &#160;ztime &#160;ore">
<ellipse fill="black" stroke="black" cx="60" cy="-94.5" rx="3.5" ry="3.5"/>
</a>
</g>
</g>
<!-- s2_league4_game2_10_stac_1399316489&#45;&gt;s2_league4_game2_10_stac_1399316495 -->
<g id="edge11" class="edge">
<title>s2_league4_game2_10_stac_1399316489&#45;&gt;s2_league4_game2_10_stac_1399316495</title>
<g id="a_edge11"><a xlink:title="Elaboration">
<path fill="none" stroke="#a621c7" d="M50.54,-140.92C51.99,-133.95 56.03,-114.55 58.34,-103.49"/>
<polygon fill="#a621c7" stroke="#a621c7" points="60.1,-103.58 59.41,-98.33 56.68,-102.87 60.1,-103.58"/>
</a>
</g>
</g>
<!-- s2_league4_game2_10_stac_1399316492&#45;&gt;s2_league4_game2_10_stac_1399316495 -->
<!-- s2_league4_game2_10_stac_1399316495&#45;&gt;s2_league4_game2_10_stac_1399316498 -->
<!-- s2_league4_game2_10_stac_1399316501 -->
<g id="node10" class="node">
<title>s2_league4_game2_10_stac_1399316501</title>
<g id="a_node10"><a xlink:title="10 &#160;ztime &#160;eh?">
<ellipse fill="black" stroke="black" cx="49" cy="-44.5" rx="3.5" ry="3.5"/>
</a>
</g>
</g>
<!-- s2_league4_game2_10_stac_1399316498&#45;&gt;s2_league4_game2_10_stac_1399316501 -->
<g id="edge13" class="edge">
<title>s2_league4_game2_10_stac_1399316498&#45;&gt;s2_league4_game2_10_stac_1399316501</title>
<g id="a_edge13"><a xlink:title="Clarification_question">
<path fill="none" stroke="#ff40d1" d="M58.82,-66.04C57.29,-62.84 54.56,-57.12 52.36,-52.53"/>
<polygon fill="#ff40d1" stroke="#ff40d1" points="53.87,-51.63 50.14,-47.87 50.71,-53.14 53.87,-51.63"/>
</a>
</g>
</g>
<!-- s2_league4_game2_10_stac_1399316504 -->
<g id="node11" class="node">
<title>s2_league4_game2_10_stac_1399316504</title>
<g id="a_node11"><a xlink:title="11 &#160;ztime &#160;ok...">
<ellipse fill="black" stroke="black" cx="59" cy="-19.5" rx="3.5" ry="3.5"/>
</a>
</g>
</g>
<!-- s2_league4_game2_10_stac_1399316498&#45;&gt;s2_league4_game2_10_stac_1399316504 -->
<g id="edge14" class="edge">
<title>s2_league4_game2_10_stac_1399316498&#45;&gt;s2_league4_game2_10_stac_1399316504</title>
<g id="a_edge14"><a xlink:title="Acknowledgement">
<path fill="none" stroke="#12ffff" d="M60.44,-65.92C61.21,-61.05 62.67,-50.17 62,-41 61.69,-36.76 61.03,-32.07 60.4,-28.25"/>
<polygon fill="#12ffff" stroke="#12ffff" points="62.1,-27.76 59.51,-23.14 58.65,-28.37 62.1,-27.76"/>
</a>
</g>
</g>
<!-- s2_league4_game2_10_stac_1399316501&#45;&gt;s2_league4_game2_10_stac_1399316504 -->
<g id="edge15" class="edge">
<title>s2_league4_game2_10_stac_1399316501&#45;&gt;s2_league4_game2_10_stac_1399316504</title>
<g id="a_edge15"><a xlink:title="Question_answer_pair">
<path fill="none" stroke="#12ffff" d="M50.07,-41.04C51.46,-37.84 53.95,-32.12 55.94,-27.53"/>
<polygon fill="#12ffff" stroke="#12ffff" points="57.58,-28.16 57.97,-22.87 54.37,-26.76 57.58,-28.16"/>
</a>
</g>
</g>
</g>
</svg>
