<?xml version="1.0" encoding="UTF-8" standalone="no"?>
<!DOCTYPE svg PUBLIC "-//W3C//DTD SVG 1.1//EN"
 "http://www.w3.org/Graphics/SVG/1.1/DTD/svg11.dtd">
<!-- Generated by graphviz version 3.0.0 (20220226.1711)
 -->
<!-- Title: 10_s2_league4_game2_792 Pages: 1 -->
<svg width="93pt" height="420pt"
 viewBox="0.00 0.00 93.00 420.00" xmlns="http://www.w3.org/2000/svg" xmlns:xlink="http://www.w3.org/1999/xlink">
<g id="graph0" class="graph" transform="scale(1 1) rotate(0) translate(4 416)">
<title>10_s2_league4_game2_792</title>
<polygon fill="white" stroke="transparent" points="-4,4 -4,-416 89,-416 89,4 -4,4"/>
<g id="clust1" class="cluster">
<title>cluster_10_s2_league4_game2_792</title>
<polygon fill="none" stroke="black" points="8,-8 8,-404 77,-404 77,-8 8,-8"/>
<text text-anchor="middle" x="26.5" y="-388.8" font-family="Times,serif" font-size="14.00">792</text>
</g>
<!-- s2_league4_game2_10_stac_1399316512 -->
<g id="node1" class="node">
<title>s2_league4_game2_10_stac_1399316512</title>
<g id="a_node1"><a xlink:title="2 &#160;somdechn &#160;giving out wood for wheat...">
<ellipse fill="black" stroke="black" cx="30" cy="-344.5" rx="3.5" ry="3.5"/>
</a>
</g>
</g>
<!-- 2_0 -->
<!-- s2_league4_game2_10_stac_1399316512&#45;&gt;2_0 -->
<!-- s2_league4_game2_10_stac_1399316515 -->
<g id="node3" class="node">
<title>s2_league4_game2_10_stac_1399316515</title>
<g id="a_node3"><a xlink:title="3 &#160;ztime &#160;sorry don&#39;t need wood">
<ellipse fill="black" stroke="black" cx="30" cy="-319.5" rx="3.5" ry="3.5"/>
</a>
</g>
</g>
<!-- s2_league4_game2_10_stac_1399316512&#45;&gt;s2_league4_game2_10_stac_1399316515 -->
<g id="edge21" class="edge">
<title>s2_league4_game2_10_stac_1399316512&#45;&gt;s2_league4_game2_10_stac_1399316515</title>
<g id="a_edge21"><a xlink:title="Question_answer_pair">
<path fill="none" stroke="#12ffff" d="M30,-340.68C30,-337.58 30,-332.47 30,-328.16"/>
<polygon fill="#12ffff" stroke="#12ffff" points="31.75,-328.06 30,-323.06 28.25,-328.06 31.75,-328.06"/>
</a>
</g>
</g>
<!-- 3_0 -->
<!-- s2_league4_game2_10_stac_1399316515&#45;&gt;3_0 -->
<!-- s2_league4_game2_10_stac_1399316518 -->
<g id="node5" class="node">
<title>s2_league4_game2_10_stac_1399316518</title>
<g id="a_node5"><a xlink:title="4 &#160;ztime &#160;you have a big hand of cards there...">
<ellipse fill="black" stroke="black" cx="30" cy="-294.5" rx="3.5" ry="3.5"/>
</a>
</g>
</g>
<!-- s2_league4_game2_10_stac_1399316515&#45;&gt;s2_league4_game2_10_stac_1399316518 -->
<g id="edge22" class="edge">
<title>s2_league4_game2_10_stac_1399316515&#45;&gt;s2_league4_game2_10_stac_1399316518</title>
<g id="a_edge22"><a xlink:title="ExplanationResult">
<path fill="none" stroke="#a62139" d="M30,-315.68C30,-312.58 30,-307.47 30,-303.16"/>
<polygon fill="#a62139" stroke="#a62139" points="31.75,-303.06 30,-298.06 28.25,-303.06 31.75,-303.06"/>
</a>
</g>
</g>
<!-- 4_0 -->
<!-- s2_league4_game2_10_stac_1399316518&#45;&gt;4_0 -->
<!-- s2_league4_game2_10_stac_1399316521 -->
<g id="node7" class="node">
<title>s2_league4_game2_10_stac_1399316521</title>
<g id="a_node7"><a xlink:title="5 &#160;Shawnus &#160;haha he does!">
<ellipse fill="black" stroke="black" cx="20" cy="-269.5" rx="3.5" ry="3.5"/>
</a>
</g>
</g>
<!-- s2_league4_game2_10_stac_1399316518&#45;&gt;s2_league4_game2_10_stac_1399316521 -->
<g id="edge23" class="edge">
<title>s2_league4_game2_10_stac_1399316518&#45;&gt;s2_league4_game2_10_stac_1399316521</title>
<g id="a_edge23"><a xlink:title="Comment">
<path fill="none" stroke="#ff8200" d="M28.93,-291.04C27.54,-287.84 25.05,-282.12 23.06,-277.53"/>
<polygon fill="#ff8200" stroke="#ff8200" points="24.63,-276.76 21.03,-272.87 21.42,-278.16 24.63,-276.76"/>
</a>
</g>
</g>
<!-- s2_league4_game2_10_stac_1399316524 -->
<g id="node9" class="node">
<title>s2_league4_game2_10_stac_1399316524</title>
<g id="a_node9"><a xlink:title="6 &#160;somdechn &#160;Yeh..but no wheat..">
<ellipse fill="black" stroke="black" cx="30" cy="-244.5" rx="3.5" ry="3.5"/>
</a>
</g>
</g>
<!-- s2_league4_game2_10_stac_1399316518&#45;&gt;s2_league4_game2_10_stac_1399316524 -->
<g id="edge24" class="edge">
<title>s2_league4_game2_10_stac_1399316518&#45;&gt;s2_league4_game2_10_stac_1399316524</title>
<g id="a_edge24"><a xlink:title="Question_answer_pair">
<path fill="none" stroke="#12ffff" d="M33.01,-292.39C39.08,-289.95 52.66,-283.53 58,-273 63.46,-262.24 47.96,-253.2 37.89,-248.66"/>
<polygon fill="#12ffff" stroke="#12ffff" points="38.55,-247.04 33.26,-246.7 37.19,-250.26 38.55,-247.04"/>
</a>
</g>
</g>
<!-- 5_0 -->
<!-- s2_league4_game2_10_stac_1399316521&#45;&gt;5_0 -->
<!-- s2_league4_game2_10_stac_1399316521&#45;&gt;s2_league4_game2_10_stac_1399316524 -->
<!-- 6_0 -->
<!-- s2_league4_game2_10_stac_1399316524&#45;&gt;6_0 -->
<!-- s2_league4_game2_10_stac_1399316527 -->
<g id="node11" class="node">
<title>s2_league4_game2_10_stac_1399316527</title>
<g id="a_node11"><a xlink:title="7 &#160;somdechn &#160;Hmmm">
<ellipse fill="black" stroke="black" cx="20" cy="-219.5" rx="3.5" ry="3.5"/>
</a>
</g>
</g>
<!-- s2_league4_game2_10_stac_1399316524&#45;&gt;s2_league4_game2_10_stac_1399316527 -->
<g id="edge25" class="edge">
<title>s2_league4_game2_10_stac_1399316524&#45;&gt;s2_league4_game2_10_stac_1399316527</title>
<g id="a_edge25"><a xlink:title="Comment">
<path fill="none" stroke="#ff8200" d="M28.93,-241.04C27.54,-237.84 25.05,-232.12 23.06,-227.53"/>
<polygon fill="#ff8200" stroke="#ff8200" points="24.63,-226.76 21.03,-222.87 21.42,-228.16 24.63,-226.76"/>
</a>
</g>
</g>
<!-- s2_league4_game2_10_stac_1399316530 -->
<g id="node13" class="node">
<title>s2_league4_game2_10_stac_1399316530</title>
<g id="a_node13"><a xlink:title="8 &#160;ztime &#160;do you have clay?">
<ellipse fill="black" stroke="black" cx="30" cy="-194.5" rx="3.5" ry="3.5"/>
</a>
</g>
</g>
<!-- s2_league4_game2_10_stac_1399316524&#45;&gt;s2_league4_game2_10_stac_1399316530 -->
<g id="edge26" class="edge">
<title>s2_league4_game2_10_stac_1399316524&#45;&gt;s2_league4_game2_10_stac_1399316530</title>
<g id="a_edge26"><a xlink:title="Clarification_question">
<path fill="none" stroke="#ff40d1" d="M33.01,-242.39C39.08,-239.95 52.66,-233.53 58,-223 63.46,-212.24 47.96,-203.2 37.89,-198.66"/>
<polygon fill="#ff40d1" stroke="#ff40d1" points="38.55,-197.04 33.26,-196.7 37.19,-200.26 38.55,-197.04"/>
</a>
</g>
</g>
<!-- 7_0 -->
<!-- s2_league4_game2_10_stac_1399316527&#45;&gt;7_0 -->
<!-- s2_league4_game2_10_stac_1399316527&#45;&gt;s2_league4_game2_10_stac_1399316530 -->
<!-- 8_0 -->
<!-- s2_league4_game2_10_stac_1399316530&#45;&gt;8_0 -->
<!-- s2_league4_game2_10_stac_1399316533 -->
<g id="node15" class="node">
<title>s2_league4_game2_10_stac_1399316533</title>
<g id="a_node15"><a xlink:title="9 &#160;ztime &#160;for wheat?">
<ellipse fill="black" stroke="black" cx="20" cy="-169.5" rx="3.5" ry="3.5"/>
</a>
</g>
</g>
<!-- s2_league4_game2_10_stac_1399316530&#45;&gt;s2_league4_game2_10_stac_1399316533 -->
<g id="edge27" class="edge">
<title>s2_league4_game2_10_stac_1399316530&#45;&gt;s2_league4_game2_10_stac_1399316533</title>
<g id="a_edge27"><a xlink:title="Elaboration">
<path fill="none" stroke="#a621c7" d="M28.93,-191.04C27.54,-187.84 25.05,-182.12 23.06,-177.53"/>
<polygon fill="#a621c7" stroke="#a621c7" points="24.63,-176.76 21.03,-172.87 21.42,-178.16 24.63,-176.76"/>
</a>
</g>
</g>
<!-- s2_league4_game2_10_stac_1399316536 -->
<g id="node17" class="node">
<title>s2_league4_game2_10_stac_1399316536</title>
<g id="a_node17"><a xlink:title="10 &#160;somdechn &#160;No...">
<ellipse fill="black" stroke="black" cx="30" cy="-144.5" rx="3.5" ry="3.5"/>
</a>
</g>
</g>
<!-- s2_league4_game2_10_stac_1399316530&#45;&gt;s2_league4_game2_10_stac_1399316536 -->
<g id="edge28" class="edge">
<title>s2_league4_game2_10_stac_1399316530&#45;&gt;s2_league4_game2_10_stac_1399316536</title>
<g id="a_edge28"><a xlink:title="Question_answer_pair">
<path fill="none" stroke="#12ffff" d="M33.01,-192.39C39.08,-189.95 52.66,-183.53 58,-173 63.46,-162.24 47.96,-153.2 37.89,-148.66"/>
<polygon fill="#12ffff" stroke="#12ffff" points="38.55,-147.04 33.26,-146.7 37.19,-150.26 38.55,-147.04"/>
</a>
</g>
</g>
<!-- 9_0 -->
<!-- s2_league4_game2_10_stac_1399316533&#45;&gt;9_0 -->
<!-- s2_league4_game2_10_stac_1399316533&#45;&gt;s2_league4_game2_10_stac_1399316536 -->
<!-- 10_0 -->
<!-- s2_league4_game2_10_stac_1399316536&#45;&gt;10_0 -->
<!-- s2_league4_game2_10_stac_1399316539 -->
<g id="node19" class="node">
<title>s2_league4_game2_10_stac_1399316539</title>
<g id="a_node19"><a xlink:title="11 &#160;ztime &#160;:) worth a try">
<ellipse fill="black" stroke="black" cx="20" cy="-119.5" rx="3.5" ry="3.5"/>
</a>
</g>
</g>
<!-- s2_league4_game2_10_stac_1399316536&#45;&gt;s2_league4_game2_10_stac_1399316539 -->
<g id="edge29" class="edge">
<title>s2_league4_game2_10_stac_1399316536&#45;&gt;s2_league4_game2_10_stac_1399316539</title>
<g id="a_edge29"><a xlink:title="Comment">
<path fill="none" stroke="#ff8200" d="M28.93,-141.04C27.54,-137.84 25.05,-132.12 23.06,-127.53"/>
<polygon fill="#ff8200" stroke="#ff8200" points="24.63,-126.76 21.03,-122.87 21.42,-128.16 24.63,-126.76"/>
</a>
</g>
</g>
<!-- s2_league4_game2_10_stac_1399316542 -->
<g id="node21" class="node">
<title>s2_league4_game2_10_stac_1399316542</title>
<g id="a_node21"><a xlink:title="12 &#160;somdechn &#160;Ore for wheat">
<ellipse fill="black" stroke="black" cx="30" cy="-94.5" rx="3.5" ry="3.5"/>
</a>
</g>
</g>
<!-- s2_league4_game2_10_stac_1399316536&#45;&gt;s2_league4_game2_10_stac_1399316542 -->
<g id="edge30" class="edge">
<title>s2_league4_game2_10_stac_1399316536&#45;&gt;s2_league4_game2_10_stac_1399316542</title>
<g id="a_edge30"><a xlink:title="Elaboration">
<path fill="none" stroke="#a621c7" d="M33.01,-142.39C39.08,-139.95 52.66,-133.53 58,-123 63.46,-112.24 47.96,-103.2 37.89,-98.66"/>
<polygon fill="#a621c7" stroke="#a621c7" points="38.55,-97.04 33.26,-96.7 37.19,-100.26 38.55,-97.04"/>
</a>
</g>
</g>
<!-- 11_0 -->
<!-- s2_league4_game2_10_stac_1399316539&#45;&gt;11_0 -->
<!-- s2_league4_game2_10_stac_1399316539&#45;&gt;s2_league4_game2_10_stac_1399316542 -->
<!-- 12_0 -->
<!-- s2_league4_game2_10_stac_1399316542&#45;&gt;12_0 -->
<!-- s2_league4_game2_10_stac_1399316549 -->
<g id="node23" class="node">
<title>s2_league4_game2_10_stac_1399316549</title>
<g id="a_node23"><a xlink:title="14 &#160;Shawnus &#160;nope">
<ellipse fill="black" stroke="black" cx="30" cy="-44.5" rx="3.5" ry="3.5"/>
</a>
</g>
</g>
<!-- s2_league4_game2_10_stac_1399316542&#45;&gt;s2_league4_game2_10_stac_1399316549 -->
<g id="edge33" class="edge">
<title>s2_league4_game2_10_stac_1399316542&#45;&gt;s2_league4_game2_10_stac_1399316549</title>
<g id="a_edge33"><a xlink:title="Question_answer_pair">
<path fill="none" stroke="#12ffff" d="M29.66,-90.85C29.17,-86.95 28.31,-79.43 28,-73 27.67,-66.26 28.31,-58.6 28.95,-53.08"/>
<polygon fill="#12ffff" stroke="#12ffff" points="30.69,-53.26 29.6,-48.08 27.22,-52.81 30.69,-53.26"/>
</a>
</g>
</g>
<!-- s2_league4_game2_10_stac_1399316545 -->
<g id="node29" class="node">
<title>s2_league4_game2_10_stac_1399316545</title>
<g id="a_node29"><a xlink:title="13 &#160;ztime &#160;no">
<ellipse fill="black" stroke="black" cx="40" cy="-69.5" rx="3.5" ry="3.5"/>
</a>
</g>
</g>
<!-- s2_league4_game2_10_stac_1399316542&#45;&gt;s2_league4_game2_10_stac_1399316545 -->
<g id="edge31" class="edge">
<title>s2_league4_game2_10_stac_1399316542&#45;&gt;s2_league4_game2_10_stac_1399316545</title>
<g id="a_edge31"><a xlink:title="Question_answer_pair">
<path fill="none" stroke="#12ffff" d="M31.07,-91.04C32.46,-87.84 34.95,-82.12 36.94,-77.53"/>
<polygon fill="#12ffff" stroke="#12ffff" points="38.58,-78.16 38.97,-72.87 35.37,-76.76 38.58,-78.16"/>
</a>
</g>
</g>
<!-- 14_0 -->
<!-- s2_league4_game2_10_stac_1399316549&#45;&gt;14_0 -->
<!-- s2_league4_game2_10_stac_1399316552 -->
<g id="node25" class="node">
<title>s2_league4_game2_10_stac_1399316552</title>
<g id="a_node25"><a xlink:title="15 &#160;ztime &#160;the bank again?">
<ellipse fill="black" stroke="black" cx="30" cy="-19.5" rx="3.5" ry="3.5"/>
</a>
</g>
</g>
<!-- s2_league4_game2_10_stac_1399316549&#45;&gt;s2_league4_game2_10_stac_1399316552 -->
<g id="edge34" class="edge">
<title>s2_league4_game2_10_stac_1399316549&#45;&gt;s2_league4_game2_10_stac_1399316552</title>
<g id="a_edge34"><a xlink:title="Clarification_question">
<path fill="none" stroke="#ff40d1" d="M30,-40.68C30,-37.58 30,-32.47 30,-28.16"/>
<polygon fill="#ff40d1" stroke="#ff40d1" points="31.75,-28.06 30,-23.06 28.25,-28.06 31.75,-28.06"/>
</a>
</g>
</g>
<!-- 15_0 -->
<!-- s2_league4_game2_10_stac_1399316552&#45;&gt;15_0 -->
<!-- s2_league4_game2_10_stac_1399316508 -->
<g id="node27" class="node">
<title>s2_league4_game2_10_stac_1399316508</title>
<g id="a_node27"><a xlink:title="1 &#160;Shawnus &#160;take a wheat for one">
<ellipse fill="black" stroke="black" cx="30" cy="-369.5" rx="3.5" ry="3.5"/>
</a>
</g>
</g>
<!-- s2_league4_game2_10_stac_1399316508&#45;&gt;s2_league4_game2_10_stac_1399316512 -->
<g id="edge20" class="edge">
<title>s2_league4_game2_10_stac_1399316508&#45;&gt;s2_league4_game2_10_stac_1399316512</title>
<g id="a_edge20"><a xlink:title="Question_answer_pair">
<path fill="none" stroke="#12ffff" d="M30,-365.68C30,-362.58 30,-357.47 30,-353.16"/>
<polygon fill="#12ffff" stroke="#12ffff" points="31.75,-353.06 30,-348.06 28.25,-353.06 31.75,-353.06"/>
</a>
</g>
</g>
<!-- s2_league4_game2_10_stac_1399316509 -->
<g id="node28" class="node">
<title>s2_league4_game2_10_stac_1399316509</title>
<g id="a_node28"><a xlink:title="1 &#160;Shawnus &#160;when it&#39;s my turn">
<ellipse fill="black" stroke="black" cx="55" cy="-369.5" rx="3.5" ry="3.5"/>
</a>
</g>
</g>
<!-- s2_league4_game2_10_stac_1399316508&#45;&gt;s2_league4_game2_10_stac_1399316509 -->
<g id="edge19" class="edge">
<title>s2_league4_game2_10_stac_1399316508&#45;&gt;s2_league4_game2_10_stac_1399316509</title>
<g id="a_edge19"><a xlink:title="Elaboration">
<path fill="none" stroke="#a621c7" d="M33.52,-369.5C37.78,-369.5 42.04,-369.5 46.3,-369.5"/>
<polygon fill="#a621c7" stroke="#a621c7" points="46.31,-371.25 51.31,-369.5 46.31,-367.75 46.31,-371.25"/>
</a>
</g>
</g>
<!-- s2_league4_game2_10_stac_1399316545&#45;&gt;s2_league4_game2_10_stac_1399316549 -->
<!-- s2_league4_game2_10_stac_1399316546 -->
<g id="node30" class="node">
<title>s2_league4_game2_10_stac_1399316546</title>
<g id="a_node30"><a xlink:title="13 &#160;ztime &#160;thanks">
<ellipse fill="black" stroke="black" cx="65" cy="-69.5" rx="3.5" ry="3.5"/>
</a>
</g>
</g>
<!-- s2_league4_game2_10_stac_1399316545&#45;&gt;s2_league4_game2_10_stac_1399316546 -->
<g id="edge32" class="edge">
<title>s2_league4_game2_10_stac_1399316545&#45;&gt;s2_league4_game2_10_stac_1399316546</title>
<g id="a_edge32"><a xlink:title="Comment">
<path fill="none" stroke="#ff8200" d="M43.52,-69.5C47.78,-69.5 52.04,-69.5 56.3,-69.5"/>
<polygon fill="#ff8200" stroke="#ff8200" points="56.31,-71.25 61.31,-69.5 56.31,-67.75 56.31,-71.25"/>
</a>
</g>
</g>
</g>
</svg>
