<?xml version="1.0" encoding="UTF-8" standalone="no"?>
<!DOCTYPE svg PUBLIC "-//W3C//DTD SVG 1.1//EN"
 "http://www.w3.org/Graphics/SVG/1.1/DTD/svg11.dtd">
<!-- Generated by graphviz version 3.0.0 (20220226.1711)
 -->
<!-- Title: 10_s2_league4_game2_793 Pages: 1 -->
<svg width="93pt" height="495pt"
 viewBox="0.00 0.00 93.00 495.00" xmlns="http://www.w3.org/2000/svg" xmlns:xlink="http://www.w3.org/1999/xlink">
<g id="graph0" class="graph" transform="scale(1 1) rotate(0) translate(4 491)">
<title>10_s2_league4_game2_793</title>
<polygon fill="white" stroke="transparent" points="-4,4 -4,-491 89,-491 89,4 -4,4"/>
<g id="clust1" class="cluster">
<title>cluster_10_s2_league4_game2_793</title>
<polygon fill="none" stroke="black" points="8,-8 8,-479 77,-479 77,-8 8,-8"/>
<text text-anchor="middle" x="26.5" y="-463.8" font-family="Times,serif" font-size="14.00">793</text>
</g>
<!-- s2_league4_game2_10_stac_1493133575 -->
<g id="node1" class="node">
<title>s2_league4_game2_10_stac_1493133575</title>
<g id="a_node1"><a xlink:title="1 &#160;Shawnus &#160;need wheat">
<ellipse fill="black" stroke="black" cx="20" cy="-444.5" rx="3.5" ry="3.5"/>
</a>
</g>
</g>
<!-- 1_0 -->
<!-- s2_league4_game2_10_stac_1493133575&#45;&gt;1_0 -->
<!-- s2_league4_game2_10_stac_1493133578 -->
<g id="node3" class="node">
<title>s2_league4_game2_10_stac_1493133578</title>
<g id="a_node3"><a xlink:title="2 &#160;Shawnus &#160;want..clay?">
<ellipse fill="black" stroke="black" cx="20" cy="-419.5" rx="3.5" ry="3.5"/>
</a>
</g>
</g>
<!-- s2_league4_game2_10_stac_1493133575&#45;&gt;s2_league4_game2_10_stac_1493133578 -->
<g id="edge21" class="edge">
<title>s2_league4_game2_10_stac_1493133575&#45;&gt;s2_league4_game2_10_stac_1493133578</title>
<g id="a_edge21"><a xlink:title="ParallNarrContinuationbackground">
<path fill="none" stroke="#0ab046" d="M20,-440.68C20,-437.58 20,-432.47 20,-428.16"/>
<polygon fill="#0ab046" stroke="#0ab046" points="21.75,-428.06 20,-423.06 18.25,-428.06 21.75,-428.06"/>
</a>
</g>
</g>
<!-- 2_0 -->
<!-- s2_league4_game2_10_stac_1493133578&#45;&gt;2_0 -->
<!-- s2_league4_game2_10_stac_1399316562 -->
<g id="node5" class="node">
<title>s2_league4_game2_10_stac_1399316562</title>
<g id="a_node5"><a xlink:title="3 &#160;ztime &#160;you odo?">
<ellipse fill="black" stroke="black" cx="20" cy="-394.5" rx="3.5" ry="3.5"/>
</a>
</g>
</g>
<!-- s2_league4_game2_10_stac_1493133578&#45;&gt;s2_league4_game2_10_stac_1399316562 -->
<g id="edge22" class="edge">
<title>s2_league4_game2_10_stac_1493133578&#45;&gt;s2_league4_game2_10_stac_1399316562</title>
<g id="a_edge22"><a xlink:title="Clarification_question">
<path fill="none" stroke="#ff40d1" d="M20,-415.68C20,-412.58 20,-407.47 20,-403.16"/>
<polygon fill="#ff40d1" stroke="#ff40d1" points="21.75,-403.06 20,-398.06 18.25,-403.06 21.75,-403.06"/>
</a>
</g>
</g>
<!-- 3_0 -->
<!-- s2_league4_game2_10_stac_1399316562&#45;&gt;3_0 -->
<!-- s2_league4_game2_10_stac_1399316565 -->
<g id="node31" class="node">
<title>s2_league4_game2_10_stac_1399316565</title>
<g id="a_node31"><a xlink:title="4 &#160;ztime &#160;yer..">
<ellipse fill="black" stroke="black" cx="20" cy="-369.5" rx="3.5" ry="3.5"/>
</a>
</g>
</g>
<!-- s2_league4_game2_10_stac_1399316562&#45;&gt;s2_league4_game2_10_stac_1399316565 -->
<g id="edge23" class="edge">
<title>s2_league4_game2_10_stac_1399316562&#45;&gt;s2_league4_game2_10_stac_1399316565</title>
<g id="a_edge23"><a xlink:title="Elaboration">
<path fill="none" stroke="#a621c7" d="M20,-390.68C20,-387.58 20,-382.47 20,-378.16"/>
<polygon fill="#a621c7" stroke="#a621c7" points="21.75,-378.06 20,-373.06 18.25,-378.06 21.75,-378.06"/>
</a>
</g>
</g>
<!-- s2_league4_game2_10_stac_1399316569 -->
<g id="node7" class="node">
<title>s2_league4_game2_10_stac_1399316569</title>
<g id="a_node7"><a xlink:title="5 &#160;ztime &#160;can give wheat">
<ellipse fill="black" stroke="black" cx="20" cy="-344.5" rx="3.5" ry="3.5"/>
</a>
</g>
</g>
<!-- 5_0 -->
<!-- s2_league4_game2_10_stac_1399316569&#45;&gt;5_0 -->
<!-- s2_league4_game2_10_stac_1399316572 -->
<g id="node9" class="node">
<title>s2_league4_game2_10_stac_1399316572</title>
<g id="a_node9"><a xlink:title="6 &#160;Shawnus &#160;k">
<ellipse fill="black" stroke="black" cx="30" cy="-319.5" rx="3.5" ry="3.5"/>
</a>
</g>
</g>
<!-- s2_league4_game2_10_stac_1399316569&#45;&gt;s2_league4_game2_10_stac_1399316572 -->
<!-- 6_0 -->
<!-- s2_league4_game2_10_stac_1399316572&#45;&gt;6_0 -->
<!-- s2_league4_game2_10_stac_1399316575 -->
<g id="node11" class="node">
<title>s2_league4_game2_10_stac_1399316575</title>
<g id="a_node11"><a xlink:title="7 &#160;Shawnus &#160;this might be where i lose my road card a?">
<ellipse fill="black" stroke="black" cx="30" cy="-294.5" rx="3.5" ry="3.5"/>
</a>
</g>
</g>
<!-- s2_league4_game2_10_stac_1399316572&#45;&gt;s2_league4_game2_10_stac_1399316575 -->
<g id="edge27" class="edge">
<title>s2_league4_game2_10_stac_1399316572&#45;&gt;s2_league4_game2_10_stac_1399316575</title>
<g id="a_edge27"><a xlink:title="ParallNarrContinuationbackground">
<path fill="none" stroke="#0ab046" d="M30,-315.68C30,-312.58 30,-307.47 30,-303.16"/>
<polygon fill="#0ab046" stroke="#0ab046" points="31.75,-303.06 30,-298.06 28.25,-303.06 31.75,-303.06"/>
</a>
</g>
</g>
<!-- 7_0 -->
<!-- s2_league4_game2_10_stac_1399316575&#45;&gt;7_0 -->
<!-- s2_league4_game2_10_stac_1399316578 -->
<g id="node33" class="node">
<title>s2_league4_game2_10_stac_1399316578</title>
<g id="a_node33"><a xlink:title="8 &#160;ztime &#160;er..">
<ellipse fill="black" stroke="black" cx="30" cy="-269.5" rx="3.5" ry="3.5"/>
</a>
</g>
</g>
<!-- s2_league4_game2_10_stac_1399316575&#45;&gt;s2_league4_game2_10_stac_1399316578 -->
<g id="edge28" class="edge">
<title>s2_league4_game2_10_stac_1399316575&#45;&gt;s2_league4_game2_10_stac_1399316578</title>
<g id="a_edge28"><a xlink:title="Question_answer_pair">
<path fill="none" stroke="#12ffff" d="M30,-290.68C30,-287.58 30,-282.47 30,-278.16"/>
<polygon fill="#12ffff" stroke="#12ffff" points="31.75,-278.06 30,-273.06 28.25,-278.06 31.75,-278.06"/>
</a>
</g>
</g>
<!-- s2_league4_game2_10_stac_1399316582 -->
<g id="node13" class="node">
<title>s2_league4_game2_10_stac_1399316582</title>
<g id="a_node13"><a xlink:title="9 &#160;ztime &#160;did you want wheat?">
<ellipse fill="black" stroke="black" cx="30" cy="-244.5" rx="3.5" ry="3.5"/>
</a>
</g>
</g>
<!-- 9_0 -->
<!-- s2_league4_game2_10_stac_1399316582&#45;&gt;9_0 -->
<!-- s2_league4_game2_10_stac_1399316585 -->
<g id="node15" class="node">
<title>s2_league4_game2_10_stac_1399316585</title>
<g id="a_node15"><a xlink:title="10 &#160;Shawnus &#160;yes">
<ellipse fill="black" stroke="black" cx="20" cy="-219.5" rx="3.5" ry="3.5"/>
</a>
</g>
</g>
<!-- s2_league4_game2_10_stac_1399316582&#45;&gt;s2_league4_game2_10_stac_1399316585 -->
<g id="edge31" class="edge">
<title>s2_league4_game2_10_stac_1399316582&#45;&gt;s2_league4_game2_10_stac_1399316585</title>
<g id="a_edge31"><a xlink:title="Question_answer_pair">
<path fill="none" stroke="#12ffff" d="M28.93,-241.04C27.54,-237.84 25.05,-232.12 23.06,-227.53"/>
<polygon fill="#12ffff" stroke="#12ffff" points="24.63,-226.76 21.03,-222.87 21.42,-228.16 24.63,-226.76"/>
</a>
</g>
</g>
<!-- s2_league4_game2_10_stac_1399316594 -->
<g id="node21" class="node">
<title>s2_league4_game2_10_stac_1399316594</title>
<g id="a_node21"><a xlink:title="13 &#160;somdechn &#160;We all want wheat man">
<ellipse fill="black" stroke="black" cx="30" cy="-144.5" rx="3.5" ry="3.5"/>
</a>
</g>
</g>
<!-- s2_league4_game2_10_stac_1399316582&#45;&gt;s2_league4_game2_10_stac_1399316594 -->
<g id="edge34" class="edge">
<title>s2_league4_game2_10_stac_1399316582&#45;&gt;s2_league4_game2_10_stac_1399316594</title>
<g id="a_edge34"><a xlink:title="Question_answer_pair">
<path fill="none" stroke="#12ffff" d="M33.01,-242.39C39.08,-239.95 52.66,-233.53 58,-223 69.46,-200.41 69.46,-188.59 58,-166 53.83,-157.77 44.63,-152.05 37.91,-148.78"/>
<polygon fill="#12ffff" stroke="#12ffff" points="38.29,-147.04 33.01,-146.61 36.88,-150.24 38.29,-147.04"/>
</a>
</g>
</g>
<!-- 10_0 -->
<!-- s2_league4_game2_10_stac_1399316585&#45;&gt;10_0 -->
<!-- s2_league4_game2_10_stac_1399316588 -->
<g id="node17" class="node">
<title>s2_league4_game2_10_stac_1399316588</title>
<g id="a_node17"><a xlink:title="11 &#160;Shawnus &#160;for clay">
<ellipse fill="black" stroke="black" cx="20" cy="-194.5" rx="3.5" ry="3.5"/>
</a>
</g>
</g>
<!-- s2_league4_game2_10_stac_1399316585&#45;&gt;s2_league4_game2_10_stac_1399316588 -->
<g id="edge32" class="edge">
<title>s2_league4_game2_10_stac_1399316585&#45;&gt;s2_league4_game2_10_stac_1399316588</title>
<g id="a_edge32"><a xlink:title="Elaboration">
<path fill="none" stroke="#a621c7" d="M20,-215.68C20,-212.58 20,-207.47 20,-203.16"/>
<polygon fill="#a621c7" stroke="#a621c7" points="21.75,-203.06 20,-198.06 18.25,-203.06 21.75,-203.06"/>
</a>
</g>
</g>
<!-- 11_0 -->
<!-- s2_league4_game2_10_stac_1399316588&#45;&gt;11_0 -->
<!-- s2_league4_game2_10_stac_1399316591 -->
<g id="node19" class="node">
<title>s2_league4_game2_10_stac_1399316591</title>
<g id="a_node19"><a xlink:title="12 &#160;ztime &#160;it said you wanted clay...">
<ellipse fill="black" stroke="black" cx="20" cy="-169.5" rx="3.5" ry="3.5"/>
</a>
</g>
</g>
<!-- s2_league4_game2_10_stac_1399316588&#45;&gt;s2_league4_game2_10_stac_1399316591 -->
<g id="edge33" class="edge">
<title>s2_league4_game2_10_stac_1399316588&#45;&gt;s2_league4_game2_10_stac_1399316591</title>
<g id="a_edge33"><a xlink:title="Comment">
<path fill="none" stroke="#ff8200" d="M20,-190.68C20,-187.58 20,-182.47 20,-178.16"/>
<polygon fill="#ff8200" stroke="#ff8200" points="21.75,-178.06 20,-173.06 18.25,-178.06 21.75,-178.06"/>
</a>
</g>
</g>
<!-- 12_0 -->
<!-- s2_league4_game2_10_stac_1399316591&#45;&gt;12_0 -->
<!-- s2_league4_game2_10_stac_1399316591&#45;&gt;s2_league4_game2_10_stac_1399316594 -->
<!-- 13_0 -->
<!-- s2_league4_game2_10_stac_1399316594&#45;&gt;13_0 -->
<!-- s2_league4_game2_10_stac_1399316597 -->
<g id="node23" class="node">
<title>s2_league4_game2_10_stac_1399316597</title>
<g id="a_node23"><a xlink:title="14 &#160;somdechn &#160;and clay...">
<ellipse fill="black" stroke="black" cx="20" cy="-119.5" rx="3.5" ry="3.5"/>
</a>
</g>
</g>
<!-- s2_league4_game2_10_stac_1399316594&#45;&gt;s2_league4_game2_10_stac_1399316597 -->
<g id="edge35" class="edge">
<title>s2_league4_game2_10_stac_1399316594&#45;&gt;s2_league4_game2_10_stac_1399316597</title>
<g id="a_edge35"><a xlink:title="ParallNarrContinuationbackground">
<path fill="none" stroke="#0ab046" d="M28.93,-141.04C27.54,-137.84 25.05,-132.12 23.06,-127.53"/>
<polygon fill="#0ab046" stroke="#0ab046" points="24.63,-126.76 21.03,-122.87 21.42,-128.16 24.63,-126.76"/>
</a>
</g>
</g>
<!-- s2_league4_game2_10_stac_1399316600 -->
<g id="node35" class="node">
<title>s2_league4_game2_10_stac_1399316600</title>
<g id="a_node35"><a xlink:title="15 &#160;ztime &#160;ok">
<ellipse fill="black" stroke="black" cx="20" cy="-94.5" rx="3.5" ry="3.5"/>
</a>
</g>
</g>
<!-- s2_league4_game2_10_stac_1399316594&#45;&gt;s2_league4_game2_10_stac_1399316600 -->
<g id="edge36" class="edge">
<title>s2_league4_game2_10_stac_1399316594&#45;&gt;s2_league4_game2_10_stac_1399316600</title>
<g id="a_edge36"><a xlink:title="Acknowledgement">
<path fill="none" stroke="#12ffff" d="M32.85,-142.44C41.34,-139.12 65.4,-128.4 58,-116 51.64,-105.34 37.6,-99.89 28.49,-97.37"/>
<polygon fill="#12ffff" stroke="#12ffff" points="28.83,-95.66 23.56,-96.17 28,-99.06 28.83,-95.66"/>
</a>
</g>
</g>
<!-- 14_0 -->
<!-- s2_league4_game2_10_stac_1399316597&#45;&gt;14_0 -->
<!-- s2_league4_game2_10_stac_1399316597&#45;&gt;s2_league4_game2_10_stac_1399316600 -->
<!-- s2_league4_game2_10_stac_1399316604 -->
<g id="node25" class="node">
<title>s2_league4_game2_10_stac_1399316604</title>
<g id="a_node25"><a xlink:title="16 &#160;Shawnus &#160;haha">
<ellipse fill="black" stroke="black" cx="30" cy="-69.5" rx="3.5" ry="3.5"/>
</a>
</g>
</g>
<!-- 16_0 -->
<!-- s2_league4_game2_10_stac_1399316604&#45;&gt;16_0 -->
<!-- s2_league4_game2_10_stac_1399316607 -->
<g id="node27" class="node">
<title>s2_league4_game2_10_stac_1399316607</title>
<g id="a_node27"><a xlink:title="17 &#160;Shawnus &#160;thanks">
<ellipse fill="black" stroke="black" cx="30" cy="-44.5" rx="3.5" ry="3.5"/>
</a>
</g>
</g>
<!-- s2_league4_game2_10_stac_1399316604&#45;&gt;s2_league4_game2_10_stac_1399316607 -->
<g id="edge39" class="edge">
<title>s2_league4_game2_10_stac_1399316604&#45;&gt;s2_league4_game2_10_stac_1399316607</title>
<g id="a_edge39"><a xlink:title="Comment">
<path fill="none" stroke="#ff8200" d="M30,-65.68C30,-62.58 30,-57.47 30,-53.16"/>
<polygon fill="#ff8200" stroke="#ff8200" points="31.75,-53.06 30,-48.06 28.25,-53.06 31.75,-53.06"/>
</a>
</g>
</g>
<!-- 17_0 -->
<!-- s2_league4_game2_10_stac_1399316607&#45;&gt;17_0 -->
<!-- s2_league4_game2_10_stac_1399316610 -->
<g id="node29" class="node">
<title>s2_league4_game2_10_stac_1399316610</title>
<g id="a_node29"><a xlink:title="18 &#160;somdechn &#160;That happens in the real game as well.">
<ellipse fill="black" stroke="black" cx="30" cy="-19.5" rx="3.5" ry="3.5"/>
</a>
</g>
</g>
<!-- s2_league4_game2_10_stac_1399316607&#45;&gt;s2_league4_game2_10_stac_1399316610 -->
<g id="edge40" class="edge">
<title>s2_league4_game2_10_stac_1399316607&#45;&gt;s2_league4_game2_10_stac_1399316610</title>
<g id="a_edge40"><a xlink:title="ParallNarrContinuationbackground">
<path fill="none" stroke="#0ab046" d="M30,-40.68C30,-37.58 30,-32.47 30,-28.16"/>
<polygon fill="#0ab046" stroke="#0ab046" points="31.75,-28.06 30,-23.06 28.25,-28.06 31.75,-28.06"/>
</a>
</g>
</g>
<!-- 18_0 -->
<!-- s2_league4_game2_10_stac_1399316610&#45;&gt;18_0 -->
<!-- s2_league4_game2_10_stac_1399316565&#45;&gt;s2_league4_game2_10_stac_1399316569 -->
<!-- s2_league4_game2_10_stac_1399316566 -->
<g id="node32" class="node">
<title>s2_league4_game2_10_stac_1399316566</title>
<g id="a_node32"><a xlink:title="4 &#160;ztime &#160;I need clay..">
<ellipse fill="black" stroke="black" cx="45" cy="-369.5" rx="3.5" ry="3.5"/>
</a>
</g>
</g>
<!-- s2_league4_game2_10_stac_1399316565&#45;&gt;s2_league4_game2_10_stac_1399316566 -->
<g id="edge24" class="edge">
<title>s2_league4_game2_10_stac_1399316565&#45;&gt;s2_league4_game2_10_stac_1399316566</title>
<g id="a_edge24"><a xlink:title="Elaboration">
<path fill="none" stroke="#a621c7" d="M23.52,-369.5C27.78,-369.5 32.04,-369.5 36.3,-369.5"/>
<polygon fill="#a621c7" stroke="#a621c7" points="36.31,-371.25 41.31,-369.5 36.31,-367.75 36.31,-371.25"/>
</a>
</g>
</g>
<!-- s2_league4_game2_10_stac_1399316566&#45;&gt;s2_league4_game2_10_stac_1399316569 -->
<g id="edge25" class="edge">
<title>s2_league4_game2_10_stac_1399316566&#45;&gt;s2_league4_game2_10_stac_1399316569</title>
<g id="a_edge25"><a xlink:title="Elaboration">
<path fill="none" stroke="#a621c7" d="M42.69,-366.38C38.92,-362.9 31.3,-355.89 25.93,-350.96"/>
<polygon fill="#a621c7" stroke="#a621c7" points="26.95,-349.52 22.09,-347.42 24.58,-352.09 26.95,-349.52"/>
</a>
</g>
</g>
<!-- s2_league4_game2_10_stac_1399316566&#45;&gt;s2_league4_game2_10_stac_1399316572 -->
<g id="edge26" class="edge">
<title>s2_league4_game2_10_stac_1399316566&#45;&gt;s2_league4_game2_10_stac_1399316572</title>
<g id="a_edge26"><a xlink:title="Acknowledgement">
<path fill="none" stroke="#12ffff" d="M47.28,-366.48C52.16,-361.91 62.78,-350.42 58,-341 53.83,-332.77 44.63,-327.05 37.91,-323.78"/>
<polygon fill="#12ffff" stroke="#12ffff" points="38.29,-322.04 33.01,-321.61 36.88,-325.24 38.29,-322.04"/>
</a>
</g>
</g>
<!-- s2_league4_game2_10_stac_1399316578&#45;&gt;s2_league4_game2_10_stac_1399316582 -->
<g id="edge30" class="edge">
<title>s2_league4_game2_10_stac_1399316578&#45;&gt;s2_league4_game2_10_stac_1399316582</title>
<g id="a_edge30"><a xlink:title="ParallNarrContinuationbackground">
<path fill="none" stroke="#0ab046" d="M30,-265.68C30,-262.58 30,-257.47 30,-253.16"/>
<polygon fill="#0ab046" stroke="#0ab046" points="31.75,-253.06 30,-248.06 28.25,-253.06 31.75,-253.06"/>
</a>
</g>
</g>
<!-- s2_league4_game2_10_stac_1399316579 -->
<g id="node34" class="node">
<title>s2_league4_game2_10_stac_1399316579</title>
<g id="a_node34"><a xlink:title="8 &#160;ztime &#160;I think the trade is wrong?">
<ellipse fill="black" stroke="black" cx="55" cy="-269.5" rx="3.5" ry="3.5"/>
</a>
</g>
</g>
<!-- s2_league4_game2_10_stac_1399316578&#45;&gt;s2_league4_game2_10_stac_1399316579 -->
<g id="edge29" class="edge">
<title>s2_league4_game2_10_stac_1399316578&#45;&gt;s2_league4_game2_10_stac_1399316579</title>
<g id="a_edge29"><a xlink:title="ParallNarrContinuationbackground">
<path fill="none" stroke="#0ab046" d="M33.52,-269.5C37.78,-269.5 42.04,-269.5 46.3,-269.5"/>
<polygon fill="#0ab046" stroke="#0ab046" points="46.31,-271.25 51.31,-269.5 46.31,-267.75 46.31,-271.25"/>
</a>
</g>
</g>
<!-- s2_league4_game2_10_stac_1399316600&#45;&gt;s2_league4_game2_10_stac_1399316604 -->
<!-- s2_league4_game2_10_stac_1399316601 -->
<g id="node36" class="node">
<title>s2_league4_game2_10_stac_1399316601</title>
<g id="a_node36"><a xlink:title="15 &#160;ztime &#160;thanks..">
<ellipse fill="black" stroke="black" cx="45" cy="-94.5" rx="3.5" ry="3.5"/>
</a>
</g>
</g>
<!-- s2_league4_game2_10_stac_1399316600&#45;&gt;s2_league4_game2_10_stac_1399316601 -->
<g id="edge37" class="edge">
<title>s2_league4_game2_10_stac_1399316600&#45;&gt;s2_league4_game2_10_stac_1399316601</title>
<g id="a_edge37"><a xlink:title="Comment">
<path fill="none" stroke="#ff8200" d="M23.52,-94.5C27.78,-94.5 32.04,-94.5 36.3,-94.5"/>
<polygon fill="#ff8200" stroke="#ff8200" points="36.31,-96.25 41.31,-94.5 36.31,-92.75 36.31,-96.25"/>
</a>
</g>
</g>
<!-- s2_league4_game2_10_stac_1399316601&#45;&gt;s2_league4_game2_10_stac_1399316604 -->
<g id="edge38" class="edge">
<title>s2_league4_game2_10_stac_1399316601&#45;&gt;s2_league4_game2_10_stac_1399316604</title>
<g id="a_edge38"><a xlink:title="Comment">
<path fill="none" stroke="#ff8200" d="M43.39,-91.04C41.26,-87.77 37.42,-81.87 34.39,-77.23"/>
<polygon fill="#ff8200" stroke="#ff8200" points="35.75,-76.11 31.55,-72.87 32.81,-78.02 35.75,-76.11"/>
</a>
</g>
</g>
</g>
</svg>
