<?xml version="1.0" encoding="UTF-8" standalone="no"?>
<!DOCTYPE svg PUBLIC "-//W3C//DTD SVG 1.1//EN"
 "http://www.w3.org/Graphics/SVG/1.1/DTD/svg11.dtd">
<!-- Generated by graphviz version 3.0.0 (20220226.1711)
 -->
<!-- Title: 1_s2_league4_game2_750 Pages: 1 -->
<svg width="94pt" height="895pt"
 viewBox="0.00 0.00 94.00 895.00" xmlns="http://www.w3.org/2000/svg" xmlns:xlink="http://www.w3.org/1999/xlink">
<g id="graph0" class="graph" transform="scale(1 1) rotate(0) translate(4 891)">
<title>1_s2_league4_game2_750</title>
<polygon fill="white" stroke="transparent" points="-4,4 -4,-891 90,-891 90,4 -4,4"/>
<g id="clust1" class="cluster">
<title>cluster_1_s2_league4_game2_750</title>
<polygon fill="none" stroke="black" points="8,-8 8,-879 78,-879 78,-8 8,-8"/>
<text text-anchor="middle" x="26.5" y="-863.8" font-family="Times,serif" font-size="14.00">750</text>
</g>
<!-- s2_league4_game2_01_stac_1463481758 -->
<g id="node1" class="node">
<title>s2_league4_game2_01_stac_1463481758</title>
<g id="a_node1"><a xlink:title="1 &#160;ztime &#160;morning...">
<ellipse fill="black" stroke="black" cx="30" cy="-844.5" rx="3.5" ry="3.5"/>
</a>
</g>
</g>
<!-- 1_0 -->
<!-- s2_league4_game2_01_stac_1463481758&#45;&gt;1_0 -->
<!-- s2_league4_game2_01_stac_1399316472 -->
<g id="node3" class="node">
<title>s2_league4_game2_01_stac_1399316472</title>
<g id="a_node3"><a xlink:title="2 &#160;Shawnus &#160;hey">
<ellipse fill="black" stroke="black" cx="20" cy="-819.5" rx="3.5" ry="3.5"/>
</a>
</g>
</g>
<!-- s2_league4_game2_01_stac_1463481758&#45;&gt;s2_league4_game2_01_stac_1399316472 -->
<g id="edge41" class="edge">
<title>s2_league4_game2_01_stac_1463481758&#45;&gt;s2_league4_game2_01_stac_1399316472</title>
<g id="a_edge41"><a xlink:title="Acknowledgement">
<path fill="none" stroke="#12ffff" d="M28.93,-841.04C27.54,-837.84 25.05,-832.12 23.06,-827.53"/>
<polygon fill="#12ffff" stroke="#12ffff" points="24.63,-826.76 21.03,-822.87 21.42,-828.16 24.63,-826.76"/>
</a>
</g>
</g>
<!-- s2_league4_game2_01_stac_1399316475 -->
<g id="node5" class="node">
<title>s2_league4_game2_01_stac_1399316475</title>
<g id="a_node5"><a xlink:title="3 &#160;Shawnus &#160;good morning">
<ellipse fill="black" stroke="black" cx="30" cy="-794.5" rx="3.5" ry="3.5"/>
</a>
</g>
</g>
<!-- s2_league4_game2_01_stac_1463481758&#45;&gt;s2_league4_game2_01_stac_1399316475 -->
<g id="edge42" class="edge">
<title>s2_league4_game2_01_stac_1463481758&#45;&gt;s2_league4_game2_01_stac_1399316475</title>
<g id="a_edge42"><a xlink:title="Acknowledgement">
<path fill="none" stroke="#12ffff" d="M30.59,-840.93C31.65,-836.07 33.67,-825.2 33,-816 32.69,-811.76 32.03,-807.07 31.4,-803.25"/>
<polygon fill="#12ffff" stroke="#12ffff" points="33.1,-802.76 30.51,-798.14 29.65,-803.37 33.1,-802.76"/>
</a>
</g>
</g>
<!-- 2_0 -->
<!-- s2_league4_game2_01_stac_1399316472&#45;&gt;2_0 -->
<!-- s2_league4_game2_01_stac_1399316472&#45;&gt;s2_league4_game2_01_stac_1399316475 -->
<g id="edge43" class="edge">
<title>s2_league4_game2_01_stac_1399316472&#45;&gt;s2_league4_game2_01_stac_1399316475</title>
<g id="a_edge43"><a xlink:title="Comment">
<path fill="none" stroke="#ff8200" d="M21.07,-816.04C22.46,-812.84 24.95,-807.12 26.94,-802.53"/>
<polygon fill="#ff8200" stroke="#ff8200" points="28.58,-803.16 28.97,-797.87 25.37,-801.76 28.58,-803.16"/>
</a>
</g>
</g>
<!-- 3_0 -->
<!-- s2_league4_game2_01_stac_1399316475&#45;&gt;3_0 -->
<!-- s2_league4_game2_01_stac_1399316478 -->
<g id="node7" class="node">
<title>s2_league4_game2_01_stac_1399316478</title>
<g id="a_node7"><a xlink:title="4 &#160;ztime &#160;which part of the country are you in?">
<ellipse fill="black" stroke="black" cx="30" cy="-769.5" rx="3.5" ry="3.5"/>
</a>
</g>
</g>
<!-- s2_league4_game2_01_stac_1399316475&#45;&gt;s2_league4_game2_01_stac_1399316478 -->
<g id="edge44" class="edge">
<title>s2_league4_game2_01_stac_1399316475&#45;&gt;s2_league4_game2_01_stac_1399316478</title>
<g id="a_edge44"><a xlink:title="Clarification_question">
<path fill="none" stroke="#ff40d1" d="M30,-790.68C30,-787.58 30,-782.47 30,-778.16"/>
<polygon fill="#ff40d1" stroke="#ff40d1" points="31.75,-778.06 30,-773.06 28.25,-778.06 31.75,-778.06"/>
</a>
</g>
</g>
<!-- 4_0 -->
<!-- s2_league4_game2_01_stac_1399316478&#45;&gt;4_0 -->
<!-- s2_league4_game2_01_stac_1399316481 -->
<g id="node9" class="node">
<title>s2_league4_game2_01_stac_1399316481</title>
<g id="a_node9"><a xlink:title="5 &#160;somdechn &#160;NZ bro...">
<ellipse fill="black" stroke="black" cx="20" cy="-744.5" rx="3.5" ry="3.5"/>
</a>
</g>
</g>
<!-- s2_league4_game2_01_stac_1399316478&#45;&gt;s2_league4_game2_01_stac_1399316481 -->
<g id="edge45" class="edge">
<title>s2_league4_game2_01_stac_1399316478&#45;&gt;s2_league4_game2_01_stac_1399316481</title>
<g id="a_edge45"><a xlink:title="Question_answer_pair">
<path fill="none" stroke="#12ffff" d="M28.93,-766.04C27.54,-762.84 25.05,-757.12 23.06,-752.53"/>
<polygon fill="#12ffff" stroke="#12ffff" points="24.63,-751.76 21.03,-747.87 21.42,-753.16 24.63,-751.76"/>
</a>
</g>
</g>
<!-- s2_league4_game2_01_stac_1399316484 -->
<g id="node11" class="node">
<title>s2_league4_game2_01_stac_1399316484</title>
<g id="a_node11"><a xlink:title="6 &#160;Shawnus &#160;London">
<ellipse fill="black" stroke="black" cx="41" cy="-719.5" rx="3.5" ry="3.5"/>
</a>
</g>
</g>
<!-- s2_league4_game2_01_stac_1399316478&#45;&gt;s2_league4_game2_01_stac_1399316484 -->
<g id="edge46" class="edge">
<title>s2_league4_game2_01_stac_1399316478&#45;&gt;s2_league4_game2_01_stac_1399316484</title>
<g id="a_edge46"><a xlink:title="Question_answer_pair">
<path fill="none" stroke="#12ffff" d="M30.59,-765.92C32.19,-758.95 36.64,-739.55 39.17,-728.49"/>
<polygon fill="#12ffff" stroke="#12ffff" points="40.94,-728.6 40.35,-723.33 37.53,-727.81 40.94,-728.6"/>
</a>
</g>
</g>
<!-- 5_0 -->
<!-- s2_league4_game2_01_stac_1399316481&#45;&gt;5_0 -->
<!-- s2_league4_game2_01_stac_1399316481&#45;&gt;s2_league4_game2_01_stac_1399316484 -->
<!-- s2_league4_game2_01_stac_1399316487 -->
<g id="node13" class="node">
<title>s2_league4_game2_01_stac_1399316487</title>
<g id="a_node13"><a xlink:title="7 &#160;ztime &#160;Edinburgh">
<ellipse fill="black" stroke="black" cx="30" cy="-694.5" rx="3.5" ry="3.5"/>
</a>
</g>
</g>
<!-- s2_league4_game2_01_stac_1399316481&#45;&gt;s2_league4_game2_01_stac_1399316487 -->
<g id="edge47" class="edge">
<title>s2_league4_game2_01_stac_1399316481&#45;&gt;s2_league4_game2_01_stac_1399316487</title>
<g id="a_edge47"><a xlink:title="Acknowledgement">
<path fill="none" stroke="#12ffff" d="M20.54,-740.92C21.99,-733.95 26.03,-714.55 28.34,-703.49"/>
<polygon fill="#12ffff" stroke="#12ffff" points="30.1,-703.58 29.41,-698.33 26.68,-702.87 30.1,-703.58"/>
</a>
</g>
</g>
<!-- 6_0 -->
<!-- s2_league4_game2_01_stac_1399316484&#45;&gt;6_0 -->
<!-- s2_league4_game2_01_stac_1399316484&#45;&gt;s2_league4_game2_01_stac_1399316487 -->
<!-- 7_0 -->
<!-- s2_league4_game2_01_stac_1399316487&#45;&gt;7_0 -->
<!-- s2_league4_game2_01_stac_1399316490 -->
<g id="node15" class="node">
<title>s2_league4_game2_01_stac_1399316490</title>
<g id="a_node15"><a xlink:title="8 &#160;Shawnus &#160;lovely place">
<ellipse fill="black" stroke="black" cx="30" cy="-669.5" rx="3.5" ry="3.5"/>
</a>
</g>
</g>
<!-- s2_league4_game2_01_stac_1399316487&#45;&gt;s2_league4_game2_01_stac_1399316490 -->
<g id="edge48" class="edge">
<title>s2_league4_game2_01_stac_1399316487&#45;&gt;s2_league4_game2_01_stac_1399316490</title>
<g id="a_edge48"><a xlink:title="Comment">
<path fill="none" stroke="#ff8200" d="M30,-690.68C30,-687.58 30,-682.47 30,-678.16"/>
<polygon fill="#ff8200" stroke="#ff8200" points="31.75,-678.06 30,-673.06 28.25,-678.06 31.75,-678.06"/>
</a>
</g>
</g>
<!-- 8_0 -->
<!-- s2_league4_game2_01_stac_1399316490&#45;&gt;8_0 -->
<!-- s2_league4_game2_01_stac_1399316493 -->
<g id="node17" class="node">
<title>s2_league4_game2_01_stac_1399316493</title>
<g id="a_node17"><a xlink:title="9 &#160;ztime &#160;Welcome NZ">
<ellipse fill="black" stroke="black" cx="30" cy="-644.5" rx="3.5" ry="3.5"/>
</a>
</g>
</g>
<!-- s2_league4_game2_01_stac_1399316490&#45;&gt;s2_league4_game2_01_stac_1399316493 -->
<g id="edge49" class="edge">
<title>s2_league4_game2_01_stac_1399316490&#45;&gt;s2_league4_game2_01_stac_1399316493</title>
<g id="a_edge49"><a xlink:title="Acknowledgement">
<path fill="none" stroke="#12ffff" d="M30,-665.68C30,-662.58 30,-657.47 30,-653.16"/>
<polygon fill="#12ffff" stroke="#12ffff" points="31.75,-653.06 30,-648.06 28.25,-653.06 31.75,-653.06"/>
</a>
</g>
</g>
<!-- 9_0 -->
<!-- s2_league4_game2_01_stac_1399316493&#45;&gt;9_0 -->
<!-- s2_league4_game2_01_stac_1399316496 -->
<g id="node19" class="node">
<title>s2_league4_game2_01_stac_1399316496</title>
<g id="a_node19"><a xlink:title="10 &#160;Shawnus &#160;hello NZ">
<ellipse fill="black" stroke="black" cx="20" cy="-619.5" rx="3.5" ry="3.5"/>
</a>
</g>
</g>
<!-- s2_league4_game2_01_stac_1399316493&#45;&gt;s2_league4_game2_01_stac_1399316496 -->
<g id="edge50" class="edge">
<title>s2_league4_game2_01_stac_1399316493&#45;&gt;s2_league4_game2_01_stac_1399316496</title>
<g id="a_edge50"><a xlink:title="Acknowledgement">
<path fill="none" stroke="#12ffff" d="M28.93,-641.04C27.54,-637.84 25.05,-632.12 23.06,-627.53"/>
<polygon fill="#12ffff" stroke="#12ffff" points="24.63,-626.76 21.03,-622.87 21.42,-628.16 24.63,-626.76"/>
</a>
</g>
</g>
<!-- s2_league4_game2_01_stac_1399316506 -->
<g id="node23" class="node">
<title>s2_league4_game2_01_stac_1399316506</title>
<g id="a_node23"><a xlink:title="13 &#160;Shawnus &#160;I did the marathon there this year (scotland, not NZ)">
<ellipse fill="black" stroke="black" cx="30" cy="-544.5" rx="3.5" ry="3.5"/>
</a>
</g>
</g>
<!-- s2_league4_game2_01_stac_1399316493&#45;&gt;s2_league4_game2_01_stac_1399316506 -->
<g id="edge54" class="edge">
<title>s2_league4_game2_01_stac_1399316493&#45;&gt;s2_league4_game2_01_stac_1399316506</title>
<g id="a_edge54"><a xlink:title="Comment">
<path fill="none" stroke="#ff8200" d="M32.03,-641.26C37.55,-635 52.75,-616.56 58,-598 61.87,-584.32 64.43,-578.68 58,-566 53.83,-557.77 44.63,-552.05 37.91,-548.78"/>
<polygon fill="#ff8200" stroke="#ff8200" points="38.29,-547.04 33.01,-546.61 36.88,-550.24 38.29,-547.04"/>
</a>
</g>
</g>
<!-- 10_0 -->
<!-- s2_league4_game2_01_stac_1399316496&#45;&gt;10_0 -->
<!-- s2_league4_game2_01_stac_1399316499 -->
<g id="node21" class="node">
<title>s2_league4_game2_01_stac_1399316499</title>
<g id="a_node21"><a xlink:title="11 &#160;somdechn &#160;Yrahhh &#160;Hi all">
<ellipse fill="black" stroke="black" cx="20" cy="-594.5" rx="3.5" ry="3.5"/>
</a>
</g>
</g>
<!-- s2_league4_game2_01_stac_1399316496&#45;&gt;s2_league4_game2_01_stac_1399316499 -->
<g id="edge51" class="edge">
<title>s2_league4_game2_01_stac_1399316496&#45;&gt;s2_league4_game2_01_stac_1399316499</title>
<g id="a_edge51"><a xlink:title="Acknowledgement">
<path fill="none" stroke="#12ffff" d="M20,-615.68C20,-612.58 20,-607.47 20,-603.16"/>
<polygon fill="#12ffff" stroke="#12ffff" points="21.75,-603.06 20,-598.06 18.25,-603.06 21.75,-603.06"/>
</a>
</g>
</g>
<!-- 11_0 -->
<!-- s2_league4_game2_01_stac_1399316499&#45;&gt;11_0 -->
<!-- s2_league4_game2_01_stac_1399316502 -->
<g id="node65" class="node">
<title>s2_league4_game2_01_stac_1399316502</title>
<g id="a_node65"><a xlink:title="12 &#160;ztime &#160;right..">
<ellipse fill="black" stroke="black" cx="20" cy="-569.5" rx="3.5" ry="3.5"/>
</a>
</g>
</g>
<!-- s2_league4_game2_01_stac_1399316499&#45;&gt;s2_league4_game2_01_stac_1399316502 -->
<g id="edge52" class="edge">
<title>s2_league4_game2_01_stac_1399316499&#45;&gt;s2_league4_game2_01_stac_1399316502</title>
<g id="a_edge52"><a xlink:title="Acknowledgement">
<path fill="none" stroke="#12ffff" d="M20,-590.68C20,-587.58 20,-582.47 20,-578.16"/>
<polygon fill="#12ffff" stroke="#12ffff" points="21.75,-578.06 20,-573.06 18.25,-578.06 21.75,-578.06"/>
</a>
</g>
</g>
<!-- 13_0 -->
<!-- s2_league4_game2_01_stac_1399316506&#45;&gt;13_0 -->
<!-- s2_league4_game2_01_stac_1399316509 -->
<g id="node25" class="node">
<title>s2_league4_game2_01_stac_1399316509</title>
<g id="a_node25"><a xlink:title="14 &#160;ztime &#160;wooo... impressive">
<ellipse fill="black" stroke="black" cx="30" cy="-519.5" rx="3.5" ry="3.5"/>
</a>
</g>
</g>
<!-- s2_league4_game2_01_stac_1399316506&#45;&gt;s2_league4_game2_01_stac_1399316509 -->
<g id="edge55" class="edge">
<title>s2_league4_game2_01_stac_1399316506&#45;&gt;s2_league4_game2_01_stac_1399316509</title>
<g id="a_edge55"><a xlink:title="Comment">
<path fill="none" stroke="#ff8200" d="M30,-540.68C30,-537.58 30,-532.47 30,-528.16"/>
<polygon fill="#ff8200" stroke="#ff8200" points="31.75,-528.06 30,-523.06 28.25,-528.06 31.75,-528.06"/>
</a>
</g>
</g>
<!-- 14_0 -->
<!-- s2_league4_game2_01_stac_1399316509&#45;&gt;14_0 -->
<!-- s2_league4_game2_01_stac_1399316512 -->
<g id="node27" class="node">
<title>s2_league4_game2_01_stac_1399316512</title>
<g id="a_node27"><a xlink:title="15 &#160;Shawnus &#160;penis shaped medal for all...">
<ellipse fill="black" stroke="black" cx="30" cy="-494.5" rx="3.5" ry="3.5"/>
</a>
</g>
</g>
<!-- s2_league4_game2_01_stac_1399316509&#45;&gt;s2_league4_game2_01_stac_1399316512 -->
<g id="edge56" class="edge">
<title>s2_league4_game2_01_stac_1399316509&#45;&gt;s2_league4_game2_01_stac_1399316512</title>
<g id="a_edge56"><a xlink:title="Comment">
<path fill="none" stroke="#ff8200" d="M30,-515.68C30,-512.58 30,-507.47 30,-503.16"/>
<polygon fill="#ff8200" stroke="#ff8200" points="31.75,-503.06 30,-498.06 28.25,-503.06 31.75,-503.06"/>
</a>
</g>
</g>
<!-- 15_0 -->
<!-- s2_league4_game2_01_stac_1399316512&#45;&gt;15_0 -->
<!-- s2_league4_game2_01_stac_1399316515 -->
<g id="node29" class="node">
<title>s2_league4_game2_01_stac_1399316515</title>
<g id="a_node29"><a xlink:title="16 &#160;somdechn &#160;Wow... that;s cool.">
<ellipse fill="black" stroke="black" cx="20" cy="-469.5" rx="3.5" ry="3.5"/>
</a>
</g>
</g>
<!-- s2_league4_game2_01_stac_1399316512&#45;&gt;s2_league4_game2_01_stac_1399316515 -->
<g id="edge57" class="edge">
<title>s2_league4_game2_01_stac_1399316512&#45;&gt;s2_league4_game2_01_stac_1399316515</title>
<g id="a_edge57"><a xlink:title="Comment">
<path fill="none" stroke="#ff8200" d="M28.93,-491.04C27.54,-487.84 25.05,-482.12 23.06,-477.53"/>
<polygon fill="#ff8200" stroke="#ff8200" points="24.63,-476.76 21.03,-472.87 21.42,-478.16 24.63,-476.76"/>
</a>
</g>
</g>
<!-- s2_league4_game2_01_stac_1399316524 -->
<g id="node35" class="node">
<title>s2_league4_game2_01_stac_1399316524</title>
<g id="a_node35"><a xlink:title="19 &#160;ztime &#160;impressive medal?">
<ellipse fill="black" stroke="black" cx="30" cy="-394.5" rx="3.5" ry="3.5"/>
</a>
</g>
</g>
<!-- s2_league4_game2_01_stac_1399316512&#45;&gt;s2_league4_game2_01_stac_1399316524 -->
<g id="edge60" class="edge">
<title>s2_league4_game2_01_stac_1399316512&#45;&gt;s2_league4_game2_01_stac_1399316524</title>
<g id="a_edge60"><a xlink:title="Clarification_question">
<path fill="none" stroke="#ff40d1" d="M32.03,-491.26C37.55,-485 52.75,-466.56 58,-448 61.87,-434.32 64.43,-428.68 58,-416 53.83,-407.77 44.63,-402.05 37.91,-398.78"/>
<polygon fill="#ff40d1" stroke="#ff40d1" points="38.29,-397.04 33.01,-396.61 36.88,-400.24 38.29,-397.04"/>
</a>
</g>
</g>
<!-- 16_0 -->
<!-- s2_league4_game2_01_stac_1399316515&#45;&gt;16_0 -->
<!-- s2_league4_game2_01_stac_1399316518 -->
<g id="node31" class="node">
<title>s2_league4_game2_01_stac_1399316518</title>
<g id="a_node31"><a xlink:title="17 &#160;ztime &#160;err....">
<ellipse fill="black" stroke="black" cx="20" cy="-444.5" rx="3.5" ry="3.5"/>
</a>
</g>
</g>
<!-- s2_league4_game2_01_stac_1399316515&#45;&gt;s2_league4_game2_01_stac_1399316518 -->
<g id="edge58" class="edge">
<title>s2_league4_game2_01_stac_1399316515&#45;&gt;s2_league4_game2_01_stac_1399316518</title>
<g id="a_edge58"><a xlink:title="Comment">
<path fill="none" stroke="#ff8200" d="M20,-465.68C20,-462.58 20,-457.47 20,-453.16"/>
<polygon fill="#ff8200" stroke="#ff8200" points="21.75,-453.06 20,-448.06 18.25,-453.06 21.75,-453.06"/>
</a>
</g>
</g>
<!-- 17_0 -->
<!-- s2_league4_game2_01_stac_1399316518&#45;&gt;17_0 -->
<!-- s2_league4_game2_01_stac_1399316521 -->
<g id="node33" class="node">
<title>s2_league4_game2_01_stac_1399316521</title>
<g id="a_node33"><a xlink:title="18 &#160;Shawnus &#160;indeed,..what i said when they gave it to me">
<ellipse fill="black" stroke="black" cx="20" cy="-419.5" rx="3.5" ry="3.5"/>
</a>
</g>
</g>
<!-- s2_league4_game2_01_stac_1399316518&#45;&gt;s2_league4_game2_01_stac_1399316521 -->
<g id="edge59" class="edge">
<title>s2_league4_game2_01_stac_1399316518&#45;&gt;s2_league4_game2_01_stac_1399316521</title>
<g id="a_edge59"><a xlink:title="Acknowledgement">
<path fill="none" stroke="#12ffff" d="M20,-440.68C20,-437.58 20,-432.47 20,-428.16"/>
<polygon fill="#12ffff" stroke="#12ffff" points="21.75,-428.06 20,-423.06 18.25,-428.06 21.75,-428.06"/>
</a>
</g>
</g>
<!-- 18_0 -->
<!-- s2_league4_game2_01_stac_1399316521&#45;&gt;18_0 -->
<!-- s2_league4_game2_01_stac_1399316521&#45;&gt;s2_league4_game2_01_stac_1399316524 -->
<!-- 19_0 -->
<!-- s2_league4_game2_01_stac_1399316524&#45;&gt;19_0 -->
<!-- s2_league4_game2_01_stac_1399316527 -->
<g id="node37" class="node">
<title>s2_league4_game2_01_stac_1399316527</title>
<g id="a_node37"><a xlink:title="20 &#160;Shawnus &#160;below average proportion but was metal...">
<ellipse fill="black" stroke="black" cx="30" cy="-369.5" rx="3.5" ry="3.5"/>
</a>
</g>
</g>
<!-- s2_league4_game2_01_stac_1399316524&#45;&gt;s2_league4_game2_01_stac_1399316527 -->
<g id="edge61" class="edge">
<title>s2_league4_game2_01_stac_1399316524&#45;&gt;s2_league4_game2_01_stac_1399316527</title>
<g id="a_edge61"><a xlink:title="Question_answer_pair">
<path fill="none" stroke="#12ffff" d="M30,-390.68C30,-387.58 30,-382.47 30,-378.16"/>
<polygon fill="#12ffff" stroke="#12ffff" points="31.75,-378.06 30,-373.06 28.25,-378.06 31.75,-378.06"/>
</a>
</g>
</g>
<!-- 20_0 -->
<!-- s2_league4_game2_01_stac_1399316527&#45;&gt;20_0 -->
<!-- s2_league4_game2_01_stac_1399316530 -->
<g id="node39" class="node">
<title>s2_league4_game2_01_stac_1399316530</title>
<g id="a_node39"><a xlink:title="21 &#160;somdechn &#160;Anyway.........">
<ellipse fill="black" stroke="black" cx="30" cy="-344.5" rx="3.5" ry="3.5"/>
</a>
</g>
</g>
<!-- s2_league4_game2_01_stac_1399316527&#45;&gt;s2_league4_game2_01_stac_1399316530 -->
<g id="edge62" class="edge">
<title>s2_league4_game2_01_stac_1399316527&#45;&gt;s2_league4_game2_01_stac_1399316530</title>
<g id="a_edge62"><a xlink:title="ParallNarrContinuationbackground">
<path fill="none" stroke="#0ab046" d="M30,-365.68C30,-362.58 30,-357.47 30,-353.16"/>
<polygon fill="#0ab046" stroke="#0ab046" points="31.75,-353.06 30,-348.06 28.25,-353.06 31.75,-353.06"/>
</a>
</g>
</g>
<!-- 21_0 -->
<!-- s2_league4_game2_01_stac_1399316530&#45;&gt;21_0 -->
<!-- s2_league4_game2_01_stac_1399316533 -->
<g id="node41" class="node">
<title>s2_league4_game2_01_stac_1399316533</title>
<g id="a_node41"><a xlink:title="22 &#160;ztime &#160;I bet you all looked like a bunch of dicks...">
<ellipse fill="black" stroke="black" cx="30" cy="-319.5" rx="3.5" ry="3.5"/>
</a>
</g>
</g>
<!-- s2_league4_game2_01_stac_1399316530&#45;&gt;s2_league4_game2_01_stac_1399316533 -->
<g id="edge63" class="edge">
<title>s2_league4_game2_01_stac_1399316530&#45;&gt;s2_league4_game2_01_stac_1399316533</title>
<g id="a_edge63"><a xlink:title="Comment">
<path fill="none" stroke="#ff8200" d="M30,-340.68C30,-337.58 30,-332.47 30,-328.16"/>
<polygon fill="#ff8200" stroke="#ff8200" points="31.75,-328.06 30,-323.06 28.25,-328.06 31.75,-328.06"/>
</a>
</g>
</g>
<!-- 22_0 -->
<!-- s2_league4_game2_01_stac_1399316533&#45;&gt;22_0 -->
<!-- s2_league4_game2_01_stac_1399316536 -->
<g id="node43" class="node">
<title>s2_league4_game2_01_stac_1399316536</title>
<g id="a_node43"><a xlink:title="23 &#160;Shawnus &#160;hahaha">
<ellipse fill="black" stroke="black" cx="20" cy="-294.5" rx="3.5" ry="3.5"/>
</a>
</g>
</g>
<!-- s2_league4_game2_01_stac_1399316533&#45;&gt;s2_league4_game2_01_stac_1399316536 -->
<g id="edge64" class="edge">
<title>s2_league4_game2_01_stac_1399316533&#45;&gt;s2_league4_game2_01_stac_1399316536</title>
<g id="a_edge64"><a xlink:title="Comment">
<path fill="none" stroke="#ff8200" d="M28.93,-316.04C27.54,-312.84 25.05,-307.12 23.06,-302.53"/>
<polygon fill="#ff8200" stroke="#ff8200" points="24.63,-301.76 21.03,-297.87 21.42,-303.16 24.63,-301.76"/>
</a>
</g>
</g>
<!-- s2_league4_game2_01_stac_1399316539 -->
<g id="node45" class="node">
<title>s2_league4_game2_01_stac_1399316539</title>
<g id="a_node45"><a xlink:title="24 &#160;ztime &#160;yer.. shall we..">
<ellipse fill="black" stroke="black" cx="30" cy="-269.5" rx="3.5" ry="3.5"/>
</a>
</g>
</g>
<!-- s2_league4_game2_01_stac_1399316533&#45;&gt;s2_league4_game2_01_stac_1399316539 -->
<g id="edge65" class="edge">
<title>s2_league4_game2_01_stac_1399316533&#45;&gt;s2_league4_game2_01_stac_1399316539</title>
<g id="a_edge65"><a xlink:title="Comment">
<path fill="none" stroke="#ff8200" d="M30.51,-315.86C31.24,-311.97 32.53,-304.46 33,-298 33.49,-291.25 32.53,-283.59 31.57,-278.07"/>
<polygon fill="#ff8200" stroke="#ff8200" points="33.27,-277.64 30.59,-273.07 29.83,-278.32 33.27,-277.64"/>
</a>
</g>
</g>
<!-- 23_0 -->
<!-- s2_league4_game2_01_stac_1399316536&#45;&gt;23_0 -->
<!-- s2_league4_game2_01_stac_1399316536&#45;&gt;s2_league4_game2_01_stac_1399316539 -->
<!-- 24_0 -->
<!-- s2_league4_game2_01_stac_1399316539&#45;&gt;24_0 -->
<!-- s2_league4_game2_01_stac_1399316542 -->
<g id="node47" class="node">
<title>s2_league4_game2_01_stac_1399316542</title>
<g id="a_node47"><a xlink:title="25 &#160;Shawnus &#160;go for it">
<ellipse fill="black" stroke="black" cx="20" cy="-244.5" rx="3.5" ry="3.5"/>
</a>
</g>
</g>
<!-- s2_league4_game2_01_stac_1399316539&#45;&gt;s2_league4_game2_01_stac_1399316542 -->
<g id="edge66" class="edge">
<title>s2_league4_game2_01_stac_1399316539&#45;&gt;s2_league4_game2_01_stac_1399316542</title>
<g id="a_edge66"><a xlink:title="Acknowledgement">
<path fill="none" stroke="#12ffff" d="M28.93,-266.04C27.54,-262.84 25.05,-257.12 23.06,-252.53"/>
<polygon fill="#12ffff" stroke="#12ffff" points="24.63,-251.76 21.03,-247.87 21.42,-253.16 24.63,-251.76"/>
</a>
</g>
</g>
<!-- s2_league4_game2_01_stac_1399316545 -->
<g id="node49" class="node">
<title>s2_league4_game2_01_stac_1399316545</title>
<g id="a_node49"><a xlink:title="26 &#160;somdechn &#160;Yes..">
<ellipse fill="black" stroke="black" cx="30" cy="-219.5" rx="3.5" ry="3.5"/>
</a>
</g>
</g>
<!-- s2_league4_game2_01_stac_1399316539&#45;&gt;s2_league4_game2_01_stac_1399316545 -->
<g id="edge67" class="edge">
<title>s2_league4_game2_01_stac_1399316539&#45;&gt;s2_league4_game2_01_stac_1399316545</title>
<g id="a_edge67"><a xlink:title="Question_answer_pair">
<path fill="none" stroke="#12ffff" d="M30.59,-265.93C31.65,-261.07 33.67,-250.2 33,-241 32.69,-236.76 32.03,-232.07 31.4,-228.25"/>
<polygon fill="#12ffff" stroke="#12ffff" points="33.1,-227.76 30.51,-223.14 29.65,-228.37 33.1,-227.76"/>
</a>
</g>
</g>
<!-- 25_0 -->
<!-- s2_league4_game2_01_stac_1399316542&#45;&gt;25_0 -->
<!-- s2_league4_game2_01_stac_1399316542&#45;&gt;s2_league4_game2_01_stac_1399316545 -->
<!-- 26_0 -->
<!-- s2_league4_game2_01_stac_1399316545&#45;&gt;26_0 -->
<!-- s2_league4_game2_01_stac_1399316548 -->
<g id="node51" class="node">
<title>s2_league4_game2_01_stac_1399316548</title>
<g id="a_node51"><a xlink:title="27 &#160;ztime &#160;go nz">
<ellipse fill="black" stroke="black" cx="30" cy="-194.5" rx="3.5" ry="3.5"/>
</a>
</g>
</g>
<!-- s2_league4_game2_01_stac_1399316545&#45;&gt;s2_league4_game2_01_stac_1399316548 -->
<g id="edge68" class="edge">
<title>s2_league4_game2_01_stac_1399316545&#45;&gt;s2_league4_game2_01_stac_1399316548</title>
<g id="a_edge68"><a xlink:title="Acknowledgement">
<path fill="none" stroke="#12ffff" d="M30,-215.68C30,-212.58 30,-207.47 30,-203.16"/>
<polygon fill="#12ffff" stroke="#12ffff" points="31.75,-203.06 30,-198.06 28.25,-203.06 31.75,-203.06"/>
</a>
</g>
</g>
<!-- 27_0 -->
<!-- s2_league4_game2_01_stac_1399316548&#45;&gt;27_0 -->
<!-- s2_league4_game2_01_stac_1399316551 -->
<g id="node53" class="node">
<title>s2_league4_game2_01_stac_1399316551</title>
<g id="a_node53"><a xlink:title="28 &#160;ztime &#160;damn">
<ellipse fill="black" stroke="black" cx="30" cy="-169.5" rx="3.5" ry="3.5"/>
</a>
</g>
</g>
<!-- s2_league4_game2_01_stac_1399316548&#45;&gt;s2_league4_game2_01_stac_1399316551 -->
<g id="edge69" class="edge">
<title>s2_league4_game2_01_stac_1399316548&#45;&gt;s2_league4_game2_01_stac_1399316551</title>
<g id="a_edge69"><a xlink:title="Comment">
<path fill="none" stroke="#ff8200" d="M30,-190.68C30,-187.58 30,-182.47 30,-178.16"/>
<polygon fill="#ff8200" stroke="#ff8200" points="31.75,-178.06 30,-173.06 28.25,-178.06 31.75,-178.06"/>
</a>
</g>
</g>
<!-- 28_0 -->
<!-- s2_league4_game2_01_stac_1399316551&#45;&gt;28_0 -->
<!-- s2_league4_game2_01_stac_1399316554 -->
<g id="node55" class="node">
<title>s2_league4_game2_01_stac_1399316554</title>
<g id="a_node55"><a xlink:title="29 &#160;Shawnus &#160;misplaced/">
<ellipse fill="black" stroke="black" cx="30" cy="-144.5" rx="3.5" ry="3.5"/>
</a>
</g>
</g>
<!-- s2_league4_game2_01_stac_1399316551&#45;&gt;s2_league4_game2_01_stac_1399316554 -->
<g id="edge70" class="edge">
<title>s2_league4_game2_01_stac_1399316551&#45;&gt;s2_league4_game2_01_stac_1399316554</title>
<g id="a_edge70"><a xlink:title="ContrastCorrection">
<path fill="none" stroke="#ff7ecf" d="M30,-165.68C30,-162.58 30,-157.47 30,-153.16"/>
<polygon fill="#ff7ecf" stroke="#ff7ecf" points="31.75,-153.06 30,-148.06 28.25,-153.06 31.75,-153.06"/>
</a>
</g>
</g>
<!-- 29_0 -->
<!-- s2_league4_game2_01_stac_1399316554&#45;&gt;29_0 -->
<!-- s2_league4_game2_01_stac_1399316557 -->
<g id="node57" class="node">
<title>s2_league4_game2_01_stac_1399316557</title>
<g id="a_node57"><a xlink:title="30 &#160;Shawnus &#160;?">
<ellipse fill="black" stroke="black" cx="20" cy="-119.5" rx="3.5" ry="3.5"/>
</a>
</g>
</g>
<!-- s2_league4_game2_01_stac_1399316554&#45;&gt;s2_league4_game2_01_stac_1399316557 -->
<g id="edge71" class="edge">
<title>s2_league4_game2_01_stac_1399316554&#45;&gt;s2_league4_game2_01_stac_1399316557</title>
<g id="a_edge71"><a xlink:title="Clarification_question">
<path fill="none" stroke="#ff40d1" d="M28.93,-141.04C27.54,-137.84 25.05,-132.12 23.06,-127.53"/>
<polygon fill="#ff40d1" stroke="#ff40d1" points="24.63,-126.76 21.03,-122.87 21.42,-128.16 24.63,-126.76"/>
</a>
</g>
</g>
<!-- s2_league4_game2_01_stac_1399316560 -->
<g id="node59" class="node">
<title>s2_league4_game2_01_stac_1399316560</title>
<g id="a_node59"><a xlink:title="31 &#160;somdechn &#160;Need to undo are you?">
<ellipse fill="black" stroke="black" cx="30" cy="-94.5" rx="3.5" ry="3.5"/>
</a>
</g>
</g>
<!-- s2_league4_game2_01_stac_1399316554&#45;&gt;s2_league4_game2_01_stac_1399316560 -->
<g id="edge72" class="edge">
<title>s2_league4_game2_01_stac_1399316554&#45;&gt;s2_league4_game2_01_stac_1399316560</title>
<g id="a_edge72"><a xlink:title="Clarification_question">
<path fill="none" stroke="#ff40d1" d="M30.59,-140.93C31.65,-136.07 33.67,-125.2 33,-116 32.69,-111.76 32.03,-107.07 31.4,-103.25"/>
<polygon fill="#ff40d1" stroke="#ff40d1" points="33.1,-102.76 30.51,-98.14 29.65,-103.37 33.1,-102.76"/>
</a>
</g>
</g>
<!-- 30_0 -->
<!-- s2_league4_game2_01_stac_1399316557&#45;&gt;30_0 -->
<!-- s2_league4_game2_01_stac_1399316557&#45;&gt;s2_league4_game2_01_stac_1399316560 -->
<!-- 31_0 -->
<!-- s2_league4_game2_01_stac_1399316560&#45;&gt;31_0 -->
<!-- s2_league4_game2_01_stac_1399316567 -->
<g id="node61" class="node">
<title>s2_league4_game2_01_stac_1399316567</title>
<g id="a_node61"><a xlink:title="33 &#160;ztime &#160;no it&#39;s fine..">
<ellipse fill="black" stroke="black" cx="30" cy="-44.5" rx="3.5" ry="3.5"/>
</a>
</g>
</g>
<!-- s2_league4_game2_01_stac_1399316560&#45;&gt;s2_league4_game2_01_stac_1399316567 -->
<g id="edge75" class="edge">
<title>s2_league4_game2_01_stac_1399316560&#45;&gt;s2_league4_game2_01_stac_1399316567</title>
<g id="a_edge75"><a xlink:title="Question_answer_pair">
<path fill="none" stroke="#12ffff" d="M30.59,-90.93C31.65,-86.07 33.67,-75.2 33,-66 32.69,-61.76 32.03,-57.07 31.4,-53.25"/>
<polygon fill="#12ffff" stroke="#12ffff" points="33.1,-52.76 30.51,-48.14 29.65,-53.37 33.1,-52.76"/>
</a>
</g>
</g>
<!-- s2_league4_game2_01_stac_1399316563 -->
<g id="node67" class="node">
<title>s2_league4_game2_01_stac_1399316563</title>
<g id="a_node67"><a xlink:title="32 &#160;ztime &#160;no..">
<ellipse fill="black" stroke="black" cx="20" cy="-69.5" rx="3.5" ry="3.5"/>
</a>
</g>
</g>
<!-- s2_league4_game2_01_stac_1399316560&#45;&gt;s2_league4_game2_01_stac_1399316563 -->
<g id="edge73" class="edge">
<title>s2_league4_game2_01_stac_1399316560&#45;&gt;s2_league4_game2_01_stac_1399316563</title>
<g id="a_edge73"><a xlink:title="Question_answer_pair">
<path fill="none" stroke="#12ffff" d="M28.93,-91.04C27.54,-87.84 25.05,-82.12 23.06,-77.53"/>
<polygon fill="#12ffff" stroke="#12ffff" points="24.63,-76.76 21.03,-72.87 21.42,-78.16 24.63,-76.76"/>
</a>
</g>
</g>
<!-- 33_0 -->
<!-- s2_league4_game2_01_stac_1399316567&#45;&gt;33_0 -->
<!-- s2_league4_game2_01_stac_1399316570 -->
<g id="node63" class="node">
<title>s2_league4_game2_01_stac_1399316570</title>
<g id="a_node63"><a xlink:title="34 &#160;Shawnus &#160;hahaha">
<ellipse fill="black" stroke="black" cx="30" cy="-19.5" rx="3.5" ry="3.5"/>
</a>
</g>
</g>
<!-- s2_league4_game2_01_stac_1399316567&#45;&gt;s2_league4_game2_01_stac_1399316570 -->
<g id="edge76" class="edge">
<title>s2_league4_game2_01_stac_1399316567&#45;&gt;s2_league4_game2_01_stac_1399316570</title>
<g id="a_edge76"><a xlink:title="Comment">
<path fill="none" stroke="#ff8200" d="M30,-40.68C30,-37.58 30,-32.47 30,-28.16"/>
<polygon fill="#ff8200" stroke="#ff8200" points="31.75,-28.06 30,-23.06 28.25,-28.06 31.75,-28.06"/>
</a>
</g>
</g>
<!-- 34_0 -->
<!-- s2_league4_game2_01_stac_1399316570&#45;&gt;34_0 -->
<!-- s2_league4_game2_01_stac_1399316502&#45;&gt;s2_league4_game2_01_stac_1399316506 -->
<!-- s2_league4_game2_01_stac_1399316503 -->
<g id="node66" class="node">
<title>s2_league4_game2_01_stac_1399316503</title>
<g id="a_node66"><a xlink:title="12 &#160;ztime &#160;shall we...">
<ellipse fill="black" stroke="black" cx="45" cy="-569.5" rx="3.5" ry="3.5"/>
</a>
</g>
</g>
<!-- s2_league4_game2_01_stac_1399316502&#45;&gt;s2_league4_game2_01_stac_1399316503 -->
<g id="edge53" class="edge">
<title>s2_league4_game2_01_stac_1399316502&#45;&gt;s2_league4_game2_01_stac_1399316503</title>
<g id="a_edge53"><a xlink:title="Clarification_question">
<path fill="none" stroke="#ff40d1" d="M23.52,-569.5C27.78,-569.5 32.04,-569.5 36.3,-569.5"/>
<polygon fill="#ff40d1" stroke="#ff40d1" points="36.31,-571.25 41.31,-569.5 36.31,-567.75 36.31,-571.25"/>
</a>
</g>
</g>
<!-- s2_league4_game2_01_stac_1399316563&#45;&gt;s2_league4_game2_01_stac_1399316567 -->
<!-- s2_league4_game2_01_stac_1399316564 -->
<g id="node68" class="node">
<title>s2_league4_game2_01_stac_1399316564</title>
<g id="a_node68"><a xlink:title="32 &#160;ztime &#160;you took the spot I was looking at...">
<ellipse fill="black" stroke="black" cx="66" cy="-69.5" rx="3.5" ry="3.5"/>
</a>
</g>
</g>
<!-- s2_league4_game2_01_stac_1399316563&#45;&gt;s2_league4_game2_01_stac_1399316564 -->
<g id="edge74" class="edge">
<title>s2_league4_game2_01_stac_1399316563&#45;&gt;s2_league4_game2_01_stac_1399316564</title>
<g id="a_edge74"><a xlink:title="Elaboration">
<path fill="none" stroke="#a621c7" d="M23.59,-69.5C34.8,-69.5 46,-69.5 57.21,-69.5"/>
<polygon fill="#a621c7" stroke="#a621c7" points="57.36,-71.25 62.36,-69.5 57.36,-67.75 57.36,-71.25"/>
</a>
</g>
</g>
</g>
</svg>
