<?xml version="1.0" encoding="UTF-8" standalone="no"?>
<!DOCTYPE svg PUBLIC "-//W3C//DTD SVG 1.1//EN"
 "http://www.w3.org/Graphics/SVG/1.1/DTD/svg11.dtd">
<!-- Generated by graphviz version 3.0.0 (20220226.1711)
 -->
<!-- Title: 6_s2_league4_game2_770 Pages: 1 -->
<svg width="93pt" height="270pt"
 viewBox="0.00 0.00 93.00 270.00" xmlns="http://www.w3.org/2000/svg" xmlns:xlink="http://www.w3.org/1999/xlink">
<g id="graph0" class="graph" transform="scale(1 1) rotate(0) translate(4 266)">
<title>6_s2_league4_game2_770</title>
<polygon fill="white" stroke="transparent" points="-4,4 -4,-266 89,-266 89,4 -4,4"/>
<g id="clust1" class="cluster">
<title>cluster_6_s2_league4_game2_770</title>
<polygon fill="none" stroke="black" points="8,-8 8,-254 77,-254 77,-8 8,-8"/>
<text text-anchor="middle" x="26.5" y="-238.8" font-family="Times,serif" font-size="14.00">770</text>
</g>
<!-- s2_league4_game2_06_stac_1399316473 -->
<g id="node1" class="node">
<title>s2_league4_game2_06_stac_1399316473</title>
<g id="a_node1"><a xlink:title="1 &#160;somdechn &#160;I need wood, clay or ore, &#160;I can give Sheep">
<ellipse fill="black" stroke="black" cx="30" cy="-219.5" rx="3.5" ry="3.5"/>
</a>
</g>
</g>
<!-- 1_0 -->
<!-- s2_league4_game2_06_stac_1399316473&#45;&gt;1_0 -->
<!-- s2_league4_game2_06_stac_1399316476 -->
<g id="node3" class="node">
<title>s2_league4_game2_06_stac_1399316476</title>
<g id="a_node3"><a xlink:title="2 &#160;Shawnus &#160;i can trade wood">
<ellipse fill="black" stroke="black" cx="20" cy="-194.5" rx="3.5" ry="3.5"/>
</a>
</g>
</g>
<!-- s2_league4_game2_06_stac_1399316473&#45;&gt;s2_league4_game2_06_stac_1399316476 -->
<g id="edge10" class="edge">
<title>s2_league4_game2_06_stac_1399316473&#45;&gt;s2_league4_game2_06_stac_1399316476</title>
<g id="a_edge10"><a xlink:title="Question_answer_pair">
<path fill="none" stroke="#12ffff" d="M28.93,-216.04C27.54,-212.84 25.05,-207.12 23.06,-202.53"/>
<polygon fill="#12ffff" stroke="#12ffff" points="24.63,-201.76 21.03,-197.87 21.42,-203.16 24.63,-201.76"/>
</a>
</g>
</g>
<!-- s2_league4_game2_06_stac_1399316479 -->
<g id="node15" class="node">
<title>s2_league4_game2_06_stac_1399316479</title>
<g id="a_node15"><a xlink:title="3 &#160;ztime &#160;just spent it all">
<ellipse fill="black" stroke="black" cx="20" cy="-169.5" rx="3.5" ry="3.5"/>
</a>
</g>
</g>
<!-- s2_league4_game2_06_stac_1399316473&#45;&gt;s2_league4_game2_06_stac_1399316479 -->
<g id="edge11" class="edge">
<title>s2_league4_game2_06_stac_1399316473&#45;&gt;s2_league4_game2_06_stac_1399316479</title>
<g id="a_edge11"><a xlink:title="Question_answer_pair">
<path fill="none" stroke="#12ffff" d="M32.85,-217.44C41.34,-214.12 65.4,-203.4 58,-191 51.64,-180.34 37.6,-174.89 28.49,-172.37"/>
<polygon fill="#12ffff" stroke="#12ffff" points="28.83,-170.66 23.56,-171.17 28,-174.06 28.83,-170.66"/>
</a>
</g>
</g>
<!-- 2_0 -->
<!-- s2_league4_game2_06_stac_1399316476&#45;&gt;2_0 -->
<!-- s2_league4_game2_06_stac_1399316476&#45;&gt;s2_league4_game2_06_stac_1399316479 -->
<!-- s2_league4_game2_06_stac_1399316483 -->
<g id="node5" class="node">
<title>s2_league4_game2_06_stac_1399316483</title>
<g id="a_node5"><a xlink:title="4 &#160;somdechn &#160;1 sheep for 1 wood?">
<ellipse fill="black" stroke="black" cx="20" cy="-144.5" rx="3.5" ry="3.5"/>
</a>
</g>
</g>
<!-- 4_0 -->
<!-- s2_league4_game2_06_stac_1399316483&#45;&gt;4_0 -->
<!-- s2_league4_game2_06_stac_1399316486 -->
<g id="node7" class="node">
<title>s2_league4_game2_06_stac_1399316486</title>
<g id="a_node7"><a xlink:title="5 &#160;Shawnus &#160;2 sheep 1 wood">
<ellipse fill="black" stroke="black" cx="20" cy="-119.5" rx="3.5" ry="3.5"/>
</a>
</g>
</g>
<!-- s2_league4_game2_06_stac_1399316483&#45;&gt;s2_league4_game2_06_stac_1399316486 -->
<g id="edge14" class="edge">
<title>s2_league4_game2_06_stac_1399316483&#45;&gt;s2_league4_game2_06_stac_1399316486</title>
<g id="a_edge14"><a xlink:title="Question_answer_pair">
<path fill="none" stroke="#12ffff" d="M20,-140.68C20,-137.58 20,-132.47 20,-128.16"/>
<polygon fill="#12ffff" stroke="#12ffff" points="21.75,-128.06 20,-123.06 18.25,-128.06 21.75,-128.06"/>
</a>
</g>
</g>
<!-- 5_0 -->
<!-- s2_league4_game2_06_stac_1399316486&#45;&gt;5_0 -->
<!-- s2_league4_game2_06_stac_1399316489 -->
<g id="node9" class="node">
<title>s2_league4_game2_06_stac_1399316489</title>
<g id="a_node9"><a xlink:title="6 &#160;ztime &#160;sorry empty">
<ellipse fill="black" stroke="black" cx="20" cy="-94.5" rx="3.5" ry="3.5"/>
</a>
</g>
</g>
<!-- s2_league4_game2_06_stac_1399316486&#45;&gt;s2_league4_game2_06_stac_1399316489 -->
<g id="edge15" class="edge">
<title>s2_league4_game2_06_stac_1399316486&#45;&gt;s2_league4_game2_06_stac_1399316489</title>
<g id="a_edge15"><a xlink:title="Comment">
<path fill="none" stroke="#ff8200" d="M20,-115.68C20,-112.58 20,-107.47 20,-103.16"/>
<polygon fill="#ff8200" stroke="#ff8200" points="21.75,-103.06 20,-98.06 18.25,-103.06 21.75,-103.06"/>
</a>
</g>
</g>
<!-- 6_0 -->
<!-- s2_league4_game2_06_stac_1399316489&#45;&gt;6_0 -->
<!-- s2_league4_game2_06_stac_1399316492 -->
<g id="node11" class="node">
<title>s2_league4_game2_06_stac_1399316492</title>
<g id="a_node11"><a xlink:title="7 &#160;ztime &#160;tough times..">
<ellipse fill="black" stroke="black" cx="20" cy="-69.5" rx="3.5" ry="3.5"/>
</a>
</g>
</g>
<!-- s2_league4_game2_06_stac_1399316489&#45;&gt;s2_league4_game2_06_stac_1399316492 -->
<g id="edge16" class="edge">
<title>s2_league4_game2_06_stac_1399316489&#45;&gt;s2_league4_game2_06_stac_1399316492</title>
<g id="a_edge16"><a xlink:title="Elaboration">
<path fill="none" stroke="#a621c7" d="M20,-90.68C20,-87.58 20,-82.47 20,-78.16"/>
<polygon fill="#a621c7" stroke="#a621c7" points="21.75,-78.06 20,-73.06 18.25,-78.06 21.75,-78.06"/>
</a>
</g>
</g>
<!-- 7_0 -->
<!-- s2_league4_game2_06_stac_1399316492&#45;&gt;7_0 -->
<!-- s2_league4_game2_06_stac_1399316495 -->
<g id="node17" class="node">
<title>s2_league4_game2_06_stac_1399316495</title>
<g id="a_node17"><a xlink:title="8 &#160;Shawnus &#160;hopefully i dont roll a 7">
<ellipse fill="black" stroke="black" cx="20" cy="-44.5" rx="3.5" ry="3.5"/>
</a>
</g>
</g>
<!-- s2_league4_game2_06_stac_1399316492&#45;&gt;s2_league4_game2_06_stac_1399316495 -->
<g id="edge17" class="edge">
<title>s2_league4_game2_06_stac_1399316492&#45;&gt;s2_league4_game2_06_stac_1399316495</title>
<g id="a_edge17"><a xlink:title="Comment">
<path fill="none" stroke="#ff8200" d="M20,-65.68C20,-62.58 20,-57.47 20,-53.16"/>
<polygon fill="#ff8200" stroke="#ff8200" points="21.75,-53.06 20,-48.06 18.25,-53.06 21.75,-53.06"/>
</a>
</g>
</g>
<!-- s2_league4_game2_06_stac_1399316499 -->
<g id="node13" class="node">
<title>s2_league4_game2_06_stac_1399316499</title>
<g id="a_node13"><a xlink:title="9 &#160;Shawnus &#160;bites*">
<ellipse fill="black" stroke="black" cx="30" cy="-19.5" rx="3.5" ry="3.5"/>
</a>
</g>
</g>
<!-- 9_0 -->
<!-- s2_league4_game2_06_stac_1399316499&#45;&gt;9_0 -->
<!-- s2_league4_game2_06_stac_1399316479&#45;&gt;s2_league4_game2_06_stac_1399316483 -->
<g id="edge13" class="edge">
<title>s2_league4_game2_06_stac_1399316479&#45;&gt;s2_league4_game2_06_stac_1399316483</title>
<g id="a_edge13"><a xlink:title="Q_Elab">
<path fill="none" stroke="#0d20ff" d="M20,-165.68C20,-162.58 20,-157.47 20,-153.16"/>
<polygon fill="#0d20ff" stroke="#0d20ff" points="21.75,-153.06 20,-148.06 18.25,-153.06 21.75,-153.06"/>
</a>
</g>
</g>
<!-- s2_league4_game2_06_stac_1399316480 -->
<g id="node16" class="node">
<title>s2_league4_game2_06_stac_1399316480</title>
<g id="a_node16"><a xlink:title="3 &#160;ztime &#160;sorry">
<ellipse fill="black" stroke="black" cx="45" cy="-169.5" rx="3.5" ry="3.5"/>
</a>
</g>
</g>
<!-- s2_league4_game2_06_stac_1399316479&#45;&gt;s2_league4_game2_06_stac_1399316480 -->
<g id="edge12" class="edge">
<title>s2_league4_game2_06_stac_1399316479&#45;&gt;s2_league4_game2_06_stac_1399316480</title>
<g id="a_edge12"><a xlink:title="Comment">
<path fill="none" stroke="#ff8200" d="M23.52,-169.5C27.78,-169.5 32.04,-169.5 36.3,-169.5"/>
<polygon fill="#ff8200" stroke="#ff8200" points="36.31,-171.25 41.31,-169.5 36.31,-167.75 36.31,-171.25"/>
</a>
</g>
</g>
<!-- s2_league4_game2_06_stac_1399316495&#45;&gt;s2_league4_game2_06_stac_1399316499 -->
<!-- s2_league4_game2_06_stac_1399316496 -->
<g id="node18" class="node">
<title>s2_league4_game2_06_stac_1399316496</title>
<g id="a_node18"><a xlink:title="8 &#160;Shawnus &#160;and that biotes me in the arse">
<ellipse fill="black" stroke="black" cx="45" cy="-44.5" rx="3.5" ry="3.5"/>
</a>
</g>
</g>
<!-- s2_league4_game2_06_stac_1399316495&#45;&gt;s2_league4_game2_06_stac_1399316496 -->
<g id="edge18" class="edge">
<title>s2_league4_game2_06_stac_1399316495&#45;&gt;s2_league4_game2_06_stac_1399316496</title>
<g id="a_edge18"><a xlink:title="ParallNarrContinuationbackground">
<path fill="none" stroke="#0ab046" d="M23.52,-44.5C27.78,-44.5 32.04,-44.5 36.3,-44.5"/>
<polygon fill="#0ab046" stroke="#0ab046" points="36.31,-46.25 41.31,-44.5 36.31,-42.75 36.31,-46.25"/>
</a>
</g>
</g>
<!-- s2_league4_game2_06_stac_1399316496&#45;&gt;s2_league4_game2_06_stac_1399316499 -->
<g id="edge19" class="edge">
<title>s2_league4_game2_06_stac_1399316496&#45;&gt;s2_league4_game2_06_stac_1399316499</title>
<g id="a_edge19"><a xlink:title="ContrastCorrection">
<path fill="none" stroke="#ff7ecf" d="M43.39,-41.04C41.26,-37.77 37.42,-31.87 34.39,-27.23"/>
<polygon fill="#ff7ecf" stroke="#ff7ecf" points="35.75,-26.11 31.55,-22.87 32.81,-28.02 35.75,-26.11"/>
</a>
</g>
</g>
</g>
</svg>
