<?xml version="1.0" encoding="UTF-8" standalone="no"?>
<!DOCTYPE svg PUBLIC "-//W3C//DTD SVG 1.1//EN"
 "http://www.w3.org/Graphics/SVG/1.1/DTD/svg11.dtd">
<!-- Generated by graphviz version 3.0.0 (20220226.1711)
 -->
<!-- Title: 2_s2_league4_game2_755 Pages: 1 -->
<svg width="93pt" height="195pt"
 viewBox="0.00 0.00 93.00 195.00" xmlns="http://www.w3.org/2000/svg" xmlns:xlink="http://www.w3.org/1999/xlink">
<g id="graph0" class="graph" transform="scale(1 1) rotate(0) translate(4 191)">
<title>2_s2_league4_game2_755</title>
<polygon fill="white" stroke="transparent" points="-4,4 -4,-191 89,-191 89,4 -4,4"/>
<g id="clust1" class="cluster">
<title>cluster_2_s2_league4_game2_755</title>
<polygon fill="none" stroke="black" points="8,-8 8,-179 77,-179 77,-8 8,-8"/>
<text text-anchor="middle" x="26.5" y="-163.8" font-family="Times,serif" font-size="14.00">755</text>
</g>
<!-- s2_league4_game2_02_stac_1399316491 -->
<g id="node1" class="node">
<title>s2_league4_game2_02_stac_1399316491</title>
<g id="a_node1"><a xlink:title="3 &#160;ztime &#160;how about I give you a wood for a sheep?">
<ellipse fill="black" stroke="black" cx="30" cy="-94.5" rx="3.5" ry="3.5"/>
</a>
</g>
</g>
<!-- 3_0 -->
<!-- s2_league4_game2_02_stac_1399316491&#45;&gt;3_0 -->
<!-- s2_league4_game2_02_stac_1399316494 -->
<g id="node3" class="node">
<title>s2_league4_game2_02_stac_1399316494</title>
<g id="a_node3"><a xlink:title="4 &#160;Shawnus &#160;no thank you">
<ellipse fill="black" stroke="black" cx="20" cy="-69.5" rx="3.5" ry="3.5"/>
</a>
</g>
</g>
<!-- s2_league4_game2_02_stac_1399316491&#45;&gt;s2_league4_game2_02_stac_1399316494 -->
<g id="edge11" class="edge">
<title>s2_league4_game2_02_stac_1399316491&#45;&gt;s2_league4_game2_02_stac_1399316494</title>
<g id="a_edge11"><a xlink:title="Question_answer_pair">
<path fill="none" stroke="#12ffff" d="M28.93,-91.04C27.54,-87.84 25.05,-82.12 23.06,-77.53"/>
<polygon fill="#12ffff" stroke="#12ffff" points="24.63,-76.76 21.03,-72.87 21.42,-78.16 24.63,-76.76"/>
</a>
</g>
</g>
<!-- s2_league4_game2_02_stac_1399316500 -->
<g id="node7" class="node">
<title>s2_league4_game2_02_stac_1399316500</title>
<g id="a_node7"><a xlink:title="6 &#160;somdechn &#160;Nah...">
<ellipse fill="black" stroke="black" cx="30" cy="-19.5" rx="3.5" ry="3.5"/>
</a>
</g>
</g>
<!-- s2_league4_game2_02_stac_1399316491&#45;&gt;s2_league4_game2_02_stac_1399316500 -->
<g id="edge13" class="edge">
<title>s2_league4_game2_02_stac_1399316491&#45;&gt;s2_league4_game2_02_stac_1399316500</title>
<g id="a_edge13"><a xlink:title="Question_answer_pair">
<path fill="none" stroke="#12ffff" d="M33.01,-92.39C39.08,-89.95 52.66,-83.53 58,-73 64.43,-60.32 64.43,-53.68 58,-41 53.83,-32.77 44.63,-27.05 37.91,-23.78"/>
<polygon fill="#12ffff" stroke="#12ffff" points="38.29,-22.04 33.01,-21.61 36.88,-25.24 38.29,-22.04"/>
</a>
</g>
</g>
<!-- 4_0 -->
<!-- s2_league4_game2_02_stac_1399316494&#45;&gt;4_0 -->
<!-- s2_league4_game2_02_stac_1399316497 -->
<g id="node5" class="node">
<title>s2_league4_game2_02_stac_1399316497</title>
<g id="a_node5"><a xlink:title="5 &#160;ztime &#160;ok">
<ellipse fill="black" stroke="black" cx="20" cy="-44.5" rx="3.5" ry="3.5"/>
</a>
</g>
</g>
<!-- s2_league4_game2_02_stac_1399316494&#45;&gt;s2_league4_game2_02_stac_1399316497 -->
<g id="edge12" class="edge">
<title>s2_league4_game2_02_stac_1399316494&#45;&gt;s2_league4_game2_02_stac_1399316497</title>
<g id="a_edge12"><a xlink:title="Acknowledgement">
<path fill="none" stroke="#12ffff" d="M20,-65.68C20,-62.58 20,-57.47 20,-53.16"/>
<polygon fill="#12ffff" stroke="#12ffff" points="21.75,-53.06 20,-48.06 18.25,-53.06 21.75,-53.06"/>
</a>
</g>
</g>
<!-- 5_0 -->
<!-- s2_league4_game2_02_stac_1399316497&#45;&gt;5_0 -->
<!-- s2_league4_game2_02_stac_1399316497&#45;&gt;s2_league4_game2_02_stac_1399316500 -->
<!-- 6_0 -->
<!-- s2_league4_game2_02_stac_1399316500&#45;&gt;6_0 -->
<!-- s2_league4_game2_02_stac_1399316483 -->
<g id="node9" class="node">
<title>s2_league4_game2_02_stac_1399316483</title>
<g id="a_node9"><a xlink:title="1 &#160;ztime &#160;anyone want wood...">
<ellipse fill="black" stroke="black" cx="30" cy="-144.5" rx="3.5" ry="3.5"/>
</a>
</g>
</g>
<!-- s2_league4_game2_02_stac_1399316483&#45;&gt;s2_league4_game2_02_stac_1399316491 -->
<g id="edge10" class="edge">
<title>s2_league4_game2_02_stac_1399316483&#45;&gt;s2_league4_game2_02_stac_1399316491</title>
<g id="a_edge10"><a xlink:title="Q_Elab">
<path fill="none" stroke="#0d20ff" d="M29.66,-140.85C29.17,-136.95 28.31,-129.43 28,-123 27.67,-116.26 28.31,-108.6 28.95,-103.08"/>
<polygon fill="#0d20ff" stroke="#0d20ff" points="30.69,-103.26 29.6,-98.08 27.22,-102.81 30.69,-103.26"/>
</a>
</g>
</g>
<!-- s2_league4_game2_02_stac_1399316484 -->
<g id="node10" class="node">
<title>s2_league4_game2_02_stac_1399316484</title>
<g id="a_node10"><a xlink:title="1 &#160;ztime &#160;I&#39;m after ore or clay">
<ellipse fill="black" stroke="black" cx="55" cy="-144.5" rx="3.5" ry="3.5"/>
</a>
</g>
</g>
<!-- s2_league4_game2_02_stac_1399316483&#45;&gt;s2_league4_game2_02_stac_1399316484 -->
<g id="edge7" class="edge">
<title>s2_league4_game2_02_stac_1399316483&#45;&gt;s2_league4_game2_02_stac_1399316484</title>
<g id="a_edge7"><a xlink:title="Elaboration">
<path fill="none" stroke="#a621c7" d="M33.52,-144.5C37.78,-144.5 42.04,-144.5 46.3,-144.5"/>
<polygon fill="#a621c7" stroke="#a621c7" points="46.31,-146.25 51.31,-144.5 46.31,-142.75 46.31,-146.25"/>
</a>
</g>
</g>
<!-- s2_league4_game2_02_stac_1399316487 -->
<g id="node11" class="node">
<title>s2_league4_game2_02_stac_1399316487</title>
<g id="a_node11"><a xlink:title="2 &#160;somdechn &#160;No">
<ellipse fill="black" stroke="black" cx="40" cy="-119.5" rx="3.5" ry="3.5"/>
</a>
</g>
</g>
<!-- s2_league4_game2_02_stac_1399316483&#45;&gt;s2_league4_game2_02_stac_1399316487 -->
<g id="edge8" class="edge">
<title>s2_league4_game2_02_stac_1399316483&#45;&gt;s2_league4_game2_02_stac_1399316487</title>
<g id="a_edge8"><a xlink:title="Question_answer_pair">
<path fill="none" stroke="#12ffff" d="M31.07,-141.04C32.46,-137.84 34.95,-132.12 36.94,-127.53"/>
<polygon fill="#12ffff" stroke="#12ffff" points="38.58,-128.16 38.97,-122.87 35.37,-126.76 38.58,-128.16"/>
</a>
</g>
</g>
<!-- s2_league4_game2_02_stac_1399316487&#45;&gt;s2_league4_game2_02_stac_1399316491 -->
<!-- s2_league4_game2_02_stac_1399316488 -->
<g id="node12" class="node">
<title>s2_league4_game2_02_stac_1399316488</title>
<g id="a_node12"><a xlink:title="2 &#160;somdechn &#160;thanks">
<ellipse fill="black" stroke="black" cx="65" cy="-119.5" rx="3.5" ry="3.5"/>
</a>
</g>
</g>
<!-- s2_league4_game2_02_stac_1399316487&#45;&gt;s2_league4_game2_02_stac_1399316488 -->
<g id="edge9" class="edge">
<title>s2_league4_game2_02_stac_1399316487&#45;&gt;s2_league4_game2_02_stac_1399316488</title>
<g id="a_edge9"><a xlink:title="Comment">
<path fill="none" stroke="#ff8200" d="M43.52,-119.5C47.78,-119.5 52.04,-119.5 56.3,-119.5"/>
<polygon fill="#ff8200" stroke="#ff8200" points="56.31,-121.25 61.31,-119.5 56.31,-117.75 56.31,-121.25"/>
</a>
</g>
</g>
</g>
</svg>
