<?xml version="1.0" encoding="UTF-8" standalone="no"?>
<!DOCTYPE svg PUBLIC "-//W3C//DTD SVG 1.1//EN"
 "http://www.w3.org/Graphics/SVG/1.1/DTD/svg11.dtd">
<!-- Generated by graphviz version 3.0.0 (20220226.1711)
 -->
<!-- Title: 3_s2_league4_game2_757 Pages: 1 -->
<svg width="113pt" height="245pt"
 viewBox="0.00 0.00 113.00 245.00" xmlns="http://www.w3.org/2000/svg" xmlns:xlink="http://www.w3.org/1999/xlink">
<g id="graph0" class="graph" transform="scale(1 1) rotate(0) translate(4 241)">
<title>3_s2_league4_game2_757</title>
<polygon fill="white" stroke="transparent" points="-4,4 -4,-241 109,-241 109,4 -4,4"/>
<g id="clust1" class="cluster">
<title>cluster_3_s2_league4_game2_757</title>
<polygon fill="none" stroke="black" points="8,-8 8,-229 97,-229 97,-8 8,-8"/>
<text text-anchor="middle" x="26.5" y="-213.8" font-family="Times,serif" font-size="14.00">757</text>
</g>
<!-- s2_league4_game2_03_stac_1399316472 -->
<g id="node1" class="node">
<title>s2_league4_game2_03_stac_1399316472</title>
<g id="a_node1"><a xlink:title="1 &#160;ztime &#160;where are the 7s when you need them?">
<ellipse fill="black" stroke="black" cx="60" cy="-194.5" rx="3.5" ry="3.5"/>
</a>
</g>
</g>
<!-- 1_0 -->
<!-- s2_league4_game2_03_stac_1399316472&#45;&gt;1_0 -->
<!-- s2_league4_game2_03_stac_1399316475 -->
<g id="node3" class="node">
<title>s2_league4_game2_03_stac_1399316475</title>
<g id="a_node3"><a xlink:title="2 &#160;somdechn &#160;Hee hee">
<ellipse fill="black" stroke="black" cx="20" cy="-169.5" rx="3.5" ry="3.5"/>
</a>
</g>
</g>
<!-- s2_league4_game2_03_stac_1399316472&#45;&gt;s2_league4_game2_03_stac_1399316475 -->
<g id="edge11" class="edge">
<title>s2_league4_game2_03_stac_1399316472&#45;&gt;s2_league4_game2_03_stac_1399316475</title>
<g id="a_edge11"><a xlink:title="Question_answer_pair">
<path fill="none" stroke="#12ffff" d="M57.38,-191.99C51.33,-188.52 36.26,-179.85 27.21,-174.64"/>
<polygon fill="#12ffff" stroke="#12ffff" points="27.89,-173.02 22.69,-172.04 26.15,-176.05 27.89,-173.02"/>
</a>
</g>
</g>
<!-- s2_league4_game2_03_stac_1399316481 -->
<g id="node7" class="node">
<title>s2_league4_game2_03_stac_1399316481</title>
<g id="a_node7"><a xlink:title="4 &#160;ztime &#160;you better build NZ.. look at all those cards you&#39;re holding..">
<ellipse fill="black" stroke="black" cx="40" cy="-119.5" rx="3.5" ry="3.5"/>
</a>
</g>
</g>
<!-- s2_league4_game2_03_stac_1399316472&#45;&gt;s2_league4_game2_03_stac_1399316481 -->
<g id="edge13" class="edge">
<title>s2_league4_game2_03_stac_1399316472&#45;&gt;s2_league4_game2_03_stac_1399316481</title>
<g id="a_edge13"><a xlink:title="ExplanationResult">
<path fill="none" stroke="#a62139" d="M60.48,-190.97C61.83,-183.18 65.16,-158.96 58,-141 55.58,-134.93 50.53,-129.44 46.4,-125.68"/>
<polygon fill="#a62139" stroke="#a62139" points="47.38,-124.22 42.44,-122.32 45.12,-126.89 47.38,-124.22"/>
</a>
</g>
</g>
<!-- s2_league4_game2_03_stac_1399316484 -->
<g id="node9" class="node">
<title>s2_league4_game2_03_stac_1399316484</title>
<g id="a_node9"><a xlink:title="5 &#160;somdechn &#160;I can give wood or Wheat for 2 Sheeps.">
<ellipse fill="black" stroke="black" cx="50" cy="-94.5" rx="3.5" ry="3.5"/>
</a>
</g>
</g>
<!-- s2_league4_game2_03_stac_1399316472&#45;&gt;s2_league4_game2_03_stac_1399316484 -->
<g id="edge14" class="edge">
<title>s2_league4_game2_03_stac_1399316472&#45;&gt;s2_league4_game2_03_stac_1399316484</title>
<g id="a_edge14"><a xlink:title="Question_answer_pair">
<path fill="none" stroke="#12ffff" d="M61.6,-191.21C68.15,-181.55 91.87,-143.35 78,-116 73.83,-107.77 64.63,-102.05 57.91,-98.78"/>
<polygon fill="#12ffff" stroke="#12ffff" points="58.29,-97.04 53.01,-96.61 56.88,-100.24 58.29,-97.04"/>
</a>
</g>
</g>
<!-- 2_0 -->
<!-- s2_league4_game2_03_stac_1399316475&#45;&gt;2_0 -->
<!-- s2_league4_game2_03_stac_1399316478 -->
<g id="node5" class="node">
<title>s2_league4_game2_03_stac_1399316478</title>
<g id="a_node5"><a xlink:title="3 &#160;Shawnus &#160;hahaha">
<ellipse fill="black" stroke="black" cx="20" cy="-144.5" rx="3.5" ry="3.5"/>
</a>
</g>
</g>
<!-- s2_league4_game2_03_stac_1399316475&#45;&gt;s2_league4_game2_03_stac_1399316478 -->
<g id="edge12" class="edge">
<title>s2_league4_game2_03_stac_1399316475&#45;&gt;s2_league4_game2_03_stac_1399316478</title>
<g id="a_edge12"><a xlink:title="Comment">
<path fill="none" stroke="#ff8200" d="M20,-165.68C20,-162.58 20,-157.47 20,-153.16"/>
<polygon fill="#ff8200" stroke="#ff8200" points="21.75,-153.06 20,-148.06 18.25,-153.06 21.75,-153.06"/>
</a>
</g>
</g>
<!-- 3_0 -->
<!-- s2_league4_game2_03_stac_1399316478&#45;&gt;3_0 -->
<!-- s2_league4_game2_03_stac_1399316478&#45;&gt;s2_league4_game2_03_stac_1399316481 -->
<!-- 4_0 -->
<!-- s2_league4_game2_03_stac_1399316481&#45;&gt;4_0 -->
<!-- s2_league4_game2_03_stac_1399316481&#45;&gt;s2_league4_game2_03_stac_1399316484 -->
<!-- 5_0 -->
<!-- s2_league4_game2_03_stac_1399316484&#45;&gt;5_0 -->
<!-- s2_league4_game2_03_stac_1399316487 -->
<g id="node11" class="node">
<title>s2_league4_game2_03_stac_1399316487</title>
<g id="a_node11"><a xlink:title="6 &#160;ztime &#160;sorry...">
<ellipse fill="black" stroke="black" cx="30" cy="-69.5" rx="3.5" ry="3.5"/>
</a>
</g>
</g>
<!-- s2_league4_game2_03_stac_1399316484&#45;&gt;s2_league4_game2_03_stac_1399316487 -->
<g id="edge15" class="edge">
<title>s2_league4_game2_03_stac_1399316484&#45;&gt;s2_league4_game2_03_stac_1399316487</title>
<g id="a_edge15"><a xlink:title="Question_answer_pair">
<path fill="none" stroke="#12ffff" d="M48.15,-91.38C45.31,-88.11 39.75,-81.71 35.52,-76.85"/>
<polygon fill="#12ffff" stroke="#12ffff" points="36.74,-75.59 32.14,-72.96 34.1,-77.88 36.74,-75.59"/>
</a>
</g>
</g>
<!-- s2_league4_game2_03_stac_1399316490 -->
<g id="node15" class="node">
<title>s2_league4_game2_03_stac_1399316490</title>
<g id="a_node15"><a xlink:title="7 &#160;Shawnus &#160;i need sheep..not got any.">
<ellipse fill="black" stroke="black" cx="40" cy="-44.5" rx="3.5" ry="3.5"/>
</a>
</g>
</g>
<!-- s2_league4_game2_03_stac_1399316484&#45;&gt;s2_league4_game2_03_stac_1399316490 -->
<g id="edge16" class="edge">
<title>s2_league4_game2_03_stac_1399316484&#45;&gt;s2_league4_game2_03_stac_1399316490</title>
<g id="a_edge16"><a xlink:title="Question_answer_pair">
<path fill="none" stroke="#12ffff" d="M52.58,-91.84C58.71,-87.68 73.27,-76.38 68,-66 63.83,-57.77 54.63,-52.05 47.91,-48.78"/>
<polygon fill="#12ffff" stroke="#12ffff" points="48.29,-47.04 43.01,-46.61 46.88,-50.24 48.29,-47.04"/>
</a>
</g>
</g>
<!-- 6_0 -->
<!-- s2_league4_game2_03_stac_1399316487&#45;&gt;6_0 -->
<!-- s2_league4_game2_03_stac_1399316487&#45;&gt;s2_league4_game2_03_stac_1399316490 -->
<!-- s2_league4_game2_03_stac_1399316494 -->
<g id="node13" class="node">
<title>s2_league4_game2_03_stac_1399316494</title>
<g id="a_node13"><a xlink:title="8 &#160;ztime &#160;I don&#39;t have any sheep...">
<ellipse fill="black" stroke="black" cx="45" cy="-19.5" rx="3.5" ry="3.5"/>
</a>
</g>
</g>
<!-- 8_0 -->
<!-- s2_league4_game2_03_stac_1399316494&#45;&gt;8_0 -->
<!-- s2_league4_game2_03_stac_1399316490&#45;&gt;s2_league4_game2_03_stac_1399316494 -->
<g id="edge18" class="edge">
<title>s2_league4_game2_03_stac_1399316490&#45;&gt;s2_league4_game2_03_stac_1399316494</title>
<g id="a_edge18"><a xlink:title="Question_answer_pair">
<path fill="none" stroke="#12ffff" d="M40.54,-41.04C41.2,-37.97 42.37,-32.6 43.34,-28.12"/>
<polygon fill="#12ffff" stroke="#12ffff" points="45.07,-28.41 44.42,-23.16 41.65,-27.67 45.07,-28.41"/>
</a>
</g>
</g>
<!-- s2_league4_game2_03_stac_1399316491 -->
<g id="node16" class="node">
<title>s2_league4_game2_03_stac_1399316491</title>
<g id="a_node16"><a xlink:title="7 &#160;Shawnus &#160;Ztime has monopolised livestock">
<ellipse fill="black" stroke="black" cx="65" cy="-44.5" rx="3.5" ry="3.5"/>
</a>
</g>
</g>
<!-- s2_league4_game2_03_stac_1399316490&#45;&gt;s2_league4_game2_03_stac_1399316491 -->
<g id="edge17" class="edge">
<title>s2_league4_game2_03_stac_1399316490&#45;&gt;s2_league4_game2_03_stac_1399316491</title>
<g id="a_edge17"><a xlink:title="ExplanationResult">
<path fill="none" stroke="#a62139" d="M43.52,-44.5C47.78,-44.5 52.04,-44.5 56.3,-44.5"/>
<polygon fill="#a62139" stroke="#a62139" points="56.31,-46.25 61.31,-44.5 56.31,-42.75 56.31,-46.25"/>
</a>
</g>
</g>
<!-- s2_league4_game2_03_stac_1399316491&#45;&gt;s2_league4_game2_03_stac_1399316494 -->
<g id="edge19" class="edge">
<title>s2_league4_game2_03_stac_1399316491&#45;&gt;s2_league4_game2_03_stac_1399316494</title>
<g id="a_edge19"><a xlink:title="ContrastCorrection">
<path fill="none" stroke="#ff7ecf" d="M63.15,-41.38C60.31,-38.11 54.75,-31.71 50.52,-26.85"/>
<polygon fill="#ff7ecf" stroke="#ff7ecf" points="51.74,-25.59 47.14,-22.96 49.1,-27.88 51.74,-25.59"/>
</a>
</g>
</g>
</g>
</svg>
