<?xml version="1.0" encoding="UTF-8" standalone="no"?>
<!DOCTYPE svg PUBLIC "-//W3C//DTD SVG 1.1//EN"
 "http://www.w3.org/Graphics/SVG/1.1/DTD/svg11.dtd">
<!-- Generated by graphviz version 3.0.0 (20220226.1711)
 -->
<!-- Title: 3_s2_league4_game2_758 Pages: 1 -->
<svg width="113pt" height="670pt"
 viewBox="0.00 0.00 113.00 670.00" xmlns="http://www.w3.org/2000/svg" xmlns:xlink="http://www.w3.org/1999/xlink">
<g id="graph0" class="graph" transform="scale(1 1) rotate(0) translate(4 666)">
<title>3_s2_league4_game2_758</title>
<polygon fill="white" stroke="transparent" points="-4,4 -4,-666 109,-666 109,4 -4,4"/>
<g id="clust1" class="cluster">
<title>cluster_3_s2_league4_game2_758</title>
<polygon fill="none" stroke="black" points="8,-8 8,-654 97,-654 97,-8 8,-8"/>
<text text-anchor="middle" x="26.5" y="-638.8" font-family="Times,serif" font-size="14.00">758</text>
</g>
<!-- s2_league4_game2_03_stac_1399316498 -->
<g id="node1" class="node">
<title>s2_league4_game2_03_stac_1399316498</title>
<g id="a_node1"><a xlink:title="1 &#160;somdechn &#160;What do you need Shawnus">
<ellipse fill="black" stroke="black" cx="31" cy="-619.5" rx="3.5" ry="3.5"/>
</a>
</g>
</g>
<!-- 1_0 -->
<!-- s2_league4_game2_03_stac_1399316498&#45;&gt;1_0 -->
<!-- s2_league4_game2_03_stac_1399316501 -->
<g id="node3" class="node">
<title>s2_league4_game2_03_stac_1399316501</title>
<g id="a_node3"><a xlink:title="2 &#160;Shawnus &#160;sheep">
<ellipse fill="black" stroke="black" cx="20" cy="-594.5" rx="3.5" ry="3.5"/>
</a>
</g>
</g>
<!-- s2_league4_game2_03_stac_1399316498&#45;&gt;s2_league4_game2_03_stac_1399316501 -->
<g id="edge30" class="edge">
<title>s2_league4_game2_03_stac_1399316498&#45;&gt;s2_league4_game2_03_stac_1399316501</title>
<g id="a_edge30"><a xlink:title="Question_answer_pair">
<path fill="none" stroke="#12ffff" d="M29.82,-616.04C28.29,-612.84 25.56,-607.12 23.36,-602.53"/>
<polygon fill="#12ffff" stroke="#12ffff" points="24.87,-601.63 21.14,-597.87 21.71,-603.14 24.87,-601.63"/>
</a>
</g>
</g>
<!-- s2_league4_game2_03_stac_1399316504 -->
<g id="node5" class="node">
<title>s2_league4_game2_03_stac_1399316504</title>
<g id="a_node5"><a xlink:title="3 &#160;somdechn &#160;What can you give?">
<ellipse fill="black" stroke="black" cx="31" cy="-569.5" rx="3.5" ry="3.5"/>
</a>
</g>
</g>
<!-- s2_league4_game2_03_stac_1399316498&#45;&gt;s2_league4_game2_03_stac_1399316504 -->
<g id="edge31" class="edge">
<title>s2_league4_game2_03_stac_1399316498&#45;&gt;s2_league4_game2_03_stac_1399316504</title>
<g id="a_edge31"><a xlink:title="Q_Elab">
<path fill="none" stroke="#0d20ff" d="M31.34,-615.85C31.83,-611.95 32.69,-604.43 33,-598 33.33,-591.26 32.69,-583.6 32.05,-578.08"/>
<polygon fill="#0d20ff" stroke="#0d20ff" points="33.78,-577.81 31.4,-573.08 30.31,-578.26 33.78,-577.81"/>
</a>
</g>
</g>
<!-- 2_0 -->
<!-- s2_league4_game2_03_stac_1399316501&#45;&gt;2_0 -->
<!-- s2_league4_game2_03_stac_1399316501&#45;&gt;s2_league4_game2_03_stac_1399316504 -->
<!-- 3_0 -->
<!-- s2_league4_game2_03_stac_1399316504&#45;&gt;3_0 -->
<!-- s2_league4_game2_03_stac_1399316507 -->
<g id="node7" class="node">
<title>s2_league4_game2_03_stac_1399316507</title>
<g id="a_node7"><a xlink:title="4 &#160;Shawnus &#160;wood or ore">
<ellipse fill="black" stroke="black" cx="31" cy="-544.5" rx="3.5" ry="3.5"/>
</a>
</g>
</g>
<!-- s2_league4_game2_03_stac_1399316504&#45;&gt;s2_league4_game2_03_stac_1399316507 -->
<g id="edge32" class="edge">
<title>s2_league4_game2_03_stac_1399316504&#45;&gt;s2_league4_game2_03_stac_1399316507</title>
<g id="a_edge32"><a xlink:title="Question_answer_pair">
<path fill="none" stroke="#12ffff" d="M31,-565.68C31,-562.58 31,-557.47 31,-553.16"/>
<polygon fill="#12ffff" stroke="#12ffff" points="32.75,-553.06 31,-548.06 29.25,-553.06 32.75,-553.06"/>
</a>
</g>
</g>
<!-- 4_0 -->
<!-- s2_league4_game2_03_stac_1399316507&#45;&gt;4_0 -->
<!-- s2_league4_game2_03_stac_1399316510 -->
<g id="node9" class="node">
<title>s2_league4_game2_03_stac_1399316510</title>
<g id="a_node9"><a xlink:title="5 &#160;Shawnus &#160;damn">
<ellipse fill="black" stroke="black" cx="31" cy="-519.5" rx="3.5" ry="3.5"/>
</a>
</g>
</g>
<!-- s2_league4_game2_03_stac_1399316507&#45;&gt;s2_league4_game2_03_stac_1399316510 -->
<g id="edge33" class="edge">
<title>s2_league4_game2_03_stac_1399316507&#45;&gt;s2_league4_game2_03_stac_1399316510</title>
<g id="a_edge33"><a xlink:title="Comment">
<path fill="none" stroke="#ff8200" d="M31,-540.68C31,-537.58 31,-532.47 31,-528.16"/>
<polygon fill="#ff8200" stroke="#ff8200" points="32.75,-528.06 31,-523.06 29.25,-528.06 32.75,-528.06"/>
</a>
</g>
</g>
<!-- 5_0 -->
<!-- s2_league4_game2_03_stac_1399316510&#45;&gt;5_0 -->
<!-- s2_league4_game2_03_stac_1399316514 -->
<g id="node11" class="node">
<title>s2_league4_game2_03_stac_1399316514</title>
<g id="a_node11"><a xlink:title="6 &#160;ztime &#160;eh?">
<ellipse fill="black" stroke="black" cx="31" cy="-494.5" rx="3.5" ry="3.5"/>
</a>
</g>
</g>
<!-- s2_league4_game2_03_stac_1399316510&#45;&gt;s2_league4_game2_03_stac_1399316514 -->
<g id="edge34" class="edge">
<title>s2_league4_game2_03_stac_1399316510&#45;&gt;s2_league4_game2_03_stac_1399316514</title>
<g id="a_edge34"><a xlink:title="Clarification_question">
<path fill="none" stroke="#ff40d1" d="M31,-515.68C31,-512.58 31,-507.47 31,-503.16"/>
<polygon fill="#ff40d1" stroke="#ff40d1" points="32.75,-503.06 31,-498.06 29.25,-503.06 32.75,-503.06"/>
</a>
</g>
</g>
<!-- 6_0 -->
<!-- s2_league4_game2_03_stac_1399316514&#45;&gt;6_0 -->
<!-- s2_league4_game2_03_stac_1399316517 -->
<g id="node13" class="node">
<title>s2_league4_game2_03_stac_1399316517</title>
<g id="a_node13"><a xlink:title="7 &#160;ztime &#160;ooo..">
<ellipse fill="black" stroke="black" cx="31" cy="-469.5" rx="3.5" ry="3.5"/>
</a>
</g>
</g>
<!-- s2_league4_game2_03_stac_1399316514&#45;&gt;s2_league4_game2_03_stac_1399316517 -->
<g id="edge35" class="edge">
<title>s2_league4_game2_03_stac_1399316514&#45;&gt;s2_league4_game2_03_stac_1399316517</title>
<g id="a_edge35"><a xlink:title="Comment">
<path fill="none" stroke="#ff8200" d="M31,-490.68C31,-487.58 31,-482.47 31,-478.16"/>
<polygon fill="#ff8200" stroke="#ff8200" points="32.75,-478.06 31,-473.06 29.25,-478.06 32.75,-478.06"/>
</a>
</g>
</g>
<!-- 7_0 -->
<!-- s2_league4_game2_03_stac_1399316517&#45;&gt;7_0 -->
<!-- s2_league4_game2_03_stac_1399316520 -->
<g id="node15" class="node">
<title>s2_league4_game2_03_stac_1399316520</title>
<g id="a_node15"><a xlink:title="8 &#160;ztime &#160;7..">
<ellipse fill="black" stroke="black" cx="20" cy="-444.5" rx="3.5" ry="3.5"/>
</a>
</g>
</g>
<!-- s2_league4_game2_03_stac_1399316517&#45;&gt;s2_league4_game2_03_stac_1399316520 -->
<g id="edge36" class="edge">
<title>s2_league4_game2_03_stac_1399316517&#45;&gt;s2_league4_game2_03_stac_1399316520</title>
<g id="a_edge36"><a xlink:title="Elaboration">
<path fill="none" stroke="#a621c7" d="M29.82,-466.04C28.29,-462.84 25.56,-457.12 23.36,-452.53"/>
<polygon fill="#a621c7" stroke="#a621c7" points="24.87,-451.63 21.14,-447.87 21.71,-453.14 24.87,-451.63"/>
</a>
</g>
</g>
<!-- s2_league4_game2_03_stac_1399316523 -->
<g id="node17" class="node">
<title>s2_league4_game2_03_stac_1399316523</title>
<g id="a_node17"><a xlink:title="9 &#160;somdechn &#160;Wood would be nice">
<ellipse fill="black" stroke="black" cx="31" cy="-419.5" rx="3.5" ry="3.5"/>
</a>
</g>
</g>
<!-- s2_league4_game2_03_stac_1399316517&#45;&gt;s2_league4_game2_03_stac_1399316523 -->
<g id="edge37" class="edge">
<title>s2_league4_game2_03_stac_1399316517&#45;&gt;s2_league4_game2_03_stac_1399316523</title>
<g id="a_edge37"><a xlink:title="Comment">
<path fill="none" stroke="#ff8200" d="M31.34,-465.85C31.83,-461.95 32.69,-454.43 33,-448 33.33,-441.26 32.69,-433.6 32.05,-428.08"/>
<polygon fill="#ff8200" stroke="#ff8200" points="33.78,-427.81 31.4,-423.08 30.31,-428.26 33.78,-427.81"/>
</a>
</g>
</g>
<!-- 8_0 -->
<!-- s2_league4_game2_03_stac_1399316520&#45;&gt;8_0 -->
<!-- s2_league4_game2_03_stac_1399316520&#45;&gt;s2_league4_game2_03_stac_1399316523 -->
<!-- 9_0 -->
<!-- s2_league4_game2_03_stac_1399316523&#45;&gt;9_0 -->
<!-- s2_league4_game2_03_stac_1399316526 -->
<g id="node19" class="node">
<title>s2_league4_game2_03_stac_1399316526</title>
<g id="a_node19"><a xlink:title="10 &#160;somdechn &#160;Ho... no..">
<ellipse fill="black" stroke="black" cx="31" cy="-394.5" rx="3.5" ry="3.5"/>
</a>
</g>
</g>
<!-- s2_league4_game2_03_stac_1399316523&#45;&gt;s2_league4_game2_03_stac_1399316526 -->
<g id="edge38" class="edge">
<title>s2_league4_game2_03_stac_1399316523&#45;&gt;s2_league4_game2_03_stac_1399316526</title>
<g id="a_edge38"><a xlink:title="Comment">
<path fill="none" stroke="#ff8200" d="M31,-415.68C31,-412.58 31,-407.47 31,-403.16"/>
<polygon fill="#ff8200" stroke="#ff8200" points="32.75,-403.06 31,-398.06 29.25,-403.06 32.75,-403.06"/>
</a>
</g>
</g>
<!-- 10_0 -->
<!-- s2_league4_game2_03_stac_1399316526&#45;&gt;10_0 -->
<!-- s2_league4_game2_03_stac_1399316529 -->
<g id="node21" class="node">
<title>s2_league4_game2_03_stac_1399316529</title>
<g id="a_node21"><a xlink:title="11 &#160;Shawnus &#160;misprpressed to end my go!">
<ellipse fill="black" stroke="black" cx="20" cy="-369.5" rx="3.5" ry="3.5"/>
</a>
</g>
</g>
<!-- s2_league4_game2_03_stac_1399316526&#45;&gt;s2_league4_game2_03_stac_1399316529 -->
<g id="edge39" class="edge">
<title>s2_league4_game2_03_stac_1399316526&#45;&gt;s2_league4_game2_03_stac_1399316529</title>
<g id="a_edge39"><a xlink:title="Comment">
<path fill="none" stroke="#ff8200" d="M29.82,-391.04C28.29,-387.84 25.56,-382.12 23.36,-377.53"/>
<polygon fill="#ff8200" stroke="#ff8200" points="24.87,-376.63 21.14,-372.87 21.71,-378.14 24.87,-376.63"/>
</a>
</g>
</g>
<!-- s2_league4_game2_03_stac_1399316532 -->
<g id="node45" class="node">
<title>s2_league4_game2_03_stac_1399316532</title>
<g id="a_node45"><a xlink:title="12 &#160;ztime &#160;anyone want to give me wood..">
<ellipse fill="black" stroke="black" cx="37" cy="-344.5" rx="3.5" ry="3.5"/>
</a>
</g>
</g>
<!-- s2_league4_game2_03_stac_1399316526&#45;&gt;s2_league4_game2_03_stac_1399316532 -->
<g id="edge40" class="edge">
<title>s2_league4_game2_03_stac_1399316526&#45;&gt;s2_league4_game2_03_stac_1399316532</title>
<g id="a_edge40"><a xlink:title="ParallNarrContinuationbackground">
<path fill="none" stroke="#0ab046" d="M31.32,-390.92C32.19,-383.95 34.62,-364.55 36,-353.49"/>
<polygon fill="#0ab046" stroke="#0ab046" points="37.76,-353.51 36.65,-348.33 34.29,-353.08 37.76,-353.51"/>
</a>
</g>
</g>
<!-- 11_0 -->
<!-- s2_league4_game2_03_stac_1399316529&#45;&gt;11_0 -->
<!-- s2_league4_game2_03_stac_1399316529&#45;&gt;s2_league4_game2_03_stac_1399316532 -->
<!-- s2_league4_game2_03_stac_1399316540 -->
<g id="node23" class="node">
<title>s2_league4_game2_03_stac_1399316540</title>
<g id="a_node23"><a xlink:title="14 &#160;ztime &#160;sorry">
<ellipse fill="black" stroke="black" cx="37" cy="-294.5" rx="3.5" ry="3.5"/>
</a>
</g>
</g>
<!-- 14_0 -->
<!-- s2_league4_game2_03_stac_1399316540&#45;&gt;14_0 -->
<!-- s2_league4_game2_03_stac_1399316543 -->
<g id="node25" class="node">
<title>s2_league4_game2_03_stac_1399316543</title>
<g id="a_node25"><a xlink:title="15 &#160;ztime &#160;how about 2 wheat.. for 1 wood?">
<ellipse fill="black" stroke="black" cx="37" cy="-269.5" rx="3.5" ry="3.5"/>
</a>
</g>
</g>
<!-- s2_league4_game2_03_stac_1399316540&#45;&gt;s2_league4_game2_03_stac_1399316543 -->
<g id="edge45" class="edge">
<title>s2_league4_game2_03_stac_1399316540&#45;&gt;s2_league4_game2_03_stac_1399316543</title>
<g id="a_edge45"><a xlink:title="ParallNarrContinuationbackground">
<path fill="none" stroke="#0ab046" d="M37,-290.68C37,-287.58 37,-282.47 37,-278.16"/>
<polygon fill="#0ab046" stroke="#0ab046" points="38.75,-278.06 37,-273.06 35.25,-278.06 38.75,-278.06"/>
</a>
</g>
</g>
<!-- 15_0 -->
<!-- s2_league4_game2_03_stac_1399316543&#45;&gt;15_0 -->
<!-- s2_league4_game2_03_stac_1399316546 -->
<g id="node27" class="node">
<title>s2_league4_game2_03_stac_1399316546</title>
<g id="a_node27"><a xlink:title="16 &#160;somdechn &#160;Sorry...">
<ellipse fill="black" stroke="black" cx="32" cy="-244.5" rx="3.5" ry="3.5"/>
</a>
</g>
</g>
<!-- s2_league4_game2_03_stac_1399316543&#45;&gt;s2_league4_game2_03_stac_1399316546 -->
<g id="edge46" class="edge">
<title>s2_league4_game2_03_stac_1399316543&#45;&gt;s2_league4_game2_03_stac_1399316546</title>
<g id="a_edge46"><a xlink:title="Question_answer_pair">
<path fill="none" stroke="#12ffff" d="M36.46,-266.04C35.8,-262.97 34.63,-257.6 33.66,-253.12"/>
<polygon fill="#12ffff" stroke="#12ffff" points="35.35,-252.67 32.58,-248.16 31.93,-253.41 35.35,-252.67"/>
</a>
</g>
</g>
<!-- s2_league4_game2_03_stac_1399316549 -->
<g id="node29" class="node">
<title>s2_league4_game2_03_stac_1399316549</title>
<g id="a_node29"><a xlink:title="17 &#160;ztime &#160;how about 1 ore and 1 wheat for wood">
<ellipse fill="black" stroke="black" cx="55" cy="-219.5" rx="3.5" ry="3.5"/>
</a>
</g>
</g>
<!-- s2_league4_game2_03_stac_1399316543&#45;&gt;s2_league4_game2_03_stac_1399316549 -->
<g id="edge47" class="edge">
<title>s2_league4_game2_03_stac_1399316543&#45;&gt;s2_league4_game2_03_stac_1399316549</title>
<g id="a_edge47"><a xlink:title="Elaboration">
<path fill="none" stroke="#a621c7" d="M37.95,-266.11C39.47,-262.29 42.52,-254.58 45,-248 47.53,-241.3 50.3,-233.64 52.29,-228.1"/>
<polygon fill="#a621c7" stroke="#a621c7" points="54.05,-228.38 54.08,-223.09 50.75,-227.2 54.05,-228.38"/>
</a>
</g>
</g>
<!-- 16_0 -->
<!-- s2_league4_game2_03_stac_1399316546&#45;&gt;16_0 -->
<!-- s2_league4_game2_03_stac_1399316546&#45;&gt;s2_league4_game2_03_stac_1399316549 -->
<!-- s2_league4_game2_03_stac_1399316552 -->
<g id="node31" class="node">
<title>s2_league4_game2_03_stac_1399316552</title>
<g id="a_node31"><a xlink:title="18 &#160;ztime &#160;ok...">
<ellipse fill="black" stroke="black" cx="20" cy="-194.5" rx="3.5" ry="3.5"/>
</a>
</g>
</g>
<!-- s2_league4_game2_03_stac_1399316546&#45;&gt;s2_league4_game2_03_stac_1399316552 -->
<g id="edge48" class="edge">
<title>s2_league4_game2_03_stac_1399316546&#45;&gt;s2_league4_game2_03_stac_1399316552</title>
<g id="a_edge48"><a xlink:title="Acknowledgement">
<path fill="none" stroke="#12ffff" d="M31.35,-240.92C29.61,-233.95 24.76,-214.55 22,-203.49"/>
<polygon fill="#12ffff" stroke="#12ffff" points="23.62,-202.76 20.71,-198.33 20.22,-203.61 23.62,-202.76"/>
</a>
</g>
</g>
<!-- 17_0 -->
<!-- s2_league4_game2_03_stac_1399316549&#45;&gt;17_0 -->
<!-- s2_league4_game2_03_stac_1399316549&#45;&gt;s2_league4_game2_03_stac_1399316552 -->
<g id="edge49" class="edge">
<title>s2_league4_game2_03_stac_1399316549&#45;&gt;s2_league4_game2_03_stac_1399316552</title>
<g id="a_edge49"><a xlink:title="Question_answer_pair">
<path fill="none" stroke="#12ffff" d="M52.25,-216.7C46.91,-213.18 34.97,-205.33 27.21,-200.24"/>
<polygon fill="#12ffff" stroke="#12ffff" points="27.78,-198.52 22.64,-197.23 25.86,-201.44 27.78,-198.52"/>
</a>
</g>
</g>
<!-- s2_league4_game2_03_stac_1399316555 -->
<g id="node33" class="node">
<title>s2_league4_game2_03_stac_1399316555</title>
<g id="a_node33"><a xlink:title="19 &#160;somdechn &#160;Still can&#39;t do it..">
<ellipse fill="black" stroke="black" cx="40" cy="-169.5" rx="3.5" ry="3.5"/>
</a>
</g>
</g>
<!-- s2_league4_game2_03_stac_1399316549&#45;&gt;s2_league4_game2_03_stac_1399316555 -->
<g id="edge50" class="edge">
<title>s2_league4_game2_03_stac_1399316549&#45;&gt;s2_league4_game2_03_stac_1399316555</title>
<g id="a_edge50"><a xlink:title="Question_answer_pair">
<path fill="none" stroke="#12ffff" d="M55.96,-216.13C57.8,-211.25 61.32,-199.81 58,-191 55.69,-184.88 50.64,-179.4 46.47,-175.65"/>
<polygon fill="#12ffff" stroke="#12ffff" points="47.43,-174.17 42.47,-172.31 45.19,-176.85 47.43,-174.17"/>
</a>
</g>
</g>
<!-- s2_league4_game2_03_stac_1399316558 -->
<g id="node35" class="node">
<title>s2_league4_game2_03_stac_1399316558</title>
<g id="a_node35"><a xlink:title="20 &#160;Shawnus &#160;you want 1 wood?">
<ellipse fill="black" stroke="black" cx="50" cy="-144.5" rx="3.5" ry="3.5"/>
</a>
</g>
</g>
<!-- s2_league4_game2_03_stac_1399316549&#45;&gt;s2_league4_game2_03_stac_1399316558 -->
<g id="edge51" class="edge">
<title>s2_league4_game2_03_stac_1399316549&#45;&gt;s2_league4_game2_03_stac_1399316558</title>
<g id="a_edge51"><a xlink:title="Q_Elab">
<path fill="none" stroke="#0d20ff" d="M57.22,-216.46C64.66,-209.37 87.72,-185.17 78,-166 73.83,-157.77 64.63,-152.05 57.91,-148.78"/>
<polygon fill="#0d20ff" stroke="#0d20ff" points="58.29,-147.04 53.01,-146.61 56.88,-150.24 58.29,-147.04"/>
</a>
</g>
</g>
<!-- 18_0 -->
<!-- s2_league4_game2_03_stac_1399316552&#45;&gt;18_0 -->
<!-- s2_league4_game2_03_stac_1399316552&#45;&gt;s2_league4_game2_03_stac_1399316555 -->
<!-- 19_0 -->
<!-- s2_league4_game2_03_stac_1399316555&#45;&gt;19_0 -->
<!-- s2_league4_game2_03_stac_1399316555&#45;&gt;s2_league4_game2_03_stac_1399316558 -->
<!-- 20_0 -->
<!-- s2_league4_game2_03_stac_1399316558&#45;&gt;20_0 -->
<!-- s2_league4_game2_03_stac_1399316561 -->
<g id="node49" class="node">
<title>s2_league4_game2_03_stac_1399316561</title>
<g id="a_node49"><a xlink:title="21 &#160;ztime &#160;i did..">
<ellipse fill="black" stroke="black" cx="50" cy="-119.5" rx="3.5" ry="3.5"/>
</a>
</g>
</g>
<!-- s2_league4_game2_03_stac_1399316558&#45;&gt;s2_league4_game2_03_stac_1399316561 -->
<g id="edge52" class="edge">
<title>s2_league4_game2_03_stac_1399316558&#45;&gt;s2_league4_game2_03_stac_1399316561</title>
<g id="a_edge52"><a xlink:title="Question_answer_pair">
<path fill="none" stroke="#12ffff" d="M50,-140.68C50,-137.58 50,-132.47 50,-128.16"/>
<polygon fill="#12ffff" stroke="#12ffff" points="51.75,-128.06 50,-123.06 48.25,-128.06 51.75,-128.06"/>
</a>
</g>
</g>
<!-- s2_league4_game2_03_stac_1399316565 -->
<g id="node37" class="node">
<title>s2_league4_game2_03_stac_1399316565</title>
<g id="a_node37"><a xlink:title="22 &#160;Shawnus &#160;damn">
<ellipse fill="black" stroke="black" cx="36" cy="-94.5" rx="3.5" ry="3.5"/>
</a>
</g>
</g>
<!-- 22_0 -->
<!-- s2_league4_game2_03_stac_1399316565&#45;&gt;22_0 -->
<!-- s2_league4_game2_03_stac_1399316568 -->
<g id="node39" class="node">
<title>s2_league4_game2_03_stac_1399316568</title>
<g id="a_node39"><a xlink:title="23 &#160;Shawnus &#160;haha">
<ellipse fill="black" stroke="black" cx="36" cy="-69.5" rx="3.5" ry="3.5"/>
</a>
</g>
</g>
<!-- s2_league4_game2_03_stac_1399316565&#45;&gt;s2_league4_game2_03_stac_1399316568 -->
<g id="edge55" class="edge">
<title>s2_league4_game2_03_stac_1399316565&#45;&gt;s2_league4_game2_03_stac_1399316568</title>
<g id="a_edge55"><a xlink:title="Comment">
<path fill="none" stroke="#ff8200" d="M36,-90.68C36,-87.58 36,-82.47 36,-78.16"/>
<polygon fill="#ff8200" stroke="#ff8200" points="37.75,-78.06 36,-73.06 34.25,-78.06 37.75,-78.06"/>
</a>
</g>
</g>
<!-- 23_0 -->
<!-- s2_league4_game2_03_stac_1399316568&#45;&gt;23_0 -->
<!-- s2_league4_game2_03_stac_1399316572 -->
<g id="node41" class="node">
<title>s2_league4_game2_03_stac_1399316572</title>
<g id="a_node41"><a xlink:title="24 &#160;ztime &#160;yer... expensive banks.. just like real life..">
<ellipse fill="black" stroke="black" cx="46" cy="-44.5" rx="3.5" ry="3.5"/>
</a>
</g>
</g>
<!-- s2_league4_game2_03_stac_1399316568&#45;&gt;s2_league4_game2_03_stac_1399316572 -->
<!-- 24_0 -->
<!-- s2_league4_game2_03_stac_1399316572&#45;&gt;24_0 -->
<!-- s2_league4_game2_03_stac_1399316575 -->
<g id="node43" class="node">
<title>s2_league4_game2_03_stac_1399316575</title>
<g id="a_node43"><a xlink:title="25 &#160;Shawnus &#160;indeed it is">
<ellipse fill="black" stroke="black" cx="46" cy="-19.5" rx="3.5" ry="3.5"/>
</a>
</g>
</g>
<!-- s2_league4_game2_03_stac_1399316572&#45;&gt;s2_league4_game2_03_stac_1399316575 -->
<g id="edge57" class="edge">
<title>s2_league4_game2_03_stac_1399316572&#45;&gt;s2_league4_game2_03_stac_1399316575</title>
<g id="a_edge57"><a xlink:title="Acknowledgement">
<path fill="none" stroke="#12ffff" d="M46,-40.68C46,-37.58 46,-32.47 46,-28.16"/>
<polygon fill="#12ffff" stroke="#12ffff" points="47.75,-28.06 46,-23.06 44.25,-28.06 47.75,-28.06"/>
</a>
</g>
</g>
<!-- 25_0 -->
<!-- s2_league4_game2_03_stac_1399316575&#45;&gt;25_0 -->
<!-- s2_league4_game2_03_stac_1399316533 -->
<g id="node46" class="node">
<title>s2_league4_game2_03_stac_1399316533</title>
<g id="a_node46"><a xlink:title="12 &#160;ztime &#160;I&#39;ll give wheat...">
<ellipse fill="black" stroke="black" cx="62" cy="-344.5" rx="3.5" ry="3.5"/>
</a>
</g>
</g>
<!-- s2_league4_game2_03_stac_1399316532&#45;&gt;s2_league4_game2_03_stac_1399316533 -->
<g id="edge41" class="edge">
<title>s2_league4_game2_03_stac_1399316532&#45;&gt;s2_league4_game2_03_stac_1399316533</title>
<g id="a_edge41"><a xlink:title="Elaboration">
<path fill="none" stroke="#a621c7" d="M40.52,-344.5C44.78,-344.5 49.04,-344.5 53.3,-344.5"/>
<polygon fill="#a621c7" stroke="#a621c7" points="53.31,-346.25 58.31,-344.5 53.31,-342.75 53.31,-346.25"/>
</a>
</g>
</g>
<!-- s2_league4_game2_03_stac_1399316536 -->
<g id="node47" class="node">
<title>s2_league4_game2_03_stac_1399316536</title>
<g id="a_node47"><a xlink:title="13 &#160;somdechn &#160;Give me clay">
<ellipse fill="black" stroke="black" cx="37" cy="-319.5" rx="3.5" ry="3.5"/>
</a>
</g>
</g>
<!-- s2_league4_game2_03_stac_1399316532&#45;&gt;s2_league4_game2_03_stac_1399316536 -->
<g id="edge42" class="edge">
<title>s2_league4_game2_03_stac_1399316532&#45;&gt;s2_league4_game2_03_stac_1399316536</title>
<g id="a_edge42"><a xlink:title="Question_answer_pair">
<path fill="none" stroke="#12ffff" d="M37,-340.68C37,-337.58 37,-332.47 37,-328.16"/>
<polygon fill="#12ffff" stroke="#12ffff" points="38.75,-328.06 37,-323.06 35.25,-328.06 38.75,-328.06"/>
</a>
</g>
</g>
<!-- s2_league4_game2_03_stac_1399316536&#45;&gt;s2_league4_game2_03_stac_1399316540 -->
<g id="edge44" class="edge">
<title>s2_league4_game2_03_stac_1399316536&#45;&gt;s2_league4_game2_03_stac_1399316540</title>
<g id="a_edge44"><a xlink:title="Question_answer_pair">
<path fill="none" stroke="#12ffff" d="M37,-315.68C37,-312.58 37,-307.47 37,-303.16"/>
<polygon fill="#12ffff" stroke="#12ffff" points="38.75,-303.06 37,-298.06 35.25,-303.06 38.75,-303.06"/>
</a>
</g>
</g>
<!-- s2_league4_game2_03_stac_1399316537 -->
<g id="node48" class="node">
<title>s2_league4_game2_03_stac_1399316537</title>
<g id="a_node48"><a xlink:title="13 &#160;somdechn &#160;and we might have a deal.">
<ellipse fill="black" stroke="black" cx="62" cy="-319.5" rx="3.5" ry="3.5"/>
</a>
</g>
</g>
<!-- s2_league4_game2_03_stac_1399316536&#45;&gt;s2_league4_game2_03_stac_1399316537 -->
<g id="edge43" class="edge">
<title>s2_league4_game2_03_stac_1399316536&#45;&gt;s2_league4_game2_03_stac_1399316537</title>
<g id="a_edge43"><a xlink:title="ParallNarrContinuationbackground">
<path fill="none" stroke="#0ab046" d="M40.52,-319.5C44.78,-319.5 49.04,-319.5 53.3,-319.5"/>
<polygon fill="#0ab046" stroke="#0ab046" points="53.31,-321.25 58.31,-319.5 53.31,-317.75 53.31,-321.25"/>
</a>
</g>
</g>
<!-- s2_league4_game2_03_stac_1399316561&#45;&gt;s2_league4_game2_03_stac_1399316565 -->
<g id="edge54" class="edge">
<title>s2_league4_game2_03_stac_1399316561&#45;&gt;s2_league4_game2_03_stac_1399316565</title>
<g id="a_edge54"><a xlink:title="Comment">
<path fill="none" stroke="#ff8200" d="M48.5,-116.04C46.51,-112.77 42.92,-106.87 40.1,-102.23"/>
<polygon fill="#ff8200" stroke="#ff8200" points="41.54,-101.24 37.45,-97.87 38.55,-103.06 41.54,-101.24"/>
</a>
</g>
</g>
<!-- s2_league4_game2_03_stac_1399316562 -->
<g id="node50" class="node">
<title>s2_league4_game2_03_stac_1399316562</title>
<g id="a_node50"><a xlink:title="21 &#160;ztime &#160;but just traded with bank...">
<ellipse fill="black" stroke="black" cx="80" cy="-119.5" rx="3.5" ry="3.5"/>
</a>
</g>
</g>
<!-- s2_league4_game2_03_stac_1399316561&#45;&gt;s2_league4_game2_03_stac_1399316562 -->
<g id="edge53" class="edge">
<title>s2_league4_game2_03_stac_1399316561&#45;&gt;s2_league4_game2_03_stac_1399316562</title>
<g id="a_edge53"><a xlink:title="ContrastCorrection">
<path fill="none" stroke="#ff7ecf" d="M53.75,-119.5C59.51,-119.5 65.26,-119.5 71.02,-119.5"/>
<polygon fill="#ff7ecf" stroke="#ff7ecf" points="71.31,-121.25 76.31,-119.5 71.31,-117.75 71.31,-121.25"/>
</a>
</g>
</g>
<!-- s2_league4_game2_03_stac_1399316562&#45;&gt;s2_league4_game2_03_stac_1399316572 -->
<g id="edge56" class="edge">
<title>s2_league4_game2_03_stac_1399316562&#45;&gt;s2_league4_game2_03_stac_1399316572</title>
<g id="a_edge56"><a xlink:title="Elaboration">
<path fill="none" stroke="#a621c7" d="M80.4,-115.87C81.47,-107.78 83.77,-82.82 74,-66 69.37,-58.02 60.26,-52.25 53.69,-48.91"/>
<polygon fill="#a621c7" stroke="#a621c7" points="54.19,-47.21 48.92,-46.67 52.7,-50.38 54.19,-47.21"/>
</a>
</g>
</g>
</g>
</svg>
