<?xml version="1.0" encoding="UTF-8" standalone="no"?>
<!DOCTYPE svg PUBLIC "-//W3C//DTD SVG 1.1//EN"
 "http://www.w3.org/Graphics/SVG/1.1/DTD/svg11.dtd">
<!-- Generated by graphviz version 3.0.0 (20220226.1711)
 -->
<!-- Title: 4_s2_league4_game2_760 Pages: 1 -->
<svg width="68pt" height="220pt"
 viewBox="0.00 0.00 68.00 220.00" xmlns="http://www.w3.org/2000/svg" xmlns:xlink="http://www.w3.org/1999/xlink">
<g id="graph0" class="graph" transform="scale(1 1) rotate(0) translate(4 216)">
<title>4_s2_league4_game2_760</title>
<polygon fill="white" stroke="transparent" points="-4,4 -4,-216 64,-216 64,4 -4,4"/>
<g id="clust1" class="cluster">
<title>cluster_4_s2_league4_game2_760</title>
<polygon fill="none" stroke="black" points="8,-8 8,-204 52,-204 52,-8 8,-8"/>
<text text-anchor="middle" x="26.5" y="-188.8" font-family="Times,serif" font-size="14.00">760</text>
</g>
<!-- s2_league4_game2_04_stac_1399316473 -->
<g id="node1" class="node">
<title>s2_league4_game2_04_stac_1399316473</title>
<g id="a_node1"><a xlink:title="1 &#160;ztime &#160;and the 7s have started....">
<ellipse fill="black" stroke="black" cx="30" cy="-169.5" rx="3.5" ry="3.5"/>
</a>
</g>
</g>
<!-- s2_league4_game2_04_stac_1399316476 -->
<g id="node2" class="node">
<title>s2_league4_game2_04_stac_1399316476</title>
<g id="a_node2"><a xlink:title="2 &#160;Shawnus &#160;glad I got rid of some resources then...">
<ellipse fill="black" stroke="black" cx="30" cy="-144.5" rx="3.5" ry="3.5"/>
</a>
</g>
</g>
<!-- s2_league4_game2_04_stac_1399316473&#45;&gt;s2_league4_game2_04_stac_1399316476 -->
<g id="edge2" class="edge">
<title>s2_league4_game2_04_stac_1399316473&#45;&gt;s2_league4_game2_04_stac_1399316476</title>
<g id="a_edge2"><a xlink:title="Comment">
<path fill="none" stroke="#ff8200" d="M30,-165.68C30,-162.58 30,-157.47 30,-153.16"/>
<polygon fill="#ff8200" stroke="#ff8200" points="31.75,-153.06 30,-148.06 28.25,-153.06 31.75,-153.06"/>
</a>
</g>
</g>
<!-- s2_league4_game2_04_stac_1399316479 -->
<g id="node3" class="node">
<title>s2_league4_game2_04_stac_1399316479</title>
<g id="a_node3"><a xlink:title="3 &#160;ztime &#160;anyone want wood...">
<ellipse fill="black" stroke="black" cx="30" cy="-119.5" rx="3.5" ry="3.5"/>
</a>
</g>
</g>
<!-- s2_league4_game2_04_stac_1399316476&#45;&gt;s2_league4_game2_04_stac_1399316479 -->
<g id="edge3" class="edge">
<title>s2_league4_game2_04_stac_1399316476&#45;&gt;s2_league4_game2_04_stac_1399316479</title>
<g id="a_edge3"><a xlink:title="ParallNarrContinuationbackground">
<path fill="none" stroke="#0ab046" d="M30,-140.68C30,-137.58 30,-132.47 30,-128.16"/>
<polygon fill="#0ab046" stroke="#0ab046" points="31.75,-128.06 30,-123.06 28.25,-128.06 31.75,-128.06"/>
</a>
</g>
</g>
<!-- s2_league4_game2_04_stac_1399316482 -->
<g id="node4" class="node">
<title>s2_league4_game2_04_stac_1399316482</title>
<g id="a_node4"><a xlink:title="4 &#160;ztime &#160;I&#39;m after clay">
<ellipse fill="black" stroke="black" cx="20" cy="-94.5" rx="3.5" ry="3.5"/>
</a>
</g>
</g>
<!-- s2_league4_game2_04_stac_1399316479&#45;&gt;s2_league4_game2_04_stac_1399316482 -->
<g id="edge4" class="edge">
<title>s2_league4_game2_04_stac_1399316479&#45;&gt;s2_league4_game2_04_stac_1399316482</title>
<g id="a_edge4"><a xlink:title="Elaboration">
<path fill="none" stroke="#a621c7" d="M28.93,-116.04C27.54,-112.84 25.05,-107.12 23.06,-102.53"/>
<polygon fill="#a621c7" stroke="#a621c7" points="24.63,-101.76 21.03,-97.87 21.42,-103.16 24.63,-101.76"/>
</a>
</g>
</g>
<!-- s2_league4_game2_04_stac_1399316485 -->
<g id="node5" class="node">
<title>s2_league4_game2_04_stac_1399316485</title>
<g id="a_node5"><a xlink:title="5 &#160;Shawnus &#160;got no clay">
<ellipse fill="black" stroke="black" cx="30" cy="-69.5" rx="3.5" ry="3.5"/>
</a>
</g>
</g>
<!-- s2_league4_game2_04_stac_1399316479&#45;&gt;s2_league4_game2_04_stac_1399316485 -->
<g id="edge5" class="edge">
<title>s2_league4_game2_04_stac_1399316479&#45;&gt;s2_league4_game2_04_stac_1399316485</title>
<g id="a_edge5"><a xlink:title="Question_answer_pair">
<path fill="none" stroke="#12ffff" d="M30.59,-115.93C31.65,-111.07 33.67,-100.2 33,-91 32.69,-86.76 32.03,-82.07 31.4,-78.25"/>
<polygon fill="#12ffff" stroke="#12ffff" points="33.1,-77.76 30.51,-73.14 29.65,-78.37 33.1,-77.76"/>
</a>
</g>
</g>
<!-- s2_league4_game2_04_stac_1399316482&#45;&gt;s2_league4_game2_04_stac_1399316485 -->
<!-- s2_league4_game2_04_stac_1399316488 -->
<g id="node6" class="node">
<title>s2_league4_game2_04_stac_1399316488</title>
<g id="a_node6"><a xlink:title="6 &#160;somdechn &#160;No clay from me my friend.">
<ellipse fill="black" stroke="black" cx="20" cy="-44.5" rx="3.5" ry="3.5"/>
</a>
</g>
</g>
<!-- s2_league4_game2_04_stac_1399316485&#45;&gt;s2_league4_game2_04_stac_1399316488 -->
<g id="edge6" class="edge">
<title>s2_league4_game2_04_stac_1399316485&#45;&gt;s2_league4_game2_04_stac_1399316488</title>
<g id="a_edge6"><a xlink:title="ParallNarrContinuationbackground">
<path fill="none" stroke="#0ab046" d="M28.93,-66.04C27.54,-62.84 25.05,-57.12 23.06,-52.53"/>
<polygon fill="#0ab046" stroke="#0ab046" points="24.63,-51.76 21.03,-47.87 21.42,-53.16 24.63,-51.76"/>
</a>
</g>
</g>
<!-- s2_league4_game2_04_stac_1399316491 -->
<g id="node7" class="node">
<title>s2_league4_game2_04_stac_1399316491</title>
<g id="a_node7"><a xlink:title="7 &#160;ztime &#160;OK.. ta">
<ellipse fill="black" stroke="black" cx="30" cy="-19.5" rx="3.5" ry="3.5"/>
</a>
</g>
</g>
<!-- s2_league4_game2_04_stac_1399316485&#45;&gt;s2_league4_game2_04_stac_1399316491 -->
<g id="edge7" class="edge">
<title>s2_league4_game2_04_stac_1399316485&#45;&gt;s2_league4_game2_04_stac_1399316491</title>
<g id="a_edge7"><a xlink:title="Acknowledgement">
<path fill="none" stroke="#12ffff" d="M30.59,-65.93C31.65,-61.07 33.67,-50.2 33,-41 32.69,-36.76 32.03,-32.07 31.4,-28.25"/>
<polygon fill="#12ffff" stroke="#12ffff" points="33.1,-27.76 30.51,-23.14 29.65,-28.37 33.1,-27.76"/>
</a>
</g>
</g>
<!-- s2_league4_game2_04_stac_1399316488&#45;&gt;s2_league4_game2_04_stac_1399316491 -->
<g id="edge8" class="edge">
<title>s2_league4_game2_04_stac_1399316488&#45;&gt;s2_league4_game2_04_stac_1399316491</title>
<g id="a_edge8"><a xlink:title="Acknowledgement">
<path fill="none" stroke="#12ffff" d="M21.07,-41.04C22.46,-37.84 24.95,-32.12 26.94,-27.53"/>
<polygon fill="#12ffff" stroke="#12ffff" points="28.58,-28.16 28.97,-22.87 25.37,-26.76 28.58,-28.16"/>
</a>
</g>
</g>
</g>
</svg>
