<?xml version="1.0" encoding="UTF-8" standalone="no"?>
<!DOCTYPE svg PUBLIC "-//W3C//DTD SVG 1.1//EN"
 "http://www.w3.org/Graphics/SVG/1.1/DTD/svg11.dtd">
<!-- Generated by graphviz version 3.0.0 (20220226.1711)
 -->
<!-- Title: 4_s2_league4_game2_761 Pages: 1 -->
<svg width="93pt" height="220pt"
 viewBox="0.00 0.00 93.00 220.00" xmlns="http://www.w3.org/2000/svg" xmlns:xlink="http://www.w3.org/1999/xlink">
<g id="graph0" class="graph" transform="scale(1 1) rotate(0) translate(4 216)">
<title>4_s2_league4_game2_761</title>
<polygon fill="white" stroke="transparent" points="-4,4 -4,-216 89,-216 89,4 -4,4"/>
<g id="clust1" class="cluster">
<title>cluster_4_s2_league4_game2_761</title>
<polygon fill="none" stroke="black" points="8,-8 8,-204 77,-204 77,-8 8,-8"/>
<text text-anchor="middle" x="26.5" y="-188.8" font-family="Times,serif" font-size="14.00">761</text>
</g>
<!-- s2_league4_game2_04_stac_1399316495 -->
<g id="node1" class="node">
<title>s2_league4_game2_04_stac_1399316495</title>
<g id="a_node1"><a xlink:title="1 &#160;somdechn &#160;I can give wood for ore or wheat.">
<ellipse fill="black" stroke="black" cx="20" cy="-169.5" rx="3.5" ry="3.5"/>
</a>
</g>
</g>
<!-- 1_0 -->
<!-- s2_league4_game2_04_stac_1399316495&#45;&gt;1_0 -->
<!-- s2_league4_game2_04_stac_1399316498 -->
<g id="node13" class="node">
<title>s2_league4_game2_04_stac_1399316498</title>
<g id="a_node13"><a xlink:title="2 &#160;ztime &#160;sorry...">
<ellipse fill="black" stroke="black" cx="20" cy="-144.5" rx="3.5" ry="3.5"/>
</a>
</g>
</g>
<!-- s2_league4_game2_04_stac_1399316495&#45;&gt;s2_league4_game2_04_stac_1399316498 -->
<g id="edge10" class="edge">
<title>s2_league4_game2_04_stac_1399316495&#45;&gt;s2_league4_game2_04_stac_1399316498</title>
<g id="a_edge10"><a xlink:title="Question_answer_pair">
<path fill="none" stroke="#12ffff" d="M20,-165.68C20,-162.58 20,-157.47 20,-153.16"/>
<polygon fill="#12ffff" stroke="#12ffff" points="21.75,-153.06 20,-148.06 18.25,-153.06 21.75,-153.06"/>
</a>
</g>
</g>
<!-- s2_league4_game2_04_stac_1399316502 -->
<g id="node3" class="node">
<title>s2_league4_game2_04_stac_1399316502</title>
<g id="a_node3"><a xlink:title="3 &#160;Shawnus &#160;1 for 1, ok">
<ellipse fill="black" stroke="black" cx="20" cy="-119.5" rx="3.5" ry="3.5"/>
</a>
</g>
</g>
<!-- 3_0 -->
<!-- s2_league4_game2_04_stac_1399316502&#45;&gt;3_0 -->
<!-- s2_league4_game2_04_stac_1399316505 -->
<g id="node5" class="node">
<title>s2_league4_game2_04_stac_1399316505</title>
<g id="a_node5"><a xlink:title="4 &#160;somdechn &#160;yep">
<ellipse fill="black" stroke="black" cx="30" cy="-94.5" rx="3.5" ry="3.5"/>
</a>
</g>
</g>
<!-- s2_league4_game2_04_stac_1399316502&#45;&gt;s2_league4_game2_04_stac_1399316505 -->
<!-- 4_0 -->
<!-- s2_league4_game2_04_stac_1399316505&#45;&gt;4_0 -->
<!-- s2_league4_game2_04_stac_1399316508 -->
<g id="node7" class="node">
<title>s2_league4_game2_04_stac_1399316508</title>
<g id="a_node7"><a xlink:title="5 &#160;Shawnus &#160;ok">
<ellipse fill="black" stroke="black" cx="20" cy="-69.5" rx="3.5" ry="3.5"/>
</a>
</g>
</g>
<!-- s2_league4_game2_04_stac_1399316505&#45;&gt;s2_league4_game2_04_stac_1399316508 -->
<g id="edge14" class="edge">
<title>s2_league4_game2_04_stac_1399316505&#45;&gt;s2_league4_game2_04_stac_1399316508</title>
<g id="a_edge14"><a xlink:title="Acknowledgement">
<path fill="none" stroke="#12ffff" d="M28.93,-91.04C27.54,-87.84 25.05,-82.12 23.06,-77.53"/>
<polygon fill="#12ffff" stroke="#12ffff" points="24.63,-76.76 21.03,-72.87 21.42,-78.16 24.63,-76.76"/>
</a>
</g>
</g>
<!-- s2_league4_game2_04_stac_1399316511 -->
<g id="node9" class="node">
<title>s2_league4_game2_04_stac_1399316511</title>
<g id="a_node9"><a xlink:title="6 &#160;somdechn &#160;What can you give?">
<ellipse fill="black" stroke="black" cx="30" cy="-44.5" rx="3.5" ry="3.5"/>
</a>
</g>
</g>
<!-- s2_league4_game2_04_stac_1399316505&#45;&gt;s2_league4_game2_04_stac_1399316511 -->
<g id="edge15" class="edge">
<title>s2_league4_game2_04_stac_1399316505&#45;&gt;s2_league4_game2_04_stac_1399316511</title>
<g id="a_edge15"><a xlink:title="Q_Elab">
<path fill="none" stroke="#0d20ff" d="M33.01,-92.39C39.08,-89.95 52.66,-83.53 58,-73 63.46,-62.24 47.96,-53.2 37.89,-48.66"/>
<polygon fill="#0d20ff" stroke="#0d20ff" points="38.55,-47.04 33.26,-46.7 37.19,-50.26 38.55,-47.04"/>
</a>
</g>
</g>
<!-- 5_0 -->
<!-- s2_league4_game2_04_stac_1399316508&#45;&gt;5_0 -->
<!-- s2_league4_game2_04_stac_1399316508&#45;&gt;s2_league4_game2_04_stac_1399316511 -->
<!-- 6_0 -->
<!-- s2_league4_game2_04_stac_1399316511&#45;&gt;6_0 -->
<!-- s2_league4_game2_04_stac_1399316514 -->
<g id="node11" class="node">
<title>s2_league4_game2_04_stac_1399316514</title>
<g id="a_node11"><a xlink:title="7 &#160;Shawnus &#160;wheat">
<ellipse fill="black" stroke="black" cx="30" cy="-19.5" rx="3.5" ry="3.5"/>
</a>
</g>
</g>
<!-- s2_league4_game2_04_stac_1399316511&#45;&gt;s2_league4_game2_04_stac_1399316514 -->
<g id="edge16" class="edge">
<title>s2_league4_game2_04_stac_1399316511&#45;&gt;s2_league4_game2_04_stac_1399316514</title>
<g id="a_edge16"><a xlink:title="Question_answer_pair">
<path fill="none" stroke="#12ffff" d="M30,-40.68C30,-37.58 30,-32.47 30,-28.16"/>
<polygon fill="#12ffff" stroke="#12ffff" points="31.75,-28.06 30,-23.06 28.25,-28.06 31.75,-28.06"/>
</a>
</g>
</g>
<!-- 7_0 -->
<!-- s2_league4_game2_04_stac_1399316514&#45;&gt;7_0 -->
<!-- s2_league4_game2_04_stac_1399316498&#45;&gt;s2_league4_game2_04_stac_1399316502 -->
<!-- s2_league4_game2_04_stac_1399316499 -->
<g id="node14" class="node">
<title>s2_league4_game2_04_stac_1399316499</title>
<g id="a_node14"><a xlink:title="2 &#160;ztime &#160;trying to ship wood out..">
<ellipse fill="black" stroke="black" cx="45" cy="-144.5" rx="3.5" ry="3.5"/>
</a>
</g>
</g>
<!-- s2_league4_game2_04_stac_1399316498&#45;&gt;s2_league4_game2_04_stac_1399316499 -->
<g id="edge11" class="edge">
<title>s2_league4_game2_04_stac_1399316498&#45;&gt;s2_league4_game2_04_stac_1399316499</title>
<g id="a_edge11"><a xlink:title="ExplanationResult">
<path fill="none" stroke="#a62139" d="M23.52,-144.5C27.78,-144.5 32.04,-144.5 36.3,-144.5"/>
<polygon fill="#a62139" stroke="#a62139" points="36.31,-146.25 41.31,-144.5 36.31,-142.75 36.31,-146.25"/>
</a>
</g>
</g>
<!-- s2_league4_game2_04_stac_1399316499&#45;&gt;s2_league4_game2_04_stac_1399316502 -->
<g id="edge12" class="edge">
<title>s2_league4_game2_04_stac_1399316499&#45;&gt;s2_league4_game2_04_stac_1399316502</title>
<g id="a_edge12"><a xlink:title="Question_answer_pair">
<path fill="none" stroke="#12ffff" d="M42.69,-141.38C38.92,-137.9 31.3,-130.89 25.93,-125.96"/>
<polygon fill="#12ffff" stroke="#12ffff" points="26.95,-124.52 22.09,-122.42 24.58,-127.09 26.95,-124.52"/>
</a>
</g>
</g>
<!-- s2_league4_game2_04_stac_1399316499&#45;&gt;s2_league4_game2_04_stac_1399316505 -->
<g id="edge13" class="edge">
<title>s2_league4_game2_04_stac_1399316499&#45;&gt;s2_league4_game2_04_stac_1399316505</title>
<g id="a_edge13"><a xlink:title="Question_answer_pair">
<path fill="none" stroke="#12ffff" d="M47.28,-141.48C52.16,-136.91 62.78,-125.42 58,-116 53.83,-107.77 44.63,-102.05 37.91,-98.78"/>
<polygon fill="#12ffff" stroke="#12ffff" points="38.29,-97.04 33.01,-96.61 36.88,-100.24 38.29,-97.04"/>
</a>
</g>
</g>
</g>
</svg>
