<?xml version="1.0" encoding="UTF-8" standalone="no"?>
<!DOCTYPE svg PUBLIC "-//W3C//DTD SVG 1.1//EN"
 "http://www.w3.org/Graphics/SVG/1.1/DTD/svg11.dtd">
<!-- Generated by graphviz version 3.0.0 (20220226.1711)
 -->
<!-- Title: 4_s2_league4_game2_763 Pages: 1 -->
<svg width="134pt" height="370pt"
 viewBox="0.00 0.00 134.00 370.00" xmlns="http://www.w3.org/2000/svg" xmlns:xlink="http://www.w3.org/1999/xlink">
<g id="graph0" class="graph" transform="scale(1 1) rotate(0) translate(4 366)">
<title>4_s2_league4_game2_763</title>
<polygon fill="white" stroke="transparent" points="-4,4 -4,-366 130,-366 130,4 -4,4"/>
<g id="clust1" class="cluster">
<title>cluster_4_s2_league4_game2_763</title>
<polygon fill="none" stroke="black" points="8,-8 8,-354 118,-354 118,-8 8,-8"/>
<text text-anchor="middle" x="26.5" y="-338.8" font-family="Times,serif" font-size="14.00">763</text>
</g>
<!-- s2_league4_game2_04_stac_1399316559 -->
<g id="node1" class="node">
<title>s2_league4_game2_04_stac_1399316559</title>
<g id="a_node1"><a xlink:title="1 &#160;ztime &#160;ahh 7 again.. sorry">
<ellipse fill="black" stroke="black" cx="31" cy="-319.5" rx="3.5" ry="3.5"/>
</a>
</g>
</g>
<!-- 1_0 -->
<!-- s2_league4_game2_04_stac_1399316559&#45;&gt;1_0 -->
<!-- s2_league4_game2_04_stac_1399316562 -->
<g id="node25" class="node">
<title>s2_league4_game2_04_stac_1399316562</title>
<g id="a_node25"><a xlink:title="2 &#160;Shawnus &#160;really">
<ellipse fill="black" stroke="black" cx="31" cy="-294.5" rx="3.5" ry="3.5"/>
</a>
</g>
</g>
<!-- s2_league4_game2_04_stac_1399316559&#45;&gt;s2_league4_game2_04_stac_1399316562 -->
<g id="edge18" class="edge">
<title>s2_league4_game2_04_stac_1399316559&#45;&gt;s2_league4_game2_04_stac_1399316562</title>
<g id="a_edge18"><a xlink:title="ContrastCorrection">
<path fill="none" stroke="#ff7ecf" d="M31,-315.68C31,-312.58 31,-307.47 31,-303.16"/>
<polygon fill="#ff7ecf" stroke="#ff7ecf" points="32.75,-303.06 31,-298.06 29.25,-303.06 32.75,-303.06"/>
</a>
</g>
</g>
<!-- s2_league4_game2_04_stac_1399316566 -->
<g id="node3" class="node">
<title>s2_league4_game2_04_stac_1399316566</title>
<g id="a_node3"><a xlink:title="3 &#160;ztime &#160;yer.... feel bad for you guys">
<ellipse fill="black" stroke="black" cx="49" cy="-269.5" rx="3.5" ry="3.5"/>
</a>
</g>
</g>
<!-- 3_0 -->
<!-- s2_league4_game2_04_stac_1399316566&#45;&gt;3_0 -->
<!-- s2_league4_game2_04_stac_1399316569 -->
<g id="node5" class="node">
<title>s2_league4_game2_04_stac_1399316569</title>
<g id="a_node5"><a xlink:title="4 &#160;ztime &#160;look NZ has to dump all his card....">
<ellipse fill="black" stroke="black" cx="49" cy="-244.5" rx="3.5" ry="3.5"/>
</a>
</g>
</g>
<!-- s2_league4_game2_04_stac_1399316566&#45;&gt;s2_league4_game2_04_stac_1399316569 -->
<g id="edge21" class="edge">
<title>s2_league4_game2_04_stac_1399316566&#45;&gt;s2_league4_game2_04_stac_1399316569</title>
<g id="a_edge21"><a xlink:title="ExplanationResult">
<path fill="none" stroke="#a62139" d="M49,-265.68C49,-262.58 49,-257.47 49,-253.16"/>
<polygon fill="#a62139" stroke="#a62139" points="50.75,-253.06 49,-248.06 47.25,-253.06 50.75,-253.06"/>
</a>
</g>
</g>
<!-- 4_0 -->
<!-- s2_league4_game2_04_stac_1399316569&#45;&gt;4_0 -->
<!-- s2_league4_game2_04_stac_1399316572 -->
<g id="node7" class="node">
<title>s2_league4_game2_04_stac_1399316572</title>
<g id="a_node7"><a xlink:title="5 &#160;somdechn &#160;Nooo...">
<ellipse fill="black" stroke="black" cx="49" cy="-219.5" rx="3.5" ry="3.5"/>
</a>
</g>
</g>
<!-- s2_league4_game2_04_stac_1399316569&#45;&gt;s2_league4_game2_04_stac_1399316572 -->
<g id="edge22" class="edge">
<title>s2_league4_game2_04_stac_1399316569&#45;&gt;s2_league4_game2_04_stac_1399316572</title>
<g id="a_edge22"><a xlink:title="Comment">
<path fill="none" stroke="#ff8200" d="M49,-240.68C49,-237.58 49,-232.47 49,-228.16"/>
<polygon fill="#ff8200" stroke="#ff8200" points="50.75,-228.06 49,-223.06 47.25,-228.06 50.75,-228.06"/>
</a>
</g>
</g>
<!-- 5_0 -->
<!-- s2_league4_game2_04_stac_1399316572&#45;&gt;5_0 -->
<!-- s2_league4_game2_04_stac_1399316575 -->
<g id="node9" class="node">
<title>s2_league4_game2_04_stac_1399316575</title>
<g id="a_node9"><a xlink:title="6 &#160;ztime &#160;anyone have clay?">
<ellipse fill="black" stroke="black" cx="49" cy="-194.5" rx="3.5" ry="3.5"/>
</a>
</g>
</g>
<!-- s2_league4_game2_04_stac_1399316572&#45;&gt;s2_league4_game2_04_stac_1399316575 -->
<g id="edge23" class="edge">
<title>s2_league4_game2_04_stac_1399316572&#45;&gt;s2_league4_game2_04_stac_1399316575</title>
<g id="a_edge23"><a xlink:title="ParallNarrContinuationbackground">
<path fill="none" stroke="#0ab046" d="M49,-215.68C49,-212.58 49,-207.47 49,-203.16"/>
<polygon fill="#0ab046" stroke="#0ab046" points="50.75,-203.06 49,-198.06 47.25,-203.06 50.75,-203.06"/>
</a>
</g>
</g>
<!-- 6_0 -->
<!-- s2_league4_game2_04_stac_1399316575&#45;&gt;6_0 -->
<!-- s2_league4_game2_04_stac_1399316578 -->
<g id="node11" class="node">
<title>s2_league4_game2_04_stac_1399316578</title>
<g id="a_node11"><a xlink:title="7 &#160;ztime &#160;I can give wood">
<ellipse fill="black" stroke="black" cx="20" cy="-169.5" rx="3.5" ry="3.5"/>
</a>
</g>
</g>
<!-- s2_league4_game2_04_stac_1399316575&#45;&gt;s2_league4_game2_04_stac_1399316578 -->
<g id="edge24" class="edge">
<title>s2_league4_game2_04_stac_1399316575&#45;&gt;s2_league4_game2_04_stac_1399316578</title>
<g id="a_edge24"><a xlink:title="Elaboration">
<path fill="none" stroke="#a621c7" d="M46.72,-191.7C42.47,-188.32 33.15,-180.93 26.73,-175.84"/>
<polygon fill="#a621c7" stroke="#a621c7" points="27.52,-174.23 22.51,-172.49 25.34,-176.97 27.52,-174.23"/>
</a>
</g>
</g>
<!-- s2_league4_game2_04_stac_1399316581 -->
<g id="node13" class="node">
<title>s2_league4_game2_04_stac_1399316581</title>
<g id="a_node13"><a xlink:title="8 &#160;somdechn &#160;No....">
<ellipse fill="black" stroke="black" cx="20" cy="-144.5" rx="3.5" ry="3.5"/>
</a>
</g>
</g>
<!-- s2_league4_game2_04_stac_1399316575&#45;&gt;s2_league4_game2_04_stac_1399316581 -->
<g id="edge25" class="edge">
<title>s2_league4_game2_04_stac_1399316575&#45;&gt;s2_league4_game2_04_stac_1399316581</title>
<g id="a_edge25"><a xlink:title="Question_answer_pair">
<path fill="none" stroke="#12ffff" d="M47.7,-191.2C45.01,-186.46 38.62,-175.25 33,-166 30.17,-161.34 26.88,-156.15 24.32,-152.16"/>
<polygon fill="#12ffff" stroke="#12ffff" points="25.73,-151.13 21.55,-147.88 22.79,-153.03 25.73,-151.13"/>
</a>
</g>
</g>
<!-- s2_league4_game2_04_stac_1399316584 -->
<g id="node15" class="node">
<title>s2_league4_game2_04_stac_1399316584</title>
<g id="a_node15"><a xlink:title="9 &#160;Shawnus &#160;nope">
<ellipse fill="black" stroke="black" cx="40" cy="-119.5" rx="3.5" ry="3.5"/>
</a>
</g>
</g>
<!-- s2_league4_game2_04_stac_1399316575&#45;&gt;s2_league4_game2_04_stac_1399316584 -->
<g id="edge26" class="edge">
<title>s2_league4_game2_04_stac_1399316575&#45;&gt;s2_league4_game2_04_stac_1399316584</title>
<g id="a_edge26"><a xlink:title="Question_answer_pair">
<path fill="none" stroke="#12ffff" d="M50.32,-191.01C54.2,-183.31 64.91,-159.35 58,-141 55.69,-134.88 50.64,-129.4 46.47,-125.65"/>
<polygon fill="#12ffff" stroke="#12ffff" points="47.43,-124.17 42.47,-122.31 45.19,-126.85 47.43,-124.17"/>
</a>
</g>
</g>
<!-- s2_league4_game2_04_stac_1399316596 -->
<g id="node23" class="node">
<title>s2_league4_game2_04_stac_1399316596</title>
<g id="a_node23"><a xlink:title="13 &#160;somdechn &#160;Nop">
<ellipse fill="black" stroke="black" cx="60" cy="-19.5" rx="3.5" ry="3.5"/>
</a>
</g>
</g>
<!-- s2_league4_game2_04_stac_1399316575&#45;&gt;s2_league4_game2_04_stac_1399316596 -->
<g id="edge31" class="edge">
<title>s2_league4_game2_04_stac_1399316575&#45;&gt;s2_league4_game2_04_stac_1399316596</title>
<g id="a_edge31"><a xlink:title="Question_answer_pair">
<path fill="none" stroke="#12ffff" d="M51.1,-191.45C59.2,-183.3 88,-152.11 88,-120.5 88,-120.5 88,-120.5 88,-68.5 88,-51.24 74.33,-34.67 66.09,-26.25"/>
<polygon fill="#12ffff" stroke="#12ffff" points="67,-24.69 62.2,-22.45 64.56,-27.2 67,-24.69"/>
</a>
</g>
</g>
<!-- 7_0 -->
<!-- s2_league4_game2_04_stac_1399316578&#45;&gt;7_0 -->
<!-- s2_league4_game2_04_stac_1399316578&#45;&gt;s2_league4_game2_04_stac_1399316581 -->
<!-- 8_0 -->
<!-- s2_league4_game2_04_stac_1399316581&#45;&gt;8_0 -->
<!-- s2_league4_game2_04_stac_1399316581&#45;&gt;s2_league4_game2_04_stac_1399316584 -->
<!-- s2_league4_game2_04_stac_1399316587 -->
<g id="node17" class="node">
<title>s2_league4_game2_04_stac_1399316587</title>
<g id="a_node17"><a xlink:title="10 &#160;ztime &#160;wheat">
<ellipse fill="black" stroke="black" cx="20" cy="-94.5" rx="3.5" ry="3.5"/>
</a>
</g>
</g>
<!-- s2_league4_game2_04_stac_1399316581&#45;&gt;s2_league4_game2_04_stac_1399316587 -->
<g id="edge27" class="edge">
<title>s2_league4_game2_04_stac_1399316581&#45;&gt;s2_league4_game2_04_stac_1399316587</title>
<g id="a_edge27"><a xlink:title="Acknowledgement">
<path fill="none" stroke="#12ffff" d="M20,-140.92C20,-133.95 20,-114.55 20,-103.49"/>
<polygon fill="#12ffff" stroke="#12ffff" points="21.75,-103.33 20,-98.33 18.25,-103.33 21.75,-103.33"/>
</a>
</g>
</g>
<!-- 9_0 -->
<!-- s2_league4_game2_04_stac_1399316584&#45;&gt;9_0 -->
<!-- s2_league4_game2_04_stac_1399316584&#45;&gt;s2_league4_game2_04_stac_1399316587 -->
<!-- s2_league4_game2_04_stac_1399316593 -->
<g id="node21" class="node">
<title>s2_league4_game2_04_stac_1399316593</title>
<g id="a_node21"><a xlink:title="12 &#160;ztime &#160;ok">
<ellipse fill="black" stroke="black" cx="40" cy="-44.5" rx="3.5" ry="3.5"/>
</a>
</g>
</g>
<!-- s2_league4_game2_04_stac_1399316584&#45;&gt;s2_league4_game2_04_stac_1399316593 -->
<g id="edge29" class="edge">
<title>s2_league4_game2_04_stac_1399316584&#45;&gt;s2_league4_game2_04_stac_1399316593</title>
<g id="a_edge29"><a xlink:title="Acknowledgement">
<path fill="none" stroke="#12ffff" d="M42.47,-116.69C46.62,-113.48 54.86,-106.33 58,-98 63.01,-84.69 63.01,-79.31 58,-66 55.69,-59.88 50.64,-54.4 46.47,-50.65"/>
<polygon fill="#12ffff" stroke="#12ffff" points="47.43,-49.17 42.47,-47.31 45.19,-51.85 47.43,-49.17"/>
</a>
</g>
</g>
<!-- 10_0 -->
<!-- s2_league4_game2_04_stac_1399316587&#45;&gt;10_0 -->
<!-- s2_league4_game2_04_stac_1399316590 -->
<g id="node19" class="node">
<title>s2_league4_game2_04_stac_1399316590</title>
<g id="a_node19"><a xlink:title="11 &#160;ztime &#160;I give wheat">
<ellipse fill="black" stroke="black" cx="20" cy="-69.5" rx="3.5" ry="3.5"/>
</a>
</g>
</g>
<!-- s2_league4_game2_04_stac_1399316587&#45;&gt;s2_league4_game2_04_stac_1399316590 -->
<g id="edge28" class="edge">
<title>s2_league4_game2_04_stac_1399316587&#45;&gt;s2_league4_game2_04_stac_1399316590</title>
<g id="a_edge28"><a xlink:title="Elaboration">
<path fill="none" stroke="#a621c7" d="M20,-90.68C20,-87.58 20,-82.47 20,-78.16"/>
<polygon fill="#a621c7" stroke="#a621c7" points="21.75,-78.06 20,-73.06 18.25,-78.06 21.75,-78.06"/>
</a>
</g>
</g>
<!-- 11_0 -->
<!-- s2_league4_game2_04_stac_1399316590&#45;&gt;11_0 -->
<!-- s2_league4_game2_04_stac_1399316590&#45;&gt;s2_league4_game2_04_stac_1399316593 -->
<g id="edge30" class="edge">
<title>s2_league4_game2_04_stac_1399316590&#45;&gt;s2_league4_game2_04_stac_1399316593</title>
<g id="a_edge30"><a xlink:title="ParallNarrContinuationbackground">
<path fill="none" stroke="#0ab046" d="M21.85,-66.38C24.69,-63.11 30.25,-56.71 34.48,-51.85"/>
<polygon fill="#0ab046" stroke="#0ab046" points="35.9,-52.88 37.86,-47.96 33.26,-50.59 35.9,-52.88"/>
</a>
</g>
</g>
<!-- 12_0 -->
<!-- s2_league4_game2_04_stac_1399316593&#45;&gt;12_0 -->
<!-- s2_league4_game2_04_stac_1399316593&#45;&gt;s2_league4_game2_04_stac_1399316596 -->
<!-- 13_0 -->
<!-- s2_league4_game2_04_stac_1399316596&#45;&gt;13_0 -->
<!-- s2_league4_game2_04_stac_1399316562&#45;&gt;s2_league4_game2_04_stac_1399316566 -->
<!-- s2_league4_game2_04_stac_1399316563 -->
<g id="node26" class="node">
<title>s2_league4_game2_04_stac_1399316563</title>
<g id="a_node26"><a xlink:title="2 &#160;Shawnus &#160;sorry?">
<ellipse fill="black" stroke="black" cx="56" cy="-294.5" rx="3.5" ry="3.5"/>
</a>
</g>
</g>
<!-- s2_league4_game2_04_stac_1399316562&#45;&gt;s2_league4_game2_04_stac_1399316563 -->
<g id="edge19" class="edge">
<title>s2_league4_game2_04_stac_1399316562&#45;&gt;s2_league4_game2_04_stac_1399316563</title>
<g id="a_edge19"><a xlink:title="Clarification_question">
<path fill="none" stroke="#ff40d1" d="M34.52,-294.5C38.78,-294.5 43.04,-294.5 47.3,-294.5"/>
<polygon fill="#ff40d1" stroke="#ff40d1" points="47.31,-296.25 52.31,-294.5 47.31,-292.75 47.31,-296.25"/>
</a>
</g>
</g>
<!-- s2_league4_game2_04_stac_1399316563&#45;&gt;s2_league4_game2_04_stac_1399316566 -->
<g id="edge20" class="edge">
<title>s2_league4_game2_04_stac_1399316563&#45;&gt;s2_league4_game2_04_stac_1399316566</title>
<g id="a_edge20"><a xlink:title="Question_answer_pair">
<path fill="none" stroke="#12ffff" d="M55.25,-291.04C54.32,-287.97 52.68,-282.6 51.32,-278.12"/>
<polygon fill="#12ffff" stroke="#12ffff" points="52.94,-277.43 49.81,-273.16 49.59,-278.45 52.94,-277.43"/>
</a>
</g>
</g>
</g>
</svg>
