<?xml version="1.0" encoding="UTF-8" standalone="no"?>
<!DOCTYPE svg PUBLIC "-//W3C//DTD SVG 1.1//EN"
 "http://www.w3.org/Graphics/SVG/1.1/DTD/svg11.dtd">
<!-- Generated by graphviz version 3.0.0 (20220226.1711)
 -->
<!-- Title: 5_s2_league4_game2_764 Pages: 1 -->
<svg width="113pt" height="320pt"
 viewBox="0.00 0.00 113.00 320.00" xmlns="http://www.w3.org/2000/svg" xmlns:xlink="http://www.w3.org/1999/xlink">
<g id="graph0" class="graph" transform="scale(1 1) rotate(0) translate(4 316)">
<title>5_s2_league4_game2_764</title>
<polygon fill="white" stroke="transparent" points="-4,4 -4,-316 109,-316 109,4 -4,4"/>
<g id="clust1" class="cluster">
<title>cluster_5_s2_league4_game2_764</title>
<polygon fill="none" stroke="black" points="8,-8 8,-304 97,-304 97,-8 8,-8"/>
<text text-anchor="middle" x="26.5" y="-288.8" font-family="Times,serif" font-size="14.00">764</text>
</g>
<!-- s2_league4_game2_05_stac_1399316473 -->
<g id="node1" class="node">
<title>s2_league4_game2_05_stac_1399316473</title>
<g id="a_node1"><a xlink:title="1 &#160;Shawnus &#160;have a clay now, anyone have a wood?">
<ellipse fill="black" stroke="black" cx="60" cy="-269.5" rx="3.5" ry="3.5"/>
</a>
</g>
</g>
<!-- 1_0 -->
<!-- s2_league4_game2_05_stac_1399316473&#45;&gt;1_0 -->
<!-- s2_league4_game2_05_stac_1399316476 -->
<g id="node3" class="node">
<title>s2_league4_game2_05_stac_1399316476</title>
<g id="a_node3"><a xlink:title="2 &#160;ztime &#160;yep">
<ellipse fill="black" stroke="black" cx="20" cy="-244.5" rx="3.5" ry="3.5"/>
</a>
</g>
</g>
<!-- s2_league4_game2_05_stac_1399316473&#45;&gt;s2_league4_game2_05_stac_1399316476 -->
<g id="edge12" class="edge">
<title>s2_league4_game2_05_stac_1399316473&#45;&gt;s2_league4_game2_05_stac_1399316476</title>
<g id="a_edge12"><a xlink:title="Question_answer_pair">
<path fill="none" stroke="#12ffff" d="M57.38,-266.99C51.33,-263.52 36.26,-254.85 27.21,-249.64"/>
<polygon fill="#12ffff" stroke="#12ffff" points="27.89,-248.02 22.69,-247.04 26.15,-251.05 27.89,-248.02"/>
</a>
</g>
</g>
<!-- s2_league4_game2_05_stac_1399316479 -->
<g id="node5" class="node">
<title>s2_league4_game2_05_stac_1399316479</title>
<g id="a_node5"><a xlink:title="3 &#160;ztime &#160;I have wood">
<ellipse fill="black" stroke="black" cx="40" cy="-219.5" rx="3.5" ry="3.5"/>
</a>
</g>
</g>
<!-- s2_league4_game2_05_stac_1399316473&#45;&gt;s2_league4_game2_05_stac_1399316479 -->
<g id="edge13" class="edge">
<title>s2_league4_game2_05_stac_1399316473&#45;&gt;s2_league4_game2_05_stac_1399316479</title>
<g id="a_edge13"><a xlink:title="Question_answer_pair">
<path fill="none" stroke="#12ffff" d="M60.35,-265.79C60.9,-260.71 61.55,-249.48 58,-241 55.47,-234.97 50.44,-229.48 46.33,-225.7"/>
<polygon fill="#12ffff" stroke="#12ffff" points="47.34,-224.26 42.41,-222.33 45.06,-226.92 47.34,-224.26"/>
</a>
</g>
</g>
<!-- s2_league4_game2_05_stac_1399316485 -->
<g id="node9" class="node">
<title>s2_league4_game2_05_stac_1399316485</title>
<g id="a_node9"><a xlink:title="5 &#160;somdechn &#160;Yes please">
<ellipse fill="black" stroke="black" cx="50" cy="-169.5" rx="3.5" ry="3.5"/>
</a>
</g>
</g>
<!-- s2_league4_game2_05_stac_1399316473&#45;&gt;s2_league4_game2_05_stac_1399316485 -->
<g id="edge16" class="edge">
<title>s2_league4_game2_05_stac_1399316473&#45;&gt;s2_league4_game2_05_stac_1399316485</title>
<g id="a_edge16"><a xlink:title="Question_answer_pair">
<path fill="none" stroke="#12ffff" d="M61.6,-266.21C68.15,-256.55 91.87,-218.35 78,-191 73.83,-182.77 64.63,-177.05 57.91,-173.78"/>
<polygon fill="#12ffff" stroke="#12ffff" points="58.29,-172.04 53.01,-171.61 56.88,-175.24 58.29,-172.04"/>
</a>
</g>
</g>
<!-- 2_0 -->
<!-- s2_league4_game2_05_stac_1399316476&#45;&gt;2_0 -->
<!-- s2_league4_game2_05_stac_1399316476&#45;&gt;s2_league4_game2_05_stac_1399316479 -->
<g id="edge14" class="edge">
<title>s2_league4_game2_05_stac_1399316476&#45;&gt;s2_league4_game2_05_stac_1399316479</title>
<g id="a_edge14"><a xlink:title="Elaboration">
<path fill="none" stroke="#a621c7" d="M21.85,-241.38C24.69,-238.11 30.25,-231.71 34.48,-226.85"/>
<polygon fill="#a621c7" stroke="#a621c7" points="35.9,-227.88 37.86,-222.96 33.26,-225.59 35.9,-227.88"/>
</a>
</g>
</g>
<!-- 3_0 -->
<!-- s2_league4_game2_05_stac_1399316479&#45;&gt;3_0 -->
<!-- s2_league4_game2_05_stac_1399316482 -->
<g id="node7" class="node">
<title>s2_league4_game2_05_stac_1399316482</title>
<g id="a_node7"><a xlink:title="4 &#160;ztime &#160;1 for 1">
<ellipse fill="black" stroke="black" cx="40" cy="-194.5" rx="3.5" ry="3.5"/>
</a>
</g>
</g>
<!-- s2_league4_game2_05_stac_1399316479&#45;&gt;s2_league4_game2_05_stac_1399316482 -->
<g id="edge15" class="edge">
<title>s2_league4_game2_05_stac_1399316479&#45;&gt;s2_league4_game2_05_stac_1399316482</title>
<g id="a_edge15"><a xlink:title="Elaboration">
<path fill="none" stroke="#a621c7" d="M40,-215.68C40,-212.58 40,-207.47 40,-203.16"/>
<polygon fill="#a621c7" stroke="#a621c7" points="41.75,-203.06 40,-198.06 38.25,-203.06 41.75,-203.06"/>
</a>
</g>
</g>
<!-- 4_0 -->
<!-- s2_league4_game2_05_stac_1399316482&#45;&gt;4_0 -->
<!-- s2_league4_game2_05_stac_1399316482&#45;&gt;s2_league4_game2_05_stac_1399316485 -->
<!-- 5_0 -->
<!-- s2_league4_game2_05_stac_1399316485&#45;&gt;5_0 -->
<!-- s2_league4_game2_05_stac_1399316488 -->
<g id="node11" class="node">
<title>s2_league4_game2_05_stac_1399316488</title>
<g id="a_node11"><a xlink:title="6 &#160;somdechn &#160;Too late I guess">
<ellipse fill="black" stroke="black" cx="50" cy="-144.5" rx="3.5" ry="3.5"/>
</a>
</g>
</g>
<!-- s2_league4_game2_05_stac_1399316485&#45;&gt;s2_league4_game2_05_stac_1399316488 -->
<g id="edge17" class="edge">
<title>s2_league4_game2_05_stac_1399316485&#45;&gt;s2_league4_game2_05_stac_1399316488</title>
<g id="a_edge17"><a xlink:title="Comment">
<path fill="none" stroke="#ff8200" d="M50,-165.68C50,-162.58 50,-157.47 50,-153.16"/>
<polygon fill="#ff8200" stroke="#ff8200" points="51.75,-153.06 50,-148.06 48.25,-153.06 51.75,-153.06"/>
</a>
</g>
</g>
<!-- 6_0 -->
<!-- s2_league4_game2_05_stac_1399316488&#45;&gt;6_0 -->
<!-- s2_league4_game2_05_stac_1399316491 -->
<g id="node13" class="node">
<title>s2_league4_game2_05_stac_1399316491</title>
<g id="a_node13"><a xlink:title="7 &#160;ztime &#160;soz bro">
<ellipse fill="black" stroke="black" cx="50" cy="-119.5" rx="3.5" ry="3.5"/>
</a>
</g>
</g>
<!-- s2_league4_game2_05_stac_1399316488&#45;&gt;s2_league4_game2_05_stac_1399316491 -->
<g id="edge18" class="edge">
<title>s2_league4_game2_05_stac_1399316488&#45;&gt;s2_league4_game2_05_stac_1399316491</title>
<g id="a_edge18"><a xlink:title="Acknowledgement">
<path fill="none" stroke="#12ffff" d="M50,-140.68C50,-137.58 50,-132.47 50,-128.16"/>
<polygon fill="#12ffff" stroke="#12ffff" points="51.75,-128.06 50,-123.06 48.25,-128.06 51.75,-128.06"/>
</a>
</g>
</g>
<!-- 7_0 -->
<!-- s2_league4_game2_05_stac_1399316491&#45;&gt;7_0 -->
<!-- s2_league4_game2_05_stac_1399316494 -->
<g id="node19" class="node">
<title>s2_league4_game2_05_stac_1399316494</title>
<g id="a_node19"><a xlink:title="8 &#160;Shawnus &#160;sorry,">
<ellipse fill="black" stroke="black" cx="50" cy="-94.5" rx="3.5" ry="3.5"/>
</a>
</g>
</g>
<!-- s2_league4_game2_05_stac_1399316491&#45;&gt;s2_league4_game2_05_stac_1399316494 -->
<g id="edge19" class="edge">
<title>s2_league4_game2_05_stac_1399316491&#45;&gt;s2_league4_game2_05_stac_1399316494</title>
<g id="a_edge19"><a xlink:title="Comment">
<path fill="none" stroke="#ff8200" d="M50,-115.68C50,-112.58 50,-107.47 50,-103.16"/>
<polygon fill="#ff8200" stroke="#ff8200" points="51.75,-103.06 50,-98.06 48.25,-103.06 51.75,-103.06"/>
</a>
</g>
</g>
<!-- s2_league4_game2_05_stac_1399316498 -->
<g id="node15" class="node">
<title>s2_league4_game2_05_stac_1399316498</title>
<g id="a_node15"><a xlink:title="9 &#160;ztime &#160;need that new laptop">
<ellipse fill="black" stroke="black" cx="55" cy="-69.5" rx="3.5" ry="3.5"/>
</a>
</g>
</g>
<!-- 9_0 -->
<!-- s2_league4_game2_05_stac_1399316498&#45;&gt;9_0 -->
<!-- s2_league4_game2_05_stac_1399316501 -->
<g id="node17" class="node">
<title>s2_league4_game2_05_stac_1399316501</title>
<g id="a_node17"><a xlink:title="10 &#160;somdechn &#160;What laptop?">
<ellipse fill="black" stroke="black" cx="55" cy="-44.5" rx="3.5" ry="3.5"/>
</a>
</g>
</g>
<!-- s2_league4_game2_05_stac_1399316498&#45;&gt;s2_league4_game2_05_stac_1399316501 -->
<g id="edge22" class="edge">
<title>s2_league4_game2_05_stac_1399316498&#45;&gt;s2_league4_game2_05_stac_1399316501</title>
<g id="a_edge22"><a xlink:title="Q_Elab">
<path fill="none" stroke="#0d20ff" d="M55,-65.68C55,-62.58 55,-57.47 55,-53.16"/>
<polygon fill="#0d20ff" stroke="#0d20ff" points="56.75,-53.06 55,-48.06 53.25,-53.06 56.75,-53.06"/>
</a>
</g>
</g>
<!-- 10_0 -->
<!-- s2_league4_game2_05_stac_1399316501&#45;&gt;10_0 -->
<!-- s2_league4_game2_05_stac_1399316504 -->
<g id="node21" class="node">
<title>s2_league4_game2_05_stac_1399316504</title>
<g id="a_node21"><a xlink:title="11 &#160;ztime &#160;earlier..">
<ellipse fill="black" stroke="black" cx="55" cy="-19.5" rx="3.5" ry="3.5"/>
</a>
</g>
</g>
<!-- s2_league4_game2_05_stac_1399316501&#45;&gt;s2_league4_game2_05_stac_1399316504 -->
<g id="edge23" class="edge">
<title>s2_league4_game2_05_stac_1399316501&#45;&gt;s2_league4_game2_05_stac_1399316504</title>
<g id="a_edge23"><a xlink:title="Question_answer_pair">
<path fill="none" stroke="#12ffff" d="M55,-40.68C55,-37.58 55,-32.47 55,-28.16"/>
<polygon fill="#12ffff" stroke="#12ffff" points="56.75,-28.06 55,-23.06 53.25,-28.06 56.75,-28.06"/>
</a>
</g>
</g>
<!-- s2_league4_game2_05_stac_1399316494&#45;&gt;s2_league4_game2_05_stac_1399316498 -->
<!-- s2_league4_game2_05_stac_1399316495 -->
<g id="node20" class="node">
<title>s2_league4_game2_05_stac_1399316495</title>
<g id="a_node20"><a xlink:title="8 &#160;Shawnus &#160;quickest off the block">
<ellipse fill="black" stroke="black" cx="75" cy="-94.5" rx="3.5" ry="3.5"/>
</a>
</g>
</g>
<!-- s2_league4_game2_05_stac_1399316494&#45;&gt;s2_league4_game2_05_stac_1399316495 -->
<g id="edge20" class="edge">
<title>s2_league4_game2_05_stac_1399316494&#45;&gt;s2_league4_game2_05_stac_1399316495</title>
<g id="a_edge20"><a xlink:title="Elaboration">
<path fill="none" stroke="#a621c7" d="M53.52,-94.5C57.78,-94.5 62.04,-94.5 66.3,-94.5"/>
<polygon fill="#a621c7" stroke="#a621c7" points="66.31,-96.25 71.31,-94.5 66.31,-92.75 66.31,-96.25"/>
</a>
</g>
</g>
<!-- s2_league4_game2_05_stac_1399316495&#45;&gt;s2_league4_game2_05_stac_1399316498 -->
<g id="edge21" class="edge">
<title>s2_league4_game2_05_stac_1399316495&#45;&gt;s2_league4_game2_05_stac_1399316498</title>
<g id="a_edge21"><a xlink:title="ExplanationResult">
<path fill="none" stroke="#a62139" d="M73.15,-91.38C70.31,-88.11 64.75,-81.71 60.52,-76.85"/>
<polygon fill="#a62139" stroke="#a62139" points="61.74,-75.59 57.14,-72.96 59.1,-77.88 61.74,-75.59"/>
</a>
</g>
</g>
<!-- s2_league4_game2_05_stac_1399316505 -->
<g id="node22" class="node">
<title>s2_league4_game2_05_stac_1399316505</title>
<g id="a_node22"><a xlink:title="11 &#160;ztime &#160;how much wood for a new laptop...">
<ellipse fill="black" stroke="black" cx="80" cy="-19.5" rx="3.5" ry="3.5"/>
</a>
</g>
</g>
<!-- s2_league4_game2_05_stac_1399316504&#45;&gt;s2_league4_game2_05_stac_1399316505 -->
<g id="edge24" class="edge">
<title>s2_league4_game2_05_stac_1399316504&#45;&gt;s2_league4_game2_05_stac_1399316505</title>
<g id="a_edge24"><a xlink:title="ParallNarrContinuationbackground">
<path fill="none" stroke="#0ab046" d="M58.52,-19.5C62.78,-19.5 67.04,-19.5 71.3,-19.5"/>
<polygon fill="#0ab046" stroke="#0ab046" points="71.31,-21.25 76.31,-19.5 71.31,-17.75 71.31,-21.25"/>
</a>
</g>
</g>
</g>
</svg>
