<?xml version="1.0" encoding="UTF-8" standalone="no"?>
<!DOCTYPE svg PUBLIC "-//W3C//DTD SVG 1.1//EN"
 "http://www.w3.org/Graphics/SVG/1.1/DTD/svg11.dtd">
<!-- Generated by graphviz version 3.0.0 (20220226.1711)
 -->
<!-- Title: 5_s2_league4_game2_767 Pages: 1 -->
<svg width="68pt" height="395pt"
 viewBox="0.00 0.00 68.00 395.00" xmlns="http://www.w3.org/2000/svg" xmlns:xlink="http://www.w3.org/1999/xlink">
<g id="graph0" class="graph" transform="scale(1 1) rotate(0) translate(4 391)">
<title>5_s2_league4_game2_767</title>
<polygon fill="white" stroke="transparent" points="-4,4 -4,-391 64,-391 64,4 -4,4"/>
<g id="clust1" class="cluster">
<title>cluster_5_s2_league4_game2_767</title>
<polygon fill="none" stroke="black" points="8,-8 8,-379 52,-379 52,-8 8,-8"/>
<text text-anchor="middle" x="26.5" y="-363.8" font-family="Times,serif" font-size="14.00">767</text>
</g>
<!-- s2_league4_game2_05_stac_1399316552 -->
<g id="node1" class="node">
<title>s2_league4_game2_05_stac_1399316552</title>
<g id="a_node1"><a xlink:title="1 &#160;ztime &#160;7!!!!">
<ellipse fill="black" stroke="black" cx="30" cy="-344.5" rx="3.5" ry="3.5"/>
</a>
</g>
</g>
<!-- s2_league4_game2_05_stac_1399316555 -->
<g id="node2" class="node">
<title>s2_league4_game2_05_stac_1399316555</title>
<g id="a_node2"><a xlink:title="2 &#160;somdechn &#160;Yeah right...">
<ellipse fill="black" stroke="black" cx="30" cy="-319.5" rx="3.5" ry="3.5"/>
</a>
</g>
</g>
<!-- s2_league4_game2_05_stac_1399316552&#45;&gt;s2_league4_game2_05_stac_1399316555 -->
<g id="edge4" class="edge">
<title>s2_league4_game2_05_stac_1399316552&#45;&gt;s2_league4_game2_05_stac_1399316555</title>
<g id="a_edge4"><a xlink:title="Acknowledgement">
<path fill="none" stroke="#12ffff" d="M30,-340.68C30,-337.58 30,-332.47 30,-328.16"/>
<polygon fill="#12ffff" stroke="#12ffff" points="31.75,-328.06 30,-323.06 28.25,-328.06 31.75,-328.06"/>
</a>
</g>
</g>
<!-- s2_league4_game2_05_stac_1399316558 -->
<g id="node3" class="node">
<title>s2_league4_game2_05_stac_1399316558</title>
<g id="a_node3"><a xlink:title="3 &#160;ztime &#160;what... is this a fix?">
<ellipse fill="black" stroke="black" cx="30" cy="-294.5" rx="3.5" ry="3.5"/>
</a>
</g>
</g>
<!-- s2_league4_game2_05_stac_1399316555&#45;&gt;s2_league4_game2_05_stac_1399316558 -->
<g id="edge5" class="edge">
<title>s2_league4_game2_05_stac_1399316555&#45;&gt;s2_league4_game2_05_stac_1399316558</title>
<g id="a_edge5"><a xlink:title="Clarification_question">
<path fill="none" stroke="#ff40d1" d="M30,-315.68C30,-312.58 30,-307.47 30,-303.16"/>
<polygon fill="#ff40d1" stroke="#ff40d1" points="31.75,-303.06 30,-298.06 28.25,-303.06 31.75,-303.06"/>
</a>
</g>
</g>
<!-- s2_league4_game2_05_stac_1399316561 -->
<g id="node4" class="node">
<title>s2_league4_game2_05_stac_1399316561</title>
<g id="a_node4"><a xlink:title="4 &#160;Shawnus &#160;hahaha">
<ellipse fill="black" stroke="black" cx="20" cy="-269.5" rx="3.5" ry="3.5"/>
</a>
</g>
</g>
<!-- s2_league4_game2_05_stac_1399316558&#45;&gt;s2_league4_game2_05_stac_1399316561 -->
<g id="edge6" class="edge">
<title>s2_league4_game2_05_stac_1399316558&#45;&gt;s2_league4_game2_05_stac_1399316561</title>
<g id="a_edge6"><a xlink:title="Comment">
<path fill="none" stroke="#ff8200" d="M28.93,-291.04C27.54,-287.84 25.05,-282.12 23.06,-277.53"/>
<polygon fill="#ff8200" stroke="#ff8200" points="24.63,-276.76 21.03,-272.87 21.42,-278.16 24.63,-276.76"/>
</a>
</g>
</g>
<!-- s2_league4_game2_05_stac_1399316564 -->
<g id="node5" class="node">
<title>s2_league4_game2_05_stac_1399316564</title>
<g id="a_node5"><a xlink:title="5 &#160;ztime &#160;ok anyone want wheat?">
<ellipse fill="black" stroke="black" cx="30" cy="-244.5" rx="3.5" ry="3.5"/>
</a>
</g>
</g>
<!-- s2_league4_game2_05_stac_1399316558&#45;&gt;s2_league4_game2_05_stac_1399316564 -->
<g id="edge7" class="edge">
<title>s2_league4_game2_05_stac_1399316558&#45;&gt;s2_league4_game2_05_stac_1399316564</title>
<g id="a_edge7"><a xlink:title="ParallNarrContinuationbackground">
<path fill="none" stroke="#0ab046" d="M30.59,-290.93C31.65,-286.07 33.67,-275.2 33,-266 32.69,-261.76 32.03,-257.07 31.4,-253.25"/>
<polygon fill="#0ab046" stroke="#0ab046" points="33.1,-252.76 30.51,-248.14 29.65,-253.37 33.1,-252.76"/>
</a>
</g>
</g>
<!-- s2_league4_game2_05_stac_1399316561&#45;&gt;s2_league4_game2_05_stac_1399316564 -->
<!-- s2_league4_game2_05_stac_1399316567 -->
<g id="node6" class="node">
<title>s2_league4_game2_05_stac_1399316567</title>
<g id="a_node6"><a xlink:title="6 &#160;Shawnus &#160;nope">
<ellipse fill="black" stroke="black" cx="20" cy="-219.5" rx="3.5" ry="3.5"/>
</a>
</g>
</g>
<!-- s2_league4_game2_05_stac_1399316564&#45;&gt;s2_league4_game2_05_stac_1399316567 -->
<g id="edge8" class="edge">
<title>s2_league4_game2_05_stac_1399316564&#45;&gt;s2_league4_game2_05_stac_1399316567</title>
<g id="a_edge8"><a xlink:title="Question_answer_pair">
<path fill="none" stroke="#12ffff" d="M28.93,-241.04C27.54,-237.84 25.05,-232.12 23.06,-227.53"/>
<polygon fill="#12ffff" stroke="#12ffff" points="24.63,-226.76 21.03,-222.87 21.42,-228.16 24.63,-226.76"/>
</a>
</g>
</g>
<!-- s2_league4_game2_05_stac_1399316573 -->
<g id="node8" class="node">
<title>s2_league4_game2_05_stac_1399316573</title>
<g id="a_node8"><a xlink:title="8 &#160;somdechn &#160;Yes">
<ellipse fill="black" stroke="black" cx="40" cy="-169.5" rx="3.5" ry="3.5"/>
</a>
</g>
</g>
<!-- s2_league4_game2_05_stac_1399316564&#45;&gt;s2_league4_game2_05_stac_1399316573 -->
<g id="edge10" class="edge">
<title>s2_league4_game2_05_stac_1399316564&#45;&gt;s2_league4_game2_05_stac_1399316573</title>
<g id="a_edge10"><a xlink:title="Question_answer_pair">
<path fill="none" stroke="#12ffff" d="M30.4,-240.85C30.98,-236.94 32.1,-229.41 33,-223 35.21,-207.17 37.65,-188.62 38.98,-178.35"/>
<polygon fill="#12ffff" stroke="#12ffff" points="40.73,-178.53 39.63,-173.35 37.26,-178.08 40.73,-178.53"/>
</a>
</g>
</g>
<!-- s2_league4_game2_05_stac_1399316570 -->
<g id="node7" class="node">
<title>s2_league4_game2_05_stac_1399316570</title>
<g id="a_node7"><a xlink:title="7 &#160;Shawnus &#160;just someone to roll 9&#39;s..">
<ellipse fill="black" stroke="black" cx="20" cy="-194.5" rx="3.5" ry="3.5"/>
</a>
</g>
</g>
<!-- s2_league4_game2_05_stac_1399316567&#45;&gt;s2_league4_game2_05_stac_1399316570 -->
<g id="edge9" class="edge">
<title>s2_league4_game2_05_stac_1399316567&#45;&gt;s2_league4_game2_05_stac_1399316570</title>
<g id="a_edge9"><a xlink:title="ExplanationResult">
<path fill="none" stroke="#a62139" d="M20,-215.68C20,-212.58 20,-207.47 20,-203.16"/>
<polygon fill="#a62139" stroke="#a62139" points="21.75,-203.06 20,-198.06 18.25,-203.06 21.75,-203.06"/>
</a>
</g>
</g>
<!-- s2_league4_game2_05_stac_1399316570&#45;&gt;s2_league4_game2_05_stac_1399316573 -->
<!-- s2_league4_game2_05_stac_1399316579 -->
<g id="node10" class="node">
<title>s2_league4_game2_05_stac_1399316579</title>
<g id="a_node10"><a xlink:title="10 &#160;ztime &#160;was that yes to a trade somdech?">
<ellipse fill="black" stroke="black" cx="30" cy="-119.5" rx="3.5" ry="3.5"/>
</a>
</g>
</g>
<!-- s2_league4_game2_05_stac_1399316570&#45;&gt;s2_league4_game2_05_stac_1399316579 -->
<g id="edge12" class="edge">
<title>s2_league4_game2_05_stac_1399316570&#45;&gt;s2_league4_game2_05_stac_1399316579</title>
<g id="a_edge12"><a xlink:title="Clarification_question">
<path fill="none" stroke="#ff40d1" d="M20.38,-190.73C21.78,-180.52 26.67,-144.78 28.89,-128.59"/>
<polygon fill="#ff40d1" stroke="#ff40d1" points="30.67,-128.47 29.62,-123.28 27.21,-127.99 30.67,-128.47"/>
</a>
</g>
</g>
<!-- s2_league4_game2_05_stac_1399316576 -->
<g id="node9" class="node">
<title>s2_league4_game2_05_stac_1399316576</title>
<g id="a_node9"><a xlink:title="9 &#160;somdechn &#160;I can give you wood.">
<ellipse fill="black" stroke="black" cx="40" cy="-144.5" rx="3.5" ry="3.5"/>
</a>
</g>
</g>
<!-- s2_league4_game2_05_stac_1399316573&#45;&gt;s2_league4_game2_05_stac_1399316576 -->
<g id="edge11" class="edge">
<title>s2_league4_game2_05_stac_1399316573&#45;&gt;s2_league4_game2_05_stac_1399316576</title>
<g id="a_edge11"><a xlink:title="Elaboration">
<path fill="none" stroke="#a621c7" d="M40,-165.68C40,-162.58 40,-157.47 40,-153.16"/>
<polygon fill="#a621c7" stroke="#a621c7" points="41.75,-153.06 40,-148.06 38.25,-153.06 41.75,-153.06"/>
</a>
</g>
</g>
<!-- s2_league4_game2_05_stac_1399316576&#45;&gt;s2_league4_game2_05_stac_1399316579 -->
<!-- s2_league4_game2_05_stac_1399316582 -->
<g id="node11" class="node">
<title>s2_league4_game2_05_stac_1399316582</title>
<g id="a_node11"><a xlink:title="11 &#160;ztime &#160;OK.. cool.. for 1 wheat?">
<ellipse fill="black" stroke="black" cx="30" cy="-94.5" rx="3.5" ry="3.5"/>
</a>
</g>
</g>
<!-- s2_league4_game2_05_stac_1399316579&#45;&gt;s2_league4_game2_05_stac_1399316582 -->
<g id="edge13" class="edge">
<title>s2_league4_game2_05_stac_1399316579&#45;&gt;s2_league4_game2_05_stac_1399316582</title>
<g id="a_edge13"><a xlink:title="Q_Elab">
<path fill="none" stroke="#0d20ff" d="M30,-115.68C30,-112.58 30,-107.47 30,-103.16"/>
<polygon fill="#0d20ff" stroke="#0d20ff" points="31.75,-103.06 30,-98.06 28.25,-103.06 31.75,-103.06"/>
</a>
</g>
</g>
<!-- s2_league4_game2_05_stac_1399316585 -->
<g id="node12" class="node">
<title>s2_league4_game2_05_stac_1399316585</title>
<g id="a_node12"><a xlink:title="12 &#160;somdechn &#160;and an ore.. :)">
<ellipse fill="black" stroke="black" cx="30" cy="-69.5" rx="3.5" ry="3.5"/>
</a>
</g>
</g>
<!-- s2_league4_game2_05_stac_1399316582&#45;&gt;s2_league4_game2_05_stac_1399316585 -->
<g id="edge14" class="edge">
<title>s2_league4_game2_05_stac_1399316582&#45;&gt;s2_league4_game2_05_stac_1399316585</title>
<g id="a_edge14"><a xlink:title="Question_answer_pair">
<path fill="none" stroke="#12ffff" d="M30,-90.68C30,-87.58 30,-82.47 30,-78.16"/>
<polygon fill="#12ffff" stroke="#12ffff" points="31.75,-78.06 30,-73.06 28.25,-78.06 31.75,-78.06"/>
</a>
</g>
</g>
<!-- s2_league4_game2_05_stac_1399316588 -->
<g id="node13" class="node">
<title>s2_league4_game2_05_stac_1399316588</title>
<g id="a_node13"><a xlink:title="13 &#160;ztime &#160;err.. don&#39;t have ore..">
<ellipse fill="black" stroke="black" cx="30" cy="-44.5" rx="3.5" ry="3.5"/>
</a>
</g>
</g>
<!-- s2_league4_game2_05_stac_1399316585&#45;&gt;s2_league4_game2_05_stac_1399316588 -->
<g id="edge15" class="edge">
<title>s2_league4_game2_05_stac_1399316585&#45;&gt;s2_league4_game2_05_stac_1399316588</title>
<g id="a_edge15"><a xlink:title="ContrastCorrection">
<path fill="none" stroke="#ff7ecf" d="M30,-65.68C30,-62.58 30,-57.47 30,-53.16"/>
<polygon fill="#ff7ecf" stroke="#ff7ecf" points="31.75,-53.06 30,-48.06 28.25,-53.06 31.75,-53.06"/>
</a>
</g>
</g>
<!-- s2_league4_game2_05_stac_1399316591 -->
<g id="node14" class="node">
<title>s2_league4_game2_05_stac_1399316591</title>
<g id="a_node14"><a xlink:title="14 &#160;ztime &#160;thanks..">
<ellipse fill="black" stroke="black" cx="30" cy="-19.5" rx="3.5" ry="3.5"/>
</a>
</g>
</g>
<!-- s2_league4_game2_05_stac_1399316588&#45;&gt;s2_league4_game2_05_stac_1399316591 -->
<g id="edge16" class="edge">
<title>s2_league4_game2_05_stac_1399316588&#45;&gt;s2_league4_game2_05_stac_1399316591</title>
<g id="a_edge16"><a xlink:title="Comment">
<path fill="none" stroke="#ff8200" d="M30,-40.68C30,-37.58 30,-32.47 30,-28.16"/>
<polygon fill="#ff8200" stroke="#ff8200" points="31.75,-28.06 30,-23.06 28.25,-28.06 31.75,-28.06"/>
</a>
</g>
</g>
</g>
</svg>
