<?xml version="1.0" encoding="UTF-8" standalone="no"?>
<!DOCTYPE svg PUBLIC "-//W3C//DTD SVG 1.1//EN"
 "http://www.w3.org/Graphics/SVG/1.1/DTD/svg11.dtd">
<!-- Generated by graphviz version 3.0.0 (20220226.1711)
 -->
<!-- Title: 6_s2_league4_game2_772 Pages: 1 -->
<svg width="93pt" height="245pt"
 viewBox="0.00 0.00 93.00 245.00" xmlns="http://www.w3.org/2000/svg" xmlns:xlink="http://www.w3.org/1999/xlink">
<g id="graph0" class="graph" transform="scale(1 1) rotate(0) translate(4 241)">
<title>6_s2_league4_game2_772</title>
<polygon fill="white" stroke="transparent" points="-4,4 -4,-241 89,-241 89,4 -4,4"/>
<g id="clust1" class="cluster">
<title>cluster_6_s2_league4_game2_772</title>
<polygon fill="none" stroke="black" points="8,-8 8,-229 77,-229 77,-8 8,-8"/>
<text text-anchor="middle" x="26.5" y="-213.8" font-family="Times,serif" font-size="14.00">772</text>
</g>
<!-- s2_league4_game2_06_stac_1399316513 -->
<g id="node1" class="node">
<title>s2_league4_game2_06_stac_1399316513</title>
<g id="a_node1"><a xlink:title="1 &#160;ztime &#160;hahahah">
<ellipse fill="black" stroke="black" cx="20" cy="-194.5" rx="3.5" ry="3.5"/>
</a>
</g>
</g>
<!-- 1_0 -->
<!-- s2_league4_game2_06_stac_1399316513&#45;&gt;1_0 -->
<!-- s2_league4_game2_06_stac_1399316516 -->
<g id="node3" class="node">
<title>s2_league4_game2_06_stac_1399316516</title>
<g id="a_node3"><a xlink:title="2 &#160;ztime &#160;this is kinda weird...">
<ellipse fill="black" stroke="black" cx="20" cy="-169.5" rx="3.5" ry="3.5"/>
</a>
</g>
</g>
<!-- s2_league4_game2_06_stac_1399316513&#45;&gt;s2_league4_game2_06_stac_1399316516 -->
<g id="edge10" class="edge">
<title>s2_league4_game2_06_stac_1399316513&#45;&gt;s2_league4_game2_06_stac_1399316516</title>
<g id="a_edge10"><a xlink:title="Comment">
<path fill="none" stroke="#ff8200" d="M20,-190.68C20,-187.58 20,-182.47 20,-178.16"/>
<polygon fill="#ff8200" stroke="#ff8200" points="21.75,-178.06 20,-173.06 18.25,-178.06 21.75,-178.06"/>
</a>
</g>
</g>
<!-- 2_0 -->
<!-- s2_league4_game2_06_stac_1399316516&#45;&gt;2_0 -->
<!-- s2_league4_game2_06_stac_1399316519 -->
<g id="node5" class="node">
<title>s2_league4_game2_06_stac_1399316519</title>
<g id="a_node5"><a xlink:title="3 &#160;somdechn &#160;Again!!!">
<ellipse fill="black" stroke="black" cx="20" cy="-144.5" rx="3.5" ry="3.5"/>
</a>
</g>
</g>
<!-- s2_league4_game2_06_stac_1399316516&#45;&gt;s2_league4_game2_06_stac_1399316519 -->
<g id="edge11" class="edge">
<title>s2_league4_game2_06_stac_1399316516&#45;&gt;s2_league4_game2_06_stac_1399316519</title>
<g id="a_edge11"><a xlink:title="Comment">
<path fill="none" stroke="#ff8200" d="M20,-165.68C20,-162.58 20,-157.47 20,-153.16"/>
<polygon fill="#ff8200" stroke="#ff8200" points="21.75,-153.06 20,-148.06 18.25,-153.06 21.75,-153.06"/>
</a>
</g>
</g>
<!-- 3_0 -->
<!-- s2_league4_game2_06_stac_1399316519&#45;&gt;3_0 -->
<!-- s2_league4_game2_06_stac_1399316522 -->
<g id="node7" class="node">
<title>s2_league4_game2_06_stac_1399316522</title>
<g id="a_node7"><a xlink:title="4 &#160;Shawnus &#160;phew">
<ellipse fill="black" stroke="black" cx="20" cy="-119.5" rx="3.5" ry="3.5"/>
</a>
</g>
</g>
<!-- s2_league4_game2_06_stac_1399316519&#45;&gt;s2_league4_game2_06_stac_1399316522 -->
<g id="edge12" class="edge">
<title>s2_league4_game2_06_stac_1399316519&#45;&gt;s2_league4_game2_06_stac_1399316522</title>
<g id="a_edge12"><a xlink:title="Acknowledgement">
<path fill="none" stroke="#12ffff" d="M20,-140.68C20,-137.58 20,-132.47 20,-128.16"/>
<polygon fill="#12ffff" stroke="#12ffff" points="21.75,-128.06 20,-123.06 18.25,-128.06 21.75,-128.06"/>
</a>
</g>
</g>
<!-- 4_0 -->
<!-- s2_league4_game2_06_stac_1399316522&#45;&gt;4_0 -->
<!-- s2_league4_game2_06_stac_1399316525 -->
<g id="node15" class="node">
<title>s2_league4_game2_06_stac_1399316525</title>
<g id="a_node15"><a xlink:title="5 &#160;ztime &#160;yer..">
<ellipse fill="black" stroke="black" cx="20" cy="-94.5" rx="3.5" ry="3.5"/>
</a>
</g>
</g>
<!-- s2_league4_game2_06_stac_1399316522&#45;&gt;s2_league4_game2_06_stac_1399316525 -->
<g id="edge13" class="edge">
<title>s2_league4_game2_06_stac_1399316522&#45;&gt;s2_league4_game2_06_stac_1399316525</title>
<g id="a_edge13"><a xlink:title="Acknowledgement">
<path fill="none" stroke="#12ffff" d="M20,-115.68C20,-112.58 20,-107.47 20,-103.16"/>
<polygon fill="#12ffff" stroke="#12ffff" points="21.75,-103.06 20,-98.06 18.25,-103.06 21.75,-103.06"/>
</a>
</g>
</g>
<!-- s2_league4_game2_06_stac_1399316529 -->
<g id="node9" class="node">
<title>s2_league4_game2_06_stac_1399316529</title>
<g id="a_node9"><a xlink:title="6 &#160;ztime &#160;anyone want wheat?">
<ellipse fill="black" stroke="black" cx="30" cy="-69.5" rx="3.5" ry="3.5"/>
</a>
</g>
</g>
<!-- 6_0 -->
<!-- s2_league4_game2_06_stac_1399316529&#45;&gt;6_0 -->
<!-- s2_league4_game2_06_stac_1399316532 -->
<g id="node11" class="node">
<title>s2_league4_game2_06_stac_1399316532</title>
<g id="a_node11"><a xlink:title="7 &#160;Shawnus &#160;nope :(">
<ellipse fill="black" stroke="black" cx="20" cy="-44.5" rx="3.5" ry="3.5"/>
</a>
</g>
</g>
<!-- s2_league4_game2_06_stac_1399316529&#45;&gt;s2_league4_game2_06_stac_1399316532 -->
<g id="edge16" class="edge">
<title>s2_league4_game2_06_stac_1399316529&#45;&gt;s2_league4_game2_06_stac_1399316532</title>
<g id="a_edge16"><a xlink:title="Question_answer_pair">
<path fill="none" stroke="#12ffff" d="M28.93,-66.04C27.54,-62.84 25.05,-57.12 23.06,-52.53"/>
<polygon fill="#12ffff" stroke="#12ffff" points="24.63,-51.76 21.03,-47.87 21.42,-53.16 24.63,-51.76"/>
</a>
</g>
</g>
<!-- s2_league4_game2_06_stac_1399316535 -->
<g id="node13" class="node">
<title>s2_league4_game2_06_stac_1399316535</title>
<g id="a_node13"><a xlink:title="8 &#160;somdechn &#160;Nop">
<ellipse fill="black" stroke="black" cx="30" cy="-19.5" rx="3.5" ry="3.5"/>
</a>
</g>
</g>
<!-- s2_league4_game2_06_stac_1399316529&#45;&gt;s2_league4_game2_06_stac_1399316535 -->
<g id="edge17" class="edge">
<title>s2_league4_game2_06_stac_1399316529&#45;&gt;s2_league4_game2_06_stac_1399316535</title>
<g id="a_edge17"><a xlink:title="Question_answer_pair">
<path fill="none" stroke="#12ffff" d="M33.01,-67.39C39.08,-64.95 52.66,-58.53 58,-48 63.46,-37.24 47.96,-28.2 37.89,-23.66"/>
<polygon fill="#12ffff" stroke="#12ffff" points="38.55,-22.04 33.26,-21.7 37.19,-25.26 38.55,-22.04"/>
</a>
</g>
</g>
<!-- 7_0 -->
<!-- s2_league4_game2_06_stac_1399316532&#45;&gt;7_0 -->
<!-- s2_league4_game2_06_stac_1399316532&#45;&gt;s2_league4_game2_06_stac_1399316535 -->
<!-- 8_0 -->
<!-- s2_league4_game2_06_stac_1399316535&#45;&gt;8_0 -->
<!-- s2_league4_game2_06_stac_1399316525&#45;&gt;s2_league4_game2_06_stac_1399316529 -->
<!-- s2_league4_game2_06_stac_1399316526 -->
<g id="node16" class="node">
<title>s2_league4_game2_06_stac_1399316526</title>
<g id="a_node16"><a xlink:title="5 &#160;ztime &#160;I know.. comes up a lot in these games..">
<ellipse fill="black" stroke="black" cx="45" cy="-94.5" rx="3.5" ry="3.5"/>
</a>
</g>
</g>
<!-- s2_league4_game2_06_stac_1399316525&#45;&gt;s2_league4_game2_06_stac_1399316526 -->
<g id="edge14" class="edge">
<title>s2_league4_game2_06_stac_1399316525&#45;&gt;s2_league4_game2_06_stac_1399316526</title>
<g id="a_edge14"><a xlink:title="Elaboration">
<path fill="none" stroke="#a621c7" d="M23.52,-94.5C27.78,-94.5 32.04,-94.5 36.3,-94.5"/>
<polygon fill="#a621c7" stroke="#a621c7" points="36.31,-96.25 41.31,-94.5 36.31,-92.75 36.31,-96.25"/>
</a>
</g>
</g>
<!-- s2_league4_game2_06_stac_1399316526&#45;&gt;s2_league4_game2_06_stac_1399316529 -->
<g id="edge15" class="edge">
<title>s2_league4_game2_06_stac_1399316526&#45;&gt;s2_league4_game2_06_stac_1399316529</title>
<g id="a_edge15"><a xlink:title="ParallNarrContinuationbackground">
<path fill="none" stroke="#0ab046" d="M43.39,-91.04C41.26,-87.77 37.42,-81.87 34.39,-77.23"/>
<polygon fill="#0ab046" stroke="#0ab046" points="35.75,-76.11 31.55,-72.87 32.81,-78.02 35.75,-76.11"/>
</a>
</g>
</g>
</g>
</svg>
