<?xml version="1.0" encoding="UTF-8" standalone="no"?>
<!DOCTYPE svg PUBLIC "-//W3C//DTD SVG 1.1//EN"
 "http://www.w3.org/Graphics/SVG/1.1/DTD/svg11.dtd">
<!-- Generated by graphviz version 3.0.0 (20220226.1711)
 -->
<!-- Title: 6_s2_league4_game2_773 Pages: 1 -->
<svg width="113pt" height="245pt"
 viewBox="0.00 0.00 113.00 245.00" xmlns="http://www.w3.org/2000/svg" xmlns:xlink="http://www.w3.org/1999/xlink">
<g id="graph0" class="graph" transform="scale(1 1) rotate(0) translate(4 241)">
<title>6_s2_league4_game2_773</title>
<polygon fill="white" stroke="transparent" points="-4,4 -4,-241 109,-241 109,4 -4,4"/>
<g id="clust1" class="cluster">
<title>cluster_6_s2_league4_game2_773</title>
<polygon fill="none" stroke="black" points="8,-8 8,-229 97,-229 97,-8 8,-8"/>
<text text-anchor="middle" x="26.5" y="-213.8" font-family="Times,serif" font-size="14.00">773</text>
</g>
<!-- s2_league4_game2_06_stac_1399316539 -->
<g id="node1" class="node">
<title>s2_league4_game2_06_stac_1399316539</title>
<g id="a_node1"><a xlink:title="1 &#160;somdechn &#160;Wheat &#45;&gt; Ore??">
<ellipse fill="black" stroke="black" cx="50" cy="-194.5" rx="3.5" ry="3.5"/>
</a>
</g>
</g>
<!-- 1_0 -->
<!-- s2_league4_game2_06_stac_1399316539&#45;&gt;1_0 -->
<!-- s2_league4_game2_06_stac_1399316542 -->
<g id="node3" class="node">
<title>s2_league4_game2_06_stac_1399316542</title>
<g id="a_node3"><a xlink:title="2 &#160;ztime &#160;you want ore?">
<ellipse fill="black" stroke="black" cx="40" cy="-169.5" rx="3.5" ry="3.5"/>
</a>
</g>
</g>
<!-- s2_league4_game2_06_stac_1399316539&#45;&gt;s2_league4_game2_06_stac_1399316542 -->
<g id="edge10" class="edge">
<title>s2_league4_game2_06_stac_1399316539&#45;&gt;s2_league4_game2_06_stac_1399316542</title>
<g id="a_edge10"><a xlink:title="Q_Elab">
<path fill="none" stroke="#0d20ff" d="M48.93,-191.04C47.54,-187.84 45.05,-182.12 43.06,-177.53"/>
<polygon fill="#0d20ff" stroke="#0d20ff" points="44.63,-176.76 41.03,-172.87 41.42,-178.16 44.63,-176.76"/>
</a>
</g>
</g>
<!-- s2_league4_game2_06_stac_1399316554 -->
<g id="node15" class="node">
<title>s2_league4_game2_06_stac_1399316554</title>
<g id="a_node15"><a xlink:title="6 &#160;Shawnus &#160;none">
<ellipse fill="black" stroke="black" cx="60" cy="-69.5" rx="3.5" ry="3.5"/>
</a>
</g>
</g>
<!-- s2_league4_game2_06_stac_1399316539&#45;&gt;s2_league4_game2_06_stac_1399316554 -->
<g id="edge14" class="edge">
<title>s2_league4_game2_06_stac_1399316539&#45;&gt;s2_league4_game2_06_stac_1399316554</title>
<g id="a_edge14"><a xlink:title="Question_answer_pair">
<path fill="none" stroke="#12ffff" d="M52.73,-192.21C58.26,-189.44 70.91,-182.44 78,-173 85.81,-162.6 88,-158.51 88,-145.5 88,-145.5 88,-145.5 88,-118.5 88,-101.24 74.33,-84.67 66.09,-76.25"/>
<polygon fill="#12ffff" stroke="#12ffff" points="67,-74.69 62.2,-72.45 64.56,-77.2 67,-74.69"/>
</a>
</g>
</g>
<!-- 2_0 -->
<!-- s2_league4_game2_06_stac_1399316542&#45;&gt;2_0 -->
<!-- s2_league4_game2_06_stac_1399316545 -->
<g id="node5" class="node">
<title>s2_league4_game2_06_stac_1399316545</title>
<g id="a_node5"><a xlink:title="3 &#160;somdechn &#160;Yep/...">
<ellipse fill="black" stroke="black" cx="20" cy="-144.5" rx="3.5" ry="3.5"/>
</a>
</g>
</g>
<!-- s2_league4_game2_06_stac_1399316542&#45;&gt;s2_league4_game2_06_stac_1399316545 -->
<g id="edge11" class="edge">
<title>s2_league4_game2_06_stac_1399316542&#45;&gt;s2_league4_game2_06_stac_1399316545</title>
<g id="a_edge11"><a xlink:title="Question_answer_pair">
<path fill="none" stroke="#12ffff" d="M38.15,-166.38C35.31,-163.11 29.75,-156.71 25.52,-151.85"/>
<polygon fill="#12ffff" stroke="#12ffff" points="26.74,-150.59 22.14,-147.96 24.1,-152.88 26.74,-150.59"/>
</a>
</g>
</g>
<!-- s2_league4_game2_06_stac_1399316551 -->
<g id="node9" class="node">
<title>s2_league4_game2_06_stac_1399316551</title>
<g id="a_node9"><a xlink:title="5 &#160;somdechn &#160;Or clay?">
<ellipse fill="black" stroke="black" cx="39" cy="-94.5" rx="3.5" ry="3.5"/>
</a>
</g>
</g>
<!-- s2_league4_game2_06_stac_1399316542&#45;&gt;s2_league4_game2_06_stac_1399316551 -->
<g id="edge13" class="edge">
<title>s2_league4_game2_06_stac_1399316542&#45;&gt;s2_league4_game2_06_stac_1399316551</title>
<g id="a_edge13"><a xlink:title="Q_Elab">
<path fill="none" stroke="#0d20ff" d="M42.47,-166.69C46.62,-163.48 54.86,-156.33 58,-148 63.01,-134.69 63.19,-129.24 58,-116 55.55,-109.76 50.22,-104.29 45.82,-100.57"/>
<polygon fill="#0d20ff" stroke="#0d20ff" points="46.62,-98.97 41.6,-97.27 44.47,-101.73 46.62,-98.97"/>
</a>
</g>
</g>
<!-- 3_0 -->
<!-- s2_league4_game2_06_stac_1399316545&#45;&gt;3_0 -->
<!-- s2_league4_game2_06_stac_1399316548 -->
<g id="node7" class="node">
<title>s2_league4_game2_06_stac_1399316548</title>
<g id="a_node7"><a xlink:title="4 &#160;ztime &#160;sorry">
<ellipse fill="black" stroke="black" cx="20" cy="-119.5" rx="3.5" ry="3.5"/>
</a>
</g>
</g>
<!-- s2_league4_game2_06_stac_1399316545&#45;&gt;s2_league4_game2_06_stac_1399316548 -->
<g id="edge12" class="edge">
<title>s2_league4_game2_06_stac_1399316545&#45;&gt;s2_league4_game2_06_stac_1399316548</title>
<g id="a_edge12"><a xlink:title="Comment">
<path fill="none" stroke="#ff8200" d="M20,-140.68C20,-137.58 20,-132.47 20,-128.16"/>
<polygon fill="#ff8200" stroke="#ff8200" points="21.75,-128.06 20,-123.06 18.25,-128.06 21.75,-128.06"/>
</a>
</g>
</g>
<!-- 4_0 -->
<!-- s2_league4_game2_06_stac_1399316548&#45;&gt;4_0 -->
<!-- s2_league4_game2_06_stac_1399316548&#45;&gt;s2_league4_game2_06_stac_1399316551 -->
<!-- 5_0 -->
<!-- s2_league4_game2_06_stac_1399316551&#45;&gt;5_0 -->
<!-- s2_league4_game2_06_stac_1399316558 -->
<g id="node11" class="node">
<title>s2_league4_game2_06_stac_1399316558</title>
<g id="a_node11"><a xlink:title="7 &#160;ztime &#160;sorry">
<ellipse fill="black" stroke="black" cx="48" cy="-44.5" rx="3.5" ry="3.5"/>
</a>
</g>
</g>
<!-- s2_league4_game2_06_stac_1399316551&#45;&gt;s2_league4_game2_06_stac_1399316558 -->
<g id="edge17" class="edge">
<title>s2_league4_game2_06_stac_1399316551&#45;&gt;s2_league4_game2_06_stac_1399316558</title>
<g id="a_edge17"><a xlink:title="Question_answer_pair">
<path fill="none" stroke="#12ffff" d="M39.48,-90.92C40.79,-83.95 44.43,-64.55 46.5,-53.49"/>
<polygon fill="#12ffff" stroke="#12ffff" points="48.27,-53.57 47.47,-48.33 44.83,-52.92 48.27,-53.57"/>
</a>
</g>
</g>
<!-- s2_league4_game2_06_stac_1399316551&#45;&gt;s2_league4_game2_06_stac_1399316554 -->
<g id="edge15" class="edge">
<title>s2_league4_game2_06_stac_1399316551&#45;&gt;s2_league4_game2_06_stac_1399316554</title>
<g id="a_edge15"><a xlink:title="Question_answer_pair">
<path fill="none" stroke="#12ffff" d="M40.94,-91.38C43.92,-88.11 49.77,-81.71 54.2,-76.85"/>
<polygon fill="#12ffff" stroke="#12ffff" points="55.67,-77.83 57.75,-72.96 53.09,-75.47 55.67,-77.83"/>
</a>
</g>
</g>
<!-- 7_0 -->
<!-- s2_league4_game2_06_stac_1399316558&#45;&gt;7_0 -->
<!-- s2_league4_game2_06_stac_1399316561 -->
<g id="node13" class="node">
<title>s2_league4_game2_06_stac_1399316561</title>
<g id="a_node13"><a xlink:title="8 &#160;ztime &#160;too much wheat">
<ellipse fill="black" stroke="black" cx="48" cy="-19.5" rx="3.5" ry="3.5"/>
</a>
</g>
</g>
<!-- s2_league4_game2_06_stac_1399316558&#45;&gt;s2_league4_game2_06_stac_1399316561 -->
<g id="edge18" class="edge">
<title>s2_league4_game2_06_stac_1399316558&#45;&gt;s2_league4_game2_06_stac_1399316561</title>
<g id="a_edge18"><a xlink:title="ExplanationResult">
<path fill="none" stroke="#a62139" d="M48,-40.68C48,-37.58 48,-32.47 48,-28.16"/>
<polygon fill="#a62139" stroke="#a62139" points="49.75,-28.06 48,-23.06 46.25,-28.06 49.75,-28.06"/>
</a>
</g>
</g>
<!-- 8_0 -->
<!-- s2_league4_game2_06_stac_1399316561&#45;&gt;8_0 -->
<!-- s2_league4_game2_06_stac_1399316554&#45;&gt;s2_league4_game2_06_stac_1399316558 -->
<!-- s2_league4_game2_06_stac_1399316555 -->
<g id="node16" class="node">
<title>s2_league4_game2_06_stac_1399316555</title>
<g id="a_node16"><a xlink:title="6 &#160;Shawnus &#160;sorry">
<ellipse fill="black" stroke="black" cx="85" cy="-69.5" rx="3.5" ry="3.5"/>
</a>
</g>
</g>
<!-- s2_league4_game2_06_stac_1399316554&#45;&gt;s2_league4_game2_06_stac_1399316555 -->
<g id="edge16" class="edge">
<title>s2_league4_game2_06_stac_1399316554&#45;&gt;s2_league4_game2_06_stac_1399316555</title>
<g id="a_edge16"><a xlink:title="Comment">
<path fill="none" stroke="#ff8200" d="M63.52,-69.5C67.78,-69.5 72.04,-69.5 76.3,-69.5"/>
<polygon fill="#ff8200" stroke="#ff8200" points="76.31,-71.25 81.31,-69.5 76.31,-67.75 76.31,-71.25"/>
</a>
</g>
</g>
</g>
</svg>
