<?xml version="1.0" encoding="UTF-8" standalone="no"?>
<!DOCTYPE svg PUBLIC "-//W3C//DTD SVG 1.1//EN"
 "http://www.w3.org/Graphics/SVG/1.1/DTD/svg11.dtd">
<!-- Generated by graphviz version 3.0.0 (20220226.1711)
 -->
<!-- Title: 6_s2_league4_game2_775 Pages: 1 -->
<svg width="133pt" height="245pt"
 viewBox="0.00 0.00 133.00 245.00" xmlns="http://www.w3.org/2000/svg" xmlns:xlink="http://www.w3.org/1999/xlink">
<g id="graph0" class="graph" transform="scale(1 1) rotate(0) translate(4 241)">
<title>6_s2_league4_game2_775</title>
<polygon fill="white" stroke="transparent" points="-4,4 -4,-241 129,-241 129,4 -4,4"/>
<g id="clust1" class="cluster">
<title>cluster_6_s2_league4_game2_775</title>
<polygon fill="none" stroke="black" points="8,-8 8,-229 117,-229 117,-8 8,-8"/>
<text text-anchor="middle" x="26.5" y="-213.8" font-family="Times,serif" font-size="14.00">775</text>
</g>
<!-- s2_league4_game2_06_stac_1399316572 -->
<g id="node1" class="node">
<title>s2_league4_game2_06_stac_1399316572</title>
<g id="a_node1"><a xlink:title="1 &#160;Shawnus &#160;anyone have ore to trade?">
<ellipse fill="black" stroke="black" cx="47" cy="-194.5" rx="3.5" ry="3.5"/>
</a>
</g>
</g>
<!-- 1_0 -->
<!-- s2_league4_game2_06_stac_1399316572&#45;&gt;1_0 -->
<!-- s2_league4_game2_06_stac_1399316579 -->
<g id="node3" class="node">
<title>s2_league4_game2_06_stac_1399316579</title>
<g id="a_node3"><a xlink:title="3 &#160;somdechn &#160;No.,..">
<ellipse fill="black" stroke="black" cx="60" cy="-144.5" rx="3.5" ry="3.5"/>
</a>
</g>
</g>
<!-- s2_league4_game2_06_stac_1399316572&#45;&gt;s2_league4_game2_06_stac_1399316579 -->
<g id="edge14" class="edge">
<title>s2_league4_game2_06_stac_1399316572&#45;&gt;s2_league4_game2_06_stac_1399316579</title>
<g id="a_edge14"><a xlink:title="Question_answer_pair">
<path fill="none" stroke="#12ffff" d="M47.7,-190.92C49.6,-183.89 54.94,-164.19 57.92,-153.18"/>
<polygon fill="#12ffff" stroke="#12ffff" points="59.61,-153.62 59.23,-148.33 56.24,-152.7 59.61,-153.62"/>
</a>
</g>
</g>
<!-- s2_league4_game2_06_stac_1399316582 -->
<g id="node5" class="node">
<title>s2_league4_game2_06_stac_1399316582</title>
<g id="a_node5"><a xlink:title="4 &#160;Shawnus &#160;or..a clay foy wheat or wood..">
<ellipse fill="black" stroke="black" cx="41" cy="-119.5" rx="3.5" ry="3.5"/>
</a>
</g>
</g>
<!-- s2_league4_game2_06_stac_1399316572&#45;&gt;s2_league4_game2_06_stac_1399316582 -->
<g id="edge15" class="edge">
<title>s2_league4_game2_06_stac_1399316572&#45;&gt;s2_league4_game2_06_stac_1399316582</title>
<g id="a_edge15"><a xlink:title="Alternation">
<path fill="none" stroke="#10495e" d="M46.77,-190.73C45.93,-180.52 43,-144.78 41.66,-128.59"/>
<polygon fill="#10495e" stroke="#10495e" points="43.38,-128.12 41.23,-123.28 39.89,-128.4 43.38,-128.12"/>
</a>
</g>
</g>
<!-- s2_league4_game2_06_stac_1399316585 -->
<g id="node7" class="node">
<title>s2_league4_game2_06_stac_1399316585</title>
<g id="a_node7"><a xlink:title="5 &#160;ztime &#160;i can give wheat">
<ellipse fill="black" stroke="black" cx="20" cy="-94.5" rx="3.5" ry="3.5"/>
</a>
</g>
</g>
<!-- s2_league4_game2_06_stac_1399316572&#45;&gt;s2_league4_game2_06_stac_1399316585 -->
<g id="edge16" class="edge">
<title>s2_league4_game2_06_stac_1399316572&#45;&gt;s2_league4_game2_06_stac_1399316585</title>
<g id="a_edge16"><a xlink:title="Question_answer_pair">
<path fill="none" stroke="#12ffff" d="M46.03,-190.87C44.61,-186.99 41.94,-179.49 40,-173 32.4,-147.61 25.02,-117.03 21.75,-103.09"/>
<polygon fill="#12ffff" stroke="#12ffff" points="23.45,-102.67 20.62,-98.2 20.05,-103.46 23.45,-102.67"/>
</a>
</g>
</g>
<!-- s2_league4_game2_06_stac_1399316575 -->
<g id="node15" class="node">
<title>s2_league4_game2_06_stac_1399316575</title>
<g id="a_node15"><a xlink:title="2 &#160;ztime &#160;no">
<ellipse fill="black" stroke="black" cx="80" cy="-169.5" rx="3.5" ry="3.5"/>
</a>
</g>
</g>
<!-- s2_league4_game2_06_stac_1399316572&#45;&gt;s2_league4_game2_06_stac_1399316575 -->
<g id="edge12" class="edge">
<title>s2_league4_game2_06_stac_1399316572&#45;&gt;s2_league4_game2_06_stac_1399316575</title>
<g id="a_edge12"><a xlink:title="Question_answer_pair">
<path fill="none" stroke="#12ffff" d="M49.59,-191.7C54.63,-188.18 65.89,-180.33 73.2,-175.24"/>
<polygon fill="#12ffff" stroke="#12ffff" points="74.41,-176.53 77.51,-172.23 72.41,-173.66 74.41,-176.53"/>
</a>
</g>
</g>
<!-- 3_0 -->
<!-- s2_league4_game2_06_stac_1399316579&#45;&gt;3_0 -->
<!-- s2_league4_game2_06_stac_1399316579&#45;&gt;s2_league4_game2_06_stac_1399316582 -->
<!-- 4_0 -->
<!-- s2_league4_game2_06_stac_1399316582&#45;&gt;4_0 -->
<!-- s2_league4_game2_06_stac_1399316582&#45;&gt;s2_league4_game2_06_stac_1399316585 -->
<!-- s2_league4_game2_06_stac_1399316588 -->
<g id="node9" class="node">
<title>s2_league4_game2_06_stac_1399316588</title>
<g id="a_node9"><a xlink:title="6 &#160;somdechn &#160;No clay here iether.">
<ellipse fill="black" stroke="black" cx="30" cy="-69.5" rx="3.5" ry="3.5"/>
</a>
</g>
</g>
<!-- s2_league4_game2_06_stac_1399316582&#45;&gt;s2_league4_game2_06_stac_1399316588 -->
<g id="edge17" class="edge">
<title>s2_league4_game2_06_stac_1399316582&#45;&gt;s2_league4_game2_06_stac_1399316588</title>
<g id="a_edge17"><a xlink:title="Question_answer_pair">
<path fill="none" stroke="#12ffff" d="M40.41,-115.92C38.81,-108.95 34.36,-89.55 31.83,-78.49"/>
<polygon fill="#12ffff" stroke="#12ffff" points="33.47,-77.81 30.65,-73.33 30.06,-78.6 33.47,-77.81"/>
</a>
</g>
</g>
<!-- 5_0 -->
<!-- s2_league4_game2_06_stac_1399316585&#45;&gt;5_0 -->
<!-- s2_league4_game2_06_stac_1399316585&#45;&gt;s2_league4_game2_06_stac_1399316588 -->
<!-- 6_0 -->
<!-- s2_league4_game2_06_stac_1399316588&#45;&gt;6_0 -->
<!-- s2_league4_game2_06_stac_1399316591 -->
<g id="node11" class="node">
<title>s2_league4_game2_06_stac_1399316591</title>
<g id="a_node11"><a xlink:title="7 &#160;ztime &#160;ahh sorry .. no clay">
<ellipse fill="black" stroke="black" cx="41" cy="-44.5" rx="3.5" ry="3.5"/>
</a>
</g>
</g>
<!-- s2_league4_game2_06_stac_1399316588&#45;&gt;s2_league4_game2_06_stac_1399316591 -->
<g id="edge18" class="edge">
<title>s2_league4_game2_06_stac_1399316588&#45;&gt;s2_league4_game2_06_stac_1399316591</title>
<g id="a_edge18"><a xlink:title="Question_answer_pair">
<path fill="none" stroke="#12ffff" d="M31.18,-66.04C32.71,-62.84 35.44,-57.12 37.64,-52.53"/>
<polygon fill="#12ffff" stroke="#12ffff" points="39.29,-53.14 39.86,-47.87 36.13,-51.63 39.29,-53.14"/>
</a>
</g>
</g>
<!-- s2_league4_game2_06_stac_1399316594 -->
<g id="node13" class="node">
<title>s2_league4_game2_06_stac_1399316594</title>
<g id="a_node13"><a xlink:title="8 &#160;Shawnus &#160;ok">
<ellipse fill="black" stroke="black" cx="30" cy="-19.5" rx="3.5" ry="3.5"/>
</a>
</g>
</g>
<!-- s2_league4_game2_06_stac_1399316588&#45;&gt;s2_league4_game2_06_stac_1399316594 -->
<g id="edge19" class="edge">
<title>s2_league4_game2_06_stac_1399316588&#45;&gt;s2_league4_game2_06_stac_1399316594</title>
<g id="a_edge19"><a xlink:title="Acknowledgement">
<path fill="none" stroke="#12ffff" d="M29.8,-65.92C29.45,-61.05 28.78,-50.17 29,-41 29.1,-36.79 29.32,-32.1 29.53,-28.27"/>
<polygon fill="#12ffff" stroke="#12ffff" points="31.29,-28.25 29.83,-23.15 27.79,-28.04 31.29,-28.25"/>
</a>
</g>
</g>
<!-- 7_0 -->
<!-- s2_league4_game2_06_stac_1399316591&#45;&gt;7_0 -->
<!-- s2_league4_game2_06_stac_1399316591&#45;&gt;s2_league4_game2_06_stac_1399316594 -->
<g id="edge20" class="edge">
<title>s2_league4_game2_06_stac_1399316591&#45;&gt;s2_league4_game2_06_stac_1399316594</title>
<g id="a_edge20"><a xlink:title="Acknowledgement">
<path fill="none" stroke="#12ffff" d="M39.82,-41.04C38.29,-37.84 35.56,-32.12 33.36,-27.53"/>
<polygon fill="#12ffff" stroke="#12ffff" points="34.87,-26.63 31.14,-22.87 31.71,-28.14 34.87,-26.63"/>
</a>
</g>
</g>
<!-- 8_0 -->
<!-- s2_league4_game2_06_stac_1399316594&#45;&gt;8_0 -->
<!-- s2_league4_game2_06_stac_1399316575&#45;&gt;s2_league4_game2_06_stac_1399316579 -->
<!-- s2_league4_game2_06_stac_1399316576 -->
<g id="node16" class="node">
<title>s2_league4_game2_06_stac_1399316576</title>
<g id="a_node16"><a xlink:title="2 &#160;ztime &#160;sorry">
<ellipse fill="black" stroke="black" cx="105" cy="-169.5" rx="3.5" ry="3.5"/>
</a>
</g>
</g>
<!-- s2_league4_game2_06_stac_1399316575&#45;&gt;s2_league4_game2_06_stac_1399316576 -->
<g id="edge13" class="edge">
<title>s2_league4_game2_06_stac_1399316575&#45;&gt;s2_league4_game2_06_stac_1399316576</title>
<g id="a_edge13"><a xlink:title="Comment">
<path fill="none" stroke="#ff8200" d="M83.52,-169.5C87.78,-169.5 92.04,-169.5 96.3,-169.5"/>
<polygon fill="#ff8200" stroke="#ff8200" points="96.31,-171.25 101.31,-169.5 96.31,-167.75 96.31,-171.25"/>
</a>
</g>
</g>
</g>
</svg>
