<?xml version="1.0" encoding="UTF-8" standalone="no"?>
<!DOCTYPE svg PUBLIC "-//W3C//DTD SVG 1.1//EN"
 "http://www.w3.org/Graphics/SVG/1.1/DTD/svg11.dtd">
<!-- Generated by graphviz version 3.0.0 (20220226.1711)
 -->
<!-- Title: 7_s2_league4_game2_776 Pages: 1 -->
<svg width="93pt" height="345pt"
 viewBox="0.00 0.00 93.00 345.00" xmlns="http://www.w3.org/2000/svg" xmlns:xlink="http://www.w3.org/1999/xlink">
<g id="graph0" class="graph" transform="scale(1 1) rotate(0) translate(4 341)">
<title>7_s2_league4_game2_776</title>
<polygon fill="white" stroke="transparent" points="-4,4 -4,-341 89,-341 89,4 -4,4"/>
<g id="clust1" class="cluster">
<title>cluster_7_s2_league4_game2_776</title>
<polygon fill="none" stroke="black" points="8,-8 8,-329 77,-329 77,-8 8,-8"/>
<text text-anchor="middle" x="26.5" y="-313.8" font-family="Times,serif" font-size="14.00">776</text>
</g>
<!-- s2_league4_game2_07_stac_1399316473 -->
<g id="node1" class="node">
<title>s2_league4_game2_07_stac_1399316473</title>
<g id="a_node1"><a xlink:title="1 &#160;ztime &#160;anyone want wheat?">
<ellipse fill="black" stroke="black" cx="30" cy="-294.5" rx="3.5" ry="3.5"/>
</a>
</g>
</g>
<!-- 1_0 -->
<!-- s2_league4_game2_07_stac_1399316473&#45;&gt;1_0 -->
<!-- s2_league4_game2_07_stac_1399316480 -->
<g id="node3" class="node">
<title>s2_league4_game2_07_stac_1399316480</title>
<g id="a_node3"><a xlink:title="3 &#160;Shawnus &#160;for?">
<ellipse fill="black" stroke="black" cx="30" cy="-244.5" rx="3.5" ry="3.5"/>
</a>
</g>
</g>
<!-- s2_league4_game2_07_stac_1399316473&#45;&gt;s2_league4_game2_07_stac_1399316480 -->
<g id="edge16" class="edge">
<title>s2_league4_game2_07_stac_1399316473&#45;&gt;s2_league4_game2_07_stac_1399316480</title>
<g id="a_edge16"><a xlink:title="Q_Elab">
<path fill="none" stroke="#0d20ff" d="M29.6,-290.92C28.9,-286.06 27.55,-275.18 28,-266 28.21,-261.78 28.65,-257.09 29.06,-253.26"/>
<polygon fill="#0d20ff" stroke="#0d20ff" points="30.82,-253.32 29.66,-248.15 27.34,-252.91 30.82,-253.32"/>
</a>
</g>
</g>
<!-- s2_league4_game2_07_stac_1399316476 -->
<g id="node23" class="node">
<title>s2_league4_game2_07_stac_1399316476</title>
<g id="a_node23"><a xlink:title="2 &#160;somdechn &#160;No">
<ellipse fill="black" stroke="black" cx="40" cy="-269.5" rx="3.5" ry="3.5"/>
</a>
</g>
</g>
<!-- s2_league4_game2_07_stac_1399316473&#45;&gt;s2_league4_game2_07_stac_1399316476 -->
<g id="edge14" class="edge">
<title>s2_league4_game2_07_stac_1399316473&#45;&gt;s2_league4_game2_07_stac_1399316476</title>
<g id="a_edge14"><a xlink:title="Question_answer_pair">
<path fill="none" stroke="#12ffff" d="M31.07,-291.04C32.46,-287.84 34.95,-282.12 36.94,-277.53"/>
<polygon fill="#12ffff" stroke="#12ffff" points="38.58,-278.16 38.97,-272.87 35.37,-276.76 38.58,-278.16"/>
</a>
</g>
</g>
<!-- 3_0 -->
<!-- s2_league4_game2_07_stac_1399316480&#45;&gt;3_0 -->
<!-- s2_league4_game2_07_stac_1399316483 -->
<g id="node5" class="node">
<title>s2_league4_game2_07_stac_1399316483</title>
<g id="a_node5"><a xlink:title="4 &#160;ztime &#160;sheep or ore or clay">
<ellipse fill="black" stroke="black" cx="30" cy="-219.5" rx="3.5" ry="3.5"/>
</a>
</g>
</g>
<!-- s2_league4_game2_07_stac_1399316480&#45;&gt;s2_league4_game2_07_stac_1399316483 -->
<g id="edge17" class="edge">
<title>s2_league4_game2_07_stac_1399316480&#45;&gt;s2_league4_game2_07_stac_1399316483</title>
<g id="a_edge17"><a xlink:title="Question_answer_pair">
<path fill="none" stroke="#12ffff" d="M30,-240.68C30,-237.58 30,-232.47 30,-228.16"/>
<polygon fill="#12ffff" stroke="#12ffff" points="31.75,-228.06 30,-223.06 28.25,-228.06 31.75,-228.06"/>
</a>
</g>
</g>
<!-- 4_0 -->
<!-- s2_league4_game2_07_stac_1399316483&#45;&gt;4_0 -->
<!-- s2_league4_game2_07_stac_1399316486 -->
<g id="node7" class="node">
<title>s2_league4_game2_07_stac_1399316486</title>
<g id="a_node7"><a xlink:title="5 &#160;Shawnus &#160;hahaha dont have them">
<ellipse fill="black" stroke="black" cx="30" cy="-194.5" rx="3.5" ry="3.5"/>
</a>
</g>
</g>
<!-- s2_league4_game2_07_stac_1399316483&#45;&gt;s2_league4_game2_07_stac_1399316486 -->
<g id="edge18" class="edge">
<title>s2_league4_game2_07_stac_1399316483&#45;&gt;s2_league4_game2_07_stac_1399316486</title>
<g id="a_edge18"><a xlink:title="Comment">
<path fill="none" stroke="#ff8200" d="M30,-215.68C30,-212.58 30,-207.47 30,-203.16"/>
<polygon fill="#ff8200" stroke="#ff8200" points="31.75,-203.06 30,-198.06 28.25,-203.06 31.75,-203.06"/>
</a>
</g>
</g>
<!-- 5_0 -->
<!-- s2_league4_game2_07_stac_1399316486&#45;&gt;5_0 -->
<!-- s2_league4_game2_07_stac_1399316489 -->
<g id="node9" class="node">
<title>s2_league4_game2_07_stac_1399316489</title>
<g id="a_node9"><a xlink:title="6 &#160;ztime &#160;hahahaha">
<ellipse fill="black" stroke="black" cx="30" cy="-169.5" rx="3.5" ry="3.5"/>
</a>
</g>
</g>
<!-- s2_league4_game2_07_stac_1399316486&#45;&gt;s2_league4_game2_07_stac_1399316489 -->
<g id="edge19" class="edge">
<title>s2_league4_game2_07_stac_1399316486&#45;&gt;s2_league4_game2_07_stac_1399316489</title>
<g id="a_edge19"><a xlink:title="Comment">
<path fill="none" stroke="#ff8200" d="M30,-190.68C30,-187.58 30,-182.47 30,-178.16"/>
<polygon fill="#ff8200" stroke="#ff8200" points="31.75,-178.06 30,-173.06 28.25,-178.06 31.75,-178.06"/>
</a>
</g>
</g>
<!-- 6_0 -->
<!-- s2_league4_game2_07_stac_1399316489&#45;&gt;6_0 -->
<!-- s2_league4_game2_07_stac_1399316492 -->
<g id="node11" class="node">
<title>s2_league4_game2_07_stac_1399316492</title>
<g id="a_node11"><a xlink:title="7 &#160;ztime &#160;nice">
<ellipse fill="black" stroke="black" cx="30" cy="-144.5" rx="3.5" ry="3.5"/>
</a>
</g>
</g>
<!-- s2_league4_game2_07_stac_1399316489&#45;&gt;s2_league4_game2_07_stac_1399316492 -->
<g id="edge20" class="edge">
<title>s2_league4_game2_07_stac_1399316489&#45;&gt;s2_league4_game2_07_stac_1399316492</title>
<g id="a_edge20"><a xlink:title="Comment">
<path fill="none" stroke="#ff8200" d="M30,-165.68C30,-162.58 30,-157.47 30,-153.16"/>
<polygon fill="#ff8200" stroke="#ff8200" points="31.75,-153.06 30,-148.06 28.25,-153.06 31.75,-153.06"/>
</a>
</g>
</g>
<!-- 7_0 -->
<!-- s2_league4_game2_07_stac_1399316492&#45;&gt;7_0 -->
<!-- s2_league4_game2_07_stac_1399316495 -->
<g id="node13" class="node">
<title>s2_league4_game2_07_stac_1399316495</title>
<g id="a_node13"><a xlink:title="8 &#160;ztime &#160;lol">
<ellipse fill="black" stroke="black" cx="30" cy="-119.5" rx="3.5" ry="3.5"/>
</a>
</g>
</g>
<!-- s2_league4_game2_07_stac_1399316492&#45;&gt;s2_league4_game2_07_stac_1399316495 -->
<g id="edge21" class="edge">
<title>s2_league4_game2_07_stac_1399316492&#45;&gt;s2_league4_game2_07_stac_1399316495</title>
<g id="a_edge21"><a xlink:title="Comment">
<path fill="none" stroke="#ff8200" d="M30,-140.68C30,-137.58 30,-132.47 30,-128.16"/>
<polygon fill="#ff8200" stroke="#ff8200" points="31.75,-128.06 30,-123.06 28.25,-128.06 31.75,-128.06"/>
</a>
</g>
</g>
<!-- 8_0 -->
<!-- s2_league4_game2_07_stac_1399316495&#45;&gt;8_0 -->
<!-- s2_league4_game2_07_stac_1399316498 -->
<g id="node15" class="node">
<title>s2_league4_game2_07_stac_1399316498</title>
<g id="a_node15"><a xlink:title="9 &#160;ztime &#160;laptop?">
<ellipse fill="black" stroke="black" cx="30" cy="-94.5" rx="3.5" ry="3.5"/>
</a>
</g>
</g>
<!-- s2_league4_game2_07_stac_1399316495&#45;&gt;s2_league4_game2_07_stac_1399316498 -->
<g id="edge22" class="edge">
<title>s2_league4_game2_07_stac_1399316495&#45;&gt;s2_league4_game2_07_stac_1399316498</title>
<g id="a_edge22"><a xlink:title="ParallNarrContinuationbackground">
<path fill="none" stroke="#0ab046" d="M30,-115.68C30,-112.58 30,-107.47 30,-103.16"/>
<polygon fill="#0ab046" stroke="#0ab046" points="31.75,-103.06 30,-98.06 28.25,-103.06 31.75,-103.06"/>
</a>
</g>
</g>
<!-- 9_0 -->
<!-- s2_league4_game2_07_stac_1399316498&#45;&gt;9_0 -->
<!-- s2_league4_game2_07_stac_1399316501 -->
<g id="node17" class="node">
<title>s2_league4_game2_07_stac_1399316501</title>
<g id="a_node17"><a xlink:title="10 &#160;somdechn &#160;Sure">
<ellipse fill="black" stroke="black" cx="20" cy="-69.5" rx="3.5" ry="3.5"/>
</a>
</g>
</g>
<!-- s2_league4_game2_07_stac_1399316498&#45;&gt;s2_league4_game2_07_stac_1399316501 -->
<g id="edge23" class="edge">
<title>s2_league4_game2_07_stac_1399316498&#45;&gt;s2_league4_game2_07_stac_1399316501</title>
<g id="a_edge23"><a xlink:title="Question_answer_pair">
<path fill="none" stroke="#12ffff" d="M28.93,-91.04C27.54,-87.84 25.05,-82.12 23.06,-77.53"/>
<polygon fill="#12ffff" stroke="#12ffff" points="24.63,-76.76 21.03,-72.87 21.42,-78.16 24.63,-76.76"/>
</a>
</g>
</g>
<!-- s2_league4_game2_07_stac_1399316504 -->
<g id="node19" class="node">
<title>s2_league4_game2_07_stac_1399316504</title>
<g id="a_node19"><a xlink:title="11 &#160;Shawnus &#160;built out of wood sure">
<ellipse fill="black" stroke="black" cx="30" cy="-44.5" rx="3.5" ry="3.5"/>
</a>
</g>
</g>
<!-- s2_league4_game2_07_stac_1399316498&#45;&gt;s2_league4_game2_07_stac_1399316504 -->
<g id="edge24" class="edge">
<title>s2_league4_game2_07_stac_1399316498&#45;&gt;s2_league4_game2_07_stac_1399316504</title>
<g id="a_edge24"><a xlink:title="Question_answer_pair">
<path fill="none" stroke="#12ffff" d="M33.01,-92.39C39.08,-89.95 52.66,-83.53 58,-73 63.46,-62.24 47.96,-53.2 37.89,-48.66"/>
<polygon fill="#12ffff" stroke="#12ffff" points="38.55,-47.04 33.26,-46.7 37.19,-50.26 38.55,-47.04"/>
</a>
</g>
</g>
<!-- 10_0 -->
<!-- s2_league4_game2_07_stac_1399316501&#45;&gt;10_0 -->
<!-- s2_league4_game2_07_stac_1399316501&#45;&gt;s2_league4_game2_07_stac_1399316504 -->
<!-- 11_0 -->
<!-- s2_league4_game2_07_stac_1399316504&#45;&gt;11_0 -->
<!-- s2_league4_game2_07_stac_1399316507 -->
<g id="node21" class="node">
<title>s2_league4_game2_07_stac_1399316507</title>
<g id="a_node21"><a xlink:title="12 &#160;somdechn &#160;:)">
<ellipse fill="black" stroke="black" cx="30" cy="-19.5" rx="3.5" ry="3.5"/>
</a>
</g>
</g>
<!-- s2_league4_game2_07_stac_1399316504&#45;&gt;s2_league4_game2_07_stac_1399316507 -->
<g id="edge25" class="edge">
<title>s2_league4_game2_07_stac_1399316504&#45;&gt;s2_league4_game2_07_stac_1399316507</title>
<g id="a_edge25"><a xlink:title="Comment">
<path fill="none" stroke="#ff8200" d="M30,-40.68C30,-37.58 30,-32.47 30,-28.16"/>
<polygon fill="#ff8200" stroke="#ff8200" points="31.75,-28.06 30,-23.06 28.25,-28.06 31.75,-28.06"/>
</a>
</g>
</g>
<!-- 12_0 -->
<!-- s2_league4_game2_07_stac_1399316507&#45;&gt;12_0 -->
<!-- s2_league4_game2_07_stac_1399316476&#45;&gt;s2_league4_game2_07_stac_1399316480 -->
<!-- s2_league4_game2_07_stac_1399316477 -->
<g id="node24" class="node">
<title>s2_league4_game2_07_stac_1399316477</title>
<g id="a_node24"><a xlink:title="2 &#160;somdechn &#160;thanks">
<ellipse fill="black" stroke="black" cx="65" cy="-269.5" rx="3.5" ry="3.5"/>
</a>
</g>
</g>
<!-- s2_league4_game2_07_stac_1399316476&#45;&gt;s2_league4_game2_07_stac_1399316477 -->
<g id="edge15" class="edge">
<title>s2_league4_game2_07_stac_1399316476&#45;&gt;s2_league4_game2_07_stac_1399316477</title>
<g id="a_edge15"><a xlink:title="Comment">
<path fill="none" stroke="#ff8200" d="M43.52,-269.5C47.78,-269.5 52.04,-269.5 56.3,-269.5"/>
<polygon fill="#ff8200" stroke="#ff8200" points="56.31,-271.25 61.31,-269.5 56.31,-267.75 56.31,-271.25"/>
</a>
</g>
</g>
</g>
</svg>
