<?xml version="1.0" encoding="UTF-8" standalone="no"?>
<!DOCTYPE svg PUBLIC "-//W3C//DTD SVG 1.1//EN"
 "http://www.w3.org/Graphics/SVG/1.1/DTD/svg11.dtd">
<!-- Generated by graphviz version 3.0.0 (20220226.1711)
 -->
<!-- Title: 7_s2_league4_game2_777 Pages: 1 -->
<svg width="134pt" height="395pt"
 viewBox="0.00 0.00 134.00 395.00" xmlns="http://www.w3.org/2000/svg" xmlns:xlink="http://www.w3.org/1999/xlink">
<g id="graph0" class="graph" transform="scale(1 1) rotate(0) translate(4 391)">
<title>7_s2_league4_game2_777</title>
<polygon fill="white" stroke="transparent" points="-4,4 -4,-391 130,-391 130,4 -4,4"/>
<g id="clust1" class="cluster">
<title>cluster_7_s2_league4_game2_777</title>
<polygon fill="none" stroke="black" points="8,-8 8,-379 118,-379 118,-8 8,-8"/>
<text text-anchor="middle" x="26.5" y="-363.8" font-family="Times,serif" font-size="14.00">777</text>
</g>
<!-- s2_league4_game2_07_stac_1399316511 -->
<g id="node1" class="node">
<title>s2_league4_game2_07_stac_1399316511</title>
<g id="a_node1"><a xlink:title="1 &#160;somdechn &#160;Wood &#45;&gt; Sheep">
<ellipse fill="black" stroke="black" cx="53" cy="-344.5" rx="3.5" ry="3.5"/>
</a>
</g>
</g>
<!-- 1_0 -->
<!-- s2_league4_game2_07_stac_1399316511&#45;&gt;1_0 -->
<!-- s2_league4_game2_07_stac_1399316514 -->
<g id="node3" class="node">
<title>s2_league4_game2_07_stac_1399316514</title>
<g id="a_node3"><a xlink:title="2 &#160;somdechn &#160;I need sheep here..">
<ellipse fill="black" stroke="black" cx="53" cy="-319.5" rx="3.5" ry="3.5"/>
</a>
</g>
</g>
<!-- s2_league4_game2_07_stac_1399316511&#45;&gt;s2_league4_game2_07_stac_1399316514 -->
<g id="edge20" class="edge">
<title>s2_league4_game2_07_stac_1399316511&#45;&gt;s2_league4_game2_07_stac_1399316514</title>
<g id="a_edge20"><a xlink:title="Elaboration">
<path fill="none" stroke="#a621c7" d="M53,-340.68C53,-337.58 53,-332.47 53,-328.16"/>
<polygon fill="#a621c7" stroke="#a621c7" points="54.75,-328.06 53,-323.06 51.25,-328.06 54.75,-328.06"/>
</a>
</g>
</g>
<!-- 2_0 -->
<!-- s2_league4_game2_07_stac_1399316514&#45;&gt;2_0 -->
<!-- s2_league4_game2_07_stac_1399316517 -->
<g id="node5" class="node">
<title>s2_league4_game2_07_stac_1399316517</title>
<g id="a_node5"><a xlink:title="3 &#160;ztime &#160;sorry">
<ellipse fill="black" stroke="black" cx="20" cy="-294.5" rx="3.5" ry="3.5"/>
</a>
</g>
</g>
<!-- s2_league4_game2_07_stac_1399316514&#45;&gt;s2_league4_game2_07_stac_1399316517 -->
<g id="edge21" class="edge">
<title>s2_league4_game2_07_stac_1399316514&#45;&gt;s2_league4_game2_07_stac_1399316517</title>
<g id="a_edge21"><a xlink:title="Question_answer_pair">
<path fill="none" stroke="#12ffff" d="M50.41,-316.7C45.37,-313.18 34.11,-305.33 26.8,-300.24"/>
<polygon fill="#12ffff" stroke="#12ffff" points="27.59,-298.66 22.49,-297.23 25.59,-301.53 27.59,-298.66"/>
</a>
</g>
</g>
<!-- s2_league4_game2_07_stac_1399316520 -->
<g id="node7" class="node">
<title>s2_league4_game2_07_stac_1399316520</title>
<g id="a_node7"><a xlink:title="4 &#160;Shawnus &#160;sorry,">
<ellipse fill="black" stroke="black" cx="35" cy="-269.5" rx="3.5" ry="3.5"/>
</a>
</g>
</g>
<!-- s2_league4_game2_07_stac_1399316514&#45;&gt;s2_league4_game2_07_stac_1399316520 -->
<g id="edge22" class="edge">
<title>s2_league4_game2_07_stac_1399316514&#45;&gt;s2_league4_game2_07_stac_1399316520</title>
<g id="a_edge22"><a xlink:title="Question_answer_pair">
<path fill="none" stroke="#12ffff" d="M52.03,-315.92C49.4,-308.89 42.01,-289.19 37.88,-278.18"/>
<polygon fill="#12ffff" stroke="#12ffff" points="39.46,-277.4 36.06,-273.33 36.18,-278.63 39.46,-277.4"/>
</a>
</g>
</g>
<!-- s2_league4_game2_07_stac_1399316521 -->
<g id="node8" class="node">
<title>s2_league4_game2_07_stac_1399316521</title>
<g id="a_node8"><a xlink:title="4 &#160;Shawnus &#160;no sheep on my lands">
<ellipse fill="black" stroke="black" cx="60" cy="-269.5" rx="3.5" ry="3.5"/>
</a>
</g>
</g>
<!-- s2_league4_game2_07_stac_1399316514&#45;&gt;s2_league4_game2_07_stac_1399316521 -->
<g id="edge23" class="edge">
<title>s2_league4_game2_07_stac_1399316514&#45;&gt;s2_league4_game2_07_stac_1399316521</title>
<g id="a_edge23"><a xlink:title="Question_answer_pair">
<path fill="none" stroke="#12ffff" d="M53.38,-315.92C54.39,-308.95 57.22,-289.55 58.84,-278.49"/>
<polygon fill="#12ffff" stroke="#12ffff" points="60.6,-278.53 59.59,-273.33 57.13,-278.03 60.6,-278.53"/>
</a>
</g>
</g>
<!-- s2_league4_game2_07_stac_1399316524 -->
<g id="node9" class="node">
<title>s2_league4_game2_07_stac_1399316524</title>
<g id="a_node9"><a xlink:title="5 &#160;ztime &#160;sheep&#45;free">
<ellipse fill="black" stroke="black" cx="60" cy="-244.5" rx="3.5" ry="3.5"/>
</a>
</g>
</g>
<!-- s2_league4_game2_07_stac_1399316514&#45;&gt;s2_league4_game2_07_stac_1399316524 -->
<g id="edge24" class="edge">
<title>s2_league4_game2_07_stac_1399316514&#45;&gt;s2_league4_game2_07_stac_1399316524</title>
<g id="a_edge24"><a xlink:title="Question_answer_pair">
<path fill="none" stroke="#12ffff" d="M54.46,-316.15C58.41,-309.62 69.31,-290.56 73,-273 73.64,-269.96 73.87,-268.99 73,-266 71.48,-260.76 68.18,-255.58 65.28,-251.74"/>
<polygon fill="#12ffff" stroke="#12ffff" points="66.5,-250.47 61.99,-247.69 63.78,-252.67 66.5,-250.47"/>
</a>
</g>
</g>
<!-- 3_0 -->
<!-- s2_league4_game2_07_stac_1399316517&#45;&gt;3_0 -->
<!-- s2_league4_game2_07_stac_1399316517&#45;&gt;s2_league4_game2_07_stac_1399316520 -->
<!-- s2_league4_game2_07_stac_1399316520&#45;&gt;s2_league4_game2_07_stac_1399316521 -->
<!-- s2_league4_game2_07_stac_1399316520&#45;&gt;s2_league4_game2_07_stac_1399316524 -->
<!-- s2_league4_game2_07_stac_1399316521&#45;&gt;s2_league4_game2_07_stac_1399316524 -->
<g id="edge25" class="edge">
<title>s2_league4_game2_07_stac_1399316521&#45;&gt;s2_league4_game2_07_stac_1399316524</title>
<g id="a_edge25"><a xlink:title="Comment">
<path fill="none" stroke="#ff8200" d="M60,-265.68C60,-262.58 60,-257.47 60,-253.16"/>
<polygon fill="#ff8200" stroke="#ff8200" points="61.75,-253.06 60,-248.06 58.25,-253.06 61.75,-253.06"/>
</a>
</g>
</g>
<!-- 5_0 -->
<!-- s2_league4_game2_07_stac_1399316524&#45;&gt;5_0 -->
<!-- s2_league4_game2_07_stac_1399316527 -->
<g id="node11" class="node">
<title>s2_league4_game2_07_stac_1399316527</title>
<g id="a_node11"><a xlink:title="6 &#160;somdechn &#160;2 woods for anything but not wheat.">
<ellipse fill="black" stroke="black" cx="60" cy="-219.5" rx="3.5" ry="3.5"/>
</a>
</g>
</g>
<!-- s2_league4_game2_07_stac_1399316524&#45;&gt;s2_league4_game2_07_stac_1399316527 -->
<g id="edge26" class="edge">
<title>s2_league4_game2_07_stac_1399316524&#45;&gt;s2_league4_game2_07_stac_1399316527</title>
<g id="a_edge26"><a xlink:title="Question_answer_pair">
<path fill="none" stroke="#12ffff" d="M60,-240.68C60,-237.58 60,-232.47 60,-228.16"/>
<polygon fill="#12ffff" stroke="#12ffff" points="61.75,-228.06 60,-223.06 58.25,-228.06 61.75,-228.06"/>
</a>
</g>
</g>
<!-- 6_0 -->
<!-- s2_league4_game2_07_stac_1399316527&#45;&gt;6_0 -->
<!-- s2_league4_game2_07_stac_1399316530 -->
<g id="node13" class="node">
<title>s2_league4_game2_07_stac_1399316530</title>
<g id="a_node13"><a xlink:title="7 &#160;ztime &#160;sorry">
<ellipse fill="black" stroke="black" cx="52" cy="-194.5" rx="3.5" ry="3.5"/>
</a>
</g>
</g>
<!-- s2_league4_game2_07_stac_1399316527&#45;&gt;s2_league4_game2_07_stac_1399316530 -->
<g id="edge27" class="edge">
<title>s2_league4_game2_07_stac_1399316527&#45;&gt;s2_league4_game2_07_stac_1399316530</title>
<g id="a_edge27"><a xlink:title="Question_answer_pair">
<path fill="none" stroke="#12ffff" d="M59.14,-216.04C58.08,-212.97 56.21,-207.6 54.65,-203.12"/>
<polygon fill="#12ffff" stroke="#12ffff" points="56.22,-202.3 52.92,-198.16 52.91,-203.45 56.22,-202.3"/>
</a>
</g>
</g>
<!-- s2_league4_game2_07_stac_1399316533 -->
<g id="node15" class="node">
<title>s2_league4_game2_07_stac_1399316533</title>
<g id="a_node15"><a xlink:title="8 &#160;ztime &#160;unless you&#39;d accept a wood in return??">
<ellipse fill="black" stroke="black" cx="62" cy="-169.5" rx="3.5" ry="3.5"/>
</a>
</g>
</g>
<!-- s2_league4_game2_07_stac_1399316527&#45;&gt;s2_league4_game2_07_stac_1399316533 -->
<g id="edge28" class="edge">
<title>s2_league4_game2_07_stac_1399316527&#45;&gt;s2_league4_game2_07_stac_1399316533</title>
<g id="a_edge28"><a xlink:title="Clarification_question">
<path fill="none" stroke="#ff40d1" d="M60.85,-215.88C62.06,-212.02 64.21,-204.55 65,-198 65.81,-191.28 64.82,-183.62 63.76,-178.09"/>
<polygon fill="#ff40d1" stroke="#ff40d1" points="65.44,-177.6 62.68,-173.08 62.02,-178.34 65.44,-177.6"/>
</a>
</g>
</g>
<!-- 7_0 -->
<!-- s2_league4_game2_07_stac_1399316530&#45;&gt;7_0 -->
<!-- s2_league4_game2_07_stac_1399316530&#45;&gt;s2_league4_game2_07_stac_1399316533 -->
<!-- 8_0 -->
<!-- s2_league4_game2_07_stac_1399316533&#45;&gt;8_0 -->
<!-- s2_league4_game2_07_stac_1399316536 -->
<g id="node17" class="node">
<title>s2_league4_game2_07_stac_1399316536</title>
<g id="a_node17"><a xlink:title="9 &#160;Shawnus &#160;hahaha a ore?">
<ellipse fill="black" stroke="black" cx="54" cy="-144.5" rx="3.5" ry="3.5"/>
</a>
</g>
</g>
<!-- s2_league4_game2_07_stac_1399316533&#45;&gt;s2_league4_game2_07_stac_1399316536 -->
<g id="edge29" class="edge">
<title>s2_league4_game2_07_stac_1399316533&#45;&gt;s2_league4_game2_07_stac_1399316536</title>
<g id="a_edge29"><a xlink:title="Q_Elab">
<path fill="none" stroke="#0d20ff" d="M61.14,-166.04C60.08,-162.97 58.21,-157.6 56.65,-153.12"/>
<polygon fill="#0d20ff" stroke="#0d20ff" points="58.22,-152.3 54.92,-148.16 54.91,-153.45 58.22,-152.3"/>
</a>
</g>
</g>
<!-- s2_league4_game2_07_stac_1399316539 -->
<g id="node19" class="node">
<title>s2_league4_game2_07_stac_1399316539</title>
<g id="a_node19"><a xlink:title="10 &#160;somdechn &#160;Sure thing..">
<ellipse fill="black" stroke="black" cx="59" cy="-119.5" rx="3.5" ry="3.5"/>
</a>
</g>
</g>
<!-- s2_league4_game2_07_stac_1399316533&#45;&gt;s2_league4_game2_07_stac_1399316539 -->
<g id="edge30" class="edge">
<title>s2_league4_game2_07_stac_1399316533&#45;&gt;s2_league4_game2_07_stac_1399316539</title>
<g id="a_edge30"><a xlink:title="Question_answer_pair">
<path fill="none" stroke="#12ffff" d="M63.1,-165.92C65.05,-161.05 68.72,-150.16 67,-141 66.13,-136.36 64.23,-131.42 62.5,-127.55"/>
<polygon fill="#12ffff" stroke="#12ffff" points="63.97,-126.57 60.23,-122.81 60.82,-128.08 63.97,-126.57"/>
</a>
</g>
</g>
<!-- 9_0 -->
<!-- s2_league4_game2_07_stac_1399316536&#45;&gt;9_0 -->
<!-- s2_league4_game2_07_stac_1399316536&#45;&gt;s2_league4_game2_07_stac_1399316539 -->
<!-- 10_0 -->
<!-- s2_league4_game2_07_stac_1399316539&#45;&gt;10_0 -->
<!-- s2_league4_game2_07_stac_1399316542 -->
<g id="node21" class="node">
<title>s2_league4_game2_07_stac_1399316542</title>
<g id="a_node21"><a xlink:title="11 &#160;ztime &#160;great... set it up!">
<ellipse fill="black" stroke="black" cx="46" cy="-94.5" rx="3.5" ry="3.5"/>
</a>
</g>
</g>
<!-- s2_league4_game2_07_stac_1399316539&#45;&gt;s2_league4_game2_07_stac_1399316542 -->
<g id="edge31" class="edge">
<title>s2_league4_game2_07_stac_1399316539&#45;&gt;s2_league4_game2_07_stac_1399316542</title>
<g id="a_edge31"><a xlink:title="Comment">
<path fill="none" stroke="#ff8200" d="M57.61,-116.04C55.76,-112.77 52.43,-106.87 49.8,-102.23"/>
<polygon fill="#ff8200" stroke="#ff8200" points="51.33,-101.37 47.34,-97.87 48.28,-103.09 51.33,-101.37"/>
</a>
</g>
</g>
<!-- s2_league4_game2_07_stac_1399316545 -->
<g id="node23" class="node">
<title>s2_league4_game2_07_stac_1399316545</title>
<g id="a_node23"><a xlink:title="12 &#160;somdechn &#160;ore would be good">
<ellipse fill="black" stroke="black" cx="69" cy="-69.5" rx="3.5" ry="3.5"/>
</a>
</g>
</g>
<!-- s2_league4_game2_07_stac_1399316539&#45;&gt;s2_league4_game2_07_stac_1399316545 -->
<g id="edge32" class="edge">
<title>s2_league4_game2_07_stac_1399316539&#45;&gt;s2_league4_game2_07_stac_1399316545</title>
<g id="a_edge32"><a xlink:title="Elaboration">
<path fill="none" stroke="#a621c7" d="M59.54,-115.92C60.99,-108.95 65.03,-89.55 67.34,-78.49"/>
<polygon fill="#a621c7" stroke="#a621c7" points="69.1,-78.58 68.41,-73.33 65.68,-77.87 69.1,-78.58"/>
</a>
</g>
</g>
<!-- 11_0 -->
<!-- s2_league4_game2_07_stac_1399316542&#45;&gt;11_0 -->
<!-- s2_league4_game2_07_stac_1399316542&#45;&gt;s2_league4_game2_07_stac_1399316545 -->
<!-- s2_league4_game2_07_stacutil_1464011601 -->
<g id="node27" class="node">
<title>s2_league4_game2_07_stacutil_1464011601</title>
<g id="a_node27"><a xlink:title="13 &#160;Shawnus &#160;you sound desperate and i can&#39;t">
<ellipse fill="black" stroke="black" cx="57" cy="-44.5" rx="3.5" ry="3.5"/>
</a>
</g>
</g>
<!-- s2_league4_game2_07_stac_1399316542&#45;&gt;s2_league4_game2_07_stacutil_1464011601 -->
<g id="edge33" class="edge">
<title>s2_league4_game2_07_stac_1399316542&#45;&gt;s2_league4_game2_07_stacutil_1464011601</title>
<g id="a_edge33"><a xlink:title="Comment">
<path fill="none" stroke="#ff8200" d="M46.59,-90.92C48.19,-83.95 52.64,-64.55 55.17,-53.49"/>
<polygon fill="#ff8200" stroke="#ff8200" points="56.94,-53.6 56.35,-48.33 53.53,-52.81 56.94,-53.6"/>
</a>
</g>
</g>
<!-- 12_0 -->
<!-- s2_league4_game2_07_stac_1399316545&#45;&gt;12_0 -->
<!-- s2_league4_game2_07_stac_1399316545&#45;&gt;s2_league4_game2_07_stacutil_1464011601 -->
<!-- s2_league4_game2_07_stac_1399316551 -->
<g id="node25" class="node">
<title>s2_league4_game2_07_stac_1399316551</title>
<g id="a_node25"><a xlink:title="14 &#160;somdechn &#160;Just want to get rid of the cards.">
<ellipse fill="black" stroke="black" cx="57" cy="-19.5" rx="3.5" ry="3.5"/>
</a>
</g>
</g>
<!-- 14_0 -->
<!-- s2_league4_game2_07_stac_1399316551&#45;&gt;14_0 -->
<!-- s2_league4_game2_07_stacutil_1464011601&#45;&gt;s2_league4_game2_07_stac_1399316551 -->
<g id="edge35" class="edge">
<title>s2_league4_game2_07_stacutil_1464011601&#45;&gt;s2_league4_game2_07_stac_1399316551</title>
<g id="a_edge35"><a xlink:title="ContrastCorrection">
<path fill="none" stroke="#ff7ecf" d="M57,-40.68C57,-37.58 57,-32.47 57,-28.16"/>
<polygon fill="#ff7ecf" stroke="#ff7ecf" points="58.75,-28.06 57,-23.06 55.25,-28.06 58.75,-28.06"/>
</a>
</g>
</g>
<!-- s2_league4_game2_07_stacutil_1464011602 -->
<g id="node28" class="node">
<title>s2_league4_game2_07_stacutil_1464011602</title>
<g id="a_node28"><a xlink:title="13 &#160;Shawnus &#160;so no">
<ellipse fill="black" stroke="black" cx="82" cy="-44.5" rx="3.5" ry="3.5"/>
</a>
</g>
</g>
<!-- s2_league4_game2_07_stacutil_1464011601&#45;&gt;s2_league4_game2_07_stacutil_1464011602 -->
<g id="edge34" class="edge">
<title>s2_league4_game2_07_stacutil_1464011601&#45;&gt;s2_league4_game2_07_stacutil_1464011602</title>
<g id="a_edge34"><a xlink:title="ExplanationResult">
<path fill="none" stroke="#a62139" d="M60.52,-44.5C64.78,-44.5 69.04,-44.5 73.3,-44.5"/>
<polygon fill="#a62139" stroke="#a62139" points="73.31,-46.25 78.31,-44.5 73.31,-42.75 73.31,-46.25"/>
</a>
</g>
</g>
</g>
</svg>
