<?xml version="1.0" encoding="UTF-8" standalone="no"?>
<!DOCTYPE svg PUBLIC "-//W3C//DTD SVG 1.1//EN"
 "http://www.w3.org/Graphics/SVG/1.1/DTD/svg11.dtd">
<!-- Generated by graphviz version 3.0.0 (20220226.1711)
 -->
<!-- Title: 5_s2_league4_game2_768 Pages: 1 -->
<svg width="93pt" height="145pt"
 viewBox="0.00 0.00 93.00 145.00" xmlns="http://www.w3.org/2000/svg" xmlns:xlink="http://www.w3.org/1999/xlink">
<g id="graph0" class="graph" transform="scale(1 1) rotate(0) translate(4 141)">
<title>5_s2_league4_game2_768</title>
<polygon fill="white" stroke="transparent" points="-4,4 -4,-141 89,-141 89,4 -4,4"/>
<g id="clust1" class="cluster">
<title>cluster_5_s2_league4_game2_768</title>
<polygon fill="none" stroke="black" points="8,-8 8,-129 77,-129 77,-8 8,-8"/>
<text text-anchor="middle" x="26.5" y="-113.8" font-family="Times,serif" font-size="14.00">768</text>
</g>
<!-- s2_league4_game2_05_stac_1399316603 -->
<g id="node1" class="node">
<title>s2_league4_game2_05_stac_1399316603</title>
<g id="a_node1"><a xlink:title="3 &#160;ztime &#160;I&#39;ll do 1 ore for 1 wood and 1 sheep">
<ellipse fill="black" stroke="black" cx="30" cy="-44.5" rx="3.5" ry="3.5"/>
</a>
</g>
</g>
<!-- 3_0 -->
<!-- s2_league4_game2_05_stac_1399316603&#45;&gt;3_0 -->
<!-- s2_league4_game2_05_stac_1399316606 -->
<g id="node3" class="node">
<title>s2_league4_game2_05_stac_1399316606</title>
<g id="a_node3"><a xlink:title="4 &#160;somdechn &#160;Hmmm nah...">
<ellipse fill="black" stroke="black" cx="30" cy="-19.5" rx="3.5" ry="3.5"/>
</a>
</g>
</g>
<!-- s2_league4_game2_05_stac_1399316603&#45;&gt;s2_league4_game2_05_stac_1399316606 -->
<g id="edge8" class="edge">
<title>s2_league4_game2_05_stac_1399316603&#45;&gt;s2_league4_game2_05_stac_1399316606</title>
<g id="a_edge8"><a xlink:title="Question_answer_pair">
<path fill="none" stroke="#12ffff" d="M30,-40.68C30,-37.58 30,-32.47 30,-28.16"/>
<polygon fill="#12ffff" stroke="#12ffff" points="31.75,-28.06 30,-23.06 28.25,-28.06 31.75,-28.06"/>
</a>
</g>
</g>
<!-- 4_0 -->
<!-- s2_league4_game2_05_stac_1399316606&#45;&gt;4_0 -->
<!-- s2_league4_game2_05_stac_1399316595 -->
<g id="node5" class="node">
<title>s2_league4_game2_05_stac_1399316595</title>
<g id="a_node5"><a xlink:title="1 &#160;somdechn &#160;I need either ore or clay..">
<ellipse fill="black" stroke="black" cx="30" cy="-94.5" rx="3.5" ry="3.5"/>
</a>
</g>
</g>
<!-- s2_league4_game2_05_stac_1399316595&#45;&gt;s2_league4_game2_05_stac_1399316603 -->
<g id="edge6" class="edge">
<title>s2_league4_game2_05_stac_1399316595&#45;&gt;s2_league4_game2_05_stac_1399316603</title>
<g id="a_edge6"><a xlink:title="Question_answer_pair">
<path fill="none" stroke="#12ffff" d="M29.66,-90.85C29.17,-86.95 28.31,-79.43 28,-73 27.67,-66.26 28.31,-58.6 28.95,-53.08"/>
<polygon fill="#12ffff" stroke="#12ffff" points="30.69,-53.26 29.6,-48.08 27.22,-52.81 30.69,-53.26"/>
</a>
</g>
</g>
<!-- s2_league4_game2_05_stac_1399316596 -->
<g id="node6" class="node">
<title>s2_league4_game2_05_stac_1399316596</title>
<g id="a_node6"><a xlink:title="1 &#160;somdechn &#160;I can give wood or sheep.">
<ellipse fill="black" stroke="black" cx="55" cy="-94.5" rx="3.5" ry="3.5"/>
</a>
</g>
</g>
<!-- s2_league4_game2_05_stac_1399316595&#45;&gt;s2_league4_game2_05_stac_1399316596 -->
<g id="edge4" class="edge">
<title>s2_league4_game2_05_stac_1399316595&#45;&gt;s2_league4_game2_05_stac_1399316596</title>
<g id="a_edge4"><a xlink:title="Elaboration">
<path fill="none" stroke="#a621c7" d="M33.52,-94.5C37.78,-94.5 42.04,-94.5 46.3,-94.5"/>
<polygon fill="#a621c7" stroke="#a621c7" points="46.31,-96.25 51.31,-94.5 46.31,-92.75 46.31,-96.25"/>
</a>
</g>
</g>
<!-- s2_league4_game2_05_stac_1399316599 -->
<g id="node7" class="node">
<title>s2_league4_game2_05_stac_1399316599</title>
<g id="a_node7"><a xlink:title="2 &#160;Shawnus &#160;no spare">
<ellipse fill="black" stroke="black" cx="40" cy="-69.5" rx="3.5" ry="3.5"/>
</a>
</g>
</g>
<!-- s2_league4_game2_05_stac_1399316595&#45;&gt;s2_league4_game2_05_stac_1399316599 -->
<g id="edge5" class="edge">
<title>s2_league4_game2_05_stac_1399316595&#45;&gt;s2_league4_game2_05_stac_1399316599</title>
<g id="a_edge5"><a xlink:title="Question_answer_pair">
<path fill="none" stroke="#12ffff" d="M31.07,-91.04C32.46,-87.84 34.95,-82.12 36.94,-77.53"/>
<polygon fill="#12ffff" stroke="#12ffff" points="38.58,-78.16 38.97,-72.87 35.37,-76.76 38.58,-78.16"/>
</a>
</g>
</g>
<!-- s2_league4_game2_05_stac_1399316599&#45;&gt;s2_league4_game2_05_stac_1399316603 -->
<!-- s2_league4_game2_05_stac_1399316600 -->
<g id="node8" class="node">
<title>s2_league4_game2_05_stac_1399316600</title>
<g id="a_node8"><a xlink:title="2 &#160;Shawnus &#160;sorry">
<ellipse fill="black" stroke="black" cx="65" cy="-69.5" rx="3.5" ry="3.5"/>
</a>
</g>
</g>
<!-- s2_league4_game2_05_stac_1399316599&#45;&gt;s2_league4_game2_05_stac_1399316600 -->
<g id="edge7" class="edge">
<title>s2_league4_game2_05_stac_1399316599&#45;&gt;s2_league4_game2_05_stac_1399316600</title>
<g id="a_edge7"><a xlink:title="Comment">
<path fill="none" stroke="#ff8200" d="M43.52,-69.5C47.78,-69.5 52.04,-69.5 56.3,-69.5"/>
<polygon fill="#ff8200" stroke="#ff8200" points="56.31,-71.25 61.31,-69.5 56.31,-67.75 56.31,-71.25"/>
</a>
</g>
</g>
</g>
</svg>
