<?xml version="1.0" encoding="UTF-8" standalone="no"?>
<!DOCTYPE svg PUBLIC "-//W3C//DTD SVG 1.1//EN"
 "http://www.w3.org/Graphics/SVG/1.1/DTD/svg11.dtd">
<!-- Generated by graphviz version 3.0.0 (20220226.1711)
 -->
<!-- Title: 7_s2_league4_game2_779 Pages: 1 -->
<svg width="93pt" height="170pt"
 viewBox="0.00 0.00 93.00 170.00" xmlns="http://www.w3.org/2000/svg" xmlns:xlink="http://www.w3.org/1999/xlink">
<g id="graph0" class="graph" transform="scale(1 1) rotate(0) translate(4 166)">
<title>7_s2_league4_game2_779</title>
<polygon fill="white" stroke="transparent" points="-4,4 -4,-166 89,-166 89,4 -4,4"/>
<g id="clust1" class="cluster">
<title>cluster_7_s2_league4_game2_779</title>
<polygon fill="none" stroke="black" points="8,-8 8,-154 77,-154 77,-8 8,-8"/>
<text text-anchor="middle" x="26.5" y="-138.8" font-family="Times,serif" font-size="14.00">779</text>
</g>
<!-- s2_league4_game2_07_stac_1399316562 -->
<g id="node1" class="node">
<title>s2_league4_game2_07_stac_1399316562</title>
<g id="a_node1"><a xlink:title="1 &#160;somdechn &#160;Ohhh my....">
<ellipse fill="black" stroke="black" cx="30" cy="-119.5" rx="3.5" ry="3.5"/>
</a>
</g>
</g>
<!-- 1_0 -->
<!-- s2_league4_game2_07_stac_1399316562&#45;&gt;1_0 -->
<!-- s2_league4_game2_07_stac_1399316565 -->
<g id="node3" class="node">
<title>s2_league4_game2_07_stac_1399316565</title>
<g id="a_node3"><a xlink:title="2 &#160;ztime &#160;may as well...">
<ellipse fill="black" stroke="black" cx="20" cy="-94.5" rx="3.5" ry="3.5"/>
</a>
</g>
</g>
<!-- s2_league4_game2_07_stac_1399316562&#45;&gt;s2_league4_game2_07_stac_1399316565 -->
<g id="edge7" class="edge">
<title>s2_league4_game2_07_stac_1399316562&#45;&gt;s2_league4_game2_07_stac_1399316565</title>
<g id="a_edge7"><a xlink:title="Comment">
<path fill="none" stroke="#ff8200" d="M28.93,-116.04C27.54,-112.84 25.05,-107.12 23.06,-102.53"/>
<polygon fill="#ff8200" stroke="#ff8200" points="24.63,-101.76 21.03,-97.87 21.42,-103.16 24.63,-101.76"/>
</a>
</g>
</g>
<!-- s2_league4_game2_07_stac_1399316568 -->
<g id="node5" class="node">
<title>s2_league4_game2_07_stac_1399316568</title>
<g id="a_node5"><a xlink:title="3 &#160;somdechn &#160;2 woods for 1 ore?">
<ellipse fill="black" stroke="black" cx="30" cy="-69.5" rx="3.5" ry="3.5"/>
</a>
</g>
</g>
<!-- s2_league4_game2_07_stac_1399316562&#45;&gt;s2_league4_game2_07_stac_1399316568 -->
<g id="edge8" class="edge">
<title>s2_league4_game2_07_stac_1399316562&#45;&gt;s2_league4_game2_07_stac_1399316568</title>
<g id="a_edge8"><a xlink:title="ParallNarrContinuationbackground">
<path fill="none" stroke="#0ab046" d="M33.01,-117.39C39.08,-114.95 52.66,-108.53 58,-98 63.46,-87.24 47.96,-78.2 37.89,-73.66"/>
<polygon fill="#0ab046" stroke="#0ab046" points="38.55,-72.04 33.26,-71.7 37.19,-75.26 38.55,-72.04"/>
</a>
</g>
</g>
<!-- 2_0 -->
<!-- s2_league4_game2_07_stac_1399316565&#45;&gt;2_0 -->
<!-- s2_league4_game2_07_stac_1399316565&#45;&gt;s2_league4_game2_07_stac_1399316568 -->
<!-- 3_0 -->
<!-- s2_league4_game2_07_stac_1399316568&#45;&gt;3_0 -->
<!-- s2_league4_game2_07_stac_1399316571 -->
<g id="node7" class="node">
<title>s2_league4_game2_07_stac_1399316571</title>
<g id="a_node7"><a xlink:title="4 &#160;ztime &#160;sorry">
<ellipse fill="black" stroke="black" cx="20" cy="-44.5" rx="3.5" ry="3.5"/>
</a>
</g>
</g>
<!-- s2_league4_game2_07_stac_1399316568&#45;&gt;s2_league4_game2_07_stac_1399316571 -->
<g id="edge9" class="edge">
<title>s2_league4_game2_07_stac_1399316568&#45;&gt;s2_league4_game2_07_stac_1399316571</title>
<g id="a_edge9"><a xlink:title="Question_answer_pair">
<path fill="none" stroke="#12ffff" d="M28.93,-66.04C27.54,-62.84 25.05,-57.12 23.06,-52.53"/>
<polygon fill="#12ffff" stroke="#12ffff" points="24.63,-51.76 21.03,-47.87 21.42,-53.16 24.63,-51.76"/>
</a>
</g>
</g>
<!-- s2_league4_game2_07_stac_1399316574 -->
<g id="node9" class="node">
<title>s2_league4_game2_07_stac_1399316574</title>
<g id="a_node9"><a xlink:title="5 &#160;Shawnus &#160;nope">
<ellipse fill="black" stroke="black" cx="30" cy="-19.5" rx="3.5" ry="3.5"/>
</a>
</g>
</g>
<!-- s2_league4_game2_07_stac_1399316568&#45;&gt;s2_league4_game2_07_stac_1399316574 -->
<g id="edge10" class="edge">
<title>s2_league4_game2_07_stac_1399316568&#45;&gt;s2_league4_game2_07_stac_1399316574</title>
<g id="a_edge10"><a xlink:title="Question_answer_pair">
<path fill="none" stroke="#12ffff" d="M33.01,-67.39C39.08,-64.95 52.66,-58.53 58,-48 63.46,-37.24 47.96,-28.2 37.89,-23.66"/>
<polygon fill="#12ffff" stroke="#12ffff" points="38.55,-22.04 33.26,-21.7 37.19,-25.26 38.55,-22.04"/>
</a>
</g>
</g>
<!-- 4_0 -->
<!-- s2_league4_game2_07_stac_1399316571&#45;&gt;4_0 -->
<!-- s2_league4_game2_07_stac_1399316571&#45;&gt;s2_league4_game2_07_stac_1399316574 -->
<!-- s2_league4_game2_07_stac_1399316575 -->
<g id="node10" class="node">
<title>s2_league4_game2_07_stac_1399316575</title>
<g id="a_node10"><a xlink:title="5 &#160;Shawnus &#160;sorry">
<ellipse fill="black" stroke="black" cx="55" cy="-19.5" rx="3.5" ry="3.5"/>
</a>
</g>
</g>
<!-- s2_league4_game2_07_stac_1399316574&#45;&gt;s2_league4_game2_07_stac_1399316575 -->
<g id="edge11" class="edge">
<title>s2_league4_game2_07_stac_1399316574&#45;&gt;s2_league4_game2_07_stac_1399316575</title>
<g id="a_edge11"><a xlink:title="Comment">
<path fill="none" stroke="#ff8200" d="M33.52,-19.5C37.78,-19.5 42.04,-19.5 46.3,-19.5"/>
<polygon fill="#ff8200" stroke="#ff8200" points="46.31,-21.25 51.31,-19.5 46.31,-17.75 46.31,-21.25"/>
</a>
</g>
</g>
</g>
</svg>
