<?xml version="1.0" encoding="UTF-8" standalone="no"?>
<!DOCTYPE svg PUBLIC "-//W3C//DTD SVG 1.1//EN"
 "http://www.w3.org/Graphics/SVG/1.1/DTD/svg11.dtd">
<!-- Generated by graphviz version 3.0.0 (20220226.1711)
 -->
<!-- Title: 7_s2_league4_game2_780 Pages: 1 -->
<svg width="88pt" height="270pt"
 viewBox="0.00 0.00 88.00 270.00" xmlns="http://www.w3.org/2000/svg" xmlns:xlink="http://www.w3.org/1999/xlink">
<g id="graph0" class="graph" transform="scale(1 1) rotate(0) translate(4 266)">
<title>7_s2_league4_game2_780</title>
<polygon fill="white" stroke="transparent" points="-4,4 -4,-266 84,-266 84,4 -4,4"/>
<g id="clust1" class="cluster">
<title>cluster_7_s2_league4_game2_780</title>
<polygon fill="none" stroke="black" points="8,-8 8,-254 72,-254 72,-8 8,-8"/>
<text text-anchor="middle" x="26.5" y="-238.8" font-family="Times,serif" font-size="14.00">780</text>
</g>
<!-- s2_league4_game2_07_stac_1399316579 -->
<g id="node1" class="node">
<title>s2_league4_game2_07_stac_1399316579</title>
<g id="a_node1"><a xlink:title="1 &#160;Shawnus &#160;anyone want to give me wheat for sheep?">
<ellipse fill="black" stroke="black" cx="43" cy="-219.5" rx="3.5" ry="3.5"/>
</a>
</g>
</g>
<!-- s2_league4_game2_07_stac_1399316582 -->
<g id="node2" class="node">
<title>s2_league4_game2_07_stac_1399316582</title>
<g id="a_node2"><a xlink:title="2 &#160;ztime &#160;sorry">
<ellipse fill="black" stroke="black" cx="20" cy="-194.5" rx="3.5" ry="3.5"/>
</a>
</g>
</g>
<!-- s2_league4_game2_07_stac_1399316579&#45;&gt;s2_league4_game2_07_stac_1399316582 -->
<g id="edge6" class="edge">
<title>s2_league4_game2_07_stac_1399316579&#45;&gt;s2_league4_game2_07_stac_1399316582</title>
<g id="a_edge6"><a xlink:title="Question_answer_pair">
<path fill="none" stroke="#12ffff" d="M40.88,-216.38C37.54,-213.04 30.95,-206.45 26.06,-201.56"/>
<polygon fill="#12ffff" stroke="#12ffff" points="27.23,-200.26 22.46,-197.96 24.76,-202.73 27.23,-200.26"/>
</a>
</g>
</g>
<!-- s2_league4_game2_07_stac_1399316585 -->
<g id="node3" class="node">
<title>s2_league4_game2_07_stac_1399316585</title>
<g id="a_node3"><a xlink:title="3 &#160;somdechn &#160;I got sheep">
<ellipse fill="black" stroke="black" cx="40" cy="-169.5" rx="3.5" ry="3.5"/>
</a>
</g>
</g>
<!-- s2_league4_game2_07_stac_1399316579&#45;&gt;s2_league4_game2_07_stac_1399316585 -->
<g id="edge7" class="edge">
<title>s2_league4_game2_07_stac_1399316579&#45;&gt;s2_league4_game2_07_stac_1399316585</title>
<g id="a_edge7"><a xlink:title="Question_answer_pair">
<path fill="none" stroke="#12ffff" d="M42.84,-215.92C42.4,-208.95 41.19,-189.55 40.5,-178.49"/>
<polygon fill="#12ffff" stroke="#12ffff" points="42.24,-178.21 40.18,-173.33 38.74,-178.43 42.24,-178.21"/>
</a>
</g>
</g>
<!-- s2_league4_game2_07_stac_1399316595 -->
<g id="node6" class="node">
<title>s2_league4_game2_07_stac_1399316595</title>
<g id="a_node6"><a xlink:title="6 &#160;somdechn &#160;Shawnus I got Sheep.. still want to trand?">
<ellipse fill="black" stroke="black" cx="60" cy="-94.5" rx="3.5" ry="3.5"/>
</a>
</g>
</g>
<!-- s2_league4_game2_07_stac_1399316579&#45;&gt;s2_league4_game2_07_stac_1399316595 -->
<g id="edge8" class="edge">
<title>s2_league4_game2_07_stac_1399316579&#45;&gt;s2_league4_game2_07_stac_1399316595</title>
<g id="a_edge8"><a xlink:title="ParallNarrContinuationbackground">
<path fill="none" stroke="#0ab046" d="M44.85,-216.05C49.8,-209.23 63,-189.28 63,-170.5 63,-170.5 63,-170.5 63,-143.5 63,-129.25 61.67,-112.67 60.78,-103.2"/>
<polygon fill="#0ab046" stroke="#0ab046" points="62.51,-102.9 60.28,-98.1 59.02,-103.25 62.51,-102.9"/>
</a>
</g>
</g>
<!-- s2_league4_game2_07_stac_1399316582&#45;&gt;s2_league4_game2_07_stac_1399316585 -->
<!-- s2_league4_game2_07_stac_1399316588 -->
<g id="node4" class="node">
<title>s2_league4_game2_07_stac_1399316588</title>
<g id="a_node4"><a xlink:title="4 &#160;Shawnus &#160;oh well">
<ellipse fill="black" stroke="black" cx="38" cy="-144.5" rx="3.5" ry="3.5"/>
</a>
</g>
</g>
<!-- s2_league4_game2_07_stac_1399316582&#45;&gt;s2_league4_game2_07_stac_1399316588 -->
<g id="edge9" class="edge">
<title>s2_league4_game2_07_stac_1399316582&#45;&gt;s2_league4_game2_07_stac_1399316588</title>
<g id="a_edge9"><a xlink:title="Acknowledgement">
<path fill="none" stroke="#12ffff" d="M20.61,-190.87C21.78,-185.92 24.56,-174.91 28,-166 29.8,-161.33 32.27,-156.27 34.3,-152.34"/>
<polygon fill="#12ffff" stroke="#12ffff" points="35.89,-153.08 36.69,-147.84 32.8,-151.43 35.89,-153.08"/>
</a>
</g>
</g>
<!-- s2_league4_game2_07_stac_1399316585&#45;&gt;s2_league4_game2_07_stac_1399316588 -->
<g id="edge10" class="edge">
<title>s2_league4_game2_07_stac_1399316585&#45;&gt;s2_league4_game2_07_stac_1399316588</title>
<g id="a_edge10"><a xlink:title="Acknowledgement">
<path fill="none" stroke="#12ffff" d="M39.75,-165.68C39.49,-162.58 39.04,-157.47 38.67,-153.16"/>
<polygon fill="#12ffff" stroke="#12ffff" points="40.4,-152.89 38.22,-148.06 36.91,-153.19 40.4,-152.89"/>
</a>
</g>
</g>
<!-- s2_league4_game2_07_stac_1399316592 -->
<g id="node5" class="node">
<title>s2_league4_game2_07_stac_1399316592</title>
<g id="a_node5"><a xlink:title="5 &#160;ztime &#160;*shakes fist* at the robber...">
<ellipse fill="black" stroke="black" cx="38" cy="-119.5" rx="3.5" ry="3.5"/>
</a>
</g>
</g>
<!-- s2_league4_game2_07_stac_1399316588&#45;&gt;s2_league4_game2_07_stac_1399316592 -->
<!-- s2_league4_game2_07_stac_1399316592&#45;&gt;s2_league4_game2_07_stac_1399316595 -->
<!-- s2_league4_game2_07_stac_1399316598 -->
<g id="node7" class="node">
<title>s2_league4_game2_07_stac_1399316598</title>
<g id="a_node7"><a xlink:title="7 &#160;Shawnus &#160;haha">
<ellipse fill="black" stroke="black" cx="37" cy="-69.5" rx="3.5" ry="3.5"/>
</a>
</g>
</g>
<!-- s2_league4_game2_07_stac_1399316592&#45;&gt;s2_league4_game2_07_stac_1399316598 -->
<g id="edge11" class="edge">
<title>s2_league4_game2_07_stac_1399316592&#45;&gt;s2_league4_game2_07_stac_1399316598</title>
<g id="a_edge11"><a xlink:title="Comment">
<path fill="none" stroke="#ff8200" d="M37.95,-115.92C37.8,-108.95 37.4,-89.55 37.17,-78.49"/>
<polygon fill="#ff8200" stroke="#ff8200" points="38.91,-78.29 37.06,-73.33 35.41,-78.37 38.91,-78.29"/>
</a>
</g>
</g>
<!-- s2_league4_game2_07_stac_1399316595&#45;&gt;s2_league4_game2_07_stac_1399316598 -->
<!-- s2_league4_game2_07_stac_1399316601 -->
<g id="node8" class="node">
<title>s2_league4_game2_07_stac_1399316601</title>
<g id="a_node8"><a xlink:title="8 &#160;Shawnus &#160;i need wheat">
<ellipse fill="black" stroke="black" cx="48" cy="-44.5" rx="3.5" ry="3.5"/>
</a>
</g>
</g>
<!-- s2_league4_game2_07_stac_1399316595&#45;&gt;s2_league4_game2_07_stac_1399316601 -->
<g id="edge12" class="edge">
<title>s2_league4_game2_07_stac_1399316595&#45;&gt;s2_league4_game2_07_stac_1399316601</title>
<g id="a_edge12"><a xlink:title="Question_answer_pair">
<path fill="none" stroke="#12ffff" d="M59.35,-90.92C57.61,-83.95 52.76,-64.55 50,-53.49"/>
<polygon fill="#12ffff" stroke="#12ffff" points="51.62,-52.76 48.71,-48.33 48.22,-53.61 51.62,-52.76"/>
</a>
</g>
</g>
<!-- s2_league4_game2_07_stac_1399316598&#45;&gt;s2_league4_game2_07_stac_1399316601 -->
<!-- s2_league4_game2_07_stac_1399316604 -->
<g id="node9" class="node">
<title>s2_league4_game2_07_stac_1399316604</title>
<g id="a_node9"><a xlink:title="9 &#160;somdechn &#160;Ohh I see..">
<ellipse fill="black" stroke="black" cx="48" cy="-19.5" rx="3.5" ry="3.5"/>
</a>
</g>
</g>
<!-- s2_league4_game2_07_stac_1399316601&#45;&gt;s2_league4_game2_07_stac_1399316604 -->
<g id="edge13" class="edge">
<title>s2_league4_game2_07_stac_1399316601&#45;&gt;s2_league4_game2_07_stac_1399316604</title>
<g id="a_edge13"><a xlink:title="Acknowledgement">
<path fill="none" stroke="#12ffff" d="M48,-40.68C48,-37.58 48,-32.47 48,-28.16"/>
<polygon fill="#12ffff" stroke="#12ffff" points="49.75,-28.06 48,-23.06 46.25,-28.06 49.75,-28.06"/>
</a>
</g>
</g>
</g>
</svg>
