<?xml version="1.0" encoding="UTF-8" standalone="no"?>
<!DOCTYPE svg PUBLIC "-//W3C//DTD SVG 1.1//EN"
 "http://www.w3.org/Graphics/SVG/1.1/DTD/svg11.dtd">
<!-- Generated by graphviz version 3.0.0 (20220226.1711)
 -->
<!-- Title: 9_s2_league4_game2_787 Pages: 1 -->
<svg width="153pt" height="770pt"
 viewBox="0.00 0.00 153.00 770.00" xmlns="http://www.w3.org/2000/svg" xmlns:xlink="http://www.w3.org/1999/xlink">
<g id="graph0" class="graph" transform="scale(1 1) rotate(0) translate(4 766)">
<title>9_s2_league4_game2_787</title>
<polygon fill="white" stroke="transparent" points="-4,4 -4,-766 149,-766 149,4 -4,4"/>
<g id="clust1" class="cluster">
<title>cluster_9_s2_league4_game2_787</title>
<polygon fill="none" stroke="black" points="8,-8 8,-754 137,-754 137,-8 8,-8"/>
<text text-anchor="middle" x="26.5" y="-738.8" font-family="Times,serif" font-size="14.00">787</text>
</g>
<!-- s2_league4_game2_09_stac_1399316507 -->
<g id="node1" class="node">
<title>s2_league4_game2_09_stac_1399316507</title>
<g id="a_node1"><a xlink:title="1 &#160;somdechn &#160;I have give wood for wheat.">
<ellipse fill="black" stroke="black" cx="41" cy="-719.5" rx="3.5" ry="3.5"/>
</a>
</g>
</g>
<!-- 1_0 -->
<!-- s2_league4_game2_09_stac_1399316507&#45;&gt;1_0 -->
<!-- s2_league4_game2_09_stac_1399316510 -->
<g id="node3" class="node">
<title>s2_league4_game2_09_stac_1399316510</title>
<g id="a_node3"><a xlink:title="2 &#160;ztime &#160;have none">
<ellipse fill="black" stroke="black" cx="30" cy="-694.5" rx="3.5" ry="3.5"/>
</a>
</g>
</g>
<!-- s2_league4_game2_09_stac_1399316507&#45;&gt;s2_league4_game2_09_stac_1399316510 -->
<g id="edge44" class="edge">
<title>s2_league4_game2_09_stac_1399316507&#45;&gt;s2_league4_game2_09_stac_1399316510</title>
<g id="a_edge44"><a xlink:title="Question_answer_pair">
<path fill="none" stroke="#12ffff" d="M39.82,-716.04C38.29,-712.84 35.56,-707.12 33.36,-702.53"/>
<polygon fill="#12ffff" stroke="#12ffff" points="34.87,-701.63 31.14,-697.87 31.71,-703.14 34.87,-701.63"/>
</a>
</g>
</g>
<!-- s2_league4_game2_09_stac_1399316513 -->
<g id="node5" class="node">
<title>s2_league4_game2_09_stac_1399316513</title>
<g id="a_node5"><a xlink:title="3 &#160;Shawnus &#160;need wheat">
<ellipse fill="black" stroke="black" cx="49" cy="-669.5" rx="3.5" ry="3.5"/>
</a>
</g>
</g>
<!-- s2_league4_game2_09_stac_1399316507&#45;&gt;s2_league4_game2_09_stac_1399316513 -->
<g id="edge45" class="edge">
<title>s2_league4_game2_09_stac_1399316507&#45;&gt;s2_league4_game2_09_stac_1399316513</title>
<g id="a_edge45"><a xlink:title="Question_answer_pair">
<path fill="none" stroke="#12ffff" d="M41.43,-715.92C42.59,-708.95 45.83,-689.55 47.67,-678.49"/>
<polygon fill="#12ffff" stroke="#12ffff" points="49.43,-678.55 48.53,-673.33 45.98,-677.98 49.43,-678.55"/>
</a>
</g>
</g>
<!-- 2_0 -->
<!-- s2_league4_game2_09_stac_1399316510&#45;&gt;2_0 -->
<!-- s2_league4_game2_09_stac_1399316510&#45;&gt;s2_league4_game2_09_stac_1399316513 -->
<!-- 3_0 -->
<!-- s2_league4_game2_09_stac_1399316513&#45;&gt;3_0 -->
<!-- s2_league4_game2_09_stac_1399316516 -->
<g id="node7" class="node">
<title>s2_league4_game2_09_stac_1399316516</title>
<g id="a_node7"><a xlink:title="4 &#160;somdechn &#160;So do I.">
<ellipse fill="black" stroke="black" cx="46" cy="-644.5" rx="3.5" ry="3.5"/>
</a>
</g>
</g>
<!-- s2_league4_game2_09_stac_1399316513&#45;&gt;s2_league4_game2_09_stac_1399316516 -->
<g id="edge46" class="edge">
<title>s2_league4_game2_09_stac_1399316513&#45;&gt;s2_league4_game2_09_stac_1399316516</title>
<g id="a_edge46"><a xlink:title="ParallNarrContinuationbackground">
<path fill="none" stroke="#0ab046" d="M48.63,-665.68C48.23,-662.58 47.56,-657.47 47,-653.16"/>
<polygon fill="#0ab046" stroke="#0ab046" points="48.72,-652.79 46.33,-648.06 45.25,-653.24 48.72,-652.79"/>
</a>
</g>
</g>
<!-- s2_league4_game2_09_stac_1399316519 -->
<g id="node9" class="node">
<title>s2_league4_game2_09_stac_1399316519</title>
<g id="a_node9"><a xlink:title="5 &#160;ztime &#160;so do i">
<ellipse fill="black" stroke="black" cx="60" cy="-619.5" rx="3.5" ry="3.5"/>
</a>
</g>
</g>
<!-- s2_league4_game2_09_stac_1399316513&#45;&gt;s2_league4_game2_09_stac_1399316519 -->
<g id="edge47" class="edge">
<title>s2_league4_game2_09_stac_1399316513&#45;&gt;s2_league4_game2_09_stac_1399316519</title>
<g id="a_edge47"><a xlink:title="ParallNarrContinuationbackground">
<path fill="none" stroke="#0ab046" d="M50.51,-666.22C52.84,-662.57 57.23,-655.07 59,-648 60.63,-641.47 60.77,-633.79 60.57,-628.21"/>
<polygon fill="#0ab046" stroke="#0ab046" points="62.31,-628.01 60.26,-623.13 58.81,-628.22 62.31,-628.01"/>
</a>
</g>
</g>
<!-- s2_league4_game2_09_stac_1399316522 -->
<g id="node11" class="node">
<title>s2_league4_game2_09_stac_1399316522</title>
<g id="a_node11"><a xlink:title="6 &#160;Shawnus &#160;we should cut down some forests and plant crops..">
<ellipse fill="black" stroke="black" cx="20" cy="-594.5" rx="3.5" ry="3.5"/>
</a>
</g>
</g>
<!-- s2_league4_game2_09_stac_1399316513&#45;&gt;s2_league4_game2_09_stac_1399316522 -->
<g id="edge48" class="edge">
<title>s2_league4_game2_09_stac_1399316513&#45;&gt;s2_league4_game2_09_stac_1399316522</title>
<g id="a_edge48"><a xlink:title="ExplanationResult">
<path fill="none" stroke="#a62139" d="M46.95,-666.28C43.74,-662.7 37.55,-655.3 34,-648 26.69,-632.96 22.79,-613.59 21.09,-603.08"/>
<polygon fill="#a62139" stroke="#a62139" points="22.8,-602.71 20.32,-598.03 19.34,-603.23 22.8,-602.71"/>
</a>
</g>
</g>
<!-- s2_league4_game2_09_stac_1399316528 -->
<g id="node15" class="node">
<title>s2_league4_game2_09_stac_1399316528</title>
<g id="a_node15"><a xlink:title="8 &#160;ztime &#160;the bank always wins...">
<ellipse fill="black" stroke="black" cx="69" cy="-544.5" rx="3.5" ry="3.5"/>
</a>
</g>
</g>
<!-- s2_league4_game2_09_stac_1399316513&#45;&gt;s2_league4_game2_09_stac_1399316528 -->
<g id="edge49" class="edge">
<title>s2_league4_game2_09_stac_1399316513&#45;&gt;s2_league4_game2_09_stac_1399316528</title>
<g id="a_edge49"><a xlink:title="Comment">
<path fill="none" stroke="#ff8200" d="M52.2,-667.82C63.1,-665.44 98.5,-657.1 105,-648 126.36,-618.07 116.71,-594.92 94,-566 88.9,-559.51 81.42,-553.71 75.97,-549.96"/>
<polygon fill="#ff8200" stroke="#ff8200" points="76.8,-548.41 71.66,-547.11 74.87,-551.33 76.8,-548.41"/>
</a>
</g>
</g>
<!-- 4_0 -->
<!-- s2_league4_game2_09_stac_1399316516&#45;&gt;4_0 -->
<!-- s2_league4_game2_09_stac_1399316516&#45;&gt;s2_league4_game2_09_stac_1399316519 -->
<g id="edge50" class="edge">
<title>s2_league4_game2_09_stac_1399316516&#45;&gt;s2_league4_game2_09_stac_1399316519</title>
<g id="a_edge50"><a xlink:title="ParallNarrContinuationbackground">
<path fill="none" stroke="#0ab046" d="M47.5,-641.04C49.49,-637.77 53.08,-631.87 55.9,-627.23"/>
<polygon fill="#0ab046" stroke="#0ab046" points="57.45,-628.06 58.55,-622.87 54.46,-626.24 57.45,-628.06"/>
</a>
</g>
</g>
<!-- s2_league4_game2_09_stac_1399316516&#45;&gt;s2_league4_game2_09_stac_1399316522 -->
<g id="edge51" class="edge">
<title>s2_league4_game2_09_stac_1399316516&#45;&gt;s2_league4_game2_09_stac_1399316522</title>
<g id="a_edge51"><a xlink:title="ExplanationResult">
<path fill="none" stroke="#a62139" d="M44.75,-641.18C40.98,-634.23 29.66,-613.34 23.73,-602.38"/>
<polygon fill="#a62139" stroke="#a62139" points="25.22,-601.47 21.3,-597.9 22.15,-603.13 25.22,-601.47"/>
</a>
</g>
</g>
<!-- s2_league4_game2_09_stac_1399316516&#45;&gt;s2_league4_game2_09_stac_1399316528 -->
<g id="edge52" class="edge">
<title>s2_league4_game2_09_stac_1399316516&#45;&gt;s2_league4_game2_09_stac_1399316528</title>
<g id="a_edge52"><a xlink:title="Comment">
<path fill="none" stroke="#ff8200" d="M49.32,-643.38C58.89,-642.85 86.53,-639.85 98,-623 114.27,-599.1 87.04,-564.88 74.64,-551.34"/>
<polygon fill="#ff8200" stroke="#ff8200" points="75.8,-550.01 71.09,-547.58 73.26,-552.42 75.8,-550.01"/>
</a>
</g>
</g>
<!-- 5_0 -->
<!-- s2_league4_game2_09_stac_1399316519&#45;&gt;5_0 -->
<!-- s2_league4_game2_09_stac_1399316519&#45;&gt;s2_league4_game2_09_stac_1399316522 -->
<g id="edge53" class="edge">
<title>s2_league4_game2_09_stac_1399316519&#45;&gt;s2_league4_game2_09_stac_1399316522</title>
<g id="a_edge53"><a xlink:title="ExplanationResult">
<path fill="none" stroke="#a62139" d="M57.38,-616.99C51.33,-613.52 36.26,-604.85 27.21,-599.64"/>
<polygon fill="#a62139" stroke="#a62139" points="27.89,-598.02 22.69,-597.04 26.15,-601.05 27.89,-598.02"/>
</a>
</g>
</g>
<!-- s2_league4_game2_09_stac_1399316519&#45;&gt;s2_league4_game2_09_stac_1399316528 -->
<g id="edge54" class="edge">
<title>s2_league4_game2_09_stac_1399316519&#45;&gt;s2_league4_game2_09_stac_1399316528</title>
<g id="a_edge54"><a xlink:title="Comment">
<path fill="none" stroke="#ff8200" d="M60.34,-615.73C61.6,-605.52 66.01,-569.78 68,-553.59"/>
<polygon fill="#ff8200" stroke="#ff8200" points="69.78,-553.45 68.66,-548.28 66.31,-553.02 69.78,-553.45"/>
</a>
</g>
</g>
<!-- 6_0 -->
<!-- s2_league4_game2_09_stac_1399316522&#45;&gt;6_0 -->
<!-- s2_league4_game2_09_stac_1399316525 -->
<g id="node13" class="node">
<title>s2_league4_game2_09_stac_1399316525</title>
<g id="a_node13"><a xlink:title="7 &#160;ztime &#160;yer...">
<ellipse fill="black" stroke="black" cx="39" cy="-569.5" rx="3.5" ry="3.5"/>
</a>
</g>
</g>
<!-- s2_league4_game2_09_stac_1399316522&#45;&gt;s2_league4_game2_09_stac_1399316525 -->
<g id="edge55" class="edge">
<title>s2_league4_game2_09_stac_1399316522&#45;&gt;s2_league4_game2_09_stac_1399316525</title>
<g id="a_edge55"><a xlink:title="Acknowledgement">
<path fill="none" stroke="#12ffff" d="M21.75,-591.38C24.45,-588.11 29.74,-581.71 33.75,-576.85"/>
<polygon fill="#12ffff" stroke="#12ffff" points="35.13,-577.93 36.97,-572.96 32.43,-575.7 35.13,-577.93"/>
</a>
</g>
</g>
<!-- 7_0 -->
<!-- s2_league4_game2_09_stac_1399316525&#45;&gt;7_0 -->
<!-- s2_league4_game2_09_stac_1399316525&#45;&gt;s2_league4_game2_09_stac_1399316528 -->
<!-- 8_0 -->
<!-- s2_league4_game2_09_stac_1399316528&#45;&gt;8_0 -->
<!-- s2_league4_game2_09_stac_1399316532 -->
<g id="node17" class="node">
<title>s2_league4_game2_09_stac_1399316532</title>
<g id="a_node17"><a xlink:title="9 &#160;somdechn &#160;Yep... Bank always win.">
<ellipse fill="black" stroke="black" cx="69" cy="-519.5" rx="3.5" ry="3.5"/>
</a>
</g>
</g>
<!-- s2_league4_game2_09_stac_1399316528&#45;&gt;s2_league4_game2_09_stac_1399316532 -->
<g id="edge56" class="edge">
<title>s2_league4_game2_09_stac_1399316528&#45;&gt;s2_league4_game2_09_stac_1399316532</title>
<g id="a_edge56"><a xlink:title="Acknowledgement">
<path fill="none" stroke="#12ffff" d="M69,-540.68C69,-537.58 69,-532.47 69,-528.16"/>
<polygon fill="#12ffff" stroke="#12ffff" points="70.75,-528.06 69,-523.06 67.25,-528.06 70.75,-528.06"/>
</a>
</g>
</g>
<!-- 9_0 -->
<!-- s2_league4_game2_09_stac_1399316532&#45;&gt;9_0 -->
<!-- s2_league4_game2_09_stac_1399316535 -->
<g id="node19" class="node">
<title>s2_league4_game2_09_stac_1399316535</title>
<g id="a_node19"><a xlink:title="10 &#160;ztime &#160;ha well done..">
<ellipse fill="black" stroke="black" cx="54" cy="-494.5" rx="3.5" ry="3.5"/>
</a>
</g>
</g>
<!-- s2_league4_game2_09_stac_1399316532&#45;&gt;s2_league4_game2_09_stac_1399316535 -->
<g id="edge57" class="edge">
<title>s2_league4_game2_09_stac_1399316532&#45;&gt;s2_league4_game2_09_stac_1399316535</title>
<g id="a_edge57"><a xlink:title="Comment">
<path fill="none" stroke="#ff8200" d="M67.39,-516.04C65.26,-512.77 61.42,-506.87 58.39,-502.23"/>
<polygon fill="#ff8200" stroke="#ff8200" points="59.75,-501.11 55.55,-497.87 56.81,-503.02 59.75,-501.11"/>
</a>
</g>
</g>
<!-- s2_league4_game2_09_stac_1399316538 -->
<g id="node21" class="node">
<title>s2_league4_game2_09_stac_1399316538</title>
<g id="a_node21"><a xlink:title="11 &#160;ztime &#160;I enjoyed it for a while...">
<ellipse fill="black" stroke="black" cx="56" cy="-469.5" rx="3.5" ry="3.5"/>
</a>
</g>
</g>
<!-- s2_league4_game2_09_stac_1399316532&#45;&gt;s2_league4_game2_09_stac_1399316538 -->
<g id="edge58" class="edge">
<title>s2_league4_game2_09_stac_1399316532&#45;&gt;s2_league4_game2_09_stac_1399316538</title>
<g id="a_edge58"><a xlink:title="Comment">
<path fill="none" stroke="#ff8200" d="M69.17,-515.86C69.41,-510.88 69.56,-499.83 67,-491 65.58,-486.09 62.87,-481.03 60.5,-477.16"/>
<polygon fill="#ff8200" stroke="#ff8200" points="61.83,-475.99 57.63,-472.76 58.9,-477.9 61.83,-475.99"/>
</a>
</g>
</g>
<!-- 10_0 -->
<!-- s2_league4_game2_09_stac_1399316535&#45;&gt;10_0 -->
<!-- s2_league4_game2_09_stac_1399316535&#45;&gt;s2_league4_game2_09_stac_1399316538 -->
<g id="edge59" class="edge">
<title>s2_league4_game2_09_stac_1399316535&#45;&gt;s2_league4_game2_09_stac_1399316538</title>
<g id="a_edge59"><a xlink:title="ContrastCorrection">
<path fill="none" stroke="#ff7ecf" d="M54.25,-490.68C54.51,-487.58 54.96,-482.47 55.33,-478.16"/>
<polygon fill="#ff7ecf" stroke="#ff7ecf" points="57.09,-478.19 55.78,-473.06 53.6,-477.89 57.09,-478.19"/>
</a>
</g>
</g>
<!-- 11_0 -->
<!-- s2_league4_game2_09_stac_1399316538&#45;&gt;11_0 -->
<!-- s2_league4_game2_09_stac_1399316542 -->
<g id="node23" class="node">
<title>s2_league4_game2_09_stac_1399316542</title>
<g id="a_node23"><a xlink:title="12 &#160;Shawnus &#160;haha">
<ellipse fill="black" stroke="black" cx="49" cy="-444.5" rx="3.5" ry="3.5"/>
</a>
</g>
</g>
<!-- s2_league4_game2_09_stac_1399316538&#45;&gt;s2_league4_game2_09_stac_1399316542 -->
<g id="edge60" class="edge">
<title>s2_league4_game2_09_stac_1399316538&#45;&gt;s2_league4_game2_09_stac_1399316542</title>
<g id="a_edge60"><a xlink:title="Comment">
<path fill="none" stroke="#ff8200" d="M55.25,-466.04C54.32,-462.97 52.68,-457.6 51.32,-453.12"/>
<polygon fill="#ff8200" stroke="#ff8200" points="52.94,-452.43 49.81,-448.16 49.59,-453.45 52.94,-452.43"/>
</a>
</g>
</g>
<!-- s2_league4_game2_09_stac_1399316545 -->
<g id="node25" class="node">
<title>s2_league4_game2_09_stac_1399316545</title>
<g id="a_node25"><a xlink:title="13 &#160;ztime &#160;just seem to be stuck here...">
<ellipse fill="black" stroke="black" cx="50" cy="-419.5" rx="3.5" ry="3.5"/>
</a>
</g>
</g>
<!-- s2_league4_game2_09_stac_1399316538&#45;&gt;s2_league4_game2_09_stac_1399316545 -->
<g id="edge61" class="edge">
<title>s2_league4_game2_09_stac_1399316538&#45;&gt;s2_league4_game2_09_stac_1399316545</title>
<g id="a_edge61"><a xlink:title="ContrastCorrection">
<path fill="none" stroke="#ff7ecf" d="M57.25,-466.2C59.66,-461.45 64.51,-450.24 62,-441 60.6,-435.85 57.55,-430.67 54.88,-426.81"/>
<polygon fill="#ff7ecf" stroke="#ff7ecf" points="56.23,-425.69 51.84,-422.71 53.42,-427.77 56.23,-425.69"/>
</a>
</g>
</g>
<!-- 12_0 -->
<!-- s2_league4_game2_09_stac_1399316542&#45;&gt;12_0 -->
<!-- s2_league4_game2_09_stac_1399316542&#45;&gt;s2_league4_game2_09_stac_1399316545 -->
<!-- 13_0 -->
<!-- s2_league4_game2_09_stac_1399316545&#45;&gt;13_0 -->
<!-- s2_league4_game2_09_stac_1399316548 -->
<g id="node27" class="node">
<title>s2_league4_game2_09_stac_1399316548</title>
<g id="a_node27"><a xlink:title="14 &#160;somdechn &#160;That&#39;s good fo us...">
<ellipse fill="black" stroke="black" cx="73" cy="-394.5" rx="3.5" ry="3.5"/>
</a>
</g>
</g>
<!-- s2_league4_game2_09_stac_1399316545&#45;&gt;s2_league4_game2_09_stac_1399316548 -->
<g id="edge62" class="edge">
<title>s2_league4_game2_09_stac_1399316545&#45;&gt;s2_league4_game2_09_stac_1399316548</title>
<g id="a_edge62"><a xlink:title="Comment">
<path fill="none" stroke="#ff8200" d="M52.12,-416.38C55.46,-413.04 62.05,-406.45 66.94,-401.56"/>
<polygon fill="#ff8200" stroke="#ff8200" points="68.24,-402.73 70.54,-397.96 65.77,-400.26 68.24,-402.73"/>
</a>
</g>
</g>
<!-- s2_league4_game2_09_stac_1399316551 -->
<g id="node29" class="node">
<title>s2_league4_game2_09_stac_1399316551</title>
<g id="a_node29"><a xlink:title="15 &#160;ztime &#160;anyone want wood?">
<ellipse fill="black" stroke="black" cx="73" cy="-369.5" rx="3.5" ry="3.5"/>
</a>
</g>
</g>
<!-- s2_league4_game2_09_stac_1399316545&#45;&gt;s2_league4_game2_09_stac_1399316551 -->
<g id="edge63" class="edge">
<title>s2_league4_game2_09_stac_1399316545&#45;&gt;s2_league4_game2_09_stac_1399316551</title>
<g id="a_edge63"><a xlink:title="ParallNarrContinuationbackground">
<path fill="none" stroke="#0ab046" d="M50.91,-415.87C52.64,-410.9 56.66,-399.87 61,-391 63.29,-386.31 66.25,-381.25 68.65,-377.33"/>
<polygon fill="#0ab046" stroke="#0ab046" points="70.3,-378 71.48,-372.84 67.34,-376.14 70.3,-378"/>
</a>
</g>
</g>
<!-- s2_league4_game2_09_stac_1399316554 -->
<g id="node31" class="node">
<title>s2_league4_game2_09_stac_1399316554</title>
<g id="a_node31"><a xlink:title="16 &#160;Shawnus &#160;it&#39;s a long close game">
<ellipse fill="black" stroke="black" cx="27" cy="-344.5" rx="3.5" ry="3.5"/>
</a>
</g>
</g>
<!-- s2_league4_game2_09_stac_1399316545&#45;&gt;s2_league4_game2_09_stac_1399316554 -->
<g id="edge64" class="edge">
<title>s2_league4_game2_09_stac_1399316545&#45;&gt;s2_league4_game2_09_stac_1399316554</title>
<g id="a_edge64"><a xlink:title="Comment">
<path fill="none" stroke="#ff8200" d="M49.23,-416.07C46.12,-406.2 34.36,-368.86 29.32,-352.85"/>
<polygon fill="#ff8200" stroke="#ff8200" points="30.96,-352.26 27.79,-348.01 27.63,-353.31 30.96,-352.26"/>
</a>
</g>
</g>
<!-- 14_0 -->
<!-- s2_league4_game2_09_stac_1399316548&#45;&gt;14_0 -->
<!-- s2_league4_game2_09_stac_1399316548&#45;&gt;s2_league4_game2_09_stac_1399316551 -->
<!-- 15_0 -->
<!-- s2_league4_game2_09_stac_1399316551&#45;&gt;15_0 -->
<!-- s2_league4_game2_09_stac_1399316551&#45;&gt;s2_league4_game2_09_stac_1399316554 -->
<!-- s2_league4_game2_09_stac_1399316557 -->
<g id="node33" class="node">
<title>s2_league4_game2_09_stac_1399316557</title>
<g id="a_node33"><a xlink:title="17 &#160;Shawnus &#160;nope">
<ellipse fill="black" stroke="black" cx="48" cy="-319.5" rx="3.5" ry="3.5"/>
</a>
</g>
</g>
<!-- s2_league4_game2_09_stac_1399316551&#45;&gt;s2_league4_game2_09_stac_1399316557 -->
<g id="edge65" class="edge">
<title>s2_league4_game2_09_stac_1399316551&#45;&gt;s2_league4_game2_09_stac_1399316557</title>
<g id="a_edge65"><a xlink:title="Question_answer_pair">
<path fill="none" stroke="#12ffff" d="M72.59,-365.78C71.74,-360.69 69.47,-349.43 65,-341 62.13,-335.6 57.69,-330.31 54.07,-326.45"/>
<polygon fill="#12ffff" stroke="#12ffff" points="55.09,-325 50.33,-322.67 52.6,-327.46 55.09,-325"/>
</a>
</g>
</g>
<!-- s2_league4_game2_09_stac_1399316560 -->
<g id="node35" class="node">
<title>s2_league4_game2_09_stac_1399316560</title>
<g id="a_node35"><a xlink:title="18 &#160;somdechn &#160;nop">
<ellipse fill="black" stroke="black" cx="71" cy="-294.5" rx="3.5" ry="3.5"/>
</a>
</g>
</g>
<!-- s2_league4_game2_09_stac_1399316551&#45;&gt;s2_league4_game2_09_stac_1399316560 -->
<g id="edge66" class="edge">
<title>s2_league4_game2_09_stac_1399316551&#45;&gt;s2_league4_game2_09_stac_1399316560</title>
<g id="a_edge66"><a xlink:title="Question_answer_pair">
<path fill="none" stroke="#12ffff" d="M74.57,-366.06C79.21,-358.51 92.18,-334.92 86,-316 84.19,-310.46 80.25,-305.17 76.86,-301.35"/>
<polygon fill="#12ffff" stroke="#12ffff" points="78.01,-300.03 73.29,-297.62 75.48,-302.45 78.01,-300.03"/>
</a>
</g>
</g>
<!-- 16_0 -->
<!-- s2_league4_game2_09_stac_1399316554&#45;&gt;16_0 -->
<!-- s2_league4_game2_09_stac_1399316554&#45;&gt;s2_league4_game2_09_stac_1399316557 -->
<!-- s2_league4_game2_09_stac_1399316563 -->
<g id="node37" class="node">
<title>s2_league4_game2_09_stac_1399316563</title>
<g id="a_node37"><a xlink:title="19 &#160;ztime &#160;yer.... it&#39;s close..">
<ellipse fill="black" stroke="black" cx="25" cy="-269.5" rx="3.5" ry="3.5"/>
</a>
</g>
</g>
<!-- s2_league4_game2_09_stac_1399316554&#45;&gt;s2_league4_game2_09_stac_1399316563 -->
<g id="edge67" class="edge">
<title>s2_league4_game2_09_stac_1399316554&#45;&gt;s2_league4_game2_09_stac_1399316563</title>
<g id="a_edge67"><a xlink:title="Acknowledgement">
<path fill="none" stroke="#12ffff" d="M26.92,-340.73C26.64,-330.52 25.67,-294.78 25.22,-278.59"/>
<polygon fill="#12ffff" stroke="#12ffff" points="26.96,-278.23 25.08,-273.28 23.46,-278.32 26.96,-278.23"/>
</a>
</g>
</g>
<!-- 17_0 -->
<!-- s2_league4_game2_09_stac_1399316557&#45;&gt;17_0 -->
<!-- s2_league4_game2_09_stac_1399316557&#45;&gt;s2_league4_game2_09_stac_1399316560 -->
<!-- s2_league4_game2_09_stac_1399316566 -->
<g id="node39" class="node">
<title>s2_league4_game2_09_stac_1399316566</title>
<g id="a_node39"><a xlink:title="20 &#160;ztime &#160;ok..">
<ellipse fill="black" stroke="black" cx="48" cy="-244.5" rx="3.5" ry="3.5"/>
</a>
</g>
</g>
<!-- s2_league4_game2_09_stac_1399316557&#45;&gt;s2_league4_game2_09_stac_1399316566 -->
<g id="edge68" class="edge">
<title>s2_league4_game2_09_stac_1399316557&#45;&gt;s2_league4_game2_09_stac_1399316566</title>
<g id="a_edge68"><a xlink:title="Acknowledgement">
<path fill="none" stroke="#12ffff" d="M48,-315.73C48,-305.52 48,-269.78 48,-253.59"/>
<polygon fill="#12ffff" stroke="#12ffff" points="49.75,-253.28 48,-248.28 46.25,-253.28 49.75,-253.28"/>
</a>
</g>
</g>
<!-- 18_0 -->
<!-- s2_league4_game2_09_stac_1399316560&#45;&gt;18_0 -->
<!-- s2_league4_game2_09_stac_1399316560&#45;&gt;s2_league4_game2_09_stac_1399316563 -->
<!-- s2_league4_game2_09_stac_1399316560&#45;&gt;s2_league4_game2_09_stac_1399316566 -->
<g id="edge69" class="edge">
<title>s2_league4_game2_09_stac_1399316560&#45;&gt;s2_league4_game2_09_stac_1399316566</title>
<g id="a_edge69"><a xlink:title="Acknowledgement">
<path fill="none" stroke="#12ffff" d="M69.76,-290.92C66.33,-283.76 56.6,-263.44 51.39,-252.57"/>
<polygon fill="#12ffff" stroke="#12ffff" points="52.87,-251.62 49.13,-247.86 49.72,-253.13 52.87,-251.62"/>
</a>
</g>
</g>
<!-- 19_0 -->
<!-- s2_league4_game2_09_stac_1399316563&#45;&gt;19_0 -->
<!-- s2_league4_game2_09_stac_1399316563&#45;&gt;s2_league4_game2_09_stac_1399316566 -->
<!-- 20_0 -->
<!-- s2_league4_game2_09_stac_1399316566&#45;&gt;20_0 -->
<!-- s2_league4_game2_09_stac_1399316569 -->
<g id="node41" class="node">
<title>s2_league4_game2_09_stac_1399316569</title>
<g id="a_node41"><a xlink:title="21 &#160;somdechn &#160;Hey ehey...">
<ellipse fill="black" stroke="black" cx="48" cy="-219.5" rx="3.5" ry="3.5"/>
</a>
</g>
</g>
<!-- s2_league4_game2_09_stac_1399316566&#45;&gt;s2_league4_game2_09_stac_1399316569 -->
<g id="edge70" class="edge">
<title>s2_league4_game2_09_stac_1399316566&#45;&gt;s2_league4_game2_09_stac_1399316569</title>
<g id="a_edge70"><a xlink:title="Comment">
<path fill="none" stroke="#ff8200" d="M48,-240.68C48,-237.58 48,-232.47 48,-228.16"/>
<polygon fill="#ff8200" stroke="#ff8200" points="49.75,-228.06 48,-223.06 46.25,-228.06 49.75,-228.06"/>
</a>
</g>
</g>
<!-- 21_0 -->
<!-- s2_league4_game2_09_stac_1399316569&#45;&gt;21_0 -->
<!-- s2_league4_game2_09_stac_1399316573 -->
<g id="node43" class="node">
<title>s2_league4_game2_09_stac_1399316573</title>
<g id="a_node43"><a xlink:title="22 &#160;ztime &#160;I&#39;m helping you out..">
<ellipse fill="black" stroke="black" cx="48" cy="-194.5" rx="3.5" ry="3.5"/>
</a>
</g>
</g>
<!-- s2_league4_game2_09_stac_1399316569&#45;&gt;s2_league4_game2_09_stac_1399316573 -->
<g id="edge71" class="edge">
<title>s2_league4_game2_09_stac_1399316569&#45;&gt;s2_league4_game2_09_stac_1399316573</title>
<g id="a_edge71"><a xlink:title="ContrastCorrection">
<path fill="none" stroke="#ff7ecf" d="M48,-215.68C48,-212.58 48,-207.47 48,-203.16"/>
<polygon fill="#ff7ecf" stroke="#ff7ecf" points="49.75,-203.06 48,-198.06 46.25,-203.06 49.75,-203.06"/>
</a>
</g>
</g>
<!-- 22_0 -->
<!-- s2_league4_game2_09_stac_1399316573&#45;&gt;22_0 -->
<!-- s2_league4_game2_09_stac_1399316576 -->
<g id="node45" class="node">
<title>s2_league4_game2_09_stac_1399316576</title>
<g id="a_node45"><a xlink:title="23 &#160;ztime &#160;trying to get you under 7 cards...">
<ellipse fill="black" stroke="black" cx="48" cy="-169.5" rx="3.5" ry="3.5"/>
</a>
</g>
</g>
<!-- s2_league4_game2_09_stac_1399316573&#45;&gt;s2_league4_game2_09_stac_1399316576 -->
<g id="edge72" class="edge">
<title>s2_league4_game2_09_stac_1399316573&#45;&gt;s2_league4_game2_09_stac_1399316576</title>
<g id="a_edge72"><a xlink:title="ExplanationResult">
<path fill="none" stroke="#a62139" d="M48,-190.68C48,-187.58 48,-182.47 48,-178.16"/>
<polygon fill="#a62139" stroke="#a62139" points="49.75,-178.06 48,-173.06 46.25,-178.06 49.75,-178.06"/>
</a>
</g>
</g>
<!-- s2_league4_game2_09_stac_1399316579 -->
<g id="node47" class="node">
<title>s2_league4_game2_09_stac_1399316579</title>
<g id="a_node47"><a xlink:title="24 &#160;Shawnus &#160;hahaha">
<ellipse fill="black" stroke="black" cx="60" cy="-144.5" rx="3.5" ry="3.5"/>
</a>
</g>
</g>
<!-- s2_league4_game2_09_stac_1399316573&#45;&gt;s2_league4_game2_09_stac_1399316579 -->
<g id="edge73" class="edge">
<title>s2_league4_game2_09_stac_1399316573&#45;&gt;s2_league4_game2_09_stac_1399316579</title>
<g id="a_edge73"><a xlink:title="Comment">
<path fill="none" stroke="#ff8200" d="M45.9,-191.49C41.42,-186.92 31.64,-175.46 36,-166 39.37,-158.68 46.79,-153.01 52.49,-149.51"/>
<polygon fill="#ff8200" stroke="#ff8200" points="53.58,-150.9 57.08,-146.91 51.86,-147.85 53.58,-150.9"/>
</a>
</g>
</g>
<!-- s2_league4_game2_09_stac_1399316582 -->
<g id="node49" class="node">
<title>s2_league4_game2_09_stac_1399316582</title>
<g id="a_node49"><a xlink:title="25 &#160;somdechn &#160;I can give wood for Wheat.">
<ellipse fill="black" stroke="black" cx="71" cy="-119.5" rx="3.5" ry="3.5"/>
</a>
</g>
</g>
<!-- s2_league4_game2_09_stac_1399316573&#45;&gt;s2_league4_game2_09_stac_1399316582 -->
<g id="edge74" class="edge">
<title>s2_league4_game2_09_stac_1399316573&#45;&gt;s2_league4_game2_09_stac_1399316582</title>
<g id="a_edge74"><a xlink:title="ParallNarrContinuationbackground">
<path fill="none" stroke="#0ab046" d="M51.56,-192.83C59.45,-191.14 78.32,-185.87 86,-173 95.02,-157.89 83.07,-137.09 75.82,-126.8"/>
<polygon fill="#0ab046" stroke="#0ab046" points="77.14,-125.63 72.75,-122.66 74.33,-127.72 77.14,-125.63"/>
</a>
</g>
</g>
<!-- 23_0 -->
<!-- s2_league4_game2_09_stac_1399316576&#45;&gt;23_0 -->
<!-- s2_league4_game2_09_stac_1399316576&#45;&gt;s2_league4_game2_09_stac_1399316579 -->
<!-- 24_0 -->
<!-- s2_league4_game2_09_stac_1399316579&#45;&gt;24_0 -->
<!-- s2_league4_game2_09_stac_1399316579&#45;&gt;s2_league4_game2_09_stac_1399316582 -->
<!-- 25_0 -->
<!-- s2_league4_game2_09_stac_1399316582&#45;&gt;25_0 -->
<!-- s2_league4_game2_09_stac_1399316585 -->
<g id="node51" class="node">
<title>s2_league4_game2_09_stac_1399316585</title>
<g id="a_node51"><a xlink:title="26 &#160;somdechn &#160;or clay">
<ellipse fill="black" stroke="black" cx="48" cy="-94.5" rx="3.5" ry="3.5"/>
</a>
</g>
</g>
<!-- s2_league4_game2_09_stac_1399316582&#45;&gt;s2_league4_game2_09_stac_1399316585 -->
<g id="edge75" class="edge">
<title>s2_league4_game2_09_stac_1399316582&#45;&gt;s2_league4_game2_09_stac_1399316585</title>
<g id="a_edge75"><a xlink:title="Alternation">
<path fill="none" stroke="#10495e" d="M68.88,-116.38C65.54,-113.04 58.95,-106.45 54.06,-101.56"/>
<polygon fill="#10495e" stroke="#10495e" points="55.23,-100.26 50.46,-97.96 52.76,-102.73 55.23,-100.26"/>
</a>
</g>
</g>
<!-- s2_league4_game2_09_stac_1399316588 -->
<g id="node53" class="node">
<title>s2_league4_game2_09_stac_1399316588</title>
<g id="a_node53"><a xlink:title="27 &#160;somdechn &#160;Clay would be better.">
<ellipse fill="black" stroke="black" cx="69" cy="-69.5" rx="3.5" ry="3.5"/>
</a>
</g>
</g>
<!-- s2_league4_game2_09_stac_1399316582&#45;&gt;s2_league4_game2_09_stac_1399316588 -->
<g id="edge76" class="edge">
<title>s2_league4_game2_09_stac_1399316582&#45;&gt;s2_league4_game2_09_stac_1399316588</title>
<g id="a_edge76"><a xlink:title="ContrastCorrection">
<path fill="none" stroke="#ff7ecf" d="M70.89,-115.92C70.6,-108.95 69.79,-89.55 69.33,-78.49"/>
<polygon fill="#ff7ecf" stroke="#ff7ecf" points="71.07,-78.26 69.12,-73.33 67.58,-78.4 71.07,-78.26"/>
</a>
</g>
</g>
<!-- s2_league4_game2_09_stac_1399316592 -->
<g id="node56" class="node">
<title>s2_league4_game2_09_stac_1399316592</title>
<g id="a_node56"><a xlink:title="28 &#160;ztime &#160;I can&#39;t help">
<ellipse fill="black" stroke="black" cx="105" cy="-44.5" rx="3.5" ry="3.5"/>
</a>
</g>
</g>
<!-- s2_league4_game2_09_stac_1399316582&#45;&gt;s2_league4_game2_09_stac_1399316592 -->
<g id="edge77" class="edge">
<title>s2_league4_game2_09_stac_1399316582&#45;&gt;s2_league4_game2_09_stac_1399316592</title>
<g id="a_edge77"><a xlink:title="Q_Elab">
<path fill="none" stroke="#0d20ff" d="M74.38,-117.77C81.86,-115.95 99.77,-110.44 107,-98 115.2,-83.89 110.96,-63.87 107.67,-53.08"/>
<polygon fill="#0d20ff" stroke="#0d20ff" points="109.26,-52.33 106.02,-48.14 105.94,-53.43 109.26,-52.33"/>
</a>
</g>
</g>
<!-- 26_0 -->
<!-- s2_league4_game2_09_stac_1399316585&#45;&gt;26_0 -->
<!-- s2_league4_game2_09_stac_1399316585&#45;&gt;s2_league4_game2_09_stac_1399316588 -->
<!-- 27_0 -->
<!-- s2_league4_game2_09_stac_1399316588&#45;&gt;27_0 -->
<!-- s2_league4_game2_09_stac_1399316591 -->
<g id="node55" class="node">
<title>s2_league4_game2_09_stac_1399316591</title>
<g id="a_node55"><a xlink:title="28 &#160;ztime &#160;unless it&#39;s wood..">
<ellipse fill="black" stroke="black" cx="80" cy="-44.5" rx="3.5" ry="3.5"/>
</a>
</g>
</g>
<!-- s2_league4_game2_09_stac_1399316588&#45;&gt;s2_league4_game2_09_stac_1399316591 -->
<!-- s2_league4_game2_09_stac_1399316591&#45;&gt;s2_league4_game2_09_stac_1399316592 -->
<!-- s2_league4_game2_09_stac_1399316595 -->
<g id="node57" class="node">
<title>s2_league4_game2_09_stac_1399316595</title>
<g id="a_node57"><a xlink:title="29 &#160;somdechn &#160;Nooo.">
<ellipse fill="black" stroke="black" cx="90" cy="-19.5" rx="3.5" ry="3.5"/>
</a>
</g>
</g>
<!-- s2_league4_game2_09_stac_1399316591&#45;&gt;s2_league4_game2_09_stac_1399316595 -->
<!-- s2_league4_game2_09_stac_1399316592&#45;&gt;s2_league4_game2_09_stac_1399316591 -->
<g id="edge78" class="edge">
<title>s2_league4_game2_09_stac_1399316592&#45;&gt;s2_league4_game2_09_stac_1399316591</title>
<g id="a_edge78"><a xlink:title="Conditional">
<path fill="none" stroke="#1c931a" d="M101.64,-45.72C97.3,-47.05 92.96,-47.44 88.61,-46.87"/>
<polygon fill="#1c931a" stroke="#1c931a" points="88.77,-45.12 83.52,-45.77 88.03,-48.54 88.77,-45.12"/>
</a>
</g>
</g>
<!-- s2_league4_game2_09_stac_1399316592&#45;&gt;s2_league4_game2_09_stac_1399316595 -->
<g id="edge79" class="edge">
<title>s2_league4_game2_09_stac_1399316592&#45;&gt;s2_league4_game2_09_stac_1399316595</title>
<g id="a_edge79"><a xlink:title="Question_answer_pair">
<path fill="none" stroke="#12ffff" d="M103.39,-41.04C101.26,-37.77 97.42,-31.87 94.39,-27.23"/>
<polygon fill="#12ffff" stroke="#12ffff" points="95.75,-26.11 91.55,-22.87 92.81,-28.02 95.75,-26.11"/>
</a>
</g>
</g>
<!-- 29_0 -->
<!-- s2_league4_game2_09_stac_1399316595&#45;&gt;29_0 -->
</g>
</svg>
