<?xml version="1.0" encoding="UTF-8" standalone="no"?>
<!DOCTYPE svg PUBLIC "-//W3C//DTD SVG 1.1//EN"
 "http://www.w3.org/Graphics/SVG/1.1/DTD/svg11.dtd">
<!-- Generated by graphviz version 3.0.0 (20220226.1711)
 -->
<!-- Title: 10_s2_league4_game2_791 Pages: 1 -->
<svg width="108pt" height="320pt"
 viewBox="0.00 0.00 108.00 320.00" xmlns="http://www.w3.org/2000/svg" xmlns:xlink="http://www.w3.org/1999/xlink">
<g id="graph0" class="graph" transform="scale(1 1) rotate(0) translate(4 316)">
<title>10_s2_league4_game2_791</title>
<polygon fill="white" stroke="transparent" points="-4,4 -4,-316 104,-316 104,4 -4,4"/>
<g id="clust1" class="cluster">
<title>cluster_10_s2_league4_game2_791</title>
<polygon fill="none" stroke="black" points="8,-8 8,-304 92,-304 92,-8 8,-8"/>
<text text-anchor="middle" x="26.5" y="-288.8" font-family="Times,serif" font-size="14.00">791</text>
</g>
<!-- s2_league4_game2_10_stac_1399316474 -->
<g id="node1" class="node">
<title>s2_league4_game2_10_stac_1399316474</title>
<g id="a_node1"><a xlink:title="1 &#160;ztime &#160;anyone want to give me clay...">
<ellipse fill="black" stroke="black" cx="60" cy="-269.5" rx="3.5" ry="3.5"/>
</a>
</g>
</g>
<!-- s2_league4_game2_10_stac_1399316477 -->
<g id="node2" class="node">
<title>s2_league4_game2_10_stac_1399316477</title>
<g id="a_node2"><a xlink:title="2 &#160;Shawnus &#160;for?">
<ellipse fill="black" stroke="black" cx="37" cy="-244.5" rx="3.5" ry="3.5"/>
</a>
</g>
</g>
<!-- s2_league4_game2_10_stac_1399316474&#45;&gt;s2_league4_game2_10_stac_1399316477 -->
<g id="edge8" class="edge">
<title>s2_league4_game2_10_stac_1399316474&#45;&gt;s2_league4_game2_10_stac_1399316477</title>
<g id="a_edge8"><a xlink:title="Q_Elab">
<path fill="none" stroke="#0d20ff" d="M57.88,-266.38C54.54,-263.04 47.95,-256.45 43.06,-251.56"/>
<polygon fill="#0d20ff" stroke="#0d20ff" points="44.23,-250.26 39.46,-247.96 41.76,-252.73 44.23,-250.26"/>
</a>
</g>
</g>
<!-- s2_league4_game2_10_stac_1399316480 -->
<g id="node3" class="node">
<title>s2_league4_game2_10_stac_1399316480</title>
<g id="a_node3"><a xlink:title="3 &#160;somdechn &#160;Got none..">
<ellipse fill="black" stroke="black" cx="60" cy="-219.5" rx="3.5" ry="3.5"/>
</a>
</g>
</g>
<!-- s2_league4_game2_10_stac_1399316474&#45;&gt;s2_league4_game2_10_stac_1399316480 -->
<g id="edge9" class="edge">
<title>s2_league4_game2_10_stac_1399316474&#45;&gt;s2_league4_game2_10_stac_1399316480</title>
<g id="a_edge9"><a xlink:title="Question_answer_pair">
<path fill="none" stroke="#12ffff" d="M60,-265.92C60,-258.95 60,-239.55 60,-228.49"/>
<polygon fill="#12ffff" stroke="#12ffff" points="61.75,-228.33 60,-223.33 58.25,-228.33 61.75,-228.33"/>
</a>
</g>
</g>
<!-- s2_league4_game2_10_stac_1399316483 -->
<g id="node4" class="node">
<title>s2_league4_game2_10_stac_1399316483</title>
<g id="a_node4"><a xlink:title="4 &#160;Shawnus &#160;oh wait">
<ellipse fill="black" stroke="black" cx="60" cy="-194.5" rx="3.5" ry="3.5"/>
</a>
</g>
</g>
<!-- s2_league4_game2_10_stac_1399316474&#45;&gt;s2_league4_game2_10_stac_1399316483 -->
<g id="edge10" class="edge">
<title>s2_league4_game2_10_stac_1399316474&#45;&gt;s2_league4_game2_10_stac_1399316483</title>
<g id="a_edge10"><a xlink:title="Question_answer_pair">
<path fill="none" stroke="#12ffff" d="M61.51,-266.07C65.99,-258.58 78.55,-235.12 73,-216 71.48,-210.76 68.18,-205.58 65.28,-201.74"/>
<polygon fill="#12ffff" stroke="#12ffff" points="66.5,-200.47 61.99,-197.69 63.78,-202.67 66.5,-200.47"/>
</a>
</g>
</g>
<!-- s2_league4_game2_10_stac_1399316477&#45;&gt;s2_league4_game2_10_stac_1399316480 -->
<!-- s2_league4_game2_10_stac_1399316477&#45;&gt;s2_league4_game2_10_stac_1399316483 -->
<g id="edge11" class="edge">
<title>s2_league4_game2_10_stac_1399316477&#45;&gt;s2_league4_game2_10_stac_1399316483</title>
<g id="a_edge11"><a xlink:title="ContrastCorrection">
<path fill="none" stroke="#ff7ecf" d="M37.91,-240.87C39.64,-235.9 43.66,-224.87 48,-216 50.29,-211.31 53.25,-206.25 55.65,-202.33"/>
<polygon fill="#ff7ecf" stroke="#ff7ecf" points="57.3,-203 58.48,-197.84 54.34,-201.14 57.3,-203"/>
</a>
</g>
</g>
<!-- s2_league4_game2_10_stac_1399316489 -->
<g id="node6" class="node">
<title>s2_league4_game2_10_stac_1399316489</title>
<g id="a_node6"><a xlink:title="6 &#160;ztime &#160;wood">
<ellipse fill="black" stroke="black" cx="40" cy="-144.5" rx="3.5" ry="3.5"/>
</a>
</g>
</g>
<!-- s2_league4_game2_10_stac_1399316477&#45;&gt;s2_league4_game2_10_stac_1399316489 -->
<g id="edge12" class="edge">
<title>s2_league4_game2_10_stac_1399316477&#45;&gt;s2_league4_game2_10_stac_1399316489</title>
<g id="a_edge12"><a xlink:title="Question_answer_pair">
<path fill="none" stroke="#12ffff" d="M36.05,-241.04C32.45,-231.32 20.2,-194.76 28,-166 29.4,-160.85 32.45,-155.67 35.12,-151.81"/>
<polygon fill="#12ffff" stroke="#12ffff" points="36.58,-152.77 38.16,-147.71 33.77,-150.69 36.58,-152.77"/>
</a>
</g>
</g>
<!-- s2_league4_game2_10_stac_1399316480&#45;&gt;s2_league4_game2_10_stac_1399316483 -->
<!-- s2_league4_game2_10_stac_1399316486 -->
<g id="node5" class="node">
<title>s2_league4_game2_10_stac_1399316486</title>
<g id="a_node5"><a xlink:title="5 &#160;Shawnus &#160;no">
<ellipse fill="black" stroke="black" cx="40" cy="-169.5" rx="3.5" ry="3.5"/>
</a>
</g>
</g>
<!-- s2_league4_game2_10_stac_1399316483&#45;&gt;s2_league4_game2_10_stac_1399316486 -->
<g id="edge13" class="edge">
<title>s2_league4_game2_10_stac_1399316483&#45;&gt;s2_league4_game2_10_stac_1399316486</title>
<g id="a_edge13"><a xlink:title="Elaboration">
<path fill="none" stroke="#a621c7" d="M58.15,-191.38C55.31,-188.11 49.75,-181.71 45.52,-176.85"/>
<polygon fill="#a621c7" stroke="#a621c7" points="46.74,-175.59 42.14,-172.96 44.1,-177.88 46.74,-175.59"/>
</a>
</g>
</g>
<!-- s2_league4_game2_10_stac_1399316492 -->
<g id="node7" class="node">
<title>s2_league4_game2_10_stac_1399316492</title>
<g id="a_node7"><a xlink:title="7 &#160;Shawnus &#160;haha">
<ellipse fill="black" stroke="black" cx="63" cy="-119.5" rx="3.5" ry="3.5"/>
</a>
</g>
</g>
<!-- s2_league4_game2_10_stac_1399316483&#45;&gt;s2_league4_game2_10_stac_1399316492 -->
<g id="edge14" class="edge">
<title>s2_league4_game2_10_stac_1399316483&#45;&gt;s2_league4_game2_10_stac_1399316492</title>
<g id="a_edge14"><a xlink:title="Comment">
<path fill="none" stroke="#ff8200" d="M60.11,-190.73C60.53,-180.52 62,-144.78 62.67,-128.59"/>
<polygon fill="#ff8200" stroke="#ff8200" points="64.43,-128.34 62.89,-123.28 60.93,-128.2 64.43,-128.34"/>
</a>
</g>
</g>
<!-- s2_league4_game2_10_stac_1399316486&#45;&gt;s2_league4_game2_10_stac_1399316489 -->
<!-- s2_league4_game2_10_stac_1399316489&#45;&gt;s2_league4_game2_10_stac_1399316492 -->
<!-- s2_league4_game2_10_stac_1399316495 -->
<g id="node8" class="node">
<title>s2_league4_game2_10_stac_1399316495</title>
<g id="a_node8"><a xlink:title="8 &#160;ztime &#160;ore">
<ellipse fill="black" stroke="black" cx="43" cy="-94.5" rx="3.5" ry="3.5"/>
</a>
</g>
</g>
<!-- s2_league4_game2_10_stac_1399316489&#45;&gt;s2_league4_game2_10_stac_1399316495 -->
<g id="edge15" class="edge">
<title>s2_league4_game2_10_stac_1399316489&#45;&gt;s2_league4_game2_10_stac_1399316495</title>
<g id="a_edge15"><a xlink:title="Alternation">
<path fill="none" stroke="#10495e" d="M40.16,-140.92C40.6,-133.95 41.81,-114.55 42.5,-103.49"/>
<polygon fill="#10495e" stroke="#10495e" points="44.26,-103.43 42.82,-98.33 40.76,-103.21 44.26,-103.43"/>
</a>
</g>
</g>
<!-- s2_league4_game2_10_stac_1399316498 -->
<g id="node9" class="node">
<title>s2_league4_game2_10_stac_1399316498</title>
<g id="a_node9"><a xlink:title="9 &#160;Shawnus &#160;not got any wood">
<ellipse fill="black" stroke="black" cx="31" cy="-69.5" rx="3.5" ry="3.5"/>
</a>
</g>
</g>
<!-- s2_league4_game2_10_stac_1399316489&#45;&gt;s2_league4_game2_10_stac_1399316498 -->
<g id="edge16" class="edge">
<title>s2_league4_game2_10_stac_1399316489&#45;&gt;s2_league4_game2_10_stac_1399316498</title>
<g id="a_edge16"><a xlink:title="Question_answer_pair">
<path fill="none" stroke="#12ffff" d="M39.34,-141.06C37.55,-134.29 32.63,-114.67 31,-98 30.34,-91.3 30.41,-83.64 30.6,-78.11"/>
<polygon fill="#12ffff" stroke="#12ffff" points="32.35,-78.16 30.83,-73.09 28.86,-78 32.35,-78.16"/>
</a>
</g>
</g>
<!-- s2_league4_game2_10_stac_1399316492&#45;&gt;s2_league4_game2_10_stac_1399316495 -->
<!-- s2_league4_game2_10_stac_1399316495&#45;&gt;s2_league4_game2_10_stac_1399316498 -->
<!-- s2_league4_game2_10_stac_1399316501 -->
<g id="node10" class="node">
<title>s2_league4_game2_10_stac_1399316501</title>
<g id="a_node10"><a xlink:title="10 &#160;ztime &#160;eh?">
<ellipse fill="black" stroke="black" cx="26" cy="-44.5" rx="3.5" ry="3.5"/>
</a>
</g>
</g>
<!-- s2_league4_game2_10_stac_1399316498&#45;&gt;s2_league4_game2_10_stac_1399316501 -->
<g id="edge17" class="edge">
<title>s2_league4_game2_10_stac_1399316498&#45;&gt;s2_league4_game2_10_stac_1399316501</title>
<g id="a_edge17"><a xlink:title="Clarification_question">
<path fill="none" stroke="#ff40d1" d="M30.46,-66.04C29.8,-62.97 28.63,-57.6 27.66,-53.12"/>
<polygon fill="#ff40d1" stroke="#ff40d1" points="29.35,-52.67 26.58,-48.16 25.93,-53.41 29.35,-52.67"/>
</a>
</g>
</g>
<!-- s2_league4_game2_10_stac_1399316504 -->
<g id="node11" class="node">
<title>s2_league4_game2_10_stac_1399316504</title>
<g id="a_node11"><a xlink:title="11 &#160;ztime &#160;ok...">
<ellipse fill="black" stroke="black" cx="37" cy="-19.5" rx="3.5" ry="3.5"/>
</a>
</g>
</g>
<!-- s2_league4_game2_10_stac_1399316498&#45;&gt;s2_league4_game2_10_stac_1399316504 -->
<g id="edge18" class="edge">
<title>s2_league4_game2_10_stac_1399316498&#45;&gt;s2_league4_game2_10_stac_1399316504</title>
<g id="a_edge18"><a xlink:title="Acknowledgement">
<path fill="none" stroke="#12ffff" d="M32.23,-66.19C34.14,-62.48 37.7,-54.91 39,-48 40.25,-41.37 39.51,-33.7 38.6,-28.15"/>
<polygon fill="#12ffff" stroke="#12ffff" points="40.3,-27.68 37.63,-23.1 36.86,-28.34 40.3,-27.68"/>
</a>
</g>
</g>
<!-- s2_league4_game2_10_stac_1399316501&#45;&gt;s2_league4_game2_10_stac_1399316504 -->
</g>
</svg>
