<?xml version="1.0" encoding="UTF-8" standalone="no"?>
<!DOCTYPE svg PUBLIC "-//W3C//DTD SVG 1.1//EN"
 "http://www.w3.org/Graphics/SVG/1.1/DTD/svg11.dtd">
<!-- Generated by graphviz version 3.0.0 (20220226.1711)
 -->
<!-- Title: 10_s2_league4_game2_792 Pages: 1 -->
<svg width="133pt" height="420pt"
 viewBox="0.00 0.00 133.00 420.00" xmlns="http://www.w3.org/2000/svg" xmlns:xlink="http://www.w3.org/1999/xlink">
<g id="graph0" class="graph" transform="scale(1 1) rotate(0) translate(4 416)">
<title>10_s2_league4_game2_792</title>
<polygon fill="white" stroke="transparent" points="-4,4 -4,-416 129,-416 129,4 -4,4"/>
<g id="clust1" class="cluster">
<title>cluster_10_s2_league4_game2_792</title>
<polygon fill="none" stroke="black" points="8,-8 8,-404 117,-404 117,-8 8,-8"/>
<text text-anchor="middle" x="26.5" y="-388.8" font-family="Times,serif" font-size="14.00">792</text>
</g>
<!-- s2_league4_game2_10_stac_1399316512 -->
<g id="node1" class="node">
<title>s2_league4_game2_10_stac_1399316512</title>
<g id="a_node1"><a xlink:title="2 &#160;somdechn &#160;giving out wood for wheat...">
<ellipse fill="black" stroke="black" cx="74" cy="-344.5" rx="3.5" ry="3.5"/>
</a>
</g>
</g>
<!-- 2_0 -->
<!-- s2_league4_game2_10_stac_1399316512&#45;&gt;2_0 -->
<!-- s2_league4_game2_10_stac_1399316515 -->
<g id="node3" class="node">
<title>s2_league4_game2_10_stac_1399316515</title>
<g id="a_node3"><a xlink:title="3 &#160;ztime &#160;sorry don&#39;t need wood">
<ellipse fill="black" stroke="black" cx="20" cy="-319.5" rx="3.5" ry="3.5"/>
</a>
</g>
</g>
<!-- s2_league4_game2_10_stac_1399316512&#45;&gt;s2_league4_game2_10_stac_1399316515 -->
<g id="edge22" class="edge">
<title>s2_league4_game2_10_stac_1399316512&#45;&gt;s2_league4_game2_10_stac_1399316515</title>
<g id="a_edge22"><a xlink:title="Question_answer_pair">
<path fill="none" stroke="#12ffff" d="M71.1,-342.26C62.97,-338.8 39.77,-328.92 27.63,-323.75"/>
<polygon fill="#12ffff" stroke="#12ffff" points="28.2,-322.09 22.92,-321.74 26.83,-325.31 28.2,-322.09"/>
</a>
</g>
</g>
<!-- s2_league4_game2_10_stac_1399316518 -->
<g id="node5" class="node">
<title>s2_league4_game2_10_stac_1399316518</title>
<g id="a_node5"><a xlink:title="4 &#160;ztime &#160;you have a big hand of cards there...">
<ellipse fill="black" stroke="black" cx="30" cy="-294.5" rx="3.5" ry="3.5"/>
</a>
</g>
</g>
<!-- s2_league4_game2_10_stac_1399316512&#45;&gt;s2_league4_game2_10_stac_1399316518 -->
<g id="edge23" class="edge">
<title>s2_league4_game2_10_stac_1399316512&#45;&gt;s2_league4_game2_10_stac_1399316518</title>
<g id="a_edge23"><a xlink:title="Comment">
<path fill="none" stroke="#ff8200" d="M72.97,-341C70.77,-335.89 65.24,-324.05 58,-316 51.83,-309.14 43.02,-303.15 36.94,-299.45"/>
<polygon fill="#ff8200" stroke="#ff8200" points="37.79,-297.92 32.59,-296.9 36.02,-300.94 37.79,-297.92"/>
</a>
</g>
</g>
<!-- s2_league4_game2_10_stac_1399316524 -->
<g id="node9" class="node">
<title>s2_league4_game2_10_stac_1399316524</title>
<g id="a_node9"><a xlink:title="6 &#160;somdechn &#160;Yeh..but no wheat..">
<ellipse fill="black" stroke="black" cx="60" cy="-244.5" rx="3.5" ry="3.5"/>
</a>
</g>
</g>
<!-- s2_league4_game2_10_stac_1399316512&#45;&gt;s2_league4_game2_10_stac_1399316524 -->
<g id="edge24" class="edge">
<title>s2_league4_game2_10_stac_1399316512&#45;&gt;s2_league4_game2_10_stac_1399316524</title>
<g id="a_edge24"><a xlink:title="ExplanationResult">
<path fill="none" stroke="#a62139" d="M73.72,-340.65C72.93,-332.75 70.59,-309.9 68,-291 66.47,-279.85 65.97,-277.08 64,-266 63.25,-261.78 62.34,-257.09 61.58,-253.26"/>
<polygon fill="#a62139" stroke="#a62139" points="63.25,-252.7 60.55,-248.15 59.82,-253.4 63.25,-252.7"/>
</a>
</g>
</g>
<!-- s2_league4_game2_10_stac_1399316530 -->
<g id="node13" class="node">
<title>s2_league4_game2_10_stac_1399316530</title>
<g id="a_node13"><a xlink:title="8 &#160;ztime &#160;do you have clay?">
<ellipse fill="black" stroke="black" cx="74" cy="-194.5" rx="3.5" ry="3.5"/>
</a>
</g>
</g>
<!-- s2_league4_game2_10_stac_1399316512&#45;&gt;s2_league4_game2_10_stac_1399316530 -->
<g id="edge25" class="edge">
<title>s2_league4_game2_10_stac_1399316512&#45;&gt;s2_league4_game2_10_stac_1399316530</title>
<g id="a_edge25"><a xlink:title="Q_Elab">
<path fill="none" stroke="#0d20ff" d="M76.67,-341.65C84.68,-335.86 108,-317.15 108,-295.5 108,-295.5 108,-295.5 108,-243.5 108,-230.49 105.41,-226.69 98,-216 93.41,-209.38 86.18,-203.6 80.85,-199.88"/>
<polygon fill="#0d20ff" stroke="#0d20ff" points="81.76,-198.39 76.63,-197.08 79.83,-201.3 81.76,-198.39"/>
</a>
</g>
</g>
<!-- 3_0 -->
<!-- s2_league4_game2_10_stac_1399316515&#45;&gt;3_0 -->
<!-- s2_league4_game2_10_stac_1399316515&#45;&gt;s2_league4_game2_10_stac_1399316518 -->
<!-- 4_0 -->
<!-- s2_league4_game2_10_stac_1399316518&#45;&gt;4_0 -->
<!-- s2_league4_game2_10_stac_1399316521 -->
<g id="node7" class="node">
<title>s2_league4_game2_10_stac_1399316521</title>
<g id="a_node7"><a xlink:title="5 &#160;Shawnus &#160;haha he does!">
<ellipse fill="black" stroke="black" cx="20" cy="-269.5" rx="3.5" ry="3.5"/>
</a>
</g>
</g>
<!-- s2_league4_game2_10_stac_1399316518&#45;&gt;s2_league4_game2_10_stac_1399316521 -->
<g id="edge26" class="edge">
<title>s2_league4_game2_10_stac_1399316518&#45;&gt;s2_league4_game2_10_stac_1399316521</title>
<g id="a_edge26"><a xlink:title="Acknowledgement">
<path fill="none" stroke="#12ffff" d="M28.93,-291.04C27.54,-287.84 25.05,-282.12 23.06,-277.53"/>
<polygon fill="#12ffff" stroke="#12ffff" points="24.63,-276.76 21.03,-272.87 21.42,-278.16 24.63,-276.76"/>
</a>
</g>
</g>
<!-- s2_league4_game2_10_stac_1399316518&#45;&gt;s2_league4_game2_10_stac_1399316524 -->
<g id="edge27" class="edge">
<title>s2_league4_game2_10_stac_1399316518&#45;&gt;s2_league4_game2_10_stac_1399316524</title>
<g id="a_edge27"><a xlink:title="ContrastCorrection">
<path fill="none" stroke="#ff7ecf" d="M32.95,-292.35C38.91,-289.86 52.28,-283.33 58,-273 61.34,-266.97 61.55,-259.03 61.1,-253.23"/>
<polygon fill="#ff7ecf" stroke="#ff7ecf" points="62.81,-252.73 60.47,-247.97 59.33,-253.14 62.81,-252.73"/>
</a>
</g>
</g>
<!-- 5_0 -->
<!-- s2_league4_game2_10_stac_1399316521&#45;&gt;5_0 -->
<!-- s2_league4_game2_10_stac_1399316521&#45;&gt;s2_league4_game2_10_stac_1399316524 -->
<!-- 6_0 -->
<!-- s2_league4_game2_10_stac_1399316524&#45;&gt;6_0 -->
<!-- s2_league4_game2_10_stac_1399316527 -->
<g id="node11" class="node">
<title>s2_league4_game2_10_stac_1399316527</title>
<g id="a_node11"><a xlink:title="7 &#160;somdechn &#160;Hmmm">
<ellipse fill="black" stroke="black" cx="60" cy="-219.5" rx="3.5" ry="3.5"/>
</a>
</g>
</g>
<!-- s2_league4_game2_10_stac_1399316524&#45;&gt;s2_league4_game2_10_stac_1399316527 -->
<g id="edge28" class="edge">
<title>s2_league4_game2_10_stac_1399316524&#45;&gt;s2_league4_game2_10_stac_1399316527</title>
<g id="a_edge28"><a xlink:title="Comment">
<path fill="none" stroke="#ff8200" d="M60,-240.68C60,-237.58 60,-232.47 60,-228.16"/>
<polygon fill="#ff8200" stroke="#ff8200" points="61.75,-228.06 60,-223.06 58.25,-228.06 61.75,-228.06"/>
</a>
</g>
</g>
<!-- 7_0 -->
<!-- s2_league4_game2_10_stac_1399316527&#45;&gt;7_0 -->
<!-- s2_league4_game2_10_stac_1399316527&#45;&gt;s2_league4_game2_10_stac_1399316530 -->
<!-- 8_0 -->
<!-- s2_league4_game2_10_stac_1399316530&#45;&gt;8_0 -->
<!-- s2_league4_game2_10_stac_1399316533 -->
<g id="node15" class="node">
<title>s2_league4_game2_10_stac_1399316533</title>
<g id="a_node15"><a xlink:title="9 &#160;ztime &#160;for wheat?">
<ellipse fill="black" stroke="black" cx="26" cy="-169.5" rx="3.5" ry="3.5"/>
</a>
</g>
</g>
<!-- s2_league4_game2_10_stac_1399316530&#45;&gt;s2_league4_game2_10_stac_1399316533 -->
<g id="edge29" class="edge">
<title>s2_league4_game2_10_stac_1399316530&#45;&gt;s2_league4_game2_10_stac_1399316533</title>
<g id="a_edge29"><a xlink:title="Elaboration">
<path fill="none" stroke="#a621c7" d="M71.14,-192.13C63.85,-188.64 44.4,-179.31 33.56,-174.12"/>
<polygon fill="#a621c7" stroke="#a621c7" points="34.05,-172.42 28.78,-171.83 32.54,-175.57 34.05,-172.42"/>
</a>
</g>
</g>
<!-- s2_league4_game2_10_stac_1399316536 -->
<g id="node17" class="node">
<title>s2_league4_game2_10_stac_1399316536</title>
<g id="a_node17"><a xlink:title="10 &#160;somdechn &#160;No...">
<ellipse fill="black" stroke="black" cx="36" cy="-144.5" rx="3.5" ry="3.5"/>
</a>
</g>
</g>
<!-- s2_league4_game2_10_stac_1399316530&#45;&gt;s2_league4_game2_10_stac_1399316536 -->
<g id="edge30" class="edge">
<title>s2_league4_game2_10_stac_1399316530&#45;&gt;s2_league4_game2_10_stac_1399316536</title>
<g id="a_edge30"><a xlink:title="Question_answer_pair">
<path fill="none" stroke="#12ffff" d="M73.59,-190.99C72.66,-185.85 69.98,-173.96 64,-166 58.46,-158.62 49.53,-152.74 43.25,-149.2"/>
<polygon fill="#12ffff" stroke="#12ffff" points="43.96,-147.59 38.73,-146.79 42.32,-150.68 43.96,-147.59"/>
</a>
</g>
</g>
<!-- s2_league4_game2_10_stac_1399316542 -->
<g id="node21" class="node">
<title>s2_league4_game2_10_stac_1399316542</title>
<g id="a_node21"><a xlink:title="12 &#160;somdechn &#160;Ore for wheat">
<ellipse fill="black" stroke="black" cx="74" cy="-94.5" rx="3.5" ry="3.5"/>
</a>
</g>
</g>
<!-- s2_league4_game2_10_stac_1399316530&#45;&gt;s2_league4_game2_10_stac_1399316542 -->
<g id="edge31" class="edge">
<title>s2_league4_game2_10_stac_1399316530&#45;&gt;s2_league4_game2_10_stac_1399316542</title>
<g id="a_edge31"><a xlink:title="Q_Elab">
<path fill="none" stroke="#0d20ff" d="M74,-190.67C74,-177.7 74,-123.67 74,-103.31"/>
<polygon fill="#0d20ff" stroke="#0d20ff" points="75.75,-103.15 74,-98.15 72.25,-103.15 75.75,-103.15"/>
</a>
</g>
</g>
<!-- 9_0 -->
<!-- s2_league4_game2_10_stac_1399316533&#45;&gt;9_0 -->
<!-- s2_league4_game2_10_stac_1399316533&#45;&gt;s2_league4_game2_10_stac_1399316536 -->
<!-- 10_0 -->
<!-- s2_league4_game2_10_stac_1399316536&#45;&gt;10_0 -->
<!-- s2_league4_game2_10_stac_1399316539 -->
<g id="node19" class="node">
<title>s2_league4_game2_10_stac_1399316539</title>
<g id="a_node19"><a xlink:title="11 &#160;ztime &#160;:) worth a try">
<ellipse fill="black" stroke="black" cx="26" cy="-119.5" rx="3.5" ry="3.5"/>
</a>
</g>
</g>
<!-- s2_league4_game2_10_stac_1399316536&#45;&gt;s2_league4_game2_10_stac_1399316539 -->
<g id="edge32" class="edge">
<title>s2_league4_game2_10_stac_1399316536&#45;&gt;s2_league4_game2_10_stac_1399316539</title>
<g id="a_edge32"><a xlink:title="Comment">
<path fill="none" stroke="#ff8200" d="M34.93,-141.04C33.54,-137.84 31.05,-132.12 29.06,-127.53"/>
<polygon fill="#ff8200" stroke="#ff8200" points="30.63,-126.76 27.03,-122.87 27.42,-128.16 30.63,-126.76"/>
</a>
</g>
</g>
<!-- s2_league4_game2_10_stac_1399316536&#45;&gt;s2_league4_game2_10_stac_1399316542 -->
<g id="edge33" class="edge">
<title>s2_league4_game2_10_stac_1399316536&#45;&gt;s2_league4_game2_10_stac_1399316542</title>
<g id="a_edge33"><a xlink:title="ContrastCorrection">
<path fill="none" stroke="#ff7ecf" d="M38.73,-142.21C44.26,-139.44 56.91,-132.44 64,-123 68.48,-117.03 71.11,-108.85 72.54,-102.96"/>
<polygon fill="#ff7ecf" stroke="#ff7ecf" points="74.27,-103.27 73.59,-98.01 70.84,-102.54 74.27,-103.27"/>
</a>
</g>
</g>
<!-- 11_0 -->
<!-- s2_league4_game2_10_stac_1399316539&#45;&gt;11_0 -->
<!-- s2_league4_game2_10_stac_1399316539&#45;&gt;s2_league4_game2_10_stac_1399316542 -->
<!-- 12_0 -->
<!-- s2_league4_game2_10_stac_1399316542&#45;&gt;12_0 -->
<!-- s2_league4_game2_10_stac_1399316549 -->
<g id="node23" class="node">
<title>s2_league4_game2_10_stac_1399316549</title>
<g id="a_node23"><a xlink:title="14 &#160;Shawnus &#160;nope">
<ellipse fill="black" stroke="black" cx="54" cy="-44.5" rx="3.5" ry="3.5"/>
</a>
</g>
</g>
<!-- s2_league4_game2_10_stac_1399316542&#45;&gt;s2_league4_game2_10_stac_1399316549 -->
<g id="edge35" class="edge">
<title>s2_league4_game2_10_stac_1399316542&#45;&gt;s2_league4_game2_10_stac_1399316549</title>
<g id="a_edge35"><a xlink:title="Question_answer_pair">
<path fill="none" stroke="#12ffff" d="M72.92,-91.11C71.21,-87.3 67.77,-79.6 65,-73 62.14,-66.17 59.01,-58.32 56.83,-52.76"/>
<polygon fill="#12ffff" stroke="#12ffff" points="58.45,-52.11 55,-48.09 55.19,-53.38 58.45,-52.11"/>
</a>
</g>
</g>
<!-- s2_league4_game2_10_stac_1399316545 -->
<g id="node29" class="node">
<title>s2_league4_game2_10_stac_1399316545</title>
<g id="a_node29"><a xlink:title="13 &#160;ztime &#160;no">
<ellipse fill="black" stroke="black" cx="77" cy="-69.5" rx="3.5" ry="3.5"/>
</a>
</g>
</g>
<!-- s2_league4_game2_10_stac_1399316542&#45;&gt;s2_league4_game2_10_stac_1399316545 -->
<g id="edge34" class="edge">
<title>s2_league4_game2_10_stac_1399316542&#45;&gt;s2_league4_game2_10_stac_1399316545</title>
<g id="a_edge34"><a xlink:title="Question_answer_pair">
<path fill="none" stroke="#12ffff" d="M74.37,-90.68C74.77,-87.58 75.44,-82.47 76,-78.16"/>
<polygon fill="#12ffff" stroke="#12ffff" points="77.75,-78.24 76.67,-73.06 74.28,-77.79 77.75,-78.24"/>
</a>
</g>
</g>
<!-- 14_0 -->
<!-- s2_league4_game2_10_stac_1399316549&#45;&gt;14_0 -->
<!-- s2_league4_game2_10_stac_1399316552 -->
<g id="node25" class="node">
<title>s2_league4_game2_10_stac_1399316552</title>
<g id="a_node25"><a xlink:title="15 &#160;ztime &#160;the bank again?">
<ellipse fill="black" stroke="black" cx="67" cy="-19.5" rx="3.5" ry="3.5"/>
</a>
</g>
</g>
<!-- s2_league4_game2_10_stac_1399316549&#45;&gt;s2_league4_game2_10_stac_1399316552 -->
<g id="edge38" class="edge">
<title>s2_league4_game2_10_stac_1399316549&#45;&gt;s2_league4_game2_10_stac_1399316552</title>
<g id="a_edge38"><a xlink:title="Clarification_question">
<path fill="none" stroke="#ff40d1" d="M55.39,-41.04C57.24,-37.77 60.57,-31.87 63.2,-27.23"/>
<polygon fill="#ff40d1" stroke="#ff40d1" points="64.72,-28.09 65.66,-22.87 61.67,-26.37 64.72,-28.09"/>
</a>
</g>
</g>
<!-- 15_0 -->
<!-- s2_league4_game2_10_stac_1399316552&#45;&gt;15_0 -->
<!-- s2_league4_game2_10_stac_1399316508 -->
<g id="node27" class="node">
<title>s2_league4_game2_10_stac_1399316508</title>
<g id="a_node27"><a xlink:title="1 &#160;Shawnus &#160;take a wheat for one">
<ellipse fill="black" stroke="black" cx="74" cy="-369.5" rx="3.5" ry="3.5"/>
</a>
</g>
</g>
<!-- s2_league4_game2_10_stac_1399316508&#45;&gt;s2_league4_game2_10_stac_1399316512 -->
<g id="edge21" class="edge">
<title>s2_league4_game2_10_stac_1399316508&#45;&gt;s2_league4_game2_10_stac_1399316512</title>
<g id="a_edge21"><a xlink:title="ParallNarrContinuationbackground">
<path fill="none" stroke="#0ab046" d="M74,-365.68C74,-362.58 74,-357.47 74,-353.16"/>
<polygon fill="#0ab046" stroke="#0ab046" points="75.75,-353.06 74,-348.06 72.25,-353.06 75.75,-353.06"/>
</a>
</g>
</g>
<!-- s2_league4_game2_10_stac_1399316509 -->
<g id="node28" class="node">
<title>s2_league4_game2_10_stac_1399316509</title>
<g id="a_node28"><a xlink:title="1 &#160;Shawnus &#160;when it&#39;s my turn">
<ellipse fill="black" stroke="black" cx="99" cy="-369.5" rx="3.5" ry="3.5"/>
</a>
</g>
</g>
<!-- s2_league4_game2_10_stac_1399316508&#45;&gt;s2_league4_game2_10_stac_1399316509 -->
<g id="edge20" class="edge">
<title>s2_league4_game2_10_stac_1399316508&#45;&gt;s2_league4_game2_10_stac_1399316509</title>
<g id="a_edge20"><a xlink:title="Elaboration">
<path fill="none" stroke="#a621c7" d="M77.52,-369.5C81.78,-369.5 86.04,-369.5 90.3,-369.5"/>
<polygon fill="#a621c7" stroke="#a621c7" points="90.31,-371.25 95.31,-369.5 90.31,-367.75 90.31,-371.25"/>
</a>
</g>
</g>
<!-- s2_league4_game2_10_stac_1399316545&#45;&gt;s2_league4_game2_10_stac_1399316549 -->
<!-- s2_league4_game2_10_stac_1399316545&#45;&gt;s2_league4_game2_10_stac_1399316552 -->
<g id="edge37" class="edge">
<title>s2_league4_game2_10_stac_1399316545&#45;&gt;s2_league4_game2_10_stac_1399316552</title>
<g id="a_edge37"><a xlink:title="Clarification_question">
<path fill="none" stroke="#ff40d1" d="M79.51,-66.54C84.88,-62.09 96.65,-50.83 92,-41 88.47,-33.54 80.75,-27.89 74.82,-24.43"/>
<polygon fill="#ff40d1" stroke="#ff40d1" points="75.28,-22.69 70.04,-21.88 73.63,-25.78 75.28,-22.69"/>
</a>
</g>
</g>
<!-- s2_league4_game2_10_stac_1399316546 -->
<g id="node30" class="node">
<title>s2_league4_game2_10_stac_1399316546</title>
<g id="a_node30"><a xlink:title="13 &#160;ztime &#160;thanks">
<ellipse fill="black" stroke="black" cx="102" cy="-69.5" rx="3.5" ry="3.5"/>
</a>
</g>
</g>
<!-- s2_league4_game2_10_stac_1399316545&#45;&gt;s2_league4_game2_10_stac_1399316546 -->
<g id="edge36" class="edge">
<title>s2_league4_game2_10_stac_1399316545&#45;&gt;s2_league4_game2_10_stac_1399316546</title>
<g id="a_edge36"><a xlink:title="Comment">
<path fill="none" stroke="#ff8200" d="M80.52,-69.5C84.78,-69.5 89.04,-69.5 93.3,-69.5"/>
<polygon fill="#ff8200" stroke="#ff8200" points="93.31,-71.25 98.31,-69.5 93.31,-67.75 93.31,-71.25"/>
</a>
</g>
</g>
</g>
</svg>
