<?xml version="1.0" encoding="UTF-8" standalone="no"?>
<!DOCTYPE svg PUBLIC "-//W3C//DTD SVG 1.1//EN"
 "http://www.w3.org/Graphics/SVG/1.1/DTD/svg11.dtd">
<!-- Generated by graphviz version 3.0.0 (20220226.1711)
 -->
<!-- Title: 2_s2_league4_game2_756 Pages: 1 -->
<svg width="133pt" height="545pt"
 viewBox="0.00 0.00 133.00 545.00" xmlns="http://www.w3.org/2000/svg" xmlns:xlink="http://www.w3.org/1999/xlink">
<g id="graph0" class="graph" transform="scale(1 1) rotate(0) translate(4 541)">
<title>2_s2_league4_game2_756</title>
<polygon fill="white" stroke="transparent" points="-4,4 -4,-541 129,-541 129,4 -4,4"/>
<g id="clust1" class="cluster">
<title>cluster_2_s2_league4_game2_756</title>
<polygon fill="none" stroke="black" points="8,-8 8,-529 117,-529 117,-8 8,-8"/>
<text text-anchor="middle" x="26.5" y="-513.8" font-family="Times,serif" font-size="14.00">756</text>
</g>
<!-- s2_league4_game2_02_stac_1399316504 -->
<g id="node1" class="node">
<title>s2_league4_game2_02_stac_1399316504</title>
<g id="a_node1"><a xlink:title="1 &#160;ztime &#160;anyone want wheat?">
<ellipse fill="black" stroke="black" cx="62" cy="-494.5" rx="3.5" ry="3.5"/>
</a>
</g>
</g>
<!-- 1_0 -->
<!-- s2_league4_game2_02_stac_1399316504&#45;&gt;1_0 -->
<!-- s2_league4_game2_02_stac_1399316507 -->
<g id="node3" class="node">
<title>s2_league4_game2_02_stac_1399316507</title>
<g id="a_node3"><a xlink:title="2 &#160;somdechn &#160;Yes please">
<ellipse fill="black" stroke="black" cx="39" cy="-469.5" rx="3.5" ry="3.5"/>
</a>
</g>
</g>
<!-- s2_league4_game2_02_stac_1399316504&#45;&gt;s2_league4_game2_02_stac_1399316507 -->
<g id="edge30" class="edge">
<title>s2_league4_game2_02_stac_1399316504&#45;&gt;s2_league4_game2_02_stac_1399316507</title>
<g id="a_edge30"><a xlink:title="Question_answer_pair">
<path fill="none" stroke="#12ffff" d="M59.88,-491.38C56.54,-488.04 49.95,-481.45 45.06,-476.56"/>
<polygon fill="#12ffff" stroke="#12ffff" points="46.23,-475.26 41.46,-472.96 43.76,-477.73 46.23,-475.26"/>
</a>
</g>
</g>
<!-- s2_league4_game2_02_stac_1399316510 -->
<g id="node5" class="node">
<title>s2_league4_game2_02_stac_1399316510</title>
<g id="a_node5"><a xlink:title="3 &#160;ztime &#160;I&#39;m after wood">
<ellipse fill="black" stroke="black" cx="39" cy="-444.5" rx="3.5" ry="3.5"/>
</a>
</g>
</g>
<!-- s2_league4_game2_02_stac_1399316504&#45;&gt;s2_league4_game2_02_stac_1399316510 -->
<g id="edge31" class="edge">
<title>s2_league4_game2_02_stac_1399316504&#45;&gt;s2_league4_game2_02_stac_1399316510</title>
<g id="a_edge31"><a xlink:title="Elaboration">
<path fill="none" stroke="#a621c7" d="M61.24,-490.84C59.78,-485.85 56.3,-474.75 52,-466 49.59,-461.11 46.3,-455.92 43.63,-451.99"/>
<polygon fill="#a621c7" stroke="#a621c7" points="45,-450.89 40.69,-447.8 42.13,-452.9 45,-450.89"/>
</a>
</g>
</g>
<!-- s2_league4_game2_02_stac_1399316534 -->
<g id="node21" class="node">
<title>s2_league4_game2_02_stac_1399316534</title>
<g id="a_node21"><a xlink:title="11 &#160;ztime &#160;anyone want to sell sheep?">
<ellipse fill="black" stroke="black" cx="61" cy="-244.5" rx="3.5" ry="3.5"/>
</a>
</g>
</g>
<!-- s2_league4_game2_02_stac_1399316504&#45;&gt;s2_league4_game2_02_stac_1399316534 -->
<g id="edge32" class="edge">
<title>s2_league4_game2_02_stac_1399316504&#45;&gt;s2_league4_game2_02_stac_1399316534</title>
<g id="a_edge32"><a xlink:title="ParallNarrContinuationbackground">
<path fill="none" stroke="#0ab046" d="M63.12,-491.14C68.09,-480.39 88,-434.93 88,-395.5 88,-395.5 88,-395.5 88,-293.5 88,-276.4 74.82,-259.76 66.88,-251.29"/>
<polygon fill="#0ab046" stroke="#0ab046" points="67.87,-249.81 63.12,-247.47 65.38,-252.26 67.87,-249.81"/>
</a>
</g>
</g>
<!-- 2_0 -->
<!-- s2_league4_game2_02_stac_1399316507&#45;&gt;2_0 -->
<!-- s2_league4_game2_02_stac_1399316507&#45;&gt;s2_league4_game2_02_stac_1399316510 -->
<!-- 3_0 -->
<!-- s2_league4_game2_02_stac_1399316510&#45;&gt;3_0 -->
<!-- s2_league4_game2_02_stac_1399316513 -->
<g id="node7" class="node">
<title>s2_league4_game2_02_stac_1399316513</title>
<g id="a_node7"><a xlink:title="4 &#160;ztime &#160;or sheep...">
<ellipse fill="black" stroke="black" cx="40" cy="-419.5" rx="3.5" ry="3.5"/>
</a>
</g>
</g>
<!-- s2_league4_game2_02_stac_1399316510&#45;&gt;s2_league4_game2_02_stac_1399316513 -->
<g id="edge33" class="edge">
<title>s2_league4_game2_02_stac_1399316510&#45;&gt;s2_league4_game2_02_stac_1399316513</title>
<g id="a_edge33"><a xlink:title="Alternation">
<path fill="none" stroke="#10495e" d="M39.12,-440.68C39.26,-437.58 39.48,-432.47 39.67,-428.16"/>
<polygon fill="#10495e" stroke="#10495e" points="41.42,-428.13 39.89,-423.06 37.92,-427.98 41.42,-428.13"/>
</a>
</g>
</g>
<!-- s2_league4_game2_02_stac_1399316516 -->
<g id="node9" class="node">
<title>s2_league4_game2_02_stac_1399316516</title>
<g id="a_node9"><a xlink:title="5 &#160;ztime &#160;which do you want?">
<ellipse fill="black" stroke="black" cx="30" cy="-394.5" rx="3.5" ry="3.5"/>
</a>
</g>
</g>
<!-- s2_league4_game2_02_stac_1399316510&#45;&gt;s2_league4_game2_02_stac_1399316516 -->
<g id="edge34" class="edge">
<title>s2_league4_game2_02_stac_1399316510&#45;&gt;s2_league4_game2_02_stac_1399316516</title>
<g id="a_edge34"><a xlink:title="Q_Elab">
<path fill="none" stroke="#0d20ff" d="M37.31,-441.26C34.7,-437.64 29.81,-430.21 28,-423 26.35,-416.45 27.13,-408.78 28.16,-403.2"/>
<polygon fill="#0d20ff" stroke="#0d20ff" points="29.91,-403.38 29.27,-398.13 26.49,-402.64 29.91,-403.38"/>
</a>
</g>
</g>
<!-- 4_0 -->
<!-- s2_league4_game2_02_stac_1399316513&#45;&gt;4_0 -->
<!-- s2_league4_game2_02_stac_1399316513&#45;&gt;s2_league4_game2_02_stac_1399316516 -->
<!-- 5_0 -->
<!-- s2_league4_game2_02_stac_1399316516&#45;&gt;5_0 -->
<!-- s2_league4_game2_02_stac_1399316519 -->
<g id="node11" class="node">
<title>s2_league4_game2_02_stac_1399316519</title>
<g id="a_node11"><a xlink:title="6 &#160;somdechn &#160;I can give you ore">
<ellipse fill="black" stroke="black" cx="30" cy="-369.5" rx="3.5" ry="3.5"/>
</a>
</g>
</g>
<!-- s2_league4_game2_02_stac_1399316516&#45;&gt;s2_league4_game2_02_stac_1399316519 -->
<g id="edge35" class="edge">
<title>s2_league4_game2_02_stac_1399316516&#45;&gt;s2_league4_game2_02_stac_1399316519</title>
<g id="a_edge35"><a xlink:title="Question_answer_pair">
<path fill="none" stroke="#12ffff" d="M30,-390.68C30,-387.58 30,-382.47 30,-378.16"/>
<polygon fill="#12ffff" stroke="#12ffff" points="31.75,-378.06 30,-373.06 28.25,-378.06 31.75,-378.06"/>
</a>
</g>
</g>
<!-- 6_0 -->
<!-- s2_league4_game2_02_stac_1399316519&#45;&gt;6_0 -->
<!-- s2_league4_game2_02_stac_1399316522 -->
<g id="node13" class="node">
<title>s2_league4_game2_02_stac_1399316522</title>
<g id="a_node13"><a xlink:title="7 &#160;ztime &#160;ore.. ok...">
<ellipse fill="black" stroke="black" cx="30" cy="-344.5" rx="3.5" ry="3.5"/>
</a>
</g>
</g>
<!-- s2_league4_game2_02_stac_1399316519&#45;&gt;s2_league4_game2_02_stac_1399316522 -->
<g id="edge36" class="edge">
<title>s2_league4_game2_02_stac_1399316519&#45;&gt;s2_league4_game2_02_stac_1399316522</title>
<g id="a_edge36"><a xlink:title="Question_answer_pair">
<path fill="none" stroke="#12ffff" d="M30,-365.68C30,-362.58 30,-357.47 30,-353.16"/>
<polygon fill="#12ffff" stroke="#12ffff" points="31.75,-353.06 30,-348.06 28.25,-353.06 31.75,-353.06"/>
</a>
</g>
</g>
<!-- 7_0 -->
<!-- s2_league4_game2_02_stac_1399316522&#45;&gt;7_0 -->
<!-- s2_league4_game2_02_stac_1399316525 -->
<g id="node15" class="node">
<title>s2_league4_game2_02_stac_1399316525</title>
<g id="a_node15"><a xlink:title="8 &#160;Shawnus &#160;:D">
<ellipse fill="black" stroke="black" cx="30" cy="-319.5" rx="3.5" ry="3.5"/>
</a>
</g>
</g>
<!-- s2_league4_game2_02_stac_1399316522&#45;&gt;s2_league4_game2_02_stac_1399316525 -->
<g id="edge37" class="edge">
<title>s2_league4_game2_02_stac_1399316522&#45;&gt;s2_league4_game2_02_stac_1399316525</title>
<g id="a_edge37"><a xlink:title="Comment">
<path fill="none" stroke="#ff8200" d="M30,-340.68C30,-337.58 30,-332.47 30,-328.16"/>
<polygon fill="#ff8200" stroke="#ff8200" points="31.75,-328.06 30,-323.06 28.25,-328.06 31.75,-328.06"/>
</a>
</g>
</g>
<!-- 8_0 -->
<!-- s2_league4_game2_02_stac_1399316525&#45;&gt;8_0 -->
<!-- s2_league4_game2_02_stac_1399316528 -->
<g id="node17" class="node">
<title>s2_league4_game2_02_stac_1399316528</title>
<g id="a_node17"><a xlink:title="9 &#160;Shawnus &#160;this is a major trading game">
<ellipse fill="black" stroke="black" cx="40" cy="-294.5" rx="3.5" ry="3.5"/>
</a>
</g>
</g>
<!-- s2_league4_game2_02_stac_1399316525&#45;&gt;s2_league4_game2_02_stac_1399316528 -->
<g id="edge38" class="edge">
<title>s2_league4_game2_02_stac_1399316525&#45;&gt;s2_league4_game2_02_stac_1399316528</title>
<g id="a_edge38"><a xlink:title="ParallNarrContinuationbackground">
<path fill="none" stroke="#0ab046" d="M31.07,-316.04C32.46,-312.84 34.95,-307.12 36.94,-302.53"/>
<polygon fill="#0ab046" stroke="#0ab046" points="38.58,-303.16 38.97,-297.87 35.37,-301.76 38.58,-303.16"/>
</a>
</g>
</g>
<!-- s2_league4_game2_02_stac_1399316531 -->
<g id="node19" class="node">
<title>s2_league4_game2_02_stac_1399316531</title>
<g id="a_node19"><a xlink:title="10 &#160;ztime &#160;yer..">
<ellipse fill="black" stroke="black" cx="40" cy="-269.5" rx="3.5" ry="3.5"/>
</a>
</g>
</g>
<!-- s2_league4_game2_02_stac_1399316525&#45;&gt;s2_league4_game2_02_stac_1399316531 -->
<g id="edge39" class="edge">
<title>s2_league4_game2_02_stac_1399316525&#45;&gt;s2_league4_game2_02_stac_1399316531</title>
<g id="a_edge39"><a xlink:title="Acknowledgement">
<path fill="none" stroke="#12ffff" d="M29.24,-315.87C27.92,-310.9 25.59,-299.87 28,-291 29.4,-285.85 32.45,-280.67 35.12,-276.81"/>
<polygon fill="#12ffff" stroke="#12ffff" points="36.58,-277.77 38.16,-272.71 33.77,-275.69 36.58,-277.77"/>
</a>
</g>
</g>
<!-- 9_0 -->
<!-- s2_league4_game2_02_stac_1399316528&#45;&gt;9_0 -->
<!-- s2_league4_game2_02_stac_1399316528&#45;&gt;s2_league4_game2_02_stac_1399316531 -->
<!-- 10_0 -->
<!-- s2_league4_game2_02_stac_1399316531&#45;&gt;10_0 -->
<!-- s2_league4_game2_02_stac_1399316531&#45;&gt;s2_league4_game2_02_stac_1399316534 -->
<!-- 11_0 -->
<!-- s2_league4_game2_02_stac_1399316534&#45;&gt;11_0 -->
<!-- s2_league4_game2_02_stac_1399316537 -->
<g id="node23" class="node">
<title>s2_league4_game2_02_stac_1399316537</title>
<g id="a_node23"><a xlink:title="12 &#160;ztime &#160;I can give wheat..">
<ellipse fill="black" stroke="black" cx="38" cy="-219.5" rx="3.5" ry="3.5"/>
</a>
</g>
</g>
<!-- s2_league4_game2_02_stac_1399316534&#45;&gt;s2_league4_game2_02_stac_1399316537 -->
<g id="edge40" class="edge">
<title>s2_league4_game2_02_stac_1399316534&#45;&gt;s2_league4_game2_02_stac_1399316537</title>
<g id="a_edge40"><a xlink:title="Elaboration">
<path fill="none" stroke="#a621c7" d="M58.88,-241.38C55.54,-238.04 48.95,-231.45 44.06,-226.56"/>
<polygon fill="#a621c7" stroke="#a621c7" points="45.23,-225.26 40.46,-222.96 42.76,-227.73 45.23,-225.26"/>
</a>
</g>
</g>
<!-- s2_league4_game2_02_stac_1399316540 -->
<g id="node25" class="node">
<title>s2_league4_game2_02_stac_1399316540</title>
<g id="a_node25"><a xlink:title="13 &#160;Shawnus &#160;not got any :(">
<ellipse fill="black" stroke="black" cx="60" cy="-194.5" rx="3.5" ry="3.5"/>
</a>
</g>
</g>
<!-- s2_league4_game2_02_stac_1399316534&#45;&gt;s2_league4_game2_02_stac_1399316540 -->
<g id="edge41" class="edge">
<title>s2_league4_game2_02_stac_1399316534&#45;&gt;s2_league4_game2_02_stac_1399316540</title>
<g id="a_edge41"><a xlink:title="Question_answer_pair">
<path fill="none" stroke="#12ffff" d="M60.95,-240.92C60.8,-233.95 60.4,-214.55 60.17,-203.49"/>
<polygon fill="#12ffff" stroke="#12ffff" points="61.91,-203.29 60.06,-198.33 58.41,-203.37 61.91,-203.29"/>
</a>
</g>
</g>
<!-- s2_league4_game2_02_stac_1399316555 -->
<g id="node35" class="node">
<title>s2_league4_game2_02_stac_1399316555</title>
<g id="a_node35"><a xlink:title="18 &#160;Shawnus &#160;i want sheep too...">
<ellipse fill="black" stroke="black" cx="69" cy="-69.5" rx="3.5" ry="3.5"/>
</a>
</g>
</g>
<!-- s2_league4_game2_02_stac_1399316534&#45;&gt;s2_league4_game2_02_stac_1399316555 -->
<g id="edge42" class="edge">
<title>s2_league4_game2_02_stac_1399316534&#45;&gt;s2_league4_game2_02_stac_1399316555</title>
<g id="a_edge42"><a xlink:title="ParallNarrContinuationbackground">
<path fill="none" stroke="#0ab046" d="M63.27,-241.75C72.66,-234.29 108,-203.96 108,-170.5 108,-170.5 108,-170.5 108,-118.5 108,-98.39 87.12,-82.01 75.92,-74.67"/>
<polygon fill="#0ab046" stroke="#0ab046" points="76.73,-73.11 71.56,-71.95 74.88,-76.08 76.73,-73.11"/>
</a>
</g>
</g>
<!-- 12_0 -->
<!-- s2_league4_game2_02_stac_1399316537&#45;&gt;12_0 -->
<!-- s2_league4_game2_02_stac_1399316537&#45;&gt;s2_league4_game2_02_stac_1399316540 -->
<!-- s2_league4_game2_02_stac_1399316543 -->
<g id="node27" class="node">
<title>s2_league4_game2_02_stac_1399316543</title>
<g id="a_node27"><a xlink:title="14 &#160;somdechn &#160;How about clay?">
<ellipse fill="black" stroke="black" cx="50" cy="-169.5" rx="3.5" ry="3.5"/>
</a>
</g>
</g>
<!-- s2_league4_game2_02_stac_1399316537&#45;&gt;s2_league4_game2_02_stac_1399316543 -->
<g id="edge43" class="edge">
<title>s2_league4_game2_02_stac_1399316537&#45;&gt;s2_league4_game2_02_stac_1399316543</title>
<g id="a_edge43"><a xlink:title="Q_Elab">
<path fill="none" stroke="#0d20ff" d="M38.65,-215.92C40.39,-208.95 45.24,-189.55 48,-178.49"/>
<polygon fill="#0d20ff" stroke="#0d20ff" points="49.78,-178.61 49.29,-173.33 46.38,-177.76 49.78,-178.61"/>
</a>
</g>
</g>
<!-- s2_league4_game2_02_stac_1399316546 -->
<g id="node29" class="node">
<title>s2_league4_game2_02_stac_1399316546</title>
<g id="a_node29"><a xlink:title="15 &#160;ztime &#160;2 wheat...">
<ellipse fill="black" stroke="black" cx="50" cy="-144.5" rx="3.5" ry="3.5"/>
</a>
</g>
</g>
<!-- s2_league4_game2_02_stac_1399316537&#45;&gt;s2_league4_game2_02_stac_1399316546 -->
<g id="edge44" class="edge">
<title>s2_league4_game2_02_stac_1399316537&#45;&gt;s2_league4_game2_02_stac_1399316546</title>
<g id="a_edge44"><a xlink:title="Q_Elab">
<path fill="none" stroke="#0d20ff" d="M37.48,-215.58C36.14,-207.52 33.04,-184.3 38,-166 39.4,-160.85 42.45,-155.67 45.12,-151.81"/>
<polygon fill="#0d20ff" stroke="#0d20ff" points="46.58,-152.77 48.16,-147.71 43.77,-150.69 46.58,-152.77"/>
</a>
</g>
</g>
<!-- 13_0 -->
<!-- s2_league4_game2_02_stac_1399316540&#45;&gt;13_0 -->
<!-- s2_league4_game2_02_stac_1399316540&#45;&gt;s2_league4_game2_02_stac_1399316543 -->
<!-- 14_0 -->
<!-- s2_league4_game2_02_stac_1399316543&#45;&gt;14_0 -->
<!-- s2_league4_game2_02_stac_1399316543&#45;&gt;s2_league4_game2_02_stac_1399316546 -->
<g id="edge45" class="edge">
<title>s2_league4_game2_02_stac_1399316543&#45;&gt;s2_league4_game2_02_stac_1399316546</title>
<g id="a_edge45"><a xlink:title="ExplanationResult">
<path fill="none" stroke="#a62139" d="M50,-165.68C50,-162.58 50,-157.47 50,-153.16"/>
<polygon fill="#a62139" stroke="#a62139" points="51.75,-153.06 50,-148.06 48.25,-153.06 51.75,-153.06"/>
</a>
</g>
</g>
<!-- 15_0 -->
<!-- s2_league4_game2_02_stac_1399316546&#45;&gt;15_0 -->
<!-- s2_league4_game2_02_stac_1399316549 -->
<g id="node31" class="node">
<title>s2_league4_game2_02_stac_1399316549</title>
<g id="a_node31"><a xlink:title="16 &#160;somdechn &#160;I want clay...">
<ellipse fill="black" stroke="black" cx="55" cy="-119.5" rx="3.5" ry="3.5"/>
</a>
</g>
</g>
<!-- s2_league4_game2_02_stac_1399316546&#45;&gt;s2_league4_game2_02_stac_1399316549 -->
<g id="edge46" class="edge">
<title>s2_league4_game2_02_stac_1399316546&#45;&gt;s2_league4_game2_02_stac_1399316549</title>
<g id="a_edge46"><a xlink:title="Question_answer_pair">
<path fill="none" stroke="#12ffff" d="M50.54,-141.04C51.2,-137.97 52.37,-132.6 53.34,-128.12"/>
<polygon fill="#12ffff" stroke="#12ffff" points="55.07,-128.41 54.42,-123.16 51.65,-127.67 55.07,-128.41"/>
</a>
</g>
</g>
<!-- 16_0 -->
<!-- s2_league4_game2_02_stac_1399316549&#45;&gt;16_0 -->
<!-- s2_league4_game2_02_stac_1399316552 -->
<g id="node33" class="node">
<title>s2_league4_game2_02_stac_1399316552</title>
<g id="a_node33"><a xlink:title="17 &#160;ztime &#160;sorry..">
<ellipse fill="black" stroke="black" cx="57" cy="-94.5" rx="3.5" ry="3.5"/>
</a>
</g>
</g>
<!-- s2_league4_game2_02_stac_1399316549&#45;&gt;s2_league4_game2_02_stac_1399316552 -->
<g id="edge47" class="edge">
<title>s2_league4_game2_02_stac_1399316549&#45;&gt;s2_league4_game2_02_stac_1399316552</title>
<g id="a_edge47"><a xlink:title="Question_answer_pair">
<path fill="none" stroke="#12ffff" d="M55.25,-115.68C55.51,-112.58 55.96,-107.47 56.33,-103.16"/>
<polygon fill="#12ffff" stroke="#12ffff" points="58.09,-103.19 56.78,-98.06 54.6,-102.89 58.09,-103.19"/>
</a>
</g>
</g>
<!-- 17_0 -->
<!-- s2_league4_game2_02_stac_1399316552&#45;&gt;17_0 -->
<!-- s2_league4_game2_02_stac_1399316552&#45;&gt;s2_league4_game2_02_stac_1399316555 -->
<!-- 18_0 -->
<!-- s2_league4_game2_02_stac_1399316555&#45;&gt;18_0 -->
<!-- s2_league4_game2_02_stac_1399316559 -->
<g id="node37" class="node">
<title>s2_league4_game2_02_stac_1399316559</title>
<g id="a_node37"><a xlink:title="19 &#160;Shawnus &#160;for ore..">
<ellipse fill="black" stroke="black" cx="57" cy="-44.5" rx="3.5" ry="3.5"/>
</a>
</g>
</g>
<!-- s2_league4_game2_02_stac_1399316555&#45;&gt;s2_league4_game2_02_stac_1399316559 -->
<!-- s2_league4_game2_02_stac_1399316560 -->
<g id="node38" class="node">
<title>s2_league4_game2_02_stac_1399316560</title>
<g id="a_node38"><a xlink:title="19 &#160;Shawnus &#160;if anyone gets some">
<ellipse fill="black" stroke="black" cx="82" cy="-44.5" rx="3.5" ry="3.5"/>
</a>
</g>
</g>
<!-- s2_league4_game2_02_stac_1399316555&#45;&gt;s2_league4_game2_02_stac_1399316560 -->
<g id="edge48" class="edge">
<title>s2_league4_game2_02_stac_1399316555&#45;&gt;s2_league4_game2_02_stac_1399316560</title>
<g id="a_edge48"><a xlink:title="Elaboration">
<path fill="none" stroke="#a621c7" d="M70.39,-66.04C72.24,-62.77 75.57,-56.87 78.2,-52.23"/>
<polygon fill="#a621c7" stroke="#a621c7" points="79.72,-53.09 80.66,-47.87 76.67,-51.37 79.72,-53.09"/>
</a>
</g>
</g>
<!-- s2_league4_game2_02_stac_1399316559&#45;&gt;s2_league4_game2_02_stac_1399316560 -->
<!-- s2_league4_game2_02_stac_1399316563 -->
<g id="node39" class="node">
<title>s2_league4_game2_02_stac_1399316563</title>
<g id="a_node39"><a xlink:title="20 &#160;ztime &#160;ha.. somdech stole from me">
<ellipse fill="black" stroke="black" cx="62" cy="-19.5" rx="3.5" ry="3.5"/>
</a>
</g>
</g>
<!-- s2_league4_game2_02_stac_1399316559&#45;&gt;s2_league4_game2_02_stac_1399316563 -->
<!-- s2_league4_game2_02_stac_1399316560&#45;&gt;s2_league4_game2_02_stac_1399316559 -->
<g id="edge49" class="edge">
<title>s2_league4_game2_02_stac_1399316560&#45;&gt;s2_league4_game2_02_stac_1399316559</title>
<g id="a_edge49"><a xlink:title="Conditional">
<path fill="none" stroke="#1c931a" d="M78.64,-45.72C74.3,-47.05 69.96,-47.44 65.61,-46.87"/>
<polygon fill="#1c931a" stroke="#1c931a" points="65.77,-45.12 60.52,-45.77 65.03,-48.54 65.77,-45.12"/>
</a>
</g>
</g>
<!-- s2_league4_game2_02_stac_1399316560&#45;&gt;s2_league4_game2_02_stac_1399316563 -->
<g id="edge50" class="edge">
<title>s2_league4_game2_02_stac_1399316560&#45;&gt;s2_league4_game2_02_stac_1399316563</title>
<g id="a_edge50"><a xlink:title="Comment">
<path fill="none" stroke="#ff8200" d="M80.15,-41.38C77.31,-38.11 71.75,-31.71 67.52,-26.85"/>
<polygon fill="#ff8200" stroke="#ff8200" points="68.74,-25.59 64.14,-22.96 66.1,-27.88 68.74,-25.59"/>
</a>
</g>
</g>
<!-- 20_0 -->
<!-- s2_league4_game2_02_stac_1399316563&#45;&gt;20_0 -->
</g>
</svg>
