<?xml version="1.0" encoding="UTF-8" standalone="no"?>
<!DOCTYPE svg PUBLIC "-//W3C//DTD SVG 1.1//EN"
 "http://www.w3.org/Graphics/SVG/1.1/DTD/svg11.dtd">
<!-- Generated by graphviz version 3.0.0 (20220226.1711)
 -->
<!-- Title: 3_s2_league4_game2_758 Pages: 1 -->
<svg width="153pt" height="670pt"
 viewBox="0.00 0.00 153.00 670.00" xmlns="http://www.w3.org/2000/svg" xmlns:xlink="http://www.w3.org/1999/xlink">
<g id="graph0" class="graph" transform="scale(1 1) rotate(0) translate(4 666)">
<title>3_s2_league4_game2_758</title>
<polygon fill="white" stroke="transparent" points="-4,4 -4,-666 149,-666 149,4 -4,4"/>
<g id="clust1" class="cluster">
<title>cluster_3_s2_league4_game2_758</title>
<polygon fill="none" stroke="black" points="8,-8 8,-654 137,-654 137,-8 8,-8"/>
<text text-anchor="middle" x="26.5" y="-638.8" font-family="Times,serif" font-size="14.00">758</text>
</g>
<!-- s2_league4_game2_03_stac_1399316498 -->
<g id="node1" class="node">
<title>s2_league4_game2_03_stac_1399316498</title>
<g id="a_node1"><a xlink:title="1 &#160;somdechn &#160;What do you need Shawnus">
<ellipse fill="black" stroke="black" cx="40" cy="-619.5" rx="3.5" ry="3.5"/>
</a>
</g>
</g>
<!-- 1_0 -->
<!-- s2_league4_game2_03_stac_1399316498&#45;&gt;1_0 -->
<!-- s2_league4_game2_03_stac_1399316501 -->
<g id="node3" class="node">
<title>s2_league4_game2_03_stac_1399316501</title>
<g id="a_node3"><a xlink:title="2 &#160;Shawnus &#160;sheep">
<ellipse fill="black" stroke="black" cx="40" cy="-594.5" rx="3.5" ry="3.5"/>
</a>
</g>
</g>
<!-- s2_league4_game2_03_stac_1399316498&#45;&gt;s2_league4_game2_03_stac_1399316501 -->
<g id="edge30" class="edge">
<title>s2_league4_game2_03_stac_1399316498&#45;&gt;s2_league4_game2_03_stac_1399316501</title>
<g id="a_edge30"><a xlink:title="Question_answer_pair">
<path fill="none" stroke="#12ffff" d="M40,-615.68C40,-612.58 40,-607.47 40,-603.16"/>
<polygon fill="#12ffff" stroke="#12ffff" points="41.75,-603.06 40,-598.06 38.25,-603.06 41.75,-603.06"/>
</a>
</g>
</g>
<!-- 2_0 -->
<!-- s2_league4_game2_03_stac_1399316501&#45;&gt;2_0 -->
<!-- s2_league4_game2_03_stac_1399316504 -->
<g id="node5" class="node">
<title>s2_league4_game2_03_stac_1399316504</title>
<g id="a_node5"><a xlink:title="3 &#160;somdechn &#160;What can you give?">
<ellipse fill="black" stroke="black" cx="40" cy="-569.5" rx="3.5" ry="3.5"/>
</a>
</g>
</g>
<!-- s2_league4_game2_03_stac_1399316501&#45;&gt;s2_league4_game2_03_stac_1399316504 -->
<g id="edge31" class="edge">
<title>s2_league4_game2_03_stac_1399316501&#45;&gt;s2_league4_game2_03_stac_1399316504</title>
<g id="a_edge31"><a xlink:title="Q_Elab">
<path fill="none" stroke="#0d20ff" d="M40,-590.68C40,-587.58 40,-582.47 40,-578.16"/>
<polygon fill="#0d20ff" stroke="#0d20ff" points="41.75,-578.06 40,-573.06 38.25,-578.06 41.75,-578.06"/>
</a>
</g>
</g>
<!-- 3_0 -->
<!-- s2_league4_game2_03_stac_1399316504&#45;&gt;3_0 -->
<!-- s2_league4_game2_03_stac_1399316507 -->
<g id="node7" class="node">
<title>s2_league4_game2_03_stac_1399316507</title>
<g id="a_node7"><a xlink:title="4 &#160;Shawnus &#160;wood or ore">
<ellipse fill="black" stroke="black" cx="40" cy="-544.5" rx="3.5" ry="3.5"/>
</a>
</g>
</g>
<!-- s2_league4_game2_03_stac_1399316504&#45;&gt;s2_league4_game2_03_stac_1399316507 -->
<g id="edge32" class="edge">
<title>s2_league4_game2_03_stac_1399316504&#45;&gt;s2_league4_game2_03_stac_1399316507</title>
<g id="a_edge32"><a xlink:title="Question_answer_pair">
<path fill="none" stroke="#12ffff" d="M40,-565.68C40,-562.58 40,-557.47 40,-553.16"/>
<polygon fill="#12ffff" stroke="#12ffff" points="41.75,-553.06 40,-548.06 38.25,-553.06 41.75,-553.06"/>
</a>
</g>
</g>
<!-- 4_0 -->
<!-- s2_league4_game2_03_stac_1399316507&#45;&gt;4_0 -->
<!-- s2_league4_game2_03_stac_1399316510 -->
<g id="node9" class="node">
<title>s2_league4_game2_03_stac_1399316510</title>
<g id="a_node9"><a xlink:title="5 &#160;Shawnus &#160;damn">
<ellipse fill="black" stroke="black" cx="70" cy="-519.5" rx="3.5" ry="3.5"/>
</a>
</g>
</g>
<!-- s2_league4_game2_03_stac_1399316507&#45;&gt;s2_league4_game2_03_stac_1399316510 -->
<g id="edge33" class="edge">
<title>s2_league4_game2_03_stac_1399316507&#45;&gt;s2_league4_game2_03_stac_1399316510</title>
<g id="a_edge33"><a xlink:title="Comment">
<path fill="none" stroke="#ff8200" d="M42.35,-541.7C46.84,-538.25 56.78,-530.64 63.43,-525.53"/>
<polygon fill="#ff8200" stroke="#ff8200" points="64.84,-526.66 67.74,-522.23 62.71,-523.89 64.84,-526.66"/>
</a>
</g>
</g>
<!-- s2_league4_game2_03_stac_1399316523 -->
<g id="node17" class="node">
<title>s2_league4_game2_03_stac_1399316523</title>
<g id="a_node17"><a xlink:title="9 &#160;somdechn &#160;Wood would be nice">
<ellipse fill="black" stroke="black" cx="59" cy="-419.5" rx="3.5" ry="3.5"/>
</a>
</g>
</g>
<!-- s2_league4_game2_03_stac_1399316507&#45;&gt;s2_league4_game2_03_stac_1399316523 -->
<g id="edge34" class="edge">
<title>s2_league4_game2_03_stac_1399316507&#45;&gt;s2_league4_game2_03_stac_1399316523</title>
<g id="a_edge34"><a xlink:title="Question_answer_pair">
<path fill="none" stroke="#12ffff" d="M38.2,-541.47C32.77,-535.15 17,-515.09 17,-495.5 17,-495.5 17,-495.5 17,-468.5 17,-447.57 39.89,-431.38 51.88,-424.34"/>
<polygon fill="#12ffff" stroke="#12ffff" points="52.74,-425.87 56.24,-421.9 51.03,-422.81 52.74,-425.87"/>
</a>
</g>
</g>
<!-- 5_0 -->
<!-- s2_league4_game2_03_stac_1399316510&#45;&gt;5_0 -->
<!-- s2_league4_game2_03_stac_1399316514 -->
<g id="node11" class="node">
<title>s2_league4_game2_03_stac_1399316514</title>
<g id="a_node11"><a xlink:title="6 &#160;ztime &#160;eh?">
<ellipse fill="black" stroke="black" cx="70" cy="-494.5" rx="3.5" ry="3.5"/>
</a>
</g>
</g>
<!-- s2_league4_game2_03_stac_1399316510&#45;&gt;s2_league4_game2_03_stac_1399316514 -->
<g id="edge35" class="edge">
<title>s2_league4_game2_03_stac_1399316510&#45;&gt;s2_league4_game2_03_stac_1399316514</title>
<g id="a_edge35"><a xlink:title="Clarification_question">
<path fill="none" stroke="#ff40d1" d="M70,-515.68C70,-512.58 70,-507.47 70,-503.16"/>
<polygon fill="#ff40d1" stroke="#ff40d1" points="71.75,-503.06 70,-498.06 68.25,-503.06 71.75,-503.06"/>
</a>
</g>
</g>
<!-- s2_league4_game2_03_stac_1399316529 -->
<g id="node21" class="node">
<title>s2_league4_game2_03_stac_1399316529</title>
<g id="a_node21"><a xlink:title="11 &#160;Shawnus &#160;misprpressed to end my go!">
<ellipse fill="black" stroke="black" cx="70" cy="-369.5" rx="3.5" ry="3.5"/>
</a>
</g>
</g>
<!-- s2_league4_game2_03_stac_1399316510&#45;&gt;s2_league4_game2_03_stac_1399316529 -->
<g id="edge36" class="edge">
<title>s2_league4_game2_03_stac_1399316510&#45;&gt;s2_league4_game2_03_stac_1399316529</title>
<g id="a_edge36"><a xlink:title="ExplanationResult">
<path fill="none" stroke="#a62139" d="M73.54,-517.82C81.39,-516.11 100.19,-510.8 108,-498 121.2,-476.37 111.98,-466.16 109,-441 106.24,-417.69 105.59,-410.14 92,-391 87.65,-384.87 81.23,-379.15 76.45,-375.32"/>
<polygon fill="#a62139" stroke="#a62139" points="77.38,-373.83 72.35,-372.17 75.25,-376.6 77.38,-373.83"/>
</a>
</g>
</g>
<!-- 6_0 -->
<!-- s2_league4_game2_03_stac_1399316514&#45;&gt;6_0 -->
<!-- s2_league4_game2_03_stac_1399316517 -->
<g id="node13" class="node">
<title>s2_league4_game2_03_stac_1399316517</title>
<g id="a_node13"><a xlink:title="7 &#160;ztime &#160;ooo..">
<ellipse fill="black" stroke="black" cx="60" cy="-469.5" rx="3.5" ry="3.5"/>
</a>
</g>
</g>
<!-- s2_league4_game2_03_stac_1399316514&#45;&gt;s2_league4_game2_03_stac_1399316517 -->
<g id="edge37" class="edge">
<title>s2_league4_game2_03_stac_1399316514&#45;&gt;s2_league4_game2_03_stac_1399316517</title>
<g id="a_edge37"><a xlink:title="Question_answer_pair">
<path fill="none" stroke="#12ffff" d="M68.93,-491.04C67.54,-487.84 65.05,-482.12 63.06,-477.53"/>
<polygon fill="#12ffff" stroke="#12ffff" points="64.63,-476.76 61.03,-472.87 61.42,-478.16 64.63,-476.76"/>
</a>
</g>
</g>
<!-- s2_league4_game2_03_stac_1399316514&#45;&gt;s2_league4_game2_03_stac_1399316529 -->
<g id="edge38" class="edge">
<title>s2_league4_game2_03_stac_1399316514&#45;&gt;s2_league4_game2_03_stac_1399316529</title>
<g id="a_edge38"><a xlink:title="Question_answer_pair">
<path fill="none" stroke="#12ffff" d="M73.01,-492.39C79.08,-489.95 92.66,-483.53 98,-473 109.46,-450.4 104.19,-440.3 97,-416 92.51,-400.83 81.84,-385.47 75.34,-377.05"/>
<polygon fill="#12ffff" stroke="#12ffff" points="76.41,-375.59 71.92,-372.77 73.67,-377.77 76.41,-375.59"/>
</a>
</g>
</g>
<!-- 7_0 -->
<!-- s2_league4_game2_03_stac_1399316517&#45;&gt;7_0 -->
<!-- s2_league4_game2_03_stac_1399316520 -->
<g id="node15" class="node">
<title>s2_league4_game2_03_stac_1399316520</title>
<g id="a_node15"><a xlink:title="8 &#160;ztime &#160;7..">
<ellipse fill="black" stroke="black" cx="60" cy="-444.5" rx="3.5" ry="3.5"/>
</a>
</g>
</g>
<!-- s2_league4_game2_03_stac_1399316517&#45;&gt;s2_league4_game2_03_stac_1399316520 -->
<g id="edge39" class="edge">
<title>s2_league4_game2_03_stac_1399316517&#45;&gt;s2_league4_game2_03_stac_1399316520</title>
<g id="a_edge39"><a xlink:title="Elaboration">
<path fill="none" stroke="#a621c7" d="M60,-465.68C60,-462.58 60,-457.47 60,-453.16"/>
<polygon fill="#a621c7" stroke="#a621c7" points="61.75,-453.06 60,-448.06 58.25,-453.06 61.75,-453.06"/>
</a>
</g>
</g>
<!-- s2_league4_game2_03_stac_1399316532 -->
<g id="node45" class="node">
<title>s2_league4_game2_03_stac_1399316532</title>
<g id="a_node45"><a xlink:title="12 &#160;ztime &#160;anyone want to give me wood..">
<ellipse fill="black" stroke="black" cx="38" cy="-344.5" rx="3.5" ry="3.5"/>
</a>
</g>
</g>
<!-- s2_league4_game2_03_stac_1399316517&#45;&gt;s2_league4_game2_03_stac_1399316532 -->
<g id="edge40" class="edge">
<title>s2_league4_game2_03_stac_1399316517&#45;&gt;s2_league4_game2_03_stac_1399316532</title>
<g id="a_edge40"><a xlink:title="ParallNarrContinuationbackground">
<path fill="none" stroke="#0ab046" d="M58.24,-466.26C55.52,-462.65 50.34,-455.22 48,-448 37,-414.07 37.07,-370.77 37.64,-353.32"/>
<polygon fill="#0ab046" stroke="#0ab046" points="39.4,-353.19 37.85,-348.12 35.9,-353.04 39.4,-353.19"/>
</a>
</g>
</g>
<!-- 8_0 -->
<!-- s2_league4_game2_03_stac_1399316520&#45;&gt;8_0 -->
<!-- s2_league4_game2_03_stac_1399316520&#45;&gt;s2_league4_game2_03_stac_1399316523 -->
<!-- 9_0 -->
<!-- s2_league4_game2_03_stac_1399316523&#45;&gt;9_0 -->
<!-- s2_league4_game2_03_stac_1399316526 -->
<g id="node19" class="node">
<title>s2_league4_game2_03_stac_1399316526</title>
<g id="a_node19"><a xlink:title="10 &#160;somdechn &#160;Ho... no..">
<ellipse fill="black" stroke="black" cx="59" cy="-394.5" rx="3.5" ry="3.5"/>
</a>
</g>
</g>
<!-- s2_league4_game2_03_stac_1399316523&#45;&gt;s2_league4_game2_03_stac_1399316526 -->
<g id="edge41" class="edge">
<title>s2_league4_game2_03_stac_1399316523&#45;&gt;s2_league4_game2_03_stac_1399316526</title>
<g id="a_edge41"><a xlink:title="ContrastCorrection">
<path fill="none" stroke="#ff7ecf" d="M59,-415.68C59,-412.58 59,-407.47 59,-403.16"/>
<polygon fill="#ff7ecf" stroke="#ff7ecf" points="60.75,-403.06 59,-398.06 57.25,-403.06 60.75,-403.06"/>
</a>
</g>
</g>
<!-- 10_0 -->
<!-- s2_league4_game2_03_stac_1399316526&#45;&gt;10_0 -->
<!-- s2_league4_game2_03_stac_1399316526&#45;&gt;s2_league4_game2_03_stac_1399316529 -->
<g id="edge42" class="edge">
<title>s2_league4_game2_03_stac_1399316526&#45;&gt;s2_league4_game2_03_stac_1399316529</title>
<g id="a_edge42"><a xlink:title="ExplanationResult">
<path fill="none" stroke="#a62139" d="M60.18,-391.04C61.71,-387.84 64.44,-382.12 66.64,-377.53"/>
<polygon fill="#a62139" stroke="#a62139" points="68.29,-378.14 68.86,-372.87 65.13,-376.63 68.29,-378.14"/>
</a>
</g>
</g>
<!-- 11_0 -->
<!-- s2_league4_game2_03_stac_1399316529&#45;&gt;11_0 -->
<!-- s2_league4_game2_03_stac_1399316529&#45;&gt;s2_league4_game2_03_stac_1399316532 -->
<!-- s2_league4_game2_03_stac_1399316540 -->
<g id="node23" class="node">
<title>s2_league4_game2_03_stac_1399316540</title>
<g id="a_node23"><a xlink:title="14 &#160;ztime &#160;sorry">
<ellipse fill="black" stroke="black" cx="41" cy="-294.5" rx="3.5" ry="3.5"/>
</a>
</g>
</g>
<!-- 14_0 -->
<!-- s2_league4_game2_03_stac_1399316540&#45;&gt;14_0 -->
<!-- s2_league4_game2_03_stac_1399316543 -->
<g id="node25" class="node">
<title>s2_league4_game2_03_stac_1399316543</title>
<g id="a_node25"><a xlink:title="15 &#160;ztime &#160;how about 2 wheat.. for 1 wood?">
<ellipse fill="black" stroke="black" cx="30" cy="-269.5" rx="3.5" ry="3.5"/>
</a>
</g>
</g>
<!-- s2_league4_game2_03_stac_1399316540&#45;&gt;s2_league4_game2_03_stac_1399316543 -->
<g id="edge48" class="edge">
<title>s2_league4_game2_03_stac_1399316540&#45;&gt;s2_league4_game2_03_stac_1399316543</title>
<g id="a_edge48"><a xlink:title="ParallNarrContinuationbackground">
<path fill="none" stroke="#0ab046" d="M39.82,-291.04C38.29,-287.84 35.56,-282.12 33.36,-277.53"/>
<polygon fill="#0ab046" stroke="#0ab046" points="34.87,-276.63 31.14,-272.87 31.71,-278.14 34.87,-276.63"/>
</a>
</g>
</g>
<!-- 15_0 -->
<!-- s2_league4_game2_03_stac_1399316543&#45;&gt;15_0 -->
<!-- s2_league4_game2_03_stac_1399316546 -->
<g id="node27" class="node">
<title>s2_league4_game2_03_stac_1399316546</title>
<g id="a_node27"><a xlink:title="16 &#160;somdechn &#160;Sorry...">
<ellipse fill="black" stroke="black" cx="30" cy="-244.5" rx="3.5" ry="3.5"/>
</a>
</g>
</g>
<!-- s2_league4_game2_03_stac_1399316543&#45;&gt;s2_league4_game2_03_stac_1399316546 -->
<g id="edge49" class="edge">
<title>s2_league4_game2_03_stac_1399316543&#45;&gt;s2_league4_game2_03_stac_1399316546</title>
<g id="a_edge49"><a xlink:title="Question_answer_pair">
<path fill="none" stroke="#12ffff" d="M30,-265.68C30,-262.58 30,-257.47 30,-253.16"/>
<polygon fill="#12ffff" stroke="#12ffff" points="31.75,-253.06 30,-248.06 28.25,-253.06 31.75,-253.06"/>
</a>
</g>
</g>
<!-- 16_0 -->
<!-- s2_league4_game2_03_stac_1399316546&#45;&gt;16_0 -->
<!-- s2_league4_game2_03_stac_1399316549 -->
<g id="node29" class="node">
<title>s2_league4_game2_03_stac_1399316549</title>
<g id="a_node29"><a xlink:title="17 &#160;ztime &#160;how about 1 ore and 1 wheat for wood">
<ellipse fill="black" stroke="black" cx="43" cy="-219.5" rx="3.5" ry="3.5"/>
</a>
</g>
</g>
<!-- s2_league4_game2_03_stac_1399316546&#45;&gt;s2_league4_game2_03_stac_1399316549 -->
<g id="edge50" class="edge">
<title>s2_league4_game2_03_stac_1399316546&#45;&gt;s2_league4_game2_03_stac_1399316549</title>
<g id="a_edge50"><a xlink:title="Q_Elab">
<path fill="none" stroke="#0d20ff" d="M31.39,-241.04C33.24,-237.77 36.57,-231.87 39.2,-227.23"/>
<polygon fill="#0d20ff" stroke="#0d20ff" points="40.72,-228.09 41.66,-222.87 37.67,-226.37 40.72,-228.09"/>
</a>
</g>
</g>
<!-- s2_league4_game2_03_stac_1399316552 -->
<g id="node31" class="node">
<title>s2_league4_game2_03_stac_1399316552</title>
<g id="a_node31"><a xlink:title="18 &#160;ztime &#160;ok...">
<ellipse fill="black" stroke="black" cx="20" cy="-194.5" rx="3.5" ry="3.5"/>
</a>
</g>
</g>
<!-- s2_league4_game2_03_stac_1399316546&#45;&gt;s2_league4_game2_03_stac_1399316552 -->
<g id="edge51" class="edge">
<title>s2_league4_game2_03_stac_1399316546&#45;&gt;s2_league4_game2_03_stac_1399316552</title>
<g id="a_edge51"><a xlink:title="Acknowledgement">
<path fill="none" stroke="#12ffff" d="M29.46,-240.92C28.01,-233.95 23.97,-214.55 21.66,-203.49"/>
<polygon fill="#12ffff" stroke="#12ffff" points="23.32,-202.87 20.59,-198.33 19.9,-203.58 23.32,-202.87"/>
</a>
</g>
</g>
<!-- 17_0 -->
<!-- s2_league4_game2_03_stac_1399316549&#45;&gt;17_0 -->
<!-- s2_league4_game2_03_stac_1399316549&#45;&gt;s2_league4_game2_03_stac_1399316552 -->
<!-- s2_league4_game2_03_stac_1399316555 -->
<g id="node33" class="node">
<title>s2_league4_game2_03_stac_1399316555</title>
<g id="a_node33"><a xlink:title="19 &#160;somdechn &#160;Still can&#39;t do it..">
<ellipse fill="black" stroke="black" cx="48" cy="-169.5" rx="3.5" ry="3.5"/>
</a>
</g>
</g>
<!-- s2_league4_game2_03_stac_1399316549&#45;&gt;s2_league4_game2_03_stac_1399316555 -->
<g id="edge52" class="edge">
<title>s2_league4_game2_03_stac_1399316549&#45;&gt;s2_league4_game2_03_stac_1399316555</title>
<g id="a_edge52"><a xlink:title="Question_answer_pair">
<path fill="none" stroke="#12ffff" d="M43.27,-215.92C43.99,-208.95 46.02,-189.55 47.17,-178.49"/>
<polygon fill="#12ffff" stroke="#12ffff" points="48.93,-178.49 47.7,-173.33 45.45,-178.12 48.93,-178.49"/>
</a>
</g>
</g>
<!-- s2_league4_game2_03_stac_1399316558 -->
<g id="node35" class="node">
<title>s2_league4_game2_03_stac_1399316558</title>
<g id="a_node35"><a xlink:title="20 &#160;Shawnus &#160;you want 1 wood?">
<ellipse fill="black" stroke="black" cx="48" cy="-144.5" rx="3.5" ry="3.5"/>
</a>
</g>
</g>
<!-- s2_league4_game2_03_stac_1399316549&#45;&gt;s2_league4_game2_03_stac_1399316558 -->
<g id="edge53" class="edge">
<title>s2_league4_game2_03_stac_1399316549&#45;&gt;s2_league4_game2_03_stac_1399316558</title>
<g id="a_edge53"><a xlink:title="Clarification_question">
<path fill="none" stroke="#ff40d1" d="M46.38,-217.77C53.86,-215.95 71.77,-210.44 79,-198 89.24,-180.38 66.55,-159.58 54.67,-150.34"/>
<polygon fill="#ff40d1" stroke="#ff40d1" points="55.42,-148.71 50.36,-147.13 53.32,-151.52 55.42,-148.71"/>
</a>
</g>
</g>
<!-- 18_0 -->
<!-- s2_league4_game2_03_stac_1399316552&#45;&gt;18_0 -->
<!-- s2_league4_game2_03_stac_1399316552&#45;&gt;s2_league4_game2_03_stac_1399316555 -->
<!-- 19_0 -->
<!-- s2_league4_game2_03_stac_1399316555&#45;&gt;19_0 -->
<!-- s2_league4_game2_03_stac_1399316555&#45;&gt;s2_league4_game2_03_stac_1399316558 -->
<!-- 20_0 -->
<!-- s2_league4_game2_03_stac_1399316558&#45;&gt;20_0 -->
<!-- s2_league4_game2_03_stac_1399316561 -->
<g id="node49" class="node">
<title>s2_league4_game2_03_stac_1399316561</title>
<g id="a_node49"><a xlink:title="21 &#160;ztime &#160;i did..">
<ellipse fill="black" stroke="black" cx="48" cy="-119.5" rx="3.5" ry="3.5"/>
</a>
</g>
</g>
<!-- s2_league4_game2_03_stac_1399316558&#45;&gt;s2_league4_game2_03_stac_1399316561 -->
<g id="edge54" class="edge">
<title>s2_league4_game2_03_stac_1399316558&#45;&gt;s2_league4_game2_03_stac_1399316561</title>
<g id="a_edge54"><a xlink:title="Question_answer_pair">
<path fill="none" stroke="#12ffff" d="M48,-140.68C48,-137.58 48,-132.47 48,-128.16"/>
<polygon fill="#12ffff" stroke="#12ffff" points="49.75,-128.06 48,-123.06 46.25,-128.06 49.75,-128.06"/>
</a>
</g>
</g>
<!-- s2_league4_game2_03_stac_1399316565 -->
<g id="node37" class="node">
<title>s2_league4_game2_03_stac_1399316565</title>
<g id="a_node37"><a xlink:title="22 &#160;Shawnus &#160;damn">
<ellipse fill="black" stroke="black" cx="48" cy="-94.5" rx="3.5" ry="3.5"/>
</a>
</g>
</g>
<!-- 22_0 -->
<!-- s2_league4_game2_03_stac_1399316565&#45;&gt;22_0 -->
<!-- s2_league4_game2_03_stac_1399316568 -->
<g id="node39" class="node">
<title>s2_league4_game2_03_stac_1399316568</title>
<g id="a_node39"><a xlink:title="23 &#160;Shawnus &#160;haha">
<ellipse fill="black" stroke="black" cx="48" cy="-69.5" rx="3.5" ry="3.5"/>
</a>
</g>
</g>
<!-- s2_league4_game2_03_stac_1399316565&#45;&gt;s2_league4_game2_03_stac_1399316568 -->
<g id="edge57" class="edge">
<title>s2_league4_game2_03_stac_1399316565&#45;&gt;s2_league4_game2_03_stac_1399316568</title>
<g id="a_edge57"><a xlink:title="Comment">
<path fill="none" stroke="#ff8200" d="M48,-90.68C48,-87.58 48,-82.47 48,-78.16"/>
<polygon fill="#ff8200" stroke="#ff8200" points="49.75,-78.06 48,-73.06 46.25,-78.06 49.75,-78.06"/>
</a>
</g>
</g>
<!-- s2_league4_game2_03_stac_1399316572 -->
<g id="node41" class="node">
<title>s2_league4_game2_03_stac_1399316572</title>
<g id="a_node41"><a xlink:title="24 &#160;ztime &#160;yer... expensive banks.. just like real life..">
<ellipse fill="black" stroke="black" cx="31" cy="-44.5" rx="3.5" ry="3.5"/>
</a>
</g>
</g>
<!-- s2_league4_game2_03_stac_1399316565&#45;&gt;s2_league4_game2_03_stac_1399316572 -->
<g id="edge58" class="edge">
<title>s2_league4_game2_03_stac_1399316565&#45;&gt;s2_league4_game2_03_stac_1399316572</title>
<g id="a_edge58"><a xlink:title="Comment">
<path fill="none" stroke="#ff8200" d="M46.31,-91.24C43.68,-87.59 38.64,-80.12 36,-73 33.62,-66.58 32.35,-58.89 31.68,-53.28"/>
<polygon fill="#ff8200" stroke="#ff8200" points="33.41,-52.96 31.17,-48.16 29.93,-53.31 33.41,-52.96"/>
</a>
</g>
</g>
<!-- 23_0 -->
<!-- s2_league4_game2_03_stac_1399316568&#45;&gt;23_0 -->
<!-- s2_league4_game2_03_stac_1399316568&#45;&gt;s2_league4_game2_03_stac_1399316572 -->
<!-- 24_0 -->
<!-- s2_league4_game2_03_stac_1399316572&#45;&gt;24_0 -->
<!-- s2_league4_game2_03_stac_1399316575 -->
<g id="node43" class="node">
<title>s2_league4_game2_03_stac_1399316575</title>
<g id="a_node43"><a xlink:title="25 &#160;Shawnus &#160;indeed it is">
<ellipse fill="black" stroke="black" cx="31" cy="-19.5" rx="3.5" ry="3.5"/>
</a>
</g>
</g>
<!-- s2_league4_game2_03_stac_1399316572&#45;&gt;s2_league4_game2_03_stac_1399316575 -->
<g id="edge59" class="edge">
<title>s2_league4_game2_03_stac_1399316572&#45;&gt;s2_league4_game2_03_stac_1399316575</title>
<g id="a_edge59"><a xlink:title="Acknowledgement">
<path fill="none" stroke="#12ffff" d="M31,-40.68C31,-37.58 31,-32.47 31,-28.16"/>
<polygon fill="#12ffff" stroke="#12ffff" points="32.75,-28.06 31,-23.06 29.25,-28.06 32.75,-28.06"/>
</a>
</g>
</g>
<!-- 25_0 -->
<!-- s2_league4_game2_03_stac_1399316575&#45;&gt;25_0 -->
<!-- s2_league4_game2_03_stac_1399316533 -->
<g id="node46" class="node">
<title>s2_league4_game2_03_stac_1399316533</title>
<g id="a_node46"><a xlink:title="12 &#160;ztime &#160;I&#39;ll give wheat...">
<ellipse fill="black" stroke="black" cx="63" cy="-344.5" rx="3.5" ry="3.5"/>
</a>
</g>
</g>
<!-- s2_league4_game2_03_stac_1399316532&#45;&gt;s2_league4_game2_03_stac_1399316533 -->
<g id="edge43" class="edge">
<title>s2_league4_game2_03_stac_1399316532&#45;&gt;s2_league4_game2_03_stac_1399316533</title>
<g id="a_edge43"><a xlink:title="Elaboration">
<path fill="none" stroke="#a621c7" d="M41.52,-344.5C45.78,-344.5 50.04,-344.5 54.3,-344.5"/>
<polygon fill="#a621c7" stroke="#a621c7" points="54.31,-346.25 59.31,-344.5 54.31,-342.75 54.31,-346.25"/>
</a>
</g>
</g>
<!-- s2_league4_game2_03_stac_1399316536 -->
<g id="node47" class="node">
<title>s2_league4_game2_03_stac_1399316536</title>
<g id="a_node47"><a xlink:title="13 &#160;somdechn &#160;Give me clay">
<ellipse fill="black" stroke="black" cx="38" cy="-319.5" rx="3.5" ry="3.5"/>
</a>
</g>
</g>
<!-- s2_league4_game2_03_stac_1399316532&#45;&gt;s2_league4_game2_03_stac_1399316536 -->
<g id="edge44" class="edge">
<title>s2_league4_game2_03_stac_1399316532&#45;&gt;s2_league4_game2_03_stac_1399316536</title>
<g id="a_edge44"><a xlink:title="Q_Elab">
<path fill="none" stroke="#0d20ff" d="M38,-340.68C38,-337.58 38,-332.47 38,-328.16"/>
<polygon fill="#0d20ff" stroke="#0d20ff" points="39.75,-328.06 38,-323.06 36.25,-328.06 39.75,-328.06"/>
</a>
</g>
</g>
<!-- s2_league4_game2_03_stac_1399316536&#45;&gt;s2_league4_game2_03_stac_1399316540 -->
<g id="edge46" class="edge">
<title>s2_league4_game2_03_stac_1399316536&#45;&gt;s2_league4_game2_03_stac_1399316540</title>
<g id="a_edge46"><a xlink:title="Question_answer_pair">
<path fill="none" stroke="#12ffff" d="M38.37,-315.68C38.77,-312.58 39.44,-307.47 40,-303.16"/>
<polygon fill="#12ffff" stroke="#12ffff" points="41.75,-303.24 40.67,-298.06 38.28,-302.79 41.75,-303.24"/>
</a>
</g>
</g>
<!-- s2_league4_game2_03_stac_1399316536&#45;&gt;s2_league4_game2_03_stac_1399316543 -->
<g id="edge47" class="edge">
<title>s2_league4_game2_03_stac_1399316536&#45;&gt;s2_league4_game2_03_stac_1399316543</title>
<g id="a_edge47"><a xlink:title="Q_Elab">
<path fill="none" stroke="#0d20ff" d="M36.61,-316.21C34.48,-312.53 30.47,-305 29,-298 27.62,-291.41 28.06,-283.73 28.74,-278.17"/>
<polygon fill="#0d20ff" stroke="#0d20ff" points="30.49,-278.32 29.49,-273.11 27.02,-277.8 30.49,-278.32"/>
</a>
</g>
</g>
<!-- s2_league4_game2_03_stac_1399316537 -->
<g id="node48" class="node">
<title>s2_league4_game2_03_stac_1399316537</title>
<g id="a_node48"><a xlink:title="13 &#160;somdechn &#160;and we might have a deal.">
<ellipse fill="black" stroke="black" cx="63" cy="-319.5" rx="3.5" ry="3.5"/>
</a>
</g>
</g>
<!-- s2_league4_game2_03_stac_1399316536&#45;&gt;s2_league4_game2_03_stac_1399316537 -->
<g id="edge45" class="edge">
<title>s2_league4_game2_03_stac_1399316536&#45;&gt;s2_league4_game2_03_stac_1399316537</title>
<g id="a_edge45"><a xlink:title="Conditional">
<path fill="none" stroke="#1c931a" d="M41.52,-319.5C45.78,-319.5 50.04,-319.5 54.3,-319.5"/>
<polygon fill="#1c931a" stroke="#1c931a" points="54.31,-321.25 59.31,-319.5 54.31,-317.75 54.31,-321.25"/>
</a>
</g>
</g>
<!-- s2_league4_game2_03_stac_1399316561&#45;&gt;s2_league4_game2_03_stac_1399316565 -->
<!-- s2_league4_game2_03_stac_1399316562 -->
<g id="node50" class="node">
<title>s2_league4_game2_03_stac_1399316562</title>
<g id="a_node50"><a xlink:title="21 &#160;ztime &#160;but just traded with bank...">
<ellipse fill="black" stroke="black" cx="73" cy="-119.5" rx="3.5" ry="3.5"/>
</a>
</g>
</g>
<!-- s2_league4_game2_03_stac_1399316561&#45;&gt;s2_league4_game2_03_stac_1399316562 -->
<g id="edge55" class="edge">
<title>s2_league4_game2_03_stac_1399316561&#45;&gt;s2_league4_game2_03_stac_1399316562</title>
<g id="a_edge55"><a xlink:title="ContrastCorrection">
<path fill="none" stroke="#ff7ecf" d="M51.52,-119.5C55.78,-119.5 60.04,-119.5 64.3,-119.5"/>
<polygon fill="#ff7ecf" stroke="#ff7ecf" points="64.31,-121.25 69.31,-119.5 64.31,-117.75 64.31,-121.25"/>
</a>
</g>
</g>
<!-- s2_league4_game2_03_stac_1399316562&#45;&gt;s2_league4_game2_03_stac_1399316565 -->
<g id="edge56" class="edge">
<title>s2_league4_game2_03_stac_1399316562&#45;&gt;s2_league4_game2_03_stac_1399316565</title>
<g id="a_edge56"><a xlink:title="Comment">
<path fill="none" stroke="#ff8200" d="M70.69,-116.38C66.92,-112.9 59.3,-105.89 53.93,-100.96"/>
<polygon fill="#ff8200" stroke="#ff8200" points="54.95,-99.52 50.09,-97.42 52.58,-102.09 54.95,-99.52"/>
</a>
</g>
</g>
</g>
</svg>
