<?xml version="1.0" encoding="UTF-8" standalone="no"?>
<!DOCTYPE svg PUBLIC "-//W3C//DTD SVG 1.1//EN"
 "http://www.w3.org/Graphics/SVG/1.1/DTD/svg11.dtd">
<!-- Generated by graphviz version 3.0.0 (20220226.1711)
 -->
<!-- Title: 3_s2_league4_game2_759 Pages: 1 -->
<svg width="93pt" height="395pt"
 viewBox="0.00 0.00 93.00 395.00" xmlns="http://www.w3.org/2000/svg" xmlns:xlink="http://www.w3.org/1999/xlink">
<g id="graph0" class="graph" transform="scale(1 1) rotate(0) translate(4 391)">
<title>3_s2_league4_game2_759</title>
<polygon fill="white" stroke="transparent" points="-4,4 -4,-391 89,-391 89,4 -4,4"/>
<g id="clust1" class="cluster">
<title>cluster_3_s2_league4_game2_759</title>
<polygon fill="none" stroke="black" points="8,-8 8,-379 77,-379 77,-8 8,-8"/>
<text text-anchor="middle" x="26.5" y="-363.8" font-family="Times,serif" font-size="14.00">759</text>
</g>
<!-- s2_league4_game2_03_stac_1399316579 -->
<g id="node1" class="node">
<title>s2_league4_game2_03_stac_1399316579</title>
<g id="a_node1"><a xlink:title="1 &#160;Shawnus &#160;so..can anyone trade me a sheep for wood?">
<ellipse fill="black" stroke="black" cx="30" cy="-344.5" rx="3.5" ry="3.5"/>
</a>
</g>
</g>
<!-- 1_0 -->
<!-- s2_league4_game2_03_stac_1399316579&#45;&gt;1_0 -->
<!-- s2_league4_game2_03_stac_1399316582 -->
<g id="node3" class="node">
<title>s2_league4_game2_03_stac_1399316582</title>
<g id="a_node3"><a xlink:title="2 &#160;ztime &#160;you want sheep ?">
<ellipse fill="black" stroke="black" cx="20" cy="-319.5" rx="3.5" ry="3.5"/>
</a>
</g>
</g>
<!-- s2_league4_game2_03_stac_1399316579&#45;&gt;s2_league4_game2_03_stac_1399316582 -->
<g id="edge17" class="edge">
<title>s2_league4_game2_03_stac_1399316579&#45;&gt;s2_league4_game2_03_stac_1399316582</title>
<g id="a_edge17"><a xlink:title="Clarification_question">
<path fill="none" stroke="#ff40d1" d="M28.93,-341.04C27.54,-337.84 25.05,-332.12 23.06,-327.53"/>
<polygon fill="#ff40d1" stroke="#ff40d1" points="24.63,-326.76 21.03,-322.87 21.42,-328.16 24.63,-326.76"/>
</a>
</g>
</g>
<!-- s2_league4_game2_03_stac_1399316592 -->
<g id="node7" class="node">
<title>s2_league4_game2_03_stac_1399316592</title>
<g id="a_node7"><a xlink:title="5 &#160;somdechn &#160;No sheep here mate..">
<ellipse fill="black" stroke="black" cx="40" cy="-244.5" rx="3.5" ry="3.5"/>
</a>
</g>
</g>
<!-- s2_league4_game2_03_stac_1399316579&#45;&gt;s2_league4_game2_03_stac_1399316592 -->
<g id="edge18" class="edge">
<title>s2_league4_game2_03_stac_1399316579&#45;&gt;s2_league4_game2_03_stac_1399316592</title>
<g id="a_edge18"><a xlink:title="Question_answer_pair">
<path fill="none" stroke="#12ffff" d="M33.01,-342.39C39.08,-339.95 52.66,-333.53 58,-323 69.46,-300.41 66.93,-289.71 58,-266 55.69,-259.88 50.64,-254.4 46.47,-250.65"/>
<polygon fill="#12ffff" stroke="#12ffff" points="47.43,-249.17 42.47,-247.31 45.19,-251.85 47.43,-249.17"/>
</a>
</g>
</g>
<!-- 2_0 -->
<!-- s2_league4_game2_03_stac_1399316582&#45;&gt;2_0 -->
<!-- s2_league4_game2_03_stac_1399316585 -->
<g id="node5" class="node">
<title>s2_league4_game2_03_stac_1399316585</title>
<g id="a_node5"><a xlink:title="3 &#160;Shawnus &#160;yes">
<ellipse fill="black" stroke="black" cx="20" cy="-294.5" rx="3.5" ry="3.5"/>
</a>
</g>
</g>
<!-- s2_league4_game2_03_stac_1399316582&#45;&gt;s2_league4_game2_03_stac_1399316585 -->
<g id="edge19" class="edge">
<title>s2_league4_game2_03_stac_1399316582&#45;&gt;s2_league4_game2_03_stac_1399316585</title>
<g id="a_edge19"><a xlink:title="Question_answer_pair">
<path fill="none" stroke="#12ffff" d="M20,-315.68C20,-312.58 20,-307.47 20,-303.16"/>
<polygon fill="#12ffff" stroke="#12ffff" points="21.75,-303.06 20,-298.06 18.25,-303.06 21.75,-303.06"/>
</a>
</g>
</g>
<!-- 3_0 -->
<!-- s2_league4_game2_03_stac_1399316585&#45;&gt;3_0 -->
<!-- s2_league4_game2_03_stac_1399316588 -->
<g id="node23" class="node">
<title>s2_league4_game2_03_stac_1399316588</title>
<g id="a_node23"><a xlink:title="4 &#160;ztime &#160;sorry...">
<ellipse fill="black" stroke="black" cx="20" cy="-269.5" rx="3.5" ry="3.5"/>
</a>
</g>
</g>
<!-- s2_league4_game2_03_stac_1399316585&#45;&gt;s2_league4_game2_03_stac_1399316588 -->
<g id="edge20" class="edge">
<title>s2_league4_game2_03_stac_1399316585&#45;&gt;s2_league4_game2_03_stac_1399316588</title>
<g id="a_edge20"><a xlink:title="Question_answer_pair">
<path fill="none" stroke="#12ffff" d="M20,-290.68C20,-287.58 20,-282.47 20,-278.16"/>
<polygon fill="#12ffff" stroke="#12ffff" points="21.75,-278.06 20,-273.06 18.25,-278.06 21.75,-278.06"/>
</a>
</g>
</g>
<!-- 5_0 -->
<!-- s2_league4_game2_03_stac_1399316592&#45;&gt;5_0 -->
<!-- s2_league4_game2_03_stac_1399316595 -->
<g id="node9" class="node">
<title>s2_league4_game2_03_stac_1399316595</title>
<g id="a_node9"><a xlink:title="6 &#160;ztime &#160;look outside..">
<ellipse fill="black" stroke="black" cx="40" cy="-219.5" rx="3.5" ry="3.5"/>
</a>
</g>
</g>
<!-- s2_league4_game2_03_stac_1399316592&#45;&gt;s2_league4_game2_03_stac_1399316595 -->
<g id="edge23" class="edge">
<title>s2_league4_game2_03_stac_1399316592&#45;&gt;s2_league4_game2_03_stac_1399316595</title>
<g id="a_edge23"><a xlink:title="Comment">
<path fill="none" stroke="#ff8200" d="M40,-240.68C40,-237.58 40,-232.47 40,-228.16"/>
<polygon fill="#ff8200" stroke="#ff8200" points="41.75,-228.06 40,-223.06 38.25,-228.06 41.75,-228.06"/>
</a>
</g>
</g>
<!-- 6_0 -->
<!-- s2_league4_game2_03_stac_1399316595&#45;&gt;6_0 -->
<!-- s2_league4_game2_03_stac_1399316599 -->
<g id="node11" class="node">
<title>s2_league4_game2_03_stac_1399316599</title>
<g id="a_node11"><a xlink:title="7 &#160;somdechn &#160;Where is the other 4???">
<ellipse fill="black" stroke="black" cx="40" cy="-194.5" rx="3.5" ry="3.5"/>
</a>
</g>
</g>
<!-- s2_league4_game2_03_stac_1399316595&#45;&gt;s2_league4_game2_03_stac_1399316599 -->
<!-- 7_0 -->
<!-- s2_league4_game2_03_stac_1399316599&#45;&gt;7_0 -->
<!-- s2_league4_game2_03_stac_1399316603 -->
<g id="node13" class="node">
<title>s2_league4_game2_03_stac_1399316603</title>
<g id="a_node13"><a xlink:title="8 &#160;ztime &#160;under robber">
<ellipse fill="black" stroke="black" cx="40" cy="-169.5" rx="3.5" ry="3.5"/>
</a>
</g>
</g>
<!-- s2_league4_game2_03_stac_1399316599&#45;&gt;s2_league4_game2_03_stac_1399316603 -->
<g id="edge24" class="edge">
<title>s2_league4_game2_03_stac_1399316599&#45;&gt;s2_league4_game2_03_stac_1399316603</title>
<g id="a_edge24"><a xlink:title="Question_answer_pair">
<path fill="none" stroke="#12ffff" d="M40,-190.68C40,-187.58 40,-182.47 40,-178.16"/>
<polygon fill="#12ffff" stroke="#12ffff" points="41.75,-178.06 40,-173.06 38.25,-178.06 41.75,-178.06"/>
</a>
</g>
</g>
<!-- 8_0 -->
<!-- s2_league4_game2_03_stac_1399316603&#45;&gt;8_0 -->
<!-- s2_league4_game2_03_stac_1399316606 -->
<g id="node15" class="node">
<title>s2_league4_game2_03_stac_1399316606</title>
<g id="a_node15"><a xlink:title="9 &#160;ztime &#160;and top left">
<ellipse fill="black" stroke="black" cx="20" cy="-144.5" rx="3.5" ry="3.5"/>
</a>
</g>
</g>
<!-- s2_league4_game2_03_stac_1399316603&#45;&gt;s2_league4_game2_03_stac_1399316606 -->
<g id="edge25" class="edge">
<title>s2_league4_game2_03_stac_1399316603&#45;&gt;s2_league4_game2_03_stac_1399316606</title>
<g id="a_edge25"><a xlink:title="ParallNarrContinuationbackground">
<path fill="none" stroke="#0ab046" d="M38.15,-166.38C35.31,-163.11 29.75,-156.71 25.52,-151.85"/>
<polygon fill="#0ab046" stroke="#0ab046" points="26.74,-150.59 22.14,-147.96 24.1,-152.88 26.74,-150.59"/>
</a>
</g>
</g>
<!-- s2_league4_game2_03_stac_1399316609 -->
<g id="node25" class="node">
<title>s2_league4_game2_03_stac_1399316609</title>
<g id="a_node25"><a xlink:title="10 &#160;somdechn &#160;Yes....">
<ellipse fill="black" stroke="black" cx="30" cy="-119.5" rx="3.5" ry="3.5"/>
</a>
</g>
</g>
<!-- s2_league4_game2_03_stac_1399316603&#45;&gt;s2_league4_game2_03_stac_1399316609 -->
<g id="edge26" class="edge">
<title>s2_league4_game2_03_stac_1399316603&#45;&gt;s2_league4_game2_03_stac_1399316609</title>
<g id="a_edge26"><a xlink:title="Acknowledgement">
<path fill="none" stroke="#12ffff" d="M42.58,-166.84C48.71,-162.68 63.27,-151.38 58,-141 53.83,-132.77 44.63,-127.05 37.91,-123.78"/>
<polygon fill="#12ffff" stroke="#12ffff" points="38.29,-122.04 33.01,-121.61 36.88,-125.24 38.29,-122.04"/>
</a>
</g>
</g>
<!-- 9_0 -->
<!-- s2_league4_game2_03_stac_1399316606&#45;&gt;9_0 -->
<!-- s2_league4_game2_03_stac_1399316606&#45;&gt;s2_league4_game2_03_stac_1399316609 -->
<!-- s2_league4_game2_03_stac_1399316613 -->
<g id="node17" class="node">
<title>s2_league4_game2_03_stac_1399316613</title>
<g id="a_node17"><a xlink:title="11 &#160;ztime &#160;ahhh">
<ellipse fill="black" stroke="black" cx="30" cy="-94.5" rx="3.5" ry="3.5"/>
</a>
</g>
</g>
<!-- 11_0 -->
<!-- s2_league4_game2_03_stac_1399316613&#45;&gt;11_0 -->
<!-- s2_league4_game2_03_stac_1399316616 -->
<g id="node19" class="node">
<title>s2_league4_game2_03_stac_1399316616</title>
<g id="a_node19"><a xlink:title="12 &#160;Shawnus &#160;still no sheep out there is there?">
<ellipse fill="black" stroke="black" cx="30" cy="-69.5" rx="3.5" ry="3.5"/>
</a>
</g>
</g>
<!-- s2_league4_game2_03_stac_1399316613&#45;&gt;s2_league4_game2_03_stac_1399316616 -->
<!-- 12_0 -->
<!-- s2_league4_game2_03_stac_1399316616&#45;&gt;12_0 -->
<!-- s2_league4_game2_03_stac_1399316623 -->
<g id="node21" class="node">
<title>s2_league4_game2_03_stac_1399316623</title>
<g id="a_node21"><a xlink:title="14 &#160;somdechn &#160;Good one Shawnus...">
<ellipse fill="black" stroke="black" cx="30" cy="-19.5" rx="3.5" ry="3.5"/>
</a>
</g>
</g>
<!-- s2_league4_game2_03_stac_1399316616&#45;&gt;s2_league4_game2_03_stac_1399316623 -->
<g id="edge30" class="edge">
<title>s2_league4_game2_03_stac_1399316616&#45;&gt;s2_league4_game2_03_stac_1399316623</title>
<g id="a_edge30"><a xlink:title="Comment">
<path fill="none" stroke="#ff8200" d="M29.6,-65.92C28.9,-61.06 27.55,-50.18 28,-41 28.21,-36.78 28.65,-32.09 29.06,-28.26"/>
<polygon fill="#ff8200" stroke="#ff8200" points="30.82,-28.32 29.66,-23.15 27.34,-27.91 30.82,-28.32"/>
</a>
</g>
</g>
<!-- s2_league4_game2_03_stac_1399316619 -->
<g id="node27" class="node">
<title>s2_league4_game2_03_stac_1399316619</title>
<g id="a_node27"><a xlink:title="13 &#160;ztime &#160;nope..">
<ellipse fill="black" stroke="black" cx="40" cy="-44.5" rx="3.5" ry="3.5"/>
</a>
</g>
</g>
<!-- s2_league4_game2_03_stac_1399316616&#45;&gt;s2_league4_game2_03_stac_1399316619 -->
<g id="edge29" class="edge">
<title>s2_league4_game2_03_stac_1399316616&#45;&gt;s2_league4_game2_03_stac_1399316619</title>
<g id="a_edge29"><a xlink:title="Question_answer_pair">
<path fill="none" stroke="#12ffff" d="M31.07,-66.04C32.46,-62.84 34.95,-57.12 36.94,-52.53"/>
<polygon fill="#12ffff" stroke="#12ffff" points="38.58,-53.16 38.97,-47.87 35.37,-51.76 38.58,-53.16"/>
</a>
</g>
</g>
<!-- 14_0 -->
<!-- s2_league4_game2_03_stac_1399316623&#45;&gt;14_0 -->
<!-- s2_league4_game2_03_stac_1399316588&#45;&gt;s2_league4_game2_03_stac_1399316592 -->
<!-- s2_league4_game2_03_stac_1399316589 -->
<g id="node24" class="node">
<title>s2_league4_game2_03_stac_1399316589</title>
<g id="a_node24"><a xlink:title="4 &#160;ztime &#160;nz is the place to go!">
<ellipse fill="black" stroke="black" cx="45" cy="-269.5" rx="3.5" ry="3.5"/>
</a>
</g>
</g>
<!-- s2_league4_game2_03_stac_1399316588&#45;&gt;s2_league4_game2_03_stac_1399316589 -->
<g id="edge21" class="edge">
<title>s2_league4_game2_03_stac_1399316588&#45;&gt;s2_league4_game2_03_stac_1399316589</title>
<g id="a_edge21"><a xlink:title="ContrastCorrection">
<path fill="none" stroke="#ff7ecf" d="M23.52,-269.5C27.78,-269.5 32.04,-269.5 36.3,-269.5"/>
<polygon fill="#ff7ecf" stroke="#ff7ecf" points="36.31,-271.25 41.31,-269.5 36.31,-267.75 36.31,-271.25"/>
</a>
</g>
</g>
<!-- s2_league4_game2_03_stac_1399316589&#45;&gt;s2_league4_game2_03_stac_1399316592 -->
<g id="edge22" class="edge">
<title>s2_league4_game2_03_stac_1399316589&#45;&gt;s2_league4_game2_03_stac_1399316592</title>
<g id="a_edge22"><a xlink:title="ContrastCorrection">
<path fill="none" stroke="#ff7ecf" d="M44.46,-266.04C43.8,-262.97 42.63,-257.6 41.66,-253.12"/>
<polygon fill="#ff7ecf" stroke="#ff7ecf" points="43.35,-252.67 40.58,-248.16 39.93,-253.41 43.35,-252.67"/>
</a>
</g>
</g>
<!-- s2_league4_game2_03_stac_1399316609&#45;&gt;s2_league4_game2_03_stac_1399316613 -->
<g id="edge28" class="edge">
<title>s2_league4_game2_03_stac_1399316609&#45;&gt;s2_league4_game2_03_stac_1399316613</title>
<g id="a_edge28"><a xlink:title="Comment">
<path fill="none" stroke="#ff8200" d="M30,-115.68C30,-112.58 30,-107.47 30,-103.16"/>
<polygon fill="#ff8200" stroke="#ff8200" points="31.75,-103.06 30,-98.06 28.25,-103.06 31.75,-103.06"/>
</a>
</g>
</g>
<!-- s2_league4_game2_03_stac_1399316610 -->
<g id="node26" class="node">
<title>s2_league4_game2_03_stac_1399316610</title>
<g id="a_node26"><a xlink:title="10 &#160;somdechn &#160;I know.....">
<ellipse fill="black" stroke="black" cx="55" cy="-119.5" rx="3.5" ry="3.5"/>
</a>
</g>
</g>
<!-- s2_league4_game2_03_stac_1399316609&#45;&gt;s2_league4_game2_03_stac_1399316610 -->
<g id="edge27" class="edge">
<title>s2_league4_game2_03_stac_1399316609&#45;&gt;s2_league4_game2_03_stac_1399316610</title>
<g id="a_edge27"><a xlink:title="ParallNarrContinuationbackground">
<path fill="none" stroke="#0ab046" d="M33.52,-119.5C37.78,-119.5 42.04,-119.5 46.3,-119.5"/>
<polygon fill="#0ab046" stroke="#0ab046" points="46.31,-121.25 51.31,-119.5 46.31,-117.75 46.31,-121.25"/>
</a>
</g>
</g>
<!-- s2_league4_game2_03_stac_1399316619&#45;&gt;s2_league4_game2_03_stac_1399316623 -->
<!-- s2_league4_game2_03_stac_1399316620 -->
<g id="node28" class="node">
<title>s2_league4_game2_03_stac_1399316620</title>
<g id="a_node28"><a xlink:title="13 &#160;ztime &#160;sheep free here">
<ellipse fill="black" stroke="black" cx="65" cy="-44.5" rx="3.5" ry="3.5"/>
</a>
</g>
</g>
<!-- s2_league4_game2_03_stac_1399316619&#45;&gt;s2_league4_game2_03_stac_1399316620 -->
<g id="edge31" class="edge">
<title>s2_league4_game2_03_stac_1399316619&#45;&gt;s2_league4_game2_03_stac_1399316620</title>
<g id="a_edge31"><a xlink:title="Elaboration">
<path fill="none" stroke="#a621c7" d="M43.52,-44.5C47.78,-44.5 52.04,-44.5 56.3,-44.5"/>
<polygon fill="#a621c7" stroke="#a621c7" points="56.31,-46.25 61.31,-44.5 56.31,-42.75 56.31,-46.25"/>
</a>
</g>
</g>
</g>
</svg>
