<?xml version="1.0" encoding="UTF-8" standalone="no"?>
<!DOCTYPE svg PUBLIC "-//W3C//DTD SVG 1.1//EN"
 "http://www.w3.org/Graphics/SVG/1.1/DTD/svg11.dtd">
<!-- Generated by graphviz version 3.0.0 (20220226.1711)
 -->
<!-- Title: 6_s2_league4_game2_772 Pages: 1 -->
<svg width="134pt" height="245pt"
 viewBox="0.00 0.00 134.00 245.00" xmlns="http://www.w3.org/2000/svg" xmlns:xlink="http://www.w3.org/1999/xlink">
<g id="graph0" class="graph" transform="scale(1 1) rotate(0) translate(4 241)">
<title>6_s2_league4_game2_772</title>
<polygon fill="white" stroke="transparent" points="-4,4 -4,-241 130,-241 130,4 -4,4"/>
<g id="clust1" class="cluster">
<title>cluster_6_s2_league4_game2_772</title>
<polygon fill="none" stroke="black" points="8,-8 8,-229 118,-229 118,-8 8,-8"/>
<text text-anchor="middle" x="26.5" y="-213.8" font-family="Times,serif" font-size="14.00">772</text>
</g>
<!-- s2_league4_game2_06_stac_1399316513 -->
<g id="node1" class="node">
<title>s2_league4_game2_06_stac_1399316513</title>
<g id="a_node1"><a xlink:title="1 &#160;ztime &#160;hahahah">
<ellipse fill="black" stroke="black" cx="53" cy="-194.5" rx="3.5" ry="3.5"/>
</a>
</g>
</g>
<!-- 1_0 -->
<!-- s2_league4_game2_06_stac_1399316513&#45;&gt;1_0 -->
<!-- s2_league4_game2_06_stac_1399316516 -->
<g id="node3" class="node">
<title>s2_league4_game2_06_stac_1399316516</title>
<g id="a_node3"><a xlink:title="2 &#160;ztime &#160;this is kinda weird...">
<ellipse fill="black" stroke="black" cx="20" cy="-169.5" rx="3.5" ry="3.5"/>
</a>
</g>
</g>
<!-- s2_league4_game2_06_stac_1399316513&#45;&gt;s2_league4_game2_06_stac_1399316516 -->
<g id="edge13" class="edge">
<title>s2_league4_game2_06_stac_1399316513&#45;&gt;s2_league4_game2_06_stac_1399316516</title>
<g id="a_edge13"><a xlink:title="Elaboration">
<path fill="none" stroke="#a621c7" d="M50.41,-191.7C45.37,-188.18 34.11,-180.33 26.8,-175.24"/>
<polygon fill="#a621c7" stroke="#a621c7" points="27.59,-173.66 22.49,-172.23 25.59,-176.53 27.59,-173.66"/>
</a>
</g>
</g>
<!-- s2_league4_game2_06_stac_1399316519 -->
<g id="node5" class="node">
<title>s2_league4_game2_06_stac_1399316519</title>
<g id="a_node5"><a xlink:title="3 &#160;somdechn &#160;Again!!!">
<ellipse fill="black" stroke="black" cx="20" cy="-144.5" rx="3.5" ry="3.5"/>
</a>
</g>
</g>
<!-- s2_league4_game2_06_stac_1399316513&#45;&gt;s2_league4_game2_06_stac_1399316519 -->
<g id="edge14" class="edge">
<title>s2_league4_game2_06_stac_1399316513&#45;&gt;s2_league4_game2_06_stac_1399316519</title>
<g id="a_edge14"><a xlink:title="Comment">
<path fill="none" stroke="#ff8200" d="M51.41,-191.18C46.59,-184.17 32.01,-162.96 24.53,-152.09"/>
<polygon fill="#ff8200" stroke="#ff8200" points="25.93,-151.03 21.65,-147.9 23.04,-153.02 25.93,-151.03"/>
</a>
</g>
</g>
<!-- s2_league4_game2_06_stac_1399316522 -->
<g id="node7" class="node">
<title>s2_league4_game2_06_stac_1399316522</title>
<g id="a_node7"><a xlink:title="4 &#160;Shawnus &#160;phew">
<ellipse fill="black" stroke="black" cx="40" cy="-119.5" rx="3.5" ry="3.5"/>
</a>
</g>
</g>
<!-- s2_league4_game2_06_stac_1399316513&#45;&gt;s2_league4_game2_06_stac_1399316522 -->
<g id="edge15" class="edge">
<title>s2_league4_game2_06_stac_1399316513&#45;&gt;s2_league4_game2_06_stac_1399316522</title>
<g id="a_edge15"><a xlink:title="Comment">
<path fill="none" stroke="#ff8200" d="M54,-190.99C56.92,-183.25 64.84,-159.16 58,-141 55.69,-134.88 50.64,-129.4 46.47,-125.65"/>
<polygon fill="#ff8200" stroke="#ff8200" points="47.43,-124.17 42.47,-122.31 45.19,-126.85 47.43,-124.17"/>
</a>
</g>
</g>
<!-- s2_league4_game2_06_stac_1399316529 -->
<g id="node9" class="node">
<title>s2_league4_game2_06_stac_1399316529</title>
<g id="a_node9"><a xlink:title="6 &#160;ztime &#160;anyone want wheat?">
<ellipse fill="black" stroke="black" cx="50" cy="-69.5" rx="3.5" ry="3.5"/>
</a>
</g>
</g>
<!-- s2_league4_game2_06_stac_1399316513&#45;&gt;s2_league4_game2_06_stac_1399316529 -->
<g id="edge16" class="edge">
<title>s2_league4_game2_06_stac_1399316513&#45;&gt;s2_league4_game2_06_stac_1399316529</title>
<g id="a_edge16"><a xlink:title="ParallNarrContinuationbackground">
<path fill="none" stroke="#0ab046" d="M54.72,-191.13C62.9,-179.54 96.73,-127.92 78,-91 73.83,-82.77 64.63,-77.05 57.91,-73.78"/>
<polygon fill="#0ab046" stroke="#0ab046" points="58.29,-72.04 53.01,-71.61 56.88,-75.24 58.29,-72.04"/>
</a>
</g>
</g>
<!-- 2_0 -->
<!-- s2_league4_game2_06_stac_1399316516&#45;&gt;2_0 -->
<!-- s2_league4_game2_06_stac_1399316516&#45;&gt;s2_league4_game2_06_stac_1399316519 -->
<!-- 3_0 -->
<!-- s2_league4_game2_06_stac_1399316519&#45;&gt;3_0 -->
<!-- s2_league4_game2_06_stac_1399316519&#45;&gt;s2_league4_game2_06_stac_1399316522 -->
<!-- s2_league4_game2_06_stac_1399316525 -->
<g id="node15" class="node">
<title>s2_league4_game2_06_stac_1399316525</title>
<g id="a_node15"><a xlink:title="5 &#160;ztime &#160;yer..">
<ellipse fill="black" stroke="black" cx="40" cy="-94.5" rx="3.5" ry="3.5"/>
</a>
</g>
</g>
<!-- s2_league4_game2_06_stac_1399316519&#45;&gt;s2_league4_game2_06_stac_1399316525 -->
<g id="edge17" class="edge">
<title>s2_league4_game2_06_stac_1399316519&#45;&gt;s2_league4_game2_06_stac_1399316525</title>
<g id="a_edge17"><a xlink:title="Acknowledgement">
<path fill="none" stroke="#12ffff" d="M20.54,-140.85C21.61,-135.85 24.23,-124.77 28,-116 30.11,-111.1 33.15,-105.92 35.64,-101.99"/>
<polygon fill="#12ffff" stroke="#12ffff" points="37.11,-102.94 38.4,-97.8 34.19,-101.02 37.11,-102.94"/>
</a>
</g>
</g>
<!-- 4_0 -->
<!-- s2_league4_game2_06_stac_1399316522&#45;&gt;4_0 -->
<!-- s2_league4_game2_06_stac_1399316522&#45;&gt;s2_league4_game2_06_stac_1399316525 -->
<!-- 6_0 -->
<!-- s2_league4_game2_06_stac_1399316529&#45;&gt;6_0 -->
<!-- s2_league4_game2_06_stac_1399316532 -->
<g id="node11" class="node">
<title>s2_league4_game2_06_stac_1399316532</title>
<g id="a_node11"><a xlink:title="7 &#160;Shawnus &#160;nope :(">
<ellipse fill="black" stroke="black" cx="39" cy="-44.5" rx="3.5" ry="3.5"/>
</a>
</g>
</g>
<!-- s2_league4_game2_06_stac_1399316529&#45;&gt;s2_league4_game2_06_stac_1399316532 -->
<g id="edge19" class="edge">
<title>s2_league4_game2_06_stac_1399316529&#45;&gt;s2_league4_game2_06_stac_1399316532</title>
<g id="a_edge19"><a xlink:title="Question_answer_pair">
<path fill="none" stroke="#12ffff" d="M48.82,-66.04C47.29,-62.84 44.56,-57.12 42.36,-52.53"/>
<polygon fill="#12ffff" stroke="#12ffff" points="43.87,-51.63 40.14,-47.87 40.71,-53.14 43.87,-51.63"/>
</a>
</g>
</g>
<!-- s2_league4_game2_06_stac_1399316535 -->
<g id="node13" class="node">
<title>s2_league4_game2_06_stac_1399316535</title>
<g id="a_node13"><a xlink:title="8 &#160;somdechn &#160;Nop">
<ellipse fill="black" stroke="black" cx="50" cy="-19.5" rx="3.5" ry="3.5"/>
</a>
</g>
</g>
<!-- s2_league4_game2_06_stac_1399316529&#45;&gt;s2_league4_game2_06_stac_1399316535 -->
<g id="edge20" class="edge">
<title>s2_league4_game2_06_stac_1399316529&#45;&gt;s2_league4_game2_06_stac_1399316535</title>
<g id="a_edge20"><a xlink:title="Question_answer_pair">
<path fill="none" stroke="#12ffff" d="M50.4,-65.92C51.1,-61.06 52.45,-50.18 52,-41 51.79,-36.78 51.35,-32.09 50.94,-28.26"/>
<polygon fill="#12ffff" stroke="#12ffff" points="52.66,-27.91 50.34,-23.15 49.18,-28.32 52.66,-27.91"/>
</a>
</g>
</g>
<!-- 7_0 -->
<!-- s2_league4_game2_06_stac_1399316532&#45;&gt;7_0 -->
<!-- s2_league4_game2_06_stac_1399316532&#45;&gt;s2_league4_game2_06_stac_1399316535 -->
<!-- 8_0 -->
<!-- s2_league4_game2_06_stac_1399316535&#45;&gt;8_0 -->
<!-- s2_league4_game2_06_stac_1399316525&#45;&gt;s2_league4_game2_06_stac_1399316529 -->
<!-- s2_league4_game2_06_stac_1399316526 -->
<g id="node16" class="node">
<title>s2_league4_game2_06_stac_1399316526</title>
<g id="a_node16"><a xlink:title="5 &#160;ztime &#160;I know.. comes up a lot in these games..">
<ellipse fill="black" stroke="black" cx="65" cy="-94.5" rx="3.5" ry="3.5"/>
</a>
</g>
</g>
<!-- s2_league4_game2_06_stac_1399316525&#45;&gt;s2_league4_game2_06_stac_1399316526 -->
<g id="edge18" class="edge">
<title>s2_league4_game2_06_stac_1399316525&#45;&gt;s2_league4_game2_06_stac_1399316526</title>
<g id="a_edge18"><a xlink:title="Elaboration">
<path fill="none" stroke="#a621c7" d="M43.52,-94.5C47.78,-94.5 52.04,-94.5 56.3,-94.5"/>
<polygon fill="#a621c7" stroke="#a621c7" points="56.31,-96.25 61.31,-94.5 56.31,-92.75 56.31,-96.25"/>
</a>
</g>
</g>
</g>
</svg>
